<svg width="1437" height="260" viewBox="35 31 1600 260" fill="none" xmlns="http://www.w3.org/2000/svg">
  <g filter="url(#filter0_d_4648_8364)">
    <g clip-path="url(#clip0_4648_8364)">
      <rect x="35" y="31" width="1436" height="261" rx="30" fill="url(#paint0_linear_4648_8364)"/>
      <path d="M300.217 74.1945H298.327V76.1345H297.007V74.1945H295.117V72.9745H297.007V71.0345H298.327V72.9745H300.217V74.1945Z" fill="white"/>
      <path d="M145.307 247.304H143.417V249.244H142.097V247.304H140.207V246.084H142.097V244.144H143.417V246.084H145.307V247.304Z" fill="white"/>
      <path d="M100.49 78.1945H98.6003V80.1345H97.2803V78.1945H95.3903V76.9745H97.2803V75.0345H98.6003V76.9745H100.49V78.1945Z" fill="white"/>
      <path d="M433.791 282.933H431.901V284.873H430.581V282.933H428.691V281.713H430.581V279.773H431.901V281.713H433.791V282.933Z" fill="white"/>
      <path d="M644.69 236.304H642.8V238.244H641.48V236.304H639.59V235.084H641.48V233.144H642.8V235.084H644.69V236.304Z" fill="white"/>
      <path d="M805.291 273.638H803.401V275.578H802.081V273.638H800.191V272.418H802.081V270.478H803.401V272.418H805.291V273.638Z" fill="white"/>
      <path d="M999.467 169.55H997.577V171.49H996.257V169.55H994.367V168.33H996.257V166.39H997.577V168.33H999.467V169.55Z" fill="white"/>
      <path d="M981.002 266.594H979.112V268.534H977.792V266.594H975.902V265.374H977.792V263.434H979.112V265.374H981.002V266.594Z" fill="white"/>
      <path d="M630.639 89.1945H628.749V91.1345H627.429V89.1945H625.539V87.9745H627.429V86.0345H628.749V87.9745H630.639V89.1945Z" fill="white"/>
      <path d="M107.636 113.813L118.089 116.19L126.754 109.013L122.251 117.888L130.385 123.093L119.599 121.176L111.267 127.892L115.369 119.451L107.636 113.813Z" fill="white"/>
      <path d="M48.16 236.289L54.0012 237.625L58.8397 233.61L56.3274 238.574L60.8818 241.478L54.8534 240.407L50.1835 244.162L52.4826 239.44L48.16 236.289Z" fill="white"/>
      <path d="M181.059 118.68L186.896 120.002L191.746 115.992L189.222 120.951L193.769 123.865L187.748 122.784L183.09 126.544L185.378 121.817L181.059 118.68Z" fill="white"/>
      <path d="M38.7058 258.849C39.1042 258.976 39.5709 258.978 40.0138 258.854C40.4566 258.73 40.8433 258.489 41.0974 258.179C41.3515 257.87 41.4545 257.513 41.3861 257.181C41.3178 256.848 41.0829 256.564 40.7281 256.383C40.3297 256.256 39.8629 256.255 39.4201 256.379C38.9773 256.503 38.5907 256.743 38.3365 257.053C38.0824 257.363 37.9794 257.719 38.0478 258.052C38.1161 258.384 38.3509 258.669 38.7058 258.849Z" fill="white"/>
      <path d="M129.943 133.232C130.214 133.266 130.504 133.232 130.771 133.133C131.037 133.035 131.266 132.878 131.424 132.685C131.582 132.492 131.661 132.274 131.649 132.062C131.637 131.85 131.534 131.655 131.357 131.506C131.085 131.472 130.795 131.506 130.529 131.605C130.262 131.703 130.033 131.86 129.875 132.053C129.717 132.245 129.638 132.464 129.651 132.676C129.663 132.888 129.765 133.083 129.943 133.232Z" fill="white"/>
      <path d="M304.105 224.164C304.379 224.203 304.674 224.171 304.945 224.073C305.217 223.975 305.45 223.816 305.61 223.621C305.77 223.425 305.849 223.203 305.834 222.988C305.819 222.773 305.712 222.577 305.528 222.429C305.254 222.39 304.959 222.422 304.688 222.52C304.417 222.618 304.184 222.777 304.023 222.973C303.863 223.168 303.784 223.39 303.799 223.605C303.814 223.82 303.921 224.016 304.105 224.164Z" fill="white"/>
      <path d="M283.531 225.712C287.246 227.227 291.126 222.497 287.411 220.982C283.697 219.467 279.806 224.192 283.531 225.712Z" fill="white"/>
      <path d="M1288.9 245.337L1289.71 236.534L1279.15 233.279L1290.96 232.696L1295.71 224.364L1295.53 233.21L1305.46 236.421L1294.26 237.109L1288.9 245.337Z" fill="white"/>
      <path d="M1466.5 246.833L1466.96 241.911L1461.06 240.097L1467.66 239.766L1470.31 235.105L1470.21 240.049L1475.77 241.853L1469.5 242.235L1466.5 246.833Z" fill="white"/>
      <path d="M1272.06 192.26L1272.5 187.347L1266.6 185.522L1273.2 185.202L1275.86 180.542L1275.75 185.485L1281.31 187.279L1275.04 187.671L1272.06 192.26Z" fill="white"/>
      <path d="M1307.75 222.435C1307.73 222.213 1307.63 222.009 1307.45 221.851C1307.27 221.693 1307.03 221.59 1306.76 221.557C1306.48 221.524 1306.19 221.563 1305.93 221.669C1305.66 221.774 1305.44 221.939 1305.29 222.141C1305.3 222.363 1305.41 222.567 1305.59 222.725C1305.76 222.883 1306.01 222.986 1306.28 223.019C1306.56 223.052 1306.85 223.013 1307.11 222.908C1307.37 222.803 1307.6 222.637 1307.75 222.435Z" fill="white"/>
      <path d="M1369.09 72.1568C1369.08 71.9319 1368.98 71.7231 1368.8 71.5617C1368.62 71.4004 1368.37 71.2952 1368.1 71.262C1367.82 71.2287 1367.53 71.2692 1367.26 71.3774C1366.99 71.4856 1366.77 71.6556 1366.62 71.8619C1366.63 72.0869 1366.73 72.2957 1366.91 72.457C1367.09 72.6184 1367.33 72.7236 1367.61 72.7568C1367.89 72.7901 1368.18 72.7495 1368.45 72.6414C1368.72 72.5332 1368.94 72.3632 1369.09 72.1568Z" fill="white"/>
      <path d="M1377.44 85.8342C1378.55 82.4042 1371.95 81.6157 1370.83 85.0457C1369.72 88.4757 1376.32 89.2744 1377.44 85.8342Z" fill="white"/>
    </g>
  </g>
  <defs>
    <filter id="filter0_d_4648_8364" x="0" y="0" width="1506" height="331" filterUnits="userSpaceOnUse" color-interpolation-filters="sRGB">
      <feFlood flood-opacity="0" result="BackgroundImageFix"/>
      <feColorMatrix in="SourceAlpha" type="matrix" values="0 0 0 0 0 0 0 0 0 0 0 0 0 0 0 0 0 0 127 0" result="hardAlpha"/>
      <feOffset dy="4"/>
      <feGaussianBlur stdDeviation="17.5"/>
      <feComposite in2="hardAlpha" operator="out"/>
      <feColorMatrix type="matrix" values="0 0 0 0 0 0 0 0 0 0 0 0 0 0 0 0 0 0 0.05 0"/>
      <feBlend mode="normal" in2="BackgroundImageFix" result="effect1_dropShadow_4648_8364"/>
      <feBlend mode="normal" in="SourceGraphic" in2="effect1_dropShadow_4648_8364" result="shape"/>
    </filter>
    <linearGradient id="paint0_linear_4648_8364" x1="-252.197" y1="-16.0534" x2="1425.16" y2="855.931" gradientUnits="userSpaceOnUse">
      <stop offset="0.00378076" stop-color="#30373B"/>
      <stop offset="1" stop-color="#3D10BD"/>
    </linearGradient>
    <clipPath id="clip0_4648_8364">
      <rect x="35" y="31" width="1436" height="261" rx="30" fill="white"/>
    </clipPath>
  </defs>
</svg>
