<svg width="121" height="114" viewBox="0 0 121 114" fill="none" xmlns="http://www.w3.org/2000/svg">
<g clip-path="url(#clip0_3822_7935)">
<path d="M101.976 0.947021H19.0977V114H101.976V0.947021Z" fill="#EBF0F3"/>
<path d="M51.9266 12.0674C49.4049 9.68127 45.9199 8.20447 42.07 8.20239C38.22 8.20055 34.7333 9.67367 32.209 12.0571L42.0624 21.3806L51.9266 12.0674Z" fill="#E56353"/>
<path d="M30.0873 12.0552C27.5627 14.4388 26.0002 17.7325 25.998 21.3714C25.9959 25.0104 27.5547 28.3057 30.0763 30.6919L39.9405 21.3787L30.0873 12.0552Z" fill="#D15241"/>
<path d="M51.9267 12.0662L42.0625 21.3793L51.916 30.7027C54.4403 28.319 56.003 25.0253 56.005 21.3863C56.0069 17.7474 54.4483 14.4521 51.9267 12.0662Z" fill="#FCD462"/>
<path d="M42.0614 21.3826L32.1973 30.6958C34.7192 33.0819 38.2039 34.5587 42.0539 34.5608H42.0541L42.0614 21.3826Z" fill="#D5D6DB"/>
<path d="M42.0639 21.3826L42.0566 34.5606C45.9066 34.5624 49.3933 33.0893 51.9176 30.7059L42.0639 21.3826Z" fill="#44C4A1"/>
<path d="M65.892 8.21313H61.8086V12.0727H65.892V8.21313Z" fill="#D15241"/>
<path d="M65.892 13.7783H61.8086V17.6378H65.892V13.7783Z" fill="#D5D6DB"/>
<path d="M65.8803 19.3396H61.7969V23.1991H65.8803V19.3396Z" fill="#E56353"/>
<path d="M65.8803 24.9048H61.7969V28.7643H65.8803V24.9048Z" fill="#44C4A1"/>
<path d="M65.8803 30.4697H61.7969V34.3292H65.8803V30.4697Z" fill="#FCD462"/>
<path d="M94.1029 42.6631H27.4043V44.3879H94.1029V42.6631Z" fill="#D5D6DB"/>
<path d="M94.2207 33.2503L69.2266 33.2914L69.2273 31.5668L94.2215 31.5256L94.2207 33.2503Z" fill="#D5D6DB"/>
<path d="M94.0899 27.6848L69.0957 27.726L69.0964 26.0014L94.0909 25.9604L94.0899 27.6848Z" fill="#D5D6DB"/>
<path d="M94.0921 22.1201L69.0977 22.1613L69.0989 20.4369L94.0931 20.3955L94.0921 22.1201Z" fill="#D5D6DB"/>
<path d="M94.1038 16.5588L69.1094 16.5998L69.1103 14.8754L94.1045 14.834L94.1038 16.5588Z" fill="#D5D6DB"/>
<path d="M94.1153 10.9934L69.1211 11.0349L69.1221 9.31023L94.1165 9.26904L94.1153 10.9934Z" fill="#D5D6DB"/>
<path d="M94.0893 49.1658H27.3906V50.8906H94.0893V49.1658Z" fill="#D5D6DB"/>
<path d="M94.0775 55.6687H27.3789V57.3936H94.0775V55.6687Z" fill="#D5D6DB"/>
<path d="M94.0639 62.1716H27.3652V63.8965H94.0639V62.1716Z" fill="#D5D6DB"/>
<path d="M63.5158 70.3591L27.3516 70.3803L27.3525 68.6557L63.517 68.6345L63.5158 70.3591Z" fill="#D5D6DB"/>
<path d="M29.1541 105.911L29.1726 73.8747L27.3864 73.8735L27.3682 105.91L27.3672 107.598L29.1531 107.599L94.0702 107.633L94.0714 105.945L29.1541 105.911Z" fill="#64798A"/>
<path d="M34.2327 101.424C34.0803 101.424 33.9267 101.376 33.7991 101.278C33.5041 101.051 33.4593 100.641 33.6993 100.362L42.2978 90.3658L54.7752 96.0836L62.5242 90.4452L72.0992 94.0417L80.6472 89.5098L84.5274 80.4919C84.6712 80.1589 85.0715 79.9983 85.4247 80.1338C85.7772 80.2693 85.9467 80.649 85.8035 80.9817L81.7415 90.4217L72.2009 95.4803L62.7441 91.9284L54.941 97.6064L42.6788 91.9869L34.7688 101.184C34.6318 101.342 34.4329 101.424 34.2327 101.424Z" fill="#64798A"/>
<path d="M42.4982 92.9955C43.4152 92.9955 44.1586 92.2929 44.1586 91.4262C44.1586 90.5595 43.4152 89.8569 42.4982 89.8569C41.5812 89.8569 40.8379 90.5595 40.8379 91.4262C40.8379 92.2929 41.5812 92.9955 42.4982 92.9955Z" fill="#FCD462"/>
<path d="M54.7541 98.2263C55.6711 98.2263 56.4144 97.5237 56.4144 96.6569C56.4144 95.7902 55.6711 95.0876 54.7541 95.0876C53.8371 95.0876 53.0938 95.7902 53.0938 96.6569C53.0938 97.5237 53.8371 98.2263 54.7541 98.2263Z" fill="#44C4A1"/>
<path d="M62.7639 93.0102C63.6808 93.0102 64.4242 92.3076 64.4242 91.4409C64.4242 90.5742 63.6808 89.8716 62.7639 89.8716C61.8469 89.8716 61.1035 90.5742 61.1035 91.4409C61.1035 92.3076 61.8469 93.0102 62.7639 93.0102Z" fill="#E56353"/>
<path d="M72.1057 96.1432C73.0226 96.1432 73.766 95.4406 73.766 94.5739C73.766 93.7072 73.0226 93.0046 72.1057 93.0046C71.1887 93.0046 70.4453 93.7072 70.4453 94.5739C70.4453 95.4406 71.1887 96.1432 72.1057 96.1432Z" fill="#D5D6DB"/>
<path d="M81.092 91.4399C82.009 91.4399 82.7523 90.7373 82.7523 89.8706C82.7523 89.0039 82.009 88.3013 81.092 88.3013C80.175 88.3013 79.4316 89.0039 79.4316 89.8706C79.4316 90.7373 80.175 91.4399 81.092 91.4399Z" fill="#DC8744"/>
</g>
<defs>
<clipPath id="clip0_3822_7935">
<rect width="119.611" height="113.053" fill="white" transform="translate(0.730469 0.945312)"/>
</clipPath>
</defs>
</svg>
