<svg width="82" height="108" viewBox="0 0 82 108" fill="none" xmlns="http://www.w3.org/2000/svg">
<path d="M81.456 0.46875H0.546875V107.78H81.456V0.46875Z" fill="#EBF0F3"/>
<path d="M81.4498 107.782H0.541016L63.3863 92.844L81.4498 107.782Z" fill="#D5D6DB"/>
<path d="M21.5133 25.0906L19.9914 21.5552H13.1313L11.6094 25.0906H7.72461L14.7955 8.72461H18.3309L25.4017 25.0906H21.5133ZM16.5731 13.5946L14.5127 18.3475H18.61L16.5731 13.5946Z" fill="#E56353"/>
<path d="M30.5056 22.5379V18.3235H26.4082V15.4418H30.5056V11.2292H33.7366V15.4418H37.834V18.3235H33.7366V22.5379H30.5056Z" fill="#E56353"/>
<path d="M76.1112 33.7788H7.72461V35.7298H76.1112V33.7788Z" fill="#D5D6DB"/>
<path d="M76.1112 43.4412H7.72461V45.3922H76.1112V43.4412Z" fill="#D5D6DB"/>
<path d="M64.5413 53.1079H7.72461V55.0589H64.5413V53.1079Z" fill="#D5D6DB"/>
<path d="M76.1112 62.7659H7.72461V64.7169H76.1112V62.7659Z" fill="#D5D6DB"/>
<path d="M76.1112 72.446H7.72461V74.397H76.1112V72.446Z" fill="#D5D6DB"/>
<path d="M40.0099 82.0994H7.72461V84.0504H40.0099V82.0994Z" fill="#D5D6DB"/>
</svg>
