<svg width="334" height="328" viewBox="0 0 334 328" fill="none" xmlns="http://www.w3.org/2000/svg">
<g clip-path="url(#clip0_3624_9718)">
<path d="M333.244 249.453H0.755859V249.619H333.244V249.453Z" fill="#EBEBEB"/>
<path d="M299.928 260.151H277.904V260.317H299.928V260.151Z" fill="#EBEBEB"/>
<path d="M221.009 261.96H215.23V262.126H221.009V261.96Z" fill="#EBEBEB"/>
<path d="M277.239 253.981H264.479V254.147H277.239V253.981Z" fill="#EBEBEB"/>
<path d="M64.361 255.099H35.6406V255.265H64.361V255.099Z" fill="#EBEBEB"/>
<path d="M74.4964 255.099H70.2871V255.265H74.4964V255.099Z" fill="#EBEBEB"/>
<path d="M150.477 257.906H88.1816V258.072H150.477V257.906Z" fill="#EBEBEB"/>
<path d="M158.357 219.795H29.9564C28.9505 219.793 27.9864 219.393 27.2758 218.681C26.5651 217.969 26.166 217.004 26.166 215.998V35.5035C26.1748 34.5034 26.5778 33.5471 27.2875 32.8424C27.9972 32.1377 28.9562 31.7415 29.9564 31.7397H158.357C159.364 31.7397 160.33 32.1398 161.042 32.8519C161.754 33.5639 162.154 34.5297 162.154 35.5368V215.998C162.154 217.005 161.754 217.971 161.042 218.683C160.33 219.395 159.364 219.795 158.357 219.795ZM29.9564 31.8727C28.9946 31.8745 28.0728 32.2578 27.3933 32.9385C26.7139 33.6192 26.3323 34.5417 26.3323 35.5035V215.998C26.3323 216.96 26.7139 217.882 27.3933 218.563C28.0728 219.244 28.9946 219.627 29.9564 219.629H158.357C159.319 219.627 160.242 219.244 160.922 218.564C161.603 217.883 161.986 216.961 161.987 215.998V35.5035C161.986 34.5411 161.603 33.6186 160.922 32.9381C160.242 32.2576 159.319 31.8745 158.357 31.8727H29.9564Z" fill="#EBEBEB"/>
<path d="M302.196 219.795H173.789C172.783 219.793 171.818 219.393 171.106 218.681C170.395 217.969 169.994 217.005 169.992 215.998V35.5035C170.003 34.5028 170.407 33.5465 171.118 32.842C171.829 32.1375 172.788 31.7414 173.789 31.7397H302.196C303.195 31.7432 304.153 32.1402 304.861 32.8448C305.569 33.5493 305.971 34.5046 305.98 35.5035V215.998C305.98 217.003 305.582 217.967 304.872 218.678C304.163 219.39 303.201 219.792 302.196 219.795ZM173.789 31.8727C172.827 31.8745 171.904 32.2576 171.224 32.9381C170.543 33.6186 170.16 34.5411 170.158 35.5035V215.998C170.16 216.961 170.543 217.883 171.224 218.564C171.904 219.244 172.827 219.627 173.789 219.629H302.196C303.159 219.627 304.081 219.244 304.762 218.564C305.442 217.883 305.825 216.961 305.827 215.998V35.5035C305.825 34.5411 305.442 33.6186 304.762 32.9381C304.081 32.2576 303.159 31.8745 302.196 31.8727H173.789Z" fill="#EBEBEB"/>
<path d="M274.381 226.453C274.381 226.453 269.273 216.479 275.112 206.597C280.95 196.716 282.639 194.415 278.916 192.393C275.192 190.372 273.489 200.28 273.489 200.28C273.489 200.28 270.351 193.464 272.944 186.315C275.538 179.167 277.16 167.563 273.609 166.32C270.058 165.076 272.944 180.809 269.859 186.176C269.859 186.176 267.285 180.191 266.86 174.472C266.434 168.753 267.099 159.597 264.306 157.249C261.513 154.902 259.718 156.531 262.464 169.172C264.113 176.704 265.026 184.379 265.191 192.087C265.191 192.087 259.126 175.503 255.056 175.024C250.987 174.545 250.993 179.912 254.478 184.567C257.962 189.221 264.678 197.574 265.782 201.856C265.782 201.856 259.133 189.381 253.148 193.211C247.163 197.042 258.361 204.576 263.355 207.295C268.349 210.015 271.807 227.098 271.807 227.098L274.381 226.453Z" fill="#1F9647"/>
<path d="M270.344 230.568C270.344 230.568 275.325 220.501 269.354 210.719C263.382 200.937 261.66 198.643 265.364 196.575C269.068 194.507 270.896 204.388 270.896 204.388C270.896 204.388 273.942 197.526 271.255 190.424C268.569 183.322 266.793 171.731 270.311 170.441C273.829 169.151 271.182 184.924 274.301 190.244C274.301 190.244 276.801 184.259 277.147 178.507C277.493 172.755 276.708 163.632 279.475 161.251C282.241 158.871 284.043 160.467 281.47 173.141C279.924 180.697 279.113 188.384 279.049 196.096C279.049 196.096 284.894 179.432 288.957 178.893C293.02 178.354 293.087 183.727 289.662 188.429C286.237 193.13 279.634 201.569 278.59 205.878C278.59 205.878 285.08 193.31 291.118 197.054C297.156 200.797 286.058 208.485 281.104 211.277C276.15 214.07 272.911 231.187 272.911 231.187L270.344 230.568Z" fill="#27C400"/>
<path d="M293.298 223.382H252.189L255.514 249.769H289.973L293.298 223.382Z" fill="#B9A815"/>
<path d="M219.97 56.3821H145.08V139.251H219.97V56.3821Z" fill="#E9E9E9"/>
<path d="M216.873 59.6685H148.381V136.141H216.873V59.6685Z" fill="#F4F4F4"/>
<path d="M167.738 59.6685L148.381 132.164V92.9173L157.238 59.6685H167.738Z" fill="white"/>
<path d="M176.39 59.6685L155.975 136.141H152.125L172.54 59.6685H176.39Z" fill="white"/>
<path d="M216.873 80.5229V119.777L212.537 136.142H202.037L216.873 80.5229Z" fill="white"/>
<path d="M183.857 56.3821H181.197V139.251H183.857V56.3821Z" fill="#E9E9E9"/>
<path d="M218.535 73.2004H146.385V75.8603H218.535V73.2004Z" fill="#E9E9E9"/>
<path d="M117.565 56.3821H42.6758V139.251H117.565V56.3821Z" fill="#E9E9E9"/>
<path d="M114.465 59.6685H45.9727V136.141H114.465V59.6685Z" fill="#F4F4F4"/>
<path d="M65.3301 59.6685L45.9727 132.164V92.9173L54.8301 59.6685H65.3301Z" fill="white"/>
<path d="M73.9837 59.6685L53.569 136.141H49.7188L70.1335 59.6685H73.9837Z" fill="white"/>
<path d="M114.466 80.5229V119.777L110.131 136.142H99.6309L114.466 80.5229Z" fill="white"/>
<path d="M81.449 56.3821H78.7891V139.251H81.449V56.3821Z" fill="#E9E9E9"/>
<path d="M116.13 73.2004H43.9805V75.8603H116.13V73.2004Z" fill="#E9E9E9"/>
<path d="M167.001 279.485C238.208 279.485 295.933 276.115 295.933 271.957C295.933 267.8 238.208 264.43 167.001 264.43C95.7933 264.43 38.0684 267.8 38.0684 271.957C38.0684 276.115 95.7933 279.485 167.001 279.485Z" fill="#F2F2F2"/>
<path d="M254.549 249.767H152.481C151.87 249.776 151.264 249.657 150.703 249.416C150.142 249.175 149.637 248.818 149.224 248.368C148.81 247.918 148.496 247.386 148.302 246.807C148.108 246.228 148.039 245.614 148.099 245.006L160.966 79.9319C161.083 78.6455 161.671 77.4475 162.617 76.5686C163.564 75.6896 164.802 75.1917 166.093 75.1707H268.154C268.765 75.1613 269.371 75.281 269.933 75.522C270.495 75.7631 270.999 76.12 271.414 76.5694C271.828 77.0188 272.143 77.5507 272.337 78.1301C272.532 78.7095 272.602 79.3235 272.543 79.9319L259.676 245.006C259.558 246.292 258.969 247.489 258.023 248.367C257.077 249.246 255.84 249.744 254.549 249.767Z" fill="#2E353A"/>
<path opacity="0.2" d="M254.549 249.767H152.481C151.87 249.776 151.264 249.657 150.703 249.416C150.142 249.175 149.637 248.818 149.224 248.368C148.81 247.918 148.496 247.386 148.302 246.807C148.108 246.228 148.039 245.614 148.099 245.006L160.966 79.9319C161.083 78.6455 161.671 77.4475 162.617 76.5686C163.564 75.6896 164.802 75.1917 166.093 75.1707H268.154C268.765 75.1613 269.371 75.281 269.933 75.522C270.495 75.7631 270.999 76.12 271.414 76.5694C271.828 77.0188 272.143 77.5507 272.337 78.1301C272.532 78.7095 272.602 79.3235 272.543 79.9319L259.676 245.006C259.558 246.292 258.969 247.489 258.023 248.367C257.077 249.246 255.84 249.744 254.549 249.767Z" fill="white"/>
<path d="M240.724 85.9641H191.848C191.634 85.9679 191.422 85.9265 191.226 85.8426C191.029 85.7587 190.852 85.6341 190.707 85.4772C190.562 85.3202 190.452 85.1343 190.384 84.9317C190.316 84.7291 190.291 84.5144 190.312 84.3017L191.063 74.6529C191.104 74.2023 191.31 73.7827 191.641 73.4746C191.973 73.1666 192.406 72.9918 192.859 72.9838H241.734C241.948 72.9808 242.16 73.0231 242.356 73.1078C242.553 73.1926 242.729 73.3179 242.873 73.4755C243.018 73.6331 243.127 73.8195 243.195 74.0224C243.262 74.2253 243.285 74.4402 243.264 74.6529L242.512 84.2751C242.478 84.7287 242.275 85.1531 241.945 85.4654C241.614 85.7777 241.178 85.9555 240.724 85.9641Z" fill="#407BFF"/>
<path opacity="0.2" d="M240.724 85.9641H191.848C191.634 85.9679 191.422 85.9265 191.226 85.8426C191.029 85.7587 190.852 85.6341 190.707 85.4772C190.562 85.3202 190.452 85.1343 190.384 84.9317C190.316 84.7291 190.291 84.5144 190.312 84.3017L191.063 74.6529C191.104 74.2023 191.31 73.7827 191.641 73.4746C191.973 73.1666 192.406 72.9918 192.859 72.9838H241.734C241.948 72.9808 242.16 73.0231 242.356 73.1078C242.553 73.1926 242.729 73.3179 242.873 73.4755C243.018 73.6331 243.127 73.8195 243.195 74.0224C243.262 74.2253 243.285 74.4402 243.264 74.6529L242.512 84.2751C242.478 84.7287 242.275 85.1531 241.945 85.4654C241.614 85.7777 241.178 85.9555 240.724 85.9641Z" fill="black"/>
<path d="M220.862 75.981H213.215L213.514 72.1507C213.607 71.1178 214.08 70.1559 214.839 69.45C215.599 68.7442 216.593 68.3442 217.63 68.3271C218.121 68.3193 218.609 68.4151 219.06 68.6085C219.512 68.8019 219.918 69.0884 220.251 69.4493C220.584 69.8102 220.838 70.2373 220.994 70.7028C221.151 71.1683 221.208 71.6617 221.161 72.1507L220.862 75.981Z" fill="#407BFF"/>
<path opacity="0.4" d="M220.862 75.981H213.215L213.514 72.1507C213.607 71.1178 214.08 70.1559 214.839 69.45C215.599 68.7442 216.593 68.3442 217.63 68.3271C218.121 68.3193 218.609 68.4151 219.06 68.6085C219.512 68.8019 219.918 69.0884 220.251 69.4493C220.584 69.8102 220.838 70.2373 220.994 70.7028C221.151 71.1683 221.208 71.6617 221.161 72.1507L220.862 75.981Z" fill="white"/>
<path d="M253.171 242.869H154.928L167.469 82.0581H265.706L253.171 242.869Z" fill="white"/>
<path d="M231.634 90.4795H200.247C199.744 90.4865 199.245 90.3873 198.782 90.1884C198.32 89.9894 197.905 89.6952 197.564 89.3249C197.224 88.9547 196.965 88.5167 196.805 88.0396C196.645 87.5625 196.587 87.057 196.636 86.5561L197.035 81.4491C197.131 80.3897 197.616 79.4032 198.395 78.6791C199.175 77.955 200.194 77.5443 201.258 77.5257H232.651C233.154 77.5188 233.654 77.618 234.116 77.8169C234.579 78.0158 234.994 78.3098 235.335 78.68C235.677 79.0501 235.936 79.488 236.097 79.9651C236.258 80.4423 236.316 80.9479 236.269 81.4491L235.87 86.5561C235.77 87.6167 235.283 88.6033 234.501 89.3271C233.72 90.0509 232.699 90.4612 231.634 90.4795ZM201.138 78.8623C200.436 78.8742 199.764 79.1448 199.249 79.6222C198.735 80.0997 198.415 80.7503 198.352 81.4491L197.953 86.5561C197.92 86.8868 197.957 87.2207 198.062 87.5359C198.167 87.8511 198.338 88.1406 198.563 88.3854C198.787 88.6302 199.061 88.8248 199.366 88.9565C199.671 89.0882 200.001 89.154 200.333 89.1495H231.733C232.437 89.1377 233.111 88.8663 233.626 88.3877C234.142 87.909 234.462 87.2567 234.526 86.5561L234.925 81.4491C234.956 81.1186 234.917 80.7853 234.811 80.4709C234.704 80.1564 234.533 79.8679 234.308 79.6239C234.083 79.38 233.809 79.1861 233.504 79.0549C233.199 78.9237 232.87 78.8581 232.538 78.8623H201.138Z" fill="#407BFF"/>
<g opacity="0.4">
<path d="M231.634 90.4783H200.247C199.744 90.4853 199.245 90.3861 198.782 90.1872C198.32 89.9882 197.905 89.694 197.564 89.3237C197.224 88.9535 196.965 88.5155 196.805 88.0384C196.645 87.5612 196.587 87.0557 196.636 86.5549L197.035 81.4479C197.131 80.3885 197.616 79.402 198.395 78.6779C199.175 77.9538 200.194 77.5431 201.258 77.5245H232.651C233.154 77.5176 233.654 77.6168 234.116 77.8157C234.579 78.0145 234.994 78.3086 235.335 78.6788C235.677 79.0489 235.936 79.4868 236.097 79.9639C236.258 80.441 236.316 80.9467 236.269 81.4479L235.87 86.5549C235.77 87.6154 235.283 88.602 234.501 89.3259C233.72 90.0497 232.699 90.46 231.634 90.4783ZM201.138 78.8611C200.436 78.873 199.764 79.1436 199.249 79.621C198.735 80.0985 198.415 80.7491 198.352 81.4479L197.953 86.5549C197.92 86.8856 197.957 87.2195 198.062 87.5347C198.167 87.8499 198.338 88.1394 198.563 88.3842C198.787 88.629 199.061 88.8236 199.366 88.9553C199.671 89.087 200.001 89.1527 200.333 89.1483H231.733C232.437 89.1364 233.111 88.8651 233.626 88.3864C234.142 87.9078 234.462 87.2555 234.526 86.5549L234.925 81.4479C234.956 81.1174 234.917 80.7841 234.811 80.4696C234.704 80.1552 234.533 79.8667 234.308 79.6227C234.083 79.3788 233.809 79.1849 233.504 79.0537C233.199 78.9225 232.87 78.8569 232.538 78.8611H201.138Z" fill="white"/>
</g>
<path d="M230.01 80.4685H203.411C203.294 80.4709 203.177 80.4484 203.069 80.4026C202.961 80.3568 202.864 80.2886 202.784 80.2025C202.704 80.1165 202.644 80.0145 202.606 79.9033C202.569 79.7921 202.555 79.6742 202.566 79.5574L202.772 76.8975C202.797 76.6505 202.911 76.4211 203.094 76.2531C203.277 76.0851 203.515 75.9902 203.763 75.9865H230.362C230.479 75.984 230.596 76.0064 230.703 76.0523C230.811 76.0982 230.908 76.1665 230.987 76.2527C231.066 76.3389 231.126 76.441 231.163 76.5522C231.2 76.6634 231.213 76.7811 231.2 76.8975L230.994 79.5574C230.971 79.8039 230.858 80.0332 230.676 80.2013C230.495 80.3695 230.257 80.4646 230.01 80.4685Z" fill="#407BFF"/>
<path d="M252.534 105.552H178.057L178.688 97.4263H253.166L252.534 105.552Z" fill="#407BFF"/>
<path d="M222.389 116.863H172.809L172.975 114.768H222.555L222.389 116.863Z" fill="#407BFF"/>
<path d="M221.926 122.915H172.346L172.505 120.813H222.086L221.926 122.915Z" fill="#407BFF"/>
<path d="M221.452 128.969H171.871L172.031 126.867H221.611L221.452 128.969Z" fill="#407BFF"/>
<path d="M220.981 135.012H171.4L171.56 132.917H221.141L220.981 135.012Z" fill="#407BFF"/>
<path d="M253.51 135.01H233.281L234.864 114.768H255.092L253.51 135.01Z" fill="#407BFF"/>
<path d="M247.912 122.284C248.005 121.101 247.087 120.289 245.425 120.289C244.78 120.259 244.136 120.374 243.542 120.628C242.947 120.881 242.418 121.266 241.994 121.752L240.717 120.788C241.337 120.096 242.103 119.551 242.96 119.192C243.817 118.833 244.743 118.67 245.671 118.713C248.331 118.713 249.967 119.957 249.8 122.038C249.561 125.13 246.269 125.363 246.083 127.764H244.228C244.461 124.838 247.746 124.412 247.912 122.284ZM243.736 130.75C243.76 130.418 243.912 130.109 244.16 129.888C244.409 129.667 244.734 129.551 245.066 129.566C245.219 129.56 245.371 129.587 245.512 129.646C245.654 129.705 245.781 129.793 245.884 129.906C245.988 130.019 246.066 130.152 246.113 130.298C246.16 130.444 246.175 130.598 246.156 130.75C246.131 131.071 245.986 131.372 245.749 131.591C245.513 131.81 245.202 131.932 244.88 131.933C244.723 131.945 244.566 131.922 244.419 131.866C244.272 131.81 244.139 131.722 244.03 131.609C243.921 131.497 243.838 131.361 243.787 131.212C243.736 131.064 243.719 130.906 243.736 130.75Z" fill="white"/>
<path d="M220.004 147.499H170.424L170.59 145.398H220.171L220.004 147.499Z" fill="#407BFF"/>
<path d="M219.532 153.542H169.951L170.117 151.448H219.698L219.532 153.542Z" fill="#407BFF"/>
<path d="M219.065 159.596H169.484L169.644 157.502H219.225L219.065 159.596Z" fill="#407BFF"/>
<path d="M218.592 165.648H169.012L169.171 163.547H218.752L218.592 165.648Z" fill="#407BFF"/>
<path d="M251.123 165.646H230.895L232.471 145.398H252.699L251.123 165.646Z" fill="#407BFF"/>
<path d="M245.523 152.919C245.616 151.729 244.699 150.924 243.036 150.924C242.391 150.894 241.747 151.009 241.153 151.263C240.559 151.516 240.029 151.9 239.605 152.387L238.328 151.436C238.947 150.743 239.713 150.197 240.57 149.838C241.428 149.479 242.354 149.317 243.282 149.362C245.942 149.362 247.578 150.605 247.412 152.686C247.172 155.779 243.881 156.011 243.694 158.412H241.839C242.065 155.426 245.357 155.047 245.523 152.919ZM241.347 161.411C241.369 161.084 241.516 160.778 241.758 160.557C241.999 160.335 242.316 160.215 242.644 160.221C242.797 160.215 242.95 160.242 243.092 160.301C243.234 160.36 243.361 160.45 243.465 160.563C243.569 160.676 243.647 160.811 243.693 160.957C243.74 161.104 243.754 161.259 243.734 161.411C243.708 161.732 243.562 162.032 243.326 162.251C243.09 162.47 242.78 162.592 242.458 162.595C242.304 162.601 242.15 162.575 242.007 162.516C241.865 162.458 241.736 162.37 241.631 162.258C241.525 162.145 241.446 162.011 241.397 161.865C241.348 161.719 241.331 161.564 241.347 161.411Z" fill="white"/>
<path d="M217.616 178.127H168.035L168.201 176.032H217.782L217.616 178.127Z" fill="#407BFF"/>
<path d="M217.143 184.179H167.562L167.729 182.077H217.309L217.143 184.179Z" fill="#407BFF"/>
<path d="M216.67 190.229H167.096L167.255 188.127H216.836L216.67 190.229Z" fill="#407BFF"/>
<path d="M216.206 196.276H166.625L166.785 194.181H216.365L216.206 196.276Z" fill="#407BFF"/>
<path d="M248.736 196.274H228.508L230.084 176.032H250.312L248.736 196.274Z" fill="#407BFF"/>
<path d="M243.138 183.549C243.232 182.365 242.314 181.554 240.645 181.554C240.001 181.524 239.358 181.64 238.765 181.893C238.172 182.146 237.644 182.531 237.22 183.017L235.943 182.026C236.562 181.333 237.329 180.787 238.186 180.428C239.043 180.069 239.969 179.906 240.897 179.951C243.557 179.951 245.187 181.188 245.027 183.243C244.788 186.342 241.496 186.568 241.31 188.969H239.481C239.681 186.089 242.972 185.677 243.138 183.549ZM238.962 192.001C238.986 191.675 239.134 191.371 239.375 191.151C239.616 190.931 239.933 190.811 240.259 190.817C240.412 190.811 240.564 190.839 240.706 190.897C240.847 190.956 240.974 191.045 241.078 191.157C241.181 191.27 241.259 191.403 241.306 191.549C241.353 191.695 241.368 191.849 241.35 192.001C241.325 192.322 241.179 192.623 240.943 192.842C240.706 193.062 240.396 193.184 240.073 193.184C239.919 193.192 239.765 193.166 239.621 193.109C239.478 193.051 239.349 192.962 239.243 192.85C239.138 192.737 239.058 192.603 239.009 192.456C238.961 192.31 238.945 192.154 238.962 192.001Z" fill="white"/>
<path d="M215.229 208.763H165.648L165.815 206.662H215.395L215.229 208.763Z" fill="#407BFF"/>
<path d="M214.756 214.813H165.176L165.342 212.712H214.923L214.756 214.813Z" fill="#407BFF"/>
<path d="M214.284 220.861H164.703L164.869 218.766H214.45L214.284 220.861Z" fill="#407BFF"/>
<path d="M213.811 226.912H164.23L164.397 224.811H213.977L213.811 226.912Z" fill="#407BFF"/>
<path d="M246.35 226.911H226.121L227.697 206.662H247.926L246.35 226.911Z" fill="#407BFF"/>
<path d="M240.75 214.183C240.843 212.993 239.925 212.188 238.256 212.188C237.612 212.158 236.969 212.273 236.376 212.527C235.783 212.78 235.255 213.165 234.831 213.651L233.555 212.687C234.174 211.994 234.94 211.448 235.797 211.089C236.654 210.73 237.581 210.567 238.509 210.612C241.169 210.612 242.798 211.856 242.638 213.937C242.399 217.029 239.107 217.262 238.921 219.663H237.066C237.292 216.717 240.583 216.311 240.75 214.183ZM236.574 222.648C236.596 222.322 236.743 222.016 236.984 221.794C237.226 221.573 237.543 221.452 237.87 221.458C238.024 221.452 238.177 221.479 238.319 221.539C238.461 221.598 238.588 221.687 238.692 221.8C238.796 221.914 238.873 222.048 238.92 222.195C238.966 222.341 238.98 222.496 238.961 222.648C238.934 222.969 238.789 223.269 238.552 223.488C238.316 223.707 238.006 223.83 237.684 223.832C237.53 223.839 237.377 223.812 237.234 223.754C237.091 223.696 236.963 223.607 236.857 223.495C236.752 223.383 236.672 223.249 236.623 223.103C236.574 222.957 236.557 222.802 236.574 222.648Z" fill="white"/>
<path opacity="0.7" d="M252.534 105.552H178.057L178.688 97.4263H253.166L252.534 105.552Z" fill="white"/>
<path opacity="0.7" d="M222.389 116.863H172.809L172.975 114.768H222.555L222.389 116.863Z" fill="white"/>
<path opacity="0.7" d="M221.926 122.915H172.346L172.505 120.813H222.086L221.926 122.915Z" fill="white"/>
<path opacity="0.7" d="M221.452 128.969H171.871L172.031 126.867H221.611L221.452 128.969Z" fill="white"/>
<path opacity="0.7" d="M220.981 135.012H171.4L171.56 132.917H221.141L220.981 135.012Z" fill="white"/>
<path opacity="0.7" d="M253.51 135.01H233.281L234.864 114.768H255.092L253.51 135.01Z" fill="white"/>
<path opacity="0.7" d="M220.004 147.499H170.424L170.59 145.398H220.171L220.004 147.499Z" fill="white"/>
<path opacity="0.7" d="M219.532 153.542H169.951L170.117 151.448H219.698L219.532 153.542Z" fill="white"/>
<path opacity="0.7" d="M219.065 159.596H169.484L169.644 157.502H219.225L219.065 159.596Z" fill="white"/>
<path opacity="0.7" d="M218.592 165.648H169.012L169.171 163.547H218.752L218.592 165.648Z" fill="white"/>
<path opacity="0.7" d="M251.123 165.646H230.895L232.471 145.398H252.699L251.123 165.646Z" fill="white"/>
<path opacity="0.7" d="M217.616 178.127H168.035L168.201 176.032H217.782L217.616 178.127Z" fill="white"/>
<path opacity="0.7" d="M217.143 184.179H167.562L167.729 182.077H217.309L217.143 184.179Z" fill="white"/>
<path opacity="0.7" d="M216.67 190.229H167.096L167.255 188.127H216.836L216.67 190.229Z" fill="white"/>
<path opacity="0.7" d="M216.206 196.276H166.625L166.785 194.181H216.365L216.206 196.276Z" fill="white"/>
<path opacity="0.7" d="M248.736 196.274H228.508L230.084 176.032H250.312L248.736 196.274Z" fill="white"/>
<path opacity="0.7" d="M215.229 208.763H165.648L165.815 206.662H215.395L215.229 208.763Z" fill="white"/>
<path opacity="0.7" d="M214.756 214.813H165.176L165.342 212.712H214.923L214.756 214.813Z" fill="white"/>
<path opacity="0.7" d="M214.284 220.861H164.703L164.869 218.766H214.45L214.284 220.861Z" fill="white"/>
<path opacity="0.7" d="M213.811 226.912H164.23L164.397 224.811H213.977L213.811 226.912Z" fill="white"/>
<path opacity="0.7" d="M246.35 226.911H226.121L227.697 206.662H247.926L246.35 226.911Z" fill="white"/>
<path d="M133.75 166.066V184.379C133.754 187.99 132.36 191.463 129.859 194.068L112.77 211.949H122.445L140.2 194.474C141.524 193.172 142.576 191.619 143.296 189.907C144.015 188.194 144.386 186.356 144.389 184.499V166.066H133.75Z" fill="#407BFF"/>
<path opacity="0.4" d="M144.389 166.066V184.479C144.392 185.511 144.276 186.539 144.043 187.545C143.461 190.178 142.126 192.586 140.2 194.474L122.445 211.949H112.77L129.859 194.068C132.36 191.463 133.754 187.99 133.75 184.379V166.066H144.389Z" fill="white"/>
<path opacity="0.2" d="M144.388 166.066V184.479C144.39 185.511 144.274 186.539 144.042 187.545L133.748 183.389V166.066H144.388Z" fill="black"/>
<path d="M106.046 213.945L91.7227 268.513C91.5945 269.009 91.3047 269.449 90.8991 269.764C90.4934 270.078 89.9949 270.248 89.4818 270.248H63.8868C63.676 270.247 63.4682 270.198 63.2792 270.105C63.0901 270.012 62.925 269.876 62.7963 269.71C62.6671 269.543 62.5783 269.349 62.5367 269.142C62.4952 268.936 62.5021 268.723 62.5569 268.519L76.8871 213.945H74.1341L59.9834 267.841C59.8284 268.438 59.8119 269.063 59.9352 269.668C60.0586 270.272 60.3185 270.841 60.6951 271.33C61.0717 271.819 61.555 272.215 62.1082 272.489C62.6613 272.762 63.2697 272.906 63.8868 272.908H89.4818C90.5822 272.907 91.6513 272.542 92.5223 271.87C93.3933 271.197 94.0171 270.255 94.2962 269.191L108.793 213.945H106.046Z" fill="#407BFF"/>
<g opacity="0.4">
<path d="M106.046 213.945L91.7227 268.513C91.5945 269.009 91.3047 269.449 90.8991 269.764C90.4934 270.078 89.9949 270.248 89.4818 270.248H63.8868C63.676 270.247 63.4682 270.198 63.2792 270.105C63.0901 270.012 62.925 269.876 62.7963 269.71C62.6671 269.543 62.5783 269.349 62.5367 269.142C62.4952 268.936 62.5021 268.723 62.5569 268.519L76.8871 213.945H74.1341L59.9834 267.841C59.8284 268.438 59.8119 269.063 59.9352 269.668C60.0586 270.272 60.3185 270.841 60.6951 271.33C61.0717 271.819 61.555 272.215 62.1082 272.489C62.6613 272.762 63.2697 272.906 63.8868 272.908H89.4818C90.5822 272.907 91.6513 272.542 92.5223 271.87C93.3933 271.197 94.0171 270.255 94.2962 269.191L108.793 213.945H106.046Z" fill="white"/>
</g>
<path d="M111.904 272.91L96.2434 213.195L93.6699 213.867L109.151 272.91H111.904Z" fill="#407BFF"/>
<path d="M143.824 272.91L128.163 213.195L125.59 213.867L141.07 272.91H143.824Z" fill="#407BFF"/>
<g opacity="0.5">
<path d="M111.904 272.905L96.2434 213.19L93.6699 213.862L109.151 272.905H111.904Z" fill="white"/>
</g>
<g opacity="0.5">
<path d="M143.824 272.905L128.163 213.19L125.59 213.862L141.07 272.905H143.824Z" fill="white"/>
</g>
<path opacity="0.2" d="M74.1328 213.945H76.8858L74.7246 222.17L72.1777 221.392L74.1328 213.945Z" fill="black"/>
<path opacity="0.2" d="M96.2434 213.195L99.801 226.767L96.8153 225.863L93.6699 213.867L96.2434 213.195Z" fill="black"/>
<path opacity="0.2" d="M106.046 213.945H108.793L104.284 231.167L101.73 230.389L106.046 213.945Z" fill="black"/>
<path opacity="0.2" d="M134.447 237.32L131.448 236.403L125.59 214.033L128.163 213.302L134.447 237.32Z" fill="black"/>
<path d="M71.706 214.853L59.2709 147.538L59.1047 146.52C58.9818 145.891 58.9985 145.243 59.1536 144.622C59.3087 144 59.5985 143.42 60.0024 142.923C60.3925 142.456 60.8823 142.082 61.4357 141.829C61.9892 141.575 62.5924 141.449 63.2009 141.46H90.1192C91.3967 141.523 92.617 142.009 93.5875 142.842C94.558 143.676 95.2234 144.808 95.4789 146.061L95.6784 147.199L108.107 214.361L105.487 214.84L93.0185 147.478L92.8589 146.534C92.7205 145.891 92.3797 145.31 91.8865 144.875C91.3934 144.441 90.774 144.176 90.1192 144.12H63.1743C62.9558 144.111 62.7383 144.152 62.5379 144.24C62.3375 144.327 62.1595 144.459 62.0173 144.625C61.8619 144.828 61.7529 145.062 61.6978 145.311C61.6426 145.561 61.6427 145.819 61.6981 146.068L61.8843 147.185L74.326 214.348L71.706 214.853Z" fill="#407BFF"/>
<g opacity="0.5">
<path d="M71.706 214.853L59.2709 147.537L59.1047 146.52C58.9818 145.891 58.9985 145.243 59.1536 144.621C59.3087 143.999 59.5985 143.419 60.0024 142.922C60.3925 142.455 60.8823 142.081 61.4357 141.828C61.9892 141.575 62.5924 141.449 63.2009 141.459H90.1192C91.3967 141.522 92.617 142.008 93.5875 142.842C94.558 143.675 95.2234 144.807 95.4789 146.061L95.6784 147.198L108.107 214.36L105.487 214.839L93.0185 147.477L92.8589 146.533C92.7205 145.89 92.3797 145.309 91.8865 144.875C91.3934 144.44 90.774 144.175 90.1192 144.119H63.1743C62.9558 144.111 62.7383 144.152 62.5379 144.239C62.3375 144.327 62.1595 144.458 62.0173 144.624C61.8619 144.827 61.7529 145.061 61.6978 145.311C61.6426 145.56 61.6427 145.818 61.6981 146.067L61.8843 147.185L74.326 214.347L71.706 214.853Z" fill="white"/>
</g>
<path d="M77.1471 208.179H128.304C129.186 208.179 130.031 208.529 130.655 209.153C131.278 209.776 131.629 210.622 131.629 211.504V215.939H73.8223V211.49C73.8258 210.611 74.1776 209.769 74.8008 209.148C75.4239 208.527 76.2676 208.179 77.1471 208.179Z" fill="#407BFF"/>
<path d="M132.425 212.068H73.0222C72.284 212.068 71.6855 212.667 71.6855 213.405V214.615C71.6855 215.353 72.284 215.952 73.0222 215.952H132.425C133.163 215.952 133.761 215.353 133.761 214.615V213.405C133.761 212.667 133.163 212.068 132.425 212.068Z" fill="#407BFF"/>
<path opacity="0.6" d="M132.425 212.068H73.0222C72.284 212.068 71.6855 212.667 71.6855 213.405V214.615C71.6855 215.353 72.284 215.952 73.0222 215.952H132.425C133.163 215.952 133.761 215.353 133.761 214.615V213.405C133.761 212.667 133.163 212.068 132.425 212.068Z" fill="white"/>
<path d="M99.3901 174.711H65.5894L60.5488 147.447H94.3429L99.3436 174.458L99.3901 174.711Z" fill="#407BFF"/>
<path d="M132.64 116.612C132.64 116.612 128.39 106.743 128.025 105.686C127.659 104.629 128.091 99.2889 127.765 98.3712C127.439 97.4536 122.505 96.7952 121.461 96.9149C120.417 97.0346 121.335 105.294 121.767 105.945C122.331 106.616 122.966 107.222 123.662 107.754L127.419 119.059L132.64 116.612Z" fill="#B97964"/>
<path d="M111.142 135.24C114.041 135.699 125.911 137.414 128.564 135.646C130.705 134.216 124.674 111.042 124.674 111.042L130.041 108.854C130.041 108.854 142.788 136.929 135.979 143.339C132.521 146.598 122.799 147.422 108.814 147.422L111.142 135.24Z" fill="#407BFF"/>
<path opacity="0.8" d="M111.142 135.24C114.041 135.699 125.911 137.414 128.564 135.646C130.705 134.216 124.674 111.042 124.674 111.042L130.041 108.854C130.041 108.854 142.788 136.929 135.979 143.339C132.521 146.598 122.799 147.422 108.814 147.422L111.142 135.24Z" fill="#263238"/>
<path opacity="0.1" d="M116.057 147.353C113.996 147.413 111.795 147.439 109.48 147.439L111.475 139.799C113.637 141.873 115.217 144.477 116.057 147.353Z" fill="black"/>
<path d="M127.881 151.428L141.952 166.31" stroke="#2E353A" stroke-width="1.32995" stroke-miterlimit="10"/>
<path d="M117.791 160.197C117.791 160.197 128.53 159.864 129.648 159.751C130.765 159.638 135.413 156.978 136.41 156.872C137.408 156.765 140.068 160.968 140.4 161.966C140.733 162.963 132.866 165.623 132.088 165.517C131.243 165.286 130.424 164.965 129.648 164.559L117.791 165.955V160.197Z" fill="#B97964"/>
<path d="M111.475 267.694L116.774 266.969L117.506 254.374L112.219 255.106L111.475 267.694Z" fill="#B97964"/>
<path d="M117.175 266.33L111.19 265.951C111.09 265.944 110.991 265.975 110.913 266.038C110.835 266.101 110.784 266.191 110.771 266.29L110.186 271.012C110.169 271.26 110.252 271.504 110.415 271.691C110.578 271.878 110.809 271.992 111.057 272.009C113.145 272.109 114.149 272.049 116.782 272.195C118.405 272.289 121.59 272.634 123.818 272.415C126.045 272.195 125.773 270.001 124.815 269.895C122.528 269.635 119.495 267.96 118.072 266.683C117.82 266.469 117.505 266.345 117.175 266.33Z" fill="#2E353A"/>
<path d="M119.009 267.357C118.53 267.314 118.058 267.22 117.599 267.077C117.576 267.071 117.555 267.059 117.538 267.041C117.522 267.023 117.51 267.001 117.506 266.978C117.505 266.953 117.509 266.929 117.52 266.907C117.53 266.885 117.546 266.866 117.566 266.851C117.745 266.745 119.321 265.807 119.96 266.1C120.031 266.135 120.093 266.187 120.138 266.252C120.183 266.317 120.211 266.393 120.219 266.472C120.251 266.59 120.25 266.714 120.216 266.832C120.182 266.949 120.116 267.055 120.026 267.137C119.727 267.335 119.364 267.413 119.009 267.357ZM119.853 266.352C119.514 266.193 118.597 266.585 117.952 266.938C118.896 267.184 119.594 267.197 119.867 266.971C119.921 266.913 119.961 266.843 119.98 266.766C120 266.689 120 266.609 119.98 266.532C119.977 266.493 119.964 266.456 119.942 266.425C119.919 266.393 119.889 266.368 119.853 266.352Z" fill="#407BFF"/>
<path d="M117.626 267.076C117.608 267.082 117.59 267.082 117.572 267.076C117.539 267.052 117.515 267.017 117.506 266.977C117.506 266.93 117.506 265.367 118.051 264.882C118.126 264.82 118.214 264.776 118.308 264.751C118.402 264.727 118.501 264.724 118.596 264.742C118.702 264.751 118.801 264.796 118.878 264.868C118.955 264.94 119.006 265.037 119.022 265.141C119.108 265.733 118.244 266.797 117.692 267.076C117.682 267.081 117.67 267.084 117.659 267.084C117.647 267.084 117.636 267.081 117.626 267.076ZM118.49 265.002C118.44 264.998 118.39 265.005 118.343 265.022C118.296 265.039 118.253 265.066 118.217 265.101C117.872 265.387 117.785 266.265 117.765 266.764C118.281 266.386 118.641 265.833 118.776 265.208C118.776 265.135 118.729 265.041 118.55 265.008L118.49 265.002Z" fill="#407BFF"/>
<path opacity="0.2" d="M112.219 255.103L117.505 254.379L117.087 261.574L111.807 262.039L112.219 255.103Z" fill="black"/>
<path d="M111.689 193.671L110.399 185.572L80.7013 183.796C80.7013 183.796 77.5426 200.647 79.9698 205.135C84.2988 213.148 107.646 209.125 114.475 209.89C110.392 226.587 110.791 259.218 110.791 259.218L120.547 259.963C120.547 259.963 128.054 224.805 129.57 208.094C130.594 196.823 121.252 197.102 111.689 193.671Z" fill="#2E353A"/>
<path d="M109.647 259.674L121.371 260.446L122.375 255.425L109.494 254.827L109.647 259.674Z" fill="#407BFF"/>
<path d="M123.697 262.995L129.03 263.387L132.369 251.225L127.042 250.839L123.697 262.995Z" fill="#B97964"/>
<path d="M129.557 262.842L123.778 261.233C123.683 261.201 123.579 261.209 123.489 261.253C123.399 261.298 123.331 261.377 123.299 261.472L121.743 265.967C121.71 266.087 121.701 266.213 121.716 266.336C121.732 266.46 121.772 266.579 121.833 266.688C121.895 266.796 121.978 266.891 122.076 266.967C122.175 267.043 122.288 267.099 122.408 267.131C124.403 267.656 125.421 267.796 127.967 268.501C129.53 268.933 132.576 269.931 134.803 270.183C137.031 270.436 137.217 268.228 136.3 267.929C134.118 267.198 131.512 264.923 130.375 263.381C130.171 263.114 129.882 262.924 129.557 262.842Z" fill="#2E353A"/>
<path d="M131.138 264.231C130.674 264.092 130.228 263.901 129.808 263.66C129.786 263.651 129.767 263.635 129.755 263.615C129.743 263.594 129.738 263.57 129.741 263.547C129.743 263.522 129.751 263.499 129.765 263.479C129.779 263.459 129.799 263.443 129.821 263.433C130.014 263.367 131.756 262.769 132.315 263.201C132.379 263.249 132.43 263.312 132.463 263.386C132.496 263.459 132.509 263.54 132.501 263.62C132.509 263.745 132.482 263.871 132.422 263.981C132.362 264.092 132.272 264.183 132.162 264.245C131.831 264.368 131.465 264.363 131.138 264.231ZM132.168 263.42C131.869 263.194 130.892 263.42 130.173 263.6C131.045 264.039 131.729 264.198 132.035 264.032C132.102 263.988 132.156 263.928 132.192 263.856C132.228 263.785 132.245 263.706 132.241 263.626C132.248 263.587 132.244 263.547 132.229 263.511C132.213 263.474 132.188 263.443 132.155 263.42H132.168Z" fill="#407BFF"/>
<path d="M129.842 263.669H129.762C129.747 263.655 129.735 263.637 129.728 263.617C129.721 263.598 129.719 263.577 129.722 263.556C129.722 263.509 130.035 261.98 130.686 261.621C130.774 261.58 130.869 261.559 130.966 261.559C131.062 261.559 131.157 261.58 131.245 261.621C131.347 261.653 131.436 261.718 131.497 261.806C131.559 261.894 131.589 261.999 131.584 262.106C131.538 262.698 130.474 263.563 129.875 263.722C129.858 263.709 129.847 263.69 129.842 263.669ZM131.092 261.82C131.044 261.807 130.994 261.803 130.945 261.81C130.896 261.817 130.848 261.834 130.806 261.86C130.407 262.073 130.141 262.911 130.015 263.396C130.56 263.144 131.278 262.472 131.345 262.066C131.345 261.993 131.345 261.9 131.165 261.834L131.092 261.82Z" fill="#407BFF"/>
<path opacity="0.2" d="M127.044 250.839L132.37 251.232L130.462 258.181L125.195 257.536L127.044 250.839Z" fill="black"/>
<path d="M134.176 257.32L124.786 254.56C124.786 254.56 130.425 222.921 136.078 211.949C135.652 211.809 135.087 211.629 134.388 211.423C133.132 211.044 131.463 210.572 129.501 210.027C115.856 206.243 88.1992 199.148 88.1992 199.148L100.834 187.358C100.834 187.358 151.159 195.032 152.203 208.291C152.702 214.668 134.176 257.32 134.176 257.32Z" fill="#2E353A"/>
<path d="M123.578 254.767L134.883 257.965L136.911 253.264L124.436 249.992L123.578 254.767Z" fill="#407BFF"/>
<path opacity="0.2" d="M134.417 211.423C133.16 211.044 131.491 210.572 129.529 210.027C129.922 206.808 129.928 203.118 128.379 201.236C125.3 197.485 117.38 195.284 112.872 194.486C109.101 193.821 96.4336 192.491 96.4336 192.491C96.4336 192.491 112.872 190.915 129.682 195.816C137.955 198.25 136.339 206.369 134.417 211.423Z" fill="black"/>
<path d="M111.142 135.236C111.142 135.236 115.451 151.196 110.418 185.568C101.035 185.369 85.2682 185.003 80.6998 184.904C80.5868 180.116 84.1178 156.655 79.9883 134.026C82.962 133.513 85.9688 133.215 88.9854 133.135C93.4005 132.978 97.8209 133.073 102.225 133.421C105.24 133.796 108.221 134.403 111.142 135.236Z" fill="#407BFF"/>
<path opacity="0.7" d="M111.142 135.236C111.142 135.236 115.451 151.196 110.418 185.568C101.035 185.369 85.2682 185.003 80.6998 184.904C80.5868 180.116 84.1178 156.655 79.9883 134.026C82.962 133.513 85.9688 133.215 88.9854 133.135C93.4005 132.978 97.8209 133.073 102.225 133.421C105.24 133.796 108.221 134.403 111.142 135.236Z" fill="#263238"/>
<path opacity="0.1" d="M90.4157 163.187C87.7558 162.602 84.5839 160.042 81.9705 157.515C81.9705 153.02 81.7511 148.239 81.2656 143.365C84.9629 148.837 94.9774 164.192 90.4157 163.187Z" fill="black"/>
<path d="M79.9683 134.028C69.8008 137.692 87.6488 165.222 93.188 168.062C98.7273 170.901 126.882 164.956 126.882 164.956L125.772 159.264C125.772 159.264 100.862 159.896 98.5677 159.317C96.2735 158.739 90.8207 147.002 87.682 141.463C85.9372 138.25 83.2434 135.653 79.9683 134.028Z" fill="#407BFF"/>
<path opacity="0.8" d="M79.9683 134.028C69.8008 137.692 87.6488 165.222 93.188 168.062C98.7273 170.901 126.882 164.956 126.882 164.956L125.772 159.264C125.772 159.264 100.862 159.896 98.5677 159.317C96.2735 158.739 90.8207 147.002 87.682 141.463C85.9372 138.25 83.2434 135.653 79.9683 134.028Z" fill="#263238"/>
<path d="M123.777 158.75L125.22 166.311L127.88 165.4L126.883 158.75H123.777Z" fill="#407BFF"/>
<path opacity="0.7" d="M123.777 158.75L125.22 166.311L127.88 165.4L126.883 158.75H123.777Z" fill="#263238"/>
<path d="M124.495 112.721L131.65 109.888L130.261 107.448L123.91 109.669L124.495 112.721Z" fill="#407BFF"/>
<path opacity="0.7" d="M124.495 112.721L131.65 109.888L130.261 107.448L123.91 109.669L124.495 112.721Z" fill="#263238"/>
<path opacity="0.1" d="M87.3613 133.203C87.3613 133.203 87.5542 136.308 93.652 139.3L97.868 136.248C97.868 136.248 99.0716 144.042 99.8629 149.86C99.8629 149.86 99.8097 140.551 99.0117 136.973L102.237 138.117C102.237 138.117 99.4905 133.402 94.8157 132.318C90.1409 131.234 87.3613 133.203 87.3613 133.203Z" fill="black"/>
<path d="M90.594 118.297C91.3388 122.572 92.0038 130.393 88.9648 133.172L97.8423 135.646L102.178 133.458C97.45 132.221 97.6494 128.697 98.5472 125.405L90.594 118.297Z" fill="#B97964"/>
<path opacity="0.2" d="M93.853 121.193L98.5743 125.402C98.3558 126.168 98.2023 126.951 98.1155 127.743C96.3068 127.443 93.8596 125.395 93.7067 123.493C93.6122 122.724 93.6618 121.944 93.853 121.193Z" fill="black"/>
<path d="M96.8934 106.412C94.9583 108.513 96.6274 110.914 102.805 113.833C104.275 110.594 103.377 105.188 101.382 104.244C99.3871 103.3 98.5824 104.59 96.8934 106.412Z" fill="#2E353A"/>
<path d="M88.0018 113.021C89.5711 118.587 90.2095 121.919 93.6807 124.2C98.9074 127.624 105.311 123.535 105.437 117.61C105.544 112.29 102.964 104.078 96.959 103.034C95.6374 102.797 94.2775 102.903 93.0079 103.339C91.7384 103.776 90.6012 104.529 89.7043 105.528C88.8073 106.527 88.1801 107.738 87.8822 109.047C87.5843 110.356 87.6254 111.72 88.0018 113.008V113.021Z" fill="#B97964"/>
<path d="M96.759 112.739C96.8587 113.198 97.1846 113.517 97.4838 113.451C97.783 113.384 97.9426 112.965 97.8429 112.507C97.7431 112.048 97.4239 111.729 97.1247 111.788C96.8255 111.848 96.6925 112.281 96.759 112.739Z" fill="#2E353A"/>
<path d="M101.98 111.619C102.08 112.078 102.406 112.397 102.705 112.33C103.004 112.264 103.17 111.845 103.071 111.379C102.971 110.914 102.645 110.601 102.346 110.668C102.047 110.734 101.88 111.16 101.98 111.619Z" fill="#2E353A"/>
<path d="M100.324 112.202C101.174 113.489 102.199 114.651 103.37 115.654C103.104 115.946 102.778 116.176 102.414 116.329C102.049 116.481 101.656 116.553 101.262 116.538L100.324 112.202Z" fill="#A24E3F"/>
<path d="M94.9771 111.407C94.9277 111.426 94.8738 111.429 94.8227 111.416C94.7716 111.403 94.7256 111.374 94.6909 111.335C94.6562 111.295 94.6345 111.246 94.6286 111.193C94.6227 111.141 94.6329 111.088 94.6579 111.041C94.8319 110.639 95.1004 110.284 95.4408 110.007C95.7811 109.731 96.1832 109.54 96.6129 109.452C96.6824 109.44 96.7538 109.456 96.812 109.496C96.8703 109.535 96.911 109.596 96.9254 109.665C96.9333 109.737 96.9137 109.809 96.8706 109.867C96.8274 109.925 96.7638 109.964 96.6927 109.977C96.3552 110.052 96.0403 110.207 95.7743 110.427C95.5083 110.648 95.2989 110.929 95.1633 111.248C95.1473 111.287 95.1221 111.322 95.0896 111.35C95.0572 111.378 95.0186 111.397 94.9771 111.407Z" fill="#2E353A"/>
<path d="M103.972 109.342C103.921 109.355 103.867 109.352 103.818 109.334C103.768 109.317 103.725 109.285 103.693 109.242C103.487 108.964 103.218 108.739 102.908 108.584C102.599 108.429 102.257 108.349 101.911 108.351C101.838 108.357 101.766 108.333 101.71 108.286C101.654 108.239 101.619 108.171 101.612 108.098C101.608 108.027 101.631 107.956 101.676 107.901C101.722 107.845 101.787 107.809 101.858 107.799C102.296 107.789 102.731 107.884 103.125 108.076C103.52 108.268 103.863 108.552 104.125 108.903C104.148 108.931 104.165 108.964 104.174 108.998C104.184 109.033 104.187 109.07 104.183 109.105C104.179 109.141 104.167 109.176 104.149 109.207C104.131 109.239 104.107 109.266 104.079 109.289C104.049 109.315 104.012 109.334 103.972 109.342Z" fill="#2E353A"/>
<path d="M89.1968 107.549C92.0296 107.881 92.3221 110.794 89.5292 117.025C86.3041 115.522 83.4647 110.827 84.3757 108.819C85.2867 106.811 86.6898 107.25 89.1968 107.549Z" fill="#2E353A"/>
<path d="M86.2922 118.114C86.6329 118.75 87.0954 119.312 87.6534 119.768C88.2113 120.224 88.8537 120.566 89.5439 120.774C91.3926 121.313 92.3368 119.664 91.8447 117.908C91.3992 116.326 89.8964 114.138 88.0344 114.371C86.1725 114.603 85.4543 116.538 86.2922 118.114Z" fill="#B97964"/>
<path d="M84.5964 108.34C84.5964 108.34 83.1933 106.532 85.9264 102.914C88.6594 99.2966 95.3358 98.1861 100.456 99.1836C105.576 100.181 102.531 105.833 100.702 106.771L100.928 105.887C98.971 106.908 96.8159 107.493 94.611 107.602L95.6217 106.665C95.6217 106.665 87.5888 108.746 84.5964 108.34Z" fill="#2E353A"/>
<path d="M100.922 118.066C100.805 118.749 100.741 119.441 100.729 120.134L100.37 120.187C98.7205 120.406 97.8892 119.961 97.4636 119.409C97.2615 119.131 97.1271 118.81 97.0713 118.471C97.0439 118.279 97.0439 118.085 97.0713 117.893C98.1494 118.211 99.2836 118.293 100.396 118.132C100.702 118.106 100.922 118.066 100.922 118.066Z" fill="#2E353A"/>
<path d="M100.356 118.132L100.283 118.744C98.7404 118.943 97.6232 118.877 97.0713 118.471C97.0439 118.279 97.0439 118.085 97.0713 117.893C98.1368 118.206 99.2567 118.287 100.356 118.132Z" fill="white"/>
<path d="M100.369 120.182C98.7197 120.401 97.8885 119.956 97.4629 119.404C98.0879 119.333 98.7206 119.373 99.3315 119.523C99.7379 119.628 100.101 119.859 100.369 120.182Z" fill="#A24E3F"/>
<path d="M90.5298 130.542C90.5298 130.542 95.3309 134.146 97.8445 134.978C97.8445 134.978 99.0282 132.757 98.5428 130.921L102.18 133.455C102.589 134.98 102.589 136.585 102.18 138.11L97.8445 135.643L93.7483 138.635C93.7483 138.635 87.6903 136.879 87.3379 133.202L90.5298 130.542Z" fill="#407BFF"/>
<path opacity="0.8" d="M90.5298 130.542C90.5298 130.542 95.3309 134.146 97.8445 134.978C97.8445 134.978 99.0282 132.757 98.5428 130.921L102.18 133.455C102.589 134.98 102.589 136.585 102.18 138.11L97.8445 135.643L93.7483 138.635C93.7483 138.635 87.6903 136.879 87.3379 133.202L90.5298 130.542Z" fill="#263238"/>
<path d="M169.773 164.653H103.495C103.065 164.653 102.717 165.001 102.717 165.431V167.379C102.717 167.809 103.065 168.157 103.495 168.157H169.773C170.203 168.157 170.551 167.809 170.551 167.379V165.431C170.551 165.001 170.203 164.653 169.773 164.653Z" fill="#407BFF"/>
<path opacity="0.5" d="M170.326 165.336V167.284C170.326 167.716 170.206 168.062 169.78 168.062H103.496C103.063 168.062 102.498 167.716 102.498 167.284V165.336C102.498 164.91 103.063 164.737 103.496 164.737H169.78C170.206 164.737 170.326 164.91 170.326 165.336Z" fill="white"/>
<path opacity="0.2" d="M130.427 165.336V167.284C130.427 167.716 130.281 168.062 129.855 168.062H103.496C103.063 168.062 102.498 167.716 102.498 167.284V165.336C102.498 164.91 103.063 164.737 103.496 164.737H129.855C130.281 164.737 130.427 164.91 130.427 165.336Z" fill="black"/>
<path d="M115.372 67.7399C114.799 65.6636 113.709 63.7667 112.202 62.2272C110.696 60.6876 108.823 59.5557 106.76 58.9376C104.697 58.3195 102.51 58.2355 100.406 58.6933C98.3009 59.1512 96.3469 60.1359 94.7268 61.5553C93.1067 62.9747 91.8736 64.7822 91.1429 66.8084C90.4123 68.8347 90.2081 71.0132 90.5495 73.1399C90.8909 75.2666 91.7667 77.2718 93.0948 78.9675C94.423 80.6632 96.1599 81.9939 98.1429 82.8349C98.9951 83.1845 99.6823 83.8455 100.065 84.6835L100.497 85.661L112.739 82.3362L112.613 81.2722C112.525 80.3499 112.783 79.4278 113.338 78.6854C114.479 77.1318 115.254 75.3405 115.607 73.4454C115.959 71.5502 115.879 69.5999 115.372 67.7399Z" fill="#FFA740"/>
<path d="M104.492 85.6868C104.492 85.6868 102.65 79.9082 99.3984 77.348L101.201 76.856L101.34 74.083L104.286 78.3455L104.047 73.1587L106.953 77.8867L107.245 75.2268L109.819 74.5618C108.411 77.7241 108.159 81.2805 109.107 84.6096" stroke="white" stroke-width="0.664977" stroke-linecap="round" stroke-linejoin="round"/>
<path d="M106.806 84.7131C104.638 85.3049 103.428 87.7986 104.106 90.279C104.785 92.7593 107.086 94.2688 109.253 93.6969C111.421 93.1251 112.625 90.6181 111.953 88.1377C111.282 85.6574 108.974 84.1279 106.806 84.7131Z" fill="#2E353A"/>
<path d="M110.98 91.4207L106.618 92.611C105.576 92.8946 104.465 92.774 103.508 92.2733C102.551 91.7727 101.819 90.929 101.458 89.9112L100.028 85.8748C99.9995 85.7951 99.9878 85.7102 99.9937 85.6257C99.9995 85.5412 100.023 85.4588 100.062 85.3838C100.102 85.3088 100.156 85.2427 100.222 85.1899C100.289 85.1371 100.365 85.0986 100.447 85.0768L112.47 81.7985C112.552 81.7759 112.637 81.7705 112.721 81.7828C112.805 81.795 112.886 81.8246 112.958 81.8696C113.029 81.9146 113.091 81.9741 113.139 82.0443C113.187 82.1145 113.219 82.1938 113.235 82.2773L114.053 86.4733C114.259 87.5334 114.057 88.6322 113.487 89.5496C112.917 90.467 112.022 91.1354 110.98 91.4207Z" fill="#FFA740"/>
<path opacity="0.4" d="M110.98 91.4207L106.618 92.611C105.576 92.8946 104.465 92.774 103.508 92.2733C102.551 91.7727 101.819 90.929 101.458 89.9112L100.028 85.8748C99.9995 85.7951 99.9878 85.7102 99.9937 85.6257C99.9995 85.5412 100.023 85.4588 100.062 85.3838C100.102 85.3088 100.156 85.2427 100.222 85.1899C100.289 85.1371 100.365 85.0986 100.447 85.0768L112.47 81.7985C112.552 81.7759 112.637 81.7705 112.721 81.7828C112.805 81.795 112.886 81.8246 112.958 81.8696C113.029 81.9146 113.091 81.9741 113.139 82.0443C113.187 82.1145 113.219 82.1938 113.235 82.2773L114.053 86.4733C114.259 87.5334 114.057 88.6322 113.487 89.5496C112.917 90.467 112.022 91.1354 110.98 91.4207Z" fill="white"/>
<path d="M86.1256 80.4524C84.9343 80.2335 83.726 80.12 82.5148 80.1133C81.9126 80.1097 81.3108 80.143 80.7127 80.213C80.4134 80.2596 80.1142 80.2928 79.8283 80.366C79.682 80.4059 79.5357 80.4258 79.396 80.479L78.9771 80.612L78.4983 80.765L78.7843 80.346C79.5908 79.152 80.2327 77.8547 80.6927 76.4892C80.9214 75.8118 81.0883 75.1152 81.1915 74.4078C81.2423 74.0574 81.2734 73.7044 81.2846 73.3505C81.3045 72.9983 81.3045 72.6453 81.2846 72.2932C81.2591 71.9445 81.2103 71.5979 81.1383 71.2558L81.0119 70.7504L80.8457 70.2517C80.7276 69.9257 80.5831 69.6098 80.4134 69.3074C80.25 69.0024 80.0656 68.7091 79.8615 68.4297C79.6559 68.1507 79.4338 67.8843 79.1965 67.6317L78.8308 67.2593L78.4318 66.9135C78.1725 66.6741 77.8666 66.4879 77.5939 66.2485C77.3213 66.0091 76.9955 65.8761 76.6962 65.6833L76.0312 65.2444L76.7694 64.892C77.1218 64.7191 77.4942 64.5129 77.8466 64.3001C78.1991 64.0874 78.5515 63.8679 78.8973 63.6352C79.5827 63.168 80.2338 62.6524 80.8457 62.0924C81.1449 61.8131 81.4375 61.5272 81.7235 61.228C82.0094 60.9287 82.2687 60.6095 82.5148 60.2903C82.7608 59.9712 83.0002 59.6254 83.1797 59.2862C83.3945 58.9462 83.5877 58.5931 83.7583 58.2289C83.934 57.8671 84.0851 57.4939 84.2105 57.1118L84.3834 56.5399L84.5097 55.948C84.5839 55.5574 84.6283 55.1617 84.6427 54.7644C84.678 53.9627 84.6064 53.1599 84.4299 52.3771L84.2969 51.7853L84.1107 51.2068C83.9977 50.8144 83.8181 50.4487 83.6718 50.0696C83.5255 49.6906 83.3127 49.3382 83.1332 48.9658L82.1823 46.9709L84.0043 48.1412C84.3235 48.354 84.6693 48.5602 85.0483 48.753C85.4274 48.9458 85.7798 49.132 86.1522 49.2983C86.8938 49.6446 87.658 49.9401 88.4397 50.1827C88.8321 50.2957 89.2244 50.4021 89.6167 50.4886C90.0093 50.5782 90.4067 50.6448 90.807 50.6881C91.2017 50.7387 91.5994 50.7632 91.9973 50.7612C92.3909 50.7583 92.784 50.7316 93.1743 50.6814L93.7462 50.5817L94.3115 50.4287C94.6765 50.3089 95.0321 50.1622 95.3754 49.9899C95.5466 49.9075 95.7112 49.8119 95.8675 49.7039C96.0342 49.607 96.1922 49.4957 96.3396 49.3714C96.6447 49.1339 96.9335 48.8762 97.2041 48.6001C97.4701 48.3131 97.7166 48.0087 97.9422 47.689C98.1767 47.3677 98.3879 47.0299 98.574 46.6783C98.7801 46.3391 98.9197 45.9534 99.0993 45.5944C99.2788 45.2353 99.3852 44.8363 99.5315 44.4573L100.363 42.2761L100.775 44.5503C100.845 44.9223 100.94 45.2889 101.061 45.6476C101.412 46.7597 101.947 47.8049 102.644 48.7397C103.103 49.35 103.647 49.8919 104.26 50.3489C104.561 50.5789 104.882 50.7836 105.217 50.9607C105.552 51.1429 105.901 51.2985 106.261 51.4262C106.622 51.5522 106.991 51.6544 107.365 51.7321C107.745 51.8085 108.129 51.8618 108.515 51.8917C108.903 51.9117 109.291 51.9117 109.679 51.8917C110.071 51.8917 110.464 51.8385 110.856 51.8052C111.248 51.772 111.641 51.6789 112.026 51.619L113.19 51.3398L114.341 50.994L115.478 50.5883L117.054 50.0231L116.149 51.4262C115.983 51.6722 115.817 51.9715 115.664 52.2574C115.511 52.5434 115.371 52.836 115.238 53.1418C114.977 53.7381 114.77 54.3569 114.62 54.9905C114.471 55.6157 114.397 56.2563 114.4 56.899C114.408 57.5288 114.518 58.1533 114.726 58.7476L114.906 59.1865L115.132 59.6719C115.295 59.9415 115.479 60.1973 115.684 60.4366C115.889 60.6741 116.111 60.8964 116.349 61.1016C116.595 61.3156 116.855 61.5133 117.127 61.6934C117.396 61.8774 117.676 62.0461 117.965 62.1988C118.251 62.3584 118.557 62.4781 118.856 62.6244L119.787 62.9768L120.744 63.2761L121.409 63.4889L120.851 63.9211C120.475 64.2131 120.121 64.5332 119.793 64.8787C119.462 65.225 119.156 65.5938 118.876 65.9825C118.723 66.1754 118.603 66.3815 118.47 66.581C118.342 66.782 118.226 66.9908 118.124 67.2061C118.007 67.4188 117.91 67.6413 117.832 67.8711C117.739 68.086 117.666 68.3085 117.612 68.5361C117.566 68.7688 117.486 68.9949 117.459 69.201L117.393 69.9126C117.393 70.1519 117.393 70.3913 117.433 70.6307C117.446 70.8694 117.486 71.1059 117.552 71.3356C117.596 71.562 117.658 71.7845 117.739 72.0006L118.011 72.6656C118.103 72.8975 118.216 73.1202 118.35 73.3305L118.723 73.9955L118.862 74.2282H118.603C117.62 74.2308 116.641 74.3605 115.69 74.6139C115.215 74.74 114.755 74.9207 114.321 75.1526C114.213 75.2105 114.108 75.2749 114.008 75.3454C113.9 75.4065 113.8 75.4801 113.709 75.5649C113.61 75.6374 113.516 75.7174 113.43 75.8042L113.17 76.0769L113.416 75.7909C113.497 75.6964 113.586 75.6096 113.682 75.5316C113.772 75.4431 113.87 75.363 113.975 75.2922C114.075 75.2257 114.174 75.1459 114.281 75.0861C114.711 74.8283 115.168 74.6187 115.644 74.461C116.601 74.15 117.597 73.9732 118.603 73.9357L118.49 74.1684L118.078 73.5034C117.928 73.2947 117.799 73.072 117.692 72.8384L117.379 72.1735C117.28 71.9377 117.205 71.6927 117.153 71.442C117.07 71.1988 117.017 70.9465 116.994 70.6906C116.994 70.4379 116.934 70.1785 116.927 69.9258V69.1478C116.927 68.8951 117.02 68.6424 117.06 68.3898C117.111 68.1361 117.182 67.8871 117.273 67.645C117.346 67.3972 117.442 67.1568 117.559 66.9268C117.659 66.6976 117.775 66.4754 117.905 66.2618C118.026 66.0332 118.159 65.8112 118.304 65.5969C118.591 65.1727 118.908 64.7704 119.255 64.3932C119.601 64.0082 119.977 63.6502 120.379 63.3226L120.505 63.9876L119.501 63.7017L118.51 63.3492C118.184 63.2096 117.845 63.0832 117.539 62.917C117.22 62.7614 116.912 62.586 116.615 62.3917C116.311 62.2007 116.02 61.9897 115.744 61.7599C115.47 61.5288 115.217 61.2752 114.986 61.0019C114.738 60.7278 114.515 60.4318 114.321 60.1174L114.048 59.6387L113.829 59.1266C113.573 58.4496 113.429 57.7353 113.403 57.012C113.377 56.2864 113.441 55.5603 113.596 54.8508C113.743 54.1532 113.953 53.47 114.221 52.8094C114.354 52.4769 114.5 52.1444 114.66 51.8385C114.819 51.5326 114.986 51.2134 115.192 50.8876L115.857 51.7254L114.673 52.1577L113.469 52.5301C113.057 52.6431 112.645 52.7362 112.233 52.836C111.82 52.9357 111.401 52.9955 110.976 53.0421C110.55 53.1009 110.122 53.1364 109.692 53.1485C109.249 53.1729 108.805 53.1729 108.362 53.1485C107.929 53.117 107.498 53.0593 107.072 52.9756C106.642 52.8891 106.218 52.7759 105.802 52.6365C105.387 52.4888 104.983 52.3133 104.592 52.1111C104.199 51.907 103.823 51.6713 103.468 51.4063C102.759 50.884 102.128 50.2639 101.593 49.5643C101.062 48.8753 100.616 48.1252 100.263 47.3299C100.083 46.9356 99.9257 46.5316 99.7909 46.1197C99.6473 45.7 99.5318 45.2713 99.4451 44.8363L100.689 44.9294C100.536 45.3417 100.396 45.7606 100.23 46.1662C100.059 46.5767 99.8685 46.9785 99.6579 47.3698C99.4639 47.7687 99.2417 48.1531 98.9929 48.5203C98.7322 48.8927 98.4479 49.2481 98.1417 49.5842C97.8243 49.9158 97.4819 50.2226 97.1177 50.5019C96.9382 50.6463 96.7469 50.7753 96.5458 50.8876C96.3539 51.0156 96.154 51.1311 95.9473 51.2334C95.5336 51.4392 95.1045 51.6126 94.6639 51.752L93.9989 51.9183L93.3339 52.038C92.8929 52.0941 92.4485 52.1185 92.004 52.1111C91.5592 52.112 91.1149 52.0831 90.674 52.0247C90.2268 51.9716 89.7828 51.8939 89.3441 51.7919C88.9118 51.6988 88.4863 51.5791 88.0673 51.4461C87.2343 51.1854 86.4209 50.8654 85.6335 50.4886C85.2345 50.309 84.8488 50.1095 84.4698 49.9034C84.0908 49.6973 83.7184 49.4778 83.326 49.2384L84.1972 48.4471C84.39 48.8461 84.5961 49.2318 84.769 49.6441C84.9471 50.0504 85.1046 50.4655 85.2412 50.8876L85.4407 51.5525L85.587 52.2175C85.6764 52.6571 85.743 53.101 85.7865 53.5475C85.8123 53.9904 85.8123 54.4345 85.7865 54.8774C85.7662 55.3241 85.7129 55.7686 85.6269 56.2074L85.4806 56.8724L85.2811 57.5373C85.1358 57.965 84.9625 58.3826 84.7624 58.7875C84.5683 59.1905 84.3461 59.5794 84.0974 59.9512C83.8541 60.3146 83.5921 60.6653 83.3127 61.0019C83.0268 61.3477 82.7342 61.6668 82.4283 61.9927C82.1224 62.3185 81.7966 62.6045 81.4708 62.897C80.8077 63.4675 80.1079 63.994 79.3761 64.473C79.0081 64.7124 78.6357 64.9341 78.2589 65.138C77.8732 65.3508 77.4942 65.5503 77.0753 65.7365L77.1218 64.9452C77.4344 65.158 77.7868 65.3508 78.0661 65.5703C78.3454 65.7897 78.6779 66.0158 78.9505 66.2818L79.3761 66.6675L79.7684 67.0798C80.0242 67.3632 80.264 67.6607 80.4866 67.9708C80.7066 68.2869 80.9044 68.618 81.0784 68.9616C81.255 69.3001 81.4062 69.6513 81.5306 70.0123L81.6969 70.5642L81.8165 71.1228C81.8871 71.4983 81.9315 71.8783 81.9495 72.2599C81.9967 73.7668 81.7342 75.2674 81.1782 76.6687C80.6484 78.0566 79.9349 79.3672 79.0569 80.5655L78.8641 80.2995L79.3096 80.1731C79.4625 80.1266 79.6155 80.1066 79.7684 80.0734C80.0677 80.0069 80.3736 79.9869 80.6794 79.947C81.2907 79.9105 81.9035 79.9105 82.5148 79.947C83.7307 80.0115 84.9387 80.1806 86.1256 80.4524Z" fill="#FFA740"/>
<path opacity="0.7" d="M86.1256 80.4524C84.9343 80.2335 83.726 80.12 82.5148 80.1133C81.9126 80.1097 81.3108 80.143 80.7127 80.213C80.4134 80.2596 80.1142 80.2928 79.8283 80.366C79.682 80.4059 79.5357 80.4258 79.396 80.479L78.9771 80.612L78.4983 80.765L78.7843 80.346C79.5908 79.152 80.2327 77.8547 80.6927 76.4892C80.9214 75.8118 81.0883 75.1152 81.1915 74.4078C81.2423 74.0574 81.2734 73.7044 81.2846 73.3505C81.3045 72.9983 81.3045 72.6453 81.2846 72.2932C81.2591 71.9445 81.2103 71.5979 81.1383 71.2558L81.0119 70.7504L80.8457 70.2517C80.7276 69.9257 80.5831 69.6098 80.4134 69.3074C80.25 69.0024 80.0656 68.7091 79.8615 68.4297C79.6559 68.1507 79.4338 67.8843 79.1965 67.6317L78.8308 67.2593L78.4318 66.9135C78.1725 66.6741 77.8666 66.4879 77.5939 66.2485C77.3213 66.0091 76.9955 65.8761 76.6962 65.6833L76.0312 65.2444L76.7694 64.892C77.1218 64.7191 77.4942 64.5129 77.8466 64.3001C78.1991 64.0874 78.5515 63.8679 78.8973 63.6352C79.5827 63.168 80.2338 62.6524 80.8457 62.0924C81.1449 61.8131 81.4375 61.5272 81.7235 61.228C82.0094 60.9287 82.2687 60.6095 82.5148 60.2903C82.7608 59.9712 83.0002 59.6254 83.1797 59.2862C83.3945 58.9462 83.5877 58.5931 83.7583 58.2289C83.934 57.8671 84.0851 57.4939 84.2105 57.1118L84.3834 56.5399L84.5097 55.948C84.5839 55.5574 84.6283 55.1617 84.6427 54.7644C84.678 53.9627 84.6064 53.1599 84.4299 52.3771L84.2969 51.7853L84.1107 51.2068C83.9977 50.8144 83.8181 50.4487 83.6718 50.0696C83.5255 49.6906 83.3127 49.3382 83.1332 48.9658L82.1823 46.9709L84.0043 48.1412C84.3235 48.354 84.6693 48.5602 85.0483 48.753C85.4274 48.9458 85.7798 49.132 86.1522 49.2983C86.8938 49.6446 87.658 49.9401 88.4397 50.1827C88.8321 50.2957 89.2244 50.4021 89.6167 50.4886C90.0093 50.5782 90.4067 50.6448 90.807 50.6881C91.2017 50.7387 91.5994 50.7632 91.9973 50.7612C92.3909 50.7583 92.784 50.7316 93.1743 50.6814L93.7462 50.5817L94.3115 50.4287C94.6765 50.3089 95.0321 50.1622 95.3754 49.9899C95.5466 49.9075 95.7112 49.8119 95.8675 49.7039C96.0342 49.607 96.1922 49.4957 96.3396 49.3714C96.6447 49.1339 96.9335 48.8762 97.2041 48.6001C97.4701 48.3131 97.7166 48.0087 97.9422 47.689C98.1767 47.3677 98.3879 47.0299 98.574 46.6783C98.7801 46.3391 98.9197 45.9534 99.0993 45.5944C99.2788 45.2353 99.3852 44.8363 99.5315 44.4573L100.363 42.2761L100.775 44.5503C100.845 44.9223 100.94 45.2889 101.061 45.6476C101.412 46.7597 101.947 47.8049 102.644 48.7397C103.103 49.35 103.647 49.8919 104.26 50.3489C104.561 50.5789 104.882 50.7836 105.217 50.9607C105.552 51.1429 105.901 51.2985 106.261 51.4262C106.622 51.5522 106.991 51.6544 107.365 51.7321C107.745 51.8085 108.129 51.8618 108.515 51.8917C108.903 51.9117 109.291 51.9117 109.679 51.8917C110.071 51.8917 110.464 51.8385 110.856 51.8052C111.248 51.772 111.641 51.6789 112.026 51.619L113.19 51.3398L114.341 50.994L115.478 50.5883L117.054 50.0231L116.149 51.4262C115.983 51.6722 115.817 51.9715 115.664 52.2574C115.511 52.5434 115.371 52.836 115.238 53.1418C114.977 53.7381 114.77 54.3569 114.62 54.9905C114.471 55.6157 114.397 56.2563 114.4 56.899C114.408 57.5288 114.518 58.1533 114.726 58.7476L114.906 59.1865L115.132 59.6719C115.295 59.9415 115.479 60.1973 115.684 60.4366C115.889 60.6741 116.111 60.8964 116.349 61.1016C116.595 61.3156 116.855 61.5133 117.127 61.6934C117.396 61.8774 117.676 62.0461 117.965 62.1988C118.251 62.3584 118.557 62.4781 118.856 62.6244L119.787 62.9768L120.744 63.2761L121.409 63.4889L120.851 63.9211C120.475 64.2131 120.121 64.5332 119.793 64.8787C119.462 65.225 119.156 65.5938 118.876 65.9825C118.723 66.1754 118.603 66.3815 118.47 66.581C118.342 66.782 118.226 66.9908 118.124 67.2061C118.007 67.4188 117.91 67.6413 117.832 67.8711C117.739 68.086 117.666 68.3085 117.612 68.5361C117.566 68.7688 117.486 68.9949 117.459 69.201L117.393 69.9126C117.393 70.1519 117.393 70.3913 117.433 70.6307C117.446 70.8694 117.486 71.1059 117.552 71.3356C117.596 71.562 117.658 71.7845 117.739 72.0006L118.011 72.6656C118.103 72.8975 118.216 73.1202 118.35 73.3305L118.723 73.9955L118.862 74.2282H118.603C117.62 74.2308 116.641 74.3605 115.69 74.6139C115.215 74.74 114.755 74.9207 114.321 75.1526C114.213 75.2105 114.108 75.2749 114.008 75.3454C113.9 75.4065 113.8 75.4801 113.709 75.5649C113.61 75.6374 113.516 75.7174 113.43 75.8042L113.17 76.0769L113.416 75.7909C113.497 75.6964 113.586 75.6096 113.682 75.5316C113.772 75.4431 113.87 75.363 113.975 75.2922C114.075 75.2257 114.174 75.1459 114.281 75.0861C114.711 74.8283 115.168 74.6187 115.644 74.461C116.601 74.15 117.597 73.9732 118.603 73.9357L118.49 74.1684L118.078 73.5034C117.928 73.2947 117.799 73.072 117.692 72.8384L117.379 72.1735C117.28 71.9377 117.205 71.6927 117.153 71.442C117.07 71.1988 117.017 70.9465 116.994 70.6906C116.994 70.4379 116.934 70.1785 116.927 69.9258V69.1478C116.927 68.8951 117.02 68.6424 117.06 68.3898C117.111 68.1361 117.182 67.8871 117.273 67.645C117.346 67.3972 117.442 67.1568 117.559 66.9268C117.659 66.6976 117.775 66.4754 117.905 66.2618C118.026 66.0332 118.159 65.8112 118.304 65.5969C118.591 65.1727 118.908 64.7704 119.255 64.3932C119.601 64.0082 119.977 63.6502 120.379 63.3226L120.505 63.9876L119.501 63.7017L118.51 63.3492C118.184 63.2096 117.845 63.0832 117.539 62.917C117.22 62.7614 116.912 62.586 116.615 62.3917C116.311 62.2007 116.02 61.9897 115.744 61.7599C115.47 61.5288 115.217 61.2752 114.986 61.0019C114.738 60.7278 114.515 60.4318 114.321 60.1174L114.048 59.6387L113.829 59.1266C113.573 58.4496 113.429 57.7353 113.403 57.012C113.377 56.2864 113.441 55.5603 113.596 54.8508C113.743 54.1532 113.953 53.47 114.221 52.8094C114.354 52.4769 114.5 52.1444 114.66 51.8385C114.819 51.5326 114.986 51.2134 115.192 50.8876L115.857 51.7254L114.673 52.1577L113.469 52.5301C113.057 52.6431 112.645 52.7362 112.233 52.836C111.82 52.9357 111.401 52.9955 110.976 53.0421C110.55 53.1009 110.122 53.1364 109.692 53.1485C109.249 53.1729 108.805 53.1729 108.362 53.1485C107.929 53.117 107.498 53.0593 107.072 52.9756C106.642 52.8891 106.218 52.7759 105.802 52.6365C105.387 52.4888 104.983 52.3133 104.592 52.1111C104.199 51.907 103.823 51.6713 103.468 51.4063C102.759 50.884 102.128 50.2639 101.593 49.5643C101.062 48.8753 100.616 48.1252 100.263 47.3299C100.083 46.9356 99.9257 46.5316 99.7909 46.1197C99.6473 45.7 99.5318 45.2713 99.4451 44.8363L100.689 44.9294C100.536 45.3417 100.396 45.7606 100.23 46.1662C100.059 46.5767 99.8685 46.9785 99.6579 47.3698C99.4639 47.7687 99.2417 48.1531 98.9929 48.5203C98.7322 48.8927 98.4479 49.2481 98.1417 49.5842C97.8243 49.9158 97.4819 50.2226 97.1177 50.5019C96.9382 50.6463 96.7469 50.7753 96.5458 50.8876C96.3539 51.0156 96.154 51.1311 95.9473 51.2334C95.5336 51.4392 95.1045 51.6126 94.6639 51.752L93.9989 51.9183L93.3339 52.038C92.8929 52.0941 92.4485 52.1185 92.004 52.1111C91.5592 52.112 91.1149 52.0831 90.674 52.0247C90.2268 51.9716 89.7828 51.8939 89.3441 51.7919C88.9118 51.6988 88.4863 51.5791 88.0673 51.4461C87.2343 51.1854 86.4209 50.8654 85.6335 50.4886C85.2345 50.309 84.8488 50.1095 84.4698 49.9034C84.0908 49.6973 83.7184 49.4778 83.326 49.2384L84.1972 48.4471C84.39 48.8461 84.5961 49.2318 84.769 49.6441C84.9471 50.0504 85.1046 50.4655 85.2412 50.8876L85.4407 51.5525L85.587 52.2175C85.6764 52.6571 85.743 53.101 85.7865 53.5475C85.8123 53.9904 85.8123 54.4345 85.7865 54.8774C85.7662 55.3241 85.7129 55.7686 85.6269 56.2074L85.4806 56.8724L85.2811 57.5373C85.1358 57.965 84.9625 58.3826 84.7624 58.7875C84.5683 59.1905 84.3461 59.5794 84.0974 59.9512C83.8541 60.3146 83.5921 60.6653 83.3127 61.0019C83.0268 61.3477 82.7342 61.6668 82.4283 61.9927C82.1224 62.3185 81.7966 62.6045 81.4708 62.897C80.8077 63.4675 80.1079 63.994 79.3761 64.473C79.0081 64.7124 78.6357 64.9341 78.2589 65.138C77.8732 65.3508 77.4942 65.5503 77.0753 65.7365L77.1218 64.9452C77.4344 65.158 77.7868 65.3508 78.0661 65.5703C78.3454 65.7897 78.6779 66.0158 78.9505 66.2818L79.3761 66.6675L79.7684 67.0798C80.0242 67.3632 80.264 67.6607 80.4866 67.9708C80.7066 68.2869 80.9044 68.618 81.0784 68.9616C81.255 69.3001 81.4062 69.6513 81.5306 70.0123L81.6969 70.5642L81.8165 71.1228C81.8871 71.4983 81.9315 71.8783 81.9495 72.2599C81.9967 73.7668 81.7342 75.2674 81.1782 76.6687C80.6484 78.0566 79.9349 79.3672 79.0569 80.5655L78.8641 80.2995L79.3096 80.1731C79.4625 80.1266 79.6155 80.1066 79.7684 80.0734C80.0677 80.0069 80.3736 79.9869 80.6794 79.947C81.2907 79.9105 81.9035 79.9105 82.5148 79.947C83.7307 80.0115 84.9387 80.1806 86.1256 80.4524Z" fill="white"/>
</g>
<defs>
<clipPath id="clip0_3624_9718">
<rect width="332.488" height="332.488" fill="white" transform="translate(0.755859 -4.83203)"/>
</clipPath>
</defs>
</svg>
