<svg width="322" height="317" viewBox="0 0 322 317" fill="none" xmlns="http://www.w3.org/2000/svg">
<g clip-path="url(#clip0_3624_10106)">
<path d="M0.173828 241H321.824V241.161H0.173828V241Z" fill="#EBEBEB"/>
<path d="M210.393 245.106H225.305V245.267H210.393V245.106Z" fill="#EBEBEB"/>
<path d="M26.6965 248.554H63.1523V248.715H26.6965V248.554Z" fill="#EBEBEB"/>
<path d="M257.886 248.554H294.342V248.715H257.886V248.554Z" fill="#EBEBEB"/>
<path d="M169.36 212.31H293.575C294.548 212.308 295.481 211.92 296.169 211.232C296.856 210.543 297.242 209.61 297.242 208.636V34.0254C297.234 33.0579 296.844 32.1328 296.157 31.451C295.471 30.7693 294.543 30.3859 293.575 30.3843H169.36C168.386 30.3843 167.452 30.7713 166.763 31.4601C166.074 32.149 165.687 33.0833 165.687 34.0575V208.636C165.687 209.611 166.074 210.545 166.763 211.234C167.452 211.923 168.386 212.31 169.36 212.31ZM293.575 30.5129C294.506 30.5146 295.398 30.8855 296.055 31.544C296.712 32.2025 297.081 33.0949 297.081 34.0254V208.636C297.081 209.567 296.712 210.459 296.055 211.118C295.398 211.776 294.506 212.147 293.575 212.149H169.36C168.43 212.146 167.538 211.774 166.881 211.116C166.223 210.458 165.851 209.567 165.848 208.636V34.0254C165.851 33.0949 166.223 32.2034 166.881 31.5454C167.538 30.8875 168.43 30.5163 169.36 30.5129H293.575Z" fill="#EBEBEB"/>
<path d="M30.2089 212.31H154.43C155.403 212.306 156.336 211.918 157.024 211.23C157.712 210.542 158.1 209.61 158.104 208.636V34.0254C158.093 33.0573 157.702 32.1322 157.014 31.4506C156.327 30.769 155.398 30.3859 154.43 30.3843H30.2089C29.2425 30.3876 28.3163 30.7717 27.6311 31.4533C26.9459 32.1348 26.557 33.059 26.5485 34.0254V208.636C26.5477 209.118 26.6417 209.595 26.8252 210.04C27.0087 210.485 27.278 210.89 27.6179 211.231C27.9578 211.572 28.3616 211.843 28.8062 212.028C29.2507 212.213 29.7274 212.309 30.2089 212.31ZM154.43 30.5129C155.361 30.5163 156.252 30.8875 156.91 31.5454C157.568 32.2034 157.939 33.0949 157.943 34.0254V208.636C157.939 209.567 157.568 210.458 156.91 211.116C156.252 211.774 155.361 212.146 154.43 212.149H30.2089C29.2784 212.146 28.3869 211.774 27.729 211.116C27.071 210.458 26.6999 209.567 26.6965 208.636V34.0254C26.6999 33.0949 27.071 32.2034 27.729 31.5454C28.3869 30.8875 29.2784 30.5163 30.2089 30.5129H154.43Z" fill="#EBEBEB"/>
<path d="M119.138 189.943H133.992V241.349H119.138V189.943Z" fill="#E6E6E6"/>
<path d="M129.656 189.943H144.51V241.349H129.656V189.943Z" fill="#E6E6E6"/>
<path d="M132.474 241.349H129.656V233.321H135.439L132.474 241.349Z" fill="#F0F0F0"/>
<path d="M204.326 189.943H219.18V241.349H204.326V189.943Z" fill="#E6E6E6"/>
<path d="M129.651 189.943H206.783V237.399H129.651V189.943Z" fill="#F0F0F0"/>
<path d="M134.456 226.72H164.691C165.47 226.716 166.215 226.406 166.766 225.855C167.317 225.304 167.627 224.559 167.631 223.78V194.889C167.629 194.111 167.319 193.365 166.768 192.815C166.216 192.265 165.47 191.956 164.691 191.956H134.488C133.709 191.956 132.963 192.265 132.411 192.815C131.86 193.365 131.55 194.111 131.548 194.889V223.78C131.551 224.553 131.858 225.294 132.401 225.844C132.945 226.393 133.683 226.708 134.456 226.72ZM164.691 192.625C165.296 192.625 165.877 192.864 166.306 193.291C166.735 193.718 166.978 194.297 166.981 194.902V223.793C166.985 224.094 166.929 224.392 166.817 224.671C166.705 224.95 166.539 225.205 166.329 225.42C166.118 225.635 165.868 225.806 165.591 225.925C165.315 226.043 165.017 226.105 164.717 226.109H134.482C133.875 226.112 133.292 225.875 132.861 225.449C132.429 225.024 132.184 224.444 132.179 223.838V194.889C132.179 194.59 132.238 194.293 132.353 194.016C132.467 193.74 132.636 193.488 132.848 193.277C133.06 193.065 133.312 192.898 133.589 192.783C133.866 192.669 134.163 192.611 134.462 192.612L164.691 192.625Z" fill="#E0E0E0"/>
<path d="M171.78 226.72H202.015C202.794 226.716 203.54 226.406 204.09 225.855C204.641 225.304 204.952 224.559 204.955 223.78V194.889C204.953 194.111 204.643 193.365 204.092 192.815C203.541 192.265 202.794 191.956 202.015 191.956H171.78C171.001 191.956 170.255 192.265 169.704 192.815C169.152 193.365 168.842 194.111 168.84 194.889V223.78C168.842 224.559 169.152 225.306 169.703 225.857C170.254 226.408 171.001 226.718 171.78 226.72ZM202.015 192.625C202.315 192.624 202.612 192.682 202.889 192.796C203.166 192.91 203.417 193.078 203.63 193.29C203.842 193.501 204.01 193.752 204.125 194.029C204.24 194.306 204.299 194.603 204.299 194.902V223.793C204.299 224.093 204.24 224.39 204.125 224.667C204.01 224.944 203.842 225.196 203.63 225.408C203.418 225.62 203.166 225.788 202.889 225.903C202.612 226.017 202.315 226.076 202.015 226.076H171.78C171.174 226.075 170.594 225.834 170.165 225.406C169.736 224.978 169.493 224.399 169.49 223.793V194.889C169.493 194.284 169.736 193.705 170.165 193.278C170.594 192.851 171.175 192.612 171.78 192.612L202.015 192.625Z" fill="#E0E0E0"/>
<path d="M174.585 201.085C175.146 201.085 175.694 200.919 176.16 200.607C176.627 200.296 176.99 199.853 177.205 199.335C177.42 198.817 177.477 198.247 177.368 197.697C177.259 197.147 176.989 196.641 176.593 196.244C176.197 195.847 175.692 195.577 175.142 195.466C174.592 195.356 174.022 195.412 173.504 195.625C172.985 195.839 172.542 196.202 172.229 196.667C171.917 197.133 171.749 197.681 171.748 198.242C171.748 198.995 172.047 199.717 172.579 200.25C173.11 200.783 173.832 201.083 174.585 201.085Z" fill="#FAFAFA"/>
<path d="M161.861 201.085C162.422 201.089 162.971 200.926 163.44 200.618C163.909 200.309 164.275 199.868 164.493 199.352C164.712 198.835 164.772 198.265 164.666 197.714C164.56 197.163 164.294 196.655 163.899 196.256C163.505 195.856 163.002 195.583 162.452 195.469C161.903 195.356 161.332 195.409 160.812 195.62C160.292 195.831 159.847 196.192 159.532 196.656C159.217 197.12 159.047 197.668 159.043 198.229V198.287C159.051 199.03 159.352 199.739 159.879 200.263C160.406 200.786 161.118 201.082 161.861 201.085Z" fill="#FAFAFA"/>
<path d="M203.965 241.349H206.789V233.321H201.006L203.965 241.349Z" fill="#F0F0F0"/>
<path d="M209.052 189.943H223.906V241.349H209.052V189.943Z" fill="#E6E6E6"/>
<path d="M211.877 241.349H209.053V233.321H214.836L211.877 241.349Z" fill="#F0F0F0"/>
<path d="M209.054 189.943H286.186V237.399H209.054V189.943Z" fill="#F0F0F0"/>
<path d="M213.86 226.72H244.095C244.875 226.72 245.623 226.41 246.174 225.859C246.725 225.307 247.035 224.56 247.035 223.78V194.889C247.033 194.111 246.723 193.365 246.172 192.815C245.621 192.265 244.874 191.956 244.095 191.956H213.892C213.114 191.956 212.367 192.265 211.816 192.815C211.265 193.365 210.954 194.111 210.952 194.889V223.78C210.952 224.554 211.258 225.297 211.802 225.847C212.346 226.398 213.086 226.711 213.86 226.72ZM244.095 192.625C244.395 192.624 244.692 192.682 244.969 192.796C245.246 192.91 245.498 193.078 245.71 193.29C245.922 193.501 246.09 193.752 246.205 194.029C246.32 194.306 246.379 194.603 246.379 194.902V223.793C246.382 224.094 246.327 224.392 246.215 224.671C246.103 224.95 245.937 225.205 245.726 225.42C245.516 225.635 245.266 225.806 244.989 225.925C244.712 226.043 244.415 226.105 244.115 226.109H213.879C213.273 226.112 212.689 225.875 212.256 225.45C211.823 225.024 211.577 224.445 211.57 223.838V194.889C211.573 194.285 211.815 193.707 212.243 193.28C212.671 192.854 213.25 192.614 213.854 192.612L244.095 192.625Z" fill="#E0E0E0"/>
<path d="M251.182 226.72H281.378C282.158 226.72 282.906 226.41 283.457 225.859C284.009 225.307 284.318 224.56 284.318 223.78V194.889C284.318 194.503 284.242 194.122 284.094 193.765C283.947 193.409 283.73 193.085 283.457 192.813C283.184 192.54 282.86 192.324 282.503 192.177C282.146 192.03 281.764 191.955 281.378 191.956H251.182C250.796 191.955 250.414 192.03 250.057 192.177C249.701 192.324 249.377 192.54 249.104 192.813C248.83 193.085 248.614 193.409 248.466 193.765C248.318 194.122 248.242 194.503 248.242 194.889V223.78C248.244 224.559 248.554 225.306 249.105 225.857C249.656 226.408 250.403 226.718 251.182 226.72ZM281.378 192.625C281.679 192.623 281.976 192.681 282.254 192.794C282.532 192.908 282.784 193.076 282.997 193.287C283.21 193.499 283.379 193.751 283.494 194.028C283.609 194.305 283.669 194.602 283.669 194.902V223.793C283.672 224.094 283.616 224.392 283.504 224.671C283.392 224.95 283.226 225.205 283.016 225.42C282.806 225.635 282.555 225.806 282.279 225.925C282.002 226.043 281.705 226.105 281.404 226.109H251.169C250.869 226.11 250.571 226.051 250.293 225.937C250.015 225.822 249.763 225.654 249.55 225.442C249.337 225.23 249.169 224.978 249.053 224.7C248.938 224.423 248.879 224.125 248.879 223.825V194.876C248.879 194.576 248.938 194.279 249.053 194.002C249.169 193.725 249.338 193.473 249.55 193.262C249.763 193.05 250.016 192.882 250.294 192.769C250.571 192.655 250.869 192.597 251.169 192.599L281.378 192.625Z" fill="#E0E0E0"/>
<path d="M253.983 201.085C254.544 201.086 255.093 200.921 255.56 200.611C256.027 200.3 256.392 199.858 256.608 199.34C256.824 198.822 256.881 198.252 256.773 197.701C256.665 197.15 256.396 196.644 256 196.247C255.604 195.849 255.099 195.578 254.549 195.467C253.999 195.356 253.428 195.411 252.91 195.625C252.391 195.838 251.947 196.201 251.634 196.667C251.321 197.132 251.154 197.681 251.152 198.242C251.151 198.614 251.223 198.984 251.364 199.329C251.506 199.674 251.714 199.987 251.977 200.251C252.24 200.516 252.552 200.725 252.897 200.868C253.241 201.011 253.61 201.085 253.983 201.085Z" fill="#FAFAFA"/>
<path d="M241.257 201.085C241.818 201.089 242.368 200.926 242.836 200.618C243.305 200.309 243.672 199.868 243.89 199.352C244.108 198.835 244.168 198.265 244.062 197.714C243.957 197.163 243.69 196.655 243.296 196.256C242.902 195.856 242.398 195.583 241.849 195.469C241.299 195.356 240.728 195.409 240.209 195.62C239.689 195.831 239.243 196.192 238.928 196.656C238.613 197.12 238.443 197.668 238.439 198.229V198.287C238.448 199.03 238.748 199.739 239.275 200.263C239.802 200.786 240.514 201.082 241.257 201.085Z" fill="#FAFAFA"/>
<path d="M283.368 241.349H286.186V233.321H280.409L283.368 241.349Z" fill="#F0F0F0"/>
<path d="M149.883 47.4443H177.52V75.0805H149.883V47.4443Z" fill="#EBEBEB"/>
<path d="M148.655 47.4519H149.877V75.0881H148.655V47.4519Z" fill="#E0E0E0"/>
<path d="M153.619 51.196H173.768V71.3442H153.619V51.196Z" fill="white"/>
<path d="M160.325 64.6344C160.768 65.0781 161.294 65.43 161.873 65.6702C162.451 65.9104 163.072 66.034 163.699 66.034C164.326 66.034 164.946 65.9104 165.525 65.6702C166.104 65.43 166.63 65.0781 167.073 64.6344C167.966 63.7396 168.467 62.5273 168.467 61.2635C168.467 59.9996 167.966 58.7874 167.073 57.8926C166.177 56.9997 164.964 56.4983 163.699 56.4983C162.434 56.4983 161.221 56.9997 160.325 57.8926C159.432 58.7874 158.931 59.9996 158.931 61.2635C158.931 62.5273 159.432 63.7396 160.325 64.6344Z" fill="#F5F5F5"/>
<path d="M176.952 82.9817H209.355V115.385H176.952V82.9817Z" fill="#EBEBEB"/>
<path d="M175.519 82.9866H176.953V115.39H175.519V82.9866Z" fill="#E0E0E0"/>
<path d="M181.341 87.3743H204.963V110.996H181.341V87.3743Z" fill="white"/>
<path d="M188.121 94.1414H198.195V104.215H188.121V94.1414Z" fill="#F5F5F5"/>
<path d="M32.0177 72.5581H49.5605V76.6559H32.0177V72.5581Z" fill="#E6E6E6"/>
<path d="M49.56 72.5581H122.176V76.6559H49.56V72.5581Z" fill="#F5F5F5"/>
<path d="M80.9133 50.8015H101.357V72.5644H80.9133V50.8015Z" fill="#E0E0E0"/>
<path d="M101.359 50.8015H106.596V72.5644H101.359V50.8015Z" fill="#F0F0F0"/>
<path d="M75.5565 47.4443H90.9121V72.5588H75.5565V47.4443Z" fill="#E6E6E6"/>
<path d="M90.905 47.4443H95.3438V72.5588H90.905V47.4443Z" fill="#F0F0F0"/>
<path d="M73.4332 50.8015H86.3828V72.5644H73.4332V50.8015Z" fill="#F0F0F0"/>
<path d="M86.3826 50.8015H89.3418V72.5644H86.3826V50.8015Z" fill="#FAFAFA"/>
<path d="M58.804 54.4829H75.7871V72.5597H58.804V54.4829Z" fill="#E6E6E6"/>
<path d="M75.788 54.4829H80.1367V72.5597H75.788V54.4829Z" fill="#FAFAFA"/>
<path d="M54.3527 51.696H67.1094V72.5647H54.3527V51.696Z" fill="#E6E6E6"/>
<path d="M67.1088 51.696H70.7949V72.5647H67.1088V51.696Z" fill="#F0F0F0"/>
<path d="M50.9636 54.4829H63.3535V72.5597H50.9636V54.4829Z" fill="#F0F0F0"/>
<path d="M63.3512 54.4829H65.8086V72.5597H63.3512V54.4829Z" fill="#FAFAFA"/>
<path d="M39.3582 194.053C33.8644 186.874 20.7861 184.204 16.2637 179.675C10.3453 173.737 10.371 164.828 15.4145 161.611C19.7889 158.819 34.3018 177.694 35.9293 179.817C41.5582 187.079 43.1858 192.464 44.2408 197.681C44.1186 193.249 44.0028 189.17 43.9063 186.031C43.6039 175.783 43.2244 172.483 43.0443 171.473C42.401 170.971 41.7191 170.399 41.3074 170.09C37.7949 167.472 30.011 164.352 26.119 160.55C20.4322 154.992 21.3522 148.327 25.3406 145.863C29.5028 143.29 36.875 149.395 40.7798 155.461C44.6847 161.528 43.0185 167.343 44.1121 172.341C44.3437 173.332 44.5818 177.083 44.8005 182.287C45.7267 177.158 48.5636 172.572 52.7388 169.453C58.1232 165.156 62.7743 159.919 67.2131 160.595C71.6518 161.27 69.2395 168.199 65.7528 173.062C62.6263 177.391 47.1936 181.714 44.9227 185.195C45.1929 192.271 45.4309 201.181 45.5982 209.505C46.814 205.208 45.9777 204.847 50.9633 198.247C53.9225 194.336 66.0809 189.498 67.5219 192.2C68.9629 194.902 66.7692 199.971 62.1825 203.529C58.4835 206.398 50.3071 206.391 48.3708 208.173C47.9269 208.585 46.4409 210.18 45.6303 211.1C45.8298 221.252 45.9134 230.213 45.8169 233.275L45.0192 233.307C45.0578 232.516 44.9677 227.35 44.8069 220.512C42.8127 216.877 29.3677 214.722 25.2441 210.965C20.9083 207.009 17.7947 202.39 19.6538 199.296C21.2042 196.723 33.4076 200.222 38.4061 204.494C41.7126 207.337 43.7326 210.38 44.6589 214.458C44.5496 209.801 44.4145 204.809 44.2923 200.081C43.2758 198.929 41.005 196.208 39.3582 194.053Z" fill="#03B861"/>
<path d="M38.1874 241.214H52.1213C52.8868 241.214 53.543 240.223 53.691 238.847L54.6816 229.84H35.6335L36.6177 238.847C36.7786 240.223 37.4283 241.214 38.1874 241.214Z" fill="#534444"/>
<path d="M35.2341 233.319H55.08C55.556 233.319 55.9549 232.676 56.0063 231.788L56.4116 225.124C56.4759 224.101 56.0449 223.194 55.4852 223.194H34.8224C34.2692 223.194 33.8382 224.088 33.9025 225.124L34.3078 231.788C34.3528 232.663 34.7581 233.319 35.2341 233.319Z" fill="#534444"/>
<path d="M161.001 286.665C92.1146 286.665 36.2713 283.405 36.2713 279.383C36.2713 275.361 92.1146 272.101 161.001 272.101C229.887 272.101 285.73 275.361 285.73 279.383C285.73 283.405 229.887 286.665 161.001 286.665Z" fill="#F2F2F2"/>
<path d="M183.843 95.1509C185.265 98.6055 193.634 98.3674 202.402 94.7521C211.171 91.1367 217.134 85.4049 215.712 81.9504C215.378 81.1527 214.426 78.1614 213.474 77.7497C210.206 76.3666 203.985 79.4737 197.25 82.2528C190.977 84.826 183.805 86.505 182.692 89.908C182.023 91.9795 183.438 94.1667 183.843 95.1509Z" fill="#FFBE40"/>
<path opacity="0.2" d="M182.691 89.9074C182.157 92.6157 183.334 93.9152 183.842 95.1503C184.351 96.3855 185.837 97.196 187.914 97.4791C188.174 97.5233 188.436 97.5533 188.699 97.5692C190.293 97.6628 191.891 97.5787 193.466 97.3183C193.691 97.3183 193.916 97.2475 194.148 97.2089C195.997 96.8771 197.818 96.4083 199.597 95.8065L200.24 95.5878C200.954 95.3369 201.688 95.0603 202.421 94.7579C203.154 94.4556 203.849 94.1146 204.537 93.8123L205.129 93.5292C206.751 92.7273 208.314 91.8115 209.806 90.7888L210.333 90.4157C211.636 89.4949 212.83 88.4287 213.891 87.2377C214.052 87.0576 214.2 86.8839 214.341 86.7038C215.724 84.954 216.271 83.2814 215.724 81.9498C215.364 81.0942 214.592 78.1672 213.486 77.7426C212.125 77.3592 210.684 77.3592 209.323 77.7426L208.68 77.897C205.464 78.7204 201.411 80.5538 197.274 82.2586C192.398 84.2721 186.628 86.3629 183.797 88.7752C183.629 88.917 183.468 89.0673 183.315 89.2255C183.089 89.4359 182.88 89.6639 182.691 89.9074Z" fill="black"/>
<g opacity="0.2">
<path d="M208.358 77.3444L208.654 77.8848L213.878 87.232C214.039 87.0518 214.187 86.8781 214.328 86.698L209.31 77.7304L208.918 77.0356L208.358 77.3444Z" fill="black"/>
</g>
<g opacity="0.2">
<path d="M204.41 81.1577L209.795 90.8072L210.322 90.4341L204.97 80.8618L204.41 81.1577Z" fill="black"/>
</g>
<g opacity="0.2">
<path d="M194.508 86.6908L199.597 95.8064L200.24 95.5877L195.094 86.3499L194.508 86.6908Z" fill="black"/>
</g>
<g opacity="0.2">
<path d="M199.115 84.1185L204.525 93.8131L205.117 93.53L199.675 83.7776L199.115 84.1185Z" fill="black"/>
</g>
<g opacity="0.2">
<path d="M188.507 88.4535L193.467 97.3182C193.692 97.3182 193.917 97.2474 194.148 97.2088L189.073 88.1318L188.507 88.4535Z" fill="black"/>
</g>
<path d="M182.729 92.1394C184.151 95.5939 192.417 95.4588 201.192 91.837C209.967 88.2153 215.924 82.4899 214.496 79.0354C213.067 75.5808 204.807 75.7224 196.033 79.3377C187.258 82.9531 181.308 88.6656 182.729 92.1394Z" fill="#FFBE40"/>
<path opacity="0.2" d="M185.714 90.8841C186.717 93.3222 193.163 92.9813 200.104 90.1186C207.046 87.2559 211.858 82.9522 210.854 80.5141C209.85 78.076 203.405 78.4169 196.457 81.2796C189.509 84.1423 184.704 88.446 185.714 90.8841Z" fill="white"/>
<path d="M139.506 63.9239C137.216 66.8766 141.577 74.0237 149.085 79.8327C156.592 85.6417 164.524 87.9576 166.807 84.9791C167.335 84.2972 169.471 82.0135 169.342 80.9456C168.911 77.4268 163.128 73.5798 157.364 69.1153C151.999 64.9596 146.987 59.5687 143.481 60.2957C141.352 60.7653 140.156 63.0876 139.506 63.9239Z" fill="#FFBE40"/>
<path opacity="0.2" d="M143.481 60.322C140.863 61.2098 140.323 62.8952 139.506 63.9245C138.689 64.9538 138.721 66.6714 139.506 68.6206C139.596 68.8586 139.705 69.0966 139.821 69.3411C140.526 70.7712 141.389 72.1177 142.394 73.3553C142.529 73.5354 142.677 73.7091 142.825 73.8892C144.035 75.3321 145.351 76.6825 146.762 77.9292L147.257 78.3602C147.83 78.8555 148.435 79.3509 149.059 79.8333C149.683 80.3158 150.307 80.7726 150.937 81.2036C151.111 81.3322 151.297 81.4545 151.471 81.5767C152.974 82.5849 154.548 83.4836 156.18 84.2657C156.379 84.3686 156.572 84.4522 156.759 84.5423C158.209 85.2132 159.731 85.7181 161.294 86.0476C161.526 86.0991 161.751 86.1377 161.976 86.1698C164.183 86.4979 165.907 86.1698 166.788 85.0055C167.354 84.2721 169.509 82.1428 169.323 80.9784C168.986 79.6019 168.271 78.3473 167.258 77.3566C167.116 77.1958 166.962 77.035 166.801 76.8677C164.479 74.4618 160.882 71.8821 157.344 69.1481C153.169 65.9316 148.486 61.9496 144.993 60.7016C144.782 60.6241 144.567 60.5576 144.35 60.5021C144.065 60.421 143.775 60.3608 143.481 60.322Z" fill="black"/>
<g opacity="0.2">
<path d="M167.143 76.3389L166.821 76.8664L161.314 86.0463C161.546 86.0977 161.771 86.1363 161.996 86.1685L167.278 77.3424L167.689 76.6991L167.143 76.3389Z" fill="black"/>
</g>
<g opacity="0.2">
<path d="M161.874 74.8093L156.201 84.2658C156.4 84.3688 156.593 84.4524 156.78 84.5425L162.428 75.1374L161.874 74.8093Z" fill="black"/>
</g>
<g opacity="0.2">
<path d="M152.154 68.9827L146.782 77.9374L147.278 78.3684L152.707 69.3108L152.154 68.9827Z" fill="black"/>
</g>
<g opacity="0.2">
<path d="M156.669 71.6885L150.956 81.2029C151.13 81.3316 151.317 81.4538 151.49 81.576L157.229 72.0166L156.669 71.6885Z" fill="black"/>
</g>
<g opacity="0.2">
<path d="M147.636 64.6379L142.413 73.3547C142.548 73.5348 142.696 73.7085 142.844 73.8886L148.189 64.9725L147.636 64.6379Z" fill="black"/>
</g>
<path d="M151.032 77.3094C143.53 71.4984 139.301 64.3945 141.588 61.4424C143.874 58.4903 151.81 60.808 159.312 66.619C166.815 72.4301 171.043 79.534 168.756 82.4861C166.47 85.4381 158.534 83.1205 151.032 77.3094Z" fill="#FFBE40"/>
<path opacity="0.2" d="M151.963 75.5189C146.025 70.9197 142.522 65.4995 144.139 63.4125C145.755 61.3256 151.879 63.3622 157.817 67.9614C163.755 72.5606 167.258 77.9809 165.641 80.0678C164.025 82.1548 157.901 80.1182 151.963 75.5189Z" fill="white"/>
<path d="M170.559 50.0936C171.292 54.3265 180.787 56.1149 191.543 54.185C202.299 52.2551 210.411 47.2824 209.659 43.0495C209.485 42.0652 209.183 38.482 208.173 37.768C204.834 35.4135 197.076 37.382 188.816 38.8487C181.096 40.219 172.65 40.3283 170.559 43.8858C169.291 46.073 170.347 48.8842 170.559 50.0936Z" fill="#FFBE40"/>
<path opacity="0.2" d="M170.558 43.8919C169.272 46.8124 170.295 48.5558 170.558 50.074C170.822 51.5922 172.295 52.8595 174.56 53.6958C174.836 53.8051 175.126 53.8952 175.422 53.9852C177.193 54.4831 179.014 54.783 180.851 54.8794C181.115 54.8794 181.372 54.8794 181.642 54.9245C183.807 55.0041 185.974 54.9245 188.127 54.6864L188.879 54.5899C189.748 54.4806 190.642 54.3519 191.536 54.1911C192.431 54.0303 193.299 53.8502 194.155 53.6507C194.399 53.5993 194.643 53.5349 194.888 53.477C196.909 52.978 198.891 52.333 200.819 51.5471C201.057 51.4571 201.282 51.3541 201.507 51.2641C203.199 50.5439 204.805 49.6354 206.294 48.5558C206.519 48.395 206.725 48.2341 206.937 48.0669C208.931 46.4393 209.954 44.6896 209.665 43.062C209.472 42.007 209.317 38.5589 208.185 37.7805C207.053 37.0021 205.432 36.7577 203.502 36.7512H202.73C198.87 36.8799 193.897 37.9542 188.822 38.8548C182.839 39.9227 175.833 40.8555 172.064 42.8754C171.842 42.9926 171.628 43.1215 171.42 43.2614C171.117 43.4488 170.829 43.6596 170.558 43.8919Z" fill="black"/>
<g opacity="0.2">
<path d="M202.517 36.098L202.723 36.7735L206.3 48.5716C206.525 48.4108 206.731 48.25 206.943 48.0827L203.508 36.7671L203.238 35.8857L202.517 36.098Z" fill="black"/>
</g>
<g opacity="0.2">
<path d="M197.139 39.3882L200.825 51.5402C201.063 51.4501 201.289 51.3472 201.514 51.2571L197.847 39.1631L197.139 39.3882Z" fill="black"/>
</g>
<g opacity="0.2">
<path d="M184.639 43.1985L188.132 54.7071L188.885 54.6106L185.353 42.9797L184.639 43.1985Z" fill="black"/>
</g>
<g opacity="0.2">
<path d="M190.449 41.4364L194.161 53.6591C194.406 53.6077 194.65 53.5433 194.895 53.4854L191.163 41.2048L190.449 41.4364Z" fill="black"/>
</g>
<g opacity="0.2">
<path d="M177.454 43.6993L180.857 54.8992C181.121 54.8992 181.378 54.8992 181.648 54.9442L178.168 43.4871L177.454 43.6993Z" fill="black"/>
</g>
<path d="M170.057 46.3969C169.304 42.1644 177.416 37.1812 188.175 35.2666C198.935 33.352 208.268 35.2309 209.021 39.4634C209.774 43.6959 201.662 48.6791 190.903 50.5937C180.143 52.5083 170.81 50.6293 170.057 46.3969Z" fill="#FFBE40"/>
<path opacity="0.2" d="M173.719 45.7507C173.186 42.76 179.657 39.1073 188.171 37.5923C196.685 36.0773 204.018 37.2736 204.55 40.2643C205.082 43.255 198.612 46.9076 190.098 48.4226C181.584 49.9377 174.251 48.7414 173.719 45.7507Z" fill="white"/>
<path d="M114.399 158.163L180.601 162.023C182.939 162.16 185.234 162.718 187.375 163.67L259.283 195.835C260.544 196.389 261.578 197.36 262.21 198.585C262.842 199.809 263.035 201.214 262.757 202.564L250.875 258.756C250.674 259.661 250.269 260.508 249.69 261.232C249.112 261.956 248.376 262.539 247.538 262.935C246.7 263.331 245.782 263.53 244.855 263.517C243.929 263.504 243.017 263.279 242.19 262.86L171.215 227.427L105.675 225.233C104.869 225.212 104.076 225.019 103.35 224.667C102.624 224.315 101.981 223.813 101.465 223.193C100.948 222.574 100.569 221.851 100.354 221.074C100.138 220.296 100.09 219.482 100.214 218.685L108.982 164.879C109.439 162.1 111.549 158.079 114.399 158.163Z" fill="#C05406"/>
<path opacity="0.1" d="M114.399 158.163L180.601 162.023C182.939 162.16 185.234 162.718 187.375 163.67L259.283 195.835C260.544 196.389 261.578 197.36 262.21 198.585C262.842 199.809 263.035 201.214 262.757 202.564L250.875 258.756C250.674 259.661 250.269 260.508 249.69 261.232C249.112 261.956 248.376 262.539 247.538 262.935C246.7 263.331 245.782 263.53 244.855 263.517C243.929 263.504 243.017 263.279 242.19 262.86L171.215 227.427L105.675 225.233C104.869 225.212 104.076 225.019 103.35 224.667C102.624 224.315 101.981 223.813 101.465 223.193C100.948 222.574 100.569 221.851 100.354 221.074C100.138 220.296 100.09 219.482 100.214 218.685L108.982 164.879C109.439 162.1 111.549 158.079 114.399 158.163Z" fill="black"/>
<path d="M247.28 121.575L282.021 153.601L219.676 221.235L184.934 189.21L247.28 121.575Z" fill="#06C019"/>
<path opacity="0.5" d="M184.943 189.215L219.688 221.239L282.023 153.609L259.225 132.592L247.279 121.579L245.291 123.74L184.943 189.215Z" fill="#FAFAFA"/>
<path d="M247.056 125.71L277.711 153.968L219.394 217.231L188.739 188.973L247.056 125.71Z" fill="#039658" stroke="#06C072" stroke-width="0.643301" stroke-miterlimit="10"/>
<path d="M226.328 178.961C222.812 175.72 223.256 169.518 227.321 165.108C231.386 160.699 237.531 159.751 241.047 162.993C244.564 166.234 244.119 172.436 240.054 176.846C235.989 181.255 229.844 182.202 226.328 178.961Z" fill="#06C072"/>
<path opacity="0.1" d="M220.054 193.789L232.399 198.054L259.225 132.592L247.279 121.579L245.291 123.74L220.054 193.789Z" fill="black"/>
<path d="M217.65 95.0768L262.07 111.183L230.715 197.66L186.294 181.553L217.65 95.0768Z" fill="#06C019"/>
<path opacity="0.5" d="M217.65 95.0768L262.07 111.183L230.715 197.66L186.294 181.553L217.65 95.0768Z" fill="#FAFAFA"/>
<path d="M219.045 98.9765L258.24 113.188L228.911 194.077L189.716 179.865L219.045 98.9765Z" stroke="#039658" stroke-width="0.643301" stroke-miterlimit="10"/>
<path d="M220.504 156.097C216.008 154.467 214.021 148.575 216.065 142.937C218.109 137.299 223.411 134.05 227.907 135.68C232.402 137.31 234.39 143.202 232.345 148.84C230.301 154.478 224.999 157.727 220.504 156.097Z" fill="#039658"/>
<path d="M113.967 160.447L179.262 164.127C181.577 164.253 183.848 164.81 185.959 165.767L256.812 197.752C258.06 198.316 259.078 199.289 259.698 200.51C260.318 201.731 260.503 203.128 260.221 204.468L248.34 260.686C248.148 261.585 247.753 262.429 247.185 263.152C246.617 263.874 245.89 264.457 245.062 264.855C244.233 265.254 243.324 265.457 242.405 265.449C241.485 265.441 240.58 265.222 239.758 264.81L169.831 229.576L105.192 227.53C104.392 227.505 103.607 227.309 102.888 226.956C102.169 226.603 101.534 226.101 101.025 225.483C100.516 224.865 100.145 224.145 99.9363 223.373C99.7275 222.6 99.6859 221.791 99.8144 221.001L108.608 167.202C109.065 164.397 111.149 160.37 113.967 160.447Z" fill="#C05406"/>
<path opacity="0.2" d="M176.605 173.968L120.58 170.52" stroke="black" stroke-width="1.2866" stroke-linecap="round" stroke-linejoin="round"/>
<path opacity="0.2" d="M183.316 175.417L173.081 222.43" stroke="black" stroke-width="1.2866" stroke-linecap="round" stroke-linejoin="round"/>
<path opacity="0.2" d="M251.557 217.86L244.339 254.02C244.339 254.02 238.806 239.675 251.557 217.86Z" fill="#FAFAFA"/>
<path opacity="0.2" d="M250.611 218.286C250.36 218.93 186.5 191.525 186.5 191.525C186.327 197.738 187.88 203.878 190.988 209.261C194.095 214.644 198.634 219.06 204.101 222.018C223.323 232.793 250.611 218.286 250.611 218.286Z" fill="#FAFAFA"/>
<path d="M208.191 219.355C206.663 219.355 205.425 218.116 205.425 216.588C205.425 215.061 206.663 213.822 208.191 213.822C209.719 213.822 210.957 215.061 210.957 216.588C210.957 218.116 209.719 219.355 208.191 219.355Z" fill="#C05406"/>
<path opacity="0.2" d="M186.469 191.525C186.469 191.525 178.55 203.446 180.467 223.748L186.469 191.525Z" fill="black"/>
<g opacity="0.2">
<path d="M254.613 203.66L253.14 203.011" stroke="#FAFAFA" stroke-width="0.643301" stroke-linecap="round" stroke-linejoin="round"/>
<path d="M250.086 201.658L190.452 175.296" stroke="#FAFAFA" stroke-width="0.643301" stroke-linecap="round" stroke-linejoin="round" stroke-dasharray="3.34 3.34"/>
<path d="M188.92 174.621L187.453 173.972" stroke="#FAFAFA" stroke-width="0.643301" stroke-linecap="round" stroke-linejoin="round"/>
</g>
<path opacity="0.2" d="M174.729 184.539L118.703 181.084" stroke="black" stroke-width="1.2866" stroke-linecap="round" stroke-linejoin="round"/>
<path opacity="0.2" d="M172.205 197.719L116.18 194.264" stroke="black" stroke-width="1.2866" stroke-linecap="round" stroke-linejoin="round"/>
<path d="M107.522 118.448C107.522 118.448 108.93 133.457 114.508 134.75C117.962 135.496 121.563 135.136 124.801 133.72L129.336 130.234L131.549 137.953C131.549 137.953 129.13 141.241 124.08 138.963C124.08 138.963 115.074 142.926 110.095 138.963C105.116 135.001 103.52 124.129 103.52 124.129L107.522 118.448Z" fill="#B97964"/>
<path d="M103.037 111.178C103.037 111.178 106.929 104.546 105.16 92.5222C103.391 80.4989 93.3104 79.0129 89.4184 79.8814C85.5265 80.7498 82.3421 84.4874 79.6917 91.6023C77.0413 98.7172 76.0635 100.57 71.644 99.3219C67.2246 98.0739 55.465 94.1755 52.1906 97.6429C51.2488 98.59 50.5548 99.7546 50.1699 101.034C49.7851 102.313 49.7213 103.667 49.9841 104.977C49.9841 104.977 33.625 101.001 35.0402 115.591C36.4555 130.181 60.0646 143.8 82.5223 129.383C104.98 114.967 103.037 111.178 103.037 111.178Z" fill="#263238"/>
<path d="M103.219 146.489C103.219 146.489 107.664 184.72 107.516 202.649C107.368 220.578 100.999 262.83 100.999 262.83H93.1446C93.1446 262.83 94.1803 229.043 94.0323 217.483C93.8844 205.923 91.8129 186.798 91.8129 186.798C91.8129 186.798 89.2976 203.987 86.332 210.06C83.3664 216.132 66.9172 237.625 55.505 244.296L50.1721 239.401C50.1721 239.401 62.0281 224.733 66.4733 217.47C70.9185 210.208 74.9134 208.149 76.5474 194.64C78.1814 181.13 75.3573 159.522 80.0984 146.482L103.219 146.489Z" fill="#263238"/>
<path opacity="0.2" d="M91.8117 186.798L95.2277 162.565C95.2277 162.565 97.9231 177.129 92.6159 194.916L91.8117 186.798Z" fill="black"/>
<path d="M99.3828 264.973L99.1191 272.48L93.8504 272.917L93.5867 272.216V264.445L99.3828 264.973Z" fill="#B97964"/>
<path d="M101.887 262.116L101.404 264.927L92.3594 265.146L91.7869 261.769L101.887 262.116Z" fill="#407BFF"/>
<path d="M57.9805 244.817L49.5983 237.007L47.752 239.947L54.9505 246.534L57.9805 244.817Z" fill="#407BFF"/>
<path d="M53.9414 244.816L48.409 249.474L44.858 245.299L49.3997 240.603L53.9414 244.816Z" fill="#B97964"/>
<path d="M43.7842 244.978L40.439 247.037C40.2866 247.131 40.1565 247.257 40.0579 247.406C39.9593 247.556 39.8946 247.725 39.8682 247.902C39.8419 248.079 39.8546 248.26 39.9054 248.431C39.9562 248.603 40.0439 248.762 40.1624 248.896C42.5876 251.636 48.7826 258.597 49.4002 259.086C50.1657 259.729 51.0921 258.648 51.3301 257.683C51.3301 257.683 49.5739 255.355 49.4002 253.862C49.327 252.71 49.327 251.554 49.4002 250.401C49.4137 250.113 49.3171 249.83 49.13 249.61L45.3924 245.223C45.1994 244.994 44.93 244.843 44.6342 244.798C44.3384 244.753 44.0364 244.817 43.7842 244.978Z" fill="#263238"/>
<path d="M92.5639 273.123L91.8691 276.983C91.8372 277.159 91.8443 277.341 91.8899 277.514C91.9355 277.688 92.0186 277.849 92.1333 277.987C92.2479 278.125 92.3914 278.236 92.5536 278.313C92.7157 278.389 92.8927 278.429 93.0721 278.43C96.7325 278.43 106.047 278.469 106.826 278.34C107.797 278.179 107.624 276.79 107.051 275.979C107.051 275.979 104.15 275.735 102.934 274.854C102.03 274.144 101.17 273.379 100.361 272.563C100.154 272.361 99.8781 272.244 99.5887 272.235L93.8312 272.1C93.5322 272.089 93.2393 272.187 93.0064 272.375C92.7736 272.563 92.6164 272.828 92.5639 273.123Z" fill="#263238"/>
<path d="M79.2545 125.285L71.2261 119.65C71.2261 119.65 73.3618 111.107 76.5269 110.682C79.6919 110.258 95.4013 107.266 105.392 110.682C105.392 110.682 108.981 111.705 110.088 121.786L105.816 123.149C105.816 123.149 104.285 142.024 103.34 144.932H80.5411C80.5411 144.932 80.2838 128.701 79.2545 125.285Z" fill="#407BFF"/>
<path d="M77.524 124.07C77.524 124.07 74.4811 132.755 73.9408 137.425C73.9408 137.425 81.1715 134.543 83.037 133.224L84.4523 128.142L89.2385 125.807L90.6602 129.667L86.6653 134.62C86.6653 134.62 75.7742 144.81 70.2547 142.481C64.7351 140.153 72.4355 120.519 72.4355 120.519L77.524 124.07Z" fill="#B97964"/>
<path d="M97.9485 86.0453C97.9485 86.0453 100.734 91.6034 100.522 96.1258C100.309 100.648 98.0256 102.494 93.6834 103.131C93.6834 103.131 91.8307 108.921 96.694 109.506C97.0671 109.551 97.1958 111.025 97.17 111.263C97.0414 112.202 96.1086 112.717 95.2401 112.935C94.3254 113.138 93.3915 113.241 92.4547 113.244C91.4709 113.278 90.4922 113.088 89.5928 112.688C88.6934 112.287 87.8968 111.688 87.2632 110.935C87.1603 110.812 86.1825 109.564 86.1825 109.564C86.1825 109.564 88.5048 108.413 87.6878 100.873C86.5796 100.152 85.7283 99.0979 85.2561 97.8627C84.8124 97.6272 84.4201 97.3056 84.102 96.9169C83.7839 96.5281 83.5464 96.0798 83.4034 95.5983C83.056 94.0929 84.3877 92.0086 86.8193 94.0929C86.8193 94.0929 91.3996 91.7771 93.1366 83.665C94.4245 84.9807 96.1211 85.82 97.9485 86.0453Z" fill="#B97964"/>
<path d="M96.6443 94.8893L96.2519 91.9172L98.3555 94.246C98.1385 94.477 97.8713 94.6551 97.5747 94.7666C97.278 94.8781 96.9597 94.9201 96.6443 94.8893Z" fill="#A24E3F"/>
<path d="M95.4219 97.0639C95.4219 97.0639 93.2025 97.4048 92.1346 95.9832" stroke="#222221" stroke-width="0.482476" stroke-linecap="round" stroke-linejoin="round"/>
<path d="M93.2012 87.7563C92.6974 87.6131 92.1642 87.6086 91.658 87.7434C91.1519 87.8781 90.6915 88.1471 90.3256 88.5219" stroke="#222221" stroke-width="0.643301" stroke-linecap="round" stroke-linejoin="round"/>
<path d="M97.0413 87.1127C97.0413 87.1127 98.3279 86.9133 98.9004 87.6402" stroke="#222221" stroke-width="0.643301" stroke-linecap="round" stroke-linejoin="round"/>
<path d="M92.3077 91.6659C92.3656 92.1162 92.655 92.4443 92.951 92.4057C93.2469 92.3671 93.4463 91.9747 93.3884 91.5244C93.3305 91.0741 93.041 90.746 92.7451 90.7846C92.4492 90.8232 92.2498 91.2156 92.3077 91.6659Z" fill="#222221"/>
<path d="M97.4431 90.67C97.385 90.2226 97.5806 89.8283 97.8801 89.7894C98.1796 89.7505 98.4695 90.0817 98.5276 90.5292C98.5857 90.9766 98.39 91.3709 98.0906 91.4098C97.7911 91.4487 97.5012 91.1175 97.4431 90.67Z" fill="#222221"/>
<path d="M92.7395 90.7857L93.7559 90.3418C93.7425 90.4531 93.7003 90.5589 93.6334 90.6488C93.5665 90.7387 93.4773 90.8096 93.3746 90.8545C93.2719 90.8993 93.1593 90.9166 93.0479 90.9045C92.9365 90.8924 92.8302 90.8515 92.7395 90.7857Z" fill="#222221"/>
<path d="M97.7824 89.8333L98.7988 89.3894C98.7854 89.5007 98.7432 89.6065 98.6764 89.6964C98.6095 89.7863 98.5203 89.8572 98.4176 89.9021C98.3149 89.9469 98.2023 89.9642 98.0909 89.9521C97.9795 89.94 97.8731 89.8991 97.7824 89.8333Z" fill="#222221"/>
<path d="M104.139 143.927V146.61L79.4359 146.816L80.0985 143.625L104.139 143.927Z" fill="#407BFF"/>
<path opacity="0.4" d="M104.139 143.927V146.61L79.4359 146.816L80.0985 143.625L104.139 143.927Z" fill="white"/>
<path d="M124.774 116.541L138.36 163.798C138.812 165.381 139.727 166.792 140.989 167.849C142.25 168.906 143.799 169.561 145.436 169.729C146.479 169.829 147.53 169.733 148.537 169.446L174.507 161.978C176.607 161.372 178.38 159.958 179.439 158.047C180.498 156.135 180.755 153.882 180.155 151.781L166.562 104.511C165.955 102.415 164.542 100.645 162.632 99.5882C160.722 98.5319 158.471 98.2759 156.373 98.8762L130.383 106.338C128.289 106.951 126.522 108.368 125.471 110.281C124.419 112.193 124.168 114.444 124.774 116.541Z" fill="#255FE1"/>
<path opacity="0.2" d="M124.774 116.541L138.36 163.798C138.812 165.381 139.727 166.792 140.989 167.849C142.25 168.906 143.799 169.561 145.436 169.729C146.479 169.829 147.53 169.733 148.537 169.446L174.507 161.978C176.607 161.372 178.38 159.958 179.439 158.047C180.498 156.135 180.755 153.882 180.155 151.781L166.562 104.511C165.955 102.415 164.542 100.645 162.632 99.5882C160.722 98.5319 158.471 98.2759 156.373 98.8762L130.383 106.338C128.289 106.951 126.522 108.368 125.471 110.281C124.419 112.193 124.168 114.444 124.774 116.541Z" fill="black"/>
<path d="M127.032 117.102L140.618 164.365C140.962 165.568 141.575 166.677 142.413 167.607C143.25 168.537 144.289 169.263 145.449 169.73C146.491 169.83 147.543 169.734 148.55 169.447L174.507 161.979C176.607 161.373 178.38 159.959 179.439 158.048C180.498 156.137 180.755 153.883 180.155 151.782L166.562 104.513C166.219 103.311 165.604 102.204 164.767 101.277C163.93 100.349 162.891 99.625 161.731 99.1603C160.689 99.0542 159.636 99.1503 158.631 99.4433L132.693 106.938C130.597 107.54 128.825 108.947 127.764 110.851C126.704 112.756 126.44 115.003 127.032 117.102Z" fill="#255FE1"/>
<path opacity="0.5" d="M127.032 117.102L140.618 164.365C140.962 165.568 141.575 166.677 142.413 167.607C143.25 168.537 144.289 169.263 145.449 169.73C146.491 169.83 147.543 169.734 148.55 169.447L174.507 161.979C176.607 161.373 178.38 159.959 179.439 158.048C180.498 156.137 180.755 153.883 180.155 151.782L166.562 104.513C166.219 103.311 165.604 102.204 164.767 101.277C163.93 100.349 162.891 99.625 161.731 99.1603C160.689 99.0542 159.636 99.1503 158.631 99.4433L132.693 106.938C130.597 107.54 128.825 108.947 127.764 110.851C126.704 112.756 126.44 115.003 127.032 117.102Z" fill="#FAFAFA"/>
<path d="M163.558 121.121L166.338 120.337L176.344 155.841L173.564 156.625L163.558 121.121Z" fill="#FAFAFA"/>
<path d="M169.573 157.751L172.352 156.946L162.348 121.456L159.576 122.253L169.573 157.751Z" fill="#FAFAFA"/>
<path d="M165.533 158.91L168.312 158.112L158.309 122.622L155.53 123.419L165.533 158.91Z" fill="#FAFAFA"/>
<path opacity="0.5" d="M139.353 128.069L142.133 127.285L152.139 162.789L149.359 163.573L139.353 128.069Z" fill="black"/>
<path d="M139.705 118.033L141.056 122.851L142.703 122.388C143.5 122.162 144.176 121.628 144.581 120.905C144.986 120.181 145.088 119.326 144.864 118.528L143.963 115.312L140.638 116.264C140.28 116.375 139.98 116.623 139.805 116.955C139.63 117.287 139.594 117.674 139.705 118.033Z" fill="#FAFAFA"/>
<path d="M140.496 115.673L143.822 114.721L142.825 111.196C142.714 110.8 142.526 110.43 142.271 110.108C142.017 109.785 141.702 109.516 141.343 109.315C140.985 109.114 140.59 108.986 140.182 108.938C139.774 108.89 139.361 108.922 138.965 109.034L137.254 109.517L138.747 114.708C138.796 114.888 138.881 115.055 138.996 115.201C139.112 115.348 139.255 115.469 139.418 115.559C139.581 115.649 139.761 115.705 139.946 115.725C140.131 115.745 140.318 115.727 140.496 115.673Z" fill="#FAFAFA"/>
<path d="M137.343 117.229L133.998 118.188L134.886 121.334C134.996 121.73 135.183 122.101 135.437 122.424C135.691 122.748 136.006 123.018 136.365 123.219C136.724 123.42 137.119 123.548 137.528 123.595C137.936 123.643 138.35 123.609 138.746 123.495L140.482 123.006L139.099 118.194C139.048 118.015 138.962 117.848 138.846 117.702C138.73 117.556 138.586 117.435 138.423 117.345C138.259 117.255 138.08 117.199 137.895 117.179C137.709 117.159 137.522 117.176 137.343 117.229Z" fill="#FAFAFA"/>
<path d="M132.814 114.012L133.824 117.589L137.169 116.63C137.527 116.525 137.83 116.284 138.01 115.957C138.191 115.631 138.236 115.246 138.134 114.887L136.642 109.695L134.976 110.165C134.581 110.276 134.212 110.463 133.89 110.716C133.568 110.969 133.299 111.283 133.098 111.641C132.897 111.998 132.769 112.391 132.72 112.798C132.671 113.205 132.703 113.617 132.814 114.012Z" fill="#FAFAFA"/>
</g>
<defs>
<clipPath id="clip0_3624_10106">
<rect width="321.65" height="321.65" fill="white" transform="matrix(-1 0 0 1 321.824 -5)"/>
</clipPath>
</defs>
</svg>
