<svg width="166" height="166" viewBox="0 0 166 166" fill="none" xmlns="http://www.w3.org/2000/svg">
<path d="M104.735 35.5757H48.9574C42.5433 35.5757 37.3438 40.7752 37.3438 47.1894V119.104C37.5268 113.007 42.8458 108.307 48.9435 108.307H106.4C107.24 108.307 107.921 108.988 107.921 109.829V38.7612C107.921 37.0028 106.496 35.5757 104.735 35.5757Z" fill="#FCD462"/>
<path d="M50.8619 35.5757H48.9531V110.15H50.8619V35.5757Z" fill="#F6C358"/>
<path d="M48.4784 127.548C43.7469 127.548 39.9498 123.468 40.4214 118.643C40.8324 114.437 44.614 111.357 48.8392 111.357H106.401C107.241 111.357 107.922 110.676 107.922 109.835C107.922 108.995 107.241 108.313 106.401 108.313H48.9448C42.8452 108.313 37.528 113.013 37.345 119.109C37.1549 125.418 42.2129 130.59 48.4784 130.59H106.403C107.243 130.59 107.923 129.91 107.923 129.068C107.923 128.229 107.243 127.546 106.403 127.546H48.4784V127.548Z" fill="#DC8744"/>
<path d="M40.4205 118.64C39.9489 123.466 43.746 127.545 48.4775 127.545H106.112C103.6 122.146 103.6 116.75 106.112 111.352H48.8383C44.6111 111.354 40.8299 114.433 40.4205 118.64Z" fill="#EBF0F3"/>
<path d="M45.3906 115.046H104.803C104.856 114.832 104.927 114.618 104.99 114.405H45.3906V115.046Z" fill="#E1E6E9"/>
<path d="M45.3906 117.407H104.349C104.375 117.192 104.428 116.978 104.461 116.764H45.3906V117.407Z" fill="#E1E6E9"/>
<path d="M45.3906 119.77H104.247C104.243 119.555 104.243 119.341 104.247 119.127H45.3906V119.77Z" fill="#E1E6E9"/>
<path d="M45.3906 122.131H104.461C104.428 121.917 104.374 121.702 104.349 121.49H45.3906V122.131Z" fill="#E1E6E9"/>
<path d="M45.3906 124.494H104.99C104.927 124.279 104.856 124.065 104.803 123.853H45.3906V124.494Z" fill="#E1E6E9"/>
<path opacity="0.5" d="M89.1791 81.6177C97.6788 81.6177 104.569 74.7274 104.569 66.2277C104.569 57.728 97.6788 50.8376 89.1791 50.8376C80.6794 50.8376 73.7891 57.728 73.7891 66.2277C73.7891 74.7274 80.6794 81.6177 89.1791 81.6177Z" fill="white"/>
<path opacity="0.5" d="M82.0106 75.2467C76.8749 70.1109 76.8075 61.8502 81.8603 56.7958C82.9885 55.6677 84.2805 54.8093 85.6574 54.1926C83.702 54.7627 81.8571 55.8183 80.3144 57.3591C75.4186 62.2548 75.4186 70.1942 80.3144 75.0896C82.4822 77.2574 85.2464 78.4617 88.0792 78.7085C85.8627 78.1349 83.7551 76.9896 82.0106 75.2467Z" fill="white"/>
<path d="M102.471 52.9238C95.129 45.582 83.2271 45.582 75.8853 52.9238C68.5435 60.2656 68.5435 72.1676 75.8853 79.5094C82.6518 86.276 93.2809 86.789 100.655 81.0865L102.338 82.7672L105.731 79.3743L104.05 77.6917C109.75 70.3191 109.237 59.6884 102.471 52.9238ZM100.059 77.0977C94.0495 83.1076 84.305 83.1076 78.2951 77.0977C72.2851 71.0877 72.2851 61.3432 78.2951 55.3333C84.305 49.3234 94.0479 49.3234 100.057 55.3333C106.067 61.3432 106.069 71.088 100.059 77.0977Z" fill="#3A556A"/>
<path d="M106.641 78.118L101.073 83.6855C100.757 84.0016 100.757 84.5147 101.073 84.8308L121.746 105.505C123.185 106.944 129.899 100.229 128.46 98.7902L107.788 78.1177C107.471 77.8019 106.958 77.8019 106.641 78.118Z" fill="#27A2DB"/>
<path d="M126.455 96.7807L119.74 103.495L120.88 104.635L127.594 97.9203L126.455 96.7807Z" fill="#EBF0F3"/>
<path d="M108.814 79.1547L102.1 85.8691L103.239 87.0088L109.954 80.2944L108.814 79.1547Z" fill="#EBF0F3"/>
</svg>
