<svg width="25" height="25" viewBox="0 0 25 25" fill="none" xmlns="http://www.w3.org/2000/svg">
<path d="M11.3472 12.5272L9.22616 10.4062C9.08954 10.2647 9.01394 10.0753 9.01565 9.87861C9.01736 9.68197 9.09624 9.49386 9.23529 9.3548C9.37435 9.21575 9.56246 9.13687 9.75911 9.13516C9.95575 9.13345 10.1452 9.20905 10.2867 9.34567L12.4077 11.4667L14.5287 9.34567C14.5978 9.27403 14.6806 9.2169 14.7721 9.17759C14.8636 9.13828 14.962 9.11759 15.0616 9.11673C15.1612 9.11586 15.26 9.13484 15.3521 9.17255C15.4443 9.21026 15.528 9.26595 15.5985 9.33637C15.6689 9.40679 15.7246 9.49053 15.7623 9.5827C15.8 9.67487 15.819 9.77363 15.8181 9.87322C15.8172 9.9728 15.7965 10.0712 15.7572 10.1627C15.7179 10.2542 15.6608 10.337 15.5892 10.4062L13.4682 12.5272L15.5892 14.6482C15.6608 14.7174 15.7179 14.8001 15.7572 14.8916C15.7965 14.9831 15.8172 15.0815 15.8181 15.1811C15.819 15.2807 15.8 15.3795 15.7623 15.4716C15.7246 15.5638 15.6689 15.6475 15.5985 15.718C15.528 15.7884 15.4443 15.8441 15.3521 15.8818C15.26 15.9195 15.1612 15.9385 15.0616 15.9376C14.962 15.9367 14.8636 15.916 14.7721 15.8767C14.6806 15.8374 14.5978 15.7803 14.5287 15.7087L12.4077 13.5877L10.2867 15.7087C10.1452 15.8453 9.95575 15.9209 9.75911 15.9192C9.56246 15.9175 9.37435 15.8386 9.23529 15.6995C9.09624 15.5605 9.01736 15.3724 9.01565 15.1757C9.01394 14.9791 9.08954 14.7896 9.22616 14.6482L11.3472 12.5272Z" fill="#29329C"/>
<path d="M12.4082 21.5273C13.5901 21.5273 14.7604 21.2945 15.8524 20.8423C16.9443 20.39 17.9364 19.727 18.7722 18.8913C19.6079 18.0556 20.2708 17.0634 20.7231 15.9715C21.1754 14.8796 21.4082 13.7092 21.4082 12.5273C21.4082 11.3454 21.1754 10.1751 20.7231 9.08319C20.2708 7.99126 19.6079 6.99911 18.7722 6.16338C17.9364 5.32766 16.9443 4.66472 15.8524 4.21243C14.7604 3.76014 13.5901 3.52734 12.4082 3.52734C10.0213 3.52734 7.73207 4.47556 6.04424 6.16338C4.35641 7.85121 3.4082 10.1404 3.4082 12.5273C3.4082 14.9143 4.35641 17.2035 6.04424 18.8913C7.73207 20.5791 10.0213 21.5273 12.4082 21.5273ZM12.4082 23.0273C9.62343 23.0273 6.95271 21.9211 4.98358 19.952C3.01445 17.9828 1.9082 15.3121 1.9082 12.5273C1.9082 9.74257 3.01445 7.07185 4.98358 5.10272C6.95271 3.13359 9.62343 2.02734 12.4082 2.02734C15.193 2.02734 17.8637 3.13359 19.8328 5.10272C21.802 7.07185 22.9082 9.74257 22.9082 12.5273C22.9082 15.3121 21.802 17.9828 19.8328 19.952C17.8637 21.9211 15.193 23.0273 12.4082 23.0273Z" fill="#29329C"/>
</svg>
