<svg width="25" height="24" viewBox="0 0 25 24" fill="none" xmlns="http://www.w3.org/2000/svg">
<path d="M11.4216 15.859C11.3204 15.8615 11.2197 15.8436 11.1256 15.8062C11.0315 15.7688 10.9459 15.7128 10.8741 15.6415L7.31159 12.079C7.17086 11.9382 7.0918 11.7474 7.0918 11.5483C7.0918 11.3493 7.17086 11.1584 7.31159 11.0177C7.45232 10.877 7.64319 10.7979 7.84221 10.7979C8.04124 10.7979 8.23211 10.877 8.37284 11.0177L11.4066 14.0515L17.1103 8.35895C17.18 8.28927 17.2627 8.23399 17.3538 8.19628C17.4448 8.15857 17.5424 8.13916 17.641 8.13916C17.7395 8.13916 17.8371 8.15857 17.9281 8.19628C18.0192 8.23399 18.1019 8.28927 18.1716 8.35895C18.2413 8.42864 18.2965 8.51136 18.3343 8.6024C18.372 8.69345 18.3914 8.79103 18.3914 8.88958C18.3914 8.98812 18.372 9.0857 18.3343 9.17675C18.2965 9.26779 18.2413 9.35052 18.1716 9.4202L11.9503 15.6415C11.8097 15.7809 11.6196 15.8591 11.4216 15.859Z" fill="#FFB300"/>
<path d="M12.7499 22.5C10.6983 22.4969 8.6926 21.8929 6.98048 20.7625C5.26837 19.6322 3.92491 18.025 3.11607 16.1396C2.30724 14.2541 2.06848 12.1731 2.42928 10.1534C2.79007 8.13383 3.73463 6.26414 5.14625 4.77539C6.55787 3.28664 8.3747 2.24404 10.3723 1.77641C12.3699 1.30877 14.4607 1.43659 16.3865 2.14406C18.3122 2.85153 19.9885 4.10767 21.2083 5.75728C22.4281 7.4069 23.1378 9.37771 23.2499 11.4262C23.2612 11.6246 23.1933 11.8194 23.0611 11.9677C22.9289 12.1161 22.7433 12.2059 22.5449 12.2175C22.4461 12.2236 22.3471 12.21 22.2535 12.1776C22.1599 12.1452 22.0737 12.0946 21.9998 12.0287C21.9259 11.9628 21.8658 11.883 21.8229 11.7937C21.78 11.7045 21.7552 11.6076 21.7499 11.5087C21.6482 9.62847 20.9593 7.82748 19.7801 6.35934C18.601 4.89121 16.9911 3.82988 15.1771 3.32482C13.3631 2.81975 11.4363 2.89638 9.66816 3.54391C7.89998 4.19144 6.37944 5.37727 5.32064 6.93441C4.26183 8.49155 3.7181 10.3416 3.766 12.224C3.8139 14.1064 4.45102 15.9264 5.58765 17.4276C6.72428 18.9289 8.30317 20.0359 10.102 20.5926C11.9008 21.1494 13.829 21.1279 15.6149 20.5312C16.7486 20.1539 17.7952 19.5534 18.693 18.7651C19.5909 17.9768 20.3217 17.0166 20.8424 15.9412C20.882 15.8472 20.9403 15.7622 21.0138 15.6915C21.0873 15.6208 21.1744 15.5658 21.2699 15.5299C21.3654 15.494 21.4672 15.4779 21.569 15.4827C21.6709 15.4875 21.7708 15.513 21.8625 15.5577C21.9541 15.6024 22.0358 15.6654 22.1023 15.7427C22.1688 15.82 22.2189 15.9101 22.2494 16.0074C22.28 16.1047 22.2903 16.2072 22.2799 16.3087C22.2694 16.4102 22.2384 16.5084 22.1887 16.5975C21.5827 17.8533 20.7308 18.9747 19.6834 19.8952C18.636 20.8157 17.4145 21.5166 16.0912 21.9562C15.014 22.3161 13.8857 22.4997 12.7499 22.5Z" fill="#0074FF"/>
</svg>
