<svg width="609" height="473" viewBox="0 0 609 473" fill="none" xmlns="http://www.w3.org/2000/svg">
<g clip-path="url(#clip0_3966_8939)">
<path d="M199.203 35.4347C198.915 34.9067 198.519 34.5047 198.015 34.2287C197.511 33.9527 196.923 33.8147 196.251 33.8147C195.507 33.8147 194.847 33.9827 194.271 34.3187C193.695 34.6547 193.245 35.1347 192.921 35.7587C192.597 36.3827 192.435 37.1027 192.435 37.9187C192.435 38.7587 192.597 39.4907 192.921 40.1147C193.257 40.7387 193.719 41.2187 194.307 41.5547C194.895 41.8907 195.579 42.0587 196.359 42.0587C197.319 42.0587 198.105 41.8067 198.717 41.3027C199.329 40.7867 199.731 40.0727 199.923 39.1607H195.603V37.2347H202.407V39.4307C202.239 40.3067 201.879 41.1167 201.327 41.8607C200.775 42.6047 200.061 43.2047 199.185 43.6607C198.321 44.1047 197.349 44.3268 196.269 44.3268C195.057 44.3268 193.959 44.0567 192.975 43.5167C192.003 42.9647 191.235 42.2027 190.671 41.2307C190.119 40.2587 189.843 39.1547 189.843 37.9187C189.843 36.6827 190.119 35.5787 190.671 34.6067C191.235 33.6227 192.003 32.8607 192.975 32.3207C193.959 31.7687 195.051 31.4927 196.251 31.4927C197.667 31.4927 198.897 31.8407 199.941 32.5367C200.985 33.2207 201.705 34.1867 202.101 35.4347H199.203ZM208.699 44.3808C207.739 44.3808 206.875 44.1708 206.107 43.7507C205.339 43.3187 204.733 42.7127 204.289 41.9327C203.857 41.1527 203.641 40.2527 203.641 39.2327C203.641 38.2127 203.863 37.3127 204.307 36.5327C204.763 35.7527 205.381 35.1527 206.161 34.7327C206.941 34.3007 207.811 34.0847 208.771 34.0847C209.731 34.0847 210.601 34.3007 211.381 34.7327C212.161 35.1527 212.773 35.7527 213.217 36.5327C213.673 37.3127 213.901 38.2127 213.901 39.2327C213.901 40.2527 213.667 41.1527 213.199 41.9327C212.743 42.7127 212.119 43.3187 211.327 43.7507C210.547 44.1708 209.671 44.3808 208.699 44.3808ZM208.699 42.1847C209.155 42.1847 209.581 42.0767 209.977 41.8607C210.385 41.6327 210.709 41.2967 210.949 40.8527C211.189 40.4087 211.309 39.8687 211.309 39.2327C211.309 38.2847 211.057 37.5587 210.553 37.0547C210.061 36.5387 209.455 36.2807 208.735 36.2807C208.015 36.2807 207.409 36.5387 206.917 37.0547C206.437 37.5587 206.197 38.2847 206.197 39.2327C206.197 40.1807 206.431 40.9127 206.899 41.4287C207.379 41.9327 207.979 42.1847 208.699 42.1847ZM218.684 36.3167V41.1407C218.684 41.4767 218.762 41.7227 218.918 41.8787C219.086 42.0227 219.362 42.0947 219.746 42.0947H220.916V44.2188H219.332C217.208 44.2188 216.146 43.1867 216.146 41.1227V36.3167H214.958V34.2467H216.146V31.7807H218.684V34.2467H220.916V36.3167H218.684ZM226.369 39.1967C226.369 38.1887 226.567 37.2947 226.963 36.5147C227.371 35.7347 227.917 35.1347 228.601 34.7148C229.297 34.2947 230.071 34.0847 230.923 34.0847C231.667 34.0847 232.315 34.2347 232.867 34.5347C233.431 34.8347 233.881 35.2127 234.217 35.6687V34.2467H236.755V44.2188H234.217V42.7607C233.893 43.2287 233.443 43.6187 232.867 43.9307C232.303 44.2308 231.649 44.3808 230.905 44.3808C230.065 44.3808 229.297 44.1648 228.601 43.7327C227.917 43.3007 227.371 42.6947 226.963 41.9147C226.567 41.1227 226.369 40.2167 226.369 39.1967ZM234.217 39.2327C234.217 38.6207 234.097 38.0987 233.857 37.6667C233.617 37.2227 233.293 36.8867 232.885 36.6587C232.477 36.4187 232.039 36.2987 231.571 36.2987C231.103 36.2987 230.671 36.4127 230.275 36.6407C229.879 36.8687 229.555 37.2047 229.303 37.6487C229.063 38.0807 228.943 38.5967 228.943 39.1967C228.943 39.7967 229.063 40.3247 229.303 40.7807C229.555 41.2247 229.879 41.5667 230.275 41.8067C230.683 42.0467 231.115 42.1667 231.571 42.1667C232.039 42.1667 232.477 42.0527 232.885 41.8247C233.293 41.5847 233.617 41.2487 233.857 40.8167C234.097 40.3727 234.217 39.8447 234.217 39.2327ZM242.858 39.2147C242.858 38.2187 243.062 37.3367 243.47 36.5687C243.89 35.7887 244.454 35.1827 245.162 34.7507C245.87 34.3187 246.65 34.1027 247.502 34.1027C248.21 34.1027 248.834 34.2407 249.374 34.5167C249.926 34.7807 250.37 35.1227 250.706 35.5427V34.2467H253.244V48.9707H250.706V42.8507C250.37 43.2827 249.92 43.6427 249.356 43.9307C248.792 44.2188 248.156 44.3628 247.448 44.3628C246.608 44.3628 245.834 44.1467 245.126 43.7147C244.43 43.2707 243.878 42.6587 243.47 41.8787C243.062 41.0987 242.858 40.2107 242.858 39.2147ZM250.706 39.2327C250.706 38.6207 250.58 38.0927 250.328 37.6487C250.076 37.2047 249.746 36.8687 249.338 36.6407C248.942 36.4127 248.516 36.2987 248.06 36.2987C247.616 36.2987 247.19 36.4127 246.782 36.6407C246.386 36.8687 246.062 37.2047 245.81 37.6487C245.558 38.0807 245.432 38.6027 245.432 39.2147C245.432 39.8267 245.558 40.3607 245.81 40.8167C246.062 41.2607 246.386 41.5967 246.782 41.8247C247.19 42.0527 247.616 42.1667 248.06 42.1667C248.516 42.1667 248.942 42.0527 249.338 41.8247C249.746 41.5967 250.076 41.2607 250.328 40.8167C250.58 40.3727 250.706 39.8447 250.706 39.2327ZM265.119 34.2467V44.2188H262.581V42.9587C262.257 43.3907 261.831 43.7327 261.303 43.9847C260.787 44.2248 260.223 44.3448 259.611 44.3448C258.831 44.3448 258.141 44.1827 257.541 43.8587C256.941 43.5227 256.467 43.0367 256.119 42.4007C255.783 41.7527 255.615 40.9847 255.615 40.0967V34.2467H258.135V39.7367C258.135 40.5287 258.333 41.1407 258.729 41.5728C259.125 41.9927 259.665 42.2027 260.349 42.2027C261.045 42.2027 261.591 41.9927 261.987 41.5728C262.383 41.1407 262.581 40.5287 262.581 39.7367V34.2467H265.119ZM276.875 39.0167C276.875 39.3767 276.851 39.7007 276.803 39.9887H269.513C269.573 40.7087 269.825 41.2727 270.269 41.6807C270.713 42.0887 271.259 42.2927 271.907 42.2927C272.843 42.2927 273.509 41.8907 273.905 41.0867H276.623C276.335 42.0467 275.783 42.8387 274.967 43.4627C274.151 44.0747 273.149 44.3808 271.961 44.3808C271.001 44.3808 270.137 44.1708 269.369 43.7507C268.613 43.3187 268.019 42.7127 267.587 41.9327C267.167 41.1527 266.957 40.2527 266.957 39.2327C266.957 38.2007 267.167 37.2947 267.587 36.5147C268.007 35.7347 268.595 35.1347 269.351 34.7148C270.107 34.2947 270.977 34.0847 271.961 34.0847C272.909 34.0847 273.755 34.2887 274.499 34.6967C275.255 35.1047 275.837 35.6867 276.245 36.4427C276.665 37.1867 276.875 38.0447 276.875 39.0167ZM274.265 38.2967C274.253 37.6487 274.019 37.1327 273.563 36.7487C273.107 36.3527 272.549 36.1547 271.889 36.1547C271.265 36.1547 270.737 36.3467 270.305 36.7307C269.885 37.1027 269.627 37.6247 269.531 38.2967H274.265ZM282.531 44.3808C281.715 44.3808 280.983 44.2368 280.335 43.9487C279.687 43.6487 279.171 43.2467 278.787 42.7427C278.415 42.2387 278.211 41.6807 278.175 41.0687H280.713C280.761 41.4527 280.947 41.7707 281.271 42.0227C281.607 42.2747 282.021 42.4007 282.513 42.4007C282.993 42.4007 283.365 42.3047 283.629 42.1127C283.905 41.9207 284.043 41.6747 284.043 41.3747C284.043 41.0507 283.875 40.8107 283.539 40.6547C283.215 40.4867 282.693 40.3067 281.973 40.1147C281.229 39.9347 280.617 39.7487 280.137 39.5567C279.669 39.3647 279.261 39.0707 278.913 38.6747C278.577 38.2787 278.409 37.7447 278.409 37.0727C278.409 36.5207 278.565 36.0167 278.877 35.5607C279.201 35.1047 279.657 34.7447 280.245 34.4807C280.845 34.2167 281.547 34.0847 282.351 34.0847C283.539 34.0847 284.487 34.3847 285.195 34.9847C285.903 35.5727 286.293 36.3707 286.365 37.3787H283.953C283.917 36.9827 283.749 36.6707 283.449 36.4427C283.161 36.2027 282.771 36.0827 282.279 36.0827C281.823 36.0827 281.469 36.1667 281.217 36.3347C280.977 36.5027 280.857 36.7367 280.857 37.0367C280.857 37.3727 281.025 37.6307 281.361 37.8107C281.697 37.9787 282.219 38.1527 282.927 38.3327C283.647 38.5127 284.241 38.6987 284.709 38.8907C285.177 39.0827 285.579 39.3827 285.915 39.7907C286.263 40.1867 286.443 40.7147 286.455 41.3747C286.455 41.9507 286.293 42.4667 285.969 42.9227C285.657 43.3787 285.201 43.7387 284.601 44.0027C284.013 44.2548 283.323 44.3808 282.531 44.3808ZM291.457 36.3167V41.1407C291.457 41.4767 291.535 41.7227 291.691 41.8787C291.859 42.0227 292.135 42.0947 292.519 42.0947H293.689V44.2188H292.105C289.981 44.2188 288.919 43.1867 288.919 41.1227V36.3167H287.731V34.2467H288.919V31.7807H291.457V34.2467H293.689V36.3167H291.457ZM296.78 33.0587C296.336 33.0587 295.964 32.9207 295.664 32.6447C295.376 32.3567 295.232 32.0027 295.232 31.5827C295.232 31.1627 295.376 30.8147 295.664 30.5387C295.964 30.2507 296.336 30.1067 296.78 30.1067C297.224 30.1067 297.59 30.2507 297.878 30.5387C298.178 30.8147 298.328 31.1627 298.328 31.5827C298.328 32.0027 298.178 32.3567 297.878 32.6447C297.59 32.9207 297.224 33.0587 296.78 33.0587ZM298.022 34.2467V44.2188H295.502V34.2467H298.022ZM304.94 44.3808C303.98 44.3808 303.116 44.1708 302.348 43.7507C301.58 43.3187 300.974 42.7127 300.53 41.9327C300.098 41.1527 299.882 40.2527 299.882 39.2327C299.882 38.2127 300.104 37.3127 300.548 36.5327C301.004 35.7527 301.622 35.1527 302.402 34.7327C303.182 34.3007 304.052 34.0847 305.012 34.0847C305.972 34.0847 306.842 34.3007 307.622 34.7327C308.402 35.1527 309.014 35.7527 309.458 36.5327C309.914 37.3127 310.142 38.2127 310.142 39.2327C310.142 40.2527 309.908 41.1527 309.44 41.9327C308.984 42.7127 308.36 43.3187 307.568 43.7507C306.788 44.1708 305.912 44.3808 304.94 44.3808ZM304.94 42.1847C305.396 42.1847 305.822 42.0767 306.218 41.8607C306.626 41.6327 306.95 41.2967 307.19 40.8527C307.43 40.4087 307.55 39.8687 307.55 39.2327C307.55 38.2847 307.298 37.5587 306.794 37.0547C306.302 36.5387 305.696 36.2807 304.976 36.2807C304.256 36.2807 303.65 36.5387 303.158 37.0547C302.678 37.5587 302.438 38.2847 302.438 39.2327C302.438 40.1807 302.672 40.9127 303.14 41.4287C303.62 41.9327 304.22 42.1847 304.94 42.1847ZM317.516 34.1027C318.704 34.1027 319.664 34.4807 320.396 35.2367C321.128 35.9807 321.494 37.0247 321.494 38.3687V44.2188H318.974V38.7107C318.974 37.9187 318.776 37.3127 318.38 36.8927C317.984 36.4607 317.444 36.2447 316.76 36.2447C316.064 36.2447 315.512 36.4607 315.104 36.8927C314.708 37.3127 314.51 37.9187 314.51 38.7107V44.2188H311.99V34.2467H314.51V35.4887C314.846 35.0567 315.272 34.7207 315.788 34.4807C316.316 34.2287 316.892 34.1027 317.516 34.1027ZM327.4 31.2227C328.648 31.2227 329.65 31.5647 330.406 32.2487C331.174 32.9207 331.558 33.8507 331.558 35.0387C331.558 36.2147 331.18 37.1147 330.424 37.7387C329.668 38.3507 328.666 38.6567 327.418 38.6567L327.346 40.0427H325.132L325.042 36.9827H325.852C326.896 36.9827 327.7 36.8447 328.264 36.5687C328.828 36.2927 329.11 35.7887 329.11 35.0567C329.11 34.5287 328.954 34.1087 328.642 33.7967C328.342 33.4847 327.928 33.3287 327.4 33.3287C326.848 33.3287 326.416 33.4787 326.104 33.7787C325.804 34.0787 325.654 34.4927 325.654 35.0207H323.278C323.266 34.2887 323.422 33.6347 323.746 33.0587C324.07 32.4827 324.544 32.0327 325.168 31.7087C325.804 31.3847 326.548 31.2227 327.4 31.2227ZM326.23 44.3448C325.774 44.3448 325.396 44.2067 325.096 43.9307C324.808 43.6427 324.664 43.2887 324.664 42.8687C324.664 42.4487 324.808 42.1007 325.096 41.8247C325.396 41.5367 325.774 41.3927 326.23 41.3927C326.674 41.3927 327.04 41.5367 327.328 41.8247C327.616 42.1007 327.76 42.4487 327.76 42.8687C327.76 43.2887 327.616 43.6427 327.328 43.9307C327.04 44.2067 326.674 44.3448 326.23 44.3448ZM354.659 31.6547L351.149 44.2188H348.179L345.821 35.2727L343.355 44.2188L340.403 44.2368L337.019 31.6547H339.719L341.933 41.4107L344.489 31.6547H347.297L349.709 41.3567L351.941 31.6547H354.659ZM365.575 39.0167C365.575 39.3767 365.551 39.7007 365.503 39.9887H358.213C358.273 40.7087 358.525 41.2727 358.969 41.6807C359.413 42.0887 359.959 42.2927 360.607 42.2927C361.543 42.2927 362.209 41.8907 362.605 41.0867H365.323C365.035 42.0467 364.483 42.8387 363.667 43.4627C362.851 44.0747 361.849 44.3808 360.661 44.3808C359.701 44.3808 358.837 44.1708 358.069 43.7507C357.313 43.3187 356.719 42.7127 356.287 41.9327C355.867 41.1527 355.656 40.2527 355.656 39.2327C355.656 38.2007 355.867 37.2947 356.287 36.5147C356.707 35.7347 357.295 35.1347 358.051 34.7148C358.807 34.2947 359.677 34.0847 360.661 34.0847C361.609 34.0847 362.455 34.2887 363.199 34.6967C363.955 35.1047 364.537 35.6867 364.945 36.4427C365.365 37.1867 365.575 38.0447 365.575 39.0167ZM362.965 38.2967C362.953 37.6487 362.719 37.1327 362.263 36.7487C361.807 36.3527 361.249 36.1547 360.589 36.1547C359.965 36.1547 359.437 36.3467 359.005 36.7307C358.585 37.1027 358.327 37.6247 358.231 38.2967H362.965ZM377.319 34.1027C378.075 34.1027 378.747 34.2707 379.335 34.6067C379.923 34.9307 380.379 35.4167 380.703 36.0647C381.039 36.7007 381.207 37.4687 381.207 38.3687V44.2188H378.687V38.7107C378.687 37.9187 378.489 37.3127 378.093 36.8927C377.697 36.4607 377.157 36.2447 376.473 36.2447C375.777 36.2447 375.225 36.4607 374.817 36.8927C374.421 37.3127 374.223 37.9187 374.223 38.7107V44.2188H371.703V30.8987H374.223V35.4887C374.547 35.0567 374.979 34.7207 375.519 34.4807C376.059 34.2287 376.659 34.1027 377.319 34.1027ZM382.955 39.1967C382.955 38.1887 383.153 37.2947 383.549 36.5147C383.957 35.7347 384.503 35.1347 385.187 34.7148C385.883 34.2947 386.657 34.0847 387.509 34.0847C388.253 34.0847 388.901 34.2347 389.453 34.5347C390.017 34.8347 390.467 35.2127 390.803 35.6687V34.2467H393.341V44.2188H390.803V42.7607C390.479 43.2287 390.029 43.6187 389.453 43.9307C388.889 44.2308 388.235 44.3808 387.491 44.3808C386.651 44.3808 385.883 44.1648 385.187 43.7327C384.503 43.3007 383.957 42.6947 383.549 41.9147C383.153 41.1227 382.955 40.2167 382.955 39.1967ZM390.803 39.2327C390.803 38.6207 390.683 38.0987 390.443 37.6667C390.203 37.2227 389.879 36.8867 389.471 36.6587C389.063 36.4187 388.625 36.2987 388.157 36.2987C387.689 36.2987 387.257 36.4127 386.861 36.6407C386.465 36.8687 386.141 37.2047 385.889 37.6487C385.649 38.0807 385.529 38.5967 385.529 39.1967C385.529 39.7967 385.649 40.3247 385.889 40.7807C386.141 41.2247 386.465 41.5667 386.861 41.8067C387.269 42.0467 387.701 42.1667 388.157 42.1667C388.625 42.1667 389.063 42.0527 389.471 41.8247C389.879 41.5847 390.203 41.2487 390.443 40.8167C390.683 40.3727 390.803 39.8447 390.803 39.2327ZM399.961 41.8967L402.481 34.2467H405.163L401.473 44.2188H398.413L394.741 34.2467H397.441L399.961 41.8967ZM415.848 39.0167C415.848 39.3767 415.824 39.7007 415.776 39.9887H408.486C408.546 40.7087 408.798 41.2727 409.242 41.6807C409.686 42.0887 410.232 42.2927 410.88 42.2927C411.816 42.2927 412.482 41.8907 412.878 41.0867H415.596C415.308 42.0467 414.756 42.8387 413.94 43.4627C413.124 44.0747 412.122 44.3808 410.934 44.3808C409.974 44.3808 409.11 44.1708 408.342 43.7507C407.586 43.3187 406.992 42.7127 406.56 41.9327C406.14 41.1527 405.93 40.2527 405.93 39.2327C405.93 38.2007 406.14 37.2947 406.56 36.5147C406.98 35.7347 407.568 35.1347 408.324 34.7148C409.08 34.2947 409.95 34.0847 410.934 34.0847C411.882 34.0847 412.728 34.2887 413.472 34.6967C414.228 35.1047 414.81 35.6867 415.218 36.4427C415.638 37.1867 415.848 38.0447 415.848 39.0167ZM413.238 38.2967C413.226 37.6487 412.992 37.1327 412.536 36.7487C412.08 36.3527 411.522 36.1547 410.862 36.1547C410.238 36.1547 409.71 36.3467 409.278 36.7307C408.858 37.1027 408.6 37.6247 408.504 38.2967H413.238ZM424.91 36.3167V41.1407C424.91 41.4767 424.988 41.7227 425.144 41.8787C425.312 42.0227 425.588 42.0947 425.972 42.0947H427.142V44.2188H425.558C423.434 44.2188 422.372 43.1867 422.372 41.1227V36.3167H421.184V34.2467H422.372V31.7807H424.91V34.2467H427.142V36.3167H424.91ZM434.571 34.1027C435.327 34.1027 435.999 34.2707 436.587 34.6067C437.175 34.9307 437.631 35.4167 437.955 36.0647C438.291 36.7007 438.459 37.4687 438.459 38.3687V44.2188H435.939V38.7107C435.939 37.9187 435.741 37.3127 435.345 36.8927C434.949 36.4607 434.409 36.2447 433.725 36.2447C433.029 36.2447 432.477 36.4607 432.069 36.8927C431.673 37.3127 431.475 37.9187 431.475 38.7107V44.2188H428.955V30.8987H431.475V35.4887C431.799 35.0567 432.231 34.7207 432.771 34.4807C433.311 34.2287 433.911 34.1027 434.571 34.1027ZM450.125 39.0167C450.125 39.3767 450.101 39.7007 450.053 39.9887H442.763C442.823 40.7087 443.075 41.2727 443.519 41.6807C443.963 42.0887 444.509 42.2927 445.157 42.2927C446.093 42.2927 446.759 41.8907 447.155 41.0867H449.873C449.585 42.0467 449.033 42.8387 448.217 43.4627C447.401 44.0747 446.399 44.3808 445.211 44.3808C444.251 44.3808 443.387 44.1708 442.619 43.7507C441.863 43.3187 441.269 42.7127 440.837 41.9327C440.417 41.1527 440.207 40.2527 440.207 39.2327C440.207 38.2007 440.417 37.2947 440.837 36.5147C441.257 35.7347 441.845 35.1347 442.601 34.7148C443.357 34.2947 444.227 34.0847 445.211 34.0847C446.159 34.0847 447.005 34.2887 447.749 34.6967C448.505 35.1047 449.087 35.6867 449.495 36.4427C449.915 37.1867 450.125 38.0447 450.125 39.0167ZM447.515 38.2967C447.503 37.6487 447.269 37.1327 446.813 36.7487C446.357 36.3527 445.799 36.1547 445.139 36.1547C444.515 36.1547 443.987 36.3467 443.555 36.7307C443.135 37.1027 442.877 37.6247 442.781 38.2967H447.515ZM463.958 41.8247H458.954L458.126 44.2188H455.48L459.998 31.6367H462.932L467.45 44.2188H464.786L463.958 41.8247ZM463.274 39.8087L461.456 34.5527L459.638 39.8087H463.274ZM474.664 34.1027C475.852 34.1027 476.812 34.4807 477.544 35.2367C478.276 35.9807 478.642 37.0247 478.642 38.3687V44.2188H476.122V38.7107C476.122 37.9187 475.924 37.3127 475.528 36.8927C475.132 36.4607 474.592 36.2447 473.908 36.2447C473.212 36.2447 472.66 36.4607 472.252 36.8927C471.856 37.3127 471.658 37.9187 471.658 38.7107V44.2188H469.138V34.2467H471.658V35.4887C471.994 35.0567 472.42 34.7207 472.936 34.4807C473.464 34.2287 474.04 34.1027 474.664 34.1027ZM484.855 44.3808C484.039 44.3808 483.307 44.2368 482.659 43.9487C482.011 43.6487 481.495 43.2467 481.111 42.7427C480.739 42.2387 480.535 41.6807 480.499 41.0687H483.037C483.085 41.4527 483.271 41.7707 483.595 42.0227C483.931 42.2747 484.345 42.4007 484.837 42.4007C485.317 42.4007 485.689 42.3047 485.953 42.1127C486.229 41.9207 486.367 41.6747 486.367 41.3747C486.367 41.0507 486.199 40.8107 485.863 40.6547C485.539 40.4867 485.017 40.3067 484.297 40.1147C483.553 39.9347 482.941 39.7487 482.461 39.5567C481.993 39.3647 481.585 39.0707 481.237 38.6747C480.901 38.2787 480.733 37.7447 480.733 37.0727C480.733 36.5207 480.889 36.0167 481.201 35.5607C481.525 35.1047 481.981 34.7447 482.569 34.4807C483.169 34.2167 483.871 34.0847 484.675 34.0847C485.863 34.0847 486.811 34.3847 487.519 34.9847C488.227 35.5727 488.617 36.3707 488.689 37.3787H486.277C486.241 36.9827 486.073 36.6707 485.773 36.4427C485.485 36.2027 485.095 36.0827 484.603 36.0827C484.147 36.0827 483.793 36.1667 483.541 36.3347C483.301 36.5027 483.181 36.7367 483.181 37.0367C483.181 37.3727 483.349 37.6307 483.685 37.8107C484.021 37.9787 484.543 38.1527 485.251 38.3327C485.971 38.5127 486.565 38.6987 487.033 38.8907C487.501 39.0827 487.903 39.3827 488.239 39.7907C488.587 40.1867 488.767 40.7147 488.779 41.3747C488.779 41.9507 488.617 42.4667 488.293 42.9227C487.981 43.3787 487.525 43.7387 486.925 44.0027C486.337 44.2548 485.647 44.3808 484.855 44.3808ZM504.671 34.2467L501.755 44.2188H499.037L497.219 37.2527L495.401 44.2188H492.665L489.731 34.2467H492.287L494.051 41.8428L495.959 34.2467H498.623L500.495 41.8247L502.259 34.2467H504.671ZM515.305 39.0167C515.305 39.3767 515.281 39.7007 515.233 39.9887H507.943C508.003 40.7087 508.255 41.2727 508.699 41.6807C509.143 42.0887 509.689 42.2927 510.337 42.2927C511.273 42.2927 511.939 41.8907 512.335 41.0867H515.053C514.765 42.0467 514.213 42.8387 513.397 43.4627C512.581 44.0747 511.579 44.3808 510.391 44.3808C509.431 44.3808 508.567 44.1708 507.799 43.7507C507.043 43.3187 506.449 42.7127 506.017 41.9327C505.597 41.1527 505.387 40.2527 505.387 39.2327C505.387 38.2007 505.597 37.2947 506.017 36.5147C506.437 35.7347 507.025 35.1347 507.781 34.7148C508.537 34.2947 509.407 34.0847 510.391 34.0847C511.339 34.0847 512.185 34.2887 512.929 34.6967C513.685 35.1047 514.267 35.6867 514.675 36.4427C515.095 37.1867 515.305 38.0447 515.305 39.0167ZM512.695 38.2967C512.683 37.6487 512.449 37.1327 511.993 36.7487C511.537 36.3527 510.979 36.1547 510.319 36.1547C509.695 36.1547 509.167 36.3467 508.735 36.7307C508.315 37.1027 508.057 37.6247 507.961 38.2967H512.695ZM519.664 35.7947C519.988 35.2667 520.408 34.8527 520.924 34.5527C521.452 34.2527 522.052 34.1027 522.724 34.1027V36.7487H522.058C521.266 36.7487 520.666 36.9347 520.258 37.3067C519.862 37.6787 519.664 38.3267 519.664 39.2507V44.2188H517.144V34.2467H519.664V35.7947ZM525.538 44.3448C525.082 44.3448 524.704 44.2067 524.404 43.9307C524.116 43.6427 523.972 43.2887 523.972 42.8687C523.972 42.4487 524.116 42.1007 524.404 41.8247C524.704 41.5367 525.082 41.3927 525.538 41.3927C525.982 41.3927 526.348 41.5367 526.636 41.8247C526.924 42.1007 527.068 42.4487 527.068 42.8687C527.068 43.2887 526.924 43.6427 526.636 43.9307C526.348 44.2067 525.982 44.3448 525.538 44.3448Z" fill="#4A4A68"/>
<g filter="url(#filter0_d_3966_8939)">
<g clip-path="url(#clip1_3966_8939)">
<rect x="163.713" y="63" width="392" height="327" rx="16" fill="white"/>
<path d="M163.713 79C163.713 70.1634 170.876 63 179.713 63H539.713C548.549 63 555.713 70.1634 555.713 79V108H163.713V79Z" fill="#4A4A68"/>
<path d="M195.195 85.7577C195.6 85.8217 195.968 85.987 196.299 86.2537C196.64 86.5204 196.907 86.851 197.099 87.2457C197.302 87.6404 197.403 88.0617 197.403 88.5097C197.403 89.075 197.259 89.587 196.971 90.0457C196.683 90.4937 196.262 90.851 195.707 91.1177C195.163 91.3737 194.518 91.5017 193.771 91.5017H189.611V80.3497H193.611C194.368 80.3497 195.014 80.4777 195.547 80.7337C196.08 80.979 196.48 81.315 196.747 81.7417C197.014 82.1684 197.147 82.6484 197.147 83.1817C197.147 83.843 196.966 84.3924 196.603 84.8297C196.251 85.2564 195.782 85.5657 195.195 85.7577ZM191.067 85.1657H193.515C194.198 85.1657 194.726 85.0057 195.099 84.6857C195.472 84.3657 195.659 83.923 195.659 83.3577C195.659 82.7924 195.472 82.3497 195.099 82.0297C194.726 81.7097 194.187 81.5497 193.483 81.5497H191.067V85.1657ZM193.643 90.3017C194.368 90.3017 194.934 90.131 195.339 89.7897C195.744 89.4484 195.947 88.9737 195.947 88.3657C195.947 87.747 195.734 87.2617 195.307 86.9097C194.88 86.547 194.31 86.3657 193.595 86.3657H191.067V90.3017H193.643Z" fill="white"/>
<path d="M238.875 91.0625H229.125C229.056 91.0625 229 91.1156 229 91.1812V92.1313C229 92.1969 229.056 92.25 229.125 92.25H238.875C238.944 92.25 239 92.1969 239 92.1313V91.1812C239 91.1156 238.944 91.0625 238.875 91.0625ZM234 89.875C235.084 89.875 236.103 89.4516 236.872 88.6844C237.641 87.9172 238.062 86.8969 238.062 85.8125V80.9375C238.062 80.8344 237.978 80.75 237.875 80.75H236.938C236.834 80.75 236.75 80.8344 236.75 80.9375V85.8125C236.75 87.3281 235.516 88.5625 234 88.5625C232.484 88.5625 231.25 87.3281 231.25 85.8125V80.9375C231.25 80.8344 231.166 80.75 231.062 80.75H230.125C230.022 80.75 229.938 80.8344 229.938 80.9375V85.8125C229.938 86.8969 230.361 87.9156 231.128 88.6844C231.895 89.4531 232.916 89.875 234 89.875Z" fill="white"/>
<rect x="177.713" y="289.5" width="364" height="89" rx="7.5" fill="white"/>
<path d="M370.38 335H349.047V307H363.714L370.38 313.667V335Z" fill="#90CAF9"/>
<path d="M369.38 314.333H363.047V308L369.38 314.333Z" fill="#E1F5FE"/>
<path d="M357.714 320.333L353.047 327H362.38L357.714 320.333Z" fill="#1565C0"/>
<path d="M362.38 322.6L359.047 327H365.714L362.38 322.6Z" fill="#1976D2"/>
<path d="M364.713 322.333C365.265 322.333 365.713 321.886 365.713 321.333C365.713 320.781 365.265 320.333 364.713 320.333C364.161 320.333 363.713 320.781 363.713 321.333C363.713 321.886 364.161 322.333 364.713 322.333Z" fill="#1976D2"/>
<path d="M256.837 349.64C257.725 349.64 258.501 349.812 259.165 350.156C259.837 350.492 260.353 350.98 260.713 351.62C261.081 352.252 261.265 352.992 261.265 353.84C261.265 354.688 261.081 355.424 260.713 356.048C260.353 356.672 259.837 357.152 259.165 357.488C258.501 357.816 257.725 357.98 256.837 357.98H254.113V349.64H256.837ZM256.837 356.864C257.813 356.864 258.561 356.6 259.081 356.072C259.601 355.544 259.861 354.8 259.861 353.84C259.861 352.872 259.601 352.116 259.081 351.572C258.561 351.028 257.813 350.756 256.837 350.756H255.481V356.864H256.837ZM263.989 352.328C264.189 351.992 264.453 351.732 264.781 351.548C265.117 351.356 265.513 351.26 265.969 351.26V352.676H265.621C265.085 352.676 264.677 352.812 264.397 353.084C264.125 353.356 263.989 353.828 263.989 354.5V357.98H262.621V351.368H263.989V352.328ZM270.094 358.088C269.47 358.088 268.906 357.948 268.402 357.668C267.898 357.38 267.502 356.98 267.214 356.468C266.926 355.948 266.782 355.348 266.782 354.668C266.782 353.996 266.93 353.4 267.226 352.88C267.522 352.36 267.926 351.96 268.438 351.68C268.95 351.4 269.522 351.26 270.154 351.26C270.786 351.26 271.358 351.4 271.87 351.68C272.382 351.96 272.786 352.36 273.082 352.88C273.378 353.4 273.526 353.996 273.526 354.668C273.526 355.34 273.374 355.936 273.07 356.456C272.766 356.976 272.35 357.38 271.822 357.668C271.302 357.948 270.726 358.088 270.094 358.088ZM270.094 356.9C270.446 356.9 270.774 356.816 271.078 356.648C271.39 356.48 271.642 356.228 271.834 355.892C272.026 355.556 272.122 355.148 272.122 354.668C272.122 354.188 272.03 353.784 271.846 353.456C271.662 353.12 271.418 352.868 271.114 352.7C270.81 352.532 270.482 352.448 270.13 352.448C269.778 352.448 269.45 352.532 269.146 352.7C268.85 352.868 268.614 353.12 268.438 353.456C268.262 353.784 268.174 354.188 268.174 354.668C268.174 355.38 268.354 355.932 268.714 356.324C269.082 356.708 269.542 356.9 270.094 356.9ZM276.247 352.34C276.479 352.036 276.795 351.78 277.195 351.572C277.595 351.364 278.047 351.26 278.551 351.26C279.127 351.26 279.651 351.404 280.123 351.692C280.603 351.972 280.979 352.368 281.251 352.88C281.523 353.392 281.659 353.98 281.659 354.644C281.659 355.308 281.523 355.904 281.251 356.432C280.979 356.952 280.603 357.36 280.123 357.656C279.651 357.944 279.127 358.088 278.551 358.088C278.047 358.088 277.599 357.988 277.207 357.788C276.815 357.58 276.495 357.324 276.247 357.02V361.124H274.879V351.368H276.247V352.34ZM280.267 354.644C280.267 354.188 280.171 353.796 279.979 353.468C279.795 353.132 279.547 352.88 279.235 352.712C278.931 352.536 278.603 352.448 278.251 352.448C277.907 352.448 277.579 352.536 277.267 352.712C276.963 352.888 276.715 353.144 276.523 353.48C276.339 353.816 276.247 354.212 276.247 354.668C276.247 355.124 276.339 355.524 276.523 355.868C276.715 356.204 276.963 356.46 277.267 356.636C277.579 356.812 277.907 356.9 278.251 356.9C278.603 356.9 278.931 356.812 279.235 356.636C279.547 356.452 279.795 356.188 279.979 355.844C280.171 355.5 280.267 355.1 280.267 354.644ZM292.081 351.368L288.025 361.088H286.609L287.953 357.872L285.349 351.368H286.873L288.733 356.408L290.665 351.368H292.081ZM295.981 358.088C295.357 358.088 294.793 357.948 294.289 357.668C293.785 357.38 293.389 356.98 293.101 356.468C292.813 355.948 292.669 355.348 292.669 354.668C292.669 353.996 292.817 353.4 293.113 352.88C293.409 352.36 293.813 351.96 294.325 351.68C294.837 351.4 295.409 351.26 296.041 351.26C296.673 351.26 297.245 351.4 297.757 351.68C298.269 351.96 298.673 352.36 298.969 352.88C299.265 353.4 299.413 353.996 299.413 354.668C299.413 355.34 299.261 355.936 298.957 356.456C298.653 356.976 298.237 357.38 297.709 357.668C297.189 357.948 296.613 358.088 295.981 358.088ZM295.981 356.9C296.333 356.9 296.661 356.816 296.965 356.648C297.277 356.48 297.529 356.228 297.721 355.892C297.913 355.556 298.009 355.148 298.009 354.668C298.009 354.188 297.917 353.784 297.733 353.456C297.549 353.12 297.305 352.868 297.001 352.7C296.697 352.532 296.369 352.448 296.017 352.448C295.665 352.448 295.337 352.532 295.033 352.7C294.737 352.868 294.501 353.12 294.325 353.456C294.149 353.784 294.061 354.188 294.061 354.668C294.061 355.38 294.241 355.932 294.601 356.324C294.969 356.708 295.429 356.9 295.981 356.9ZM306.753 351.368V357.98H305.385V357.2C305.169 357.472 304.885 357.688 304.533 357.848C304.189 358 303.821 358.076 303.429 358.076C302.909 358.076 302.441 357.968 302.025 357.752C301.617 357.536 301.293 357.216 301.053 356.792C300.821 356.368 300.705 355.856 300.705 355.256V351.368H302.061V355.052C302.061 355.644 302.209 356.1 302.505 356.42C302.801 356.732 303.205 356.888 303.717 356.888C304.229 356.888 304.633 356.732 304.929 356.42C305.233 356.1 305.385 355.644 305.385 355.052V351.368H306.753ZM309.926 352.328C310.126 351.992 310.39 351.732 310.718 351.548C311.054 351.356 311.45 351.26 311.906 351.26V352.676H311.558C311.022 352.676 310.614 352.812 310.334 353.084C310.062 353.356 309.926 353.828 309.926 354.5V357.98H308.558V351.368H309.926V352.328ZM319.053 352.484H317.829V357.98H316.449V352.484H315.669V351.368H316.449V350.9C316.449 350.14 316.649 349.588 317.049 349.244C317.457 348.892 318.093 348.716 318.957 348.716V349.856C318.541 349.856 318.249 349.936 318.081 350.096C317.913 350.248 317.829 350.516 317.829 350.9V351.368H319.053V352.484ZM320.961 350.492C320.713 350.492 320.505 350.408 320.337 350.24C320.169 350.072 320.085 349.864 320.085 349.616C320.085 349.368 320.169 349.16 320.337 348.992C320.505 348.824 320.713 348.74 320.961 348.74C321.201 348.74 321.405 348.824 321.573 348.992C321.741 349.16 321.825 349.368 321.825 349.616C321.825 349.864 321.741 350.072 321.573 350.24C321.405 350.408 321.201 350.492 320.961 350.492ZM321.633 351.368V357.98H320.265V351.368H321.633ZM324.797 349.1V357.98H323.429V349.1H324.797ZM332.653 354.512C332.653 354.76 332.637 354.984 332.605 355.184H327.553C327.593 355.712 327.789 356.136 328.141 356.456C328.493 356.776 328.925 356.936 329.437 356.936C330.173 356.936 330.693 356.628 330.997 356.012H332.473C332.273 356.62 331.909 357.12 331.381 357.512C330.861 357.896 330.213 358.088 329.437 358.088C328.805 358.088 328.237 357.948 327.733 357.668C327.237 357.38 326.845 356.98 326.557 356.468C326.277 355.948 326.137 355.348 326.137 354.668C326.137 353.988 326.273 353.392 326.545 352.88C326.825 352.36 327.213 351.96 327.709 351.68C328.213 351.4 328.789 351.26 329.437 351.26C330.061 351.26 330.617 351.396 331.105 351.668C331.593 351.94 331.973 352.324 332.245 352.82C332.517 353.308 332.653 353.872 332.653 354.512ZM331.225 354.08C331.217 353.576 331.037 353.172 330.685 352.868C330.333 352.564 329.897 352.412 329.377 352.412C328.905 352.412 328.501 352.564 328.165 352.868C327.829 353.164 327.629 353.568 327.565 354.08H331.225ZM339.985 358.088C339.361 358.088 338.797 357.948 338.293 357.668C337.789 357.38 337.393 356.98 337.105 356.468C336.817 355.948 336.673 355.348 336.673 354.668C336.673 353.996 336.821 353.4 337.117 352.88C337.413 352.36 337.817 351.96 338.329 351.68C338.841 351.4 339.413 351.26 340.045 351.26C340.677 351.26 341.249 351.4 341.761 351.68C342.273 351.96 342.677 352.36 342.973 352.88C343.269 353.4 343.417 353.996 343.417 354.668C343.417 355.34 343.265 355.936 342.961 356.456C342.657 356.976 342.241 357.38 341.713 357.668C341.193 357.948 340.617 358.088 339.985 358.088ZM339.985 356.9C340.337 356.9 340.665 356.816 340.969 356.648C341.281 356.48 341.533 356.228 341.725 355.892C341.917 355.556 342.013 355.148 342.013 354.668C342.013 354.188 341.921 353.784 341.737 353.456C341.553 353.12 341.309 352.868 341.005 352.7C340.701 352.532 340.373 352.448 340.021 352.448C339.669 352.448 339.341 352.532 339.037 352.7C338.741 352.868 338.505 353.12 338.329 353.456C338.153 353.784 338.065 354.188 338.065 354.668C338.065 355.38 338.245 355.932 338.605 356.324C338.973 356.708 339.433 356.9 339.985 356.9ZM346.137 352.328C346.337 351.992 346.601 351.732 346.929 351.548C347.265 351.356 347.661 351.26 348.117 351.26V352.676H347.769C347.233 352.676 346.825 352.812 346.545 353.084C346.273 353.356 346.137 353.828 346.137 354.5V357.98H344.769V351.368H346.137V352.328ZM353.86 352.352C354.092 352.032 354.408 351.772 354.808 351.572C355.216 351.364 355.668 351.26 356.164 351.26C356.748 351.26 357.276 351.4 357.748 351.68C358.22 351.96 358.592 352.36 358.864 352.88C359.136 353.392 359.272 353.98 359.272 354.644C359.272 355.308 359.136 355.904 358.864 356.432C358.592 356.952 358.216 357.36 357.736 357.656C357.264 357.944 356.74 358.088 356.164 358.088C355.652 358.088 355.196 357.988 354.796 357.788C354.404 357.588 354.092 357.332 353.86 357.02V357.98H352.492V349.1H353.86V352.352ZM357.88 354.644C357.88 354.188 357.784 353.796 357.592 353.468C357.408 353.132 357.16 352.88 356.848 352.712C356.544 352.536 356.216 352.448 355.864 352.448C355.52 352.448 355.192 352.536 354.88 352.712C354.576 352.888 354.328 353.144 354.136 353.48C353.952 353.816 353.86 354.212 353.86 354.668C353.86 355.124 353.952 355.524 354.136 355.868C354.328 356.204 354.576 356.46 354.88 356.636C355.192 356.812 355.52 356.9 355.864 356.9C356.216 356.9 356.544 356.812 356.848 356.636C357.16 356.452 357.408 356.188 357.592 355.844C357.784 355.5 357.88 355.1 357.88 354.644ZM361.993 352.328C362.193 351.992 362.457 351.732 362.785 351.548C363.121 351.356 363.517 351.26 363.973 351.26V352.676H363.625C363.089 352.676 362.681 352.812 362.401 353.084C362.129 353.356 361.993 353.828 361.993 354.5V357.98H360.625V351.368H361.993V352.328ZM368.098 358.088C367.474 358.088 366.91 357.948 366.406 357.668C365.902 357.38 365.506 356.98 365.218 356.468C364.93 355.948 364.786 355.348 364.786 354.668C364.786 353.996 364.934 353.4 365.23 352.88C365.526 352.36 365.93 351.96 366.442 351.68C366.954 351.4 367.526 351.26 368.158 351.26C368.79 351.26 369.362 351.4 369.874 351.68C370.386 351.96 370.79 352.36 371.086 352.88C371.382 353.4 371.53 353.996 371.53 354.668C371.53 355.34 371.378 355.936 371.074 356.456C370.77 356.976 370.354 357.38 369.826 357.668C369.306 357.948 368.73 358.088 368.098 358.088ZM368.098 356.9C368.45 356.9 368.778 356.816 369.082 356.648C369.394 356.48 369.646 356.228 369.838 355.892C370.03 355.556 370.126 355.148 370.126 354.668C370.126 354.188 370.034 353.784 369.85 353.456C369.666 353.12 369.422 352.868 369.118 352.7C368.814 352.532 368.486 352.448 368.134 352.448C367.782 352.448 367.454 352.532 367.15 352.7C366.854 352.868 366.618 353.12 366.442 353.456C366.266 353.784 366.178 354.188 366.178 354.668C366.178 355.38 366.358 355.932 366.718 356.324C367.086 356.708 367.546 356.9 368.098 356.9ZM381.762 351.368L379.71 357.98H378.27L376.938 353.096L375.606 357.98H374.166L372.102 351.368H373.494L374.874 356.684L376.278 351.368H377.706L379.05 356.66L380.418 351.368H381.762ZM385.185 358.088C384.665 358.088 384.197 357.996 383.781 357.812C383.373 357.62 383.049 357.364 382.809 357.044C382.569 356.716 382.441 356.352 382.425 355.952H383.841C383.865 356.232 383.997 356.468 384.237 356.66C384.485 356.844 384.793 356.936 385.161 356.936C385.545 356.936 385.841 356.864 386.049 356.72C386.265 356.568 386.373 356.376 386.373 356.144C386.373 355.896 386.253 355.712 386.013 355.592C385.781 355.472 385.409 355.34 384.897 355.196C384.401 355.06 383.997 354.928 383.685 354.8C383.373 354.672 383.101 354.476 382.869 354.212C382.645 353.948 382.533 353.6 382.533 353.168C382.533 352.816 382.637 352.496 382.845 352.208C383.053 351.912 383.349 351.68 383.733 351.512C384.125 351.344 384.573 351.26 385.077 351.26C385.829 351.26 386.433 351.452 386.889 351.836C387.353 352.212 387.601 352.728 387.633 353.384H386.265C386.241 353.088 386.121 352.852 385.905 352.676C385.689 352.5 385.397 352.412 385.029 352.412C384.669 352.412 384.393 352.48 384.201 352.616C384.009 352.752 383.913 352.932 383.913 353.156C383.913 353.332 383.977 353.48 384.105 353.6C384.233 353.72 384.389 353.816 384.573 353.888C384.757 353.952 385.029 354.036 385.389 354.14C385.869 354.268 386.261 354.4 386.565 354.536C386.877 354.664 387.145 354.856 387.369 355.112C387.593 355.368 387.709 355.708 387.717 356.132C387.717 356.508 387.613 356.844 387.405 357.14C387.197 357.436 386.901 357.668 386.517 357.836C386.141 358.004 385.697 358.088 385.185 358.088ZM395.255 354.512C395.255 354.76 395.239 354.984 395.207 355.184H390.155C390.195 355.712 390.391 356.136 390.743 356.456C391.095 356.776 391.527 356.936 392.039 356.936C392.775 356.936 393.295 356.628 393.599 356.012H395.075C394.875 356.62 394.511 357.12 393.983 357.512C393.463 357.896 392.815 358.088 392.039 358.088C391.407 358.088 390.839 357.948 390.335 357.668C389.839 357.38 389.447 356.98 389.159 356.468C388.879 355.948 388.739 355.348 388.739 354.668C388.739 353.988 388.875 353.392 389.147 352.88C389.427 352.36 389.815 351.96 390.311 351.68C390.815 351.4 391.391 351.26 392.039 351.26C392.663 351.26 393.219 351.396 393.707 351.668C394.195 351.94 394.575 352.324 394.847 352.82C395.119 353.308 395.255 353.872 395.255 354.512ZM393.827 354.08C393.819 353.576 393.639 353.172 393.287 352.868C392.935 352.564 392.499 352.412 391.979 352.412C391.507 352.412 391.103 352.564 390.767 352.868C390.431 353.164 390.231 353.568 390.167 354.08H393.827ZM402.49 352.484H401.266V357.98H399.886V352.484H399.106V351.368H399.886V350.9C399.886 350.14 400.086 349.588 400.486 349.244C400.894 348.892 401.53 348.716 402.394 348.716V349.856C401.978 349.856 401.686 349.936 401.518 350.096C401.35 350.248 401.266 350.516 401.266 350.9V351.368H402.49V352.484ZM405.071 352.328C405.271 351.992 405.535 351.732 405.863 351.548C406.199 351.356 406.595 351.26 407.051 351.26V352.676H406.703C406.167 352.676 405.759 352.812 405.479 353.084C405.207 353.356 405.071 353.828 405.071 354.5V357.98H403.703V351.368H405.071V352.328ZM411.176 358.088C410.552 358.088 409.988 357.948 409.484 357.668C408.98 357.38 408.584 356.98 408.296 356.468C408.008 355.948 407.864 355.348 407.864 354.668C407.864 353.996 408.012 353.4 408.308 352.88C408.604 352.36 409.008 351.96 409.52 351.68C410.032 351.4 410.604 351.26 411.236 351.26C411.868 351.26 412.44 351.4 412.952 351.68C413.464 351.96 413.868 352.36 414.164 352.88C414.46 353.4 414.608 353.996 414.608 354.668C414.608 355.34 414.456 355.936 414.152 356.456C413.848 356.976 413.432 357.38 412.904 357.668C412.384 357.948 411.808 358.088 411.176 358.088ZM411.176 356.9C411.528 356.9 411.856 356.816 412.16 356.648C412.472 356.48 412.724 356.228 412.916 355.892C413.108 355.556 413.204 355.148 413.204 354.668C413.204 354.188 413.112 353.784 412.928 353.456C412.744 353.12 412.5 352.868 412.196 352.7C411.892 352.532 411.564 352.448 411.212 352.448C410.86 352.448 410.532 352.532 410.228 352.7C409.932 352.868 409.696 353.12 409.52 353.456C409.344 353.784 409.256 354.188 409.256 354.668C409.256 355.38 409.436 355.932 409.796 356.324C410.164 356.708 410.624 356.9 411.176 356.9ZM423.965 351.26C424.485 351.26 424.949 351.368 425.357 351.584C425.773 351.8 426.097 352.12 426.329 352.544C426.569 352.968 426.689 353.48 426.689 354.08V357.98H425.333V354.284C425.333 353.692 425.185 353.24 424.889 352.928C424.593 352.608 424.189 352.448 423.677 352.448C423.165 352.448 422.757 352.608 422.453 352.928C422.157 353.24 422.009 353.692 422.009 354.284V357.98H420.653V354.284C420.653 353.692 420.505 353.24 420.209 352.928C419.913 352.608 419.509 352.448 418.997 352.448C418.485 352.448 418.077 352.608 417.773 352.928C417.477 353.24 417.329 353.692 417.329 354.284V357.98H415.961V351.368H417.329V352.124C417.553 351.852 417.837 351.64 418.181 351.488C418.525 351.336 418.893 351.26 419.285 351.26C419.813 351.26 420.285 351.372 420.701 351.596C421.117 351.82 421.437 352.144 421.661 352.568C421.861 352.168 422.173 351.852 422.597 351.62C423.021 351.38 423.477 351.26 423.965 351.26ZM434.318 352.484H433.094V357.98H431.714V352.484H430.934V351.368H431.714V350.9C431.714 350.14 431.914 349.588 432.314 349.244C432.722 348.892 433.358 348.716 434.222 348.716V349.856C433.806 349.856 433.514 349.936 433.346 350.096C433.178 350.248 433.094 350.516 433.094 350.9V351.368H434.318V352.484ZM438.399 358.088C437.775 358.088 437.211 357.948 436.707 357.668C436.203 357.38 435.807 356.98 435.519 356.468C435.231 355.948 435.087 355.348 435.087 354.668C435.087 353.996 435.235 353.4 435.531 352.88C435.827 352.36 436.231 351.96 436.743 351.68C437.255 351.4 437.827 351.26 438.459 351.26C439.091 351.26 439.663 351.4 440.175 351.68C440.687 351.96 441.091 352.36 441.387 352.88C441.683 353.4 441.831 353.996 441.831 354.668C441.831 355.34 441.679 355.936 441.375 356.456C441.071 356.976 440.655 357.38 440.127 357.668C439.607 357.948 439.031 358.088 438.399 358.088ZM438.399 356.9C438.751 356.9 439.079 356.816 439.383 356.648C439.695 356.48 439.947 356.228 440.139 355.892C440.331 355.556 440.427 355.148 440.427 354.668C440.427 354.188 440.335 353.784 440.151 353.456C439.967 353.12 439.723 352.868 439.419 352.7C439.115 352.532 438.787 352.448 438.435 352.448C438.083 352.448 437.755 352.532 437.451 352.7C437.155 352.868 436.919 353.12 436.743 353.456C436.567 353.784 436.479 354.188 436.479 354.668C436.479 355.38 436.659 355.932 437.019 356.324C437.387 356.708 437.847 356.9 438.399 356.9ZM444.551 349.1V357.98H443.183V349.1H444.551ZM445.891 354.644C445.891 353.98 446.027 353.392 446.299 352.88C446.579 352.368 446.955 351.972 447.427 351.692C447.907 351.404 448.439 351.26 449.023 351.26C449.455 351.26 449.879 351.356 450.295 351.548C450.719 351.732 451.055 351.98 451.303 352.292V349.1H452.683V357.98H451.303V356.984C451.079 357.304 450.767 357.568 450.367 357.776C449.975 357.984 449.523 358.088 449.011 358.088C448.435 358.088 447.907 357.944 447.427 357.656C446.955 357.36 446.579 356.952 446.299 356.432C446.027 355.904 445.891 355.308 445.891 354.644ZM451.303 354.668C451.303 354.212 451.207 353.816 451.015 353.48C450.831 353.144 450.587 352.888 450.283 352.712C449.979 352.536 449.651 352.448 449.299 352.448C448.947 352.448 448.619 352.536 448.315 352.712C448.011 352.88 447.763 353.132 447.571 353.468C447.387 353.796 447.295 354.188 447.295 354.644C447.295 355.1 447.387 355.5 447.571 355.844C447.763 356.188 448.011 356.452 448.315 356.636C448.627 356.812 448.955 356.9 449.299 356.9C449.651 356.9 449.979 356.812 450.283 356.636C450.587 356.46 450.831 356.204 451.015 355.868C451.207 355.524 451.303 355.124 451.303 354.668ZM460.54 354.512C460.54 354.76 460.524 354.984 460.492 355.184H455.44C455.48 355.712 455.676 356.136 456.028 356.456C456.38 356.776 456.812 356.936 457.324 356.936C458.06 356.936 458.58 356.628 458.884 356.012H460.36C460.16 356.62 459.796 357.12 459.268 357.512C458.748 357.896 458.1 358.088 457.324 358.088C456.692 358.088 456.124 357.948 455.62 357.668C455.124 357.38 454.732 356.98 454.444 356.468C454.164 355.948 454.024 355.348 454.024 354.668C454.024 353.988 454.16 353.392 454.432 352.88C454.712 352.36 455.1 351.96 455.596 351.68C456.1 351.4 456.676 351.26 457.324 351.26C457.948 351.26 458.504 351.396 458.992 351.668C459.48 351.94 459.86 352.324 460.132 352.82C460.404 353.308 460.54 353.872 460.54 354.512ZM459.112 354.08C459.104 353.576 458.924 353.172 458.572 352.868C458.22 352.564 457.784 352.412 457.264 352.412C456.792 352.412 456.388 352.564 456.052 352.868C455.716 353.164 455.516 353.568 455.452 354.08H459.112ZM463.254 352.328C463.454 351.992 463.718 351.732 464.046 351.548C464.382 351.356 464.778 351.26 465.234 351.26V352.676H464.886C464.35 352.676 463.942 352.812 463.662 353.084C463.39 353.356 463.254 353.828 463.254 354.5V357.98H461.886V351.368H463.254V352.328Z" fill="#4A4A68"/>
<rect x="177.713" y="289.5" width="364" height="89" rx="7.5" stroke="#ABCEF0" stroke-dasharray="2 2"/>
<path d="M183.285 130.692V131.58H181.005V139.056H179.913V131.58H177.621V130.692H183.285ZM190.293 132.48L186.333 142.152H185.205L186.501 138.984L183.849 132.48H185.061L187.125 137.808L189.165 132.48H190.293ZM192.483 133.692C192.699 133.316 193.019 133.004 193.443 132.756C193.875 132.5 194.375 132.372 194.943 132.372C195.527 132.372 196.055 132.512 196.527 132.792C197.007 133.072 197.383 133.468 197.655 133.98C197.927 134.484 198.063 135.072 198.063 135.744C198.063 136.408 197.927 137 197.655 137.52C197.383 138.04 197.007 138.444 196.527 138.732C196.055 139.02 195.527 139.164 194.943 139.164C194.383 139.164 193.887 139.04 193.455 138.792C193.031 138.536 192.707 138.22 192.483 137.844V142.176H191.391V132.48H192.483V133.692ZM196.947 135.744C196.947 135.248 196.847 134.816 196.647 134.448C196.447 134.08 196.175 133.8 195.831 133.608C195.495 133.416 195.123 133.32 194.715 133.32C194.315 133.32 193.943 133.42 193.599 133.62C193.263 133.812 192.991 134.096 192.783 134.472C192.583 134.84 192.483 135.268 192.483 135.756C192.483 136.252 192.583 136.688 192.783 137.064C192.991 137.432 193.263 137.716 193.599 137.916C193.943 138.108 194.315 138.204 194.715 138.204C195.123 138.204 195.495 138.108 195.831 137.916C196.175 137.716 196.447 137.432 196.647 137.064C196.847 136.688 196.947 136.248 196.947 135.744ZM205.5 135.516C205.5 135.724 205.488 135.944 205.464 136.176H200.208C200.248 136.824 200.468 137.332 200.868 137.7C201.276 138.06 201.768 138.24 202.344 138.24C202.816 138.24 203.208 138.132 203.52 137.916C203.84 137.692 204.064 137.396 204.192 137.028H205.368C205.192 137.66 204.84 138.176 204.312 138.576C203.784 138.968 203.128 139.164 202.344 139.164C201.72 139.164 201.16 139.024 200.664 138.744C200.176 138.464 199.792 138.068 199.512 137.556C199.232 137.036 199.092 136.436 199.092 135.756C199.092 135.076 199.228 134.48 199.5 133.968C199.772 133.456 200.152 133.064 200.64 132.792C201.136 132.512 201.704 132.372 202.344 132.372C202.968 132.372 203.52 132.508 204 132.78C204.48 133.052 204.848 133.428 205.104 133.908C205.368 134.38 205.5 134.916 205.5 135.516ZM204.372 135.288C204.372 134.872 204.28 134.516 204.096 134.22C203.912 133.916 203.66 133.688 203.34 133.536C203.028 133.376 202.68 133.296 202.296 133.296C201.744 133.296 201.272 133.472 200.88 133.824C200.496 134.176 200.276 134.664 200.22 135.288H204.372ZM215.805 132.48L211.845 142.152H210.717L212.013 138.984L209.361 132.48H210.573L212.637 137.808L214.677 132.48H215.805ZM219.771 139.164C219.155 139.164 218.595 139.024 218.091 138.744C217.595 138.464 217.203 138.068 216.915 137.556C216.635 137.036 216.495 136.436 216.495 135.756C216.495 135.084 216.639 134.492 216.927 133.98C217.223 133.46 217.623 133.064 218.127 132.792C218.631 132.512 219.195 132.372 219.819 132.372C220.443 132.372 221.007 132.512 221.511 132.792C222.015 133.064 222.411 133.456 222.699 133.968C222.995 134.48 223.143 135.076 223.143 135.756C223.143 136.436 222.991 137.036 222.687 137.556C222.391 138.068 221.987 138.464 221.475 138.744C220.963 139.024 220.395 139.164 219.771 139.164ZM219.771 138.204C220.163 138.204 220.531 138.112 220.875 137.928C221.219 137.744 221.495 137.468 221.703 137.1C221.919 136.732 222.027 136.284 222.027 135.756C222.027 135.228 221.923 134.78 221.715 134.412C221.507 134.044 221.235 133.772 220.899 133.596C220.563 133.412 220.199 133.32 219.807 133.32C219.407 133.32 219.039 133.412 218.703 133.596C218.375 133.772 218.111 134.044 217.911 134.412C217.711 134.78 217.611 135.228 217.611 135.756C217.611 136.292 217.707 136.744 217.899 137.112C218.099 137.48 218.363 137.756 218.691 137.94C219.019 138.116 219.379 138.204 219.771 138.204ZM230.41 132.48V139.056H229.318V138.084C229.11 138.42 228.818 138.684 228.442 138.876C228.074 139.06 227.666 139.152 227.218 139.152C226.706 139.152 226.246 139.048 225.838 138.84C225.43 138.624 225.106 138.304 224.866 137.88C224.634 137.456 224.518 136.94 224.518 136.332V132.48H225.598V136.188C225.598 136.836 225.762 137.336 226.09 137.688C226.418 138.032 226.866 138.204 227.434 138.204C228.018 138.204 228.478 138.024 228.814 137.664C229.15 137.304 229.318 136.78 229.318 136.092V132.48H230.41ZM233.346 133.548C233.538 133.172 233.81 132.88 234.162 132.672C234.522 132.464 234.958 132.36 235.47 132.36V133.488H235.182C233.958 133.488 233.346 134.152 233.346 135.48V139.056H232.254V132.48H233.346V133.548ZM239.522 135.744C239.522 135.072 239.658 134.484 239.93 133.98C240.202 133.468 240.574 133.072 241.046 132.792C241.526 132.512 242.062 132.372 242.654 132.372C243.222 132.372 243.718 132.5 244.142 132.756C244.574 133.004 244.89 133.312 245.09 133.68V132.48H246.194V142.176H245.09V137.844C244.882 138.212 244.562 138.524 244.13 138.78C243.698 139.036 243.194 139.164 242.618 139.164C242.042 139.164 241.518 139.02 241.046 138.732C240.574 138.444 240.202 138.04 239.93 137.52C239.658 137 239.522 136.408 239.522 135.744ZM245.09 135.756C245.09 135.26 244.99 134.828 244.79 134.46C244.59 134.092 244.318 133.812 243.974 133.62C243.638 133.42 243.266 133.32 242.858 133.32C242.45 133.32 242.078 133.416 241.742 133.608C241.406 133.8 241.138 134.08 240.938 134.448C240.738 134.816 240.638 135.248 240.638 135.744C240.638 136.248 240.738 136.688 240.938 137.064C241.138 137.432 241.406 137.716 241.742 137.916C242.078 138.108 242.45 138.204 242.858 138.204C243.266 138.204 243.638 138.108 243.974 137.916C244.318 137.716 244.59 137.432 244.79 137.064C244.99 136.688 245.09 136.252 245.09 135.756ZM253.871 132.48V139.056H252.779V138.084C252.571 138.42 252.279 138.684 251.903 138.876C251.535 139.06 251.127 139.152 250.679 139.152C250.167 139.152 249.707 139.048 249.299 138.84C248.891 138.624 248.567 138.304 248.327 137.88C248.095 137.456 247.979 136.94 247.979 136.332V132.48H249.059V136.188C249.059 136.836 249.223 137.336 249.551 137.688C249.879 138.032 250.327 138.204 250.895 138.204C251.479 138.204 251.939 138.024 252.275 137.664C252.611 137.304 252.779 136.78 252.779 136.092V132.48H253.871ZM261.715 135.516C261.715 135.724 261.703 135.944 261.679 136.176H256.423C256.463 136.824 256.683 137.332 257.083 137.7C257.491 138.06 257.983 138.24 258.559 138.24C259.031 138.24 259.423 138.132 259.735 137.916C260.055 137.692 260.279 137.396 260.407 137.028H261.583C261.407 137.66 261.055 138.176 260.527 138.576C259.999 138.968 259.343 139.164 258.559 139.164C257.935 139.164 257.375 139.024 256.879 138.744C256.391 138.464 256.007 138.068 255.727 137.556C255.447 137.036 255.307 136.436 255.307 135.756C255.307 135.076 255.443 134.48 255.715 133.968C255.987 133.456 256.367 133.064 256.855 132.792C257.351 132.512 257.919 132.372 258.559 132.372C259.183 132.372 259.735 132.508 260.215 132.78C260.695 133.052 261.063 133.428 261.319 133.908C261.583 134.38 261.715 134.916 261.715 135.516ZM260.587 135.288C260.587 134.872 260.495 134.516 260.311 134.22C260.127 133.916 259.875 133.688 259.555 133.536C259.243 133.376 258.895 133.296 258.511 133.296C257.959 133.296 257.487 133.472 257.095 133.824C256.711 134.176 256.491 134.664 256.435 135.288H260.587ZM265.484 139.164C264.98 139.164 264.528 139.08 264.128 138.912C263.728 138.736 263.412 138.496 263.18 138.192C262.948 137.88 262.82 137.524 262.796 137.124H263.924C263.956 137.452 264.108 137.72 264.38 137.928C264.66 138.136 265.024 138.24 265.472 138.24C265.888 138.24 266.216 138.148 266.456 137.964C266.696 137.78 266.816 137.548 266.816 137.268C266.816 136.98 266.688 136.768 266.432 136.632C266.176 136.488 265.78 136.348 265.244 136.212C264.756 136.084 264.356 135.956 264.044 135.828C263.74 135.692 263.476 135.496 263.252 135.24C263.036 134.976 262.928 134.632 262.928 134.208C262.928 133.872 263.028 133.564 263.228 133.284C263.428 133.004 263.712 132.784 264.08 132.624C264.448 132.456 264.868 132.372 265.34 132.372C266.068 132.372 266.656 132.556 267.104 132.924C267.552 133.292 267.792 133.796 267.824 134.436H266.732C266.708 134.092 266.568 133.816 266.312 133.608C266.064 133.4 265.728 133.296 265.304 133.296C264.912 133.296 264.6 133.38 264.368 133.548C264.136 133.716 264.02 133.936 264.02 134.208C264.02 134.424 264.088 134.604 264.224 134.748C264.368 134.884 264.544 134.996 264.752 135.084C264.968 135.164 265.264 135.256 265.64 135.36C266.112 135.488 266.496 135.616 266.792 135.744C267.088 135.864 267.34 136.048 267.548 136.296C267.764 136.544 267.876 136.868 267.884 137.268C267.884 137.628 267.784 137.952 267.584 138.24C267.384 138.528 267.1 138.756 266.732 138.924C266.372 139.084 265.956 139.164 265.484 139.164ZM270.758 133.38V137.256C270.758 137.576 270.826 137.804 270.962 137.94C271.098 138.068 271.334 138.132 271.67 138.132H272.474V139.056H271.49C270.882 139.056 270.426 138.916 270.122 138.636C269.818 138.356 269.666 137.896 269.666 137.256V133.38H268.814V132.48H269.666V130.824H270.758V132.48H272.474V133.38H270.758ZM274.361 131.412C274.153 131.412 273.977 131.34 273.833 131.196C273.689 131.052 273.617 130.876 273.617 130.668C273.617 130.46 273.689 130.284 273.833 130.14C273.977 129.996 274.153 129.924 274.361 129.924C274.561 129.924 274.729 129.996 274.865 130.14C275.009 130.284 275.081 130.46 275.081 130.668C275.081 130.876 275.009 131.052 274.865 131.196C274.729 131.34 274.561 131.412 274.361 131.412ZM274.889 132.48V139.056H273.797V132.48H274.889ZM279.618 139.164C279.002 139.164 278.442 139.024 277.938 138.744C277.442 138.464 277.05 138.068 276.762 137.556C276.482 137.036 276.342 136.436 276.342 135.756C276.342 135.084 276.486 134.492 276.774 133.98C277.07 133.46 277.47 133.064 277.974 132.792C278.478 132.512 279.042 132.372 279.666 132.372C280.29 132.372 280.854 132.512 281.358 132.792C281.862 133.064 282.258 133.456 282.546 133.968C282.842 134.48 282.99 135.076 282.99 135.756C282.99 136.436 282.838 137.036 282.534 137.556C282.238 138.068 281.834 138.464 281.322 138.744C280.81 139.024 280.242 139.164 279.618 139.164ZM279.618 138.204C280.01 138.204 280.378 138.112 280.722 137.928C281.066 137.744 281.342 137.468 281.55 137.1C281.766 136.732 281.874 136.284 281.874 135.756C281.874 135.228 281.77 134.78 281.562 134.412C281.354 134.044 281.082 133.772 280.746 133.596C280.41 133.412 280.046 133.32 279.654 133.32C279.254 133.32 278.886 133.412 278.55 133.596C278.222 133.772 277.958 134.044 277.758 134.412C277.558 134.78 277.458 135.228 277.458 135.756C277.458 136.292 277.554 136.744 277.746 137.112C277.946 137.48 278.21 137.756 278.538 137.94C278.866 138.116 279.226 138.204 279.618 138.204ZM287.63 132.36C288.43 132.36 289.078 132.604 289.574 133.092C290.07 133.572 290.318 134.268 290.318 135.18V139.056H289.238V135.336C289.238 134.68 289.074 134.18 288.746 133.836C288.418 133.484 287.97 133.308 287.402 133.308C286.826 133.308 286.366 133.488 286.022 133.848C285.686 134.208 285.518 134.732 285.518 135.42V139.056H284.426V132.48H285.518V133.416C285.734 133.08 286.026 132.82 286.394 132.636C286.77 132.452 287.182 132.36 287.63 132.36ZM298.565 132.36C299.061 132.36 299.509 132.468 299.909 132.684C300.309 132.892 300.621 133.208 300.845 133.632C301.077 134.056 301.193 134.572 301.193 135.18V139.056H300.113V135.336C300.113 134.68 299.949 134.18 299.621 133.836C299.293 133.484 298.845 133.308 298.277 133.308C297.701 133.308 297.241 133.488 296.897 133.848C296.561 134.208 296.393 134.732 296.393 135.42V139.056H295.301V130.176H296.393V133.416C296.609 133.08 296.905 132.82 297.281 132.636C297.665 132.452 298.093 132.36 298.565 132.36ZM308.977 135.516C308.977 135.724 308.965 135.944 308.941 136.176H303.685C303.725 136.824 303.945 137.332 304.345 137.7C304.753 138.06 305.245 138.24 305.821 138.24C306.293 138.24 306.685 138.132 306.997 137.916C307.317 137.692 307.541 137.396 307.669 137.028H308.845C308.669 137.66 308.317 138.176 307.789 138.576C307.261 138.968 306.605 139.164 305.821 139.164C305.197 139.164 304.637 139.024 304.141 138.744C303.653 138.464 303.269 138.068 302.989 137.556C302.709 137.036 302.569 136.436 302.569 135.756C302.569 135.076 302.705 134.48 302.977 133.968C303.249 133.456 303.629 133.064 304.117 132.792C304.613 132.512 305.181 132.372 305.821 132.372C306.445 132.372 306.997 132.508 307.477 132.78C307.957 133.052 308.325 133.428 308.581 133.908C308.845 134.38 308.977 134.916 308.977 135.516ZM307.849 135.288C307.849 134.872 307.757 134.516 307.573 134.22C307.389 133.916 307.137 133.688 306.817 133.536C306.505 133.376 306.157 133.296 305.773 133.296C305.221 133.296 304.749 133.472 304.357 133.824C303.973 134.176 303.753 134.664 303.697 135.288H307.849ZM311.51 133.548C311.702 133.172 311.974 132.88 312.326 132.672C312.686 132.464 313.122 132.36 313.634 132.36V133.488H313.346C312.122 133.488 311.51 134.152 311.51 135.48V139.056H310.418V132.48H311.51V133.548ZM320.895 135.516C320.895 135.724 320.883 135.944 320.859 136.176H315.603C315.643 136.824 315.863 137.332 316.263 137.7C316.671 138.06 317.163 138.24 317.739 138.24C318.211 138.24 318.603 138.132 318.915 137.916C319.235 137.692 319.459 137.396 319.587 137.028H320.763C320.587 137.66 320.235 138.176 319.707 138.576C319.179 138.968 318.523 139.164 317.739 139.164C317.115 139.164 316.555 139.024 316.059 138.744C315.571 138.464 315.187 138.068 314.907 137.556C314.627 137.036 314.487 136.436 314.487 135.756C314.487 135.076 314.623 134.48 314.895 133.968C315.167 133.456 315.547 133.064 316.035 132.792C316.531 132.512 317.099 132.372 317.739 132.372C318.363 132.372 318.915 132.508 319.395 132.78C319.875 133.052 320.243 133.428 320.499 133.908C320.763 134.38 320.895 134.916 320.895 135.516ZM319.767 135.288C319.767 134.872 319.675 134.516 319.491 134.22C319.307 133.916 319.055 133.688 318.735 133.536C318.423 133.376 318.075 133.296 317.691 133.296C317.139 133.296 316.667 133.472 316.275 133.824C315.891 134.176 315.671 134.664 315.615 135.288H319.767ZM328.403 139.164C327.787 139.164 327.227 139.024 326.723 138.744C326.227 138.464 325.835 138.068 325.547 137.556C325.267 137.036 325.127 136.436 325.127 135.756C325.127 135.084 325.271 134.492 325.559 133.98C325.855 133.46 326.255 133.064 326.759 132.792C327.263 132.512 327.827 132.372 328.451 132.372C329.075 132.372 329.639 132.512 330.143 132.792C330.647 133.064 331.043 133.456 331.331 133.968C331.627 134.48 331.775 135.076 331.775 135.756C331.775 136.436 331.623 137.036 331.319 137.556C331.023 138.068 330.619 138.464 330.107 138.744C329.595 139.024 329.027 139.164 328.403 139.164ZM328.403 138.204C328.795 138.204 329.163 138.112 329.507 137.928C329.851 137.744 330.127 137.468 330.335 137.1C330.551 136.732 330.659 136.284 330.659 135.756C330.659 135.228 330.555 134.78 330.347 134.412C330.139 134.044 329.867 133.772 329.531 133.596C329.195 133.412 328.831 133.32 328.439 133.32C328.039 133.32 327.671 133.412 327.335 133.596C327.007 133.772 326.743 134.044 326.543 134.412C326.343 134.78 326.243 135.228 326.243 135.756C326.243 136.292 326.339 136.744 326.531 137.112C326.731 137.48 326.995 137.756 327.323 137.94C327.651 138.116 328.011 138.204 328.403 138.204ZM334.303 133.548C334.495 133.172 334.767 132.88 335.119 132.672C335.479 132.464 335.915 132.36 336.427 132.36V133.488H336.139C334.915 133.488 334.303 134.152 334.303 135.48V139.056H333.211V132.48H334.303V133.548ZM340.479 135.744C340.479 135.072 340.615 134.484 340.887 133.98C341.159 133.468 341.531 133.072 342.003 132.792C342.483 132.512 343.015 132.372 343.599 132.372C344.175 132.372 344.675 132.496 345.099 132.744C345.523 132.992 345.839 133.304 346.047 133.68V132.48H347.151V139.056H346.047V137.832C345.831 138.216 345.507 138.536 345.075 138.792C344.651 139.04 344.155 139.164 343.587 139.164C343.003 139.164 342.475 139.02 342.003 138.732C341.531 138.444 341.159 138.04 340.887 137.52C340.615 137 340.479 136.408 340.479 135.744ZM346.047 135.756C346.047 135.26 345.947 134.828 345.747 134.46C345.547 134.092 345.275 133.812 344.931 133.62C344.595 133.42 344.223 133.32 343.815 133.32C343.407 133.32 343.035 133.416 342.699 133.608C342.363 133.8 342.095 134.08 341.895 134.448C341.695 134.816 341.595 135.248 341.595 135.744C341.595 136.248 341.695 136.688 341.895 137.064C342.095 137.432 342.363 137.716 342.699 137.916C343.035 138.108 343.407 138.204 343.815 138.204C344.223 138.204 344.595 138.108 344.931 137.916C345.275 137.716 345.547 137.432 345.747 137.064C345.947 136.688 346.047 136.252 346.047 135.756ZM348.588 135.744C348.588 135.072 348.724 134.484 348.996 133.98C349.268 133.468 349.64 133.072 350.112 132.792C350.592 132.512 351.128 132.372 351.72 132.372C352.232 132.372 352.708 132.492 353.148 132.732C353.588 132.964 353.924 133.272 354.156 133.656V130.176H355.26V139.056H354.156V137.82C353.94 138.212 353.62 138.536 353.196 138.792C352.772 139.04 352.276 139.164 351.708 139.164C351.124 139.164 350.592 139.02 350.112 138.732C349.64 138.444 349.268 138.04 348.996 137.52C348.724 137 348.588 136.408 348.588 135.744ZM354.156 135.756C354.156 135.26 354.056 134.828 353.856 134.46C353.656 134.092 353.384 133.812 353.04 133.62C352.704 133.42 352.332 133.32 351.924 133.32C351.516 133.32 351.144 133.416 350.808 133.608C350.472 133.8 350.204 134.08 350.004 134.448C349.804 134.816 349.704 135.248 349.704 135.744C349.704 136.248 349.804 136.688 350.004 137.064C350.204 137.432 350.472 137.716 350.808 137.916C351.144 138.108 351.516 138.204 351.924 138.204C352.332 138.204 352.704 138.108 353.04 137.916C353.384 137.716 353.656 137.432 353.856 137.064C354.056 136.688 354.156 136.252 354.156 135.756ZM356.698 135.744C356.698 135.072 356.834 134.484 357.106 133.98C357.378 133.468 357.75 133.072 358.222 132.792C358.702 132.512 359.238 132.372 359.83 132.372C360.342 132.372 360.818 132.492 361.258 132.732C361.698 132.964 362.034 133.272 362.266 133.656V130.176H363.37V139.056H362.266V137.82C362.05 138.212 361.73 138.536 361.306 138.792C360.882 139.04 360.386 139.164 359.818 139.164C359.234 139.164 358.702 139.02 358.222 138.732C357.75 138.444 357.378 138.04 357.106 137.52C356.834 137 356.698 136.408 356.698 135.744ZM362.266 135.756C362.266 135.26 362.166 134.828 361.966 134.46C361.766 134.092 361.494 133.812 361.15 133.62C360.814 133.42 360.442 133.32 360.034 133.32C359.626 133.32 359.254 133.416 358.918 133.608C358.582 133.8 358.314 134.08 358.114 134.448C357.914 134.816 357.814 135.248 357.814 135.744C357.814 136.248 357.914 136.688 358.114 137.064C358.314 137.432 358.582 137.716 358.918 137.916C359.254 138.108 359.626 138.204 360.034 138.204C360.442 138.204 360.814 138.108 361.15 137.916C361.494 137.716 361.766 137.432 361.966 137.064C362.166 136.688 362.266 136.252 362.266 135.756ZM371.09 133.38H369.71V139.056H368.618V133.38H367.766V132.48H368.618V132.012C368.618 131.276 368.806 130.74 369.182 130.404C369.566 130.06 370.178 129.888 371.018 129.888V130.8C370.538 130.8 370.198 130.896 369.998 131.088C369.806 131.272 369.71 131.58 369.71 132.012V132.48H371.09V133.38ZM372.927 131.412C372.719 131.412 372.543 131.34 372.399 131.196C372.255 131.052 372.183 130.876 372.183 130.668C372.183 130.46 372.255 130.284 372.399 130.14C372.543 129.996 372.719 129.924 372.927 129.924C373.127 129.924 373.295 129.996 373.431 130.14C373.575 130.284 373.647 130.46 373.647 130.668C373.647 130.876 373.575 131.052 373.431 131.196C373.295 131.34 373.127 131.412 372.927 131.412ZM373.455 132.48V139.056H372.363V132.48H373.455ZM376.409 130.176V139.056H375.317V130.176H376.409ZM384.27 135.516C384.27 135.724 384.258 135.944 384.234 136.176H378.978C379.018 136.824 379.238 137.332 379.638 137.7C380.046 138.06 380.538 138.24 381.114 138.24C381.586 138.24 381.978 138.132 382.29 137.916C382.61 137.692 382.834 137.396 382.962 137.028H384.138C383.962 137.66 383.61 138.176 383.082 138.576C382.554 138.968 381.898 139.164 381.114 139.164C380.49 139.164 379.93 139.024 379.434 138.744C378.946 138.464 378.562 138.068 378.282 137.556C378.002 137.036 377.862 136.436 377.862 135.756C377.862 135.076 377.998 134.48 378.27 133.968C378.542 133.456 378.922 133.064 379.41 132.792C379.906 132.512 380.474 132.372 381.114 132.372C381.738 132.372 382.29 132.508 382.77 132.78C383.25 133.052 383.618 133.428 383.874 133.908C384.138 134.38 384.27 134.916 384.27 135.516ZM383.142 135.288C383.142 134.872 383.05 134.516 382.866 134.22C382.682 133.916 382.43 133.688 382.11 133.536C381.798 133.376 381.45 133.296 381.066 133.296C380.514 133.296 380.042 133.472 379.65 133.824C379.266 134.176 379.046 134.664 378.99 135.288H383.142ZM388.039 139.164C387.535 139.164 387.083 139.08 386.683 138.912C386.283 138.736 385.967 138.496 385.735 138.192C385.503 137.88 385.375 137.524 385.351 137.124H386.479C386.511 137.452 386.663 137.72 386.935 137.928C387.215 138.136 387.579 138.24 388.027 138.24C388.443 138.24 388.771 138.148 389.011 137.964C389.251 137.78 389.371 137.548 389.371 137.268C389.371 136.98 389.243 136.768 388.987 136.632C388.731 136.488 388.335 136.348 387.799 136.212C387.311 136.084 386.911 135.956 386.599 135.828C386.295 135.692 386.031 135.496 385.807 135.24C385.591 134.976 385.483 134.632 385.483 134.208C385.483 133.872 385.583 133.564 385.783 133.284C385.983 133.004 386.267 132.784 386.635 132.624C387.003 132.456 387.423 132.372 387.895 132.372C388.623 132.372 389.211 132.556 389.659 132.924C390.107 133.292 390.347 133.796 390.379 134.436H389.287C389.263 134.092 389.123 133.816 388.867 133.608C388.619 133.4 388.283 133.296 387.859 133.296C387.467 133.296 387.155 133.38 386.923 133.548C386.691 133.716 386.575 133.936 386.575 134.208C386.575 134.424 386.643 134.604 386.779 134.748C386.923 134.884 387.099 134.996 387.307 135.084C387.523 135.164 387.819 135.256 388.195 135.36C388.667 135.488 389.051 135.616 389.347 135.744C389.643 135.864 389.895 136.048 390.103 136.296C390.319 136.544 390.431 136.868 390.439 137.268C390.439 137.628 390.339 137.952 390.139 138.24C389.939 138.528 389.655 138.756 389.287 138.924C388.927 139.084 388.511 139.164 388.039 139.164Z" fill="#9E9E9E"/>
</g>
</g>
<rect x="415.713" y="405" width="136" height="40" rx="8" fill="#29329C"/>
<path d="M448.961 423.08C448.673 422.525 448.273 422.109 447.761 421.832C447.249 421.544 446.657 421.4 445.985 421.4C445.249 421.4 444.593 421.565 444.017 421.896C443.441 422.227 442.988 422.696 442.657 423.304C442.337 423.912 442.177 424.616 442.177 425.416C442.177 426.216 442.337 426.925 442.657 427.544C442.988 428.152 443.441 428.621 444.017 428.952C444.593 429.283 445.249 429.448 445.985 429.448C446.977 429.448 447.782 429.171 448.401 428.616C449.02 428.061 449.398 427.309 449.537 426.36H445.361V424.904H451.489V426.328C451.372 427.192 451.062 427.987 450.561 428.712C450.07 429.437 449.425 430.019 448.625 430.456C447.836 430.883 446.956 431.096 445.985 431.096C444.94 431.096 443.985 430.856 443.121 430.376C442.257 429.885 441.569 429.208 441.057 428.344C440.556 427.48 440.305 426.504 440.305 425.416C440.305 424.328 440.556 423.352 441.057 422.488C441.569 421.624 442.257 420.952 443.121 420.472C443.996 419.981 444.95 419.736 445.985 419.736C447.169 419.736 448.22 420.029 449.137 420.616C450.065 421.192 450.737 422.013 451.153 423.08H448.961ZM460.568 426.376C460.568 426.707 460.547 427.005 460.504 427.272H453.768C453.821 427.976 454.083 428.541 454.552 428.968C455.021 429.395 455.597 429.608 456.28 429.608C457.261 429.608 457.955 429.197 458.36 428.376H460.328C460.061 429.187 459.576 429.853 458.872 430.376C458.179 430.888 457.315 431.144 456.28 431.144C455.437 431.144 454.68 430.957 454.008 430.584C453.347 430.2 452.824 429.667 452.44 428.984C452.067 428.291 451.88 427.491 451.88 426.584C451.88 425.677 452.061 424.883 452.424 424.2C452.797 423.507 453.315 422.973 453.976 422.6C454.648 422.227 455.416 422.04 456.28 422.04C457.112 422.04 457.853 422.221 458.504 422.584C459.155 422.947 459.661 423.459 460.024 424.12C460.387 424.771 460.568 425.523 460.568 426.376ZM458.664 425.8C458.653 425.128 458.413 424.589 457.944 424.184C457.475 423.779 456.893 423.576 456.2 423.576C455.571 423.576 455.032 423.779 454.584 424.184C454.136 424.579 453.869 425.117 453.784 425.8H458.664ZM463.691 423.672V428.552C463.691 428.883 463.766 429.123 463.915 429.272C464.075 429.411 464.342 429.48 464.715 429.48H465.835V431H464.395C463.574 431 462.944 430.808 462.507 430.424C462.07 430.04 461.851 429.416 461.851 428.552V423.672H460.811V422.184H461.851V419.992H463.691V422.184H465.835V423.672H463.691ZM473.272 431.144C472.579 431.144 471.955 431.021 471.4 430.776C470.856 430.52 470.424 430.179 470.104 429.752C469.784 429.315 469.614 428.829 469.592 428.296H471.48C471.512 428.669 471.688 428.984 472.008 429.24C472.339 429.485 472.75 429.608 473.24 429.608C473.752 429.608 474.147 429.512 474.424 429.32C474.712 429.117 474.856 428.861 474.856 428.552C474.856 428.221 474.696 427.976 474.376 427.816C474.067 427.656 473.571 427.48 472.888 427.288C472.227 427.107 471.688 426.931 471.272 426.76C470.856 426.589 470.494 426.328 470.184 425.976C469.886 425.624 469.736 425.16 469.736 424.584C469.736 424.115 469.875 423.688 470.152 423.304C470.43 422.909 470.824 422.6 471.336 422.376C471.859 422.152 472.456 422.04 473.128 422.04C474.131 422.04 474.936 422.296 475.544 422.808C476.163 423.309 476.494 423.997 476.536 424.872H474.712C474.68 424.477 474.52 424.163 474.232 423.928C473.944 423.693 473.555 423.576 473.064 423.576C472.584 423.576 472.216 423.667 471.96 423.848C471.704 424.029 471.576 424.269 471.576 424.568C471.576 424.803 471.662 425 471.832 425.16C472.003 425.32 472.211 425.448 472.456 425.544C472.702 425.629 473.064 425.741 473.544 425.88C474.184 426.051 474.707 426.227 475.112 426.408C475.528 426.579 475.886 426.835 476.184 427.176C476.483 427.517 476.638 427.971 476.648 428.536C476.648 429.037 476.51 429.485 476.232 429.88C475.955 430.275 475.56 430.584 475.048 430.808C474.547 431.032 473.955 431.144 473.272 431.144ZM481.643 431.144C480.811 431.144 480.059 430.957 479.387 430.584C478.715 430.2 478.187 429.667 477.803 428.984C477.419 428.291 477.227 427.491 477.227 426.584C477.227 425.688 477.424 424.893 477.819 424.2C478.214 423.507 478.752 422.973 479.435 422.6C480.118 422.227 480.88 422.04 481.723 422.04C482.566 422.04 483.328 422.227 484.011 422.6C484.694 422.973 485.232 423.507 485.627 424.2C486.022 424.893 486.219 425.688 486.219 426.584C486.219 427.48 486.016 428.275 485.611 428.968C485.206 429.661 484.651 430.2 483.947 430.584C483.254 430.957 482.486 431.144 481.643 431.144ZM481.643 429.56C482.112 429.56 482.55 429.448 482.955 429.224C483.371 429 483.707 428.664 483.963 428.216C484.219 427.768 484.347 427.224 484.347 426.584C484.347 425.944 484.224 425.405 483.979 424.968C483.734 424.52 483.408 424.184 483.003 423.96C482.598 423.736 482.16 423.624 481.691 423.624C481.222 423.624 480.784 423.736 480.379 423.96C479.984 424.184 479.67 424.52 479.435 424.968C479.2 425.405 479.083 425.944 479.083 426.584C479.083 427.533 479.323 428.269 479.803 428.792C480.294 429.304 480.907 429.56 481.643 429.56ZM489.046 419.16V431H487.222V419.16H489.046ZM498.625 422.184V431H496.801V429.96C496.513 430.323 496.134 430.611 495.665 430.824C495.206 431.027 494.716 431.128 494.193 431.128C493.5 431.128 492.876 430.984 492.321 430.696C491.777 430.408 491.345 429.981 491.025 429.416C490.716 428.851 490.561 428.168 490.561 427.368V422.184H492.369V427.096C492.369 427.885 492.566 428.493 492.961 428.92C493.356 429.336 493.894 429.544 494.577 429.544C495.26 429.544 495.798 429.336 496.193 428.92C496.598 428.493 496.801 427.885 496.801 427.096V422.184H498.625ZM502.36 423.672V428.552C502.36 428.883 502.434 429.123 502.584 429.272C502.744 429.411 503.01 429.48 503.384 429.48H504.504V431H503.064C502.242 431 501.613 430.808 501.176 430.424C500.738 430.04 500.52 429.416 500.52 428.552V423.672H499.48V422.184H500.52V419.992H502.36V422.184H504.504V423.672H502.36ZM506.313 421.016C505.982 421.016 505.705 420.904 505.481 420.68C505.257 420.456 505.145 420.179 505.145 419.848C505.145 419.517 505.257 419.24 505.481 419.016C505.705 418.792 505.982 418.68 506.313 418.68C506.633 418.68 506.905 418.792 507.129 419.016C507.353 419.24 507.465 419.517 507.465 419.848C507.465 420.179 507.353 420.456 507.129 420.68C506.905 420.904 506.633 421.016 506.313 421.016ZM507.209 422.184V431H505.385V422.184H507.209ZM512.628 431.144C511.796 431.144 511.044 430.957 510.372 430.584C509.7 430.2 509.172 429.667 508.788 428.984C508.404 428.291 508.212 427.491 508.212 426.584C508.212 425.688 508.409 424.893 508.804 424.2C509.198 423.507 509.737 422.973 510.42 422.6C511.102 422.227 511.865 422.04 512.708 422.04C513.55 422.04 514.313 422.227 514.996 422.6C515.678 422.973 516.217 423.507 516.612 424.2C517.006 424.893 517.204 425.688 517.204 426.584C517.204 427.48 517.001 428.275 516.596 428.968C516.19 429.661 515.636 430.2 514.932 430.584C514.238 430.957 513.47 431.144 512.628 431.144ZM512.628 429.56C513.097 429.56 513.534 429.448 513.94 429.224C514.356 429 514.692 428.664 514.948 428.216C515.204 427.768 515.332 427.224 515.332 426.584C515.332 425.944 515.209 425.405 514.964 424.968C514.718 424.52 514.393 424.184 513.988 423.96C513.582 423.736 513.145 423.624 512.676 423.624C512.206 423.624 511.769 423.736 511.364 423.96C510.969 424.184 510.654 424.52 510.42 424.968C510.185 425.405 510.068 425.944 510.068 426.584C510.068 427.533 510.308 428.269 510.788 428.792C511.278 429.304 511.892 429.56 512.628 429.56ZM522.655 422.04C523.348 422.04 523.967 422.184 524.511 422.472C525.065 422.76 525.497 423.187 525.807 423.752C526.116 424.317 526.271 425 526.271 425.8V431H524.463V426.072C524.463 425.283 524.265 424.68 523.871 424.264C523.476 423.837 522.937 423.624 522.255 423.624C521.572 423.624 521.028 423.837 520.623 424.264C520.228 424.68 520.031 425.283 520.031 426.072V431H518.207V422.184H520.031V423.192C520.329 422.829 520.708 422.547 521.167 422.344C521.636 422.141 522.132 422.04 522.655 422.04Z" fill="white"/>
<path d="M108.89 80.6758H81.0197C78.7415 80.6758 76.5566 81.5808 74.9456 83.1917C73.3347 84.8027 72.4297 86.9876 72.4297 89.2658V113.536C72.4297 115.814 73.3347 117.999 74.9456 119.61C76.5566 121.221 78.7415 122.126 81.0197 122.126H98.8897L104.69 131.726V122.126H108.89C111.168 122.126 113.353 121.221 114.964 119.61C116.575 117.999 117.48 115.814 117.48 113.536V89.2458C117.474 86.971 116.567 84.7913 114.957 83.1847C113.346 81.578 111.164 80.6758 108.89 80.6758Z" fill="#407BFF"/>
<path opacity="0.7" d="M108.412 104.45C110.168 97.0113 105.56 89.5572 98.1212 87.8014C90.682 86.0456 83.228 90.6529 81.4722 98.0921C79.7163 105.531 84.3237 112.985 91.7629 114.741C99.2021 116.497 106.656 111.89 108.412 104.45Z" fill="white"/>
<path d="M93.5088 107.456C93.3187 107.462 93.1297 107.425 92.9563 107.347C92.7829 107.269 92.6298 107.152 92.5088 107.006L87.0788 100.616C86.9704 100.488 86.8882 100.341 86.8369 100.182C86.7856 100.023 86.7661 99.8549 86.7795 99.6883C86.793 99.5216 86.8392 99.3592 86.9154 99.2103C86.9916 99.0615 87.0964 98.9291 87.2238 98.8208C87.3512 98.7125 87.4986 98.6303 87.6578 98.5789C87.8169 98.5276 87.9846 98.5081 88.1513 98.5215C88.318 98.535 88.4804 98.5812 88.6292 98.6574C88.7781 98.7336 88.9104 98.8384 89.0188 98.9658L93.4788 104.226L100.839 95.5458C101.058 95.2879 101.37 95.1273 101.708 95.0992C102.045 95.071 102.38 95.1777 102.639 95.3958C102.895 95.6147 103.053 95.9262 103.079 96.2618C103.106 96.5975 102.997 96.9298 102.779 97.1858L94.4488 107.006C94.3328 107.143 94.1891 107.254 94.0271 107.332C93.865 107.409 93.6884 107.452 93.5088 107.456Z" fill="#407BFF"/>
<path d="M89.0225 446.999C140.16 446.999 181.615 441.931 181.615 435.679C181.615 429.427 140.16 424.359 89.0225 424.359C37.8849 424.359 -3.57031 429.427 -3.57031 435.679C-3.57031 441.931 37.8849 446.999 89.0225 446.999Z" fill="#FBFBFD"/>
<path d="M66.8722 204.075C71.1623 207.627 75.6375 210.95 80.2789 214.03C82.635 215.596 84.9912 217.093 87.5713 218.495C88.8436 219.19 90.1631 219.873 91.6121 220.509C92.3425 220.815 93.0847 221.122 93.9683 221.404C94.3688 221.546 94.8401 221.687 95.2995 221.805C95.4409 221.805 95.4762 221.864 95.7001 221.911L96.2891 222.029C96.6586 222.097 97.0328 222.136 97.4083 222.147C99.5917 222.174 101.744 221.63 103.652 220.568C105.091 219.815 106.462 218.94 107.752 217.953C110.064 216.159 112.234 214.189 114.243 212.062C118.116 208.012 121.639 203.641 124.775 198.997L120.546 195.463C116.682 199.08 112.653 202.673 108.624 205.924C106.673 207.509 104.627 208.972 102.498 210.307C101.568 210.888 100.591 211.389 99.576 211.803C99.0947 212.059 98.5537 212.181 98.0092 212.156H98.2094C98.2094 212.156 98.1388 212.156 98.1152 212.156C97.9102 212.086 97.7096 212.003 97.5144 211.909C97.0277 211.702 96.5519 211.47 96.0889 211.214C95.0875 210.672 94.0272 210.036 92.9669 209.376C90.8463 208.033 88.714 206.537 86.5817 205.017C84.4493 203.497 82.3405 201.883 80.2317 200.305C78.1229 198.726 76.0024 197.042 73.9525 195.475L66.8722 204.075Z" fill="#DC897C"/>
<path d="M63.2914 196.889C62.3372 208.269 84.933 219.273 84.933 219.273L92.4492 207.021C88.1568 201.711 83.4535 196.748 78.3828 192.177C71.0904 185.98 63.9276 189.326 63.2914 196.889Z" fill="#407BFF"/>
<path opacity="0.7" d="M71.0079 210.128C72.7836 211.668 74.6567 213.093 76.6157 214.392C79.2834 216.197 82.0613 217.834 84.933 219.293L92.4492 207.041C88.155 201.73 83.4476 196.766 78.371 192.197C71.0904 185.977 63.9158 189.323 63.2914 196.909C62.8909 201.622 66.5783 206.299 71.0079 210.128Z" fill="white"/>
<path d="M120.583 195.935L126.862 187.441L133.318 194.038C133.318 194.038 129.784 200.6 123.67 199.834L120.583 195.935Z" fill="#E4897B"/>
<path d="M133.633 184.188L137.273 190.267L133.315 194.037L126.859 187.44L133.633 184.188Z" fill="#E4897B"/>
<path opacity="0.2" d="M71.0075 210.132C72.7831 211.673 74.6563 213.097 76.6152 214.397C75.7002 211.377 74.3932 208.489 72.7275 205.809C71.712 207.032 71.1099 208.546 71.0075 210.132Z" fill="black"/>
<path d="M81.525 423.978L72.6539 423.742C72.4934 423.737 72.336 423.787 72.2075 423.883C72.079 423.979 71.9872 424.117 71.9471 424.272L70.0739 431.411C70.0294 431.584 70.0245 431.764 70.0596 431.938C70.0947 432.113 70.1689 432.277 70.2766 432.419C70.3843 432.561 70.5227 432.676 70.6815 432.757C70.8402 432.837 71.0151 432.881 71.1931 432.884C74.3975 432.884 79.0274 432.884 83.0447 432.966C87.7571 433.084 90.7377 432.86 96.2511 432.966C99.5851 433.061 100.634 429.727 99.2553 429.432C92.9525 427.877 88.8292 428.183 83.4571 424.72C82.8991 424.29 82.2275 424.032 81.525 423.978Z" fill="#263238"/>
<g opacity="0.4">
<path d="M81.5289 423.978L72.6579 423.743C72.4973 423.737 72.3399 423.787 72.2114 423.884C72.0829 423.98 71.9911 424.117 71.951 424.273L70.0778 431.412C70.0333 431.584 70.0284 431.764 70.0635 431.939C70.0986 432.113 70.1728 432.278 70.2805 432.419C70.3882 432.561 70.5266 432.677 70.6854 432.757C70.8441 432.838 71.0191 432.881 71.197 432.885C74.4014 432.885 79.0313 432.885 83.0486 432.967C87.761 433.085 90.7416 432.861 96.255 432.967C99.589 433.061 100.638 429.727 99.2592 429.433C92.9564 427.878 88.8331 428.184 83.461 424.72C82.903 424.29 82.2315 424.032 81.5289 423.978Z" fill="white"/>
</g>
<path d="M36.3957 423.978L27.5246 423.742C27.3641 423.737 27.2067 423.787 27.0782 423.883C26.9497 423.979 26.8578 424.117 26.8178 424.272L24.9564 431.411C24.9119 431.584 24.907 431.764 24.9421 431.938C24.9772 432.113 25.0514 432.277 25.1591 432.419C25.2668 432.561 25.4052 432.676 25.5639 432.757C25.7227 432.837 25.8976 432.881 26.0756 432.884C29.2682 432.884 33.8981 432.884 37.9272 432.966C42.6396 433.084 45.6201 432.86 51.1336 432.966C54.4676 433.061 55.5043 429.727 54.126 429.432C47.8232 427.877 43.6999 428.183 38.3278 424.72C37.7722 424.285 37.0993 424.027 36.3957 423.978Z" fill="#263238"/>
<g opacity="0.4">
<path d="M36.3957 423.978L27.5246 423.743C27.3641 423.737 27.2067 423.787 27.0782 423.884C26.9497 423.98 26.8578 424.117 26.8178 424.273L24.9564 431.412C24.9119 431.584 24.907 431.764 24.9421 431.939C24.9772 432.113 25.0514 432.278 25.1591 432.419C25.2668 432.561 25.4052 432.677 25.5639 432.757C25.7227 432.838 25.8976 432.881 26.0756 432.885C29.2682 432.885 33.8981 432.885 37.9272 432.967C42.6396 433.085 45.6201 432.861 51.1336 432.967C54.4676 433.061 55.5043 429.727 54.126 429.433C47.8232 427.878 43.6999 428.184 38.3278 424.72C37.7722 424.286 37.0993 424.027 36.3957 423.978Z" fill="white"/>
</g>
<path d="M21.2682 248.782C16.9918 267.278 25.474 425.096 25.474 425.096L39.4815 424.66L44.512 291.535L71.184 425.885L84.8027 423.847C74.9185 329.929 63.279 261.671 63.279 261.671V254.602L21.2682 248.782Z" fill="#263238"/>
<path d="M28.8664 180.291C29.3104 189.135 29.086 198 28.1949 206.81C27.6176 212.96 26.793 218.78 25.9212 224.034C23.8949 236.345 21.574 245.569 21.2088 248.774L63.2549 254.582C78.5701 211.699 72.8092 188.95 72.8092 188.95L63.1842 183.449L61.0519 182.907C55.1422 181.748 49.1714 180.926 43.1684 180.445C41.9904 180.338 40.8712 180.268 39.752 180.221C34.05 179.973 28.8664 180.291 28.8664 180.291Z" fill="#407BFF"/>
<g opacity="0.7">
<path d="M21.2673 248.783C27.4405 249.643 50.6608 252.848 63.3252 254.579C78.6404 211.709 72.8796 188.96 72.8796 188.96L63.2546 183.47C63.2546 183.47 61.8408 183.093 61.1104 182.916C55.2048 181.756 49.2379 180.934 43.2388 180.454C42.0607 180.36 40.9415 180.277 39.8223 180.23C34.0732 179.971 28.9014 180.23 28.9014 180.23C29.19 185.901 29.19 191.583 28.9014 197.253C28.7365 200.493 28.5008 203.662 28.2181 206.749C28.2181 206.89 28.2181 207.043 28.2181 207.185C27.629 213.169 26.8279 218.848 25.9797 223.973C23.8945 236.342 21.5854 245.567 21.2673 248.783Z" fill="white"/>
</g>
<path d="M44.7005 180.255C44.7005 180.255 54.3491 187.865 57.2472 187.83C59.2853 187.83 62.2305 184.484 62.2305 184.484C60.9846 183.898 59.8947 183.026 59.0496 181.94C57.0351 179.171 58.2014 175.825 59.8507 172.75L51.3802 160.969C51.2371 163.836 50.8748 166.688 50.2964 169.499C49.3422 174.105 47.6222 178.617 44.7005 180.255Z" fill="#E4897B"/>
<path opacity="0.2" d="M50.2953 169.522C51.1789 174.658 53.4172 180.584 59.0485 181.927C57.034 179.158 58.2003 175.813 59.8496 172.738L51.3791 160.957C51.2378 163.835 50.8755 166.699 50.2953 169.522Z" fill="black"/>
<path d="M57.248 187.844C57.248 187.844 54.8918 189.977 52.2176 192.038C48.9896 189.894 41.4969 184.275 42.4041 180.034C43.0285 178.855 46.3978 178.443 46.3978 178.443C46.3978 178.443 49.402 183.497 57.248 187.844Z" fill="#407BFF"/>
<path d="M57.245 187.842C58.7786 189.403 60.08 191.176 61.1091 193.108C63.8423 191.765 63.5242 183.624 62.6996 182.635C61.4576 181.73 60.0066 181.154 58.482 180.962C58.8526 182.122 58.9336 183.356 58.718 184.555C58.5024 185.755 57.9967 186.883 57.245 187.842Z" fill="#407BFF"/>
<g opacity="0.5">
<path d="M57.25 187.838C57.25 187.838 54.8938 189.971 52.2195 192.032C48.9916 189.888 41.4989 184.269 42.406 180.027C43.0304 178.849 46.3997 178.437 46.3997 178.437C46.3997 178.437 49.4039 183.491 57.25 187.838Z" fill="white"/>
<path d="M57.2489 187.84C58.7825 189.401 60.0839 191.175 61.113 193.106C63.8462 191.763 63.5281 183.622 62.7035 182.633C61.4615 181.728 60.0105 181.152 58.4859 180.96C58.8565 182.121 58.9375 183.354 58.7219 184.554C58.5063 185.753 58.0006 186.881 57.2489 187.84Z" fill="white"/>
</g>
<path opacity="0.2" d="M49.2479 317.325L44.5356 291.524L45.4427 277.882C45.4427 277.882 51.8987 301.55 49.2479 317.325Z" fill="black"/>
<path d="M72.8934 152.604C73.8241 155.867 73.0819 162.5 68.6169 160.214C64.1519 157.929 71.2912 146.984 72.8934 152.604Z" fill="#263238"/>
<path d="M49.4363 156.326C48.7059 164.644 47.8577 169.474 51.392 174.28C56.717 181.526 67.4847 179.181 70.6891 171.229C73.5755 164.078 74.2823 151.685 66.6836 147.278C65.0015 146.3 63.0984 145.764 61.1526 145.721C59.2068 145.678 57.2821 146.13 55.5586 147.034C53.8351 147.938 52.3692 149.265 51.2985 150.89C50.2277 152.515 49.587 154.386 49.4363 156.326Z" fill="#E4897B"/>
<path d="M61.6177 160.39C61.5235 161.049 61.7944 161.65 62.2303 161.709C62.6662 161.768 63.1139 161.273 63.2199 160.602C63.3259 159.93 63.0432 159.341 62.5955 159.282C62.1478 159.223 61.7237 159.765 61.6177 160.39Z" fill="#263238"/>
<path d="M69.2288 161.454C69.1227 162.126 69.4055 162.715 69.8414 162.774C70.2773 162.833 70.7249 162.35 70.8192 161.678C70.9134 161.007 70.6425 160.406 70.2066 160.347C69.7707 160.288 69.323 160.783 69.2288 161.454Z" fill="#263238"/>
<path d="M66.7567 161.44C67.2898 163.542 68.1104 165.56 69.1953 167.437C68.6867 167.682 68.1321 167.817 67.5678 167.833C67.0035 167.849 66.4421 167.746 65.9202 167.531L66.7567 161.44Z" fill="#DE5753"/>
<path d="M59.6386 157.608C59.7088 157.626 59.7825 157.626 59.8527 157.608C59.9228 157.589 59.987 157.553 60.0391 157.502C60.3849 157.139 60.8119 156.864 61.285 156.698C61.7581 156.532 62.2638 156.481 62.7605 156.548C62.865 156.569 62.9737 156.549 63.0638 156.492C63.1538 156.435 63.2183 156.345 63.2435 156.242C63.2556 156.191 63.2572 156.138 63.2481 156.086C63.2391 156.034 63.2197 155.985 63.1911 155.941C63.1625 155.897 63.1252 155.859 63.0816 155.83C63.0379 155.8 62.9888 155.78 62.9372 155.771C62.3077 155.674 61.6641 155.73 61.0611 155.935C60.4582 156.141 59.9136 156.488 59.4736 156.949C59.3988 157.024 59.3568 157.125 59.3568 157.231C59.3568 157.337 59.3988 157.439 59.4736 157.514C59.522 157.556 59.578 157.588 59.6386 157.608Z" fill="#263238"/>
<path d="M72.8943 159.295C72.9641 159.316 73.0382 159.317 73.1087 159.299C73.1792 159.28 73.2433 159.243 73.2942 159.191C73.3451 159.139 73.3808 159.074 73.3975 159.003C73.4142 158.932 73.4113 158.858 73.389 158.789C73.2119 158.183 72.8914 157.629 72.4545 157.174C72.0177 156.718 71.4775 156.375 70.8797 156.173C70.7782 156.148 70.6709 156.163 70.5806 156.216C70.4904 156.269 70.4244 156.355 70.3967 156.456C70.3806 156.506 70.3748 156.559 70.3798 156.612C70.3848 156.664 70.4005 156.715 70.4259 156.762C70.4512 156.808 70.4857 156.849 70.5273 156.881C70.5689 156.914 70.6166 156.937 70.6676 156.951C71.1401 157.11 71.5659 157.384 71.9071 157.748C72.2482 158.112 72.4943 158.554 72.6233 159.036C72.6456 159.097 72.6816 159.152 72.7285 159.197C72.7755 159.242 72.8322 159.276 72.8943 159.295Z" fill="#263238"/>
<path d="M63.3002 151.52C63.3002 151.52 61.2503 149.577 59.978 151.191C58.7056 152.805 58.1166 157.493 58.1166 157.493L57.7749 156.598C57.7749 156.598 53.416 166.624 49.5283 163.407C45.6406 160.191 40.8458 148.764 51.5193 144.735C51.5193 144.735 52.9212 142.378 59.6481 142.025C66.375 141.672 73.7852 146.82 74.5156 151.344C75.2461 155.868 73.043 158.012 73.043 158.012C72.9578 157.042 72.6471 156.107 72.1359 155.279C71.9896 155.709 71.7385 156.095 71.4053 156.404C71.0721 156.712 70.6673 156.933 70.2274 157.046C70.4178 156.166 70.3524 155.25 70.0389 154.407C69.7311 155.15 69.26 155.814 68.6605 156.351C68.7901 151.815 65.8802 150.46 64.9142 150.389C64.5597 150.381 64.2117 150.486 63.9213 150.69C63.6309 150.893 63.4133 151.184 63.3002 151.52Z" fill="#263238"/>
<path d="M45.2199 162.715C45.3872 163.738 45.7556 164.717 46.3035 165.597C46.8515 166.476 47.5683 167.239 48.4126 167.84C50.6863 169.43 52.7715 167.616 52.9246 164.989C53.066 162.633 52.0528 158.933 49.3904 158.391C48.8054 158.284 48.203 158.323 47.6368 158.505C47.0706 158.687 46.5582 159.006 46.1453 159.435C45.7325 159.863 45.4319 160.386 45.2704 160.958C45.1089 161.531 45.0916 162.134 45.2199 162.715Z" fill="#E4897B"/>
<path d="M65.2832 170.261C64.473 170.905 63.7093 171.606 62.9977 172.358L62.5501 172.052C60.512 170.638 60.0289 169.319 60.1114 168.27C60.1618 167.764 60.3357 167.279 60.618 166.856C60.7687 166.607 60.9552 166.38 61.1717 166.185C62.0418 167.596 63.2074 168.802 64.5881 169.719C65.0005 170.084 65.2832 170.261 65.2832 170.261Z" fill="#263238"/>
<path d="M64.5879 169.769L63.9046 170.37C61.9843 169.038 60.818 167.848 60.6177 166.835C60.7684 166.586 60.955 166.359 61.1714 166.164C62.0334 167.6 63.1995 168.831 64.5879 169.769Z" fill="white"/>
<path d="M62.4997 172.053C60.4616 170.639 59.9786 169.319 60.0611 168.271C60.8233 168.826 61.4848 169.507 62.0167 170.286C62.3549 170.811 62.5235 171.428 62.4997 172.053Z" fill="#A24E3F"/>
<path d="M63.3023 256.727L64.1152 252.274L21.2562 245.971L20.5965 253.758L63.3023 256.727Z" fill="#263238"/>
<path d="M60.6516 252.955L60.2746 255.417L63.7029 255.829L64.1152 253.379L60.6516 252.955Z" fill="black"/>
<path d="M36.7492 249.961L36.3604 252.565L58.7324 255.239L59.1094 252.753L36.7492 249.961Z" fill="black"/>
<path d="M20.5948 250.679L34.8026 252.375L35.2031 249.783L20.8422 247.981L20.5948 250.679Z" fill="black"/>
<path d="M51.5358 252.718L51.3709 253.578C51.3282 253.784 51.2105 253.967 51.0408 254.091C50.871 254.215 50.6611 254.272 50.452 254.25L46.741 253.802C46.6285 253.789 46.5197 253.754 46.4214 253.698C46.323 253.641 46.2371 253.566 46.1688 253.476C46.1005 253.385 46.0513 253.282 46.0241 253.172C45.9969 253.062 45.9923 252.948 46.0106 252.836L46.1166 251.953C46.1297 251.843 46.1642 251.738 46.2181 251.642C46.272 251.547 46.3442 251.462 46.4306 251.394C46.5171 251.327 46.616 251.277 46.7218 251.247C46.8276 251.217 46.9382 251.209 47.0473 251.222L50.8172 251.693C50.9347 251.707 51.0481 251.745 51.1498 251.805C51.2514 251.866 51.3391 251.947 51.407 252.044C51.475 252.141 51.5215 252.251 51.5437 252.367C51.5659 252.484 51.5632 252.603 51.5358 252.718V252.718Z" stroke="white" stroke-width="0.589046" stroke-linecap="round" stroke-linejoin="round"/>
<path d="M48.0117 252.621L46.8454 252.479" stroke="white" stroke-width="0.589046" stroke-linecap="round" stroke-linejoin="round"/>
<path d="M15.3776 241.776L25.9805 241.069L25.1087 250.27C25.1087 250.27 17.8045 251.802 14.4469 246.642L15.3776 241.776Z" fill="#E4897B"/>
<path d="M32.7305 244.156L30.445 250.859L25.0022 250.27L25.8622 241.069L32.7305 244.156Z" fill="#E4897B"/>
<path opacity="0.2" d="M28.1606 207.246C31.0233 202.981 31.7891 195.866 31.7891 195.866C30.7125 196.086 29.713 196.586 28.891 197.315C28.726 200.555 28.4904 203.724 28.2077 206.81C28.1959 206.952 28.1841 207.105 28.1606 207.246Z" fill="black"/>
<path d="M24.472 183.213C20.3102 187.286 16.3584 191.568 12.6322 196.043C10.7354 198.281 8.89757 200.59 7.154 203.111C6.28221 204.348 5.41043 205.62 4.58576 207.011C3.6259 208.571 2.836 210.23 2.22958 211.959C1.88356 213.105 1.70888 214.296 1.71122 215.493C1.712 216.431 1.78287 217.369 1.92327 218.297C2.17718 219.914 2.53929 221.511 3.00713 223.08C3.87965 225.967 4.93418 228.796 6.1644 231.55C8.53458 236.888 11.2908 242.046 14.411 246.983L19.3473 244.521C17.4623 239.267 15.6127 233.918 14.0458 228.652C13.2614 226.088 12.6086 223.485 12.0902 220.853C11.8455 219.669 11.688 218.468 11.619 217.26C11.5888 216.774 11.5888 216.286 11.619 215.799C11.619 215.399 11.7486 215.116 11.7721 215.163C12.2226 214.25 12.7466 213.375 13.339 212.548C14.0458 211.546 14.8234 210.498 15.6952 209.461C17.3563 207.388 19.1588 205.314 20.9848 203.252C22.8109 201.191 24.7311 199.176 26.6397 197.138C28.5482 195.1 30.5038 193.086 32.377 191.106L24.472 183.213Z" fill="#DC897C"/>
<path d="M31.7531 180.268C20.467 178.525 7.88495 200.296 7.88495 200.296L19.5834 208.648C25.1813 204.755 30.4601 200.421 35.3698 195.689C42.0967 188.809 39.2575 181.434 31.7531 180.268Z" fill="#407BFF"/>
<path opacity="0.7" d="M31.7531 180.268C20.467 178.525 7.88495 200.296 7.88495 200.296L19.5834 208.648C25.1813 204.755 30.4601 200.421 35.3698 195.689C42.0967 188.809 39.2575 181.434 31.7531 180.268Z" fill="white"/>
<path d="M131.996 430.718L131.124 433.016L130.229 430.73L130.111 418.784L131.878 418.772L131.996 430.718Z" fill="#263238"/>
<path d="M124.34 179.397L133.069 179.313L132.838 155.199C132.833 154.768 132.658 154.356 132.35 154.054C132.043 153.752 131.627 153.585 131.196 153.589L125.718 153.641C125.287 153.645 124.875 153.821 124.573 154.128C124.272 154.436 124.104 154.851 124.108 155.283L124.34 179.397Z" fill="#263238"/>
<path opacity="0.3" d="M133.047 179.3L124.317 179.382L124.082 155.22C124.081 154.801 124.245 154.398 124.538 154.099C124.831 153.799 125.23 153.627 125.648 153.617H131.221C131.428 153.614 131.633 153.652 131.825 153.729C132.017 153.805 132.192 153.919 132.34 154.064C132.488 154.208 132.605 154.381 132.686 154.571C132.767 154.761 132.81 154.966 132.811 155.172L133.047 179.3Z" fill="white"/>
<path d="M134.568 173.41L122.681 173.528C121.62 173.54 120.605 173.963 119.849 174.708C119.093 175.452 118.656 176.461 118.628 177.522C116.673 252.873 117.458 328.235 120.984 403.61C120.984 403.61 122.987 418.772 129.655 428.503H132.589C139.08 418.654 140.835 403.456 140.835 403.456C142.807 328.082 142.096 252.704 138.703 177.322C138.654 176.261 138.196 175.261 137.425 174.531C136.653 173.802 135.629 173.4 134.568 173.41Z" fill="#263238"/>
<path d="M142.871 170.252L122.844 170.441C122.684 170.44 122.526 170.473 122.379 170.536C122.232 170.598 122.099 170.69 121.989 170.806C121.879 170.922 121.793 171.059 121.738 171.209C121.682 171.358 121.657 171.518 121.665 171.678V173.692L142.046 173.492C143.766 203.839 142.753 229.133 142.753 229.133L141.269 229.864L142.883 235.754C146.476 225.634 144.674 179.995 144.297 171.583C144.291 171.402 144.249 171.224 144.174 171.059C144.099 170.894 143.992 170.746 143.86 170.622C143.727 170.499 143.572 170.402 143.402 170.339C143.233 170.275 143.052 170.246 142.871 170.252Z" fill="#263238"/>
<path d="M141.857 287.028L117.613 287.261L117.569 282.608L141.813 282.375L141.857 287.028Z" fill="#263238"/>
<path d="M117.212 325.878C117.699 348.293 118.413 370.677 119.356 393.029C119.377 393.519 119.589 393.981 119.945 394.317C120.301 394.654 120.774 394.838 121.264 394.832L140.255 394.62C140.745 394.613 141.213 394.417 141.561 394.072C141.908 393.727 142.107 393.26 142.117 392.77C142.651 370.457 142.933 348.073 142.965 325.619C142.965 325.369 142.915 325.121 142.819 324.89C142.723 324.659 142.583 324.45 142.405 324.273C142.228 324.097 142.017 323.958 141.786 323.863C141.554 323.768 141.306 323.72 141.056 323.722L119.073 323.934C118.823 323.939 118.576 323.993 118.347 324.093C118.118 324.193 117.911 324.338 117.738 324.519C117.565 324.699 117.429 324.912 117.339 325.146C117.249 325.379 117.206 325.628 117.212 325.878Z" fill="#263238"/>
<path opacity="0.2" d="M141.857 287.028L117.613 287.261L117.569 282.608L141.813 282.375L141.857 287.028Z" fill="black"/>
<path opacity="0.6" d="M142.871 170.252L122.844 170.441C122.684 170.44 122.526 170.473 122.379 170.536C122.232 170.598 122.099 170.69 121.989 170.806C121.879 170.922 121.793 171.059 121.738 171.209C121.682 171.358 121.657 171.518 121.665 171.678V173.692L142.046 173.492C143.766 203.839 142.753 229.133 142.753 229.133L141.269 229.864L142.883 235.754C146.476 225.634 144.674 179.995 144.297 171.583C144.291 171.402 144.249 171.224 144.174 171.059C144.099 170.894 143.992 170.746 143.86 170.622C143.727 170.499 143.572 170.402 143.402 170.339C143.233 170.275 143.052 170.246 142.871 170.252Z" fill="white"/>
<path opacity="0.3" d="M117.212 325.878C117.699 348.293 118.413 370.677 119.356 393.029C119.377 393.519 119.589 393.981 119.945 394.317C120.301 394.654 120.774 394.838 121.264 394.832L140.255 394.62C140.745 394.613 141.213 394.417 141.561 394.072C141.908 393.727 142.107 393.26 142.117 392.77C142.651 370.457 142.933 348.073 142.965 325.619C142.965 325.369 142.915 325.121 142.819 324.89C142.723 324.659 142.583 324.45 142.405 324.273C142.228 324.097 142.017 323.958 141.786 323.863C141.554 323.768 141.306 323.72 141.056 323.722L119.073 323.934C118.823 323.939 118.576 323.993 118.347 324.093C118.118 324.193 117.911 324.338 117.738 324.519C117.565 324.699 117.429 324.912 117.339 325.146C117.249 325.379 117.206 325.628 117.212 325.878Z" fill="white"/>
<path d="M248.882 420.922C268.07 415.242 282.903 439.078 250.107 453.052C217.311 467.025 171.858 455.683 196.013 427.944C220.168 400.206 268.921 399.195 285.557 407.559C302.193 415.922 298.213 436.325 286.237 435.297C274.262 434.269 296.75 414.911 313.454 416.253C330.159 417.595 326.586 437.161 316.856 435.036C307.126 432.91 326.076 421.585 339.208 421.933C352.34 422.282 348.938 435.436 341.692 435.036C334.445 434.635 347.475 424.268 375.713 424.93" stroke="black" stroke-miterlimit="10"/>
</g>
<defs>
<filter id="filter0_d_3966_8939" x="117.713" y="32" width="484" height="419" filterUnits="userSpaceOnUse" color-interpolation-filters="sRGB">
<feFlood flood-opacity="0" result="BackgroundImageFix"/>
<feColorMatrix in="SourceAlpha" type="matrix" values="0 0 0 0 0 0 0 0 0 0 0 0 0 0 0 0 0 0 127 0" result="hardAlpha"/>
<feMorphology radius="1" operator="dilate" in="SourceAlpha" result="effect1_dropShadow_3966_8939"/>
<feOffset dy="15"/>
<feGaussianBlur stdDeviation="22.5"/>
<feComposite in2="hardAlpha" operator="out"/>
<feColorMatrix type="matrix" values="0 0 0 0 0.839216 0 0 0 0 0.921569 0 0 0 0 1 0 0 0 0.25 0"/>
<feBlend mode="normal" in2="BackgroundImageFix" result="effect1_dropShadow_3966_8939"/>
<feBlend mode="normal" in="SourceGraphic" in2="effect1_dropShadow_3966_8939" result="shape"/>
</filter>
<clipPath id="clip0_3966_8939">
<rect width="608" height="473" fill="white" transform="translate(0.712891)"/>
</clipPath>
<clipPath id="clip1_3966_8939">
<rect x="163.713" y="63" width="392" height="327" rx="16" fill="white"/>
</clipPath>
</defs>
</svg>
