<svg width="501" height="501" viewBox="0 0 501 501" fill="none" xmlns="http://www.w3.org/2000/svg">
<g clip-path="url(#clip0_3624_10537)">
<path d="M0.078125 382.427H500.078V382.677H0.078125V382.427Z" fill="#EBEBEB"/>
<path d="M299.639 391.947H325.639V392.197H299.639V391.947Z" fill="#EBEBEB"/>
<path d="M393.517 389.237H447.617V389.487H393.517V389.237Z" fill="#EBEBEB"/>
<path d="M326.639 401.237H352.959V401.487H326.639V401.237Z" fill="#EBEBEB"/>
<path d="M203.018 399.557H241.848V399.807H203.018V399.557Z" fill="#EBEBEB"/>
<path d="M183.427 399.557H194.117V399.807H183.427V399.557Z" fill="#EBEBEB"/>
<path d="M50.1685 395.337H104.729V395.587H50.1685V395.337Z" fill="#EBEBEB"/>
<path d="M263.077 337.827H456.167C457.68 337.825 459.13 337.222 460.198 336.151C461.267 335.081 461.867 333.63 461.867 332.117V60.6873C461.854 59.1834 461.248 57.7453 460.181 56.6856C459.113 55.6258 457.671 55.0299 456.167 55.0273H263.077C261.563 55.0273 260.11 55.6289 259.04 56.6998C257.969 57.7706 257.367 59.223 257.367 60.7373V332.117C257.367 333.632 257.969 335.084 259.04 336.155C260.11 337.226 261.563 337.827 263.077 337.827ZM456.167 55.2273C457.614 55.23 459 55.8064 460.022 56.8301C461.043 57.8537 461.617 59.241 461.617 60.6873V332.117C461.617 333.564 461.043 334.951 460.022 335.975C459 336.998 457.614 337.575 456.167 337.577H263.077C261.63 337.575 260.243 336.999 259.219 335.975C258.196 334.952 257.62 333.565 257.617 332.117V60.6873C257.62 59.2401 258.196 57.8528 259.219 56.8295C260.243 55.8061 261.63 55.23 263.077 55.2273H456.167Z" fill="#EBEBEB"/>
<path d="M46.7681 337.827H239.868C241.382 337.825 242.833 337.222 243.903 336.152C244.973 335.082 245.575 333.631 245.578 332.117V60.6873C245.562 59.1825 244.954 57.7444 243.885 56.6849C242.816 55.6255 241.373 55.0299 239.868 55.0273H46.7681C45.2658 55.0325 43.8261 55.6296 42.761 56.6891C41.6959 57.7486 41.0913 59.1851 41.0781 60.6873V332.117C41.0781 333.628 41.677 335.078 42.7435 336.148C43.81 337.218 45.2572 337.822 46.7681 337.827ZM239.868 55.2273C241.315 55.23 242.703 55.8061 243.726 56.8295C244.749 57.8528 245.325 59.2401 245.328 60.6873V332.117C245.325 333.565 244.749 334.952 243.726 335.975C242.703 336.999 241.315 337.575 239.868 337.577H46.7681C45.3209 337.575 43.9336 336.999 42.9102 335.975C41.8869 334.952 41.3108 333.565 41.3081 332.117V60.6873C41.3108 59.2401 41.8869 57.8528 42.9102 56.8295C43.9336 55.8061 45.3209 55.23 46.7681 55.2273H239.868Z" fill="#EBEBEB"/>
<path d="M287.928 382.427C287.928 382.427 303.788 363.487 305.638 343.547C308.328 314.667 279.418 349.607 270.818 342.177C262.218 334.747 289.428 300.337 267.388 293.657C245.348 286.977 240.018 312.247 231.298 330.727C217.008 361.027 216.078 284.107 192.078 321.027C176.428 345.107 184.858 382.417 184.858 382.417L287.928 382.427Z" fill="#F5F5F5"/>
<path d="M186.809 382.427C186.809 382.427 203.619 365.307 198.899 347.237C192.059 321.037 180.899 352.737 172.059 345.997C163.219 339.257 173.309 308.057 154.539 301.997C135.769 295.937 139.479 318.857 138.539 335.627C137.009 363.087 112.699 293.357 105.839 326.857C101.369 348.687 120.839 382.417 120.839 382.417L186.809 382.427Z" fill="#F5F5F5"/>
<path d="M146.318 382.427C145.548 380.517 143.168 366.857 121.218 356.007C130.648 368.597 133.218 378.007 132.728 382.427H146.318Z" fill="#E0E0E0"/>
<path d="M394.378 382.427C394.438 379.547 396.748 355.007 418.898 342.637C412.178 361.637 413.658 375.847 416.698 382.427H394.378Z" fill="#F5F5F5"/>
<path d="M406.678 382.427C407.228 380.537 407.778 367.037 429.678 356.317C421.418 368.757 420.068 378.107 421.208 382.427H406.678Z" fill="#F5F5F5"/>
<path d="M330.498 382.427C330.498 380.667 329.338 365.677 318.498 358.117C321.788 369.697 321.058 378.407 319.568 382.427H330.498Z" fill="#F5F5F5"/>
<path d="M324.479 382.428C324.219 381.268 323.949 373.028 313.219 366.478C317.219 374.078 317.919 379.788 317.359 382.428H324.479Z" fill="#F5F5F5"/>
<path d="M259.648 382.427C260.258 380.137 260.868 363.837 285.318 350.877C276.108 365.877 274.608 377.207 275.868 382.427H259.648Z" fill="#E0E0E0"/>
<path d="M251.927 382.427C251.747 380.697 247.677 368.367 262.547 358.577C259.777 369.947 261.787 378.487 264.197 382.427H251.927Z" fill="#E0E0E0"/>
<path d="M138.459 382.427C138.639 381.027 137.659 371.047 151.539 363.117C147.159 372.317 147.179 379.237 148.389 382.427H138.459Z" fill="white"/>
<path d="M118.138 150.537C99.9884 145.037 125.758 132.537 154.188 131.317C221.328 128.377 237.748 113.317 285.328 108.077C300.148 106.447 289.928 128.517 255.618 138.237C212.158 150.547 136.848 143.367 155.268 151.097C173.688 158.827 154.148 181.897 115.408 174.867C85.4084 169.427 43.1684 193.797 58.3284 172.707C67.9184 159.367 90.4484 164.227 100.858 163.267C111.268 162.307 144.988 158.677 118.138 150.537Z" fill="#F5F5F5"/>
<path d="M137.458 195.637C143.818 198.147 159.778 192.707 169.918 192.887C180.058 193.067 195.788 196.887 203.988 188.717C212.188 180.547 169.728 185.267 160.988 186.057C144.778 187.507 128.148 192.027 137.458 195.637Z" fill="#FAFAFA"/>
<path d="M103.397 79.1175C99.9174 75.6875 90.3274 82.0475 84.4974 81.4375C78.6674 80.8275 69.8774 75.4375 64.5574 85.5175C59.2374 95.5975 84.0574 91.1775 89.1474 90.5175C98.5874 89.2475 108.497 84.1475 103.397 79.1175Z" fill="#F5F5F5"/>
<path d="M431.138 148.417C427.658 144.987 418.068 151.347 412.238 150.737C406.408 150.127 397.618 144.687 392.298 154.817C386.978 164.947 411.788 160.477 416.888 159.817C426.328 158.547 436.238 153.447 431.138 148.417Z" fill="#F5F5F5"/>
<path d="M401.147 77.1973C392.047 84.2573 366.477 78.6073 351.087 82.2673C335.697 85.9273 312.637 98.6173 298.237 85.0273C283.837 71.4373 349.597 67.0273 363.077 65.7373C388.077 63.3673 414.477 66.8673 401.147 77.1973Z" fill="#FAFAFA"/>
<path d="M303.577 260.917C290.627 242.557 311.477 114.247 339.517 105.917C367.557 97.5874 369.217 241.797 359.057 258.917C347.587 278.247 317.667 280.917 303.577 260.917Z" fill="#EBEBEB"/>
<path d="M329.658 224.027C328.554 224.026 327.489 224.435 326.669 225.174C325.849 225.913 325.332 226.929 325.218 228.027C320.614 279.384 320.741 331.054 325.598 382.387H334.508C329.692 331.334 329.548 279.947 334.078 228.867C334.135 228.253 334.063 227.633 333.867 227.048C333.67 226.463 333.354 225.926 332.938 225.47C332.522 225.014 332.015 224.651 331.45 224.402C330.885 224.154 330.275 224.026 329.658 224.027Z" fill="#E0E0E0"/>
<path d="M97.9985 314.547C105.228 304.297 93.5785 232.627 77.9185 227.967C62.2585 223.307 61.3285 303.867 66.9985 313.437C73.4085 324.237 90.0785 325.727 97.9985 314.547Z" fill="#EBEBEB"/>
<path d="M73.8084 287.027C74.1294 286.924 74.4191 286.742 74.6507 286.497C74.8822 286.252 75.0481 285.952 75.1329 285.626C75.2177 285.3 75.2187 284.957 75.1357 284.631C75.0528 284.304 74.8886 284.003 74.6584 283.757L70.8984 279.437C70.5417 279.026 70.0363 278.774 69.4934 278.735C68.9504 278.697 68.4145 278.875 68.0034 279.232C67.5923 279.589 67.3398 280.094 67.3013 280.637C67.2629 281.18 67.4417 281.716 67.7984 282.127L71.5584 286.447C71.8264 286.766 72.1872 286.993 72.5906 287.097C72.9939 287.201 73.4197 287.177 73.8084 287.027Z" fill="white"/>
<path d="M87.8481 266.077C88.2623 266.057 88.6599 265.909 88.986 265.652C89.3121 265.396 89.5505 265.045 89.6681 264.647L91.6681 258.477C91.8339 257.959 91.7869 257.396 91.5375 256.912C91.2881 256.428 90.8567 256.063 90.3382 255.897C89.8197 255.732 89.2565 255.779 88.7727 256.028C88.2889 256.277 87.9239 256.709 87.7581 257.227L85.7581 263.407C85.6708 263.666 85.6357 263.939 85.6549 264.212C85.6741 264.484 85.7473 264.75 85.8701 264.993C85.9929 265.237 86.163 265.454 86.3704 265.632C86.5777 265.809 86.8183 265.944 87.0781 266.027C87.3299 266.089 87.5905 266.106 87.8481 266.077Z" fill="white"/>
<path d="M83.4288 293.947C84.0488 293.949 84.646 294.182 85.1043 294.6C85.5625 295.017 85.8493 295.59 85.9088 296.207C88.4789 324.893 88.4086 353.754 85.6988 382.427H80.6988C83.3934 353.901 83.4737 325.188 80.9388 296.647C80.9081 296.303 80.9498 295.956 81.0613 295.628C81.1727 295.301 81.3514 295 81.5859 294.746C81.8204 294.492 82.1055 294.289 82.4229 294.152C82.7403 294.014 83.0829 293.945 83.4288 293.947Z" fill="#E0E0E0"/>
<path d="M340.169 217.607C340.622 217.609 341.07 217.521 341.489 217.347L358.779 210.247C359.638 209.895 360.322 209.215 360.68 208.358C361.038 207.501 361.042 206.537 360.689 205.677C360.336 204.818 359.656 204.134 358.799 203.776C357.942 203.418 356.978 203.415 356.119 203.767L338.829 210.867C338.077 211.175 337.455 211.734 337.07 212.45C336.685 213.165 336.561 213.993 336.72 214.79C336.878 215.587 337.309 216.304 337.938 216.818C338.568 217.332 339.356 217.611 340.169 217.607Z" fill="white"/>
<path d="M317.219 200.487C317.646 200.489 318.07 200.411 318.469 200.257C319.331 199.92 320.024 199.256 320.399 198.409C320.774 197.563 320.799 196.602 320.469 195.737L316.969 186.597C316.637 185.73 315.975 185.03 315.127 184.651C314.279 184.273 313.316 184.246 312.449 184.577C311.581 184.909 310.881 185.571 310.502 186.419C310.124 187.267 310.097 188.23 310.429 189.097L313.929 198.237C314.183 198.903 314.634 199.474 315.222 199.877C315.81 200.279 316.506 200.492 317.219 200.487Z" fill="white"/>
<path d="M343.189 177.257C343.893 177.258 344.58 177.046 345.161 176.65C345.743 176.254 346.192 175.692 346.449 175.037L350.449 164.737C350.616 164.309 350.698 163.852 350.689 163.393C350.68 162.933 350.58 162.48 350.396 162.059C350.211 161.638 349.946 161.257 349.614 160.938C349.283 160.62 348.892 160.37 348.464 160.202C348.036 160.035 347.579 159.953 347.119 159.963C346.66 159.972 346.206 160.071 345.785 160.256C345.364 160.44 344.984 160.705 344.665 161.037C344.347 161.368 344.096 161.759 343.929 162.187L339.929 172.487C339.761 172.916 339.68 173.374 339.69 173.834C339.7 174.294 339.801 174.747 339.986 175.169C340.172 175.59 340.44 175.97 340.773 176.287C341.106 176.604 341.499 176.853 341.929 177.017C342.33 177.178 342.757 177.259 343.189 177.257Z" fill="white"/>
<path d="M250.079 427.587C142.996 427.587 56.1887 422.519 56.1887 416.267C56.1887 410.015 142.996 404.947 250.079 404.947C357.161 404.947 443.969 410.015 443.969 416.267C443.969 422.519 357.161 427.587 250.079 427.587Z" fill="#F5F5F5"/>
<path d="M336.958 416.807C337.065 416.808 337.17 416.777 337.258 416.717C347.438 409.927 343.678 402.207 339.328 393.267C333.688 381.657 326.658 367.207 345.328 347.557C361.218 330.857 368.938 314.857 367.058 302.497C366.589 299.256 365.358 296.173 363.467 293.5C361.575 290.826 359.078 288.639 356.178 287.117C356.046 287.047 355.891 287.032 355.747 287.076C355.604 287.12 355.484 287.22 355.413 287.352C355.343 287.485 355.328 287.64 355.373 287.783C355.417 287.927 355.516 288.047 355.648 288.117C358.404 289.559 360.778 291.632 362.577 294.168C364.376 296.704 365.549 299.631 365.998 302.707C367.818 314.707 360.198 330.417 344.538 346.867C325.328 367.057 332.538 381.867 338.328 393.787C342.628 402.627 346.028 409.607 336.628 415.867C336.511 415.948 336.43 416.072 336.402 416.212C336.374 416.352 336.401 416.497 336.478 416.617C336.538 416.684 336.612 416.737 336.696 416.77C336.779 416.803 336.869 416.815 336.958 416.807Z" fill="#02861F"/>
<path d="M359.578 290.087C352.908 282.687 355.448 271.707 357.768 265.887C362.998 268.027 367.248 281.837 359.578 290.087Z" fill="#02861F"/>
<path d="M359.588 328.417C368.238 312.007 384.328 309.967 393.398 309.207C388.028 320.027 373.908 333.477 359.588 328.417Z" fill="#02861F"/>
<path d="M341.948 399.557C330.458 380.697 350.308 367.067 360.748 353.307C364.768 367.207 361.798 391.107 341.948 399.557Z" fill="#02861F"/>
<path d="M343.749 348.497C357.689 332.177 354.499 320.347 350.749 312.707C343.219 322.377 331.889 339.527 343.749 348.497Z" fill="#02861F"/>
<path d="M363.709 294.507C359.649 289.687 352.619 290.397 348.809 291.397C349.719 294.877 357.949 298.687 363.709 294.507Z" fill="#02861F"/>
<path d="M333.668 381.027C332.138 368.577 326.668 369.547 322.468 364.027C321.942 365.886 321.822 367.836 322.117 369.745C322.412 371.654 323.115 373.477 324.178 375.09C325.241 376.703 326.638 378.068 328.276 379.093C329.914 380.117 331.753 380.777 333.668 381.027Z" fill="#02861F"/>
<path d="M170.007 148.457C176.747 150.007 186.317 153.797 194.807 157.187C194.679 156.551 194.605 155.906 194.587 155.257C195.027 156.047 195.467 156.827 195.897 157.627L196.217 157.757C196.182 156.9 196.242 156.041 196.397 155.197C196.623 156.332 197.113 157.397 197.827 158.307C197.86 158.356 197.897 158.403 197.937 158.447L199.637 159.137C199.432 157.427 199.432 155.698 199.637 153.987C199.786 155.613 200.047 157.227 200.417 158.817C200.477 159.057 200.527 159.297 200.597 159.547L202.807 160.457C202.957 159.847 203.117 159.237 203.277 158.627L204.077 161.027L204.997 161.407C205.126 160.487 205.337 159.58 205.627 158.697C205.721 159.777 205.902 160.847 206.167 161.897L206.917 162.217C206.955 160.576 207.149 158.942 207.497 157.337C207.647 158.587 207.797 159.817 207.937 161.057L208.147 162.727C211.437 164.127 213.497 165.037 213.497 165.037C213.497 165.037 213.737 153.137 213.497 135.097C213.257 117.057 209.667 102.297 202.307 95.0972C194.947 87.8972 179.247 86.6272 171.837 93.0272C164.427 99.4272 162.337 114.447 165.147 129.117C166.777 137.607 151.077 144.097 170.007 148.457Z" fill="#263238"/>
<path d="M235.888 230.207L235.188 228.077C234.912 227.239 234.454 226.471 233.848 225.83C233.241 225.189 232.5 224.689 231.678 224.367L222.428 220.717L217.798 222.977C219.038 228.027 224.738 233.127 224.738 233.127L226.188 234.717C226.795 235.413 227.618 235.883 228.525 236.054C229.432 236.224 230.37 236.085 231.188 235.657L234.668 233.657C235.246 233.318 235.685 232.786 235.908 232.155C236.131 231.524 236.124 230.834 235.888 230.207Z" fill="#B55B52"/>
<path d="M183.658 171.577C183.838 173.267 184.028 174.747 184.258 176.297C184.488 177.847 184.758 179.367 185.028 180.887C185.598 183.887 186.248 186.967 187.028 189.987C187.808 193.007 188.648 195.987 189.618 198.987C190.588 201.987 191.718 204.937 192.948 207.877L193.118 208.287C193.354 208.849 193.694 209.361 194.118 209.797C196.198 211.878 198.453 213.775 200.858 215.467C203.098 217.127 205.398 218.607 207.688 220.047C209.978 221.487 212.318 222.817 214.688 224.047C217.058 225.277 219.418 226.547 221.918 227.667C222.666 228.005 223.51 228.065 224.298 227.835C225.086 227.606 225.766 227.102 226.215 226.415C226.664 225.728 226.852 224.903 226.747 224.09C226.641 223.276 226.248 222.527 225.638 221.977H225.588C223.658 220.247 221.658 218.527 219.698 216.827C217.738 215.127 215.758 213.427 213.838 211.717C211.918 210.007 210.018 208.297 208.208 206.597C206.494 205.016 204.884 203.326 203.388 201.537L204.548 203.447C203.698 200.777 202.928 198.067 202.218 195.307C201.508 192.547 200.878 189.747 200.308 186.927C199.738 184.107 199.188 181.277 198.698 178.427L197.988 174.167L197.338 169.997V169.797C197.222 168.902 196.931 168.039 196.481 167.257C196.031 166.474 195.431 165.788 194.716 165.238C194.001 164.687 193.185 164.282 192.314 164.047C191.442 163.812 190.533 163.751 189.638 163.867C188.743 163.984 187.88 164.275 187.098 164.725C186.315 165.175 185.629 165.774 185.079 166.489C184.528 167.204 184.123 168.021 183.888 168.892C183.653 169.763 183.592 170.672 183.708 171.567L183.658 171.577Z" fill="#B55B52"/>
<path d="M183.368 152.317C202.098 154.617 205.298 190.317 203.598 197.487C200.958 203.657 189.468 200.487 189.468 200.487C189.468 200.487 171.258 173.407 183.368 152.317Z" fill="#263238"/>
<path d="M187.578 199.417C188 200.448 188.566 201.414 189.258 202.287C189.312 202.357 189.385 202.409 189.468 202.437C190.468 202.867 197.668 205.617 203.698 201.527C203.802 201.461 203.883 201.363 203.928 201.247C204.5 199.701 204.758 198.055 204.688 196.407C204.685 196.315 204.661 196.225 204.616 196.144C204.572 196.063 204.51 195.993 204.434 195.941C204.358 195.888 204.271 195.854 204.18 195.842C204.088 195.829 203.995 195.838 203.908 195.867C201.628 196.687 194.498 198.997 188.158 198.597C188.057 198.591 187.957 198.611 187.866 198.654C187.775 198.697 187.697 198.763 187.639 198.846C187.581 198.928 187.545 199.023 187.534 199.124C187.523 199.224 187.538 199.325 187.578 199.417Z" fill="white"/>
<path d="M110.277 416.257C101.147 416.257 101.817 416.117 96.6972 415.937C92.3172 415.787 91.2172 416.337 87.6972 416.257C84.7472 416.187 85.0672 413.367 86.2272 410.117C86.8072 408.487 87.6572 406.487 88.4872 403.857H102.367C103.977 407.447 107.527 410.147 112.617 410.857C117.487 411.497 113.927 416.257 110.277 416.257Z" fill="#263238"/>
<path d="M185.727 416.257C174.117 416.257 173.007 411.257 168.727 408.607C165.027 406.347 163.557 406.977 159.727 404.817C157.197 403.397 158.317 400.267 160.347 398.597C162.21 397.094 163.868 395.353 165.277 393.417L176.597 398.417C177.217 402.977 179.357 410.657 186.177 411.137C191.027 411.527 189.317 416.257 185.727 416.257Z" fill="#263238"/>
<path d="M183.437 223.187C183.437 223.187 205.437 279.187 208.357 306.957C208.437 329.957 176.567 398.447 176.567 398.447C175.567 400.157 166.427 395.237 165.247 393.447C176.987 364.787 170.817 328.927 181.407 307.887C158.707 275.607 141.097 215.887 141.097 215.887L183.437 223.187Z" fill="#2026A2"/>
<path opacity="0.2" d="M187.208 237.127C187.275 237.135 187.341 237.117 187.394 237.075C187.446 237.034 187.48 236.974 187.488 236.907C187.496 236.841 187.478 236.774 187.436 236.722C187.395 236.669 187.335 236.635 187.268 236.627C184.517 236.034 182.079 234.45 180.418 232.177C180.383 232.122 180.328 232.083 180.265 232.068C180.201 232.053 180.134 232.064 180.078 232.097C180.05 232.114 180.025 232.136 180.006 232.162C179.986 232.188 179.973 232.218 179.965 232.25C179.958 232.282 179.957 232.315 179.962 232.347C179.968 232.379 179.98 232.41 179.998 232.437C181.71 234.844 184.267 236.515 187.158 237.117L187.208 237.127Z" fill="white"/>
<path opacity="0.2" d="M162.818 249.027C167.718 258.947 168.488 273.747 168.098 285.087C161.971 272.7 156.506 259.995 151.728 247.027L151.778 246.977C152.578 246.236 153.541 245.692 154.588 245.389C155.636 245.086 156.74 245.031 157.813 245.23C158.885 245.43 159.896 245.877 160.765 246.536C161.634 247.195 162.337 248.048 162.818 249.027Z" fill="black"/>
<path d="M170.748 221.027C170.748 221.027 164.898 273.337 153.288 309.027C147.488 326.827 114.388 367.257 102.368 403.887C100.128 405.127 92.608 405.207 88.488 403.887C88.488 403.887 106.958 323.377 126.848 306.437C126.908 262.927 125.348 241.927 134.848 214.767L170.748 221.027Z" fill="#2026A2"/>
<path opacity="0.2" d="M93.5784 399.027C93.6369 399.028 93.6939 399.009 93.7396 398.972C93.7853 398.936 93.8167 398.884 93.8284 398.827C102.048 350.217 131.488 307.827 131.828 307.437C131.843 307.382 131.843 307.323 131.828 307.267C131.828 307.217 131.318 301.267 130.828 279.167C130.348 258.367 132.268 235.797 132.508 233.077C134.068 233.337 141.938 234.407 147.898 230.497C147.926 230.479 147.95 230.455 147.969 230.428C147.987 230.4 148 230.369 148.007 230.337C148.013 230.304 148.013 230.271 148.007 230.238C148 230.206 147.987 230.175 147.968 230.147C147.93 230.093 147.872 230.056 147.807 230.043C147.742 230.03 147.675 230.042 147.618 230.077C141.188 234.297 132.418 232.557 132.328 232.537C132.299 232.523 132.266 232.516 132.233 232.516C132.201 232.516 132.168 232.523 132.138 232.537C132.109 232.558 132.084 232.585 132.065 232.616C132.046 232.647 132.034 232.681 132.028 232.717C132.028 232.957 129.818 257.047 130.328 279.137C130.818 299.777 131.328 306.357 131.328 307.187C129.928 309.187 101.428 350.947 93.3284 398.697C93.3227 398.73 93.3236 398.764 93.3312 398.796C93.3387 398.829 93.3527 398.859 93.3722 398.886C93.3918 398.913 93.4166 398.936 93.4451 398.954C93.4737 398.971 93.5054 398.982 93.5384 398.987L93.5784 399.027Z" fill="white"/>
<path d="M104.998 398.657C104.548 400.342 104.214 402.056 103.998 403.787C103.947 404.103 103.798 404.395 103.572 404.621C103.345 404.847 103.053 404.996 102.738 405.047C97.4276 405.857 90.4176 404.677 88.2076 404.257C88.109 404.242 88.0145 404.206 87.9302 404.153C87.8458 404.1 87.7732 404.03 87.717 403.947C87.6607 403.865 87.622 403.772 87.6032 403.673C87.5844 403.575 87.5859 403.475 87.6076 403.377L88.2276 398.577C88.2892 398.239 88.4648 397.933 88.7251 397.709C88.9853 397.485 89.3145 397.358 89.6576 397.347L104.248 397.627C104.373 397.623 104.498 397.65 104.611 397.705C104.724 397.76 104.821 397.842 104.895 397.943C104.969 398.045 105.017 398.163 105.035 398.288C105.053 398.412 105.04 398.539 104.998 398.657Z" fill="#2026A2"/>
<path opacity="0.2" d="M104.998 398.657C104.548 400.342 104.214 402.056 103.998 403.787C103.947 404.103 103.798 404.395 103.572 404.621C103.345 404.847 103.053 404.996 102.738 405.047C97.4276 405.857 90.4176 404.677 88.2076 404.257C88.109 404.242 88.0145 404.206 87.9302 404.153C87.8458 404.1 87.7732 404.03 87.717 403.947C87.6607 403.865 87.622 403.772 87.6032 403.673C87.5844 403.575 87.5859 403.475 87.6076 403.377L88.2276 398.577C88.2892 398.239 88.4648 397.933 88.7251 397.709C88.9853 397.485 89.3145 397.358 89.6576 397.347L104.248 397.627C104.373 397.623 104.498 397.65 104.611 397.705C104.724 397.76 104.821 397.842 104.895 397.943C104.969 398.045 105.017 398.163 105.035 398.288C105.053 398.412 105.04 398.539 104.998 398.657Z" fill="black"/>
<path d="M179.829 393.957C179.379 395.217 178.589 397.477 178.059 399.167C177.976 399.435 177.79 399.658 177.543 399.789C177.296 399.921 177.006 399.948 176.739 399.867C172.519 398.657 166.329 395.307 164.309 394.187C164.114 394.078 163.959 393.909 163.865 393.707C163.772 393.504 163.745 393.276 163.789 393.057L164.689 388.207C164.717 388.053 164.78 387.906 164.872 387.779C164.964 387.651 165.083 387.546 165.221 387.471C165.359 387.395 165.512 387.351 165.669 387.342C165.826 387.332 165.983 387.358 166.129 387.417L179.219 392.607C179.476 392.708 179.685 392.906 179.799 393.158C179.913 393.41 179.923 393.697 179.829 393.957Z" fill="#2026A2"/>
<path opacity="0.2" d="M179.829 393.957C179.379 395.217 178.589 397.477 178.059 399.167C177.976 399.435 177.79 399.658 177.543 399.789C177.296 399.921 177.006 399.948 176.739 399.867C172.519 398.657 166.329 395.307 164.309 394.187C164.114 394.078 163.959 393.909 163.865 393.707C163.772 393.504 163.745 393.276 163.789 393.057L164.689 388.207C164.717 388.053 164.78 387.906 164.872 387.779C164.964 387.651 165.083 387.546 165.221 387.471C165.359 387.395 165.512 387.351 165.669 387.342C165.826 387.332 165.983 387.358 166.129 387.417L179.219 392.607C179.476 392.708 179.685 392.906 179.799 393.158C179.913 393.41 179.923 393.697 179.829 393.957Z" fill="black"/>
<path d="M183.698 221.107C183.568 221.757 184.248 224.547 185.268 227.017C183.468 228.237 177.268 229.587 169.438 229.927C168.698 228.717 168.238 225.527 167.658 224.227C167.086 226.454 165.868 228.462 164.158 229.997C159.769 229.93 155.394 229.498 151.078 228.707C135.828 225.847 132.228 221.107 132.228 221.107C132.228 221.107 135.148 212.307 135.978 209.107C143.868 209.697 183.288 210.847 183.698 221.107Z" fill="white"/>
<path d="M197.958 176.807C195.735 184.007 193.148 191.09 190.208 198.027C184.258 213.327 185.658 216.697 184.118 222.977C179.852 224.63 175.323 225.501 170.748 225.547C170.034 223.951 169.12 222.453 168.028 221.087C166.818 221.897 163.078 224.227 160.928 224.367C151.208 222.867 138.668 219.097 134.268 214.437C137.618 200.917 138.828 186.177 140.788 153.747C141.248 146.237 147.868 141.177 155.008 142.887C156.918 143.347 158.928 143.887 161.008 144.477C168.948 146.827 175.438 148.817 182.148 151.877C184.368 152.877 186.648 154.007 188.818 155.117C192.613 157.12 195.597 160.375 197.263 164.329C198.93 168.284 199.175 172.693 197.958 176.807Z" fill="#263238"/>
<path d="M114.797 230.157L116.307 228.497C116.897 227.843 117.336 227.066 117.591 226.222C117.847 225.379 117.914 224.49 117.787 223.617L116.357 213.767L112.097 210.877C108.337 214.457 106.737 221.927 106.737 221.927L106.077 223.927C105.784 224.793 105.787 225.732 106.083 226.597C106.38 227.461 106.954 228.204 107.717 228.707L111.207 230.707C111.775 231.051 112.446 231.185 113.102 231.084C113.758 230.984 114.358 230.656 114.797 230.157Z" fill="#B55B52"/>
<path d="M135.768 152.347C134.478 153.547 133.398 154.607 132.268 155.767C131.138 156.927 130.088 158.077 129.018 159.247C126.908 161.607 124.868 164.027 122.918 166.547C120.968 169.067 119.098 171.627 117.328 174.297C115.558 176.967 113.898 179.727 112.328 182.557L112.128 182.917C111.983 183.184 111.865 183.466 111.778 183.757C111.01 186.598 110.482 189.498 110.198 192.427C109.878 195.187 109.738 197.917 109.628 200.617C109.518 203.317 109.518 206.017 109.578 208.707C109.638 211.397 109.758 214.057 110.018 216.787C110.094 217.606 110.46 218.371 111.052 218.943C111.643 219.515 112.42 219.856 113.241 219.905C114.062 219.953 114.874 219.706 115.528 219.207C116.183 218.708 116.637 217.992 116.808 217.187V217.127C117.358 214.587 117.808 211.997 118.358 209.447C118.908 206.897 119.358 204.347 119.888 201.827C120.418 199.307 120.958 196.827 121.538 194.397C122.054 192.125 122.722 189.89 123.538 187.707L122.988 188.897C124.588 186.527 126.238 184.187 127.988 181.897C129.738 179.607 131.568 177.347 133.458 175.127C135.348 172.907 137.268 170.717 139.248 168.577L142.248 165.387C143.248 164.387 144.248 163.247 145.198 162.337L145.308 162.217C146.617 160.949 147.368 159.214 147.398 157.392C147.427 155.57 146.731 153.811 145.463 152.502C144.195 151.193 142.46 150.442 140.638 150.412C138.816 150.383 137.057 151.079 135.748 152.347H135.768Z" fill="#B55B52"/>
<path d="M155.857 143.027C138.187 136.387 118.857 166.527 117.017 173.707C116.507 180.397 128.177 182.877 128.177 182.877C128.177 182.877 156.827 167.367 155.857 143.027Z" fill="#263238"/>
<path d="M178.548 166.757C178.657 166.757 178.765 166.728 178.859 166.674C178.954 166.619 179.033 166.541 179.088 166.447C179.129 166.376 179.156 166.298 179.167 166.217C179.177 166.136 179.172 166.053 179.15 165.974C179.129 165.895 179.092 165.821 179.042 165.757C178.992 165.692 178.929 165.638 178.858 165.597C177.408 164.747 171.318 158.797 168.858 153.807C168.822 153.733 168.772 153.667 168.71 153.613C168.648 153.558 168.575 153.517 168.497 153.491C168.419 153.465 168.336 153.455 168.254 153.461C168.172 153.467 168.092 153.49 168.018 153.527C167.87 153.602 167.758 153.732 167.706 153.89C167.653 154.047 167.665 154.219 167.738 154.367C170.398 159.647 176.738 165.747 178.278 166.677C178.361 166.725 178.453 166.752 178.548 166.757Z" fill="#2026A2"/>
<path d="M180.698 166.447C180.81 166.446 180.919 166.419 181.018 166.367C182.888 165.267 186.218 160.817 185.788 155.027C185.791 154.939 185.775 154.851 185.742 154.77C185.709 154.688 185.659 154.614 185.595 154.553C185.531 154.492 185.456 154.445 185.373 154.415C185.29 154.385 185.201 154.373 185.113 154.379C185.025 154.385 184.94 154.41 184.862 154.452C184.784 154.493 184.716 154.551 184.662 154.62C184.607 154.69 184.568 154.77 184.547 154.856C184.526 154.941 184.523 155.031 184.538 155.117C184.948 160.707 181.588 164.577 180.378 165.287C180.258 165.355 180.163 165.462 180.11 165.589C180.057 165.717 180.048 165.859 180.085 165.993C180.122 166.126 180.202 166.243 180.313 166.326C180.424 166.408 180.56 166.451 180.698 166.447Z" fill="#2026A2"/>
<path d="M172.408 121.577C171.238 128.947 168.138 141.867 162.138 144.857C162.138 144.857 168.918 146.137 179.628 159.387C185.578 155.087 183.268 152.247 183.268 152.247C176.188 147.737 177.768 142.967 180.948 138.247L172.408 121.577Z" fill="#B55B52"/>
<path d="M177.348 156.677C172.618 155.737 168.828 162.047 168.828 162.047C168.828 162.047 160.688 150.617 159.148 144.047C160.776 143.756 162.389 143.379 163.978 142.917C163.978 142.917 175.628 153.157 177.348 156.677Z" fill="white"/>
<path d="M181.888 157.447C181.888 157.447 185.408 159.857 184.888 165.827C189.388 156.267 185.338 152.957 185.338 152.957C184.341 151.839 182.967 151.127 181.478 150.957C182.289 151.823 182.774 152.944 182.849 154.128C182.923 155.313 182.584 156.486 181.888 157.447Z" fill="white"/>
<path opacity="0.2" d="M175.887 128.377L180.947 138.247C180.18 139.343 179.511 140.504 178.947 141.717C176.297 140.047 173.597 135.147 174.387 131.977C174.669 130.698 175.177 129.479 175.887 128.377Z" fill="black"/>
<path d="M198.747 132.027H201.077C201.117 132.027 201.157 132.017 201.193 132C201.229 131.983 201.261 131.958 201.287 131.927C201.312 131.895 201.329 131.857 201.337 131.818C201.346 131.778 201.346 131.737 201.337 131.697L200.177 126.347C200.165 126.287 200.133 126.233 200.085 126.195C200.038 126.157 199.978 126.136 199.917 126.137C199.855 126.137 199.795 126.158 199.746 126.196C199.697 126.234 199.662 126.287 199.647 126.347L198.487 131.697C198.478 131.737 198.478 131.778 198.487 131.818C198.495 131.857 198.512 131.895 198.537 131.927C198.564 131.957 198.596 131.981 198.632 131.998C198.668 132.016 198.707 132.025 198.747 132.027ZM200.747 131.477H199.077L199.897 127.697L200.747 131.477Z" fill="white"/>
<path d="M172.697 105.867C169.937 117.377 168.537 122.177 172.307 129.977C177.997 141.717 192.307 143.277 198.367 132.977C203.817 123.717 207.367 106.447 198.037 98.047C188.707 89.647 175.457 94.357 172.697 105.867Z" fill="#B55B52"/>
<path d="M204.957 110.807C194.367 108.737 187.957 98.4772 182.957 98.8072C183.717 106.587 177.617 115.377 171.607 115.587C163.477 115.867 171.007 95.8872 176.467 92.7272C182.227 89.3572 206.827 89.1172 204.957 110.807Z" fill="#263238"/>
<path d="M176.537 116.027C177.438 116.008 178.31 115.703 179.027 115.157C182.697 112.527 184.917 104.357 183.507 98.6672C183.498 98.5898 183.473 98.5151 183.433 98.4481C183.393 98.3812 183.339 98.3235 183.275 98.279C183.211 98.2345 183.138 98.2041 183.061 98.1899C182.985 98.1757 182.906 98.1779 182.83 98.1965C182.754 98.2151 182.683 98.2496 182.622 98.2977C182.56 98.3458 182.51 98.4064 182.474 98.4755C182.437 98.5446 182.416 98.6207 182.412 98.6985C182.407 98.7764 182.419 98.8544 182.447 98.9272C183.737 104.157 181.697 111.927 178.397 114.267C177.892 114.668 177.27 114.895 176.625 114.915C175.981 114.935 175.346 114.746 174.817 114.377C174.758 114.338 174.691 114.311 174.621 114.298C174.551 114.285 174.479 114.286 174.409 114.301C174.339 114.316 174.273 114.344 174.214 114.385C174.156 114.425 174.106 114.477 174.067 114.537C173.988 114.659 173.96 114.808 173.99 114.95C174.02 115.093 174.105 115.218 174.227 115.297C174.912 115.755 175.713 116.009 176.537 116.027Z" fill="#263238"/>
<path d="M188.727 115.167C188.457 116.167 188.727 117.067 189.307 117.287C189.887 117.507 190.607 116.897 190.877 115.947C191.147 114.997 190.877 114.037 190.297 113.827C189.717 113.617 188.997 114.207 188.727 115.167Z" fill="#263238"/>
<path d="M200.514 121.517C199.902 121.372 199.591 120.47 199.82 119.503C200.049 118.535 200.731 117.869 201.344 118.014C201.956 118.159 202.267 119.061 202.038 120.028C201.809 120.995 201.127 121.662 200.514 121.517Z" fill="#263238"/>
<path d="M201.148 118.027L203.518 118.157C203.518 118.157 201.888 119.517 201.148 118.027Z" fill="#263238"/>
<path d="M196.287 119.817C196.476 122.298 196.98 124.744 197.787 127.097C196.247 127.837 194.367 126.557 194.367 126.557L196.287 119.817Z" fill="#A02724"/>
<path d="M188.487 128.027C188.999 128.219 189.528 128.363 190.067 128.457C190.103 128.463 190.14 128.461 190.176 128.452C190.211 128.443 190.244 128.427 190.274 128.404C190.303 128.382 190.327 128.354 190.344 128.321C190.362 128.289 190.373 128.254 190.377 128.217C190.386 128.14 190.365 128.061 190.319 127.998C190.272 127.935 190.204 127.892 190.127 127.877C188.909 127.663 187.755 127.176 186.751 126.455C185.747 125.733 184.918 124.794 184.327 123.707C184.296 123.637 184.239 123.582 184.169 123.552C184.098 123.522 184.019 123.521 183.947 123.547C183.913 123.564 183.882 123.588 183.857 123.617C183.832 123.646 183.813 123.679 183.801 123.715C183.789 123.752 183.784 123.79 183.787 123.828C183.789 123.866 183.8 123.903 183.817 123.937C184.819 125.827 186.481 127.283 188.487 128.027Z" fill="#263238"/>
<path d="M166.998 116.787C167.208 117.902 167.649 118.96 168.291 119.895C168.933 120.83 169.763 121.621 170.728 122.217C173.168 123.577 175.078 120.857 174.968 117.637C174.868 114.727 173.478 110.517 170.748 110.517C168.018 110.517 166.358 113.817 166.998 116.787Z" fill="#B55B52"/>
<path d="M194.687 111.027C194.648 110.963 194.595 110.908 194.533 110.865C194.472 110.822 194.401 110.792 194.327 110.777C193.63 110.677 192.968 110.404 192.402 109.983C191.836 109.562 191.385 109.007 191.087 108.367C191.063 108.298 191.024 108.236 190.973 108.183C190.922 108.13 190.86 108.088 190.792 108.061C190.724 108.034 190.651 108.021 190.578 108.024C190.505 108.027 190.433 108.045 190.367 108.077C190.227 108.145 190.117 108.262 190.058 108.406C189.999 108.55 189.995 108.711 190.047 108.857C190.411 109.671 190.973 110.381 191.683 110.921C192.392 111.461 193.226 111.814 194.107 111.947C194.258 111.967 194.411 111.927 194.533 111.836C194.654 111.744 194.735 111.608 194.757 111.457C194.787 111.31 194.762 111.158 194.687 111.027Z" fill="#263238"/>
<path d="M204.748 115.507C204.814 115.537 204.886 115.553 204.958 115.553C205.031 115.553 205.102 115.537 205.168 115.507C205.237 115.476 205.299 115.432 205.35 115.376C205.401 115.321 205.441 115.256 205.467 115.186C205.493 115.115 205.505 115.04 205.501 114.965C205.498 114.889 205.48 114.816 205.448 114.747C205.118 113.873 204.591 113.086 203.908 112.448C203.225 111.809 202.403 111.337 201.508 111.067C201.436 111.053 201.361 111.054 201.289 111.069C201.217 111.085 201.149 111.116 201.089 111.159C201.029 111.202 200.978 111.257 200.94 111.32C200.902 111.384 200.878 111.454 200.868 111.527C200.846 111.681 200.882 111.838 200.969 111.968C201.056 112.097 201.187 112.189 201.338 112.227C202.044 112.449 202.689 112.829 203.225 113.339C203.76 113.848 204.172 114.474 204.428 115.167C204.455 115.243 204.498 115.312 204.553 115.371C204.608 115.429 204.674 115.476 204.748 115.507Z" fill="#263238"/>
<path d="M190.019 113.777L192.389 113.907C192.389 113.907 190.759 115.297 190.019 113.777Z" fill="#263238"/>
<path d="M180.717 162.247C179.818 162.074 178.903 161.987 177.987 161.987C177.759 161.994 177.539 162.073 177.359 162.213C177.179 162.354 177.049 162.548 176.987 162.767C176.697 163.767 176.157 165.587 175.837 166.457C175.387 167.707 178.927 170.277 178.927 170.277C178.927 170.277 181.847 168.887 181.927 167.047C181.936 165.745 181.839 164.444 181.637 163.157C181.604 162.926 181.496 162.712 181.33 162.547C181.164 162.383 180.949 162.278 180.717 162.247Z" fill="#2026A2"/>
<path d="M173.398 198.857C173.638 193.087 177.398 166.737 177.398 166.737L180.208 167.087C180.418 170.837 182.408 193.367 182.408 199.337C182.408 205.307 177.308 211.977 177.308 211.977C177.308 211.977 173.158 204.617 173.398 198.857Z" fill="#2026A2"/>
<path d="M130.337 182.867C129.484 183.585 128.535 184.181 127.517 184.637C127.432 184.657 127.343 184.657 127.257 184.637C126.157 184.547 118.517 183.637 115.067 177.247C115.007 177.137 114.979 177.012 114.987 176.887C115.2 175.252 115.734 173.675 116.557 172.247C116.602 172.167 116.666 172.098 116.742 172.047C116.818 171.995 116.906 171.962 116.997 171.951C117.088 171.939 117.181 171.949 117.268 171.979C117.355 172.01 117.433 172.061 117.497 172.127C119.137 173.907 124.387 179.247 130.197 181.827C130.299 181.863 130.39 181.927 130.458 182.011C130.526 182.095 130.57 182.197 130.585 182.304C130.599 182.412 130.584 182.521 130.54 182.62C130.496 182.72 130.426 182.805 130.337 182.867Z" fill="white"/>
<path d="M208.078 248.347L212.988 258.347C213.221 258.819 213.548 259.238 213.948 259.58C214.348 259.921 214.814 260.177 215.316 260.333C215.819 260.488 216.348 260.539 216.871 260.483C217.394 260.428 217.9 260.266 218.358 260.007L281.648 224.337L276.078 213.027L209.948 243.167C209.483 243.382 209.066 243.687 208.719 244.065C208.373 244.442 208.105 244.885 207.931 245.367C207.757 245.848 207.681 246.36 207.706 246.872C207.731 247.383 207.858 247.885 208.078 248.347Z" fill="#2026A2"/>
<path opacity="0.4" d="M208.078 248.347L212.988 258.347C213.221 258.819 213.548 259.238 213.948 259.58C214.348 259.921 214.814 260.177 215.316 260.333C215.819 260.488 216.348 260.539 216.871 260.483C217.394 260.428 217.9 260.266 218.358 260.007L281.648 224.337L276.078 213.027L209.948 243.167C209.483 243.382 209.066 243.687 208.719 244.065C208.373 244.442 208.105 244.885 207.931 245.367C207.757 245.848 207.681 246.36 207.706 246.872C207.731 247.383 207.858 247.885 208.078 248.347Z" fill="black"/>
<path d="M276.027 172.387C276.107 172.187 276.177 171.997 276.247 171.807C276.517 171.107 276.807 170.417 277.107 169.727L277.237 169.457C277.497 168.857 277.777 168.267 278.067 167.677C278.167 167.467 278.277 167.267 278.387 167.057C278.637 166.557 278.897 166.057 279.167 165.567C279.277 165.387 279.377 165.197 279.477 165.007C279.847 164.347 280.237 163.697 280.637 163.007L280.777 162.787C281.137 162.217 281.507 161.647 281.887 161.087L282.297 160.507C282.617 160.047 282.957 159.587 283.297 159.127L283.687 158.597C284.157 157.987 284.637 157.377 285.127 156.787L285.277 156.617C285.727 156.077 286.197 155.547 286.667 155.027L287.147 154.507C287.547 154.087 287.947 153.667 288.357 153.257L288.837 152.767C289.397 152.214 289.967 151.674 290.547 151.147L290.667 151.037C291.217 150.537 291.777 150.037 292.357 149.577L292.907 149.127L294.307 148.027L294.867 147.597C295.534 147.117 296.201 146.647 296.867 146.187H296.937C297.587 145.757 298.247 145.327 298.937 144.917L299.577 144.527C300.087 144.217 300.577 143.917 301.147 143.617L301.797 143.257C302.527 142.857 303.257 142.467 304.017 142.097C330.747 128.977 362.257 138.367 374.367 163.097L378.367 171.097C366.257 146.417 334.747 137.027 308.007 150.147C307.257 150.517 306.517 150.907 305.797 151.297C305.577 151.417 305.357 151.537 305.147 151.667C304.617 151.957 304.087 152.267 303.567 152.577L302.937 152.957C302.267 153.377 301.607 153.797 300.937 154.237L300.867 154.287C300.187 154.747 299.537 155.217 298.867 155.697L298.307 156.127C297.837 156.487 297.367 156.847 296.917 157.217L296.347 157.677C295.777 158.157 295.217 158.677 294.667 159.127L294.547 159.237C293.957 159.767 293.397 160.317 292.837 160.867C292.667 161.027 292.517 161.187 292.357 161.347C291.947 161.757 291.547 162.177 291.147 162.597L290.667 163.127C290.187 163.647 289.727 164.127 289.277 164.717L289.127 164.887C288.634 165.481 288.154 166.081 287.687 166.687L287.287 167.227C286.947 167.677 286.617 168.137 286.287 168.607C286.157 168.797 286.017 168.987 285.887 169.187C285.507 169.747 285.137 170.307 284.777 170.877C284.727 170.957 284.677 171.027 284.637 171.107C284.237 171.747 283.847 172.407 283.477 173.107L283.167 173.677C282.897 174.167 282.637 174.677 282.377 175.167L282.067 175.787C281.777 176.377 281.497 176.967 281.237 177.557C281.187 177.647 281.147 177.747 281.107 177.837C280.807 178.517 280.517 179.217 280.247 179.907L280.027 180.487C279.827 181.017 279.647 181.487 279.467 182.057C279.387 182.277 279.317 182.497 279.247 182.717C279.047 183.317 278.867 183.917 278.687 184.527C278.687 184.637 278.617 184.747 278.587 184.867C278.387 185.577 278.207 186.297 278.047 187.007C278.047 187.207 277.957 187.407 277.917 187.607C277.797 188.147 277.687 188.687 277.587 189.227C277.587 189.457 277.497 189.687 277.467 189.917C277.357 190.517 277.267 191.127 277.187 191.737C277.187 191.867 277.187 191.987 277.137 192.117C277.037 192.847 276.967 193.577 276.907 194.307V194.907C276.867 195.461 276.837 196.011 276.817 196.557C276.817 196.787 276.817 197.027 276.817 197.257C276.817 197.857 276.817 198.457 276.817 199.067V199.477C276.817 199.707 276.817 199.937 276.817 200.157C276.817 200.827 276.877 201.507 276.937 202.157C276.937 202.477 277.007 202.797 277.037 203.157C277.097 203.724 277.167 204.294 277.247 204.867C277.247 205.217 277.357 205.567 277.417 205.867C277.507 206.417 277.607 206.967 277.717 207.507C277.787 207.857 277.867 208.207 277.937 208.507C278.067 209.067 278.207 209.627 278.357 210.177C278.457 210.527 278.547 210.877 278.647 211.237L278.887 212.007C279.037 212.497 279.197 213.007 279.367 213.467C279.457 213.737 279.557 213.997 279.657 214.267C279.837 214.767 280.037 215.267 280.247 215.767C280.337 215.997 280.427 216.227 280.527 216.457C280.837 217.177 281.157 217.897 281.527 218.607L277.577 210.557C277.227 209.847 276.907 209.127 276.577 208.407C276.477 208.177 276.387 207.947 276.297 207.717C276.087 207.217 275.897 206.717 275.707 206.217C275.607 205.957 275.517 205.687 275.417 205.427C275.247 204.937 275.087 204.427 274.937 203.967L274.697 203.187L274.577 202.807C274.517 202.587 274.467 202.357 274.407 202.127C274.267 201.577 274.117 201.027 273.997 200.467C273.917 200.117 273.837 199.777 273.767 199.467C273.657 198.917 273.557 198.367 273.467 197.827C273.407 197.477 273.347 197.127 273.297 196.827C273.217 196.257 273.147 195.687 273.087 195.107C273.087 194.787 273.017 194.467 272.987 194.107C272.927 193.437 272.897 192.767 272.867 192.107C272.867 191.917 272.867 191.727 272.867 191.537V191.007C272.867 190.407 272.867 189.797 272.867 189.197C272.867 188.967 272.867 188.737 272.867 188.507C272.867 187.957 272.867 187.397 272.957 186.847C272.957 186.647 272.957 186.447 272.957 186.257C272.957 185.517 273.087 184.787 273.177 184.057C273.177 183.937 273.177 183.807 273.227 183.677C273.307 183.077 273.397 182.467 273.507 181.857L273.627 181.177C273.727 180.637 273.837 180.097 273.957 179.557C273.957 179.357 274.037 179.157 274.087 178.957C274.257 178.237 274.437 177.517 274.627 176.807C274.666 176.696 274.7 176.582 274.727 176.467C274.907 175.867 275.087 175.267 275.287 174.667C275.357 174.447 275.427 174.227 275.507 174.007C275.647 173.427 275.837 172.907 276.027 172.387Z" fill="#2026A2"/>
<path opacity="0.4" d="M276.027 172.387C276.107 172.187 276.177 171.997 276.247 171.807C276.517 171.107 276.807 170.417 277.107 169.727L277.237 169.457C277.497 168.857 277.777 168.267 278.067 167.677C278.167 167.467 278.277 167.267 278.387 167.057C278.637 166.557 278.897 166.057 279.167 165.567C279.277 165.387 279.377 165.197 279.477 165.007C279.847 164.347 280.237 163.697 280.637 163.007L280.777 162.787C281.137 162.217 281.507 161.647 281.887 161.087L282.297 160.507C282.617 160.047 282.957 159.587 283.297 159.127L283.687 158.597C284.157 157.987 284.637 157.377 285.127 156.787L285.277 156.617C285.727 156.077 286.197 155.547 286.667 155.027L287.147 154.507C287.547 154.087 287.947 153.667 288.357 153.257L288.837 152.767C289.397 152.214 289.967 151.674 290.547 151.147L290.667 151.037C291.217 150.537 291.777 150.037 292.357 149.577L292.907 149.127L294.307 148.027L294.867 147.597C295.534 147.117 296.201 146.647 296.867 146.187H296.937C297.587 145.757 298.247 145.327 298.937 144.917L299.577 144.527C300.087 144.217 300.577 143.917 301.147 143.617L301.797 143.257C302.527 142.857 303.257 142.467 304.017 142.097C330.747 128.977 362.257 138.367 374.367 163.097L378.367 171.097C366.257 146.417 334.747 137.027 308.007 150.147C307.257 150.517 306.517 150.907 305.797 151.297C305.577 151.417 305.357 151.537 305.147 151.667C304.617 151.957 304.087 152.267 303.567 152.577L302.937 152.957C302.267 153.377 301.607 153.797 300.937 154.237L300.867 154.287C300.187 154.747 299.537 155.217 298.867 155.697L298.307 156.127C297.837 156.487 297.367 156.847 296.917 157.217L296.347 157.677C295.777 158.157 295.217 158.677 294.667 159.127L294.547 159.237C293.957 159.767 293.397 160.317 292.837 160.867C292.667 161.027 292.517 161.187 292.357 161.347C291.947 161.757 291.547 162.177 291.147 162.597L290.667 163.127C290.187 163.647 289.727 164.127 289.277 164.717L289.127 164.887C288.634 165.481 288.154 166.081 287.687 166.687L287.287 167.227C286.947 167.677 286.617 168.137 286.287 168.607C286.157 168.797 286.017 168.987 285.887 169.187C285.507 169.747 285.137 170.307 284.777 170.877C284.727 170.957 284.677 171.027 284.637 171.107C284.237 171.747 283.847 172.407 283.477 173.107L283.167 173.677C282.897 174.167 282.637 174.677 282.377 175.167L282.067 175.787C281.777 176.377 281.497 176.967 281.237 177.557C281.187 177.647 281.147 177.747 281.107 177.837C280.807 178.517 280.517 179.217 280.247 179.907L280.027 180.487C279.827 181.017 279.647 181.487 279.467 182.057C279.387 182.277 279.317 182.497 279.247 182.717C279.047 183.317 278.867 183.917 278.687 184.527C278.687 184.637 278.617 184.747 278.587 184.867C278.387 185.577 278.207 186.297 278.047 187.007C278.047 187.207 277.957 187.407 277.917 187.607C277.797 188.147 277.687 188.687 277.587 189.227C277.587 189.457 277.497 189.687 277.467 189.917C277.357 190.517 277.267 191.127 277.187 191.737C277.187 191.867 277.187 191.987 277.137 192.117C277.037 192.847 276.967 193.577 276.907 194.307V194.907C276.867 195.461 276.837 196.011 276.817 196.557C276.817 196.787 276.817 197.027 276.817 197.257C276.817 197.857 276.817 198.457 276.817 199.067V199.477C276.817 199.707 276.817 199.937 276.817 200.157C276.817 200.827 276.877 201.507 276.937 202.157C276.937 202.477 277.007 202.797 277.037 203.157C277.097 203.724 277.167 204.294 277.247 204.867C277.247 205.217 277.357 205.567 277.417 205.867C277.507 206.417 277.607 206.967 277.717 207.507C277.787 207.857 277.867 208.207 277.937 208.507C278.067 209.067 278.207 209.627 278.357 210.177C278.457 210.527 278.547 210.877 278.647 211.237L278.887 212.007C279.037 212.497 279.197 213.007 279.367 213.467C279.457 213.737 279.557 213.997 279.657 214.267C279.837 214.767 280.037 215.267 280.247 215.767C280.337 215.997 280.427 216.227 280.527 216.457C280.837 217.177 281.157 217.897 281.527 218.607L277.577 210.557C277.227 209.847 276.907 209.127 276.577 208.407C276.477 208.177 276.387 207.947 276.297 207.717C276.087 207.217 275.897 206.717 275.707 206.217C275.607 205.957 275.517 205.687 275.417 205.427C275.247 204.937 275.087 204.427 274.937 203.967L274.697 203.187L274.577 202.807C274.517 202.587 274.467 202.357 274.407 202.127C274.267 201.577 274.117 201.027 273.997 200.467C273.917 200.117 273.837 199.777 273.767 199.467C273.657 198.917 273.557 198.367 273.467 197.827C273.407 197.477 273.347 197.127 273.297 196.827C273.217 196.257 273.147 195.687 273.087 195.107C273.087 194.787 273.017 194.467 272.987 194.107C272.927 193.437 272.897 192.767 272.867 192.107C272.867 191.917 272.867 191.727 272.867 191.537V191.007C272.867 190.407 272.867 189.797 272.867 189.197C272.867 188.967 272.867 188.737 272.867 188.507C272.867 187.957 272.867 187.397 272.957 186.847C272.957 186.647 272.957 186.447 272.957 186.257C272.957 185.517 273.087 184.787 273.177 184.057C273.177 183.937 273.177 183.807 273.227 183.677C273.307 183.077 273.397 182.467 273.507 181.857L273.627 181.177C273.727 180.637 273.837 180.097 273.957 179.557C273.957 179.357 274.037 179.157 274.087 178.957C274.257 178.237 274.437 177.517 274.627 176.807C274.666 176.696 274.7 176.582 274.727 176.467C274.907 175.867 275.087 175.267 275.287 174.667C275.357 174.447 275.427 174.227 275.507 174.007C275.647 173.427 275.837 172.907 276.027 172.387Z" fill="black"/>
<path d="M354.368 244.767C355.368 244.287 356.298 243.767 357.238 243.277L358.078 242.807C358.768 242.417 359.448 242.027 360.078 241.617L360.898 241.127C361.768 240.587 362.628 240.037 363.468 239.467L363.568 239.407C364.441 238.807 365.291 238.197 366.118 237.577L366.858 237.017C367.468 236.557 368.068 236.077 368.668 235.597L369.388 235.007C370.128 234.387 370.858 233.767 371.568 233.127L371.728 232.987C372.488 232.297 373.228 231.597 373.948 230.877L374.578 230.247C375.108 229.717 375.578 229.177 376.128 228.627L376.758 227.947C377.378 227.267 377.978 226.577 378.568 225.887L378.748 225.667C379.398 224.897 380.018 224.117 380.618 223.327L381.138 222.637C381.578 222.047 382.008 221.447 382.428 220.847L382.948 220.097C383.448 219.367 383.948 218.637 384.388 217.897L384.578 217.597C385.098 216.767 385.578 215.917 386.078 215.067C386.218 214.827 386.348 214.577 386.478 214.327C386.831 213.694 387.164 213.054 387.478 212.407C387.618 212.137 387.758 211.867 387.888 211.597C388.258 210.837 388.618 210.077 388.968 209.307C388.968 209.187 389.078 209.067 389.138 208.937C389.528 208.057 389.898 207.157 390.248 206.257C390.348 206.007 390.438 205.747 390.528 205.497C390.788 204.827 391.028 204.147 391.258 203.497C391.358 203.207 391.458 202.927 391.548 202.637C391.794 201.864 392.034 201.084 392.268 200.297C392.268 200.157 392.358 200.007 392.398 199.857C392.658 198.937 392.888 198.007 393.098 197.077C393.158 196.817 393.218 196.557 393.268 196.307C393.428 195.607 393.568 194.897 393.698 194.197C393.698 193.907 393.808 193.607 393.858 193.317C393.984 192.524 394.104 191.734 394.218 190.947C394.218 190.787 394.218 190.617 394.288 190.457C394.408 189.517 394.498 188.567 394.568 187.617C394.568 187.357 394.568 187.107 394.568 186.847C394.618 186.127 394.658 185.417 394.678 184.697V183.797C394.678 183.017 394.678 182.237 394.678 181.447V180.907C394.678 180.617 394.678 180.327 394.678 180.037C394.678 179.167 394.598 178.287 394.518 177.417C394.518 177.007 394.428 176.587 394.388 176.167C394.308 175.427 394.218 174.687 394.118 173.947C394.048 173.507 393.978 173.057 393.898 172.607C393.778 171.901 393.648 171.191 393.508 170.477C393.418 170.027 393.318 169.577 393.218 169.127C393.051 168.407 392.871 167.687 392.678 166.967C392.548 166.507 392.438 166.047 392.298 165.597C392.158 165.147 392.098 164.927 391.988 164.597C391.788 163.967 391.588 163.337 391.368 162.707C391.238 162.357 391.118 162.017 390.998 161.707C390.748 161.047 390.498 160.407 390.228 159.707L389.868 158.817C389.458 157.877 389.038 156.947 388.588 156.027L392.588 164.027C393.038 164.957 393.458 165.887 393.858 166.817C393.988 167.117 394.108 167.417 394.228 167.707C394.498 168.357 394.748 169.007 394.988 169.707C395.118 170.047 395.238 170.397 395.358 170.707C395.578 171.337 395.788 171.967 395.988 172.607C396.098 172.937 396.198 173.277 396.298 173.607C396.298 173.777 396.408 173.937 396.448 174.107C396.488 174.277 396.598 174.687 396.668 174.987C396.868 175.707 397.048 176.417 397.218 177.137C397.318 177.587 397.408 178.037 397.508 178.487C397.648 179.194 397.778 179.904 397.898 180.617C397.978 181.067 398.048 181.517 398.118 181.967C398.218 182.707 398.308 183.447 398.388 184.187C398.388 184.597 398.478 185.017 398.518 185.437C398.588 186.307 398.638 187.177 398.678 188.047C398.678 188.297 398.678 188.537 398.678 188.777C398.678 188.827 398.678 188.877 398.678 188.927V189.467C398.678 190.247 398.678 191.027 398.678 191.817C398.678 192.117 398.678 192.417 398.678 192.717C398.678 193.427 398.618 194.147 398.568 194.857C398.568 195.117 398.568 195.377 398.568 195.627C398.498 196.627 398.398 197.527 398.288 198.477C398.288 198.637 398.288 198.797 398.218 198.967C398.108 199.757 397.988 200.547 397.858 201.327C397.808 201.627 397.748 201.917 397.698 202.217C397.568 202.917 397.428 203.617 397.268 204.317C397.268 204.577 397.158 204.837 397.098 205.097C396.888 206.027 396.648 206.957 396.398 207.877L396.268 208.307C396.038 209.097 395.798 209.877 395.548 210.657C395.458 210.947 395.358 211.227 395.258 211.507C395.028 212.187 394.788 212.867 394.528 213.507C394.438 213.767 394.338 214.017 394.248 214.277C393.888 215.177 393.528 216.067 393.138 216.957C393.078 217.077 393.018 217.197 392.968 217.317C392.618 218.087 392.258 218.857 391.888 219.617L391.478 220.427C391.144 221.094 390.811 221.734 390.478 222.347L390.078 223.087C389.598 223.937 389.078 224.777 388.578 225.617L388.388 225.917C387.928 226.657 387.448 227.387 386.948 228.107L386.428 228.857C386.008 229.457 385.578 230.057 385.138 230.647L384.618 231.337C384.008 232.127 383.388 232.917 382.748 233.687L382.568 233.897C381.978 234.597 381.378 235.287 380.758 235.967L380.128 236.637C379.618 237.187 379.128 237.727 378.568 238.267L377.948 238.897C377.218 239.607 376.488 240.317 375.728 240.997L375.578 241.137C374.858 241.804 374.128 242.434 373.388 243.027L372.658 243.617C372.068 244.097 371.468 244.567 370.858 245.037L370.118 245.597C369.288 246.217 368.438 246.827 367.568 247.417L367.468 247.477C366.628 248.047 365.768 248.597 364.898 249.137L364.078 249.637C363.408 250.037 362.728 250.437 362.078 250.817L361.238 251.287C360.298 251.807 359.338 252.307 358.358 252.787C323.708 269.787 282.878 257.627 267.158 225.617L263.218 217.567C278.878 249.617 319.708 261.777 354.368 244.767Z" fill="#2026A2"/>
<path opacity="0.4" d="M354.368 244.767C355.368 244.287 356.298 243.767 357.238 243.277L358.078 242.807C358.768 242.417 359.448 242.027 360.078 241.617L360.898 241.127C361.768 240.587 362.628 240.037 363.468 239.467L363.568 239.407C364.441 238.807 365.291 238.197 366.118 237.577L366.858 237.017C367.468 236.557 368.068 236.077 368.668 235.597L369.388 235.007C370.128 234.387 370.858 233.767 371.568 233.127L371.728 232.987C372.488 232.297 373.228 231.597 373.948 230.877L374.578 230.247C375.108 229.717 375.578 229.177 376.128 228.627L376.758 227.947C377.378 227.267 377.978 226.577 378.568 225.887L378.748 225.667C379.398 224.897 380.018 224.117 380.618 223.327L381.138 222.637C381.578 222.047 382.008 221.447 382.428 220.847L382.948 220.097C383.448 219.367 383.948 218.637 384.388 217.897L384.578 217.597C385.098 216.767 385.578 215.917 386.078 215.067C386.218 214.827 386.348 214.577 386.478 214.327C386.831 213.694 387.164 213.054 387.478 212.407C387.618 212.137 387.758 211.867 387.888 211.597C388.258 210.837 388.618 210.077 388.968 209.307C388.968 209.187 389.078 209.067 389.138 208.937C389.528 208.057 389.898 207.157 390.248 206.257C390.348 206.007 390.438 205.747 390.528 205.497C390.788 204.827 391.028 204.147 391.258 203.497C391.358 203.207 391.458 202.927 391.548 202.637C391.794 201.864 392.034 201.084 392.268 200.297C392.268 200.157 392.358 200.007 392.398 199.857C392.658 198.937 392.888 198.007 393.098 197.077C393.158 196.817 393.218 196.557 393.268 196.307C393.428 195.607 393.568 194.897 393.698 194.197C393.698 193.907 393.808 193.607 393.858 193.317C393.984 192.524 394.104 191.734 394.218 190.947C394.218 190.787 394.218 190.617 394.288 190.457C394.408 189.517 394.498 188.567 394.568 187.617C394.568 187.357 394.568 187.107 394.568 186.847C394.618 186.127 394.658 185.417 394.678 184.697V183.797C394.678 183.017 394.678 182.237 394.678 181.447V180.907C394.678 180.617 394.678 180.327 394.678 180.037C394.678 179.167 394.598 178.287 394.518 177.417C394.518 177.007 394.428 176.587 394.388 176.167C394.308 175.427 394.218 174.687 394.118 173.947C394.048 173.507 393.978 173.057 393.898 172.607C393.778 171.901 393.648 171.191 393.508 170.477C393.418 170.027 393.318 169.577 393.218 169.127C393.051 168.407 392.871 167.687 392.678 166.967C392.548 166.507 392.438 166.047 392.298 165.597C392.158 165.147 392.098 164.927 391.988 164.597C391.788 163.967 391.588 163.337 391.368 162.707C391.238 162.357 391.118 162.017 390.998 161.707C390.748 161.047 390.498 160.407 390.228 159.707L389.868 158.817C389.458 157.877 389.038 156.947 388.588 156.027L392.588 164.027C393.038 164.957 393.458 165.887 393.858 166.817C393.988 167.117 394.108 167.417 394.228 167.707C394.498 168.357 394.748 169.007 394.988 169.707C395.118 170.047 395.238 170.397 395.358 170.707C395.578 171.337 395.788 171.967 395.988 172.607C396.098 172.937 396.198 173.277 396.298 173.607C396.298 173.777 396.408 173.937 396.448 174.107C396.488 174.277 396.598 174.687 396.668 174.987C396.868 175.707 397.048 176.417 397.218 177.137C397.318 177.587 397.408 178.037 397.508 178.487C397.648 179.194 397.778 179.904 397.898 180.617C397.978 181.067 398.048 181.517 398.118 181.967C398.218 182.707 398.308 183.447 398.388 184.187C398.388 184.597 398.478 185.017 398.518 185.437C398.588 186.307 398.638 187.177 398.678 188.047C398.678 188.297 398.678 188.537 398.678 188.777C398.678 188.827 398.678 188.877 398.678 188.927V189.467C398.678 190.247 398.678 191.027 398.678 191.817C398.678 192.117 398.678 192.417 398.678 192.717C398.678 193.427 398.618 194.147 398.568 194.857C398.568 195.117 398.568 195.377 398.568 195.627C398.498 196.627 398.398 197.527 398.288 198.477C398.288 198.637 398.288 198.797 398.218 198.967C398.108 199.757 397.988 200.547 397.858 201.327C397.808 201.627 397.748 201.917 397.698 202.217C397.568 202.917 397.428 203.617 397.268 204.317C397.268 204.577 397.158 204.837 397.098 205.097C396.888 206.027 396.648 206.957 396.398 207.877L396.268 208.307C396.038 209.097 395.798 209.877 395.548 210.657C395.458 210.947 395.358 211.227 395.258 211.507C395.028 212.187 394.788 212.867 394.528 213.507C394.438 213.767 394.338 214.017 394.248 214.277C393.888 215.177 393.528 216.067 393.138 216.957C393.078 217.077 393.018 217.197 392.968 217.317C392.618 218.087 392.258 218.857 391.888 219.617L391.478 220.427C391.144 221.094 390.811 221.734 390.478 222.347L390.078 223.087C389.598 223.937 389.078 224.777 388.578 225.617L388.388 225.917C387.928 226.657 387.448 227.387 386.948 228.107L386.428 228.857C386.008 229.457 385.578 230.057 385.138 230.647L384.618 231.337C384.008 232.127 383.388 232.917 382.748 233.687L382.568 233.897C381.978 234.597 381.378 235.287 380.758 235.967L380.128 236.637C379.618 237.187 379.128 237.727 378.568 238.267L377.948 238.897C377.218 239.607 376.488 240.317 375.728 240.997L375.578 241.137C374.858 241.804 374.128 242.434 373.388 243.027L372.658 243.617C372.068 244.097 371.468 244.567 370.858 245.037L370.118 245.597C369.288 246.217 368.438 246.827 367.568 247.417L367.468 247.477C366.628 248.047 365.768 248.597 364.898 249.137L364.078 249.637C363.408 250.037 362.728 250.437 362.078 250.817L361.238 251.287C360.298 251.807 359.338 252.307 358.358 252.787C323.708 269.787 282.878 257.627 267.158 225.617L263.218 217.567C278.878 249.617 319.708 261.777 354.368 244.767Z" fill="black"/>
<path d="M368.827 129.957L369.377 129.117C366.897 127.496 364.315 126.036 361.647 124.747L361.207 125.647C363.839 126.914 366.385 128.354 368.827 129.957ZM353.717 122.557L354.047 121.617C342.144 117.589 329.416 116.64 317.047 118.857L317.217 119.857C329.417 117.671 341.971 118.599 353.717 122.557Z" fill="#2026A2"/>
<path d="M388.667 156.027C372.957 124.027 332.137 111.867 297.477 128.877C262.817 145.887 247.477 185.617 263.167 217.617C278.857 249.617 319.707 261.797 354.367 244.787C389.027 227.777 404.377 188.027 388.667 156.027ZM277.507 210.577C265.397 185.897 277.237 155.227 303.977 142.107C330.717 128.987 362.217 138.377 374.327 163.107C386.437 187.837 374.587 218.457 347.857 231.577C321.127 244.697 289.637 235.317 277.507 210.577Z" fill="#2026A2"/>
<path d="M204.078 240.297L209.078 250.417C209.306 250.881 209.625 251.294 210.015 251.633C210.406 251.971 210.86 252.228 211.352 252.387C211.843 252.547 212.362 252.606 212.876 252.561C213.391 252.516 213.892 252.369 214.348 252.127L278.648 218.267L272.078 204.947L205.958 235.087C205.488 235.3 205.065 235.605 204.714 235.984C204.363 236.363 204.092 236.809 203.917 237.295C203.742 237.781 203.665 238.297 203.693 238.812C203.721 239.328 203.852 239.833 204.078 240.297Z" fill="#2026A2"/>
<path opacity="0.1" d="M276.587 211.027C264.237 185.877 276.307 154.627 303.587 141.257C330.867 127.887 362.937 137.457 375.287 162.607C387.637 187.757 375.547 219.017 348.287 232.387C321.027 245.757 288.947 236.207 276.597 211.027" fill="white"/>
<path opacity="0.1" d="M303.557 141.237C310.274 137.929 317.562 135.936 325.027 135.367L379.517 176.137C380.595 183.15 380.148 190.313 378.207 197.137L303.557 141.237Z" fill="white"/>
<path d="M222.927 221.597C226.987 220.137 229.777 222.837 232.587 224.237C233.067 224.477 232.927 225.897 231.967 226.037C231.389 226.174 230.788 226.192 230.202 226.091C229.616 225.989 229.057 225.77 228.557 225.447C227.557 226.367 223.977 227.907 221.357 225.137C221.432 223.805 221.99 222.546 222.927 221.597Z" fill="#B55B52"/>
<path d="M169.278 126.807H171.598C171.639 126.808 171.68 126.8 171.718 126.783C171.755 126.765 171.788 126.74 171.814 126.708C171.84 126.676 171.858 126.639 171.868 126.599C171.877 126.559 171.877 126.517 171.868 126.477L170.708 121.137C170.695 121.075 170.661 121.02 170.612 120.98C170.563 120.94 170.501 120.918 170.438 120.917C170.376 120.916 170.315 120.938 170.267 120.979C170.219 121.019 170.188 121.075 170.178 121.137L169.018 126.477C169.009 126.517 169.008 126.558 169.017 126.598C169.026 126.638 169.043 126.675 169.068 126.707C169.092 126.739 169.124 126.766 169.161 126.783C169.197 126.8 169.238 126.809 169.278 126.807ZM171.278 126.267H169.638L170.458 122.487L171.278 126.267Z" fill="white"/>
<path d="M236.337 97.1274L242.007 106.127L242.907 105.557C244.199 104.801 245.352 103.83 246.317 102.687C247.054 101.726 247.61 100.638 247.957 99.4774C248.528 97.0864 248.945 94.6615 249.207 92.2174C249.437 90.2874 249.997 89.0374 250.867 88.4974C251.228 88.2453 251.639 88.073 252.072 87.992C252.505 87.9109 252.95 87.923 253.377 88.0274C254.319 88.3545 255.101 89.0263 255.567 89.9074C255.909 90.4119 256.142 90.9815 256.252 91.5804C256.362 92.1794 256.347 92.7946 256.207 93.3874C255.927 94.5974 254.927 95.8774 253.207 97.2474L260.147 105.727C263.113 103.601 265.192 100.458 265.987 96.8974C266.701 93.4574 265.661 89.5274 262.867 85.1074C260.701 81.6608 258.231 79.3274 255.457 78.1074C253.809 77.2842 251.975 76.9047 250.136 77.0064C248.296 77.1081 246.515 77.6875 244.967 78.6874C243.606 79.5662 242.508 80.7962 241.787 82.2474C240.803 84.6102 240.225 87.1222 240.077 89.6774C239.988 91.378 239.603 93.0499 238.937 94.6174C238.295 95.6588 237.401 96.5219 236.337 97.1274ZM239.807 107.947L233.737 98.3074L225.227 103.667L231.307 113.317L239.807 107.947Z" fill="#2026A2"/>
<path d="M156.078 73.6174L163.578 69.5374L163.168 68.7874C162.628 67.718 161.911 66.7476 161.048 65.9174C160.318 65.2777 159.477 64.7762 158.568 64.4374C156.676 63.8461 154.749 63.3752 152.798 63.0274C151.268 62.7374 150.298 62.2374 149.908 61.5074C149.723 61.2126 149.602 60.882 149.554 60.5374C149.506 60.1927 149.531 59.8417 149.628 59.5074C149.933 58.7659 150.514 58.1712 151.248 57.8474C151.669 57.6003 152.137 57.4425 152.622 57.384C153.107 57.3255 153.599 57.3675 154.068 57.5074C155.298 58.0377 156.325 58.9492 156.998 60.1074L164.138 55.0274C162.592 52.5442 160.185 50.7177 157.378 49.8974C154.658 49.1574 151.458 49.7874 147.778 51.7874C145.263 52.9991 143.173 54.9401 141.778 57.3574C141.038 58.6346 140.642 60.0821 140.63 61.5582C140.617 63.0342 140.989 64.4881 141.708 65.7774C142.338 66.9162 143.268 67.8604 144.398 68.5074C146.236 69.4222 148.218 70.0142 150.258 70.2574C151.614 70.4125 152.931 70.8087 154.148 71.4274C154.968 71.98 155.633 72.7341 156.078 73.6174ZM164.918 71.3874L156.918 75.7574L160.768 82.8374L168.768 78.4674L164.918 71.3874Z" fill="#2026A2"/>
<path d="M143.928 94.6772L145.928 88.2972L145.288 88.0972C144.4 87.792 143.467 87.6399 142.528 87.6472C141.771 87.6809 141.028 87.8573 140.338 88.1672C138.954 88.8652 137.618 89.6536 136.338 90.5272C136.005 90.8166 135.614 91.0308 135.191 91.155C134.769 91.2793 134.324 91.3107 133.888 91.2472C133.618 91.1781 133.366 91.0534 133.147 90.8813C132.928 90.7091 132.748 90.4931 132.618 90.2472C132.391 89.6653 132.391 89.0192 132.618 88.4372C132.719 88.068 132.896 87.7237 133.137 87.426C133.378 87.1283 133.678 86.8836 134.018 86.7072C134.997 86.3348 136.069 86.2857 137.078 86.5672L138.308 79.8072C136.083 79.2565 133.733 79.5449 131.708 80.6172C129.781 81.6772 128.328 83.7739 127.348 86.9072C126.604 88.9541 126.496 91.1779 127.038 93.2872C127.322 94.406 127.894 95.4314 128.695 96.2625C129.496 97.0936 130.5 97.7018 131.608 98.0272C132.582 98.3282 133.621 98.3524 134.608 98.0972C136.139 97.6051 137.576 96.858 138.858 95.8872C139.703 95.2337 140.658 94.736 141.678 94.4172C142.438 94.3159 143.211 94.4052 143.928 94.6772ZM147.678 88.6072L145.548 95.4372L151.548 97.3172L153.678 90.4872L147.678 88.6072Z" fill="#2026A2"/>
</g>
<defs>
<clipPath id="clip0_3624_10537">
<rect width="500" height="500" fill="white" transform="matrix(-1 0 0 1 500.078 0.0273438)"/>
</clipPath>
</defs>
</svg>
