<svg width="220" height="216" viewBox="0 0 220 216" fill="none" xmlns="http://www.w3.org/2000/svg">
<path d="M37.8965 184.337L38.7103 175.534L28.1462 172.279L39.9575 171.696L44.7124 163.364L44.5315 172.21L54.4627 175.421L43.2644 176.109L37.8965 184.337Z" fill="white"/>
<path d="M215.499 185.833L215.962 180.911L210.054 179.097L216.659 178.766L219.31 174.105L219.209 179.049L224.763 180.853L218.498 181.235L215.499 185.833Z" fill="white"/>
<path d="M21.0525 131.26L21.5004 126.347L15.5955 124.522L22.1973 124.202L24.8607 119.542L24.7467 124.485L30.305 126.279L24.0364 126.671L21.0525 131.26Z" fill="white"/>
<path d="M56.7442 161.435C56.7316 161.213 56.6287 161.009 56.4505 160.851C56.2724 160.693 56.0284 160.59 55.7542 160.557C55.4799 160.524 55.1899 160.563 54.9264 160.669C54.6629 160.774 54.4399 160.939 54.2899 161.141C54.3025 161.363 54.4054 161.567 54.5835 161.725C54.7617 161.883 55.0057 161.986 55.2799 162.019C55.5542 162.052 55.8442 162.013 56.1077 161.908C56.3711 161.803 56.5942 161.637 56.7442 161.435V161.435Z" fill="white"/>
<path d="M118.085 11.1568C118.077 10.9319 117.977 10.7231 117.798 10.5617C117.62 10.4004 117.373 10.2952 117.095 10.262C116.817 10.2287 116.523 10.2692 116.257 10.3774C115.991 10.4856 115.767 10.6556 115.62 10.8619C115.627 11.0869 115.728 11.2957 115.907 11.457C116.085 11.6184 116.332 11.7236 116.61 11.7568C116.888 11.7901 117.182 11.7495 117.448 11.6414C117.714 11.5332 117.937 11.3632 118.085 11.1568V11.1568Z" fill="white"/>
<path d="M126.435 24.8342C127.55 21.4042 120.946 20.6157 119.831 24.0457C118.717 27.4757 125.317 28.2744 126.435 24.8342Z" fill="white"/>
</svg>
