<svg width="43" height="52" viewBox="0 0 43 52" fill="none" xmlns="http://www.w3.org/2000/svg">
<path d="M34.6914 0H8.74661C6.62577 0 4.59179 0.905016 3.09213 2.51595C1.59248 4.12689 0.75 6.31179 0.75 8.59V32.86C0.75 35.1382 1.59248 37.3231 3.09213 38.9341C4.59179 40.545 6.62577 41.45 8.74661 41.45H25.3822L30.7815 51.05V41.45H34.6914C36.8122 41.45 38.8462 40.545 40.3458 38.9341C41.8455 37.3231 42.688 35.1382 42.688 32.86V8.57C42.683 6.29526 41.8384 4.1155 40.3393 2.50888C38.8401 0.902266 36.809 -6.1656e-06 34.6914 0Z" fill="#407BFF"/>
<path opacity="0.7" d="M34.2454 23.7747C35.88 16.3355 31.5909 8.88143 24.6656 7.12561C17.7403 5.3698 10.8011 9.97711 9.1666 17.4163C7.53208 24.8556 11.8211 32.3096 18.7465 34.0654C25.6718 35.8212 32.6109 31.2139 34.2454 23.7747Z" fill="white"/>
<path d="M20.3737 26.78C20.1968 26.7867 20.0209 26.7496 19.8594 26.6716C19.698 26.5935 19.5555 26.4767 19.4428 26.33L14.3879 19.94C14.287 19.8126 14.2105 19.6652 14.1627 19.506C14.1149 19.3469 14.0968 19.1792 14.1093 19.0125C14.1219 18.8458 14.1648 18.6834 14.2358 18.5346C14.3068 18.3857 14.4043 18.2534 14.5229 18.145C14.6415 18.0367 14.7788 17.9545 14.9269 17.9031C15.0751 17.8518 15.2312 17.8323 15.3864 17.8458C15.5415 17.8592 15.6927 17.9054 15.8312 17.9816C15.9698 18.0578 16.093 18.1626 16.1939 18.29L20.3458 23.55L27.1974 14.87C27.4015 14.6121 27.6923 14.4515 28.0064 14.4234C28.3204 14.3953 28.632 14.5019 28.873 14.72C29.1112 14.9389 29.2587 15.2504 29.2831 15.586C29.3076 15.9217 29.207 16.254 29.0034 16.51L21.2488 26.33C21.1409 26.4672 21.007 26.5783 20.8562 26.6559C20.7054 26.7334 20.5409 26.7758 20.3737 26.78Z" fill="#407BFF"/>
</svg>
