<svg width="135" height="292" viewBox="0 0 135 292" fill="none" xmlns="http://www.w3.org/2000/svg">
<path d="M61.5791 62.399C65.5729 65.9514 69.7389 69.2744 74.0597 72.3538C76.2531 73.9207 78.4465 75.4169 80.8483 76.8188C82.0328 77.5139 83.2611 78.1972 84.61 78.8333C85.29 79.1396 85.9809 79.446 86.8034 79.7287C87.1763 79.8701 87.615 80.0114 88.0427 80.1292C88.1743 80.1292 88.2072 80.1882 88.4156 80.2353L88.964 80.3531C89.308 80.4208 89.6563 80.4602 90.0059 80.4709C92.0384 80.498 94.0421 79.9538 95.8184 78.8923C97.1576 78.1388 98.4344 77.2638 99.635 76.2769C101.787 74.4829 103.807 72.5136 105.678 70.3864C109.283 66.3359 112.563 61.9653 115.482 57.3214L111.545 53.7871C107.948 57.4039 104.197 60.997 100.447 64.2486C98.6304 65.8328 96.7259 67.2963 94.7437 68.6311C93.8786 69.2125 92.9686 69.7131 92.0238 70.1272C91.5757 70.3829 91.0721 70.5049 90.5652 70.4807H90.7516C90.7516 70.4807 90.6858 70.4807 90.6639 70.4807C90.473 70.4102 90.2863 70.3276 90.1046 70.2333C89.6515 70.0259 89.2086 69.7939 88.7775 69.5382C87.8453 68.9963 86.8583 68.3601 85.8712 67.7004C83.8972 66.3573 81.9121 64.8612 79.9271 63.3414C77.942 61.8217 75.9789 60.2077 74.0158 58.6291C72.0527 57.0504 70.0786 55.3657 68.1703 53.7989L61.5791 62.399Z" fill="#DC897C"/>
<path d="M58.2451 55.2132C57.3567 66.5936 78.3917 77.597 78.3917 77.597L85.3887 65.3448C81.3928 60.0357 77.0144 55.0724 72.2939 50.5009C65.5053 44.3041 58.8373 47.6499 58.2451 55.2132Z" fill="#407BFF"/>
<path opacity="0.7" d="M65.4285 68.4519C67.0815 69.9925 68.8252 71.417 70.6489 72.7166C73.1324 74.5217 75.7183 76.1585 78.3917 77.6174L85.3887 65.3653C81.3911 60.054 77.0089 55.0906 72.283 50.5213C65.5053 44.301 58.8263 47.6468 58.2451 55.2337C57.8722 59.946 61.3049 64.6231 65.4285 68.4519Z" fill="white"/>
<path d="M111.578 54.2589L117.424 45.7649L123.434 52.3622C123.434 52.3622 120.143 58.9242 114.452 58.1584L111.578 54.2589Z" fill="#E4897B"/>
<path d="M123.726 42.5127L127.115 48.5917L123.43 52.3615L117.42 45.7642L123.726 42.5127Z" fill="#E4897B"/>
<path opacity="0.2" d="M65.4261 68.4564C67.0791 69.997 68.8228 71.4215 70.6465 72.7211C69.7947 69.7007 68.5779 66.8134 67.0273 64.1328C66.0819 65.3562 65.5214 66.8697 65.4261 68.4564Z" fill="black"/>
<path d="M75.2183 282.302L66.9601 282.066C66.8106 282.061 66.664 282.111 66.5444 282.207C66.4248 282.304 66.3393 282.441 66.302 282.596L64.5583 289.736C64.5168 289.908 64.5123 290.088 64.5449 290.263C64.5776 290.437 64.6467 290.601 64.747 290.743C64.8472 290.885 64.9761 291 65.1239 291.081C65.2716 291.161 65.4345 291.205 65.6001 291.208C68.5832 291.208 72.8933 291.208 76.6331 291.291C81.0199 291.409 83.7946 291.185 88.9272 291.291C92.0309 291.385 93.007 288.051 91.7238 287.756C85.8564 286.201 82.0179 286.508 77.0169 283.044C76.4975 282.614 75.8723 282.356 75.2183 282.302Z" fill="#263238"/>
<g opacity="0.4">
<path d="M75.2222 282.302L66.964 282.067C66.8145 282.062 66.668 282.111 66.5483 282.208C66.4287 282.304 66.3432 282.441 66.3059 282.597L64.5622 289.736C64.5207 289.908 64.5162 290.089 64.5488 290.263C64.5815 290.438 64.6506 290.602 64.7509 290.744C64.8511 290.885 64.98 291.001 65.1278 291.081C65.2755 291.162 65.4384 291.205 65.6041 291.209C68.5871 291.209 72.8972 291.209 76.637 291.291C81.0238 291.409 83.7985 291.185 88.9311 291.291C92.0348 291.385 93.0109 288.051 91.7277 287.757C85.8603 286.202 82.0218 286.508 77.0208 283.045C76.5014 282.614 75.8762 282.356 75.2222 282.302Z" fill="white"/>
</g>
<path d="M33.2063 282.302L24.9481 282.066C24.7987 282.061 24.6521 282.111 24.5325 282.207C24.4129 282.304 24.3274 282.441 24.2901 282.596L22.5573 289.736C22.5158 289.908 22.5112 290.088 22.5439 290.263C22.5766 290.437 22.6457 290.601 22.7459 290.743C22.8462 290.885 22.9751 291 23.1228 291.081C23.2706 291.161 23.4335 291.205 23.5991 291.208C26.5712 291.208 30.8813 291.208 34.6321 291.291C39.0189 291.409 41.7936 291.185 46.9262 291.291C50.0299 291.385 50.995 288.051 49.7118 287.756C43.8444 286.201 40.006 286.508 35.005 283.044C34.4878 282.609 33.8614 282.351 33.2063 282.302Z" fill="#263238"/>
<g opacity="0.4">
<path d="M33.2063 282.302L24.9481 282.067C24.7987 282.062 24.6521 282.111 24.5325 282.208C24.4129 282.304 24.3274 282.441 24.2901 282.597L22.5573 289.736C22.5158 289.908 22.5112 290.089 22.5439 290.263C22.5766 290.438 22.6457 290.602 22.7459 290.744C22.8462 290.885 22.9751 291.001 23.1228 291.081C23.2706 291.162 23.4335 291.205 23.5991 291.209C26.5712 291.209 30.8813 291.209 34.6321 291.291C39.0189 291.409 41.7936 291.185 46.9262 291.291C50.0299 291.385 50.995 288.051 49.7118 287.757C43.8444 286.202 40.006 286.508 35.005 283.045C34.4878 282.61 33.8614 282.351 33.2063 282.302Z" fill="white"/>
</g>
<path d="M19.1239 107.106C15.1429 125.602 23.0392 283.42 23.0392 283.42L36.0791 282.984L40.762 149.859L65.5916 284.209L78.2695 282.171C69.0681 188.253 58.2326 119.995 58.2326 119.995V112.926L19.1239 107.106Z" fill="#263238"/>
<path d="M26.198 38.6156C26.6113 47.4595 26.4023 56.3243 25.5728 65.1344C25.0354 71.2841 24.2677 77.1039 23.4562 82.3581C21.5698 94.6692 19.4093 103.894 19.0693 107.098L58.2109 112.906C72.4682 70.0235 67.1053 47.2746 67.1053 47.2746L58.1451 41.7729L56.1601 41.2309C50.6586 40.0723 45.1003 39.2502 39.512 38.7687C38.4153 38.6627 37.3734 38.592 36.3316 38.5449C31.0235 38.2975 26.198 38.6156 26.198 38.6156Z" fill="#407BFF"/>
<g opacity="0.7">
<path d="M19.1228 107.107C24.8696 107.967 46.4858 111.172 58.2754 112.904C72.5326 70.0328 67.1697 47.2838 67.1697 47.2838L58.2096 41.7939C58.2096 41.7939 56.8935 41.4169 56.2136 41.2402C50.7159 40.0807 45.1612 39.2586 39.5765 38.778C38.4798 38.6837 37.4379 38.6013 36.396 38.5542C31.0441 38.295 26.2295 38.5542 26.2295 38.5542C26.4982 44.225 26.4982 49.9068 26.2295 55.5776C26.076 58.8174 25.8566 61.9864 25.5934 65.073C25.5934 65.2144 25.5934 65.3675 25.5934 65.5089C25.045 71.4936 24.2993 77.172 23.5097 82.2967C21.5685 94.6667 19.4189 103.891 19.1228 107.107Z" fill="white"/>
</g>
<path d="M40.9368 38.5791C40.9368 38.5791 49.9189 46.1895 52.6168 46.1542C54.5141 46.1542 57.2559 42.8084 57.2559 42.8084C56.096 42.2225 55.0815 41.3506 54.2948 40.2637C52.4194 37.4952 53.5051 34.1494 55.0405 31.0746L47.1552 19.2937C47.0219 22.1603 46.6846 25.0118 46.1462 27.8231C45.2579 32.4294 43.6567 36.9415 40.9368 38.5791Z" fill="#E4897B"/>
<path opacity="0.2" d="M46.1448 27.8457C46.9673 32.9822 49.051 38.908 54.2933 40.251C52.4179 37.4825 53.5037 34.1367 55.0391 31.0619L47.1537 19.281C47.0222 22.1595 46.6849 25.0228 46.1448 27.8457Z" fill="black"/>
<path d="M52.6191 46.1685C52.6191 46.1685 50.4257 48.3008 47.9362 50.3625C44.9312 48.2184 37.9561 42.5989 38.8006 38.3577C39.3818 37.1797 42.5184 36.7673 42.5184 36.7673C42.5184 36.7673 45.315 41.8213 52.6191 46.1685Z" fill="#407BFF"/>
<path d="M52.6152 46.1659C54.0429 47.7271 55.2544 49.5006 56.2124 51.432C58.7568 50.089 58.4607 41.9484 57.693 40.9588C56.5368 40.0538 55.186 39.4783 53.7668 39.2859C54.1118 40.4466 54.1872 41.6803 53.9865 42.8796C53.7858 44.0788 53.315 45.207 52.6152 46.1659Z" fill="#407BFF"/>
<g opacity="0.5">
<path d="M52.6191 46.1624C52.6191 46.1624 50.4257 48.2947 47.9362 50.3564C44.9312 48.2123 37.9561 42.5928 38.8006 38.3516C39.3818 37.1736 42.5184 36.7612 42.5184 36.7612C42.5184 36.7612 45.315 41.8152 52.6191 46.1624Z" fill="white"/>
<path d="M52.6191 46.1642C54.0468 47.7254 55.2583 49.4989 56.2163 51.4303C58.7607 50.0873 58.4646 41.9467 57.6969 40.9571C56.5407 40.0521 55.1899 39.4765 53.7707 39.2842C54.1157 40.4449 54.1911 41.6786 53.9904 42.8778C53.7897 44.0771 53.3189 45.2053 52.6191 46.1642Z" fill="white"/>
</g>
<path opacity="0.2" d="M45.171 175.649L40.7841 149.849L41.6286 136.206C41.6286 136.206 47.6386 159.874 45.171 175.649Z" fill="black"/>
<path d="M67.1834 10.9281C68.0498 14.1914 67.3588 20.8241 63.2023 18.5386C59.0458 16.2531 65.6918 5.30859 67.1834 10.9281Z" fill="#263238"/>
<path d="M45.3454 14.6504C44.6655 22.9678 43.8759 27.798 47.166 32.6046C52.1231 39.8498 62.1471 37.5054 65.1301 29.5533C67.8171 22.4023 68.4751 10.0088 61.4013 5.60269C59.8354 4.62373 58.0637 4.08777 56.2524 4.04501C54.441 4.00226 52.6492 4.4541 51.0447 5.35823C49.4403 6.26236 48.0758 7.58918 47.0789 9.21439C46.0821 10.8396 45.4857 12.71 45.3454 14.6504Z" fill="#E4897B"/>
<path d="M56.685 18.7139C56.5973 19.3736 56.8495 19.9744 57.2553 20.0333C57.6611 20.0922 58.0778 19.5974 58.1765 18.9259C58.2752 18.2544 58.012 17.6653 57.5953 17.6064C57.1785 17.5475 56.7837 18.0895 56.685 18.7139Z" fill="#263238"/>
<path d="M63.7716 19.7784C63.6729 20.4499 63.9361 21.039 64.3419 21.0979C64.7477 21.1568 65.1644 20.6738 65.2521 20.0022C65.3399 19.3307 65.0876 18.7299 64.6818 18.671C64.2761 18.6121 63.8593 19.1069 63.7716 19.7784Z" fill="#263238"/>
<path d="M61.47 19.7644C61.9663 21.8659 62.7303 23.8838 63.7402 25.7609C63.2667 26.0058 62.7505 26.1408 62.2252 26.1571C61.6998 26.1733 61.1772 26.0704 60.6914 25.8551L61.47 19.7644Z" fill="#DE5753"/>
<path d="M54.8434 15.9326C54.9088 15.9507 54.9774 15.9504 55.0427 15.9318C55.108 15.9133 55.1678 15.877 55.2163 15.8266C55.5382 15.4636 55.9357 15.1878 56.3761 15.022C56.8165 14.8561 57.2872 14.8048 57.7497 14.8723C57.847 14.8936 57.9481 14.8736 58.032 14.8165C58.1158 14.7594 58.1758 14.6696 58.1993 14.566C58.2106 14.5149 58.212 14.4618 58.2036 14.4101C58.1952 14.3584 58.1771 14.309 58.1505 14.2649C58.1239 14.2209 58.0892 14.1831 58.0486 14.1539C58.0079 14.1246 57.9622 14.1045 57.9142 14.0948C57.3281 13.998 56.729 14.0546 56.1677 14.2597C55.6064 14.4648 55.0994 14.8123 54.6898 15.2729C54.6202 15.3479 54.5811 15.4496 54.5811 15.5556C54.5811 15.6616 54.6202 15.7633 54.6898 15.8384C54.7349 15.8801 54.787 15.9121 54.8434 15.9326Z" fill="#263238"/>
<path d="M67.1837 17.6194C67.2487 17.64 67.3177 17.6412 67.3833 17.6228C67.4489 17.6045 67.5086 17.5672 67.556 17.5151C67.6033 17.463 67.6366 17.398 67.6522 17.3271C67.6677 17.2563 67.665 17.1822 67.6443 17.1128C67.4794 16.5072 67.181 15.9533 66.7743 15.498C66.3676 15.0427 65.8647 14.6995 65.3083 14.4975C65.2138 14.4722 65.1139 14.4876 65.0299 14.5405C64.9458 14.5933 64.8844 14.6793 64.8586 14.7802C64.8436 14.8305 64.8382 14.8835 64.8429 14.936C64.8476 14.9886 64.8622 15.0395 64.8858 15.0858C64.9094 15.1321 64.9415 15.1728 64.9802 15.2053C65.0189 15.2378 65.0634 15.2615 65.1109 15.275C65.5507 15.4346 65.9471 15.7085 66.2647 16.0723C66.5823 16.436 66.8113 16.8785 66.9314 17.3602C66.9521 17.4213 66.9857 17.4764 67.0294 17.5214C67.0731 17.5663 67.1259 17.5999 67.1837 17.6194Z" fill="#263238"/>
<path d="M58.2532 9.84469C58.2532 9.84469 56.3449 7.90084 55.1604 9.51482C53.976 11.1288 53.4276 15.8176 53.4276 15.8176L53.1096 14.9223C53.1096 14.9223 49.0518 24.9478 45.4326 21.7316C41.8135 18.5154 37.3499 7.08796 47.2861 3.05888C47.2861 3.05888 48.5911 0.702696 54.8533 0.349268C61.1156 -0.00415966 68.0139 5.14411 68.6939 9.66798C69.3738 14.1919 67.323 16.336 67.323 16.336C67.2436 15.3667 66.9544 14.4307 66.4785 13.6028C66.3423 14.0327 66.1086 14.4194 65.7984 14.7279C65.4882 15.0365 65.1113 15.2571 64.7018 15.3699C64.8791 14.4903 64.8182 13.5746 64.5263 12.731C64.2398 13.4742 63.8013 14.1385 63.2432 14.6749C63.3639 10.1392 60.655 8.7844 59.7556 8.71371C59.4256 8.70526 59.1018 8.81049 58.8314 9.01399C58.5611 9.21749 58.3584 9.50859 58.2532 9.84469Z" fill="#263238"/>
<path d="M41.421 21.0392C41.5768 22.062 41.9197 23.0414 42.4298 23.921C42.9399 24.8006 43.6072 25.5629 44.3931 26.164C46.5098 27.7544 48.4509 25.9401 48.5935 23.313C48.7251 20.9568 47.7819 17.2576 45.3034 16.7157C44.7588 16.6084 44.198 16.6474 43.6709 16.8294C43.1438 17.0114 42.6669 17.3307 42.2825 17.7587C41.8982 18.1868 41.6183 18.7103 41.468 19.2827C41.3177 19.8551 41.3015 20.4585 41.421 21.0392Z" fill="#E4897B"/>
<path d="M60.0977 28.5852C59.3434 29.2296 58.6325 29.9304 57.9701 30.6822L57.5533 30.3759C55.656 28.9622 55.2063 27.6428 55.2831 26.5943C55.33 26.0886 55.492 25.6031 55.7547 25.1806C55.895 24.9308 56.0687 24.7046 56.2701 24.509C57.0802 25.9201 58.1652 27.1258 59.4506 28.0433C59.8344 28.4085 60.0977 28.5852 60.0977 28.5852Z" fill="#263238"/>
<path d="M59.4512 28.093L58.8151 28.6938C57.0275 27.3626 55.9417 26.1727 55.7553 25.1596C55.8956 24.9098 56.0692 24.6836 56.2707 24.488C57.0732 25.9247 58.1587 27.1552 59.4512 28.093Z" fill="white"/>
<path d="M57.5077 30.3769C55.6104 28.9632 55.1607 27.6437 55.2375 26.5952C55.9471 27.15 56.5629 27.8314 57.058 28.6097C57.3729 29.1354 57.5299 29.7523 57.5077 30.3769Z" fill="#A24E3F"/>
<path d="M58.255 115.051L59.0117 110.598L19.1134 104.295L18.4992 112.082L58.255 115.051Z" fill="#263238"/>
<path d="M55.7874 111.279L55.4364 113.741L58.6279 114.153L59.0117 111.703L55.7874 111.279Z" fill="black"/>
<path d="M33.536 108.285L33.1741 110.889L54.0006 113.563L54.3516 111.077L33.536 108.285Z" fill="black"/>
<path d="M18.4984 109.003L31.7248 110.699L32.0977 108.107L18.7288 106.305L18.4984 109.003Z" fill="black"/>
<path d="M47.2991 111.042L47.1456 111.903C47.1058 112.108 46.9963 112.291 46.8382 112.415C46.6802 112.539 46.4848 112.596 46.2901 112.574L42.8355 112.126C42.7308 112.113 42.6295 112.078 42.538 112.022C42.4464 111.966 42.3664 111.89 42.3029 111.8C42.2393 111.709 42.1934 111.606 42.1681 111.496C42.1428 111.386 42.1385 111.272 42.1555 111.16L42.2542 110.277C42.2665 110.168 42.2986 110.062 42.3487 109.966C42.3989 109.871 42.4661 109.787 42.5466 109.719C42.627 109.651 42.7192 109.601 42.8176 109.571C42.9161 109.542 43.0191 109.533 43.1206 109.546L46.6301 110.018C46.7395 110.031 46.8451 110.069 46.9397 110.13C47.0344 110.19 47.116 110.272 47.1792 110.368C47.2424 110.465 47.2858 110.575 47.3065 110.692C47.3271 110.808 47.3246 110.927 47.2991 111.042V111.042Z" stroke="white" stroke-width="0.589046" stroke-linecap="round" stroke-linejoin="round"/>
<path d="M44.0195 110.945L42.9338 110.804" stroke="white" stroke-width="0.589046" stroke-linecap="round" stroke-linejoin="round"/>
<path d="M13.6394 100.1L23.5098 99.3936L22.6982 108.594C22.6982 108.594 15.8986 110.126 12.773 104.966L13.6394 100.1Z" fill="#E4897B"/>
<path d="M29.793 102.48L27.6653 109.184L22.5985 108.594L23.3991 99.3936L29.793 102.48Z" fill="#E4897B"/>
<path opacity="0.2" d="M25.5401 65.5703C28.2051 61.3056 28.918 54.1899 28.918 54.1899C27.9158 54.4101 26.9853 54.9098 26.2201 55.639C26.0665 58.8787 25.8472 62.0478 25.584 65.1344C25.573 65.2758 25.562 65.4289 25.5401 65.5703Z" fill="black"/>
<path d="M22.1079 41.5374C18.2336 45.6101 14.5548 49.8921 11.0859 54.3668C9.32024 56.6052 7.60935 58.9142 5.98621 61.4353C5.17465 62.6723 4.36309 63.9447 3.59539 65.3348C2.70184 66.8953 1.9665 68.5541 1.40197 70.2828C1.07985 71.4289 0.91724 72.6199 0.919416 73.8171C0.920141 74.7557 0.98612 75.6929 1.11682 76.6209C1.35319 78.2377 1.69028 79.8357 2.1258 81.404C2.93806 84.2913 3.91974 87.1205 5.06498 89.8745C7.27143 95.2124 9.83722 100.37 12.742 105.307L17.3372 102.845C15.5824 97.591 13.8606 92.2424 12.402 86.9764C11.6717 84.4118 11.0641 81.8087 10.5814 79.1774C10.3536 77.9928 10.207 76.7919 10.1428 75.5842C10.1146 75.0978 10.1146 74.6099 10.1428 74.1234C10.1428 73.7228 10.2634 73.4401 10.2853 73.4872C10.7047 72.5744 11.1925 71.6997 11.7439 70.8719C12.402 69.8705 13.1258 68.822 13.9374 67.7852C15.4837 65.7118 17.1617 63.6384 18.8616 61.5767C20.5615 59.5151 22.3491 57.5005 24.1258 55.4624C25.9025 53.4243 27.723 51.4098 29.4668 49.4306L22.1079 41.5374Z" fill="#DC897C"/>
<path d="M28.8843 38.5923C18.3778 36.8487 6.66496 58.6199 6.66496 58.6199L17.5553 66.9726C22.7665 63.0789 27.6806 58.7455 32.2512 54.0136C38.5134 47.1335 35.8703 39.7586 28.8843 38.5923Z" fill="#407BFF"/>
<path opacity="0.7" d="M28.8843 38.5923C18.3778 36.8487 6.66496 58.6199 6.66496 58.6199L17.5553 66.9726C22.7665 63.0789 27.6806 58.7455 32.2512 54.0136C38.5134 47.1335 35.8703 39.7586 28.8843 38.5923Z" fill="white"/>
<path d="M122.203 289.043L121.392 291.34L120.558 289.054L120.448 277.108L122.093 277.097L122.203 289.043Z" fill="#263238"/>
<path d="M115.074 37.7212L123.2 37.6374L122.985 13.523C122.981 13.0918 122.818 12.6799 122.531 12.378C122.245 12.076 121.858 11.9087 121.457 11.9129L116.358 11.9655C115.956 11.9696 115.573 12.1448 115.292 12.4526C115.011 12.7604 114.855 13.1756 114.859 13.6068L115.074 37.7212Z" fill="#263238"/>
<path opacity="0.3" d="M123.18 37.624L115.053 37.7065L114.834 13.5438C114.834 13.1249 114.986 12.7226 115.259 12.4232C115.532 12.1237 115.902 11.9508 116.292 11.9416H121.48C121.672 11.9385 121.863 11.9763 122.042 12.0529C122.221 12.1295 122.384 12.2434 122.522 12.388C122.659 12.5325 122.769 12.7049 122.844 12.8952C122.919 13.0855 122.959 13.2899 122.96 13.4967L123.18 37.624Z" fill="white"/>
<path d="M124.595 31.7346L113.529 31.8524C112.542 31.8642 111.597 32.287 110.893 33.0318C110.19 33.7766 109.782 34.7854 109.757 35.8461C107.936 111.197 108.667 186.559 111.95 261.934C111.95 261.934 113.815 277.096 120.022 286.827H122.753C128.796 276.978 130.43 261.781 130.43 261.781C132.265 186.406 131.603 111.028 128.445 35.6458C128.399 34.5854 127.973 33.5852 127.255 32.8557C126.537 32.1262 125.584 31.7243 124.595 31.7346Z" fill="#263238"/>
<path d="M132.327 28.5763L113.682 28.7648C113.534 28.7646 113.386 28.7969 113.25 28.8597C113.113 28.9226 112.99 29.0147 112.887 29.1304C112.784 29.2461 112.705 29.383 112.653 29.5328C112.601 29.6826 112.578 29.8422 112.586 30.0018V32.0163L131.559 31.816C133.16 62.1637 132.217 87.4573 132.217 87.4573L130.835 88.1877L132.338 94.0782C135.683 83.9584 134.005 38.3191 133.654 29.9075C133.648 29.7265 133.609 29.5484 133.539 29.3835C133.47 29.2186 133.37 29.0701 133.247 28.9464C133.124 28.8228 132.979 28.7265 132.821 28.663C132.663 28.5994 132.495 28.57 132.327 28.5763Z" fill="#263238"/>
<path d="M131.382 145.353L108.812 145.585L108.771 140.932L131.34 140.699L131.382 145.353Z" fill="#263238"/>
<path d="M108.44 184.202C108.893 206.617 109.559 229.001 110.436 251.353C110.456 251.843 110.653 252.305 110.984 252.641C111.316 252.978 111.757 253.162 112.213 253.156L129.892 252.944C130.348 252.938 130.783 252.741 131.107 252.396C131.43 252.051 131.616 251.584 131.624 251.094C132.122 228.781 132.385 206.397 132.414 183.943C132.414 183.693 132.368 183.445 132.279 183.214C132.189 182.983 132.058 182.774 131.893 182.598C131.728 182.421 131.532 182.282 131.316 182.187C131.101 182.093 130.87 182.045 130.637 182.046L110.173 182.258C109.94 182.263 109.71 182.317 109.497 182.417C109.284 182.517 109.091 182.662 108.93 182.843C108.769 183.023 108.643 183.237 108.558 183.47C108.474 183.703 108.434 183.952 108.44 184.202Z" fill="#263238"/>
<path opacity="0.2" d="M131.382 145.353L108.812 145.585L108.771 140.932L131.34 140.699L131.382 145.353Z" fill="black"/>
<path opacity="0.6" d="M132.327 28.5763L113.682 28.7648C113.534 28.7646 113.386 28.7969 113.25 28.8597C113.113 28.9226 112.99 29.0147 112.887 29.1304C112.784 29.2461 112.705 29.383 112.653 29.5328C112.601 29.6826 112.578 29.8422 112.586 30.0018V32.0163L131.559 31.816C133.16 62.1637 132.217 87.4573 132.217 87.4573L130.835 88.1877L132.338 94.0782C135.683 83.9584 134.005 38.3191 133.654 29.9075C133.648 29.7265 133.609 29.5484 133.539 29.3835C133.47 29.2186 133.37 29.0701 133.247 28.9464C133.124 28.8228 132.979 28.7265 132.821 28.663C132.663 28.5994 132.495 28.57 132.327 28.5763Z" fill="white"/>
<path opacity="0.3" d="M108.44 184.202C108.893 206.617 109.559 229.001 110.436 251.353C110.456 251.843 110.653 252.305 110.984 252.641C111.316 252.978 111.757 253.162 112.213 253.156L129.892 252.944C130.348 252.938 130.783 252.741 131.107 252.396C131.43 252.051 131.616 251.584 131.624 251.094C132.122 228.781 132.385 206.397 132.414 183.943C132.414 183.693 132.368 183.445 132.279 183.214C132.189 182.983 132.058 182.774 131.893 182.598C131.728 182.421 131.532 182.282 131.316 182.187C131.101 182.093 130.87 182.045 130.637 182.046L110.173 182.258C109.94 182.263 109.71 182.317 109.497 182.417C109.284 182.517 109.091 182.662 108.93 182.843C108.769 183.023 108.643 183.237 108.558 183.47C108.474 183.703 108.434 183.952 108.44 184.202Z" fill="white"/>
</svg>
