<svg width="50" height="50" viewBox="0 0 50 50" fill="none" xmlns="http://www.w3.org/2000/svg">
<path d="M30.0009 25.002C31.6842 25.002 33.0667 23.7428 33.2884 22.1187L36.3341 19.8354C36.7025 19.5595 36.7775 19.0371 36.5008 18.6687C36.225 18.3004 35.7025 18.2246 35.3341 18.502L33.21 20.0954C32.8926 19.0796 31.9542 18.3354 30.8343 18.3354H27.501C26.1227 18.3354 25.001 19.4571 25.001 20.8354C25.001 19.4571 23.8794 18.3354 22.5011 18.3354H19.1676C18.0476 18.3354 17.1093 19.0796 16.7917 20.0954L14.6676 18.502C14.3002 18.2262 13.7768 18.3011 13.501 18.6687C13.2243 19.0371 13.2993 19.5595 13.6677 19.8354L16.7134 22.1187C16.9351 23.7428 18.3167 25.002 20.0009 25.002H21.6676C23.5059 25.002 25.0008 23.507 25.0008 21.6687C25.0008 23.5071 26.4959 25.002 28.3341 25.002H30.0009ZM23.3343 21.6687C23.3343 22.5878 22.5859 23.3354 21.6676 23.3354H20.0009C19.0825 23.3354 18.3342 22.5879 18.3342 21.6687V20.8354C18.3342 20.3762 18.7075 20.0021 19.1675 20.0021H22.5008C22.9607 20.0021 23.3341 20.3762 23.3341 20.8354L23.3343 21.6687ZM26.6675 21.6687V20.8354C26.6675 20.3762 27.0409 20.0021 27.5008 20.0021H30.8341C31.294 20.0021 31.6674 20.3762 31.6674 20.8354V21.6687C31.6674 22.5878 30.9191 23.3354 30.0007 23.3354H28.334C27.4159 23.3353 26.6675 22.5878 26.6675 21.6687Z" fill="#29329C" stroke="#29329C"/>
<path d="M49.9749 48.9598L49.1232 45.5657C48.6957 44.2807 46.1657 40.1473 31.6667 40.0348V39.1624C31.6667 38.7024 31.2943 38.3291 30.8335 38.3291C30.3726 38.3291 30.0002 38.7024 30.0002 39.1624V40.8291C30.0002 40.8349 30.0035 40.8399 30.0035 40.8458C30.0035 40.8508 30.0002 40.855 30.0002 40.8608C29.9968 41.3691 29.8294 45.8291 25.0002 45.8291C20.1711 45.8291 20.0036 41.3383 20.0003 40.8292V39.1625C20.0003 38.7025 19.6278 38.3292 19.167 38.3292C18.7061 38.3292 18.3337 38.7025 18.3337 39.1625V40.0042C7.53524 40.089 2.12778 41.8124 0.85865 45.6265L0.0253577 48.9598C-0.0871412 49.4064 0.185317 49.8589 0.631992 49.9706C1.07701 50.084 1.53032 49.8106 1.64194 49.3647L2.45697 46.0923C3.42532 43.1881 8.64021 41.7374 18.3885 41.6648C18.691 44.0506 20.3126 47.4956 25 47.4956C29.6849 47.4956 31.3075 44.0715 31.6116 41.6982C43.0331 41.7824 47.0039 44.4782 47.5248 46.0315L48.3581 49.3647C48.4531 49.743 48.7923 49.9956 49.1656 49.9956C49.2323 49.9956 49.3006 49.9881 49.3681 49.9706C49.8148 49.8589 50.0865 49.4064 49.9749 48.9598Z" fill="#29329C" stroke="#29329C"/>
<path d="M5.72577 4.15951L24.8923 6.65948C24.9281 6.66368 24.964 6.66612 24.9998 6.66612C25.0356 6.66612 25.0715 6.66358 25.1073 6.65948L43.3329 4.28206V7.17539C42.8105 7.76289 41.6662 9.22869 41.6662 10.8329C41.6662 12.667 43.1613 13.3329 44.1662 13.3329C45.1712 13.3329 46.6662 12.667 46.6662 10.8329C46.6662 9.22869 45.5221 7.76289 44.9995 7.17539V3.33285C44.9995 3.22289 44.9762 3.1187 44.937 3.02202C44.9229 2.98784 44.8986 2.96118 44.8804 2.92954C44.8479 2.87124 44.8153 2.81372 44.7704 2.76538C44.7412 2.73452 44.7063 2.71372 44.673 2.68872C44.6255 2.65034 44.5788 2.61372 44.5238 2.58706C44.483 2.56704 44.4397 2.55874 44.3955 2.54624C44.3547 2.53374 44.318 2.51206 44.2738 2.5062L25.1073 0.00622552C25.0356 -0.00207518 24.964 -0.00207518 24.8923 0.00622552L5.72577 2.5062C5.31074 2.5604 5 2.9145 5 3.33285C5 3.75121 5.31084 4.1054 5.72577 4.15951ZM44.9996 10.8328C44.9996 11.4978 44.5487 11.6536 44.1663 11.6661C43.7838 11.6536 43.333 11.4977 43.333 10.8328C43.333 10.1411 43.758 9.36942 44.1663 8.80028C44.5746 9.36951 44.9996 10.1412 44.9996 10.8328ZM24.9998 1.67291L37.7238 3.33285L24.9998 4.9929L12.2757 3.33285L24.9998 1.67291Z" fill="#29329C" stroke="#29329C"/>
<path d="M26.9203 30.2304C26.8937 30.2545 26.2654 30.8287 24.9996 30.8287C23.7521 30.8287 23.1237 30.2712 23.0804 30.2313C22.7563 29.9138 22.2338 29.9163 21.9104 30.2396C21.5845 30.5655 21.5845 31.0921 21.9104 31.4179C22.0204 31.5279 23.0437 32.4954 24.9996 32.4954C26.9554 32.4954 27.9787 31.528 28.0887 31.4179C28.4104 31.0962 28.4095 30.5813 28.0937 30.2545C27.7762 29.928 27.2529 29.9188 26.9203 30.2304Z" fill="#29329C" stroke="#29329C"/>
<path d="M11.6686 16.8101C10.6986 17.1543 10.002 18.0809 10.002 19.1676V22.5009C10.002 23.6634 10.7994 24.6434 11.8769 24.9217C12.3227 26.2367 13.5545 29.8025 14.2569 31.2066C15.5802 33.854 19.3327 38.334 25.0018 38.334C30.6709 38.334 34.4234 33.8541 35.7467 31.2066C36.4493 29.8024 37.6809 26.2366 38.1267 24.9217C39.2042 24.6434 40.0017 23.6634 40.0017 22.5009V19.1676C40.0017 18.081 39.305 17.1543 38.335 16.8101V15.8344C38.335 15.3744 37.9625 15.0011 37.5017 15.0011C37.0408 15.0011 36.6684 15.3744 36.6684 15.8344V17.501C36.6684 17.961 37.0408 18.3343 37.5017 18.3343C37.9616 18.3343 38.335 18.7085 38.335 19.1676V22.5009C38.335 22.9601 37.9616 23.3342 37.5017 23.3342C37.1425 23.3342 36.8242 23.5634 36.7117 23.9042C36.6942 23.9533 35.0534 28.8667 34.2567 30.4617C34.1292 30.715 31.0834 36.6675 25.0018 36.6675C18.9202 36.6675 15.8744 30.715 15.7469 30.4617C14.9495 28.8667 13.3094 23.9534 13.292 23.9042C13.1786 23.5634 12.8611 23.3342 12.5019 23.3342C12.042 23.3342 11.6686 22.9601 11.6686 22.5009V19.1676C11.6686 18.7085 12.042 18.3343 12.5019 18.3343C12.9628 18.3343 13.3352 17.961 13.3352 17.501V15.8343C13.3352 15.3743 12.9628 15.001 12.5019 15.001C12.0411 15.001 11.6686 15.3743 11.6686 15.8343V16.8101Z" fill="#29329C" stroke="#29329C"/>
<path d="M12.4993 5.83374C12.0385 5.83374 11.666 6.20708 11.666 6.66703V12.5003C11.666 12.8161 11.8443 13.1045 12.1269 13.2461C12.3385 13.3511 17.3901 15.8335 24.9992 15.8335C32.6083 15.8335 37.6599 13.3511 37.8715 13.2461C38.154 13.1044 38.3324 12.8161 38.3324 12.5003V6.66713C38.3324 6.20717 37.9599 5.83384 37.4991 5.83384C37.0382 5.83384 36.6658 6.20717 36.6658 6.66713V11.9612C35.2875 12.5454 30.9258 14.1671 24.9992 14.1671C19.0726 14.1671 14.7109 12.5454 13.3326 11.9612V6.66713C13.3326 6.20708 12.9601 5.83374 12.4993 5.83374Z" fill="#29329C" stroke="#29329C"/>
</svg>
