<svg width="691" height="372" viewBox="0 0 691 372" fill="none" xmlns="http://www.w3.org/2000/svg">
<g id="Group 407">
<path id="Vector" fill-rule="evenodd" clip-rule="evenodd" d="M685.094 352.146C664.719 357.63 561.392 358.884 489.911 361.943C436.7 364.219 390.204 366.728 326.474 367.49C235.185 368.581 128.522 371.271 55.3305 367.138C-19.0445 362.938 2.97497 355.528 4.99305 349.337C6.9485 343.338 8.96349 337.185 66.5502 332.717C130.723 327.737 223.463 324.014 326.652 324.377C430.529 324.742 522.808 329.232 591.633 334.563C656.155 339.562 707.593 346.09 685.094 352.146Z" fill="#F2F2F2"/>
<g id="standing-24 2">
<g id="humaaans/standing-24">
<g id="humaaan-11">
<g id="Head/Front/Wavy">
<g id="Head">
<path id="Vector_2" fill-rule="evenodd" clip-rule="evenodd" d="M137.63 98.5658C133.527 95.739 130.213 91.8159 129.218 86.6912C126.351 71.9257 147.38 69.7081 153.265 75.9714C159.149 82.2347 163.655 100.914 158.933 103.581C157.05 104.644 152.399 104.522 147.305 103.053L155.276 121.79L139.022 126.145L137.63 98.5658Z" fill="#BD6850"/>
</g>
<path id="hair" fill-rule="evenodd" clip-rule="evenodd" d="M155.676 78.8452C155.261 77.9401 154.586 76.9926 154.028 76.1807C153.309 75.1339 152.41 74.2573 151.465 73.4573C149.686 71.9511 147.699 70.693 145.627 69.7619C141.844 68.0611 137.5 67.6593 133.74 69.1752C131.842 69.9405 130.137 71.1995 128.85 72.8799C127.686 74.3982 126.721 76.4329 124.856 77.0602C122.827 77.7427 120.447 76.4279 118.49 75.7463C116.284 74.978 114.051 74.5857 111.773 74.8109C107.957 75.1884 104.855 77.3429 103.14 81.0159C101.315 84.9245 100.621 90.1253 103.513 93.8811C104.051 94.5793 104.649 95.129 105.4 95.5162C106.089 95.8713 107.079 96.1803 107.519 96.9246C107.987 97.7159 107.57 99.01 107.5 99.8557C107.4 101.067 107.386 102.315 107.824 103.486C108.543 105.408 110.287 106.96 111.945 107.906C113.631 108.869 115.474 109.186 117.319 109.066C118.551 108.985 119.781 108.793 120.946 108.387C121.525 108.186 122.002 107.882 122.539 107.599C123.061 107.323 123.411 107.387 123.964 107.566C126.536 108.395 129.039 108.312 131.513 107.423C133.601 106.673 135.924 105.496 137.274 103.566C138.774 101.422 138.135 99.1916 137.038 96.9192C137.584 97.029 138.958 96.8195 137.905 96.0802C137.488 95.7875 136.85 95.7939 136.386 95.6805C135.844 95.5485 135.276 95.3429 134.796 95.0195C132.86 93.7138 133.427 89.849 135.134 88.7798C137.67 87.1912 139.336 90.9335 141.579 91.4159C142.869 91.6932 143.843 90.5808 144.475 89.5419C145.322 88.1501 145.713 86.5026 145.99 84.8581C146.218 83.5038 146.404 82.1427 146.645 80.7916C146.757 80.1606 147.241 78.3322 146.615 77.8207C148.489 76.8956 150.914 77.1274 152.907 77.7493C153.731 78.0064 154.4 78.3541 154.987 79.0406C155.113 79.1877 155.422 79.6422 155.648 79.6038C156.068 79.5323 155.781 79.0726 155.676 78.8452Z" fill="#191847"/>
</g>
<g id="Bottom/Standing/Skirt">
<path id="Skirt-Shadow" fill-rule="evenodd" clip-rule="evenodd" d="M121.158 251.136C137.978 255.841 152.489 258.193 164.692 258.193C176.895 258.193 188.23 254.571 198.697 247.326C182.237 242.497 168.682 240.083 158.032 240.083C147.381 240.083 135.09 243.767 121.158 251.136Z" fill="#1F28CF"/>
<path id="Leg" fill-rule="evenodd" clip-rule="evenodd" d="M179.252 264.974C179.09 264.73 178.953 264.465 178.845 264.177C176.596 258.232 140.586 194.091 136.998 182.365H177.541C180.269 191.28 192.546 247.232 194.274 258.395C199.725 276.004 210.949 333.032 212.382 336.983C213.889 341.139 205.408 345.469 203.148 340.359C199.552 332.229 190.983 309.734 187.168 295.998C183.592 283.121 180.679 271.536 179.252 264.974Z" fill="#BD6850"/>
<path id="Leg_2" fill-rule="evenodd" clip-rule="evenodd" d="M146.086 272.805C129.623 276.966 69.4024 284.488 65.2698 285.668C61.0187 286.882 57.2913 278.119 62.5459 276.221C70.9069 273.201 93.9453 266.223 107.913 263.375C119.149 261.084 129.401 259.215 136.284 258.121C135.701 238.786 133.035 192.386 134.782 182.365H170.656C168.98 191.974 154.817 262.094 152.185 269.113C151.35 271.619 148.857 272.726 146.086 272.805Z" fill="#BD6850"/>
<g id="Accessories/Shoe/Flat-Sneaker">
<path id="shoe" fill-rule="evenodd" clip-rule="evenodd" d="M62.9194 273.887C60.7212 273.479 59.1101 273.364 58.0864 273.545C56.8413 273.764 55.0609 274.292 52.7453 275.128C53 276.573 55.289 289.554 59.6122 314.072C63.1363 314.494 64.8395 313.592 64.7218 311.364C64.6041 309.137 64.5256 307.283 64.4863 305.803L69.364 286.279C69.4579 285.904 69.2294 285.523 68.8537 285.429C68.8473 285.427 68.8409 285.426 68.8344 285.425L65.8069 284.759C64.5092 282.906 63.7491 281.349 63.5266 280.087C63.3458 279.062 63.5102 277.573 64.0198 275.62L64.0198 275.62C64.2154 274.871 63.7665 274.105 63.0171 273.909C62.9849 273.901 62.9523 273.894 62.9194 273.887Z" fill="#E4E4E4"/>
</g>
<g id="Accessories/Shoe/Flat-Sneaker_2">
<path id="shoe_2" fill-rule="evenodd" clip-rule="evenodd" d="M200.575 339.697C199.791 341.791 199.398 343.358 199.398 344.398C199.398 345.662 199.609 347.507 200.03 349.932C201.497 349.932 214.679 349.932 239.575 349.932C240.602 346.535 240.009 344.701 237.795 344.43C235.581 344.159 233.742 343.915 232.278 343.696L213.898 335.503C213.544 335.345 213.129 335.504 212.972 335.857C212.969 335.864 212.966 335.87 212.964 335.876L211.783 338.742C209.733 339.698 208.067 340.176 206.786 340.176C205.745 340.176 204.307 339.756 202.472 338.915L202.472 338.915C201.768 338.592 200.936 338.901 200.613 339.605C200.6 339.635 200.587 339.666 200.575 339.697Z" fill="#E4E4E4"/>
</g>
<path id="Skirt" fill-rule="evenodd" clip-rule="evenodd" d="M134.895 182.364C150.704 177.841 165.661 177.841 179.767 182.364C184.675 204.756 196.6 213.644 198.698 247.974C174.859 259.819 145.412 239.527 120.873 251.078C113.862 234.921 123.677 196.011 134.895 182.364Z" fill="#2B44FF"/>
</g>
<g id="Body/Pointing-Forward">
<path id="Skin" fill-rule="evenodd" clip-rule="evenodd" d="M172.284 136.175L193.936 118.823C197.087 113.388 200.365 109.02 203.772 105.719C204.866 105.017 206.881 104.354 205.553 108.126C204.225 111.898 202.997 115.925 204.169 116.808C205.34 117.691 207.535 115.782 209.019 117.331C210.009 118.363 206.14 120.953 197.412 125.098L182.809 144.114L172.284 136.175ZM211.772 140.631L221.28 132.992C221.766 127.111 223.033 123.972 225.081 123.574C226.53 122.562 225.034 130.149 227.917 129.005C230.8 127.862 237.144 121.144 238.597 122.024C240.745 123.327 239.969 128.629 238.453 131.465C235.619 136.767 232.874 138.893 225.762 142.297C222.044 144.077 218.201 147.008 214.234 151.09L211.772 140.631Z" fill="#BD6850"/>
<path id="Sleeve" fill-rule="evenodd" clip-rule="evenodd" d="M160.094 135.309C168.473 133.74 179.354 129.993 189.962 120.305L196.497 129.939C189.7 139.568 179.3 148.328 169.12 149.83C161.099 151.013 155.316 142.077 160.094 135.309Z" fill="#2026A2"/>
<path id="Clothes" fill-rule="evenodd" clip-rule="evenodd" d="M174.356 150.092C183.659 150.743 198.142 145.487 217.803 134.324C224.904 144.171 228.662 151.421 229.078 156.074C212.74 168.647 198.056 175.558 185.398 178.075C187.131 185.544 187.478 192.88 185.551 199.979C181.589 214.573 142.276 208.636 130.231 213.293C117.942 189.293 131.233 176.315 128.381 160.075C125.259 142.29 134.711 112.4 136.812 112.03L155.971 108.652C159.422 122.046 167.382 136.075 174.356 150.092Z" fill="#1F28CF"/>
</g>
</g>
</g>
</g>
<g id="freepik--Coin--inject-152">
<path id="Vector_3" d="M281.165 31.8798L289.24 35.2985L257.173 111.036L249.098 107.617C239.249 103.235 231.514 95.1625 227.557 85.1354C223.601 75.1083 223.738 63.9286 227.941 54.0021C232.144 44.0756 240.076 36.1959 250.03 32.0585C259.984 27.9212 271.164 27.857 281.165 31.8798Z" fill="#EC880F"/>
<path id="Vector_4" opacity="0.1" d="M281.165 31.8798L289.24 35.2985L257.173 111.036L249.098 107.617C239.249 103.235 231.514 95.1625 227.557 85.1354C223.601 75.1083 223.738 63.9286 227.941 54.0021C232.144 44.0756 240.076 36.1959 250.03 32.0585C259.984 27.9212 271.164 27.857 281.165 31.8798Z" fill="black"/>
<path id="Vector_5" opacity="0.3" d="M269.027 83.0707L267.577 86.4958L224.051 68.0673C224.09 66.7631 224.202 65.4622 224.389 64.1709L269.027 83.0707Z" fill="#263238"/>
<path id="Vector_6" opacity="0.3" d="M225.621 81.0972L263.137 96.9813L257.185 111.041L249.098 107.617C243.451 105.233 238.411 101.613 234.348 97.0231C230.285 92.4336 227.303 86.9914 225.621 81.0972Z" fill="#263238"/>
<path id="Vector_7" d="M273.671 119.116L273.656 117.739C276.364 117.705 279.063 117.428 281.721 116.91L281.981 118.259C279.242 118.795 276.461 119.082 273.671 119.116Z" fill="#EC880F"/>
<path id="Vector_8" d="M290.972 115.518L290.447 114.245C298.884 110.726 306.026 104.684 310.894 96.947L312.042 97.6807C307.032 105.662 299.671 111.894 290.972 115.518Z" fill="#EC880F"/>
<path id="Vector_9" d="M299.559 104.739C316.992 90.1877 319.328 64.2593 304.776 46.8265C290.225 29.3937 264.296 27.058 246.864 41.6095C229.431 56.161 227.095 82.0893 241.647 99.5221C256.198 116.955 282.127 119.291 299.559 104.739Z" fill="#EC880F"/>
<path id="Vector_10" opacity="0.1" d="M250.213 48.8138C257.083 43.7773 265.614 41.5471 274.07 42.5768C282.527 43.6066 290.273 47.8189 295.734 54.357C301.195 60.8952 303.96 69.268 303.467 77.7724C302.974 86.2768 299.26 94.2741 293.08 100.138C296.773 97.4308 299.871 93.9961 302.184 90.0454C304.497 86.0947 305.976 81.7118 306.53 77.1673C307.083 72.6228 306.699 68.0131 305.402 63.6227C304.104 59.2323 301.921 55.1544 298.986 51.6408C296.051 48.1271 292.427 45.2522 288.338 43.1934C284.249 41.1347 279.782 39.9359 275.211 39.671C270.641 39.4061 266.065 40.0807 261.765 41.6532C257.466 43.2257 253.534 45.6627 250.213 48.8138Z" fill="black"/>
<path id="Vector_11" opacity="0.3" d="M324.077 55.0653C323.391 54.965 322.691 55.0502 322.05 55.3119C321.408 55.5736 320.848 56.0023 320.428 56.5535C320.326 56.6552 320.196 56.7241 320.055 56.7514C319.913 56.7788 319.767 56.7634 319.634 56.7073C319.501 56.6511 319.388 56.5567 319.31 56.436C319.231 56.3154 319.19 56.174 319.192 56.03C319.295 55.3429 319.212 54.6407 318.951 53.9967C318.69 53.3528 318.261 52.7906 317.709 52.3691C317.607 52.2669 317.538 52.1368 317.511 51.9954C317.483 51.8539 317.499 51.7075 317.555 51.5749C317.611 51.4422 317.706 51.3292 317.826 51.2505C317.947 51.1717 318.088 51.1306 318.232 51.1325C318.917 51.2361 319.618 51.1543 320.261 50.8957C320.904 50.6371 321.465 50.2111 321.888 49.6619C321.987 49.5529 322.118 49.4774 322.262 49.4458C322.406 49.4143 322.556 49.4282 322.692 49.4856C322.827 49.5431 322.942 49.6413 323.02 49.7667C323.097 49.892 323.134 50.0383 323.125 50.1854C323.024 50.8691 323.108 51.5673 323.367 52.2078C323.626 52.8483 324.052 53.4079 324.6 53.8288C324.709 53.928 324.785 54.0586 324.816 54.2026C324.848 54.3465 324.834 54.4967 324.777 54.6325C324.719 54.7682 324.621 54.8827 324.496 54.9602C324.37 55.0378 324.224 55.0745 324.077 55.0653Z" fill="#EC880F"/>
<path id="Vector_12" opacity="0.2" d="M228.053 102.353C227.531 102.272 226.997 102.334 226.508 102.533C226.018 102.731 225.591 103.058 225.272 103.479C225.198 103.564 225.099 103.624 224.988 103.649C224.878 103.675 224.763 103.665 224.659 103.621C224.554 103.576 224.467 103.501 224.408 103.404C224.35 103.307 224.323 103.194 224.333 103.081C224.412 102.561 224.351 102.03 224.155 101.541C223.959 101.053 223.636 100.626 223.219 100.306C223.133 100.231 223.074 100.132 223.048 100.022C223.023 99.9114 223.033 99.796 223.077 99.6918C223.121 99.5877 223.197 99.5001 223.294 99.4416C223.391 99.3831 223.504 99.3566 223.616 99.366C224.135 99.4426 224.665 99.3793 225.15 99.1824C225.636 98.9856 226.061 98.6625 226.38 98.2466C226.454 98.1614 226.554 98.1019 226.664 98.0765C226.774 98.0512 226.889 98.0613 226.994 98.1054C227.098 98.1495 227.185 98.2253 227.244 98.3222C227.302 98.419 227.329 98.5317 227.319 98.6445C227.243 99.165 227.308 99.6964 227.507 100.183C227.706 100.67 228.032 101.095 228.451 101.413C228.536 101.487 228.596 101.587 228.621 101.697C228.647 101.807 228.637 101.923 228.592 102.027C228.548 102.131 228.472 102.219 228.376 102.277C228.279 102.336 228.166 102.362 228.053 102.353Z" fill="#EC880F"/>
<path id="Vector_13" opacity="0.4" d="M255.84 20.6767C254.919 20.5373 253.976 20.6485 253.112 20.9985C252.248 21.3484 251.495 21.9244 250.93 22.6659C250.795 22.8148 250.617 22.918 250.421 22.9613C250.225 23.0046 250.021 22.9858 249.836 22.9076C249.651 22.8293 249.495 22.6954 249.39 22.5245C249.284 22.3536 249.235 22.1542 249.248 21.9539C249.388 21.0342 249.278 20.0938 248.93 19.2309C248.583 18.3681 248.01 17.6144 247.271 17.0485C247.119 16.9165 247.013 16.7399 246.968 16.5439C246.923 16.3479 246.94 16.1427 247.019 15.9574C247.097 15.7722 247.232 15.6165 247.404 15.5127C247.577 15.4088 247.777 15.3621 247.978 15.3792C248.898 15.5128 249.837 15.3983 250.698 15.0477C251.559 14.6971 252.311 14.123 252.876 13.3848C253.011 13.2359 253.188 13.1326 253.384 13.0893C253.581 13.046 253.785 13.0648 253.97 13.1431C254.155 13.2214 254.311 13.3552 254.416 13.5261C254.521 13.697 254.571 13.8965 254.558 14.0968C254.42 15.0184 254.532 15.9601 254.882 16.8238C255.231 17.6875 255.807 18.4415 256.547 19.0074C256.699 19.1394 256.805 19.316 256.85 19.512C256.896 19.7079 256.878 19.9132 256.799 20.0985C256.721 20.2837 256.586 20.4394 256.414 20.5432C256.241 20.6471 256.041 20.6938 255.84 20.6767Z" fill="#EC880F"/>
<path id="&#226;&#130;&#185;" d="M282.545 64.5992L282.405 65.3384L288.529 66.4994L287.709 70.8287L281.267 69.6077C280.433 71.8926 279.337 73.6356 277.979 74.8367C276.663 76.0092 274.959 76.7255 272.868 76.9854C270.783 77.2101 268.175 77.0255 265.042 76.4317L264.412 79.7579C264.045 81.6938 264.159 83.3017 264.755 84.5815C265.386 85.868 266.688 86.698 268.659 87.0717C272.249 87.7523 274.428 86.0687 275.195 82.0209L280.739 83.0718C280.03 86.6201 278.551 89.1293 276.304 90.5993C274.098 92.0408 271.217 92.4245 267.662 91.7506C264.107 91.0767 261.566 89.5741 260.039 87.2427C258.547 84.9179 258.138 81.9781 258.812 78.423L260.184 71.1898C264.091 71.9304 266.979 72.3686 268.85 72.5044C270.727 72.605 272.175 72.3691 273.195 71.7967C274.25 71.2311 275.076 70.1477 275.671 68.5468L258.987 65.3841L259.808 61.0547L276.756 64.2675L276.896 63.5283L277.646 59.5685L260.698 56.3558L261.529 51.9736L290.251 57.4182L289.42 61.8004L283.296 60.6394L282.545 64.5992Z" fill="white"/>
</g>
<g id="sitting-4 2" clip-path="url(#clip0_3624_9563)">
<g id="humaaans/sitting-4">
<g id="A-Human/Sitting">
<g id="Head/Front/Curly">
<g id="Head_2">
<path id="Vector_14" fill-rule="evenodd" clip-rule="evenodd" d="M491.773 124.885C495.204 120.857 497.527 115.92 497.139 110.389C496.02 94.4513 473.835 97.9574 469.519 106.001C465.203 114.045 465.716 134.45 471.294 135.887C473.518 136.461 478.257 135.056 483.079 132.149L480.052 153.565H497.926L491.773 124.885Z" fill="#B28B67"/>
<path id="Vector_15" d="M466.147 116.731C466.154 117.098 466.302 117.449 466.56 117.709C466.819 117.969 467.168 118.119 467.535 118.128C467.718 118.137 467.9 118.109 468.072 118.046C468.243 117.983 468.401 117.886 468.534 117.762C468.668 117.637 468.776 117.487 468.851 117.321C468.926 117.154 468.967 116.974 468.971 116.791C468.963 116.425 468.814 116.076 468.556 115.816C468.298 115.556 467.949 115.406 467.583 115.395C467.401 115.386 467.218 115.414 467.047 115.477C466.875 115.54 466.718 115.637 466.584 115.761C466.45 115.886 466.343 116.036 466.268 116.202C466.193 116.369 466.152 116.549 466.147 116.731Z" fill="#263238"/>
<path id="Vector_16" d="M465.614 113.142C465.796 113.32 466.862 112.488 468.405 112.445C469.949 112.403 471.092 113.147 471.255 112.954C471.418 112.761 471.145 112.537 470.643 112.194C469.963 111.751 469.163 111.528 468.351 111.555C467.559 111.585 466.796 111.862 466.169 112.348C465.677 112.714 465.524 113.054 465.614 113.142Z" fill="#263238"/>
<path id="Vector_17" d="M480.01 116.7C480.018 117.066 480.167 117.415 480.425 117.675C480.684 117.935 481.032 118.086 481.398 118.096C481.581 118.105 481.763 118.077 481.935 118.015C482.107 117.952 482.265 117.856 482.399 117.732C482.534 117.607 482.642 117.458 482.718 117.291C482.794 117.125 482.836 116.945 482.842 116.762C482.834 116.396 482.685 116.046 482.427 115.787C482.168 115.527 481.82 115.376 481.454 115.365C481.271 115.356 481.088 115.383 480.915 115.445C480.743 115.507 480.585 115.603 480.45 115.728C480.316 115.852 480.207 116.002 480.132 116.169C480.056 116.336 480.015 116.517 480.01 116.7Z" fill="#263238"/>
<path id="Vector_18" d="M480.444 113.084C480.634 113.264 481.692 112.43 483.233 112.395C484.775 112.361 485.93 113.091 486.085 112.896C486.164 112.812 485.975 112.479 485.473 112.136C484.793 111.693 483.993 111.47 483.181 111.497C482.381 111.522 481.61 111.797 480.975 112.284C480.506 112.664 480.36 113.006 480.444 113.084Z" fill="#263238"/>
<path id="Vector_19" d="M474.54 125.694C473.722 125.46 472.878 125.332 472.028 125.312C471.634 125.283 471.258 125.215 471.181 124.95C471.148 124.543 471.24 124.136 471.445 123.783C471.791 122.822 472.147 121.812 472.523 120.755C474.019 116.442 475.086 112.9 474.911 112.844C474.736 112.787 473.386 116.23 471.889 120.544C471.531 121.599 471.191 122.612 470.868 123.584C470.633 124.068 470.574 124.618 470.703 125.14C470.765 125.278 470.857 125.399 470.972 125.495C471.088 125.59 471.225 125.658 471.371 125.692C471.588 125.749 471.812 125.774 472.036 125.766C472.871 125.843 473.711 125.819 474.54 125.694Z" fill="#263238"/>
<path id="Vector_20" d="M477.065 129.116C476.869 128.954 475.881 130.294 474.016 130.399C472.15 130.504 470.831 129.306 470.684 129.48C470.536 129.654 470.81 129.977 471.406 130.445C472.186 131.04 473.151 131.34 474.131 131.291C475.07 131.242 475.954 130.833 476.599 130.149C477.067 129.618 477.148 129.165 477.065 129.116Z" fill="#263238"/>
</g>
<path id="hair_2" fill-rule="evenodd" clip-rule="evenodd" d="M461.6 94.8511C461.97 93.5501 462.966 92.4362 464.307 92.1057C464.633 92.0256 464.969 91.9932 465.304 92.0067C465.424 92.0115 465.457 92.0461 465.513 91.9621C465.555 91.8999 465.556 91.7478 465.573 91.6746C465.626 91.4471 465.693 91.2224 465.775 91.0035C466.056 90.257 466.528 89.5964 467.097 89.0399C468.16 87.9987 469.598 87.2801 471.091 87.1501C471.908 87.079 472.72 87.2118 473.492 87.4777C473.892 87.6153 474.28 87.7867 474.658 87.9761C474.772 88.0332 475.141 88.3125 475.255 88.2944C475.381 88.2744 475.634 87.9611 475.737 87.8825C477.004 86.9103 478.569 86.5281 480.147 86.5398C481.928 86.553 483.644 86.642 485.129 87.7279C485.444 87.9579 485.743 88.2096 486.029 88.4746C486.179 88.6142 486.324 88.7589 486.463 88.9097C486.547 89.0007 486.628 89.0937 486.707 89.1892C486.84 89.3514 486.818 89.4046 487.005 89.2915C487.72 88.8571 488.548 88.6539 489.383 88.7565C489.879 88.8174 490.361 88.9662 490.819 89.162C490.974 89.2287 491.335 89.4946 491.501 89.4972C491.666 89.4997 492.022 89.2532 492.192 89.1906C493.109 88.8521 494.097 88.7687 495.061 88.9251C496.055 89.0865 497.031 89.4831 497.874 90.0312C498.279 90.2949 498.632 90.587 498.916 90.9791C499.039 91.1483 499.15 91.3274 499.289 91.4843C499.37 91.5762 499.531 91.6705 499.575 91.7868C499.549 91.7172 500.662 91.288 500.767 91.2605C501.327 91.1144 501.897 91.144 502.445 91.3244C503.475 91.6635 504.362 92.4242 505.09 93.204C505.464 93.6046 505.792 94.0473 506.07 94.5191C506.203 94.745 506.325 94.9774 506.436 95.2148C506.49 95.3298 506.526 95.4736 506.597 95.5772C506.689 95.7107 506.751 95.7132 506.917 95.7714C507.76 96.0669 508.529 96.5671 509.115 97.243C509.707 97.9267 510.091 98.7688 510.252 99.6556C510.262 99.7078 510.267 99.9243 510.298 99.9525C510.34 99.9915 510.51 99.9742 510.574 99.9818C510.796 100.008 511.017 100.047 511.234 100.098C511.636 100.193 512.026 100.333 512.396 100.516C513.836 101.228 514.866 102.564 515.37 104.068C515.899 105.645 515.89 107.453 515.257 109.001C515.155 109.251 515.034 109.494 514.891 109.724C514.804 109.865 514.775 109.865 514.832 110.013C514.896 110.177 515.011 110.337 515.087 110.498C515.332 111.023 515.504 111.579 515.613 112.147C515.791 113.08 515.879 114.059 515.703 114.999C515.622 115.435 515.48 115.861 515.263 116.25C515.152 116.448 515.023 116.636 514.877 116.809C514.801 116.9 514.721 116.986 514.637 117.068C514.588 117.115 514.525 117.157 514.484 117.209C514.384 117.338 514.363 117.232 514.415 117.421C514.487 117.685 514.65 117.945 514.75 118.201C514.854 118.466 514.947 118.734 515.032 119.004C515.205 119.552 515.351 120.11 515.442 120.678C515.617 121.768 515.586 122.929 515.071 123.929C514.85 124.357 514.534 124.732 514.151 125.024C513.963 125.167 513.76 125.29 513.547 125.391C513.437 125.443 513.297 125.465 513.247 125.571C513.193 125.685 513.273 125.912 513.291 126.039C513.45 127.147 513.529 128.311 513.2 129.397C512.896 130.398 512.228 131.281 511.361 131.866C509.678 133 507.41 132.936 505.641 132.028C505.181 131.791 504.749 131.497 504.365 131.151C503.385 132.469 501.37 132.427 499.938 132.052C498.154 131.584 496.723 130.343 495.899 128.714C494.771 130.087 492.405 129.641 491.623 128.152C491.432 127.788 491.318 127.386 491.263 126.98C491.233 126.766 491.252 126.55 491.23 126.338C491.202 126.068 491.021 125.806 490.917 125.544C490.715 125.036 490.59 124.51 490.585 123.962C490.582 123.675 490.618 123.396 490.645 123.112C490.67 122.856 490.599 122.618 490.559 122.365C491.016 122.441 491.573 122.317 492.004 122.185C492.427 122.054 492.823 121.712 493.122 121.399C493.815 120.672 494.238 119.719 494.528 118.77C495.163 116.688 494.903 114.191 492.809 113.048C491.834 112.516 488.911 112.518 487.75 112.781C486.528 113.057 485.143 115.753 485.075 116.006C485.033 116.163 485.054 116.357 484.91 116.462C484.593 116.691 484.071 116.293 483.838 116.096C483.435 115.756 483.148 115.304 482.899 114.847C482.356 113.849 481.919 112.779 481.61 111.687C481.372 110.844 481.22 109.976 480.909 109.155C480.599 108.339 480.111 107.609 479.352 107.146C478.526 106.643 477.579 106.378 476.673 106.062C475.774 105.749 474.891 105.365 474.195 104.7C474.042 104.554 473.893 104.399 473.77 104.227C473.672 104.091 473.576 103.831 473.428 103.744C473.197 103.61 472.861 103.959 472.662 104.086C471.678 104.71 470.858 105.581 470.196 106.533C469.538 107.479 468.998 108.39 468.56 109.447C468.234 110.23 468.031 111.234 467.459 111.876C467.203 112.163 465.304 112.337 464.688 112.086C464.073 111.836 463.384 111.186 463.177 110.778C462.966 110.361 462.915 109.903 463.005 109.447C463.059 109.178 463.167 108.927 463.226 108.663C463.276 108.442 463.322 108.232 463.43 108.029C463.634 107.644 463.983 107.368 464.404 107.252C463.966 106.848 463.603 106.365 463.352 105.824C463.091 105.263 462.869 104.58 462.806 103.964C462.755 103.463 462.834 102.945 463.108 102.514C463.396 102.063 463.905 101.769 464.345 101.487C463.672 100.961 463.096 100.32 462.623 99.6115C461.702 98.2328 461.132 96.4949 461.6 94.8511Z" fill="#191847"/>
</g>
<g id="Bottom/Sitting/Sweat-Pants">
<g id="Objects/Seat/Cube-2">
<path id="Seat" fill-rule="evenodd" clip-rule="evenodd" d="M547.826 246.657H462.182C455.601 246.657 450.266 251.992 450.266 258.573V327.089C450.266 333.67 455.601 339.005 462.182 339.005H547.826C554.407 339.005 559.742 333.67 559.742 327.089V258.573C559.742 251.992 554.407 246.657 547.826 246.657ZM535.911 267.51C537.556 267.51 538.89 268.844 538.89 270.489V315.173C538.89 316.818 537.556 318.152 535.911 318.152H474.097C472.452 318.152 471.118 316.818 471.118 315.173V270.489C471.118 268.844 472.452 267.51 474.097 267.51H535.911Z" fill="#C5CFD6"/>
</g>
<path id="Skin_2" fill-rule="evenodd" clip-rule="evenodd" d="M397.01 336.518C406.552 315.399 413.453 297.009 416.223 287.306C420.966 270.693 424.574 256.074 425.486 250.615C427.66 237.596 408.758 236.838 406.259 243.308C402.477 253.101 395.875 285.275 387.943 333.872L397.01 336.518ZM507.694 270.239C498.939 266.779 468.279 255.949 453.492 252.885C449.243 252.005 445.125 251.187 441.253 250.448C429.744 248.25 423.781 269.013 434.866 270.609C462.471 274.582 501.606 278.684 504.955 279.145C509.649 279.79 513.196 272.414 507.694 270.239Z" fill="#B28B67"/>
<path id="Leg-Back" fill-rule="evenodd" clip-rule="evenodd" d="M434.185 244.733L481.541 220.626V215.378H475.909C430.095 227.052 406.684 234.534 405.676 237.823C405.665 237.858 405.655 237.894 405.646 237.929C405.623 237.959 405.6 237.99 405.578 238.021C396.498 250.507 391.061 311.469 389.276 316.034L406.674 318.63C413.33 293.95 434.623 276.758 434.057 247.2C434.21 246.333 434.248 245.511 434.185 244.733Z" fill="#1F28CF"/>
<path id="Leg-Front" fill-rule="evenodd" clip-rule="evenodd" d="M477.609 259.05C481.942 258.183 485.932 257.408 489.346 256.81C511.401 252.941 517.832 241.136 514.029 215.378L473.395 215.378C466.757 217.285 432.261 231.751 414.363 239.445C402.518 244.538 406.252 262.896 412.96 267.673C412.996 267.966 413.117 268.165 413.332 268.254C449.418 283.211 477.965 275.363 487.501 277.871L491.912 263.956L477.609 259.05Z" fill="#2B44FF"/>
<g id="Accessories/Shoe/Flat-Sneaker_3">
<path id="shoe_3" fill-rule="evenodd" clip-rule="evenodd" d="M504.699 268.026C507.063 268.252 508.741 268.608 509.734 269.092C510.941 269.68 512.604 270.741 514.724 272.272C514.041 273.672 507.903 286.257 496.31 310.026C492.588 309.425 491.114 308.004 491.886 305.764C492.658 303.525 493.281 301.655 493.755 300.155L494.49 278.792C494.504 278.381 494.849 278.059 495.26 278.074C495.267 278.074 495.274 278.074 495.281 278.075L498.568 278.281C500.435 276.77 501.667 275.402 502.264 274.179C502.748 273.185 503.017 271.616 503.068 269.473L503.068 269.473C503.088 268.651 503.77 268 504.593 268.02C504.628 268.021 504.663 268.023 504.699 268.026Z" fill="#E4E4E4"/>
</g>
<g id="Accessories/Shoe/Flat-Sneaker_4">
<path id="shoe_4" fill-rule="evenodd" clip-rule="evenodd" d="M401.348 332.602C402.181 334.826 402.598 336.49 402.598 337.595C402.598 338.938 402.374 340.897 401.926 343.474C400.369 343.474 386.367 343.474 359.922 343.474C358.83 339.865 359.461 337.917 361.812 337.629C364.164 337.342 366.118 337.082 367.673 336.85L387.197 328.146C387.572 327.979 388.012 328.148 388.18 328.523C388.183 328.53 388.186 328.536 388.188 328.543L389.443 331.587C391.62 332.603 393.389 333.11 394.751 333.11C395.857 333.11 397.384 332.664 399.332 331.771L399.332 331.771C400.08 331.428 400.964 331.756 401.307 332.504C401.322 332.536 401.335 332.569 401.348 332.602Z" fill="#E4E4E4"/>
</g>
</g>
<g id="Body/Jacket">
<path id="Skin_3" fill-rule="evenodd" clip-rule="evenodd" d="M438.311 203.554L417.214 224.135C411.076 226.754 406.046 229.645 402.126 232.809C401.244 233.872 400.284 235.91 404.432 234.998C408.581 234.086 412.985 233.314 413.765 234.663C414.545 236.012 412.247 238.079 413.688 239.845C414.649 241.022 417.879 237.278 423.38 228.613L445.318 215.679L438.311 203.554ZM531.952 206.457L516.389 206.518C525.998 237.539 531.186 253.999 531.952 255.897C533.675 260.168 530.028 266.672 528.469 270.167C533.548 272.44 533.007 264.023 539.414 267.004C545.262 269.725 549.711 274.654 556.468 270.485C557.298 269.973 558.209 268.043 556.009 266.535C550.53 262.777 542.633 256.201 541.566 254.037C540.111 251.085 536.906 235.225 531.952 206.457Z" fill="#B28B67"/>
<path id="Coat-Back" fill-rule="evenodd" clip-rule="evenodd" d="M487.725 141.152L481.285 140.047C470.198 167.744 450.84 192.91 423.213 215.546L444.09 240.909C471.714 208.679 488.741 175.427 487.725 141.152Z" fill="#191847"/>
<path id="Shirt" fill-rule="evenodd" clip-rule="evenodd" d="M515.797 222.082H458.452C471.738 189.779 478.38 162.338 478.38 139.759L495.678 137.182C509.273 159.046 513.112 185.966 515.797 222.082Z" fill="#DDE3E9"/>
<path id="Coat-Front" fill-rule="evenodd" clip-rule="evenodd" d="M496.047 137.194C496.045 137.19 496.043 137.186 496.04 137.182L494.911 137.182C493.56 137.229 491.502 137.312 488.737 137.434L484.558 149.379C484.115 163.942 481.533 193.292 476.812 237.428H514.402C514.304 240.476 514.141 243.553 513.915 246.658H541.865C537.684 199.49 522.416 162.998 496.061 137.182L496.047 137.194V137.194Z" fill="#2F3676"/>
<path id="Shade" fill-rule="evenodd" clip-rule="evenodd" d="M511.917 198.423C510.847 217.425 508.168 230.524 503.881 237.721H514.39C514.85 224.05 514.026 210.95 511.917 198.423V198.423Z" fill="black" fill-opacity="0.1"/>
<path id="Light" fill-rule="evenodd" clip-rule="evenodd" d="M506.033 214.634L487.497 206.017V214.634H506.033Z" fill="white" fill-opacity="0.2"/>
</g>
</g>
</g>
<g id="freepik--Plant--inject-151">
<path id="Vector_21" d="M587.154 269.449C590.808 267.733 594.916 267.235 598.874 268.029C601.004 268.379 603.224 269.029 604.664 270.609C606.104 272.189 606.384 275.019 604.724 276.389C603.652 277.114 602.362 277.443 601.074 277.319C597.974 277.319 594.544 276.739 592.074 278.599C590.664 279.659 589.724 281.429 588.074 281.949C587.23 282.143 586.345 282.058 585.554 281.706C584.762 281.354 584.106 280.755 583.684 279.999C582.883 278.458 582.704 276.668 583.184 274.999C583.374 273.83 583.831 272.722 584.52 271.759C585.208 270.797 586.11 270.006 587.154 269.449Z" fill="#00BD62"/>
<path id="Vector_22" d="M578.994 253.679C581.174 256.799 585.404 255.769 587.374 253.869C589.344 251.969 590.164 249.209 590.924 246.589C592.644 240.589 594.384 234.289 593.104 228.179C592.793 226.328 591.98 224.599 590.754 223.179C590.131 222.48 589.336 221.957 588.448 221.662C587.56 221.367 586.61 221.311 585.694 221.499C583.554 222.059 582.224 224.149 581.264 226.149C578.438 232.025 576.958 238.458 576.934 244.979C576.934 247.979 577.274 251.189 578.994 253.689" fill="#00BD62"/>
<path id="Vector_23" d="M573.004 258.149C574.125 256.687 574.872 254.973 575.178 253.157C575.485 251.341 575.343 249.477 574.764 247.729C573.578 244.216 571.443 241.101 568.594 238.729C565.365 235.868 561.608 233.667 557.534 232.249C555.95 231.602 554.243 231.312 552.534 231.399C551.685 231.447 550.861 231.703 550.134 232.144C549.407 232.585 548.799 233.198 548.364 233.929C547.194 236.149 548.364 238.839 549.514 241.029C551.644 244.9 554.075 248.598 556.784 252.089C558.954 254.899 561.454 257.669 564.784 258.929C568.114 260.189 571.554 260.049 573.314 257.749" fill="#00BD62"/>
<path id="Vector_24" d="M578.845 300.649C578.956 300.183 579.023 299.707 579.045 299.229C579.145 298.229 579.265 296.909 579.415 295.369C579.609 293.468 579.9 291.579 580.285 289.709C580.788 287.429 581.477 285.195 582.345 283.029C583.189 280.86 584.337 278.823 585.755 276.979C586.91 275.476 588.386 274.249 590.075 273.389C591.208 272.822 592.423 272.438 593.675 272.249C594.151 272.231 594.623 272.164 595.085 272.049C594.606 271.997 594.124 271.997 593.645 272.049C592.336 272.159 591.057 272.498 589.865 273.049C588.086 273.887 586.525 275.126 585.305 276.669C583.827 278.538 582.637 280.617 581.775 282.839C580.914 285.04 580.245 287.312 579.775 289.629C579.409 291.525 579.159 293.442 579.025 295.369C578.905 297.009 578.855 298.369 578.835 299.249C578.789 299.714 578.792 300.184 578.845 300.649Z" fill="#0A2540"/>
<path id="Vector_25" d="M579.103 297.679C579.133 297.46 579.133 297.238 579.103 297.019V295.139C579.103 293.519 579.103 291.139 579.183 288.249C579.323 282.419 579.833 276.159 580.793 267.319C581.713 259.019 582.943 249.319 584.243 243.059C584.523 241.629 584.803 240.349 585.063 239.219C585.323 238.089 585.533 237.119 585.743 236.329C585.953 235.539 586.063 234.989 586.183 234.509C586.246 234.297 586.283 234.079 586.293 233.859C586.191 234.055 586.113 234.263 586.063 234.479L585.523 236.269C585.283 237.049 585.033 238.019 584.753 239.149C584.473 240.279 584.143 241.549 583.843 242.979C582.23 250.411 581.018 257.926 580.213 265.489C579.213 274.339 578.813 282.399 578.773 288.239C578.773 291.159 578.773 293.519 578.873 295.149C578.873 295.909 578.953 296.529 578.983 297.029C579.003 297.249 579.043 297.466 579.103 297.679Z" fill="#0A2540"/>
<path id="Vector_26" d="M579.144 282.129C579.201 281.463 579.201 280.794 579.144 280.129C579.074 278.869 578.894 277.049 578.544 274.819C578.115 272.208 577.538 269.624 576.814 267.079C575.971 263.947 574.888 260.884 573.574 257.919C571.333 252.449 568.114 247.434 564.074 243.119C563.375 242.376 562.627 241.681 561.834 241.039C561.494 240.749 561.194 240.459 560.834 240.229L559.964 239.629C559.443 239.25 558.892 238.915 558.314 238.629C560.219 240.118 562.026 241.728 563.724 243.449C567.631 247.802 570.766 252.79 572.994 258.199C574.279 261.15 575.364 264.183 576.244 267.279C576.989 269.799 577.603 272.355 578.084 274.939C578.494 277.149 578.724 278.939 578.864 280.199C578.91 280.848 579.004 281.493 579.144 282.129Z" fill="#0A2540"/>
<path id="Vector_27" d="M564.125 309.559L565.675 330.899H593.095L594.655 309.559H564.125Z" fill="#0A2540"/>
<path id="Vector_28" d="M597.925 301.139H561.475V309.549H597.925V301.139Z" fill="#0A2540"/>
<path id="Vector_29" d="M561.475 330.079V332.409H563.185H597.325V330.079H561.475Z" fill="#455A64"/>
<path id="Vector_30" d="M564.864 336.519L563.184 332.409H596.014L594.054 336.519H564.864Z" fill="#455A64"/>
<path id="Vector_31" d="M594.144 316.529C594.144 316.529 594.144 316.599 594.014 316.729L593.604 317.269L592.014 319.269L591.934 319.369L591.874 319.269L587.944 313.839H588.174L584.304 319.309L584.184 319.489L584.054 319.319C582.624 317.629 581.054 315.789 579.474 313.869H579.734L579.484 314.189L575.384 319.319L575.244 319.489L575.124 319.309L571.254 313.849H571.484L566.724 319.269L566.634 319.369L566.574 319.259L565.084 316.749L564.704 316.089C564.653 316.014 564.613 315.934 564.584 315.849C564.644 315.913 564.698 315.984 564.744 316.059L565.164 316.699L566.734 319.159H566.584L571.264 313.669L571.384 313.529L571.494 313.679C572.674 315.329 573.984 317.169 575.394 319.119H575.124L579.214 313.969L579.464 313.659L579.594 313.489L579.734 313.649C581.334 315.569 582.874 317.419 584.304 319.119H584.044L587.944 313.669L588.064 313.509L588.174 313.669L592.014 319.159H591.874C592.574 318.329 593.134 317.659 593.534 317.159L593.984 316.649C594.032 316.602 594.086 316.562 594.144 316.529Z" fill="#E0E0E0"/>
<path id="Vector_32" d="M595.034 309.419C595.034 309.509 588.164 309.589 579.694 309.589C571.224 309.589 564.344 309.509 564.344 309.419C564.344 309.329 571.214 309.249 579.674 309.249C588.134 309.249 595.034 309.319 595.034 309.419Z" fill="#455A64"/>
<path id="Vector_33" d="M596.424 332.639C596.424 332.739 588.954 332.809 579.744 332.809C570.534 332.809 563.074 332.739 563.074 332.639C563.074 332.539 570.534 332.469 579.744 332.469C588.954 332.469 596.424 332.549 596.424 332.639Z" fill="#0A2540"/>
</g>
<g id="freepik--Books--inject-47">
<path id="Vector_34" d="M474.455 337.56C474.044 337.56 473.649 337.397 473.358 337.106C473.068 336.816 472.904 336.421 472.904 336.01C472.904 335.599 473.068 335.204 473.358 334.914C473.649 334.623 474.044 334.459 474.455 334.459L541.32 334.501H541.479C544.309 334.602 546.989 335.797 548.955 337.834C550.921 339.871 552.02 342.592 552.02 345.424C552.02 348.255 550.921 350.976 548.955 353.013C546.989 355.051 544.309 356.246 541.479 356.347H541.147L474.455 356.319C474.061 356.292 473.691 356.117 473.421 355.829C473.151 355.54 473.001 355.16 473.001 354.765C473.001 354.37 473.151 353.989 473.421 353.701C473.691 353.412 474.061 353.237 474.455 353.211V337.56Z" fill="#407BFF"/>
<path id="Vector_35" d="M510.124 353.253L442.871 353.211V337.561L510.124 337.602C511.553 337.609 512.953 338.007 514.173 338.751C515.392 339.495 516.386 340.558 517.046 341.825C517.626 342.94 517.929 344.178 517.929 345.434C517.929 346.691 517.626 347.929 517.046 349.044C516.387 350.311 515.393 351.373 514.173 352.115C512.953 352.857 511.552 353.251 510.124 353.253Z" fill="white"/>
<path id="Vector_36" d="M520.501 345.438C520.5 342.598 519.395 339.869 517.418 337.829C515.442 335.789 512.749 334.598 509.91 334.508H509.758L442.892 334.467C442.481 334.467 442.087 334.63 441.796 334.921C441.505 335.212 441.342 335.606 441.342 336.017C441.342 336.429 441.505 336.823 441.796 337.114C442.087 337.404 442.481 337.568 442.892 337.568L509.592 337.609C511.627 337.67 513.558 338.521 514.976 339.982C516.394 341.443 517.188 343.399 517.188 345.435C517.188 347.471 516.394 349.426 514.976 350.887C513.558 352.348 511.627 353.199 509.592 353.26L442.899 353.218C442.505 353.245 442.136 353.42 441.866 353.708C441.596 353.997 441.446 354.377 441.446 354.772C441.446 355.167 441.596 355.548 441.866 355.836C442.136 356.125 442.505 356.3 442.899 356.326L509.592 356.368H509.924C512.759 356.271 515.446 355.077 517.419 353.039C519.392 351 520.497 348.275 520.501 345.438Z" fill="#407BFF"/>
<g id="Group" opacity="0.2">
<path id="Vector_37" d="M520.501 345.438C520.5 342.598 519.395 339.869 517.418 337.829C515.442 335.789 512.749 334.598 509.91 334.508H509.758L442.892 334.467C442.481 334.467 442.087 334.63 441.796 334.921C441.505 335.212 441.342 335.606 441.342 336.017C441.342 336.429 441.505 336.823 441.796 337.114C442.087 337.404 442.481 337.568 442.892 337.568L509.592 337.609C511.627 337.67 513.558 338.521 514.976 339.982C516.394 341.443 517.188 343.399 517.188 345.435C517.188 347.471 516.394 349.426 514.976 350.887C513.558 352.348 511.627 353.199 509.592 353.26L442.899 353.218C442.505 353.245 442.136 353.42 441.866 353.708C441.596 353.997 441.446 354.377 441.446 354.772C441.446 355.167 441.596 355.548 441.866 355.836C442.136 356.125 442.505 356.3 442.899 356.326L509.592 356.368H509.924C512.759 356.271 515.446 355.077 517.419 353.039C519.392 351 520.497 348.275 520.501 345.438Z" fill="white"/>
</g>
<path id="Vector_38" opacity="0.2" d="M442.879 342.295L509.288 342.337C509.361 342.345 509.436 342.338 509.507 342.316C509.577 342.293 509.642 342.256 509.698 342.207C509.753 342.158 509.797 342.097 509.828 342.029C509.858 341.962 509.874 341.888 509.874 341.814C509.874 341.74 509.858 341.667 509.828 341.599C509.797 341.531 509.753 341.471 509.698 341.421C509.642 341.372 509.577 341.335 509.507 341.313C509.436 341.29 509.361 341.283 509.288 341.292L442.879 341.25V342.295Z" fill="black"/>
<path id="Vector_39" opacity="0.2" d="M442.879 345.908L509.288 345.95C509.416 345.935 509.534 345.874 509.62 345.777C509.706 345.681 509.753 345.556 509.753 345.427C509.753 345.298 509.706 345.174 509.62 345.077C509.534 344.981 509.416 344.919 509.288 344.905L442.879 344.863V345.908Z" fill="black"/>
<path id="Vector_40" opacity="0.2" d="M442.872 349.529L509.281 349.57C509.354 349.579 509.429 349.572 509.5 349.549C509.571 349.527 509.636 349.49 509.691 349.44C509.746 349.391 509.791 349.331 509.821 349.263C509.851 349.195 509.867 349.122 509.867 349.048C509.867 348.974 509.851 348.9 509.821 348.833C509.791 348.765 509.746 348.704 509.691 348.655C509.636 348.606 509.571 348.569 509.5 348.546C509.429 348.524 509.354 348.517 509.281 348.525L442.865 348.484L442.872 349.529Z" fill="black"/>
<path id="Vector_41" d="M462.689 315.66C462.278 315.66 461.884 315.496 461.593 315.206C461.302 314.915 461.139 314.521 461.139 314.109C461.139 313.698 461.302 313.304 461.593 313.013C461.884 312.722 462.278 312.559 462.689 312.559L529.555 312.6H529.721C532.569 312.672 535.277 313.854 537.266 315.894C539.255 317.934 540.369 320.67 540.369 323.52C540.369 326.369 539.255 329.105 537.266 331.145C535.277 333.185 532.569 334.367 529.721 334.439H529.555H529.382L462.689 334.397C462.295 334.371 461.925 334.196 461.656 333.907C461.386 333.619 461.236 333.239 461.236 332.843C461.236 332.448 461.386 332.068 461.656 331.779C461.925 331.491 462.295 331.316 462.689 331.289V315.66Z" fill="#407BFF"/>
<g id="Group_2" opacity="0.5">
<path id="Vector_42" d="M462.689 315.66C462.278 315.66 461.884 315.496 461.593 315.206C461.302 314.915 461.139 314.521 461.139 314.109C461.139 313.698 461.302 313.304 461.593 313.013C461.884 312.722 462.278 312.559 462.689 312.559L529.555 312.6H529.721C532.569 312.672 535.277 313.854 537.266 315.894C539.255 317.934 540.369 320.67 540.369 323.52C540.369 326.369 539.255 329.105 537.266 331.145C535.277 333.185 532.569 334.367 529.721 334.439H529.555H529.382L462.689 334.397C462.295 334.371 461.925 334.196 461.656 333.907C461.386 333.619 461.236 333.239 461.236 332.843C461.236 332.448 461.386 332.068 461.656 331.779C461.925 331.491 462.295 331.316 462.689 331.289V315.66Z" fill="white"/>
</g>
<path id="Vector_43" d="M498.337 331.352L431.084 331.311V315.66L498.337 315.702C499.767 315.705 501.168 316.1 502.388 316.845C503.609 317.589 504.602 318.654 505.259 319.924C505.841 321.038 506.144 322.277 506.144 323.534C506.144 324.791 505.841 326.029 505.259 327.144C504.6 328.411 503.606 329.473 502.386 330.215C501.166 330.957 499.765 331.35 498.337 331.352Z" fill="white"/>
<path id="Vector_44" d="M508.712 323.537C508.712 320.697 507.607 317.97 505.632 315.93C503.657 313.89 500.966 312.699 498.129 312.607H497.99L431.125 312.565C430.714 312.565 430.319 312.729 430.028 313.02C429.738 313.31 429.574 313.705 429.574 314.116C429.574 314.527 429.738 314.922 430.028 315.212C430.319 315.503 430.714 315.666 431.125 315.666L497.817 315.708C498.864 315.677 499.907 315.856 500.884 316.235C501.86 316.615 502.751 317.186 503.503 317.916C504.254 318.645 504.852 319.519 505.26 320.484C505.668 321.448 505.879 322.486 505.879 323.533C505.879 324.581 505.668 325.618 505.26 326.583C504.852 327.548 504.254 328.421 503.503 329.151C502.751 329.88 501.86 330.452 500.884 330.831C499.907 331.21 498.864 331.39 497.817 331.358L431.118 331.317C430.724 331.343 430.354 331.518 430.084 331.807C429.814 332.095 429.664 332.476 429.664 332.871C429.664 333.266 429.814 333.646 430.084 333.935C430.354 334.223 430.724 334.398 431.118 334.425L497.81 334.466H497.983H498.149C500.984 334.371 503.671 333.178 505.642 331.138C507.613 329.099 508.714 326.373 508.712 323.537Z" fill="#407BFF"/>
<g id="Group_3" opacity="0.4">
<path id="Vector_45" d="M508.712 323.537C508.712 320.697 507.607 317.97 505.632 315.93C503.657 313.89 500.966 312.699 498.129 312.607H497.99L431.125 312.565C430.714 312.565 430.319 312.729 430.028 313.02C429.738 313.31 429.574 313.705 429.574 314.116C429.574 314.527 429.738 314.922 430.028 315.212C430.319 315.503 430.714 315.666 431.125 315.666L497.817 315.708C498.864 315.677 499.907 315.856 500.884 316.235C501.86 316.615 502.751 317.186 503.503 317.916C504.254 318.645 504.852 319.519 505.26 320.484C505.668 321.448 505.879 322.486 505.879 323.533C505.879 324.581 505.668 325.618 505.26 326.583C504.852 327.548 504.254 328.421 503.503 329.151C502.751 329.88 501.86 330.452 500.884 330.831C499.907 331.21 498.864 331.39 497.817 331.358L431.118 331.317C430.724 331.343 430.354 331.518 430.084 331.807C429.814 332.095 429.664 332.476 429.664 332.871C429.664 333.266 429.814 333.646 430.084 333.935C430.354 334.223 430.724 334.398 431.118 334.425L497.81 334.466H497.983H498.149C500.984 334.371 503.671 333.178 505.642 331.138C507.613 329.099 508.714 326.373 508.712 323.537Z" fill="white"/>
</g>
<g id="Group_4" opacity="0.2">
<path id="Vector_46" d="M431.09 320.408L497.54 320.45C497.608 320.451 497.676 320.438 497.74 320.412C497.803 320.387 497.861 320.348 497.909 320.3C497.958 320.252 497.996 320.194 498.022 320.131C498.047 320.067 498.06 319.999 498.059 319.931C498.057 319.794 498.002 319.663 497.905 319.566C497.808 319.469 497.677 319.413 497.54 319.412L431.09 319.37V320.408Z" fill="black"/>
<path id="Vector_47" d="M431.09 324.008L497.498 324.05C497.572 324.058 497.647 324.051 497.717 324.029C497.788 324.006 497.853 323.969 497.909 323.92C497.964 323.87 498.008 323.81 498.039 323.742C498.069 323.675 498.085 323.601 498.085 323.527C498.085 323.453 498.069 323.38 498.039 323.312C498.008 323.244 497.964 323.184 497.909 323.134C497.853 323.085 497.788 323.048 497.717 323.026C497.647 323.003 497.572 322.996 497.498 323.004L431.09 322.963V324.008Z" fill="black"/>
<path id="Vector_48" d="M431.09 327.621L497.498 327.669C497.627 327.655 497.745 327.593 497.831 327.497C497.917 327.401 497.964 327.276 497.964 327.147C497.964 327.018 497.917 326.893 497.831 326.797C497.745 326.7 497.627 326.639 497.498 326.624L431.09 326.583V327.621Z" fill="black"/>
</g>
<path id="Vector_49" d="M486.313 320.436V331.317L482.52 327.891L478.74 331.317V320.436L482.52 320.457L486.313 320.436Z" fill="#407BFF"/>
</g>
</g>
</g>
<defs>
<clipPath id="clip0_3624_9563">
<rect width="283" height="297.895" fill="white" transform="translate(358 58.2383)"/>
</clipPath>
</defs>
</svg>
