<svg width="53" height="25" viewBox="0 0 53 25" fill="none" xmlns="http://www.w3.org/2000/svg">
<g id="Group 1024">
<path id="Vector" d="M19.1117 6.4655C19.2039 7.57045 18.9662 8.6779 18.4287 9.6477C17.8912 10.6175 17.0781 11.4061 16.0922 11.9135C15.1064 12.421 13.9922 12.6247 12.8906 12.4986C11.789 12.3726 10.7495 11.9226 9.90377 11.2056C9.05802 10.4886 8.44399 9.53677 8.1394 8.47063C7.83482 7.4045 7.85336 6.27198 8.1927 5.21639C8.53203 4.1608 9.1769 3.22961 10.0457 2.54067C10.9144 1.85173 11.9681 1.436 13.0732 1.34612C13.806 1.28523 14.5435 1.3694 15.2437 1.5938C15.9439 1.8182 16.593 2.17843 17.1538 2.65391C17.7146 3.12938 18.1762 3.71077 18.5122 4.3648C18.8481 5.01883 19.0519 5.73267 19.1117 6.4655Z" fill="#32A71F"/>
<path id="Vector_2" d="M29.518 9.39172C29.6101 10.4967 29.3724 11.6041 28.8349 12.5739C28.2974 13.5437 27.4843 14.3323 26.4985 14.8398C25.5127 15.3473 24.3984 15.5509 23.2968 15.4249C22.1952 15.2988 21.1558 14.8489 20.31 14.1318C19.4643 13.4148 18.8502 12.463 18.5457 11.3969C18.2411 10.3307 18.2596 9.19822 18.5989 8.14263C18.9383 7.08704 19.5831 6.15585 20.4519 5.46691C21.3207 4.77797 22.3743 4.36224 23.4795 4.27236C24.9587 4.15205 26.4253 4.6235 27.5574 5.58327C28.6895 6.54303 29.3946 7.9127 29.518 9.39172Z" fill="#32A71F"/>
<path id="Vector_3" d="M37.0402 6.03116C37.1304 7.13589 36.891 8.24255 36.3522 9.21118C35.8134 10.1798 34.9994 10.9669 34.0132 11.4729C33.0271 11.9788 31.913 12.181 30.8119 12.0538C29.7108 11.9265 28.6722 11.4756 27.8274 10.758C26.9827 10.0404 26.3697 9.08845 26.066 8.02246C25.7623 6.95646 25.7816 5.82435 26.1214 4.76931C26.4612 3.71428 27.1062 2.78371 27.9749 2.09531C28.8436 1.40691 29.897 0.991599 31.0018 0.901909C32.482 0.784354 33.9486 1.2581 35.0803 2.21943C36.2121 3.18077 36.9168 4.55137 37.0402 6.03116Z" fill="#32A71F"/>
<path id="Vector_4" d="M44.9744 8.12424C45.0625 9.22633 44.8219 10.3298 44.2832 11.2953C43.7445 12.2607 42.9317 13.0449 41.9476 13.5487C40.9634 14.0526 39.8521 14.2535 38.7538 14.1261C37.6556 13.9987 36.6197 13.5487 35.7771 12.8329C34.9344 12.1171 34.3228 11.1677 34.0194 10.1045C33.716 9.04137 33.7345 7.91215 34.0725 6.85948C34.4105 5.8068 35.0529 4.8779 35.9185 4.19009C36.7841 3.50227 37.8341 3.08639 38.936 2.99498C39.6695 2.93413 40.4078 3.01864 41.1086 3.24365C41.8094 3.46867 42.4588 3.82978 43.0198 4.30628C43.5808 4.78278 44.0422 5.36531 44.3776 6.02047C44.713 6.67564 44.9158 7.39054 44.9744 8.12424Z" fill="#32A71F"/>
<path id="Vector_5" d="M52.1016 8.99487C52.1016 8.99487 51.4493 24.5506 26.4652 24.5506C1.48109 24.5506 0.769531 8.99487 0.769531 8.99487H52.1016Z" fill="#D6CDCD"/>
</g>
</svg>
