<svg width="96" height="79" viewBox="0 0 96 79" fill="none" xmlns="http://www.w3.org/2000/svg">
<g id="Group 1021">
<path id="Vector" d="M95.0176 62.1802H0.464844V66.3927H95.0176V62.1802Z" fill="#787676"/>
<path id="Vector_2" d="M19.7819 64.2075H15.9434V78.584H19.7819V64.2075Z" fill="#787676"/>
<path id="Vector_3" d="M77.0846 64.2075H73.2461V78.584H77.0846V64.2075Z" fill="#787676"/>
<g id="Group 1020">
<path id="Vector_4" d="M59.1776 25.8685C59.3351 25.7176 60.3849 26.4853 61.7694 28.0601C62.5709 28.9873 63.3034 29.972 63.961 31.0062C65.5812 33.5619 66.7777 36.3627 67.5043 39.3001C67.812 40.4963 68.0313 41.7135 68.1604 42.9418C68.3507 45.0415 68.1604 46.3407 67.9636 46.3473C67.4715 46.3867 67.0187 41.308 64.5712 35.6781C62.1237 30.0483 58.8167 26.2097 59.1776 25.8685Z" fill="#49C62A"/>
<path id="Vector_5" d="M69.5834 50.56C69.3669 50.56 68.7698 47.8107 68.2186 43.2569C67.6674 38.7032 67.195 32.3909 67.0178 25.4093C66.8407 18.4278 66.9063 12.1024 67.0178 7.52896C67.1294 2.95552 67.3656 0.134033 67.5953 0.134033C67.8249 0.134033 68.0283 2.96208 68.1858 7.52896C68.3433 12.0958 68.4614 18.4015 68.6451 25.3634C68.8288 32.3253 69.1044 38.6047 69.3603 43.1585C69.6162 47.7122 69.8196 50.56 69.5834 50.56Z" fill="#49C62A"/>
<path id="Vector_6" d="M79.6634 10.8682C79.8734 10.9863 79.0073 12.9286 77.8721 16.17C76.7369 19.4114 75.2475 23.9389 73.8761 28.9979C72.5047 34.0569 71.4155 38.696 70.7659 42.0752C70.1163 45.4544 69.8473 47.5607 69.6045 47.5542C69.3617 47.5476 69.2173 45.3691 69.6045 41.8915C70.1511 37.3813 71.0417 32.9196 72.2685 28.5452C73.4432 24.1631 74.9502 19.8769 76.7763 15.7238C78.2067 12.5414 79.46 10.7567 79.6634 10.8682Z" fill="#49C62A"/>
</g>
<path id="Vector_7" d="M56.6329 44.7612V50.3189C56.6189 53.4435 57.8436 56.4462 60.0389 58.6697C62.2341 60.8932 65.2209 62.1563 68.3454 62.1823C71.471 62.158 74.4595 60.8957 76.6562 58.672C78.8528 56.4483 80.0784 53.4446 80.0644 50.3189V44.7612H56.6329Z" fill="#A4DEE6"/>
<path id="Vector_8" d="M80.2741 49.4595C80.2741 49.5579 74.9789 49.6301 68.4632 49.6301C61.9476 49.6301 56.6523 49.5579 56.6523 49.4595C56.6523 49.361 61.9476 49.2954 68.4632 49.2954C74.9789 49.2954 80.2741 49.3676 80.2741 49.4595Z" fill="#FAFAFA"/>
<path id="Vector_9" d="M80.2741 51.0063C80.2741 51.0982 74.9789 51.1703 68.4632 51.1703C61.9476 51.1703 56.6523 51.0982 56.6523 51.0063C56.6523 50.9144 61.9476 50.8357 68.4632 50.8357C74.9789 50.8357 80.2741 50.9079 80.2741 51.0063Z" fill="#FAFAFA"/>
<path id="Vector_10" d="M38.217 48.5277L38.1895 43.272L12.3765 43.4071L12.404 48.6629L38.217 48.5277Z" fill="#E1D355"/>
<path id="Vector_11" d="M41.324 62.1662L41.2812 54.0037L12.5156 54.1543L12.5583 62.3168L41.324 62.1662Z" fill="#914C4C"/>
<path id="Vector_12" d="M35.787 62.1099C35.6434 60.7545 35.5952 59.3907 35.6427 58.0286C35.5952 56.6664 35.6434 55.3026 35.787 53.9473C35.9223 55.3032 35.9683 56.6666 35.9248 58.0286C35.9683 59.3906 35.9223 60.754 35.787 62.1099Z" fill="#E0E0E0"/>
<path id="Vector_13" d="M37.0136 62.1099C36.87 60.7545 36.8218 59.3907 36.8692 58.0286C36.8218 56.6664 36.87 55.3026 37.0136 53.9473C37.1489 55.3032 37.1949 56.6666 37.1514 58.0286C37.1949 59.3906 37.1489 60.754 37.0136 62.1099Z" fill="#E0E0E0"/>
<path id="Vector_14" d="M16.8822 62.1099C16.7469 60.754 16.7009 59.3906 16.7444 58.0286C16.7009 56.6666 16.7469 55.3032 16.8822 53.9473C17.0258 55.3026 17.074 56.6664 17.0265 58.0286C17.074 59.3907 17.0258 60.7545 16.8822 62.1099Z" fill="#E0E0E0"/>
<path id="Vector_15" d="M18.0956 62.1099C17.952 60.7545 17.9038 59.3907 17.9513 58.0286C17.9038 56.6664 17.952 55.3026 18.0956 53.9473C18.2309 55.3032 18.2769 56.6666 18.2334 58.0286C18.2769 59.3906 18.2309 60.754 18.0956 62.1099Z" fill="#E0E0E0"/>
<path id="Vector_16" d="M20.7344 58.1581C20.7344 58.0793 23.6346 58.0203 27.2107 58.0203C30.7868 58.0203 33.6935 58.0793 33.6935 58.1581C33.6935 58.2368 30.7933 58.3024 27.2107 58.3024C23.628 58.3024 20.7344 58.2368 20.7344 58.1581Z" fill="#E0E0E0"/>
<path id="Vector_17" d="M52.1232 53.6615L52.0957 48.4058L16.5979 48.5916L16.6254 53.8474L52.1232 53.6615Z" fill="#887ADD"/>
<path id="Vector_18" d="M47.045 53.0068C47.9727 53.0068 48.7248 52.2459 48.7248 51.3074C48.7248 50.3688 47.9727 49.6079 47.045 49.6079C46.1173 49.6079 45.3652 50.3688 45.3652 51.3074C45.3652 52.2459 46.1173 53.0068 47.045 53.0068Z" fill="#E0E0E0"/>
<path id="Vector_19" d="M42.4336 51.8343V50.7844H18.6675V51.8343H42.4336Z" fill="#E0E0E0"/>
</g>
</svg>
