<svg width="64" height="116" viewBox="0 0 64 116" fill="none" xmlns="http://www.w3.org/2000/svg">
<g id="Group 1023">
<path id="Vector" d="M30.5575 111.797H36.5684L36.5684 0.558159H30.5575L30.5575 111.797Z" fill="#B28B67"/>
<path id="Vector_2" d="M1.71253 115.629H34.9902V111.789H1.71253V115.629Z" fill="#987356"/>
<path id="Vector_3" d="M30.5642 0.550781H0.119141V111.789H30.5642V0.550781Z" fill="#B28B67"/>
<path id="Vector_4" d="M27.3186 58.4819H3.36523V78.3479H27.3186V58.4819Z" fill="#987356"/>
<path id="Vector_5" d="M27.3186 84.4783H3.36523V104.344H27.3186V84.4783Z" fill="#987356"/>
<path id="Vector_6" d="M12.1484 69.7739H18.5275C19.0171 69.7739 19.4141 69.377 19.4141 68.8873V67.9331C19.4141 67.4434 19.0171 67.0465 18.5275 67.0465H12.1484C11.6588 67.0465 11.2618 67.4434 11.2618 67.9331V68.8873C11.2618 69.377 11.6588 69.7739 12.1484 69.7739Z" fill="#B28B67"/>
<path id="Vector_7" d="M12.1484 95.7703H18.5275C19.0171 95.7703 19.4141 95.3733 19.4141 94.8837V93.9294C19.4141 93.4398 19.0171 93.0428 18.5275 93.0428H12.1484C11.6588 93.0428 11.2618 93.4398 11.2618 93.9294V94.8837C11.2618 95.3733 11.6588 95.7703 12.1484 95.7703Z" fill="#B28B67"/>
<path id="Vector_8" d="M27.3186 6.69092H3.36523V26.5568H27.3186V6.69092Z" fill="#987356"/>
<path id="Vector_9" d="M27.3186 32.4763H3.36523V52.3423H27.3186V32.4763Z" fill="#987356"/>
<path id="Vector_10" d="M12.1484 17.9827H18.5275C19.0171 17.9827 19.4141 17.5857 19.4141 17.0961V16.1418C19.4141 15.6522 19.0171 15.2552 18.5275 15.2552H12.1484C11.6588 15.2552 11.2618 15.6522 11.2618 16.1418V17.0961C11.2618 17.5857 11.6588 17.9827 12.1484 17.9827Z" fill="#B28B67"/>
<path id="Vector_11" d="M12.1484 43.7776H18.5275C19.0171 43.7776 19.4141 43.3806 19.4141 42.891V41.9367C19.4141 41.4471 19.0171 41.0502 18.5275 41.0502H12.1484C11.6588 41.0502 11.2618 41.4471 11.2618 41.9367V42.891C11.2618 43.3806 11.6588 43.7776 12.1484 43.7776Z" fill="#B28B67"/>
<path id="Vector_12" d="M35.012 115.629H60.8301V111.789H35.012V115.629Z" fill="#987356"/>
<path id="Vector_13" d="M63.8806 0.550781H33.4355V111.789H63.8806V0.550781Z" fill="#B28B67"/>
<path id="Vector_14" d="M60.633 58.4819H36.6797V78.3479H60.633V58.4819Z" fill="#987356"/>
<path id="Vector_15" d="M60.8303 83.7864H36.877V103.652H60.8303V83.7864Z" fill="#987356"/>
<path id="Vector_16" d="M45.3886 66.5061H51.7677C52.2574 66.5061 52.6543 66.1092 52.6543 65.6195V64.6653C52.6543 64.1756 52.2574 63.7787 51.7677 63.7787H45.3886C44.899 63.7787 44.502 64.1756 44.502 64.6653V65.6195C44.502 66.1092 44.899 66.5061 45.3886 66.5061Z" fill="#B28B67"/>
<path id="Vector_17" d="M45.4648 95.7703H51.8439C52.3335 95.7703 52.7305 95.3733 52.7305 94.8837V93.9294C52.7305 93.4398 52.3335 93.0428 51.8439 93.0428H45.4648C44.9752 93.0428 44.5782 93.4398 44.5782 93.9294V94.8837C44.5782 95.3733 44.9752 95.7703 45.4648 95.7703Z" fill="#B28B67"/>
<path id="Vector_18" d="M60.8303 6.69092H36.877V26.5568H60.8303V6.69092Z" fill="#89664C" fill-opacity="0.63"/>
<path id="Vector_19" d="M60.633 32.4763H36.6797V52.3423H60.633V32.4763Z" fill="#987356"/>
<path id="Vector_20" d="M45.4648 17.9827H51.8439C52.3335 17.9827 52.7305 17.5857 52.7305 17.0961V16.1418C52.7305 15.6522 52.3335 15.2552 51.8439 15.2552H45.4648C44.9752 15.2552 44.5782 15.6522 44.5782 16.1418V17.0961C44.5782 17.5857 44.9752 17.9827 45.4648 17.9827Z" fill="#B28B67"/>
<path id="Vector_21" d="M45.3886 46.2185H51.7677C52.2574 46.2185 52.6543 45.8216 52.6543 45.3319V44.3777C52.6543 43.888 52.2574 43.4911 51.7677 43.4911H45.3886C44.899 43.4911 44.502 43.888 44.502 44.3777V45.3319C44.502 45.8216 44.899 46.2185 45.3886 46.2185Z" fill="#B28B67"/>
</g>
</svg>
