<svg width="53" height="72" viewBox="0 0 53 72" fill="none" xmlns="http://www.w3.org/2000/svg">
<g id="Group 1022">
<path id="Vector" d="M52.3238 0.101562H3.35938V71.0747H52.3238V0.101562Z" fill="#E0E0E0"/>
<path id="Vector_2" d="M49.8707 0.101562H0.90625V71.0747H49.8707V0.101562Z" fill="#87C7E2"/>
<path id="Vector_3" d="M43.7902 7.78857H6.98828V63.3877H43.7902V7.78857Z" fill="#F8FBFF"/>
<path id="Vector_4" d="M43.7902 63.395C43.7902 63.395 43.7902 63.2993 43.7902 63.1216C43.7902 62.944 43.7902 62.6775 43.7902 62.329C43.7902 61.6457 43.7902 60.6071 43.7902 59.2816C43.7902 56.6167 43.7902 52.7357 43.756 47.8296C43.756 38.0245 43.7219 24.14 43.6945 7.78895L43.8175 7.91195H7.02243L7.1591 7.77528C7.1591 28.7522 7.1591 48.0893 7.1591 63.3813L7.04977 63.272L33.8347 63.3266H41.2347H43.1821C43.6194 63.3266 43.8653 63.3266 43.8653 63.3266H43.2162H41.2894H33.9167L7.06345 63.3813H6.96094V63.2788C6.96094 47.9868 6.96094 28.6497 6.96094 7.67279V7.54297H7.0976H43.8927H44.0157V7.65913C44.0157 24.058 43.9678 37.9561 43.9542 47.7818C43.9542 52.6742 43.9542 56.5484 43.92 59.2064C43.92 60.5251 43.92 61.5364 43.92 62.2265C43.92 62.5682 43.92 62.821 43.92 63.0055C43.92 63.19 43.7902 63.395 43.7902 63.395Z" fill="#E0E0E0"/>
<path id="Vector_5" d="M50.0087 0.101562C49.762 0.556992 49.4714 0.98723 49.141 1.38615C48.567 2.1446 47.7744 3.1832 46.8383 4.29696C45.9022 5.41072 45.0549 6.40831 44.4194 7.1121C44.0961 7.51503 43.7346 7.88574 43.3398 8.21903C43.6195 7.78753 43.9325 7.37859 44.2759 6.99594L46.6333 4.1193L48.9701 1.25632C49.2863 0.845416 49.6335 0.459363 50.0087 0.101562Z" fill="#E0E0E0"/>
<path id="Vector_6" d="M43.9746 63.2097C45.8032 66.1215 47.9581 68.8152 50.3975 71.2384L43.9746 63.2097Z" fill="white"/>
<path id="Vector_7" d="M50.3975 71.2384C49.9874 70.9415 49.6116 70.6001 49.2769 70.2203C47.5685 68.4844 46.0435 66.5771 44.7262 64.5285C44.4302 64.1165 44.1782 63.6744 43.9746 63.2097C44.3034 63.5911 44.6048 63.9952 44.8766 64.4191C45.4164 65.1776 46.1748 66.2162 47.0631 67.3231C47.9513 68.43 48.7918 69.373 49.4136 70.0904C49.7687 70.449 50.0975 70.8326 50.3975 71.2384Z" fill="#E0E0E0"/>
<path id="Vector_8" d="M0.898438 71.0206L7.28719 63.1082L0.898438 71.0206Z" fill="white"/>
<path id="Vector_9" d="M7.28871 63.1082C6.32416 64.5102 5.28641 65.8604 4.17975 67.1532C3.14422 68.498 2.04038 69.7889 0.87262 71.0206C0.817957 70.9796 2.2392 69.1689 3.97475 66.9824C5.00791 65.6315 6.11422 64.3382 7.28871 63.1082Z" fill="#E0E0E0"/>
<path id="Vector_10" d="M0.90625 0.101562C2.00691 1.2896 3.04683 2.53249 4.02204 3.82548C5.05857 5.06883 6.02794 6.36665 6.92602 7.7134C5.81664 6.53307 4.77631 5.28969 3.81023 3.98947C2.7692 2.74969 1.79963 1.45162 0.90625 0.101562Z" fill="#E0E0E0"/>
<path id="Vector_11" d="M32.3236 19.0842H20.0039V54.0686H32.3236V19.0842Z" fill="#81E898"/>
</g>
</svg>
