<svg width="25" height="25" viewBox="0 0 25 25" fill="none" xmlns="http://www.w3.org/2000/svg">
<g clip-path="url(#clip0_3624_10719)">
<path d="M21.3685 19.3936H2.70182C2.52501 19.3936 2.35544 19.3234 2.23042 19.1984C2.10539 19.0734 2.03516 18.9038 2.03516 18.727C2.03516 18.5502 2.10539 18.3806 2.23042 18.2556C2.35544 18.1305 2.52501 18.0603 2.70182 18.0603H21.3685C21.5453 18.0603 21.7149 18.1305 21.8399 18.2556C21.9649 18.3806 22.0352 18.5502 22.0352 18.727C22.0352 18.9038 21.9649 19.0734 21.8399 19.1984C21.7149 19.3234 21.5453 19.3936 21.3685 19.3936Z" fill="black"/>
<path d="M21.3685 12.727H2.70182C2.52501 12.727 2.35544 12.6568 2.23042 12.5317C2.10539 12.4067 2.03516 12.2372 2.03516 12.0603C2.03516 11.8835 2.10539 11.714 2.23042 11.5889C2.35544 11.4639 2.52501 11.3937 2.70182 11.3937H21.3685C21.5453 11.3937 21.7149 11.4639 21.8399 11.5889C21.9649 11.714 22.0352 11.8835 22.0352 12.0603C22.0352 12.2372 21.9649 12.4067 21.8399 12.5317C21.7149 12.6568 21.5453 12.727 21.3685 12.727Z" fill="black"/>
<path d="M21.3685 6.06026H2.70182C2.52501 6.06026 2.35544 5.99002 2.23042 5.865C2.10539 5.73998 2.03516 5.57041 2.03516 5.3936C2.03516 5.21678 2.10539 5.04722 2.23042 4.92219C2.35544 4.79717 2.52501 4.72693 2.70182 4.72693H21.3685C21.5453 4.72693 21.7149 4.79717 21.8399 4.92219C21.9649 5.04722 22.0352 5.21678 22.0352 5.3936C22.0352 5.57041 21.9649 5.73998 21.8399 5.865C21.7149 5.99002 21.5453 6.06026 21.3685 6.06026Z" fill="black"/>
</g>
<defs>
<clipPath id="clip0_3624_10719">
<rect width="24" height="24" fill="white" transform="translate(0.0351562 0.0603027)"/>
</clipPath>
</defs>
</svg>
