<svg width="17" height="15" viewBox="0 0 17 15" fill="none" xmlns="http://www.w3.org/2000/svg">
<path d="M8.03687 13.7858C8.32687 13.9558 8.68187 13.9408 8.96687 13.7628C11.0049 12.4898 14.3969 9.93681 15.7559 6.53281C17.7409 2.12481 13.0679 -1.31919 9.84587 1.21281C9.49587 1.48781 9.02087 1.89281 8.71587 2.22781C8.60387 2.35081 8.39887 2.36181 8.28387 2.24081C7.91687 1.85281 7.32787 1.29681 6.93387 1.03081C4.18787 -0.828185 -0.796132 1.54481 1.33387 6.77181C2.11387 9.11181 5.92387 12.5348 8.03687 13.7858Z" fill="#CCC1D3"/>
<path d="M8.27173 14.2059C8.56173 14.3759 8.91673 14.3599 9.20173 14.1829C11.3017 12.8729 14.8097 10.2379 16.2127 6.72291C18.2587 2.17891 13.4427 -1.37009 10.1227 1.23891C9.75873 1.52491 9.26473 1.94591 8.95073 2.29291C8.92372 2.32277 8.89095 2.34687 8.85439 2.36376C8.81784 2.38065 8.77825 2.38998 8.738 2.3912C8.69775 2.39241 8.65767 2.38548 8.62016 2.37083C8.58265 2.35617 8.54849 2.33409 8.51973 2.30591C8.14073 1.90591 7.52973 1.32791 7.12073 1.05091C4.29073 -0.864093 -0.84727 1.58091 1.35073 6.96891C2.15373 9.38491 6.09673 12.9239 8.27173 14.2059Z" fill="url(#paint0_radial_3822_7724)"/>
<path d="M8.27173 14.2059C8.56173 14.3759 8.91673 14.3599 9.20173 14.1829C11.3017 12.8729 14.8097 10.2379 16.2127 6.72291C18.2587 2.17891 13.4427 -1.37009 10.1227 1.23891C9.75873 1.52491 9.26473 1.94591 8.95073 2.29291C8.92372 2.32277 8.89095 2.34687 8.85439 2.36376C8.81784 2.38065 8.77825 2.38998 8.738 2.3912C8.69775 2.39241 8.65767 2.38548 8.62016 2.37083C8.58265 2.35617 8.54849 2.33409 8.51973 2.30591C8.14073 1.90591 7.52973 1.32791 7.12073 1.05091C4.29073 -0.864093 -0.84727 1.58091 1.35073 6.96891C2.15373 9.38491 6.09673 12.9239 8.27173 14.2059Z" fill="url(#paint1_radial_3822_7724)"/>
<path d="M8.27173 14.2059C8.56173 14.3759 8.91673 14.3599 9.20173 14.1829C11.3017 12.8729 14.8097 10.2379 16.2127 6.72291C18.2587 2.17891 13.4427 -1.37009 10.1227 1.23891C9.75873 1.52491 9.26473 1.94591 8.95073 2.29291C8.92372 2.32277 8.89095 2.34687 8.85439 2.36376C8.81784 2.38065 8.77825 2.38998 8.738 2.3912C8.69775 2.39241 8.65767 2.38548 8.62016 2.37083C8.58265 2.35617 8.54849 2.33409 8.51973 2.30591C8.14073 1.90591 7.52973 1.32791 7.12073 1.05091C4.29073 -0.864093 -0.84727 1.58091 1.35073 6.96891C2.15373 9.38491 6.09673 12.9239 8.27173 14.2059Z" fill="url(#paint2_linear_3822_7724)"/>
<path d="M8.27173 14.2059C8.56173 14.3759 8.91673 14.3599 9.20173 14.1829C11.3017 12.8729 14.8097 10.2379 16.2127 6.72291C18.2587 2.17891 13.4427 -1.37009 10.1227 1.23891C9.75873 1.52491 9.26473 1.94591 8.95073 2.29291C8.92372 2.32277 8.89095 2.34687 8.85439 2.36376C8.81784 2.38065 8.77825 2.38998 8.738 2.3912C8.69775 2.39241 8.65767 2.38548 8.62016 2.37083C8.58265 2.35617 8.54849 2.33409 8.51973 2.30591C8.14073 1.90591 7.52973 1.32791 7.12073 1.05091C4.29073 -0.864093 -0.84727 1.58091 1.35073 6.96891C2.15373 9.38491 6.09673 12.9239 8.27173 14.2059V14.2059Z" fill="url(#paint3_radial_3822_7724)" fill-opacity="0.75"/>
<defs>
<radialGradient id="paint0_radial_3822_7724" cx="0" cy="0" r="1" gradientUnits="userSpaceOnUse" gradientTransform="translate(11.4427 3.09991) rotate(90) scale(14.3125 27.6487)">
<stop stop-color="#F12E52"/>
<stop offset="0.596" stop-color="#FF3B79"/>
<stop offset="1" stop-color="#FF4EC6"/>
</radialGradient>
<radialGradient id="paint1_radial_3822_7724" cx="0" cy="0" r="1" gradientUnits="userSpaceOnUse" gradientTransform="translate(12.7037 3.91191) rotate(142.986) scale(14.95 28.0029)">
<stop offset="0.483" stop-color="#C12372" stop-opacity="0"/>
<stop offset="0.834" stop-color="#C12372"/>
</radialGradient>
<linearGradient id="paint2_linear_3822_7724" x1="8.70373" y1="5.16191" x2="8.70373" y2="15.9199" gradientUnits="userSpaceOnUse">
<stop offset="0.151" stop-color="#C12372" stop-opacity="0"/>
<stop offset="0.895" stop-color="#C12372"/>
</linearGradient>
<radialGradient id="paint3_radial_3822_7724" cx="0" cy="0" r="1" gradientUnits="userSpaceOnUse" gradientTransform="translate(8.45373 13.1619) rotate(-90) scale(14 20.5463)">
<stop offset="0.719" stop-color="#FF7033" stop-opacity="0"/>
<stop offset="1" stop-color="#FF7033"/>
</radialGradient>
</defs>
</svg>
