<svg width="641" height="473" viewBox="0 0 641 473" fill="none" xmlns="http://www.w3.org/2000/svg">
<mask id="mask0_5300_8669" style="mask-type:luminance" maskUnits="userSpaceOnUse" x="0" y="0" width="641" height="473">
<path d="M640.488 0H0.488281V473H640.488V0Z" fill="white"/>
</mask>
<g mask="url(#mask0_5300_8669)">
<mask id="mask1_5300_8669" style="mask-type:luminance" maskUnits="userSpaceOnUse" x="70" y="-63" width="501" height="500">
<path d="M570.488 -63H70.4883V437H570.488V-63Z" fill="white"/>
</mask>
<g mask="url(#mask1_5300_8669)">
<path d="M500.268 93.1999C498.178 69.4699 488.438 46.9299 471.848 29.8499C456.398 13.9399 432.718 -0.0100794 398.848 5.43992C321.318 17.9199 353.018 137 251.848 110.38C150.678 83.7599 108.468 206.38 184.188 249.69C259.908 293 390.128 268.84 445.238 222.56C497.198 179 503.228 126.84 500.268 93.1999Z" fill="#9B9A9A"/>
<path opacity="0.9" d="M500.268 93.1999C498.178 69.4699 488.438 46.9299 471.848 29.8499C456.398 13.9399 432.718 -0.0100794 398.848 5.43992C321.318 17.9199 353.018 137 251.848 110.38C150.678 83.7599 108.468 206.38 184.188 249.69C259.908 293 390.128 268.84 445.238 222.56C497.198 179 503.228 126.84 500.268 93.1999Z" fill="white"/>
<path d="M551.775 391.433C551.775 396.784 443.206 401.131 309.284 401.131C175.362 401.131 66.8047 396.784 66.8047 391.433C66.8047 386.081 175.362 381.76 309.284 381.76C443.206 381.76 551.775 386.081 551.775 391.433Z" fill="#F5F5F5"/>
<path d="M451.718 279.46L458.278 285.97L459.178 286.86L413.728 332.81L399.028 317.95L328.838 388.94H339.228L399.028 328.46L413.728 343.33L464.428 292.06L464.818 292.45L471.378 298.95L476.138 274.17L451.718 279.46Z" fill="#00B960"/>
<path d="M177.978 384.71L184.568 349H139.758L146.348 384.69C146.549 385.785 147.127 386.774 147.982 387.487C148.837 388.199 149.915 388.59 151.028 388.59H173.298C174.408 388.59 175.483 388.203 176.338 387.494C177.193 386.786 177.773 385.801 177.978 384.71Z" fill="#0A2540"/>
<path d="M179.817 316.72C173.917 315.16 164.907 327.41 162.167 339.35V322C164.442 318.149 167.416 314.758 170.937 312C178.337 306 185.157 298.23 179.247 296.67C173.707 295.21 165.427 305.91 162.167 317.11V294.73C163.538 292.659 165.225 290.817 167.167 289.27C171.837 285.47 176.167 280.59 172.407 279.6C169.177 278.75 164.407 284.48 162.147 290.93V283.69C162.559 280.692 163.37 277.763 164.557 274.98C167.987 267.4 169.837 259.59 165.317 260.18C160.797 260.77 157.847 274.25 160.317 284.61V288.34C158.647 280.76 152.907 272.91 149.157 273.89C145.407 274.87 149.727 279.75 154.397 283.56C156.861 285.455 158.881 287.864 160.317 290.62V308.21C157.637 296.21 148.557 283.83 142.627 285.39C136.697 286.95 143.537 294.69 150.947 300.73C154.837 303.729 158.033 307.532 160.317 311.88V333C157.457 321.22 148.607 309.34 142.787 310.87C136.967 312.4 141.947 318.08 150.267 324.93C154.395 328.286 157.798 332.447 160.267 337.16V349H162.097V343.1C164.409 338.793 167.61 335.026 171.487 332.05C178.907 326 185.727 318.28 179.817 316.72Z" fill="#DDAE08"/>
<path d="M187.328 347.34H136.998V352.24H187.328V347.34Z" fill="#0A2540"/>
<path opacity="0.2" d="M187.328 347.34H136.998V352.24H187.328V347.34Z" fill="white"/>
<path d="M473.078 120.83C470.258 130.874 464.205 139.708 455.857 145.963C447.508 152.218 437.33 155.546 426.898 155.43H421.038V155C418.88 154.706 416.745 154.261 414.648 153.67C404.155 150.725 394.998 144.255 388.718 135.348C382.438 126.441 379.419 115.643 380.169 104.77C380.919 93.8981 385.393 83.6165 392.837 75.6569C400.281 67.6973 410.24 62.5458 421.038 61.0701V60.6301H426.898C434.258 60.5526 441.534 62.1889 448.152 65.4095C454.77 68.6301 460.548 73.3467 465.028 79.186C469.508 85.0253 472.568 91.8271 473.965 99.0533C475.362 106.279 475.058 113.732 473.078 120.82V120.83Z" fill="#FF4062"/>
<path opacity="0.3" d="M473.078 120.83C470.258 130.874 464.205 139.708 455.857 145.963C447.508 152.218 437.33 155.546 426.898 155.43H421.038V155C418.88 154.706 416.745 154.261 414.648 153.67C404.155 150.725 394.998 144.255 388.718 135.348C382.438 126.441 379.419 115.643 380.169 104.77C380.919 93.8981 385.393 83.6165 392.837 75.6569C400.281 67.6973 410.24 62.5458 421.038 61.0701V60.6301H426.898C434.258 60.5526 441.534 62.1889 448.152 65.4095C454.77 68.6301 460.548 73.3467 465.028 79.186C469.508 85.0253 472.568 91.8271 473.965 99.0533C475.362 106.279 475.058 113.732 473.078 120.82V120.83Z" fill="black"/>
<path d="M439.339 151.93C463.568 142.032 475.186 114.367 465.289 90.1381C455.391 65.9089 427.726 54.2909 403.497 64.1885C379.268 74.0861 367.65 101.751 377.547 125.98C387.445 150.21 415.11 161.828 439.339 151.93Z" fill="#FF4062"/>
<path d="M436.783 142.181C455.65 133.694 464.065 111.519 455.578 92.6509C447.09 73.7834 424.915 65.3686 406.047 73.8559C387.18 82.3432 378.765 104.519 387.252 123.386C395.74 142.254 417.915 150.669 436.783 142.181Z" fill="white"/>
<path d="M448.667 112.068C450.884 97.0315 440.493 83.0445 425.457 80.8268C410.42 78.6091 396.433 89.0006 394.216 104.037C391.998 119.073 402.389 133.06 417.426 135.278C432.462 137.495 446.449 127.104 448.667 112.068Z" fill="#FF4062"/>
<path d="M438.82 110.674C440.275 101.069 433.667 92.1035 424.062 90.6492C414.457 89.1948 405.491 95.8023 404.037 105.408C402.582 115.013 409.19 123.978 418.795 125.433C428.4 126.887 437.366 120.279 438.82 110.674Z" fill="white"/>
<path d="M419.347 115.41C420.804 115.818 422.349 115.785 423.786 115.315C425.224 114.846 426.491 113.96 427.425 112.771C428.36 111.582 428.921 110.142 429.038 108.634C429.155 107.126 428.822 105.617 428.082 104.298C427.341 102.98 426.226 101.91 424.878 101.224C423.53 100.539 422.008 100.268 420.506 100.447C419.004 100.626 417.589 101.246 416.439 102.229C415.29 103.212 414.457 104.514 414.047 105.97C413.502 107.925 413.754 110.015 414.748 111.785C415.741 113.554 417.395 114.858 419.347 115.41Z" fill="#FF4062"/>
<path d="M368.379 78.8499L379.819 77.0999L378.079 65.6599C378.046 65.4992 378.047 65.3335 378.08 65.1729C378.114 65.0124 378.18 64.8603 378.274 64.726C378.368 64.5916 378.488 64.4778 378.628 64.3914C378.767 64.305 378.923 64.2479 379.085 64.2235C379.247 64.199 379.412 64.2078 379.571 64.2493C379.73 64.2908 379.878 64.3641 380.008 64.4648C380.137 64.5655 380.245 64.6914 380.324 64.835C380.403 64.9785 380.453 65.1367 380.469 65.2999L382.359 77.6599L386.749 80.8899L385.229 70.8899C385.18 70.5716 385.259 70.2469 385.45 69.9872C385.64 69.7275 385.926 69.554 386.244 69.5049C386.562 69.4558 386.887 69.5352 387.147 69.7256C387.406 69.9159 387.58 70.2017 387.629 70.5199L389.489 82.9299L395.039 87.0099L393.529 77.0099C393.503 76.8535 393.509 76.6937 393.545 76.5395C393.582 76.3853 393.649 76.2399 393.741 76.1116C393.834 75.9833 393.952 75.8746 394.087 75.792C394.222 75.7093 394.372 75.6542 394.529 75.6299C394.844 75.5835 395.165 75.6622 395.423 75.849C395.68 76.0358 395.855 76.3161 395.909 76.6299L397.829 88.9999L421.939 106.75C423.449 108 422.459 109.58 421.219 109.23L396.139 90.7699L384.209 92.5899C383.891 92.639 383.566 92.5596 383.306 92.3692C383.047 92.1789 382.873 91.8932 382.824 91.5749C382.775 91.2566 382.854 90.9319 383.045 90.6722C383.235 90.4125 383.521 90.239 383.839 90.1899L393.369 88.7399L387.819 84.6599L375.899 86.4699C375.581 86.519 375.256 86.4396 374.996 86.2493C374.737 86.0589 374.563 85.7732 374.514 85.4549C374.465 85.1367 374.544 84.8119 374.735 84.5522C374.925 84.2925 375.211 84.119 375.529 84.0699L385.059 82.6199L380.669 79.3899L368.739 81.1999C368.578 81.2324 368.413 81.2319 368.252 81.1985C368.091 81.165 367.939 81.0992 367.805 81.0051C367.671 80.9111 367.557 80.7907 367.471 80.6513C367.384 80.5119 367.327 80.3563 367.303 80.1942C367.278 80.032 367.287 79.8665 367.328 79.7079C367.37 79.5492 367.443 79.4006 367.544 79.2711C367.645 79.1417 367.77 79.034 367.914 78.9547C368.058 78.8755 368.216 78.8262 368.379 78.8099V78.8499Z" fill="#263238"/>
<path d="M263.379 388.94H262.379V358.65H297.289V328.81H332.209V299.01H367.119V269.17H402.039V239.38H436.949V209.54H472.359V210.54H437.949V240.34L437.449 240.38H403.039V270.17H368.119V299.97L367.619 300.01H333.209V329.81H298.289V359.6L297.789 359.65H263.379V388.94Z" fill="#A3A3A3"/>
<path d="M479.317 210.04L472.357 217.24V202.84L479.317 210.04Z" fill="#757575"/>
<path d="M311.488 87.5999C313.888 93.0399 316.178 98.5998 318.488 104.09L321.898 112.3C323.058 114.98 324.198 117.76 325.368 120.09C325.718 120.95 326.212 121.744 326.828 122.44C327.703 123.419 328.631 124.351 329.608 125.23C331.608 127.17 333.898 129.06 336.148 130.98L349.928 142.41L346.218 148.27C340.678 145.59 335.308 142.73 330.038 139.52C327.388 137.92 324.788 136.23 322.158 134.37C320.768 133.382 319.433 132.321 318.158 131.19C317.356 130.486 316.61 129.72 315.928 128.9L315.378 128.16L314.948 127.52C314.658 127.09 314.458 126.75 314.208 126.35C313.308 124.87 312.548 123.49 311.798 122.1C311.048 120.71 310.328 119.34 309.648 117.96C308.278 115.2 306.938 112.45 305.648 109.68C303.098 104.14 300.708 98.5998 298.518 92.8998L311.488 87.5999Z" fill="#9E6141"/>
<path d="M311.217 86.72L320.547 104.22C318.057 110.066 314.019 115.121 308.867 118.84L302.207 111.14L311.217 86.72Z" fill="#1F28CF"/>
<g opacity="0.5">
<path d="M311.217 86.72L320.547 104.22C318.057 110.066 314.019 115.121 308.867 118.84L302.207 111.14L311.217 86.72Z" fill="white"/>
</g>
<path d="M297.488 37.7799C294.671 37.5636 291.866 38.3274 289.548 39.942C287.23 41.5567 285.542 43.9229 284.768 46.6399C281.948 55.0199 278.638 59.8399 274.768 61.4899C268.458 64.2099 262.418 69.7299 266.268 77.5699C272.358 89.9699 298.268 88.7199 303.338 83.4199C308.408 78.1199 303.038 79.4199 308.238 74.5799C313.438 69.7399 318.948 56.0199 315.288 46.3499C313.248 40.9999 305.488 35.9999 297.488 37.7799Z" fill="#263238"/>
<path d="M308.788 65.92C308.668 66.4228 308.402 66.8788 308.023 67.2301C307.643 67.5813 307.169 67.8122 306.658 67.8932C306.148 67.9743 305.625 67.902 305.155 67.6855C304.686 67.469 304.292 67.1181 304.022 66.6771C303.752 66.2362 303.62 65.7251 303.641 65.2087C303.662 64.6923 303.836 64.1938 304.141 63.7764C304.446 63.359 304.868 63.0415 305.353 62.8641C305.838 62.6867 306.366 62.6575 306.868 62.78C307.538 62.9436 308.116 63.3657 308.475 63.954C308.835 64.5424 308.947 65.2492 308.788 65.92Z" fill="white"/>
<path d="M273.068 339.39L273.598 350.9H279.748L281.148 339.39H273.068Z" fill="#9E6141"/>
<path d="M296.798 359C296.798 355.25 295.278 354.13 293.218 354C291.158 353.87 283.678 351.34 283.678 351.34C283.678 351.34 282.308 348.96 280.948 348.47C279.588 347.98 278.078 349.41 278.078 349.41L274.258 348.94C274.258 348.94 273.258 347.23 272.328 348.73C270.868 351.06 270.388 357.49 270.328 359H296.798Z" fill="#1F28CF"/>
<path d="M296.399 358.06H291.599L270.599 357.95C270.329 357.95 270.419 357.55 270.689 357.56H272.109C272.109 357.56 272.109 357.56 272.109 357.5C272.449 357.099 272.698 356.629 272.838 356.123C272.979 355.616 273.007 355.085 272.921 354.566C272.836 354.048 272.638 353.554 272.342 353.119C272.047 352.685 271.66 352.32 271.209 352.05C270.999 351.93 271.299 351.58 271.499 351.71C273.399 352.89 274.039 355.24 272.499 357.55H275.499L296.499 357.66C296.759 357.67 296.659 358.07 296.399 358.06Z" fill="black"/>
<path d="M282.357 353C283.567 351.74 285.197 351.38 286.267 352.33C286.437 352.49 286.727 352.14 286.557 351.99C285.327 350.9 283.427 351.37 282.047 352.8C281.847 353.01 282.157 353.21 282.357 353Z" fill="white"/>
<path d="M284.487 353.67C285.697 352.41 287.327 352.05 288.397 353.01C288.567 353.16 288.857 352.81 288.687 352.66C287.457 351.57 285.557 352.04 284.187 353.47C283.987 353.68 284.287 353.88 284.487 353.67Z" fill="white"/>
<path d="M286.638 354.35C287.848 353.08 289.478 352.73 290.548 353.68C290.718 353.83 291.008 353.48 290.828 353.33C289.608 352.24 287.708 352.71 286.328 354.14C286.128 354.35 286.438 354.55 286.638 354.35Z" fill="white"/>
<path d="M303.149 149.09C303.149 149.09 302.639 168.43 300.759 195.6C300.389 200.86 299.969 206.43 299.499 212.21C298.499 224.21 297.259 237.11 295.709 250.21C291.959 281.76 281.489 342.1 281.489 342.1L271.959 342.31C271.959 342.31 262.569 288.31 272.849 250.94C272.199 244.48 271.669 238.42 271.259 232.72C269.989 217.228 269.655 201.673 270.259 186.14C270.259 185.2 270.349 184.28 270.399 183.38C270.489 181.88 270.599 180.43 270.709 179.04C270.879 176.77 271.099 174.65 271.319 172.68C273.469 154.29 277.319 148.99 277.319 148.99L303.149 149.09Z" fill="#263238"/>
<g opacity="0.2">
<path d="M300.758 195.6C300.388 200.86 299.968 206.43 299.498 212.21C289.888 204.44 276.888 190.51 270.398 183.38C270.488 181.88 270.598 180.43 270.708 179.04L300.758 195.6Z" fill="black"/>
</g>
<path d="M326.557 280.87L338.037 280.54C344.167 251.02 361.167 194.8 352.307 186.24C321.227 156.19 262.487 142 262.487 142C255.397 143.41 250.277 145.61 248.717 152.42C247.107 159.42 248.097 168.89 256.627 174.89C261.837 178.56 268.357 180.99 281.437 187C294.212 193.059 307.422 198.153 320.957 202.24C326.287 203.87 328.067 204.4 330.957 205.24C324.937 227 326.487 272.41 326.557 280.87Z" fill="#263238"/>
<path d="M328.199 280.14L328.059 291.05H334.199L336.289 280.14H328.199Z" fill="#9E6141"/>
<path d="M339.619 283.6L340.399 279.53H325.539L325.469 283.6H339.619Z" fill="#263238"/>
<path d="M351.257 299.2C351.257 295.44 349.727 294.32 347.677 294.2C345.627 294.08 338.127 291.53 338.127 291.53C338.127 291.53 336.767 289.15 335.397 288.67C334.027 288.19 332.537 289.6 332.537 289.6L328.717 289.14C328.717 289.14 327.717 287.42 326.787 288.92C325.327 291.25 324.847 297.69 324.787 299.2H351.257Z" fill="#1F28CF"/>
<path d="M350.858 298.21H346.058L325.058 298.11C324.788 298.11 324.878 297.7 325.148 297.71H326.568C326.561 297.69 326.561 297.669 326.568 297.65C326.908 297.249 327.157 296.779 327.297 296.273C327.438 295.766 327.466 295.235 327.38 294.716C327.295 294.198 327.097 293.704 326.801 293.269C326.506 292.835 326.119 292.47 325.668 292.2C325.458 292.08 325.758 291.73 325.958 291.86C327.848 293.04 328.498 295.39 326.958 297.71H329.958L350.958 297.82C351.218 297.82 351.118 298.22 350.858 298.21Z" fill="black"/>
<path d="M336.818 293.16C338.028 291.89 339.658 291.53 340.728 292.49C340.898 292.64 341.188 292.29 341.008 292.14C339.788 291.05 337.888 291.52 336.508 292.95C336.308 293.16 336.618 293.36 336.818 293.16Z" fill="white"/>
<path d="M338.919 293.83C340.129 292.56 341.759 292.21 342.829 293.16C342.999 293.31 343.289 292.97 343.119 292.81C341.889 291.72 339.989 292.2 338.619 293.63C338.409 293.84 338.719 294.03 338.919 293.83Z" fill="white"/>
<path d="M341.089 294.5C342.309 293.24 343.939 292.88 345.009 293.83C345.179 293.98 345.459 293.64 345.289 293.49C344.069 292.39 342.169 292.87 340.789 294.3C340.589 294.51 340.889 294.71 341.089 294.5Z" fill="white"/>
<path d="M282.218 344.33L283.148 340.27H270.488L270.578 344.33H282.218Z" fill="#263238"/>
<path d="M248.707 148.16C268.147 157.31 302.867 159.28 303.567 154.66C305.567 141.66 303.117 126.45 305.657 118.12C316.347 112.62 309.717 105.67 312.067 95.88C312.922 92.2917 312.36 88.5119 310.497 85.3281C308.634 82.1444 305.614 79.8023 302.067 78.79C300.367 78.29 298.597 77.79 296.857 77.33L295.797 77.07C291.118 75.9593 286.371 75.1575 281.587 74.67C279.847 74.46 278.027 74.27 276.137 74.06C274.247 73.85 272.387 73.72 270.627 73.64C269.072 73.555 267.516 73.7902 266.055 74.3309C264.595 74.8716 263.261 75.7063 262.136 76.7834C261.011 77.8605 260.119 79.157 259.516 80.5927C258.912 82.0284 258.61 83.5727 258.627 85.13C258.878 94.019 258.544 102.915 257.627 111.76C257.437 113.59 257.227 115.35 256.987 117.07C256.188 123.142 254.989 129.156 253.397 135.07C253.374 135.182 253.344 135.292 253.307 135.4C252.64 137.747 251.947 139.903 251.227 141.87C251.007 142.49 250.777 143.08 250.537 143.65C250.067 144.83 249.237 147 248.707 148.16Z" fill="#1F28CF"/>
<g opacity="0.3">
<path d="M248.707 148.16C268.147 157.31 302.867 159.28 303.567 154.66C305.567 141.66 303.117 126.45 305.657 118.12C316.347 112.62 309.717 105.67 312.067 95.88C312.922 92.2917 312.36 88.5119 310.497 85.3281C308.634 82.1444 305.614 79.8023 302.067 78.79C300.367 78.29 298.597 77.79 296.857 77.33L295.797 77.07C291.118 75.9593 286.371 75.1575 281.587 74.67C279.847 74.46 278.027 74.27 276.137 74.06C274.247 73.85 272.387 73.72 270.627 73.64C269.072 73.555 267.516 73.7902 266.055 74.3309C264.595 74.8716 263.261 75.7063 262.136 76.7834C261.011 77.8605 260.119 79.157 259.516 80.5927C258.912 82.0284 258.61 83.5727 258.627 85.13C258.878 94.019 258.544 102.915 257.627 111.76C257.437 113.59 257.227 115.35 256.987 117.07C256.188 123.142 254.989 129.156 253.397 135.07C253.374 135.182 253.344 135.292 253.307 135.4C252.64 137.747 251.947 139.903 251.227 141.87C251.007 142.49 250.777 143.08 250.537 143.65C250.067 144.83 249.237 147 248.707 148.16Z" fill="white"/>
</g>
<path d="M247.809 89.0498C247.809 89.0498 256.179 73.3298 267.449 73.9298C274.649 74.3098 273.649 89.7498 265.639 101.35C258.179 98.3698 252.609 94.7898 247.809 89.0498Z" fill="#1F28CF"/>
<g opacity="0.5">
<path d="M247.809 89.0498C247.809 89.0498 256.179 73.3298 267.449 73.9298C274.649 74.3098 273.649 89.7498 265.639 101.35C258.179 98.3698 252.609 94.7898 247.809 89.0498Z" fill="white"/>
</g>
<path d="M281.639 74.6699C285.449 83.7699 296.229 90.2499 296.229 90.2499C298.229 86.6199 298.489 80.4399 296.919 77.3399L295.859 77.0799C291.177 75.9635 286.427 75.1584 281.639 74.6699Z" fill="#9E6141"/>
<path d="M296.748 79.8899C296.77 80.0325 296.813 80.1708 296.878 80.2999C298.208 83.0999 296.128 85.2999 293.318 84.7099C293.046 84.6599 292.779 84.5897 292.518 84.4999C291.52 84.1692 290.65 83.5367 290.028 82.6899C288.129 80.0859 286.033 77.632 283.758 75.3499C288.298 73.5799 290.838 65.6599 291.848 60.6399L297.438 69.8599L298.438 71.8599C297.706 72.8091 297.091 73.8432 296.608 74.9399C296.225 75.7136 296.037 76.5693 296.062 77.4323C296.086 78.2953 296.322 79.1391 296.748 79.8899Z" fill="#9E6141"/>
<g opacity="0.2">
<path d="M296.627 74.9199C297.111 73.8233 297.725 72.7891 298.457 71.8399L297.457 69.8399L293.287 69.4299C293.758 71.5807 294.934 73.5127 296.627 74.9199Z" fill="black"/>
</g>
<path d="M291.729 51.4499C290.059 59.6999 289.179 63.1499 292.089 68.3899C296.469 76.2699 306.769 76.4499 310.829 68.8599C314.479 62.0199 316.599 49.6799 309.669 44.3799C302.739 39.0799 293.399 43.1999 291.729 51.4499Z" fill="#9E6141"/>
<path d="M305.197 42.1499C305.197 42.1499 307.617 50.7499 312.497 51.6099C317.377 52.4699 314.117 45.6099 309.567 42.2699C307.597 40.8099 305.197 42.1499 305.197 42.1499Z" fill="#263238"/>
<path d="M302.869 53.9999C302.922 54.0242 302.98 54.0368 303.039 54.0368C303.097 54.0368 303.155 54.0242 303.209 53.9999C303.666 53.7103 304.184 53.5323 304.723 53.4802C305.261 53.4281 305.805 53.5033 306.309 53.6999C306.36 53.7267 306.417 53.7427 306.475 53.7471C306.533 53.7514 306.591 53.7439 306.646 53.7251C306.701 53.7063 306.752 53.6765 306.795 53.6375C306.838 53.5986 306.873 53.5513 306.897 53.4985C306.922 53.4457 306.935 53.3885 306.937 53.3303C306.938 53.2722 306.928 53.2144 306.907 53.1603C306.885 53.1062 306.853 53.057 306.812 53.0157C306.771 52.9744 306.722 52.9418 306.669 52.9199C306.034 52.6628 305.348 52.5605 304.666 52.6213C303.985 52.6822 303.327 52.9045 302.749 53.2699C302.699 53.2975 302.655 53.3353 302.62 53.3808C302.586 53.4262 302.561 53.4784 302.548 53.5339C302.535 53.5895 302.534 53.6472 302.544 53.7033C302.554 53.7594 302.576 53.8127 302.609 53.8599C302.671 53.9507 302.763 54.0177 302.869 54.0499" fill="#263238"/>
<path d="M313.847 56.3698C313.895 56.3815 313.944 56.3831 313.993 56.3745C314.041 56.3659 314.087 56.3473 314.127 56.3198C314.171 56.2941 314.21 56.2598 314.24 56.219C314.27 56.1782 314.292 56.1317 314.305 56.0823C314.317 56.0329 314.319 55.9815 314.311 55.9313C314.302 55.881 314.284 55.8329 314.257 55.7898C313.945 55.2587 313.509 54.8106 312.987 54.4834C312.465 54.1562 311.872 53.9595 311.257 53.9098C311.207 53.9085 311.156 53.9173 311.109 53.9358C311.062 53.9543 311.018 53.9821 310.982 54.0175C310.946 54.0529 310.917 54.0953 310.897 54.142C310.877 54.1888 310.867 54.239 310.867 54.2898C310.866 54.3405 310.875 54.391 310.893 54.4383C310.912 54.4856 310.94 54.5286 310.975 54.565C311.01 54.6013 311.053 54.6302 311.1 54.6499C311.146 54.6697 311.197 54.6798 311.247 54.6798C311.731 54.7304 312.196 54.8944 312.604 55.1585C313.013 55.4226 313.353 55.7794 313.597 56.1998C313.626 56.2433 313.662 56.2808 313.705 56.31C313.748 56.3392 313.796 56.3595 313.847 56.3698Z" fill="#263238"/>
<path d="M289.248 50.0699C289.248 50.0699 286.148 55.3099 290.048 56.7399C293.948 58.1699 296.228 55.4999 296.198 53.1599C296.168 50.8199 295.468 48.3499 301.198 49.4999C306.288 50.4999 309.438 39.9299 302.668 40.0999C298.488 40.1999 290.798 42.7699 289.248 50.0699Z" fill="#263238"/>
<path d="M307.598 66.3999C307.598 66.3999 303.768 64.07 303.088 62.2C303.088 62.2 302.088 65.2799 304.088 66.7099C304.603 67.1128 305.252 67.3049 305.904 67.2474C306.556 67.1898 307.161 66.887 307.598 66.3999Z" fill="white"/>
<path d="M304.608 57.5299C304.428 58.1899 304.608 58.8199 305.068 58.9399C305.528 59.0599 305.998 58.6099 306.178 57.9399C306.358 57.2699 306.178 56.6499 305.708 56.5299C305.238 56.4099 304.788 56.8599 304.608 57.5299Z" fill="#263238"/>
<path d="M311.227 59.49C311.047 60.15 311.227 60.78 311.687 60.89C312.147 61 312.607 60.56 312.787 59.89C312.967 59.22 312.787 58.6 312.327 58.49C311.867 58.38 311.397 58.82 311.227 59.49Z" fill="#263238"/>
<path d="M312.129 58.48H313.839C313.839 58.48 312.689 59.48 312.129 58.48Z" fill="#263238"/>
<path d="M308.698 58.26C308.698 58.26 309.368 60.32 310.198 62.17C310.268 62.3091 310.303 62.4625 310.303 62.6179C310.303 62.7732 310.266 62.9264 310.196 63.0652C310.126 63.204 310.025 63.3246 309.9 63.4174C309.776 63.5103 309.631 63.5728 309.478 63.6C308.74 63.7339 307.988 63.7842 307.238 63.75L308.698 58.26Z" fill="#7A4224"/>
<path d="M287.348 56.2999C287.466 57.0567 287.744 57.7796 288.163 58.4209C288.582 59.0622 289.132 59.6072 289.778 60.0199C291.448 61.0199 292.868 59.2599 292.898 57.1199C292.898 55.1899 292.088 52.3599 290.178 52.2699C288.268 52.1799 286.988 54.2699 287.348 56.2699" fill="#9E6141"/>
<path d="M290.738 59.8299C290.738 60.0297 290.678 60.2249 290.566 60.3903C290.453 60.5556 290.294 60.6836 290.109 60.7576C289.923 60.8315 289.719 60.8482 289.524 60.8054C289.329 60.7626 289.151 60.6623 289.013 60.5174C288.876 60.3725 288.785 60.1896 288.752 59.9925C288.719 59.7953 288.746 59.5929 288.83 59.4113C288.913 59.2296 289.049 59.0772 289.22 58.9735C289.391 58.8699 289.589 58.8199 289.788 58.8299C290.045 58.8427 290.286 58.9537 290.463 59.1399C290.64 59.326 290.739 59.5731 290.738 59.8299Z" fill="white"/>
<path d="M305.488 56.53H307.198C307.198 56.53 306.058 57.53 305.488 56.53Z" fill="#263238"/>
<path d="M407.008 203.73L438.268 209.52L419.558 183.81L407.008 203.73Z" fill="#1F28CF"/>
<g opacity="0.6">
<path d="M419.558 183.81L432.838 202.06L438.268 209.52L429.298 207.87L406.998 203.73L419.558 183.81Z" fill="white"/>
</g>
<path d="M432.838 202.06L438.268 209.52L429.268 207.87C430.311 205.847 431.504 203.905 432.838 202.06Z" fill="#263238"/>
<path d="M221.349 58.8799L419.559 183.81L424.569 190.7L415.369 190.45L419.949 198.18L411.189 197.09L414.829 205.18L406.999 203.73L208.799 78.7899L221.349 58.8799Z" fill="#1F28CF"/>
<path d="M221.351 58.8596L208.795 78.7831L218.499 84.8985L231.055 64.9751L221.351 58.8596Z" fill="#263238"/>
<path d="M202.517 63.8117L205.135 59.6578C206.453 57.5666 208.547 56.0846 210.958 55.5378C213.369 54.991 215.898 55.4242 217.989 56.7421L221.373 58.8748L208.817 78.7983L205.433 76.6656C203.341 75.3477 201.859 73.253 201.313 70.8425C200.766 68.4319 201.199 65.9028 202.517 63.8117Z" fill="#1F28CF"/>
<g opacity="0.6">
<path d="M202.517 63.8119L205.135 59.658C206.453 57.5668 208.547 56.0848 210.958 55.538C213.369 54.9913 215.898 55.4245 217.989 56.7424L221.373 58.8751L208.817 78.7985L205.433 76.6658C203.341 75.3479 201.859 73.2533 201.313 70.8427C200.766 68.4321 201.199 65.9031 202.517 63.8119Z" fill="white"/>
</g>
<path d="M411.058 197C411.015 197.065 410.949 197.112 410.873 197.13C410.797 197.149 410.717 197.138 410.648 197.1L222.488 78.5299C222.421 78.4862 222.373 78.4173 222.356 78.3386C222.339 78.2598 222.355 78.1776 222.398 78.1099C222.442 78.0423 222.511 77.9948 222.59 77.9779C222.668 77.9611 222.751 77.9762 222.818 78.0199L410.968 196.6C411.033 196.641 411.079 196.706 411.096 196.781C411.113 196.856 411.099 196.935 411.058 197Z" fill="#263238"/>
<path d="M415.249 190.37C415.204 190.436 415.136 190.483 415.058 190.501C414.98 190.52 414.899 190.509 414.829 190.47L226.709 71.8899C226.642 71.845 226.596 71.7763 226.579 71.698C226.562 71.6197 226.577 71.5379 226.619 71.4699C226.639 71.4363 226.666 71.4072 226.698 71.3844C226.73 71.3616 226.766 71.3455 226.804 71.3371C226.843 71.3287 226.882 71.3281 226.921 71.3355C226.959 71.3428 226.996 71.3579 227.029 71.3799L415.149 190C415.208 190.039 415.25 190.098 415.269 190.166C415.287 190.234 415.28 190.307 415.249 190.37Z" fill="#263238"/>
<path d="M289.147 126.29C288.147 126.76 287.197 127.19 286.237 127.6C285.677 127.85 285.127 128.08 284.567 128.31C283.037 128.95 281.497 129.57 279.937 130.14C276.837 131.3 273.677 132.33 270.447 133.26C267.157 134.202 263.819 134.97 260.447 135.56C258.717 135.87 256.957 136.08 255.107 136.23C253.362 136.393 251.606 136.409 249.857 136.28L249.207 136.23C248.379 136.14 247.571 135.914 246.817 135.56C245.857 135.104 244.999 134.458 244.297 133.66C243.528 132.766 242.956 131.72 242.617 130.59C242.319 129.616 242.148 128.608 242.107 127.59C242.06 126.422 242.1 125.252 242.227 124.09C242.407 122.244 242.68 120.408 243.047 118.59C243.717 115.12 244.497 111.82 245.357 108.59C245.867 106.67 246.357 104.77 246.957 102.87L259.747 110.93C259.597 111.41 259.467 111.93 259.337 112.38C258.497 115.45 257.657 118.51 257.007 121.48C256.907 121.94 256.807 122.4 256.717 122.85C257.477 122.85 258.257 122.85 259.037 122.8C262.037 122.69 265.037 122.39 268.177 122.06C270.727 121.78 273.297 121.45 275.877 121.06L277.547 120.83L286.987 119.48L289.147 126.29Z" fill="#9E6141"/>
<path d="M286.238 119.62C286.238 119.62 294.448 117.03 296.238 117.33C298.188 117.67 297.618 127.94 295.148 129.43C292.678 130.92 286.748 126.43 286.748 126.43L286.238 119.62Z" fill="#9E6141"/>
<path d="M286.248 119.71C287.205 118.507 288.413 117.528 289.788 116.84C291.618 116.13 293.278 114.97 294.138 115.27C294.998 115.57 291.968 118.36 291.968 118.36L286.248 119.71Z" fill="#9E6141"/>
<path d="M296.198 117.33C296.198 117.33 301.288 118.6 302.958 120.63C304.628 122.66 300.068 121.55 300.068 121.55C300.068 121.55 305.398 123.29 303.358 127.38C302.358 129.38 296.298 129.98 293.498 129.7C293.488 129.7 293.298 121.15 296.198 117.33Z" fill="#9E6141"/>
<path d="M343.917 133.72C343.917 133.72 343.777 133.03 341.857 132.58C340.556 132.221 339.195 132.133 337.857 132.32L342.507 135.32C342.507 135.32 341.997 139.41 344.197 141.24C348.617 144.92 352.027 142.73 352.977 141.94C353.927 141.15 352.347 137.6 349.567 135.54C347.937 134.325 345.95 133.685 343.917 133.72Z" fill="#9E6141"/>
<path d="M491.025 385.772H430.754L435.31 341.898L491.025 341.535V385.772Z" fill="#FF725E"/>
<g opacity="0.4">
<path d="M491.025 385.772H430.754L435.31 341.897L491.025 341.535V385.772Z" fill="black"/>
</g>
<path d="M499.814 341.535H439.543V385.764H499.814V341.535Z" fill="#FF725E"/>
<g opacity="0.2">
<path d="M499.814 341.535H439.543V385.764H499.814V341.535Z" fill="black"/>
</g>
<path d="M500.318 362.951C500.318 363.062 486.76 363.156 470.041 363.156C453.322 363.156 439.748 363.062 439.748 362.951C439.748 362.841 453.306 362.739 470.041 362.739C486.776 362.739 500.318 362.833 500.318 362.951Z" fill="#263238"/>
<path d="M450.279 367.209C450.006 365.007 450.006 362.781 450.279 360.579C450.552 362.781 450.552 365.007 450.279 367.209Z" fill="#263238"/>
<path d="M492.183 366.972C491.91 365.008 491.91 363.016 492.183 361.052C492.457 363.016 492.457 365.008 492.183 366.972Z" fill="#263238"/>
<path d="M478.908 341.763C478.908 341.763 478.908 341.282 478.767 340.454C478.556 339.281 478.1 338.166 477.426 337.183C476.433 335.723 475.055 334.567 473.446 333.841C471.462 332.968 469.305 332.561 467.14 332.651C464.961 332.668 462.812 333.149 460.834 334.062C459.232 334.81 457.846 335.952 456.805 337.38C456.108 338.345 455.607 339.438 455.331 340.596C455.142 341.424 455.134 341.897 455.095 341.897C455.083 341.782 455.083 341.665 455.095 341.55C455.096 341.219 455.128 340.89 455.19 340.565C455.411 339.361 455.886 338.219 456.585 337.215C457.624 335.714 459.037 334.51 460.684 333.723C462.693 332.77 464.885 332.264 467.108 332.241C469.334 332.149 471.551 332.581 473.58 333.502C475.237 334.272 476.644 335.493 477.639 337.025C478.314 338.049 478.743 339.214 478.893 340.431C478.922 340.759 478.922 341.088 478.893 341.416C478.918 341.53 478.923 341.647 478.908 341.763Z" fill="#263238"/>
</g>
<path d="M173.488 419H181.488C185.907 419 189.488 422.582 189.488 427V434C189.488 438.418 185.907 442 181.488 442H173.488C169.07 442 165.488 438.418 165.488 434V427C165.488 422.582 169.07 419 173.488 419Z" fill="#29329C"/>
<mask id="mask2_5300_8669" style="mask-type:luminance" maskUnits="userSpaceOnUse" x="173" y="424" width="13" height="12">
<path d="M173.488 424H185.488V436H173.488V424Z" fill="white"/>
</mask>
<g mask="url(#mask2_5300_8669)">
<path fill-rule="evenodd" clip-rule="evenodd" d="M179.45 426.691C179.425 426.752 179.388 426.807 179.342 426.854L176.195 430L179.342 433.146C179.388 433.192 179.425 433.248 179.45 433.308C179.475 433.369 179.488 433.434 179.488 433.5C179.488 433.566 179.475 433.631 179.45 433.691C179.425 433.752 179.388 433.807 179.342 433.854C179.295 433.9 179.24 433.937 179.179 433.962C179.118 433.988 179.053 434.001 178.988 434.001C178.922 434.001 178.857 433.988 178.796 433.962C178.735 433.937 178.68 433.9 178.634 433.854L175.134 430.354C175.087 430.307 175.05 430.252 175.025 430.192C175 430.131 174.987 430.066 174.987 430C174.987 429.934 175 429.869 175.025 429.808C175.05 429.748 175.087 429.692 175.134 429.646L178.634 426.146C178.68 426.099 178.735 426.063 178.796 426.037C178.857 426.012 178.922 425.999 178.988 425.999C179.053 425.999 179.118 426.012 179.179 426.037C179.24 426.063 179.295 426.099 179.342 426.146C179.388 426.192 179.425 426.248 179.45 426.308C179.475 426.369 179.488 426.434 179.488 426.5C179.488 426.566 179.475 426.631 179.45 426.691ZM172.793 426.854C172.74 427.346 172.654 428.046 172.557 428.802L172.013 433.295C172.068 433.427 172.25 433.609 172.841 433.853C172.249 433.741 172.372 433.855 172.459 433.935C172.497 433.971 172.528 434 172.488 434C172.355 434 172.228 433.947 172.134 433.853C172.04 433.76 171.988 433.633 171.988 433.5L172.013 433.295C171.988 433.236 171.988 433.187 171.988 433.146C171.988 433.107 172.067 432.511 172.178 431.682C172.289 430.848 172.432 429.779 172.557 428.802L172.793 426.854ZM172.134 426.146C172.377 426.146 172.53 426.214 172.628 426.308C172.59 426.308 172.574 426.308 172.558 426.305C172.52 426.295 172.487 426.262 172.134 426.146Z" fill="white"/>
</g>
<path d="M223.803 430.831C224.224 430.909 224.607 431.111 224.95 431.435C225.305 431.759 225.582 432.163 225.781 432.643C225.992 433.123 226.097 433.636 226.097 434.182C226.097 434.871 225.947 435.494 225.648 436.052C225.349 436.597 224.912 437.033 224.335 437.357C223.769 437.669 223.099 437.825 222.323 437.825H218V424.247H222.157C222.944 424.247 223.615 424.403 224.168 424.714C224.723 425.013 225.139 425.423 225.415 425.942C225.693 426.461 225.831 427.045 225.831 427.695C225.831 428.5 225.643 429.168 225.266 429.701C224.9 430.22 224.413 430.597 223.803 430.831ZM219.513 430.11H222.057C222.767 430.11 223.316 429.916 223.703 429.526C224.091 429.136 224.285 428.598 224.285 427.909C224.285 427.22 224.091 426.682 223.703 426.292C223.316 425.903 222.755 425.708 222.024 425.708H219.513V430.11ZM222.19 436.364C222.944 436.364 223.532 436.156 223.952 435.74C224.374 435.324 224.584 434.747 224.584 434.006C224.584 433.254 224.363 432.662 223.919 432.234C223.476 431.793 222.883 431.571 222.14 431.571H219.513V436.364H222.19ZM236.277 427.149V437.825H234.764V436.247C234.477 436.792 234.072 437.221 233.55 437.532C233.041 437.832 232.475 437.981 231.854 437.981C231.145 437.981 230.508 437.812 229.942 437.474C229.377 437.123 228.928 436.604 228.596 435.916C228.275 435.227 228.113 434.389 228.113 433.403V427.149H229.61V433.169C229.61 434.221 229.838 435.032 230.291 435.604C230.746 436.162 231.367 436.442 232.154 436.442C232.964 436.442 233.6 436.149 234.066 435.565C234.531 434.981 234.764 434.13 234.764 433.013V427.149H236.277ZM239.613 425.416C239.325 425.416 239.081 425.299 238.881 425.065C238.682 424.831 238.582 424.546 238.582 424.208C238.582 423.87 238.682 423.584 238.881 423.351C239.081 423.117 239.325 423 239.613 423C239.891 423 240.123 423.117 240.311 423.351C240.511 423.584 240.61 423.87 240.61 424.208C240.61 424.546 240.511 424.831 240.311 425.065C240.123 425.299 239.891 425.416 239.613 425.416ZM240.344 427.149V437.825H238.831V427.149H240.344ZM244.437 423.409V437.825H242.924V423.409H244.437ZM246.45 432.448C246.45 431.357 246.639 430.403 247.015 429.584C247.391 428.754 247.907 428.111 248.561 427.656C249.226 427.201 249.969 426.974 250.789 426.974C251.498 426.974 252.158 427.169 252.768 427.558C253.377 427.936 253.842 428.435 254.164 429.058V423.409H255.694V437.825H254.164V435.818C253.865 436.454 253.422 436.98 252.834 437.396C252.246 437.798 251.56 438 250.773 438C249.964 438 249.226 437.766 248.561 437.299C247.907 436.831 247.391 436.176 247.015 435.331C246.639 434.487 246.45 433.526 246.45 432.448ZM254.164 432.468C254.164 431.662 254.025 430.961 253.749 430.364C253.472 429.767 253.094 429.312 252.618 429C252.153 428.676 251.637 428.513 251.072 428.513C250.507 428.513 249.991 428.669 249.526 428.981C249.06 429.292 248.688 429.747 248.412 430.344C248.135 430.941 247.996 431.642 247.996 432.448C247.996 433.266 248.135 433.98 248.412 434.591C248.688 435.188 249.06 435.65 249.526 435.974C249.991 436.286 250.507 436.442 251.072 436.442C251.637 436.442 252.153 436.286 252.618 435.974C253.094 435.65 253.472 435.188 253.749 434.591C254.025 433.98 254.164 433.273 254.164 432.468ZM270.796 424.247L267.022 432.701V437.825H265.509V432.701L261.719 424.247H263.398L266.257 431.123L269.117 424.247H270.796ZM276.366 438C275.512 438 274.737 437.773 274.039 437.318C273.351 436.863 272.808 436.22 272.409 435.39C272.021 434.545 271.827 433.571 271.827 432.468C271.827 431.377 272.027 430.415 272.426 429.584C272.835 428.74 273.39 428.097 274.088 427.656C274.787 427.201 275.568 426.974 276.433 426.974C277.297 426.974 278.079 427.201 278.777 427.656C279.475 428.097 280.024 428.734 280.423 429.565C280.833 430.396 281.038 431.364 281.038 432.468C281.038 433.571 280.828 434.545 280.406 435.39C279.997 436.22 279.436 436.863 278.727 437.318C278.018 437.773 277.231 438 276.366 438ZM276.366 436.442C276.909 436.442 277.42 436.293 277.896 435.993C278.372 435.694 278.754 435.246 279.043 434.649C279.342 434.052 279.492 433.325 279.492 432.468C279.492 431.61 279.348 430.883 279.06 430.286C278.771 429.689 278.395 429.246 277.929 428.961C277.463 428.662 276.959 428.513 276.416 428.513C275.861 428.513 275.352 428.662 274.886 428.961C274.432 429.246 274.066 429.689 273.789 430.286C273.512 430.883 273.373 431.61 273.373 432.468C273.373 433.337 273.506 434.072 273.772 434.669C274.049 435.266 274.415 435.714 274.87 436.013C275.325 436.298 275.823 436.442 276.366 436.442ZM291.108 427.149V437.825H289.595V436.247C289.306 436.792 288.902 437.221 288.381 437.532C287.871 437.832 287.306 437.981 286.685 437.981C285.976 437.981 285.338 437.812 284.773 437.474C284.208 437.123 283.759 436.604 283.426 435.916C283.105 435.227 282.944 434.389 282.944 433.403V427.149H284.441V433.169C284.441 434.221 284.667 435.032 285.122 435.604C285.577 436.162 286.197 436.442 286.984 436.442C287.793 436.442 288.431 436.149 288.896 435.565C289.362 434.981 289.595 434.13 289.595 433.013V427.149H291.108ZM295.175 428.883C295.441 428.272 295.819 427.799 296.306 427.461C296.804 427.123 297.409 426.955 298.118 426.955V428.786H297.719C296.023 428.786 295.175 429.864 295.175 432.019V437.825H293.662V427.149H295.175V428.883ZM310.848 424.247V425.688H305.81V430.266H309.9V431.708H305.81V437.825H304.297V424.247H310.848ZM320.756 427.149V437.825H319.243V436.247C318.954 436.792 318.55 437.221 318.029 437.532C317.52 437.832 316.954 437.981 316.333 437.981C315.624 437.981 314.986 437.812 314.421 437.474C313.856 437.123 313.407 436.604 313.074 435.916C312.753 435.227 312.592 434.389 312.592 433.403V427.149H314.089V433.169C314.089 434.221 314.315 435.032 314.77 435.604C315.225 436.162 315.845 436.442 316.632 436.442C317.441 436.442 318.079 436.149 318.544 435.565C319.01 434.981 319.243 434.13 319.243 433.013V427.149H320.756ZM325.156 428.61V434.903C325.156 435.422 325.249 435.792 325.438 436.013C325.627 436.22 325.954 436.325 326.419 436.325H327.533V437.825H326.17C325.328 437.825 324.696 437.598 324.274 437.143C323.853 436.688 323.643 435.942 323.643 434.903V428.61H322.462V427.149H323.643V424.461H325.156V427.149H327.533V428.61H325.156ZM337.447 427.149V437.825H335.934V436.247C335.646 436.792 335.241 437.221 334.72 437.532C334.21 437.832 333.645 437.981 333.025 437.981C332.314 437.981 331.678 437.812 331.113 437.474C330.547 437.123 330.098 436.604 329.766 435.916C329.444 435.227 329.284 434.389 329.284 433.403V427.149H330.78V433.169C330.78 434.221 331.007 435.032 331.462 435.604C331.915 436.162 332.537 436.442 333.324 436.442C334.133 436.442 334.77 436.149 335.236 435.565C335.701 434.981 335.934 434.13 335.934 433.013V427.149H337.447ZM341.515 428.883C341.781 428.272 342.157 427.799 342.645 427.461C343.144 427.123 343.747 426.955 344.457 426.955V428.786H344.058C342.363 428.786 341.515 429.864 341.515 432.019V437.825H340.002V427.149H341.515V428.883ZM354.516 432.078C354.516 432.416 354.5 432.772 354.466 433.149H347.184C347.24 434.201 347.545 435.026 348.099 435.623C348.664 436.208 349.346 436.5 350.144 436.5C350.798 436.5 351.341 436.325 351.773 435.974C352.217 435.611 352.527 435.129 352.704 434.532H354.333C354.09 435.558 353.602 436.396 352.87 437.045C352.139 437.681 351.23 438 350.144 438C349.279 438 348.504 437.773 347.816 437.318C347.14 436.863 346.608 436.22 346.22 435.39C345.833 434.545 345.638 433.571 345.638 432.468C345.638 431.364 345.827 430.396 346.203 429.565C346.581 428.734 347.107 428.097 347.783 427.656C348.47 427.201 349.258 426.974 350.144 426.974C351.008 426.974 351.773 427.195 352.438 427.636C353.103 428.077 353.614 428.688 353.968 429.468C354.333 430.234 354.516 431.104 354.516 432.078ZM352.953 431.708C352.953 431.033 352.826 430.454 352.571 429.974C352.317 429.48 351.968 429.11 351.524 428.864C351.091 428.603 350.609 428.474 350.077 428.474C349.312 428.474 348.659 428.759 348.115 429.331C347.583 429.903 347.279 430.695 347.201 431.708H352.953ZM373.083 427.149L370.24 437.825H368.677L366.482 429.351L364.288 437.825H362.725L359.865 427.149H361.411L363.506 436.11L365.767 427.149H367.314L369.525 436.13L371.587 427.149H373.083ZM375.367 425.416C375.078 425.416 374.835 425.299 374.635 425.065C374.436 424.831 374.336 424.546 374.336 424.208C374.336 423.87 374.436 423.584 374.635 423.351C374.835 423.117 375.078 423 375.367 423C375.643 423 375.876 423.117 376.065 423.351C376.265 423.584 376.364 423.87 376.364 424.208C376.364 424.546 376.265 424.831 376.065 425.065C375.876 425.299 375.643 425.416 375.367 425.416ZM376.098 427.149V437.825H374.585V427.149H376.098ZM380.522 428.61V434.903C380.522 435.422 380.616 435.792 380.805 436.013C380.993 436.22 381.32 436.325 381.786 436.325H382.9V437.825H381.536C380.694 437.825 380.062 437.598 379.641 437.143C379.219 436.688 379.009 435.942 379.009 434.903V428.61H377.829V427.149H379.009V424.461H380.522V427.149H382.9V428.61H380.522ZM389.255 426.955C389.942 426.955 390.563 427.13 391.118 427.481C391.671 427.819 392.103 428.331 392.414 429.019C392.735 429.708 392.897 430.546 392.897 431.532V437.825H391.4V431.786C391.4 430.721 391.172 429.909 390.719 429.351C390.264 428.779 389.643 428.494 388.856 428.494C388.058 428.494 387.421 428.786 386.944 429.37C386.479 429.955 386.246 430.805 386.246 431.922V437.825H384.733V423.409H386.246V428.669C386.545 428.123 386.955 427.702 387.477 427.403C388.009 427.103 388.601 426.955 389.255 426.955ZM407.88 427.149V437.825H406.367V436.247C406.08 436.792 405.675 437.221 405.154 437.532C404.644 437.832 404.079 437.981 403.458 437.981C402.749 437.981 402.111 437.812 401.546 437.474C400.981 437.123 400.532 436.604 400.199 435.916C399.878 435.227 399.717 434.389 399.717 433.403V427.149H401.213V433.169C401.213 434.221 401.441 435.032 401.895 435.604C402.35 436.162 402.971 436.442 403.757 436.442C404.567 436.442 405.204 436.149 405.669 435.565C406.135 434.981 406.367 434.13 406.367 433.013V427.149H407.88ZM413.66 438C412.962 438 412.336 437.864 411.782 437.591C411.228 437.306 410.79 436.916 410.468 436.422C410.147 435.916 409.969 435.338 409.936 434.688H411.499C411.544 435.221 411.754 435.655 412.131 435.993C412.519 436.332 413.024 436.5 413.644 436.5C414.221 436.5 414.675 436.351 415.007 436.052C415.34 435.753 415.506 435.377 415.506 434.922C415.506 434.455 415.329 434.111 414.974 433.89C414.62 433.656 414.071 433.429 413.328 433.208C412.652 433 412.097 432.792 411.665 432.584C411.245 432.363 410.879 432.046 410.568 431.63C410.269 431.201 410.119 430.643 410.119 429.955C410.119 429.409 410.258 428.91 410.535 428.455C410.813 428 411.206 427.643 411.715 427.383C412.226 427.11 412.808 426.974 413.461 426.974C414.47 426.974 415.285 427.273 415.905 427.87C416.526 428.467 416.858 429.285 416.902 430.325H415.389C415.356 429.767 415.163 429.319 414.808 428.981C414.464 428.642 413.999 428.474 413.411 428.474C412.868 428.474 412.436 428.61 412.114 428.883C411.793 429.156 411.632 429.513 411.632 429.955C411.632 430.305 411.727 430.597 411.915 430.831C412.114 431.052 412.359 431.233 412.646 431.377C412.945 431.506 413.356 431.656 413.876 431.825C414.531 432.032 415.063 432.241 415.473 432.448C415.883 432.643 416.233 432.942 416.52 433.344C416.819 433.746 416.975 434.272 416.986 434.922C416.986 435.506 416.848 436.032 416.57 436.5C416.293 436.968 415.9 437.338 415.389 437.61C414.891 437.871 414.315 438 413.66 438ZM421.084 424.247L420.901 433.987H419.637L419.455 424.247H421.084ZM420.336 437.942C420.047 437.942 419.804 437.825 419.604 437.591C419.405 437.357 419.305 437.072 419.305 436.734C419.305 436.396 419.405 436.11 419.604 435.877C419.804 435.643 420.047 435.526 420.336 435.526C420.612 435.526 420.845 435.643 421.034 435.877C421.234 436.11 421.333 436.396 421.333 436.734C421.333 437.072 421.234 437.357 421.034 437.591C420.845 437.825 420.612 437.942 420.336 437.942Z" fill="#4A4A68"/>
<path d="M463.488 419H455.488C451.07 419 447.488 422.582 447.488 427V434C447.488 438.418 451.07 442 455.488 442H463.488C467.907 442 471.488 438.418 471.488 434V427C471.488 422.582 467.907 419 463.488 419Z" fill="#29329C"/>
<mask id="mask3_5300_8669" style="mask-type:luminance" maskUnits="userSpaceOnUse" x="451" y="424" width="13" height="12">
<path d="M463.488 424H451.488V436H463.488V424Z" fill="white"/>
</mask>
<g mask="url(#mask3_5300_8669)">
<path fill-rule="evenodd" clip-rule="evenodd" d="M457.526 426.692C457.552 426.753 457.588 426.808 457.635 426.855L460.782 430.001L457.635 433.147C457.588 433.193 457.552 433.248 457.526 433.309C457.501 433.37 457.488 433.435 457.488 433.501C457.488 433.566 457.501 433.631 457.526 433.692C457.552 433.753 457.588 433.808 457.635 433.855C457.681 433.901 457.737 433.938 457.797 433.963C457.858 433.988 457.923 434.001 457.989 434.001C458.055 434.001 458.12 433.988 458.18 433.963C458.241 433.938 458.296 433.901 458.343 433.855L461.843 430.355C461.889 430.308 461.926 430.253 461.952 430.192C461.977 430.132 461.99 430.066 461.99 430.001C461.99 429.935 461.977 429.87 461.952 429.809C461.926 429.748 461.889 429.693 461.843 429.647L458.343 426.147C458.296 426.1 458.241 426.063 458.18 426.038C458.12 426.013 458.055 426 457.989 426C457.923 426 457.858 426.013 457.797 426.038C457.737 426.063 457.681 426.1 457.635 426.147C457.588 426.193 457.552 426.248 457.526 426.309C457.501 426.37 457.488 426.435 457.488 426.501C457.488 426.566 457.501 426.631 457.526 426.692ZM464.183 426.855C464.236 427.346 464.323 428.047 464.42 428.803L464.964 433.296C464.908 433.428 464.726 433.609 464.135 433.854C464.727 433.742 464.604 433.856 464.518 433.936C464.48 433.972 464.448 434.001 464.489 434.001C464.622 434.001 464.749 433.948 464.842 433.854C464.936 433.76 464.989 433.633 464.989 433.501L464.964 433.296C464.989 433.237 464.989 433.187 464.989 433.147C464.989 433.108 464.909 432.512 464.799 431.682C464.687 430.849 464.545 429.779 464.42 428.803L464.183 426.855ZM464.842 426.147C464.6 426.147 464.446 426.215 464.349 426.309C464.387 426.309 464.403 426.309 464.418 426.305C464.457 426.296 464.489 426.263 464.842 426.147Z" fill="white"/>
</g>
</g>
</svg>
