<svg width="641" height="473" viewBox="0 0 641 473" fill="none" xmlns="http://www.w3.org/2000/svg">
<g clip-path="url(#clip0_4459_8201)">
<g clip-path="url(#clip1_4459_8201)">
<path d="M500.268 93.1999C498.178 69.4699 488.438 46.9299 471.848 29.8499C456.398 13.9399 432.718 -0.0100803 398.848 5.43992C321.318 17.9199 353.018 137 251.848 110.38C150.678 83.7599 108.468 206.38 184.188 249.69C259.908 293 390.128 268.84 445.238 222.56C497.198 179 503.228 126.84 500.268 93.1999Z" fill="#9B9A9A"/>
<path opacity="0.9" d="M500.268 93.1999C498.178 69.4699 488.438 46.9299 471.848 29.8499C456.398 13.9399 432.718 -0.0100803 398.848 5.43992C321.318 17.9199 353.018 137 251.848 110.38C150.678 83.7599 108.468 206.38 184.188 249.69C259.908 293 390.128 268.84 445.238 222.56C497.198 179 503.228 126.84 500.268 93.1999Z" fill="white"/>
<path d="M551.775 391.433C551.775 396.784 443.206 401.131 309.284 401.131C175.362 401.131 66.8047 396.784 66.8047 391.433C66.8047 386.081 175.362 381.76 309.284 381.76C443.206 381.76 551.775 386.081 551.775 391.433Z" fill="#F5F5F5"/>
<path d="M451.718 279.46L458.278 285.97L459.178 286.86L413.728 332.81L399.028 317.95L328.838 388.94H339.228L399.028 328.46L413.728 343.33L464.428 292.06L464.818 292.45L471.378 298.95L476.138 274.17L451.718 279.46Z" fill="#00B960"/>
<path d="M177.978 384.71L184.568 349H139.758L146.348 384.69C146.549 385.785 147.127 386.774 147.982 387.487C148.837 388.199 149.915 388.59 151.028 388.59H173.298C174.408 388.59 175.483 388.203 176.338 387.494C177.193 386.786 177.773 385.801 177.978 384.71Z" fill="#0A2540"/>
<path d="M179.817 316.72C173.917 315.16 164.907 327.41 162.167 339.35V322C164.442 318.149 167.416 314.758 170.937 312C178.337 306 185.157 298.23 179.247 296.67C173.707 295.21 165.427 305.91 162.167 317.11V294.73C163.538 292.659 165.225 290.817 167.167 289.27C171.837 285.47 176.167 280.59 172.407 279.6C169.177 278.75 164.407 284.48 162.147 290.93V283.69C162.559 280.692 163.37 277.763 164.557 274.98C167.987 267.4 169.837 259.59 165.317 260.18C160.797 260.77 157.847 274.25 160.317 284.61V288.34C158.647 280.76 152.907 272.91 149.157 273.89C145.407 274.87 149.727 279.75 154.397 283.56C156.861 285.455 158.881 287.864 160.317 290.62V308.21C157.637 296.21 148.557 283.83 142.627 285.39C136.697 286.95 143.537 294.69 150.947 300.73C154.837 303.729 158.033 307.532 160.317 311.88V333C157.457 321.22 148.607 309.34 142.787 310.87C136.967 312.4 141.947 318.08 150.267 324.93C154.395 328.286 157.798 332.447 160.267 337.16V349H162.097V343.1C164.409 338.793 167.61 335.026 171.487 332.05C178.907 326 185.727 318.28 179.817 316.72Z" fill="#DDAE08"/>
<path d="M187.328 347.34H136.998V352.24H187.328V347.34Z" fill="#0A2540"/>
<path opacity="0.2" d="M187.328 347.34H136.998V352.24H187.328V347.34Z" fill="white"/>
<path d="M473.078 120.83C470.258 130.874 464.205 139.708 455.857 145.963C447.508 152.218 437.33 155.546 426.898 155.43H421.038V155C418.88 154.706 416.745 154.261 414.648 153.67C404.155 150.725 394.998 144.255 388.718 135.348C382.438 126.441 379.419 115.643 380.169 104.77C380.919 93.8981 385.393 83.6165 392.837 75.6569C400.281 67.6973 410.24 62.5458 421.038 61.0701V60.6301H426.898C434.258 60.5526 441.534 62.1889 448.152 65.4095C454.77 68.6301 460.548 73.3467 465.028 79.186C469.508 85.0253 472.568 91.8271 473.965 99.0533C475.362 106.279 475.058 113.732 473.078 120.82V120.83Z" fill="#FF4062"/>
<path opacity="0.3" d="M473.078 120.83C470.258 130.874 464.205 139.708 455.857 145.963C447.508 152.218 437.33 155.546 426.898 155.43H421.038V155C418.88 154.706 416.745 154.261 414.648 153.67C404.155 150.725 394.998 144.255 388.718 135.348C382.438 126.441 379.419 115.643 380.169 104.77C380.919 93.8981 385.393 83.6165 392.837 75.6569C400.281 67.6973 410.24 62.5458 421.038 61.0701V60.6301H426.898C434.258 60.5526 441.534 62.1889 448.152 65.4095C454.77 68.6301 460.548 73.3467 465.028 79.186C469.508 85.0253 472.568 91.8271 473.965 99.0533C475.362 106.279 475.058 113.732 473.078 120.82V120.83Z" fill="black"/>
<path d="M439.34 151.93C463.569 142.032 475.187 114.367 465.29 90.138C455.392 65.9088 427.727 54.2908 403.498 64.1884C379.269 74.086 367.651 101.751 377.548 125.98C387.446 150.21 415.111 161.828 439.34 151.93Z" fill="#FF4062"/>
<path d="M436.783 142.181C455.65 133.694 464.065 111.519 455.578 92.651C447.09 73.7835 424.915 65.3687 406.047 73.856C387.18 82.3433 378.765 104.519 387.252 123.386C395.74 142.254 417.915 150.669 436.783 142.181Z" fill="white"/>
<path d="M448.668 112.068C450.885 97.0314 440.494 83.0444 425.458 80.8267C410.421 78.609 396.434 89.0005 394.217 104.037C391.999 119.073 402.39 133.06 417.427 135.278C432.463 137.495 446.45 127.104 448.668 112.068Z" fill="#FF4062"/>
<path d="M438.819 110.674C440.274 101.069 433.666 92.1035 424.061 90.6492C414.456 89.1948 405.49 95.8023 404.036 105.408C402.581 115.013 409.189 123.978 418.794 125.433C428.399 126.887 437.365 120.279 438.819 110.674Z" fill="white"/>
<path d="M419.347 115.41C420.804 115.818 422.349 115.785 423.786 115.315C425.224 114.846 426.491 113.96 427.425 112.771C428.36 111.582 428.921 110.142 429.038 108.634C429.155 107.126 428.822 105.617 428.082 104.298C427.341 102.98 426.226 101.91 424.878 101.224C423.53 100.539 422.008 100.268 420.506 100.447C419.004 100.626 417.589 101.246 416.439 102.229C415.29 103.212 414.457 104.514 414.047 105.97C413.502 107.925 413.754 110.015 414.748 111.785C415.741 113.554 417.395 114.858 419.347 115.41Z" fill="#FF4062"/>
<path d="M368.379 78.8499L379.819 77.0999L378.079 65.6599C378.046 65.4992 378.047 65.3335 378.08 65.1729C378.114 65.0124 378.18 64.8603 378.274 64.726C378.368 64.5916 378.488 64.4778 378.628 64.3914C378.767 64.305 378.923 64.2479 379.085 64.2235C379.247 64.199 379.412 64.2078 379.571 64.2493C379.73 64.2908 379.878 64.3641 380.008 64.4648C380.137 64.5655 380.245 64.6914 380.324 64.835C380.403 64.9785 380.453 65.1367 380.469 65.2999L382.359 77.6599L386.749 80.8899L385.229 70.8899C385.18 70.5716 385.259 70.2469 385.45 69.9872C385.64 69.7275 385.926 69.554 386.244 69.5049C386.562 69.4558 386.887 69.5352 387.147 69.7256C387.406 69.9159 387.58 70.2017 387.629 70.5199L389.489 82.9299L395.039 87.0099L393.529 77.0099C393.503 76.8535 393.509 76.6937 393.545 76.5395C393.582 76.3853 393.649 76.2399 393.741 76.1116C393.834 75.9833 393.952 75.8746 394.087 75.792C394.222 75.7093 394.372 75.6542 394.529 75.6299C394.844 75.5835 395.165 75.6622 395.423 75.849C395.68 76.0358 395.855 76.3161 395.909 76.6299L397.829 88.9999L421.939 106.75C423.449 108 422.459 109.58 421.219 109.23L396.139 90.7699L384.209 92.5899C383.891 92.639 383.566 92.5596 383.306 92.3692C383.047 92.1789 382.873 91.8932 382.824 91.5749C382.775 91.2566 382.854 90.9319 383.045 90.6722C383.235 90.4125 383.521 90.239 383.839 90.1899L393.369 88.7399L387.819 84.6599L375.899 86.4699C375.581 86.519 375.256 86.4396 374.996 86.2493C374.737 86.0589 374.563 85.7732 374.514 85.4549C374.465 85.1367 374.544 84.8119 374.735 84.5522C374.925 84.2925 375.211 84.119 375.529 84.0699L385.059 82.6199L380.669 79.3899L368.739 81.1999C368.578 81.2324 368.413 81.2319 368.252 81.1985C368.091 81.165 367.939 81.0992 367.805 81.0051C367.671 80.9111 367.557 80.7907 367.471 80.6513C367.384 80.5119 367.327 80.3563 367.303 80.1942C367.278 80.032 367.287 79.8665 367.328 79.7079C367.37 79.5492 367.443 79.4006 367.544 79.2711C367.645 79.1417 367.77 79.034 367.914 78.9547C368.058 78.8755 368.216 78.8262 368.379 78.8099V78.8499Z" fill="#263238"/>
<path d="M263.379 388.94H262.379V358.65H297.289V328.81H332.209V299.01H367.119V269.17H402.039V239.38H436.949V209.54H472.359V210.54H437.949V240.34L437.449 240.38H403.039V270.17H368.119V299.97L367.619 300.01H333.209V329.81H298.289V359.6L297.789 359.65H263.379V388.94Z" fill="#A3A3A3"/>
<path d="M479.317 210.04L472.357 217.24V202.84L479.317 210.04Z" fill="#757575"/>
<path d="M311.488 87.5999C313.888 93.0399 316.178 98.5998 318.488 104.09L321.898 112.3C323.058 114.98 324.198 117.76 325.368 120.09C325.718 120.95 326.212 121.744 326.828 122.44C327.703 123.419 328.631 124.351 329.608 125.23C331.608 127.17 333.898 129.06 336.148 130.98L349.928 142.41L346.218 148.27C340.678 145.59 335.308 142.73 330.038 139.52C327.388 137.92 324.788 136.23 322.158 134.37C320.768 133.382 319.433 132.321 318.158 131.19C317.356 130.486 316.61 129.72 315.928 128.9L315.378 128.16L314.948 127.52C314.658 127.09 314.458 126.75 314.208 126.35C313.308 124.87 312.548 123.49 311.798 122.1C311.048 120.71 310.328 119.34 309.648 117.96C308.278 115.2 306.938 112.45 305.648 109.68C303.098 104.14 300.708 98.5998 298.518 92.8998L311.488 87.5999Z" fill="#9E6141"/>
<path d="M311.217 86.72L320.547 104.22C318.057 110.066 314.019 115.121 308.867 118.84L302.207 111.14L311.217 86.72Z" fill="#1F28CF"/>
<g opacity="0.5">
<path d="M311.217 86.72L320.547 104.22C318.057 110.066 314.019 115.121 308.867 118.84L302.207 111.14L311.217 86.72Z" fill="white"/>
</g>
<path d="M297.488 37.7799C294.671 37.5636 291.866 38.3274 289.548 39.942C287.23 41.5567 285.542 43.9229 284.768 46.6399C281.948 55.0199 278.638 59.8399 274.768 61.4899C268.458 64.2099 262.418 69.7299 266.268 77.5699C272.358 89.9699 298.268 88.7199 303.338 83.4199C308.408 78.1199 303.038 79.4199 308.238 74.5799C313.438 69.7399 318.948 56.0199 315.288 46.3499C313.248 40.9999 305.488 35.9999 297.488 37.7799Z" fill="#263238"/>
<path d="M308.788 65.92C308.668 66.4228 308.402 66.8788 308.023 67.2301C307.643 67.5813 307.169 67.8122 306.658 67.8932C306.148 67.9743 305.625 67.902 305.155 67.6855C304.686 67.469 304.292 67.1181 304.022 66.6771C303.752 66.2362 303.62 65.7251 303.641 65.2087C303.662 64.6923 303.836 64.1938 304.141 63.7764C304.446 63.359 304.868 63.0415 305.353 62.8641C305.838 62.6867 306.366 62.6575 306.868 62.78C307.538 62.9436 308.116 63.3657 308.475 63.954C308.835 64.5424 308.947 65.2492 308.788 65.92Z" fill="white"/>
<path d="M273.068 339.39L273.598 350.9H279.748L281.148 339.39H273.068Z" fill="#9E6141"/>
<path d="M296.798 359C296.798 355.25 295.278 354.13 293.218 354C291.158 353.87 283.678 351.34 283.678 351.34C283.678 351.34 282.308 348.96 280.948 348.47C279.588 347.98 278.078 349.41 278.078 349.41L274.258 348.94C274.258 348.94 273.258 347.23 272.328 348.73C270.868 351.06 270.388 357.49 270.328 359H296.798Z" fill="#1F28CF"/>
<path d="M296.399 358.06H291.599L270.599 357.95C270.329 357.95 270.419 357.55 270.689 357.56H272.109C272.109 357.56 272.109 357.56 272.109 357.5C272.449 357.099 272.698 356.629 272.838 356.123C272.979 355.616 273.007 355.085 272.921 354.566C272.836 354.048 272.638 353.554 272.342 353.119C272.047 352.685 271.66 352.32 271.209 352.05C270.999 351.93 271.299 351.58 271.499 351.71C273.399 352.89 274.039 355.24 272.499 357.55H275.499L296.499 357.66C296.759 357.67 296.659 358.07 296.399 358.06Z" fill="black"/>
<path d="M282.357 353C283.567 351.74 285.197 351.38 286.267 352.33C286.437 352.49 286.727 352.14 286.557 351.99C285.327 350.9 283.427 351.37 282.047 352.8C281.847 353.01 282.157 353.21 282.357 353Z" fill="white"/>
<path d="M284.487 353.67C285.697 352.41 287.327 352.05 288.397 353.01C288.567 353.16 288.857 352.81 288.687 352.66C287.457 351.57 285.557 352.04 284.187 353.47C283.987 353.68 284.287 353.88 284.487 353.67Z" fill="white"/>
<path d="M286.638 354.35C287.848 353.08 289.478 352.73 290.548 353.68C290.718 353.83 291.008 353.48 290.828 353.33C289.608 352.24 287.708 352.71 286.328 354.14C286.128 354.35 286.438 354.55 286.638 354.35Z" fill="white"/>
<path d="M303.149 149.09C303.149 149.09 302.639 168.43 300.759 195.6C300.389 200.86 299.969 206.43 299.499 212.21C298.499 224.21 297.259 237.11 295.709 250.21C291.959 281.76 281.489 342.1 281.489 342.1L271.959 342.31C271.959 342.31 262.569 288.31 272.849 250.94C272.199 244.48 271.669 238.42 271.259 232.72C269.989 217.228 269.655 201.673 270.259 186.14C270.259 185.2 270.349 184.28 270.399 183.38C270.489 181.88 270.599 180.43 270.709 179.04C270.879 176.77 271.099 174.65 271.319 172.68C273.469 154.29 277.319 148.99 277.319 148.99L303.149 149.09Z" fill="#263238"/>
<g opacity="0.2">
<path d="M300.758 195.6C300.388 200.86 299.968 206.43 299.498 212.21C289.888 204.44 276.888 190.51 270.398 183.38C270.488 181.88 270.598 180.43 270.708 179.04L300.758 195.6Z" fill="black"/>
</g>
<path d="M326.557 280.87L338.037 280.54C344.167 251.02 361.167 194.8 352.307 186.24C321.227 156.19 262.487 142 262.487 142C255.397 143.41 250.277 145.61 248.717 152.42C247.107 159.42 248.097 168.89 256.627 174.89C261.837 178.56 268.357 180.99 281.437 187C294.212 193.059 307.422 198.153 320.957 202.24C326.287 203.87 328.067 204.4 330.957 205.24C324.937 227 326.487 272.41 326.557 280.87Z" fill="#263238"/>
<path d="M328.199 280.14L328.059 291.05H334.199L336.289 280.14H328.199Z" fill="#9E6141"/>
<path d="M339.619 283.6L340.399 279.53H325.539L325.469 283.6H339.619Z" fill="#263238"/>
<path d="M351.257 299.2C351.257 295.44 349.727 294.32 347.677 294.2C345.627 294.08 338.127 291.53 338.127 291.53C338.127 291.53 336.767 289.15 335.397 288.67C334.027 288.19 332.537 289.6 332.537 289.6L328.717 289.14C328.717 289.14 327.717 287.42 326.787 288.92C325.327 291.25 324.847 297.69 324.787 299.2H351.257Z" fill="#1F28CF"/>
<path d="M350.858 298.21H346.058L325.058 298.11C324.788 298.11 324.878 297.7 325.148 297.71H326.568C326.561 297.69 326.561 297.669 326.568 297.65C326.908 297.249 327.157 296.779 327.297 296.273C327.438 295.766 327.466 295.235 327.38 294.716C327.295 294.198 327.097 293.704 326.801 293.269C326.506 292.835 326.119 292.47 325.668 292.2C325.458 292.08 325.758 291.73 325.958 291.86C327.848 293.04 328.498 295.39 326.958 297.71H329.958L350.958 297.82C351.218 297.82 351.118 298.22 350.858 298.21Z" fill="black"/>
<path d="M336.818 293.16C338.028 291.89 339.658 291.53 340.728 292.49C340.898 292.64 341.188 292.29 341.008 292.14C339.788 291.05 337.888 291.52 336.508 292.95C336.308 293.16 336.618 293.36 336.818 293.16Z" fill="white"/>
<path d="M338.919 293.83C340.129 292.56 341.759 292.21 342.829 293.16C342.999 293.31 343.289 292.97 343.119 292.81C341.889 291.72 339.989 292.2 338.619 293.63C338.409 293.84 338.719 294.03 338.919 293.83Z" fill="white"/>
<path d="M341.089 294.5C342.309 293.24 343.939 292.88 345.009 293.83C345.179 293.98 345.459 293.64 345.289 293.49C344.069 292.39 342.169 292.87 340.789 294.3C340.589 294.51 340.889 294.71 341.089 294.5Z" fill="white"/>
<path d="M282.218 344.33L283.148 340.27H270.488L270.578 344.33H282.218Z" fill="#263238"/>
<path d="M248.707 148.16C268.147 157.31 302.867 159.28 303.567 154.66C305.567 141.66 303.117 126.45 305.657 118.12C316.347 112.62 309.717 105.67 312.067 95.88C312.922 92.2917 312.36 88.5119 310.497 85.3281C308.634 82.1444 305.614 79.8023 302.067 78.79C300.367 78.29 298.597 77.79 296.857 77.33L295.797 77.07C291.118 75.9593 286.371 75.1575 281.587 74.67C279.847 74.46 278.027 74.27 276.137 74.06C274.247 73.85 272.387 73.72 270.627 73.64C269.072 73.555 267.516 73.7902 266.055 74.3309C264.595 74.8716 263.261 75.7063 262.136 76.7834C261.011 77.8605 260.119 79.157 259.516 80.5927C258.912 82.0284 258.61 83.5727 258.627 85.13C258.878 94.019 258.544 102.915 257.627 111.76C257.437 113.59 257.227 115.35 256.987 117.07C256.188 123.142 254.989 129.156 253.397 135.07C253.374 135.182 253.344 135.292 253.307 135.4C252.64 137.747 251.947 139.903 251.227 141.87C251.007 142.49 250.777 143.08 250.537 143.65C250.067 144.83 249.237 147 248.707 148.16Z" fill="#1F28CF"/>
<g opacity="0.3">
<path d="M248.707 148.16C268.147 157.31 302.867 159.28 303.567 154.66C305.567 141.66 303.117 126.45 305.657 118.12C316.347 112.62 309.717 105.67 312.067 95.88C312.922 92.2917 312.36 88.5119 310.497 85.3281C308.634 82.1444 305.614 79.8023 302.067 78.79C300.367 78.29 298.597 77.79 296.857 77.33L295.797 77.07C291.118 75.9593 286.371 75.1575 281.587 74.67C279.847 74.46 278.027 74.27 276.137 74.06C274.247 73.85 272.387 73.72 270.627 73.64C269.072 73.555 267.516 73.7902 266.055 74.3309C264.595 74.8716 263.261 75.7063 262.136 76.7834C261.011 77.8605 260.119 79.157 259.516 80.5927C258.912 82.0284 258.61 83.5727 258.627 85.13C258.878 94.019 258.544 102.915 257.627 111.76C257.437 113.59 257.227 115.35 256.987 117.07C256.188 123.142 254.989 129.156 253.397 135.07C253.374 135.182 253.344 135.292 253.307 135.4C252.64 137.747 251.947 139.903 251.227 141.87C251.007 142.49 250.777 143.08 250.537 143.65C250.067 144.83 249.237 147 248.707 148.16Z" fill="white"/>
</g>
<path d="M247.809 89.0498C247.809 89.0498 256.179 73.3298 267.449 73.9298C274.649 74.3098 273.649 89.7498 265.639 101.35C258.179 98.3698 252.609 94.7898 247.809 89.0498Z" fill="#1F28CF"/>
<g opacity="0.5">
<path d="M247.809 89.0498C247.809 89.0498 256.179 73.3298 267.449 73.9298C274.649 74.3098 273.649 89.7498 265.639 101.35C258.179 98.3698 252.609 94.7898 247.809 89.0498Z" fill="white"/>
</g>
<path d="M281.639 74.6699C285.449 83.7699 296.229 90.2499 296.229 90.2499C298.229 86.6199 298.489 80.4399 296.919 77.3399L295.859 77.0799C291.177 75.9635 286.427 75.1584 281.639 74.6699Z" fill="#9E6141"/>
<path d="M296.748 79.8899C296.77 80.0325 296.813 80.1708 296.878 80.2999C298.208 83.0999 296.128 85.2999 293.318 84.7099C293.046 84.6599 292.779 84.5897 292.518 84.4999C291.52 84.1692 290.65 83.5367 290.028 82.6899C288.129 80.0859 286.033 77.632 283.758 75.3499C288.298 73.5799 290.838 65.6599 291.848 60.6399L297.438 69.8599L298.438 71.8599C297.706 72.8091 297.091 73.8432 296.608 74.9399C296.225 75.7136 296.037 76.5693 296.062 77.4323C296.086 78.2953 296.322 79.1391 296.748 79.8899Z" fill="#9E6141"/>
<g opacity="0.2">
<path d="M296.627 74.9199C297.111 73.8233 297.725 72.7891 298.457 71.8399L297.457 69.8399L293.287 69.4299C293.758 71.5807 294.934 73.5127 296.627 74.9199Z" fill="black"/>
</g>
<path d="M291.729 51.4499C290.059 59.6999 289.179 63.1499 292.089 68.3899C296.469 76.2699 306.769 76.4499 310.829 68.8599C314.479 62.0199 316.599 49.6799 309.669 44.3799C302.739 39.0799 293.399 43.1999 291.729 51.4499Z" fill="#9E6141"/>
<path d="M305.197 42.1499C305.197 42.1499 307.617 50.7499 312.497 51.6099C317.377 52.4699 314.117 45.6099 309.567 42.2699C307.597 40.8099 305.197 42.1499 305.197 42.1499Z" fill="#263238"/>
<path d="M302.869 53.9999C302.922 54.0242 302.98 54.0368 303.039 54.0368C303.097 54.0368 303.155 54.0242 303.209 53.9999C303.666 53.7103 304.184 53.5323 304.723 53.4802C305.261 53.4281 305.805 53.5033 306.309 53.6999C306.36 53.7267 306.417 53.7427 306.475 53.7471C306.533 53.7514 306.591 53.7439 306.646 53.7251C306.701 53.7063 306.752 53.6765 306.795 53.6375C306.838 53.5986 306.873 53.5513 306.897 53.4985C306.922 53.4457 306.935 53.3885 306.937 53.3303C306.938 53.2722 306.928 53.2144 306.907 53.1603C306.885 53.1062 306.853 53.057 306.812 53.0157C306.771 52.9744 306.722 52.9418 306.669 52.9199C306.034 52.6628 305.348 52.5605 304.666 52.6213C303.985 52.6822 303.327 52.9045 302.749 53.2699C302.699 53.2975 302.655 53.3353 302.62 53.3808C302.586 53.4262 302.561 53.4784 302.548 53.5339C302.535 53.5895 302.534 53.6472 302.544 53.7033C302.554 53.7594 302.576 53.8127 302.609 53.8599C302.671 53.9507 302.763 54.0177 302.869 54.0499" fill="#263238"/>
<path d="M313.847 56.3698C313.895 56.3815 313.944 56.3831 313.993 56.3745C314.041 56.3659 314.087 56.3473 314.127 56.3198C314.171 56.2941 314.21 56.2598 314.24 56.219C314.27 56.1782 314.292 56.1317 314.305 56.0823C314.317 56.0329 314.319 55.9815 314.311 55.9313C314.302 55.881 314.284 55.8329 314.257 55.7898C313.945 55.2587 313.509 54.8106 312.987 54.4834C312.465 54.1562 311.872 53.9595 311.257 53.9098C311.207 53.9085 311.156 53.9173 311.109 53.9358C311.062 53.9543 311.018 53.9821 310.982 54.0175C310.946 54.0529 310.917 54.0953 310.897 54.142C310.877 54.1888 310.867 54.239 310.867 54.2898C310.866 54.3405 310.875 54.391 310.893 54.4383C310.912 54.4856 310.94 54.5286 310.975 54.565C311.01 54.6013 311.053 54.6302 311.1 54.6499C311.146 54.6697 311.197 54.6798 311.247 54.6798C311.731 54.7304 312.196 54.8944 312.604 55.1585C313.013 55.4226 313.353 55.7794 313.597 56.1998C313.626 56.2433 313.662 56.2808 313.705 56.31C313.748 56.3392 313.796 56.3595 313.847 56.3698Z" fill="#263238"/>
<path d="M289.248 50.0699C289.248 50.0699 286.148 55.3099 290.048 56.7399C293.948 58.1699 296.228 55.4999 296.198 53.1599C296.168 50.8199 295.468 48.3499 301.198 49.4999C306.288 50.4999 309.438 39.9299 302.668 40.0999C298.488 40.1999 290.798 42.7699 289.248 50.0699Z" fill="#263238"/>
<path d="M307.598 66.3999C307.598 66.3999 303.768 64.07 303.088 62.2C303.088 62.2 302.088 65.28 304.088 66.71C304.603 67.1129 305.252 67.305 305.904 67.2475C306.556 67.1899 307.161 66.887 307.598 66.3999Z" fill="white"/>
<path d="M304.608 57.5299C304.428 58.1899 304.608 58.8199 305.068 58.9399C305.528 59.0599 305.998 58.6099 306.178 57.9399C306.358 57.2699 306.178 56.6499 305.708 56.5299C305.238 56.4099 304.788 56.8599 304.608 57.5299Z" fill="#263238"/>
<path d="M311.227 59.49C311.047 60.15 311.227 60.78 311.687 60.89C312.147 61 312.607 60.56 312.787 59.89C312.967 59.22 312.787 58.6 312.327 58.49C311.867 58.38 311.397 58.82 311.227 59.49Z" fill="#263238"/>
<path d="M312.129 58.48H313.839C313.839 58.48 312.689 59.48 312.129 58.48Z" fill="#263238"/>
<path d="M308.698 58.26C308.698 58.26 309.368 60.32 310.198 62.17C310.268 62.3091 310.303 62.4625 310.303 62.6179C310.303 62.7732 310.266 62.9264 310.196 63.0652C310.126 63.204 310.025 63.3246 309.9 63.4174C309.776 63.5103 309.631 63.5728 309.478 63.6C308.74 63.7339 307.988 63.7842 307.238 63.75L308.698 58.26Z" fill="#7A4224"/>
<path d="M287.348 56.2999C287.466 57.0567 287.744 57.7796 288.163 58.4209C288.582 59.0622 289.132 59.6072 289.778 60.0199C291.448 61.0199 292.868 59.2599 292.898 57.1199C292.898 55.1899 292.088 52.3599 290.178 52.2699C288.268 52.1799 286.988 54.2699 287.348 56.2699" fill="#9E6141"/>
<path d="M290.738 59.8299C290.738 60.0297 290.678 60.2249 290.566 60.3903C290.453 60.5556 290.294 60.6836 290.109 60.7576C289.923 60.8315 289.719 60.8482 289.524 60.8054C289.329 60.7626 289.151 60.6623 289.013 60.5174C288.876 60.3725 288.785 60.1896 288.752 59.9925C288.719 59.7953 288.746 59.5929 288.83 59.4113C288.913 59.2296 289.049 59.0772 289.22 58.9735C289.391 58.8699 289.589 58.8199 289.788 58.8299C290.045 58.8427 290.286 58.9537 290.463 59.1399C290.64 59.326 290.739 59.5731 290.738 59.8299Z" fill="white"/>
<path d="M305.488 56.53H307.198C307.198 56.53 306.058 57.53 305.488 56.53Z" fill="#263238"/>
<path d="M407.008 203.73L438.268 209.52L419.558 183.81L407.008 203.73Z" fill="#1F28CF"/>
<g opacity="0.6">
<path d="M419.558 183.81L432.838 202.06L438.268 209.52L429.298 207.87L406.998 203.73L419.558 183.81Z" fill="white"/>
</g>
<path d="M432.838 202.06L438.268 209.52L429.268 207.87C430.311 205.847 431.504 203.905 432.838 202.06Z" fill="#263238"/>
<path d="M221.349 58.8799L419.559 183.81L424.569 190.7L415.369 190.45L419.949 198.18L411.189 197.09L414.829 205.18L406.999 203.73L208.799 78.7899L221.349 58.8799Z" fill="#1F28CF"/>
<path d="M221.351 58.8595L208.795 78.783L218.499 84.8984L231.055 64.975L221.351 58.8595Z" fill="#263238"/>
<path d="M202.518 63.8118L205.136 59.6579C206.454 57.5667 208.548 56.0847 210.959 55.5379C213.37 54.9911 215.899 55.4243 217.99 56.7422L221.374 58.8749L208.818 78.7984L205.434 76.6657C203.342 75.3478 201.86 73.2531 201.314 70.8426C200.767 68.432 201.2 65.9029 202.518 63.8118Z" fill="#1F28CF"/>
<g opacity="0.6">
<path d="M202.518 63.812L205.136 59.6581C206.454 57.5669 208.548 56.0849 210.959 55.5381C213.37 54.9914 215.899 55.4246 217.99 56.7425L221.374 58.8752L208.818 78.7986L205.434 76.6659C203.342 75.348 201.86 73.2534 201.314 70.8428C200.767 68.4322 201.2 65.9032 202.518 63.812Z" fill="white"/>
</g>
<path d="M411.058 197C411.015 197.065 410.949 197.112 410.873 197.13C410.797 197.149 410.717 197.138 410.648 197.1L222.488 78.5299C222.421 78.4862 222.373 78.4173 222.356 78.3386C222.339 78.2598 222.355 78.1776 222.398 78.1099C222.442 78.0423 222.511 77.9948 222.59 77.9779C222.668 77.9611 222.751 77.9762 222.818 78.0199L410.968 196.6C411.033 196.641 411.079 196.706 411.096 196.781C411.113 196.856 411.099 196.935 411.058 197Z" fill="#263238"/>
<path d="M415.249 190.37C415.204 190.436 415.136 190.483 415.058 190.501C414.98 190.52 414.899 190.509 414.829 190.47L226.709 71.8899C226.642 71.845 226.596 71.7763 226.579 71.698C226.562 71.6197 226.577 71.5379 226.619 71.4699C226.639 71.4363 226.666 71.4072 226.698 71.3844C226.73 71.3616 226.766 71.3455 226.804 71.3371C226.843 71.3287 226.882 71.3281 226.921 71.3355C226.959 71.3428 226.996 71.3579 227.029 71.3799L415.149 190C415.208 190.039 415.25 190.098 415.269 190.166C415.287 190.234 415.28 190.307 415.249 190.37Z" fill="#263238"/>
<path d="M289.147 126.29C288.147 126.76 287.197 127.19 286.237 127.6C285.677 127.85 285.127 128.08 284.567 128.31C283.037 128.95 281.497 129.57 279.937 130.14C276.837 131.3 273.677 132.33 270.447 133.26C267.157 134.202 263.819 134.97 260.447 135.56C258.717 135.87 256.957 136.08 255.107 136.23C253.362 136.393 251.606 136.409 249.857 136.28L249.207 136.23C248.379 136.14 247.571 135.914 246.817 135.56C245.857 135.104 244.999 134.458 244.297 133.66C243.528 132.766 242.956 131.72 242.617 130.59C242.319 129.616 242.148 128.608 242.107 127.59C242.06 126.422 242.1 125.252 242.227 124.09C242.407 122.244 242.68 120.408 243.047 118.59C243.717 115.12 244.497 111.82 245.357 108.59C245.867 106.67 246.357 104.77 246.957 102.87L259.747 110.93C259.597 111.41 259.467 111.93 259.337 112.38C258.497 115.45 257.657 118.51 257.007 121.48C256.907 121.94 256.807 122.4 256.717 122.85C257.477 122.85 258.257 122.85 259.037 122.8C262.037 122.69 265.037 122.39 268.177 122.06C270.727 121.78 273.297 121.45 275.877 121.06L277.547 120.83L286.987 119.48L289.147 126.29Z" fill="#9E6141"/>
<path d="M286.238 119.62C286.238 119.62 294.448 117.03 296.238 117.33C298.188 117.67 297.618 127.94 295.148 129.43C292.678 130.92 286.748 126.43 286.748 126.43L286.238 119.62Z" fill="#9E6141"/>
<path d="M286.248 119.71C287.205 118.507 288.413 117.528 289.788 116.84C291.618 116.13 293.278 114.97 294.138 115.27C294.998 115.57 291.968 118.36 291.968 118.36L286.248 119.71Z" fill="#9E6141"/>
<path d="M296.198 117.33C296.198 117.33 301.288 118.6 302.958 120.63C304.628 122.66 300.068 121.55 300.068 121.55C300.068 121.55 305.398 123.29 303.358 127.38C302.358 129.38 296.298 129.98 293.498 129.7C293.488 129.7 293.298 121.15 296.198 117.33Z" fill="#9E6141"/>
<path d="M343.917 133.72C343.917 133.72 343.777 133.03 341.857 132.58C340.556 132.221 339.195 132.133 337.857 132.32L342.507 135.32C342.507 135.32 341.997 139.41 344.197 141.24C348.617 144.92 352.027 142.73 352.977 141.94C353.927 141.15 352.347 137.6 349.567 135.54C347.937 134.325 345.95 133.685 343.917 133.72Z" fill="#9E6141"/>
<path d="M491.025 385.772H430.754L435.31 341.898L491.025 341.535V385.772Z" fill="#FF725E"/>
<g opacity="0.4">
<path d="M491.025 385.772H430.754L435.31 341.897L491.025 341.535V385.772Z" fill="black"/>
</g>
<path d="M499.814 341.535H439.543V385.764H499.814V341.535Z" fill="#FF725E"/>
<g opacity="0.2">
<path d="M499.814 341.535H439.543V385.764H499.814V341.535Z" fill="black"/>
</g>
<path d="M500.318 362.951C500.318 363.062 486.76 363.156 470.041 363.156C453.322 363.156 439.748 363.062 439.748 362.951C439.748 362.841 453.306 362.739 470.041 362.739C486.776 362.739 500.318 362.833 500.318 362.951Z" fill="#263238"/>
<path d="M450.279 367.209C450.006 365.007 450.006 362.781 450.279 360.579C450.552 362.781 450.552 365.007 450.279 367.209Z" fill="#263238"/>
<path d="M492.183 366.972C491.91 365.008 491.91 363.016 492.183 361.052C492.457 363.016 492.457 365.008 492.183 366.972Z" fill="#263238"/>
<path d="M478.908 341.763C478.908 341.763 478.908 341.282 478.767 340.454C478.556 339.281 478.1 338.166 477.426 337.183C476.433 335.723 475.055 334.567 473.446 333.841C471.462 332.968 469.305 332.561 467.14 332.651C464.961 332.668 462.812 333.149 460.834 334.062C459.232 334.81 457.846 335.952 456.805 337.38C456.108 338.345 455.607 339.438 455.331 340.596C455.142 341.424 455.134 341.897 455.095 341.897C455.083 341.782 455.083 341.665 455.095 341.55C455.096 341.219 455.128 340.89 455.19 340.565C455.411 339.361 455.886 338.219 456.585 337.215C457.624 335.714 459.037 334.51 460.684 333.723C462.693 332.77 464.885 332.264 467.108 332.241C469.334 332.149 471.551 332.581 473.58 333.502C475.237 334.272 476.644 335.493 477.639 337.025C478.314 338.049 478.743 339.214 478.893 340.431C478.922 340.759 478.922 341.088 478.893 341.416C478.918 341.53 478.923 341.647 478.908 341.763Z" fill="#263238"/>
</g>
<rect width="24" height="23" rx="8" transform="matrix(-1 0 0 1 189.488 419)" fill="#29329C"/>
<g clip-path="url(#clip2_4459_8201)">
<path fill-rule="evenodd" clip-rule="evenodd" d="M179.45 426.691C179.425 426.752 179.388 426.807 179.342 426.854L176.195 430L179.342 433.146C179.388 433.192 179.425 433.248 179.45 433.308C179.475 433.369 179.488 433.434 179.488 433.5C179.488 433.566 179.475 433.631 179.45 433.691C179.425 433.752 179.388 433.807 179.342 433.854C179.295 433.9 179.24 433.937 179.179 433.962C179.118 433.988 179.053 434.001 178.988 434.001C178.922 434.001 178.857 433.988 178.796 433.962C178.735 433.937 178.68 433.9 178.634 433.854L175.134 430.354C175.087 430.307 175.05 430.252 175.025 430.192C175 430.131 174.987 430.066 174.987 430C174.987 429.934 175 429.869 175.025 429.808C175.05 429.748 175.087 429.692 175.134 429.646L178.634 426.146C178.68 426.099 178.735 426.063 178.796 426.037C178.857 426.012 178.922 425.999 178.988 425.999C179.053 425.999 179.118 426.012 179.179 426.037C179.24 426.063 179.295 426.099 179.342 426.146C179.388 426.192 179.425 426.248 179.45 426.308C179.475 426.369 179.488 426.434 179.488 426.5C179.488 426.566 179.475 426.631 179.45 426.691ZM172.793 426.854C172.74 427.346 172.654 428.046 172.557 428.802L172.013 433.295C172.068 433.427 172.25 433.609 172.841 433.853C172.249 433.741 172.372 433.855 172.459 433.935C172.497 433.971 172.528 434 172.488 434C172.355 434 172.228 433.947 172.134 433.853C172.04 433.76 171.988 433.633 171.988 433.5L172.013 433.295C171.988 433.236 171.988 433.187 171.988 433.146C171.988 433.107 172.067 432.511 172.178 431.682C172.289 430.848 172.432 429.779 172.557 428.802L172.793 426.854ZM172.134 426.146C172.377 426.146 172.53 426.214 172.628 426.308C172.59 426.308 172.574 426.308 172.558 426.305C172.52 426.295 172.487 426.262 172.134 426.146Z" fill="white"/>
<path d="M172.793 426.854C172.793 426.767 172.814 426.489 172.628 426.308C172.76 426.308 172.747 426.053 172.841 426.146C172.859 426.164 172.839 426.432 172.793 426.854Z" fill="white"/>
</g>
<path d="M237.452 429.974C237.807 430.03 238.129 430.175 238.418 430.408C238.717 430.641 238.95 430.931 239.118 431.276C239.296 431.621 239.384 431.99 239.384 432.382C239.384 432.877 239.258 433.325 239.006 433.726C238.754 434.118 238.386 434.431 237.9 434.664C237.424 434.888 236.86 435 236.206 435H232.566V425.242H236.066C236.729 425.242 237.294 425.354 237.76 425.578C238.227 425.793 238.577 426.087 238.81 426.46C239.044 426.833 239.16 427.253 239.16 427.72C239.16 428.299 239.002 428.779 238.684 429.162C238.376 429.535 237.966 429.806 237.452 429.974ZM233.84 429.456H235.982C236.58 429.456 237.042 429.316 237.368 429.036C237.695 428.756 237.858 428.369 237.858 427.874C237.858 427.379 237.695 426.992 237.368 426.712C237.042 426.432 236.57 426.292 235.954 426.292H233.84V429.456ZM236.094 433.95C236.729 433.95 237.224 433.801 237.578 433.502C237.933 433.203 238.11 432.788 238.11 432.256C238.11 431.715 237.924 431.29 237.55 430.982C237.177 430.665 236.678 430.506 236.052 430.506H233.84V433.95H236.094ZM247.956 427.328V435H246.682V433.866C246.44 434.258 246.099 434.566 245.66 434.79C245.231 435.005 244.755 435.112 244.232 435.112C243.635 435.112 243.098 434.991 242.622 434.748C242.146 434.496 241.768 434.123 241.488 433.628C241.218 433.133 241.082 432.531 241.082 431.822V427.328H242.342V431.654C242.342 432.41 242.534 432.993 242.916 433.404C243.299 433.805 243.822 434.006 244.484 434.006C245.166 434.006 245.702 433.796 246.094 433.376C246.486 432.956 246.682 432.345 246.682 431.542V427.328H247.956ZM250.765 426.082C250.523 426.082 250.317 425.998 250.149 425.83C249.981 425.662 249.897 425.457 249.897 425.214C249.897 424.971 249.981 424.766 250.149 424.598C250.317 424.43 250.523 424.346 250.765 424.346C250.999 424.346 251.195 424.43 251.353 424.598C251.521 424.766 251.605 424.971 251.605 425.214C251.605 425.457 251.521 425.662 251.353 425.83C251.195 425.998 250.999 426.082 250.765 426.082ZM251.381 427.328V435H250.107V427.328H251.381ZM254.827 424.64V435H253.553V424.64H254.827ZM256.522 431.136C256.522 430.352 256.681 429.666 256.998 429.078C257.315 428.481 257.749 428.019 258.3 427.692C258.86 427.365 259.485 427.202 260.176 427.202C260.773 427.202 261.329 427.342 261.842 427.622C262.355 427.893 262.747 428.252 263.018 428.7V424.64H264.306V435H263.018V433.558C262.766 434.015 262.393 434.393 261.898 434.692C261.403 434.981 260.825 435.126 260.162 435.126C259.481 435.126 258.86 434.958 258.3 434.622C257.749 434.286 257.315 433.815 256.998 433.208C256.681 432.601 256.522 431.911 256.522 431.136ZM263.018 431.15C263.018 430.571 262.901 430.067 262.668 429.638C262.435 429.209 262.117 428.882 261.716 428.658C261.324 428.425 260.89 428.308 260.414 428.308C259.938 428.308 259.504 428.42 259.112 428.644C258.72 428.868 258.407 429.195 258.174 429.624C257.941 430.053 257.824 430.557 257.824 431.136C257.824 431.724 257.941 432.237 258.174 432.676C258.407 433.105 258.72 433.437 259.112 433.67C259.504 433.894 259.938 434.006 260.414 434.006C260.89 434.006 261.324 433.894 261.716 433.67C262.117 433.437 262.435 433.105 262.668 432.676C262.901 432.237 263.018 431.729 263.018 431.15ZM277.023 425.242L273.845 431.318V435H272.571V431.318L269.379 425.242H270.793L273.201 430.184L275.609 425.242H277.023ZM281.713 435.126C280.994 435.126 280.341 434.963 279.753 434.636C279.174 434.309 278.717 433.847 278.381 433.25C278.054 432.643 277.891 431.943 277.891 431.15C277.891 430.366 278.059 429.675 278.395 429.078C278.74 428.471 279.207 428.009 279.795 427.692C280.383 427.365 281.041 427.202 281.769 427.202C282.497 427.202 283.155 427.365 283.743 427.692C284.331 428.009 284.793 428.467 285.129 429.064C285.474 429.661 285.647 430.357 285.647 431.15C285.647 431.943 285.47 432.643 285.115 433.25C284.77 433.847 284.298 434.309 283.701 434.636C283.104 434.963 282.441 435.126 281.713 435.126ZM281.713 434.006C282.17 434.006 282.6 433.899 283.001 433.684C283.402 433.469 283.724 433.147 283.967 432.718C284.219 432.289 284.345 431.766 284.345 431.15C284.345 430.534 284.224 430.011 283.981 429.582C283.738 429.153 283.421 428.835 283.029 428.63C282.637 428.415 282.212 428.308 281.755 428.308C281.288 428.308 280.859 428.415 280.467 428.63C280.084 428.835 279.776 429.153 279.543 429.582C279.31 430.011 279.193 430.534 279.193 431.15C279.193 431.775 279.305 432.303 279.529 432.732C279.762 433.161 280.07 433.483 280.453 433.698C280.836 433.903 281.256 434.006 281.713 434.006ZM294.126 427.328V435H292.852V433.866C292.609 434.258 292.269 434.566 291.83 434.79C291.401 435.005 290.925 435.112 290.402 435.112C289.805 435.112 289.268 434.991 288.792 434.748C288.316 434.496 287.938 434.123 287.658 433.628C287.387 433.133 287.252 432.531 287.252 431.822V427.328H288.512V431.654C288.512 432.41 288.703 432.993 289.086 433.404C289.469 433.805 289.991 434.006 290.654 434.006C291.335 434.006 291.872 433.796 292.264 433.376C292.656 432.956 292.852 432.345 292.852 431.542V427.328H294.126ZM297.551 428.574C297.775 428.135 298.093 427.795 298.503 427.552C298.923 427.309 299.432 427.188 300.029 427.188V428.504H299.693C298.265 428.504 297.551 429.279 297.551 430.828V435H296.277V427.328H297.551V428.574ZM310.748 425.242V426.278H306.506V429.568H309.95V430.604H306.506V435H305.232V425.242H310.748ZM319.091 427.328V435H317.817V433.866C317.574 434.258 317.234 434.566 316.795 434.79C316.366 435.005 315.89 435.112 315.367 435.112C314.77 435.112 314.233 434.991 313.757 434.748C313.281 434.496 312.903 434.123 312.623 433.628C312.352 433.133 312.217 432.531 312.217 431.822V427.328H313.477V431.654C313.477 432.41 313.668 432.993 314.051 433.404C314.434 433.805 314.956 434.006 315.619 434.006C316.3 434.006 316.837 433.796 317.229 433.376C317.621 432.956 317.817 432.345 317.817 431.542V427.328H319.091ZM322.796 428.378V432.9C322.796 433.273 322.875 433.539 323.034 433.698C323.193 433.847 323.468 433.922 323.86 433.922H324.798V435H323.65C322.941 435 322.409 434.837 322.054 434.51C321.699 434.183 321.522 433.647 321.522 432.9V428.378H320.528V427.328H321.522V425.396H322.796V427.328H324.798V428.378H322.796ZM333.146 427.328V435H331.872V433.866C331.629 434.258 331.288 434.566 330.85 434.79C330.42 435.005 329.944 435.112 329.422 435.112C328.824 435.112 328.288 434.991 327.812 434.748C327.336 434.496 326.958 434.123 326.678 433.628C326.407 433.133 326.272 432.531 326.272 431.822V427.328H327.532V431.654C327.532 432.41 327.723 432.993 328.106 433.404C328.488 433.805 329.011 434.006 329.674 434.006C330.355 434.006 330.892 433.796 331.284 433.376C331.676 432.956 331.872 432.345 331.872 431.542V427.328H333.146ZM336.571 428.574C336.795 428.135 337.112 427.795 337.523 427.552C337.943 427.309 338.451 427.188 339.049 427.188V428.504H338.713C337.285 428.504 336.571 429.279 336.571 430.828V435H335.297V427.328H336.571V428.574ZM347.519 430.87C347.519 431.113 347.505 431.369 347.477 431.64H341.345C341.392 432.396 341.649 432.989 342.115 433.418C342.591 433.838 343.165 434.048 343.837 434.048C344.388 434.048 344.845 433.922 345.209 433.67C345.583 433.409 345.844 433.063 345.993 432.634H347.365C347.16 433.371 346.749 433.973 346.133 434.44C345.517 434.897 344.752 435.126 343.837 435.126C343.109 435.126 342.456 434.963 341.877 434.636C341.308 434.309 340.86 433.847 340.533 433.25C340.207 432.643 340.043 431.943 340.043 431.15C340.043 430.357 340.202 429.661 340.519 429.064C340.837 428.467 341.28 428.009 341.849 427.692C342.428 427.365 343.091 427.202 343.837 427.202C344.565 427.202 345.209 427.361 345.769 427.678C346.329 427.995 346.759 428.434 347.057 428.994C347.365 429.545 347.519 430.17 347.519 430.87ZM346.203 430.604C346.203 430.119 346.096 429.703 345.881 429.358C345.667 429.003 345.373 428.737 344.999 428.56C344.635 428.373 344.229 428.28 343.781 428.28C343.137 428.28 342.587 428.485 342.129 428.896C341.681 429.307 341.425 429.876 341.359 430.604H346.203ZM363.153 427.328L360.759 435H359.443L357.595 428.91L355.747 435H354.431L352.023 427.328H353.325L355.089 433.768L356.993 427.328H358.295L360.157 433.782L361.893 427.328H363.153ZM365.076 426.082C364.833 426.082 364.628 425.998 364.46 425.83C364.292 425.662 364.208 425.457 364.208 425.214C364.208 424.971 364.292 424.766 364.46 424.598C364.628 424.43 364.833 424.346 365.076 424.346C365.309 424.346 365.505 424.43 365.664 424.598C365.832 424.766 365.916 424.971 365.916 425.214C365.916 425.457 365.832 425.662 365.664 425.83C365.505 425.998 365.309 426.082 365.076 426.082ZM365.692 427.328V435H364.418V427.328H365.692ZM369.417 428.378V432.9C369.417 433.273 369.496 433.539 369.655 433.698C369.814 433.847 370.089 433.922 370.481 433.922H371.419V435H370.271C369.562 435 369.03 434.837 368.675 434.51C368.32 434.183 368.143 433.647 368.143 432.9V428.378H367.149V427.328H368.143V425.396H369.417V427.328H371.419V428.378H369.417ZM376.771 427.188C377.349 427.188 377.872 427.314 378.339 427.566C378.805 427.809 379.169 428.177 379.431 428.672C379.701 429.167 379.837 429.769 379.837 430.478V435H378.577V430.66C378.577 429.895 378.385 429.311 378.003 428.91C377.62 428.499 377.097 428.294 376.435 428.294C375.763 428.294 375.226 428.504 374.825 428.924C374.433 429.344 374.237 429.955 374.237 430.758V435H372.963V424.64H374.237V428.42C374.489 428.028 374.834 427.725 375.273 427.51C375.721 427.295 376.22 427.188 376.771 427.188ZM392.454 427.328V435H391.18V433.866C390.938 434.258 390.597 434.566 390.158 434.79C389.729 435.005 389.253 435.112 388.73 435.112C388.133 435.112 387.596 434.991 387.12 434.748C386.644 434.496 386.266 434.123 385.986 433.628C385.716 433.133 385.58 432.531 385.58 431.822V427.328H386.84V431.654C386.84 432.41 387.032 432.993 387.414 433.404C387.797 433.805 388.32 434.006 388.982 434.006C389.664 434.006 390.2 433.796 390.592 433.376C390.984 432.956 391.18 432.345 391.18 431.542V427.328H392.454ZM397.321 435.126C396.733 435.126 396.206 435.028 395.739 434.832C395.273 434.627 394.904 434.347 394.633 433.992C394.363 433.628 394.213 433.213 394.185 432.746H395.501C395.539 433.129 395.716 433.441 396.033 433.684C396.36 433.927 396.785 434.048 397.307 434.048C397.793 434.048 398.175 433.941 398.455 433.726C398.735 433.511 398.875 433.241 398.875 432.914C398.875 432.578 398.726 432.331 398.427 432.172C398.129 432.004 397.667 431.841 397.041 431.682C396.472 431.533 396.005 431.383 395.641 431.234C395.287 431.075 394.979 430.847 394.717 430.548C394.465 430.24 394.339 429.839 394.339 429.344C394.339 428.952 394.456 428.593 394.689 428.266C394.923 427.939 395.254 427.683 395.683 427.496C396.113 427.3 396.603 427.202 397.153 427.202C398.003 427.202 398.689 427.417 399.211 427.846C399.734 428.275 400.014 428.863 400.051 429.61H398.777C398.749 429.209 398.586 428.887 398.287 428.644C397.998 428.401 397.606 428.28 397.111 428.28C396.654 428.28 396.29 428.378 396.019 428.574C395.749 428.77 395.613 429.027 395.613 429.344C395.613 429.596 395.693 429.806 395.851 429.974C396.019 430.133 396.225 430.263 396.467 430.366C396.719 430.459 397.065 430.567 397.503 430.688C398.054 430.837 398.502 430.987 398.847 431.136C399.193 431.276 399.487 431.491 399.729 431.78C399.981 432.069 400.112 432.447 400.121 432.914C400.121 433.334 400.005 433.712 399.771 434.048C399.538 434.384 399.207 434.65 398.777 434.846C398.357 435.033 397.872 435.126 397.321 435.126ZM403.572 425.242L403.418 432.242H402.354L402.2 425.242H403.572ZM402.942 435.084C402.699 435.084 402.494 435 402.326 434.832C402.158 434.664 402.074 434.459 402.074 434.216C402.074 433.973 402.158 433.768 402.326 433.6C402.494 433.432 402.699 433.348 402.942 433.348C403.175 433.348 403.371 433.432 403.53 433.6C403.698 433.768 403.782 433.973 403.782 434.216C403.782 434.459 403.698 434.664 403.53 434.832C403.371 435 403.175 435.084 402.942 435.084Z" fill="#4A4A68"/>
<rect x="447.488" y="419" width="24" height="23" rx="8" fill="#29329C"/>
<g clip-path="url(#clip3_4459_8201)">
<path fill-rule="evenodd" clip-rule="evenodd" d="M457.526 426.692C457.552 426.753 457.588 426.808 457.635 426.855L460.782 430.001L457.635 433.147C457.588 433.193 457.552 433.248 457.526 433.309C457.501 433.37 457.488 433.435 457.488 433.501C457.488 433.566 457.501 433.631 457.526 433.692C457.552 433.753 457.588 433.808 457.635 433.855C457.681 433.901 457.737 433.938 457.797 433.963C457.858 433.988 457.923 434.001 457.989 434.001C458.055 434.001 458.12 433.988 458.18 433.963C458.241 433.938 458.296 433.901 458.343 433.855L461.843 430.355C461.889 430.308 461.926 430.253 461.952 430.192C461.977 430.132 461.99 430.066 461.99 430.001C461.99 429.935 461.977 429.87 461.952 429.809C461.926 429.748 461.889 429.693 461.843 429.647L458.343 426.147C458.296 426.1 458.241 426.063 458.18 426.038C458.12 426.013 458.055 426 457.989 426C457.923 426 457.858 426.013 457.797 426.038C457.737 426.063 457.681 426.1 457.635 426.147C457.588 426.193 457.552 426.248 457.526 426.309C457.501 426.37 457.488 426.435 457.488 426.501C457.488 426.566 457.501 426.631 457.526 426.692ZM464.183 426.855C464.236 427.346 464.323 428.047 464.42 428.803L464.964 433.296C464.908 433.428 464.726 433.609 464.135 433.854C464.727 433.742 464.604 433.856 464.518 433.936C464.48 433.972 464.448 434.001 464.489 434.001C464.622 434.001 464.749 433.948 464.842 433.854C464.936 433.76 464.989 433.633 464.989 433.501L464.964 433.296C464.989 433.237 464.989 433.187 464.989 433.147C464.989 433.108 464.909 432.512 464.799 431.682C464.687 430.849 464.545 429.779 464.42 428.803L464.183 426.855ZM464.842 426.147C464.6 426.147 464.446 426.215 464.349 426.309C464.387 426.309 464.403 426.309 464.418 426.305C464.457 426.296 464.489 426.263 464.842 426.147Z" fill="white"/>
<path d="M464.183 426.855C464.183 426.768 464.163 426.49 464.349 426.309C464.216 426.309 464.229 426.053 464.135 426.147C464.117 426.165 464.138 426.433 464.183 426.855Z" fill="white"/>
</g>
</g>
<defs>
<clipPath id="clip0_4459_8201">
<rect width="640" height="473" fill="white" transform="translate(0.488281)"/>
</clipPath>
<clipPath id="clip1_4459_8201">
<rect width="500" height="500" fill="white" transform="translate(70.4883 -63)"/>
</clipPath>
<clipPath id="clip2_4459_8201">
<rect width="12" height="12" fill="white" transform="matrix(-1 0 0 1 185.488 424)"/>
</clipPath>
<clipPath id="clip3_4459_8201">
<rect width="12" height="12" fill="white" transform="translate(451.488 424)"/>
</clipPath>
</defs>
</svg>
