<svg width="640" height="473" viewBox="0 0 640 473" fill="none" xmlns="http://www.w3.org/2000/svg">
<g clip-path="url(#clip0_3624_9540)">
<path d="M318.557 346.797H324.568V235.558H318.557V346.797Z" fill="#B28B67"/>
<path d="M289.713 350.629H322.99V346.789H289.713V350.629Z" fill="#987356"/>
<path d="M318.564 235.551H288.119V346.789H318.564V235.551Z" fill="#B28B67"/>
<path d="M315.319 293.482H291.365V313.348H315.319V293.482Z" fill="#987356"/>
<path d="M315.319 319.478H291.365V339.344H315.319V319.478Z" fill="#987356"/>
<path d="M300.148 304.774H306.527C307.017 304.774 307.414 304.377 307.414 303.887V302.933C307.414 302.443 307.017 302.046 306.527 302.046H300.148C299.659 302.046 299.262 302.443 299.262 302.933V303.887C299.262 304.377 299.659 304.774 300.148 304.774Z" fill="#B28B67"/>
<path d="M300.148 330.77H306.527C307.017 330.77 307.414 330.373 307.414 329.884V328.929C307.414 328.44 307.017 328.043 306.527 328.043H300.148C299.659 328.043 299.262 328.44 299.262 328.929V329.884C299.262 330.373 299.659 330.77 300.148 330.77Z" fill="#B28B67"/>
<path d="M315.319 241.691H291.365V261.557H315.319V241.691Z" fill="#987356"/>
<path d="M315.319 267.476H291.365V287.342H315.319V267.476Z" fill="#987356"/>
<path d="M300.148 252.983H306.527C307.017 252.983 307.414 252.586 307.414 252.096V251.142C307.414 250.652 307.017 250.255 306.527 250.255H300.148C299.659 250.255 299.262 250.652 299.262 251.142V252.096C299.262 252.586 299.659 252.983 300.148 252.983Z" fill="#B28B67"/>
<path d="M300.148 278.778H306.527C307.017 278.778 307.414 278.381 307.414 277.891V276.937C307.414 276.447 307.017 276.05 306.527 276.05H300.148C299.659 276.05 299.262 276.447 299.262 276.937V277.891C299.262 278.381 299.659 278.778 300.148 278.778Z" fill="#B28B67"/>
<path d="M323.012 350.629H348.83V346.789H323.012V350.629Z" fill="#987356"/>
<path d="M351.881 235.551H321.436V346.789H351.881V235.551Z" fill="#B28B67"/>
<path d="M348.633 293.482H324.68V313.348H348.633V293.482Z" fill="#987356"/>
<path d="M348.83 318.786H324.877V338.652H348.83V318.786Z" fill="#987356"/>
<path d="M333.389 301.506H339.768C340.257 301.506 340.654 301.109 340.654 300.62V299.665C340.654 299.176 340.257 298.779 339.768 298.779H333.389C332.899 298.779 332.502 299.176 332.502 299.665V300.62C332.502 301.109 332.899 301.506 333.389 301.506Z" fill="#B28B67"/>
<path d="M333.465 330.77H339.844C340.334 330.77 340.73 330.373 340.73 329.884V328.929C340.73 328.44 340.334 328.043 339.844 328.043H333.465C332.975 328.043 332.578 328.44 332.578 328.929V329.884C332.578 330.373 332.975 330.77 333.465 330.77Z" fill="#B28B67"/>
<path d="M348.83 241.691H324.877V261.557H348.83V241.691Z" fill="#89664C" fill-opacity="0.63"/>
<path d="M348.633 267.476H324.68V287.342H348.633V267.476Z" fill="#987356"/>
<path d="M333.465 252.983H339.844C340.334 252.983 340.73 252.586 340.73 252.096V251.142C340.73 250.652 340.334 250.255 339.844 250.255H333.465C332.975 250.255 332.578 250.652 332.578 251.142V252.096C332.578 252.586 332.975 252.983 333.465 252.983Z" fill="#B28B67"/>
<path d="M333.389 281.219H339.768C340.257 281.219 340.654 280.822 340.654 280.332V279.378C340.654 278.888 340.257 278.491 339.768 278.491H333.389C332.899 278.491 332.502 278.888 332.502 279.378V280.332C332.502 280.822 332.899 281.219 333.389 281.219Z" fill="#B28B67"/>
<path fill-rule="evenodd" clip-rule="evenodd" d="M702.094 379.146C681.719 384.63 578.392 385.884 506.911 388.943C453.7 391.219 407.204 393.728 343.474 394.49C252.185 395.581 145.522 398.271 72.3305 394.138C-2.04444 389.938 19.975 382.528 21.993 376.337C23.9485 370.338 25.9635 364.185 83.5502 359.717C147.723 354.737 240.463 351.014 343.652 351.377C447.529 351.742 539.808 356.232 608.633 361.563C673.155 366.562 724.593 373.09 702.094 379.146Z" fill="#F2F2F2"/>
<path fill-rule="evenodd" clip-rule="evenodd" d="M154.63 125.566C150.527 122.739 147.213 118.816 146.218 113.691C143.351 98.9257 164.38 96.7081 170.265 102.971C176.149 109.235 180.655 127.914 175.933 130.581C174.05 131.644 169.399 131.522 164.305 130.053L172.276 148.79L156.022 153.145L154.63 125.566Z" fill="#BD6850"/>
<path fill-rule="evenodd" clip-rule="evenodd" d="M172.676 105.845C172.261 104.94 171.586 103.993 171.028 103.181C170.309 102.134 169.41 101.257 168.465 100.457C166.686 98.9511 164.699 97.693 162.627 96.7619C158.844 95.0611 154.5 94.6593 150.74 96.1752C148.842 96.9405 147.137 98.1995 145.85 99.8799C144.686 101.398 143.721 103.433 141.856 104.06C139.827 104.743 137.447 103.428 135.49 102.746C133.284 101.978 131.051 101.586 128.773 101.811C124.957 102.188 121.855 104.343 120.14 108.016C118.315 111.924 117.621 117.125 120.513 120.881C121.051 121.579 121.649 122.129 122.4 122.516C123.089 122.871 124.079 123.18 124.519 123.925C124.987 124.716 124.57 126.01 124.5 126.856C124.4 128.067 124.386 129.315 124.824 130.486C125.543 132.408 127.287 133.96 128.945 134.906C130.631 135.869 132.474 136.186 134.319 136.066C135.551 135.985 136.781 135.793 137.946 135.387C138.525 135.186 139.002 134.882 139.539 134.599C140.061 134.323 140.411 134.387 140.964 134.566C143.536 135.395 146.039 135.312 148.513 134.423C150.601 133.673 152.924 132.496 154.274 130.566C155.774 128.422 155.134 126.192 154.038 123.919C154.584 124.029 155.958 123.819 154.905 123.08C154.488 122.787 153.85 122.794 153.386 122.68C152.844 122.549 152.276 122.343 151.796 122.02C149.86 120.714 150.427 116.849 152.134 115.78C154.67 114.191 156.336 117.934 158.579 118.416C159.869 118.693 160.843 117.581 161.475 116.542C162.322 115.15 162.713 113.503 162.99 111.858C163.218 110.504 163.404 109.143 163.645 107.792C163.757 107.161 164.241 105.332 163.615 104.821C165.489 103.896 167.914 104.127 169.907 104.749C170.731 105.006 171.4 105.354 171.987 106.041C172.113 106.188 172.422 106.642 172.648 106.604C173.068 106.532 172.781 106.073 172.676 105.845Z" fill="#191847"/>
<path fill-rule="evenodd" clip-rule="evenodd" d="M138.158 278.136C154.978 282.841 169.489 285.193 181.692 285.193C193.895 285.193 205.23 281.571 215.697 274.326C199.237 269.497 185.682 267.083 175.032 267.083C164.381 267.083 152.09 270.767 138.158 278.136Z" fill="#1F28CF"/>
<path fill-rule="evenodd" clip-rule="evenodd" d="M196.252 291.974C196.09 291.73 195.953 291.465 195.845 291.177C193.596 285.232 157.586 221.091 153.998 209.365H194.541C197.269 218.28 209.546 274.232 211.274 285.395C216.725 303.004 227.949 360.032 229.382 363.983C230.889 368.139 222.408 372.469 220.148 367.359C216.552 359.229 207.983 336.734 204.168 322.998C200.592 310.121 197.679 298.536 196.252 291.974Z" fill="#BD6850"/>
<path fill-rule="evenodd" clip-rule="evenodd" d="M163.086 299.805C146.623 303.966 86.4024 311.488 82.2698 312.668C78.0187 313.882 74.2913 305.119 79.5459 303.221C87.9069 300.201 110.945 293.223 124.913 290.375C136.149 288.084 146.401 286.215 153.284 285.121C152.701 265.786 150.035 219.386 151.782 209.365H187.656C185.98 218.974 171.817 289.094 169.185 296.113C168.35 298.619 165.857 299.726 163.086 299.805Z" fill="#BD6850"/>
<path fill-rule="evenodd" clip-rule="evenodd" d="M79.9194 300.887C77.7212 300.479 76.1101 300.364 75.0864 300.545C73.8413 300.764 72.0609 301.292 69.7453 302.128C70 303.573 72.289 316.554 76.6122 341.072C80.1363 341.494 81.8395 340.592 81.7218 338.364C81.6041 336.137 81.5256 334.283 81.4863 332.803L86.364 313.279C86.4579 312.904 86.2294 312.523 85.8537 312.429C85.8473 312.427 85.8409 312.426 85.8344 312.425L82.8069 311.759C81.5092 309.906 80.7491 308.349 80.5266 307.087C80.3458 306.062 80.5102 304.573 81.0198 302.62L81.0198 302.62C81.2154 301.871 80.7665 301.105 80.0171 300.909C79.9849 300.901 79.9523 300.894 79.9194 300.887Z" fill="#E4E4E4"/>
<path fill-rule="evenodd" clip-rule="evenodd" d="M217.575 366.697C216.791 368.791 216.398 370.358 216.398 371.398C216.398 372.662 216.609 374.507 217.03 376.932C218.497 376.932 231.679 376.932 256.575 376.932C257.602 373.535 257.009 371.701 254.795 371.43C252.581 371.159 250.742 370.915 249.278 370.696L230.898 362.503C230.544 362.345 230.129 362.504 229.972 362.857C229.969 362.864 229.966 362.87 229.964 362.876L228.783 365.742C226.733 366.698 225.067 367.176 223.786 367.176C222.745 367.176 221.307 366.756 219.472 365.915L219.472 365.915C218.768 365.592 217.936 365.901 217.613 366.605C217.6 366.635 217.587 366.666 217.575 366.697Z" fill="#E4E4E4"/>
<path fill-rule="evenodd" clip-rule="evenodd" d="M151.895 209.364C167.704 204.841 182.661 204.841 196.767 209.364C201.675 231.756 213.6 240.644 215.698 274.974C191.859 286.819 162.412 266.527 137.873 278.078C130.862 261.921 140.677 223.011 151.895 209.364Z" fill="#2B44FF"/>
<path fill-rule="evenodd" clip-rule="evenodd" d="M189.284 163.175L210.936 145.823C214.087 140.388 217.365 136.02 220.772 132.719C221.866 132.017 223.881 131.354 222.553 135.126C221.225 138.898 219.997 142.925 221.169 143.808C222.34 144.691 224.535 142.782 226.019 144.331C227.009 145.363 223.14 147.953 214.412 152.098L199.809 171.114L189.284 163.175ZM228.772 167.631L238.28 159.992C238.766 154.111 240.033 150.972 242.081 150.574C243.53 149.562 242.034 157.149 244.917 156.005C247.8 154.862 254.144 148.144 255.597 149.024C257.745 150.327 256.969 155.629 255.453 158.465C252.619 163.767 249.874 165.893 242.762 169.297C239.044 171.077 235.201 174.008 231.234 178.09L228.772 167.631Z" fill="#BD6850"/>
<path fill-rule="evenodd" clip-rule="evenodd" d="M177.094 162.309C185.473 160.74 196.354 156.993 206.962 147.305L213.497 156.939C206.7 166.568 196.3 175.328 186.12 176.83C178.099 178.013 172.316 169.077 177.094 162.309Z" fill="#2026A2"/>
<path fill-rule="evenodd" clip-rule="evenodd" d="M191.356 177.092C200.659 177.743 215.142 172.487 234.803 161.324C241.904 171.171 245.662 178.421 246.078 183.074C229.74 195.647 215.056 202.558 202.398 205.075C204.131 212.544 204.478 219.88 202.551 226.979C198.589 241.573 159.276 235.636 147.231 240.293C134.942 216.293 148.233 203.315 145.381 187.075C142.259 169.29 151.711 139.4 153.812 139.03L172.971 135.652C176.422 149.046 184.382 163.075 191.356 177.092Z" fill="#1F28CF"/>
<path d="M298.165 58.8798L306.24 62.2985L274.173 138.036L266.098 134.617C256.249 130.235 248.514 122.163 244.557 112.135C240.601 102.108 240.738 90.9286 244.941 81.0021C249.144 71.0756 257.076 63.1959 267.03 59.0585C276.984 54.9212 288.164 54.857 298.165 58.8798Z" fill="#EC880F"/>
<path opacity="0.1" d="M298.165 58.8798L306.24 62.2985L274.173 138.036L266.098 134.617C256.249 130.235 248.514 122.163 244.557 112.135C240.601 102.108 240.738 90.9286 244.941 81.0021C249.144 71.0756 257.076 63.1959 267.03 59.0585C276.984 54.9212 288.164 54.857 298.165 58.8798Z" fill="black"/>
<path opacity="0.3" d="M286.027 110.071L284.577 113.496L241.051 95.0673C241.09 93.7631 241.202 92.4622 241.389 91.1709L286.027 110.071Z" fill="#263238"/>
<path opacity="0.3" d="M242.621 108.097L280.137 123.981L274.185 138.041L266.098 134.617C260.451 132.233 255.411 128.613 251.348 124.023C247.285 119.434 244.303 113.991 242.621 108.097V108.097Z" fill="#263238"/>
<path d="M290.671 146.116L290.656 144.739C293.364 144.705 296.063 144.428 298.721 143.91L298.981 145.259C296.242 145.795 293.461 146.082 290.671 146.116V146.116Z" fill="#EC880F"/>
<path d="M307.972 142.518L307.447 141.245C315.884 137.726 323.026 131.684 327.894 123.947L329.042 124.681C324.032 132.662 316.671 138.894 307.972 142.518V142.518Z" fill="#EC880F"/>
<path d="M316.559 131.739C333.992 117.188 336.328 91.2593 321.776 73.8265C307.225 56.3937 281.296 54.058 263.864 68.6095C246.431 83.161 244.095 109.089 258.647 126.522C273.198 143.955 299.127 146.291 316.559 131.739Z" fill="#EC880F"/>
<path opacity="0.1" d="M267.213 75.8138C274.083 70.7773 282.614 68.5471 291.07 69.5768C299.527 70.6066 307.273 74.8189 312.734 81.357C318.195 87.8952 320.96 96.268 320.467 104.772C319.974 113.277 316.26 121.274 310.08 127.138C313.773 124.431 316.871 120.996 319.184 117.045C321.497 113.095 322.976 108.712 323.53 104.167C324.083 99.6228 323.699 95.0131 322.402 90.6227C321.104 86.2323 318.921 82.1544 315.986 78.6408C313.051 75.1271 309.427 72.2522 305.338 70.1934C301.249 68.1347 296.782 66.9359 292.211 66.671C287.641 66.4061 283.065 67.0807 278.765 68.6532C274.466 70.2257 270.534 72.6627 267.213 75.8138Z" fill="black"/>
<path opacity="0.3" d="M341.077 82.0653C340.391 81.965 339.691 82.0502 339.05 82.3119C338.408 82.5736 337.848 83.0023 337.428 83.5535C337.326 83.6552 337.196 83.7241 337.055 83.7514C336.913 83.7788 336.767 83.7634 336.634 83.7073C336.501 83.6511 336.388 83.5567 336.31 83.436C336.231 83.3154 336.19 83.174 336.192 83.03C336.295 82.3429 336.212 81.6407 335.951 80.9967C335.69 80.3528 335.261 79.7906 334.709 79.3691C334.607 79.2669 334.538 79.1368 334.511 78.9954C334.483 78.8539 334.499 78.7075 334.555 78.5749C334.611 78.4422 334.706 78.3292 334.826 78.2505C334.947 78.1717 335.088 78.1306 335.232 78.1325C335.917 78.2361 336.618 78.1543 337.261 77.8957C337.904 77.6371 338.465 77.2111 338.888 76.6619C338.987 76.5529 339.118 76.4774 339.262 76.4458C339.406 76.4143 339.556 76.4282 339.692 76.4856C339.827 76.5431 339.942 76.6413 340.02 76.7667C340.097 76.892 340.134 77.0383 340.125 77.1854C340.024 77.8691 340.108 78.5673 340.367 79.2078C340.626 79.8483 341.052 80.4079 341.6 80.8288C341.709 80.928 341.785 81.0586 341.816 81.2026C341.848 81.3465 341.834 81.4967 341.777 81.6325C341.719 81.7682 341.621 81.8827 341.496 81.9602C341.37 82.0378 341.224 82.0745 341.077 82.0653V82.0653Z" fill="#EC880F"/>
<path opacity="0.2" d="M245.053 129.353C244.531 129.272 243.997 129.334 243.508 129.533C243.018 129.731 242.591 130.058 242.272 130.479C242.198 130.564 242.099 130.624 241.988 130.649C241.878 130.675 241.763 130.665 241.659 130.621C241.554 130.576 241.467 130.501 241.408 130.404C241.35 130.307 241.323 130.194 241.333 130.081C241.412 129.561 241.351 129.03 241.155 128.541C240.959 128.053 240.636 127.626 240.219 127.306C240.133 127.231 240.074 127.132 240.048 127.022C240.023 126.911 240.033 126.796 240.077 126.692C240.121 126.588 240.197 126.5 240.294 126.442C240.391 126.383 240.504 126.357 240.616 126.366C241.135 126.443 241.665 126.379 242.15 126.182C242.636 125.986 243.061 125.663 243.38 125.247C243.454 125.161 243.554 125.102 243.664 125.077C243.774 125.051 243.889 125.061 243.994 125.105C244.098 125.149 244.185 125.225 244.244 125.322C244.302 125.419 244.329 125.532 244.319 125.644C244.243 126.165 244.308 126.696 244.507 127.183C244.706 127.67 245.032 128.095 245.451 128.413C245.536 128.487 245.596 128.587 245.621 128.697C245.647 128.807 245.637 128.923 245.592 129.027C245.548 129.131 245.472 129.219 245.376 129.277C245.279 129.336 245.166 129.362 245.053 129.353V129.353Z" fill="#EC880F"/>
<path opacity="0.4" d="M272.84 47.6767C271.919 47.5373 270.976 47.6485 270.112 47.9985C269.248 48.3484 268.495 48.9244 267.93 49.6659C267.795 49.8148 267.617 49.918 267.421 49.9613C267.225 50.0046 267.021 49.9858 266.836 49.9076C266.651 49.8293 266.495 49.6954 266.39 49.5245C266.284 49.3536 266.235 49.1542 266.248 48.9539C266.388 48.0342 266.278 47.0938 265.93 46.2309C265.583 45.3681 265.01 44.6144 264.271 44.0485C264.119 43.9165 264.013 43.7399 263.968 43.5439C263.923 43.3479 263.94 43.1427 264.019 42.9574C264.097 42.7722 264.232 42.6165 264.404 42.5127C264.577 42.4088 264.777 42.3621 264.978 42.3792C265.898 42.5128 266.837 42.3983 267.698 42.0477C268.559 41.6971 269.311 41.123 269.876 40.3848C270.011 40.2359 270.188 40.1326 270.384 40.0893C270.581 40.046 270.785 40.0648 270.97 40.1431C271.155 40.2214 271.311 40.3552 271.416 40.5261C271.521 40.697 271.571 40.8965 271.558 41.0968C271.42 42.0184 271.532 42.9601 271.882 43.8238C272.231 44.6875 272.807 45.4415 273.547 46.0074C273.699 46.1394 273.805 46.316 273.85 46.512C273.896 46.7079 273.878 46.9132 273.799 47.0985C273.721 47.2837 273.586 47.4394 273.414 47.5432C273.241 47.6471 273.041 47.6938 272.84 47.6767V47.6767Z" fill="#EC880F"/>
<path d="M299.545 91.5992L299.405 92.3384L305.529 93.4994L304.709 97.8287L298.267 96.6077C297.433 98.8926 296.337 100.636 294.979 101.837C293.663 103.009 291.959 103.725 289.868 103.985C287.783 104.21 285.175 104.026 282.042 103.432L281.412 106.758C281.045 108.694 281.159 110.302 281.755 111.581C282.386 112.868 283.688 113.698 285.659 114.072C289.249 114.752 291.428 113.069 292.195 109.021L297.739 110.072C297.03 113.62 295.551 116.129 293.304 117.599C291.098 119.041 288.217 119.425 284.662 118.751C281.107 118.077 278.566 116.574 277.039 114.243C275.547 111.918 275.138 108.978 275.812 105.423L277.184 98.1898C281.091 98.9304 283.979 99.3686 285.85 99.5044C287.727 99.605 289.175 99.3691 290.195 98.7967C291.25 98.2311 292.076 97.1477 292.671 95.5468L275.987 92.3841L276.808 88.0547L293.756 91.2675L293.896 90.5283L294.646 86.5685L277.698 83.3558L278.529 78.9736L307.251 84.4182L306.42 88.8004L300.296 87.6394L299.545 91.5992Z" fill="white"/>
<g clip-path="url(#clip1_3624_9540)">
<path fill-rule="evenodd" clip-rule="evenodd" d="M508.773 151.885C512.204 147.857 514.527 142.92 514.139 137.389C513.02 121.451 490.835 124.957 486.519 133.001C482.203 141.045 482.716 161.45 488.294 162.887C490.518 163.461 495.257 162.056 500.079 159.149L497.052 180.565H514.926L508.773 151.885Z" fill="#B28B67"/>
<path d="M483.147 143.731C483.154 144.098 483.302 144.449 483.56 144.709C483.819 144.969 484.168 145.119 484.535 145.128C484.718 145.137 484.9 145.109 485.072 145.046C485.243 144.983 485.401 144.886 485.534 144.762C485.668 144.637 485.776 144.487 485.851 144.321C485.926 144.154 485.967 143.974 485.971 143.791C485.963 143.425 485.814 143.076 485.556 142.816C485.298 142.556 484.949 142.406 484.583 142.395C484.401 142.386 484.218 142.414 484.047 142.477C483.875 142.54 483.718 142.637 483.584 142.761C483.45 142.886 483.343 143.036 483.268 143.202C483.193 143.369 483.152 143.549 483.147 143.731Z" fill="#263238"/>
<path d="M482.614 140.142C482.796 140.32 483.862 139.488 485.405 139.445C486.949 139.403 488.092 140.147 488.255 139.954C488.418 139.761 488.145 139.537 487.643 139.194C486.963 138.751 486.163 138.528 485.351 138.555C484.559 138.585 483.796 138.862 483.169 139.348C482.677 139.714 482.524 140.054 482.614 140.142Z" fill="#263238"/>
<path d="M497.01 143.7C497.018 144.066 497.167 144.415 497.425 144.675C497.684 144.935 498.032 145.086 498.398 145.096C498.581 145.105 498.763 145.077 498.935 145.015C499.107 144.952 499.265 144.856 499.399 144.732C499.534 144.607 499.642 144.458 499.718 144.291C499.794 144.125 499.836 143.945 499.842 143.762C499.834 143.396 499.685 143.046 499.427 142.787C499.168 142.527 498.82 142.376 498.454 142.365C498.271 142.356 498.088 142.383 497.915 142.445C497.743 142.507 497.585 142.603 497.45 142.728C497.316 142.852 497.207 143.002 497.132 143.169C497.056 143.336 497.015 143.517 497.01 143.7Z" fill="#263238"/>
<path d="M497.444 140.084C497.634 140.264 498.692 139.43 500.233 139.395C501.775 139.361 502.93 140.091 503.085 139.896C503.164 139.812 502.975 139.479 502.473 139.136C501.793 138.693 500.993 138.47 500.181 138.497C499.381 138.522 498.61 138.797 497.975 139.284C497.506 139.664 497.36 140.006 497.444 140.084Z" fill="#263238"/>
<path d="M491.54 152.694C490.722 152.46 489.878 152.332 489.028 152.312C488.634 152.283 488.258 152.215 488.181 151.95C488.148 151.543 488.24 151.136 488.445 150.783C488.791 149.822 489.147 148.812 489.523 147.755C491.019 143.442 492.086 139.9 491.911 139.844C491.736 139.787 490.386 143.23 488.889 147.544C488.531 148.599 488.191 149.612 487.868 150.584C487.633 151.068 487.574 151.618 487.703 152.14C487.765 152.278 487.857 152.399 487.972 152.495C488.088 152.59 488.225 152.658 488.371 152.692C488.588 152.749 488.812 152.774 489.036 152.766C489.871 152.843 490.711 152.819 491.54 152.694V152.694Z" fill="#263238"/>
<path d="M494.065 156.116C493.869 155.954 492.881 157.294 491.016 157.399C489.15 157.504 487.831 156.306 487.684 156.48C487.536 156.654 487.81 156.977 488.406 157.445C489.186 158.04 490.151 158.34 491.131 158.291C492.07 158.242 492.954 157.833 493.599 157.149C494.067 156.618 494.148 156.165 494.065 156.116Z" fill="#263238"/>
<path fill-rule="evenodd" clip-rule="evenodd" d="M478.6 121.851C478.97 120.55 479.966 119.436 481.307 119.106C481.633 119.026 481.969 118.993 482.304 119.007C482.424 119.011 482.457 119.046 482.513 118.962C482.555 118.9 482.556 118.748 482.573 118.675C482.626 118.447 482.693 118.222 482.775 118.004C483.056 117.257 483.528 116.596 484.097 116.04C485.16 114.999 486.598 114.28 488.091 114.15C488.908 114.079 489.72 114.212 490.492 114.478C490.892 114.615 491.28 114.787 491.658 114.976C491.772 115.033 492.141 115.312 492.255 115.294C492.381 115.274 492.634 114.961 492.737 114.882C494.004 113.91 495.569 113.528 497.147 113.54C498.928 113.553 500.644 113.642 502.129 114.728C502.444 114.958 502.743 115.21 503.029 115.475C503.179 115.614 503.324 115.759 503.463 115.91C503.547 116.001 503.628 116.094 503.707 116.189C503.84 116.351 503.818 116.405 504.005 116.291C504.72 115.857 505.548 115.654 506.383 115.756C506.879 115.817 507.361 115.966 507.819 116.162C507.974 116.229 508.335 116.495 508.501 116.497C508.666 116.5 509.022 116.253 509.192 116.191C510.109 115.852 511.097 115.769 512.061 115.925C513.055 116.086 514.031 116.483 514.874 117.031C515.279 117.295 515.632 117.587 515.916 117.979C516.039 118.148 516.15 118.327 516.289 118.484C516.37 118.576 516.531 118.671 516.575 118.787C516.549 118.717 517.662 118.288 517.767 118.261C518.327 118.114 518.897 118.144 519.445 118.324C520.475 118.664 521.362 119.424 522.09 120.204C522.464 120.605 522.792 121.047 523.07 121.519C523.203 121.745 523.325 121.977 523.436 122.215C523.49 122.33 523.526 122.474 523.597 122.577C523.689 122.711 523.751 122.713 523.917 122.771C524.76 123.067 525.529 123.567 526.115 124.243C526.707 124.927 527.091 125.769 527.252 126.656C527.262 126.708 527.267 126.924 527.298 126.953C527.34 126.991 527.51 126.974 527.574 126.982C527.796 127.008 528.017 127.047 528.234 127.098C528.636 127.193 529.026 127.333 529.396 127.516C530.836 128.228 531.866 129.564 532.37 131.068C532.899 132.645 532.89 134.453 532.257 136.001C532.155 136.251 532.034 136.494 531.891 136.724C531.804 136.865 531.775 136.865 531.832 137.013C531.896 137.177 532.011 137.337 532.087 137.498C532.332 138.023 532.504 138.579 532.613 139.147C532.791 140.08 532.879 141.059 532.703 141.999C532.622 142.435 532.48 142.861 532.263 143.25C532.152 143.448 532.023 143.636 531.877 143.809C531.801 143.9 531.721 143.986 531.637 144.068C531.588 144.115 531.525 144.157 531.484 144.209C531.384 144.338 531.363 144.232 531.415 144.421C531.487 144.685 531.65 144.945 531.75 145.201C531.854 145.466 531.947 145.734 532.032 146.004C532.205 146.552 532.351 147.11 532.442 147.678C532.617 148.768 532.586 149.929 532.071 150.929C531.85 151.357 531.534 151.732 531.151 152.024C530.963 152.167 530.76 152.29 530.547 152.391C530.437 152.443 530.297 152.465 530.247 152.571C530.193 152.685 530.273 152.912 530.291 153.039C530.45 154.147 530.529 155.311 530.2 156.397C529.896 157.398 529.228 158.281 528.361 158.866C526.678 160 524.41 159.936 522.641 159.028C522.181 158.791 521.749 158.497 521.365 158.151C520.385 159.469 518.37 159.427 516.938 159.052C515.154 158.584 513.723 157.343 512.899 155.714C511.771 157.087 509.405 156.641 508.623 155.152C508.432 154.788 508.318 154.386 508.263 153.98C508.233 153.766 508.252 153.55 508.23 153.338C508.202 153.068 508.021 152.806 507.917 152.544C507.715 152.036 507.59 151.51 507.585 150.962C507.582 150.675 507.618 150.396 507.645 150.112C507.67 149.856 507.599 149.618 507.559 149.365C508.016 149.441 508.573 149.317 509.004 149.185C509.427 149.054 509.823 148.712 510.122 148.399C510.815 147.672 511.238 146.719 511.528 145.77C512.163 143.688 511.903 141.191 509.809 140.048C508.834 139.516 505.911 139.518 504.75 139.781C503.528 140.057 502.143 142.753 502.075 143.006C502.033 143.163 502.054 143.357 501.91 143.462C501.593 143.691 501.071 143.293 500.838 143.096C500.435 142.756 500.148 142.304 499.899 141.847C499.356 140.849 498.919 139.779 498.61 138.687C498.372 137.844 498.22 136.976 497.909 136.155C497.599 135.339 497.111 134.609 496.352 134.146C495.526 133.643 494.579 133.378 493.673 133.062C492.774 132.749 491.891 132.365 491.195 131.7C491.042 131.554 490.893 131.399 490.77 131.227C490.672 131.091 490.576 130.831 490.428 130.744C490.197 130.61 489.861 130.959 489.662 131.086C488.678 131.71 487.858 132.581 487.196 133.533C486.538 134.479 485.998 135.39 485.56 136.447C485.234 137.23 485.031 138.234 484.459 138.876C484.203 139.163 482.304 139.337 481.688 139.086C481.073 138.836 480.384 138.186 480.177 137.778C479.966 137.361 479.915 136.903 480.005 136.447C480.059 136.178 480.167 135.927 480.226 135.663C480.276 135.442 480.322 135.232 480.43 135.029C480.634 134.644 480.983 134.368 481.404 134.252C480.966 133.848 480.603 133.365 480.352 132.824C480.091 132.263 479.869 131.58 479.806 130.964C479.755 130.463 479.834 129.945 480.108 129.514C480.396 129.063 480.905 128.769 481.345 128.487C480.672 127.961 480.096 127.32 479.623 126.611C478.702 125.233 478.132 123.495 478.6 121.851Z" fill="#191847"/>
<path fill-rule="evenodd" clip-rule="evenodd" d="M564.826 273.657H479.182C472.601 273.657 467.266 278.992 467.266 285.573V354.089C467.266 360.67 472.601 366.005 479.182 366.005H564.826C571.407 366.005 576.742 360.67 576.742 354.089V285.573C576.742 278.992 571.407 273.657 564.826 273.657ZM552.911 294.51C554.556 294.51 555.89 295.844 555.89 297.489V342.173C555.89 343.818 554.556 345.152 552.911 345.152H491.097C489.452 345.152 488.118 343.818 488.118 342.173V297.489C488.118 295.844 489.452 294.51 491.097 294.51H552.911Z" fill="#C5CFD6"/>
<path fill-rule="evenodd" clip-rule="evenodd" d="M414.01 363.518C423.552 342.399 430.453 324.009 433.223 314.306C437.966 297.693 441.574 283.074 442.486 277.615C444.66 264.596 425.758 263.838 423.259 270.308C419.477 280.101 412.875 312.275 404.943 360.872L414.01 363.518ZM524.694 297.239C515.939 293.779 485.279 282.949 470.492 279.885C466.243 279.005 462.125 278.187 458.253 277.448C446.744 275.25 440.781 296.013 451.866 297.609C479.471 301.582 518.606 305.684 521.955 306.145C526.649 306.79 530.196 299.414 524.694 297.239Z" fill="#B28B67"/>
<path fill-rule="evenodd" clip-rule="evenodd" d="M451.185 271.733L498.541 247.626V242.378H492.909C447.095 254.052 423.684 261.534 422.676 264.823C422.665 264.858 422.655 264.894 422.646 264.929C422.623 264.959 422.6 264.99 422.578 265.021C413.498 277.507 408.061 338.469 406.276 343.034L423.674 345.63C430.33 320.95 451.623 303.758 451.057 274.2C451.21 273.333 451.248 272.511 451.185 271.733Z" fill="#1F28CF"/>
<path fill-rule="evenodd" clip-rule="evenodd" d="M494.609 286.05C498.942 285.183 502.932 284.408 506.346 283.81C528.401 279.941 534.832 268.136 531.029 242.378L490.395 242.378C483.757 244.285 449.261 258.751 431.363 266.445C419.518 271.538 423.252 289.896 429.96 294.673C429.996 294.966 430.117 295.165 430.332 295.254C466.418 310.211 494.965 302.363 504.501 304.871L508.912 290.956L494.609 286.05Z" fill="#2B44FF"/>
<path fill-rule="evenodd" clip-rule="evenodd" d="M521.699 295.026C524.063 295.252 525.741 295.608 526.734 296.092C527.941 296.68 529.604 297.741 531.724 299.272C531.041 300.672 524.903 313.257 513.31 337.026C509.588 336.425 508.114 335.004 508.886 332.764C509.658 330.525 510.281 328.655 510.755 327.155L511.49 305.792C511.504 305.381 511.849 305.059 512.26 305.074C512.267 305.074 512.274 305.074 512.281 305.075L515.568 305.281C517.435 303.77 518.667 302.402 519.264 301.179C519.748 300.185 520.017 298.616 520.068 296.473L520.068 296.473C520.088 295.651 520.77 295 521.593 295.02C521.628 295.021 521.663 295.023 521.699 295.026Z" fill="#E4E4E4"/>
<path fill-rule="evenodd" clip-rule="evenodd" d="M418.348 359.602C419.181 361.826 419.598 363.49 419.598 364.595C419.598 365.938 419.374 367.897 418.926 370.474C417.369 370.474 403.367 370.474 376.922 370.474C375.83 366.865 376.461 364.917 378.812 364.629C381.164 364.342 383.118 364.082 384.673 363.85L404.197 355.146C404.572 354.979 405.012 355.148 405.18 355.523C405.183 355.53 405.186 355.536 405.188 355.543L406.443 358.587C408.62 359.603 410.389 360.11 411.751 360.11C412.857 360.11 414.384 359.664 416.332 358.771L416.332 358.771C417.08 358.428 417.964 358.756 418.307 359.504C418.322 359.536 418.335 359.569 418.348 359.602Z" fill="#E4E4E4"/>
<path fill-rule="evenodd" clip-rule="evenodd" d="M455.311 230.554L434.214 251.135C428.076 253.754 423.046 256.645 419.126 259.809C418.244 260.872 417.284 262.91 421.432 261.998C425.581 261.086 429.985 260.314 430.765 261.663C431.545 263.012 429.247 265.079 430.688 266.845C431.649 268.022 434.879 264.278 440.38 255.613L462.318 242.679L455.311 230.554ZM548.952 233.457L533.389 233.518C542.998 264.539 548.186 280.999 548.952 282.897C550.675 287.168 547.028 293.672 545.469 297.167C550.548 299.44 550.007 291.023 556.414 294.004C562.262 296.725 566.711 301.654 573.468 297.485C574.298 296.973 575.209 295.043 573.009 293.535C567.53 289.777 559.633 283.201 558.566 281.037C557.111 278.085 553.906 262.225 548.952 233.457Z" fill="#B28B67"/>
<path fill-rule="evenodd" clip-rule="evenodd" d="M504.725 168.152L498.285 167.047C487.198 194.744 467.84 219.91 440.213 242.546L461.09 267.909C488.714 235.679 505.741 202.427 504.725 168.152Z" fill="#191847"/>
<path fill-rule="evenodd" clip-rule="evenodd" d="M532.797 249.082H475.452C488.738 216.779 495.38 189.338 495.38 166.759L512.678 164.182C526.273 186.046 530.112 212.966 532.797 249.082Z" fill="#DDE3E9"/>
<path fill-rule="evenodd" clip-rule="evenodd" d="M513.047 164.194C513.045 164.19 513.043 164.186 513.04 164.182L511.911 164.182C510.56 164.229 508.502 164.312 505.737 164.434L501.558 176.379C501.115 190.942 498.533 220.292 493.812 264.428H531.402C531.304 267.476 531.141 270.553 530.915 273.658H558.865C554.684 226.49 539.416 189.998 513.061 164.182L513.047 164.194V164.194Z" fill="#2F3676"/>
<path fill-rule="evenodd" clip-rule="evenodd" d="M528.917 225.423C527.847 244.425 525.168 257.524 520.881 264.721H531.39C531.85 251.05 531.026 237.95 528.917 225.423V225.423Z" fill="black" fill-opacity="0.1"/>
<path fill-rule="evenodd" clip-rule="evenodd" d="M523.033 241.634L504.497 233.017V241.634H523.033Z" fill="white" fill-opacity="0.2"/>
<path d="M604.154 296.449C607.808 294.733 611.916 294.235 615.874 295.029C618.004 295.379 620.224 296.029 621.664 297.609C623.104 299.189 623.384 302.019 621.724 303.389C620.652 304.114 619.362 304.443 618.074 304.319C614.974 304.319 611.544 303.739 609.074 305.599C607.664 306.659 606.724 308.429 605.074 308.949C604.23 309.143 603.345 309.058 602.554 308.706C601.762 308.354 601.106 307.755 600.684 306.999C599.883 305.458 599.704 303.668 600.184 301.999C600.374 300.83 600.831 299.722 601.52 298.759C602.208 297.797 603.11 297.006 604.154 296.449V296.449Z" fill="#00BD62"/>
<path d="M595.994 280.679C598.174 283.799 602.404 282.769 604.374 280.869C606.344 278.969 607.164 276.209 607.924 273.589C609.644 267.589 611.384 261.289 610.104 255.179C609.793 253.328 608.98 251.599 607.754 250.179C607.131 249.48 606.336 248.957 605.448 248.662C604.56 248.367 603.61 248.311 602.694 248.499C600.554 249.059 599.224 251.149 598.264 253.149C595.438 259.025 593.958 265.458 593.934 271.979C593.934 274.979 594.274 278.189 595.994 280.689" fill="#00BD62"/>
<path d="M590.004 285.149C591.125 283.687 591.872 281.973 592.178 280.157C592.485 278.341 592.343 276.477 591.764 274.729C590.578 271.216 588.443 268.101 585.594 265.729C582.365 262.868 578.608 260.667 574.534 259.249C572.95 258.602 571.243 258.312 569.534 258.399C568.685 258.447 567.861 258.703 567.134 259.144C566.407 259.585 565.799 260.198 565.364 260.929C564.194 263.149 565.364 265.839 566.514 268.029C568.644 271.9 571.075 275.598 573.784 279.089C575.954 281.899 578.454 284.669 581.784 285.929C585.114 287.189 588.554 287.049 590.314 284.749" fill="#00BD62"/>
<path d="M595.845 327.649C595.956 327.183 596.023 326.707 596.045 326.229C596.145 325.229 596.265 323.909 596.415 322.369C596.609 320.468 596.9 318.579 597.285 316.709C597.788 314.429 598.477 312.195 599.345 310.029C600.189 307.86 601.337 305.823 602.755 303.979C603.91 302.476 605.386 301.249 607.075 300.389C608.208 299.822 609.423 299.438 610.675 299.249C611.151 299.231 611.623 299.164 612.085 299.049C611.606 298.997 611.124 298.997 610.645 299.049C609.336 299.159 608.057 299.498 606.865 300.049C605.086 300.887 603.525 302.126 602.305 303.669C600.827 305.538 599.637 307.617 598.775 309.839C597.914 312.04 597.245 314.312 596.775 316.629C596.409 318.525 596.159 320.442 596.025 322.369C595.905 324.009 595.855 325.369 595.835 326.249C595.789 326.714 595.792 327.184 595.845 327.649V327.649Z" fill="#0A2540"/>
<path d="M596.103 324.679C596.133 324.46 596.133 324.238 596.103 324.019V322.139C596.103 320.519 596.103 318.139 596.183 315.249C596.323 309.419 596.833 303.159 597.793 294.319C598.713 286.019 599.943 276.319 601.243 270.059C601.523 268.629 601.803 267.349 602.063 266.219C602.323 265.089 602.533 264.119 602.743 263.329C602.953 262.539 603.063 261.989 603.183 261.509C603.246 261.297 603.283 261.079 603.293 260.859C603.191 261.055 603.113 261.263 603.063 261.479L602.523 263.269C602.283 264.049 602.033 265.019 601.753 266.149C601.473 267.279 601.143 268.549 600.843 269.979C599.23 277.411 598.018 284.926 597.213 292.489C596.213 301.339 595.813 309.399 595.773 315.239C595.773 318.159 595.773 320.519 595.873 322.149C595.873 322.909 595.953 323.529 595.983 324.029C596.003 324.249 596.043 324.466 596.103 324.679V324.679Z" fill="#0A2540"/>
<path d="M596.144 309.129C596.201 308.463 596.201 307.794 596.144 307.129C596.074 305.869 595.894 304.049 595.544 301.819C595.115 299.208 594.538 296.624 593.814 294.079C592.971 290.947 591.888 287.884 590.574 284.919C588.333 279.449 585.114 274.434 581.074 270.119C580.375 269.376 579.627 268.681 578.834 268.039C578.494 267.749 578.194 267.459 577.834 267.229L576.964 266.629C576.443 266.25 575.892 265.915 575.314 265.629C577.219 267.118 579.026 268.728 580.724 270.449C584.631 274.802 587.766 279.79 589.994 285.199C591.279 288.15 592.364 291.183 593.244 294.279C593.989 296.799 594.603 299.355 595.084 301.939C595.494 304.149 595.724 305.939 595.864 307.199C595.91 307.848 596.004 308.493 596.144 309.129V309.129Z" fill="#0A2540"/>
<path d="M581.125 336.559L582.675 357.899H610.095L611.655 336.559H581.125Z" fill="#0A2540"/>
<path d="M614.925 328.139H578.475V336.549H614.925V328.139Z" fill="#0A2540"/>
<path d="M578.475 357.079V359.409H580.185H614.325V357.079H578.475Z" fill="#455A64"/>
<path d="M581.864 363.519L580.184 359.409H613.014L611.054 363.519H581.864Z" fill="#455A64"/>
<path d="M611.144 343.529C611.144 343.529 611.144 343.599 611.014 343.729L610.604 344.269L609.014 346.269L608.934 346.369L608.874 346.269L604.944 340.839H605.174L601.304 346.309L601.184 346.489L601.054 346.319C599.624 344.629 598.054 342.789 596.474 340.869H596.734L596.484 341.189L592.384 346.319L592.244 346.489L592.124 346.309L588.254 340.849H588.484L583.724 346.269L583.634 346.369L583.574 346.259L582.084 343.749L581.704 343.089C581.653 343.014 581.613 342.934 581.584 342.849C581.644 342.913 581.698 342.984 581.744 343.059L582.164 343.699L583.734 346.159H583.584L588.264 340.669L588.384 340.529L588.494 340.679C589.674 342.329 590.984 344.169 592.394 346.119H592.124L596.214 340.969L596.464 340.659L596.594 340.489L596.734 340.649C598.334 342.569 599.874 344.419 601.304 346.119H601.044L604.944 340.669L605.064 340.509L605.174 340.669L609.014 346.159H608.874C609.574 345.329 610.134 344.659 610.534 344.159L610.984 343.649C611.032 343.602 611.086 343.562 611.144 343.529V343.529Z" fill="#E0E0E0"/>
<path d="M612.034 336.419C612.034 336.509 605.164 336.589 596.694 336.589C588.224 336.589 581.344 336.509 581.344 336.419C581.344 336.329 588.214 336.249 596.674 336.249C605.134 336.249 612.034 336.319 612.034 336.419Z" fill="#455A64"/>
<path d="M613.424 359.639C613.424 359.739 605.954 359.809 596.744 359.809C587.534 359.809 580.074 359.739 580.074 359.639C580.074 359.539 587.534 359.469 596.744 359.469C605.954 359.469 613.424 359.549 613.424 359.639Z" fill="#0A2540"/>
<path d="M491.455 364.56C491.044 364.56 490.649 364.397 490.358 364.106C490.068 363.816 489.904 363.421 489.904 363.01C489.904 362.599 490.068 362.204 490.358 361.914C490.649 361.623 491.044 361.459 491.455 361.459L558.32 361.501H558.479C561.309 361.602 563.989 362.797 565.955 364.834C567.921 366.871 569.02 369.592 569.02 372.424C569.02 375.255 567.921 377.976 565.955 380.013C563.989 382.051 561.309 383.246 558.479 383.347H558.147L491.455 383.319C491.061 383.292 490.691 383.117 490.421 382.829C490.151 382.54 490.001 382.16 490.001 381.765C490.001 381.37 490.151 380.989 490.421 380.701C490.691 380.412 491.061 380.237 491.455 380.211V364.56Z" fill="#407BFF"/>
<path d="M527.124 380.253L459.871 380.211V364.561L527.124 364.602C528.553 364.609 529.953 365.007 531.173 365.751C532.392 366.495 533.386 367.558 534.046 368.825V368.825C534.626 369.94 534.929 371.178 534.929 372.434C534.929 373.691 534.626 374.929 534.046 376.044V376.044C533.387 377.311 532.393 378.373 531.173 379.115C529.953 379.857 528.552 380.251 527.124 380.253V380.253Z" fill="white"/>
<path d="M537.501 372.438C537.5 369.598 536.395 366.869 534.418 364.829C532.442 362.789 529.749 361.598 526.91 361.508H526.758L459.892 361.467C459.481 361.467 459.087 361.63 458.796 361.921C458.505 362.212 458.342 362.606 458.342 363.017C458.342 363.429 458.505 363.823 458.796 364.114C459.087 364.404 459.481 364.568 459.892 364.568L526.592 364.609C528.627 364.67 530.558 365.521 531.976 366.982C533.394 368.443 534.188 370.399 534.188 372.435C534.188 374.471 533.394 376.426 531.976 377.887C530.558 379.348 528.627 380.199 526.592 380.26L459.899 380.218C459.505 380.245 459.136 380.42 458.866 380.708C458.596 380.997 458.446 381.377 458.446 381.772C458.446 382.167 458.596 382.548 458.866 382.836C459.136 383.125 459.505 383.3 459.899 383.326L526.592 383.368H526.924C529.759 383.271 532.446 382.077 534.419 380.039C536.392 378 537.497 375.275 537.501 372.438V372.438Z" fill="#407BFF"/>
<g opacity="0.2">
<path d="M537.501 372.438C537.5 369.598 536.395 366.869 534.418 364.829C532.442 362.789 529.749 361.598 526.91 361.508H526.758L459.892 361.467C459.481 361.467 459.087 361.63 458.796 361.921C458.505 362.212 458.342 362.606 458.342 363.017C458.342 363.429 458.505 363.823 458.796 364.114C459.087 364.404 459.481 364.568 459.892 364.568L526.592 364.609C528.627 364.67 530.558 365.521 531.976 366.982C533.394 368.443 534.188 370.399 534.188 372.435C534.188 374.471 533.394 376.426 531.976 377.887C530.558 379.348 528.627 380.199 526.592 380.26L459.899 380.218C459.505 380.245 459.136 380.42 458.866 380.708C458.596 380.997 458.446 381.377 458.446 381.772C458.446 382.167 458.596 382.548 458.866 382.836C459.136 383.125 459.505 383.3 459.899 383.326L526.592 383.368H526.924C529.759 383.271 532.446 382.077 534.419 380.039C536.392 378 537.497 375.275 537.501 372.438V372.438Z" fill="white"/>
</g>
<path opacity="0.2" d="M459.879 369.295L526.288 369.337C526.361 369.345 526.436 369.338 526.507 369.316C526.577 369.293 526.642 369.256 526.698 369.207C526.753 369.158 526.797 369.097 526.828 369.029C526.858 368.962 526.874 368.888 526.874 368.814C526.874 368.74 526.858 368.667 526.828 368.599C526.797 368.531 526.753 368.471 526.698 368.421C526.642 368.372 526.577 368.335 526.507 368.313C526.436 368.29 526.361 368.283 526.288 368.292L459.879 368.25V369.295Z" fill="black"/>
<path opacity="0.2" d="M459.879 372.908L526.288 372.95C526.416 372.935 526.534 372.874 526.62 372.777C526.706 372.681 526.753 372.556 526.753 372.427C526.753 372.298 526.706 372.174 526.62 372.077C526.534 371.981 526.416 371.919 526.288 371.905L459.879 371.863V372.908Z" fill="black"/>
<path opacity="0.2" d="M459.872 376.529L526.281 376.57C526.354 376.579 526.429 376.572 526.5 376.549C526.571 376.527 526.636 376.49 526.691 376.44C526.746 376.391 526.791 376.331 526.821 376.263C526.851 376.195 526.867 376.122 526.867 376.048C526.867 375.974 526.851 375.9 526.821 375.833C526.791 375.765 526.746 375.704 526.691 375.655C526.636 375.606 526.571 375.569 526.5 375.546C526.429 375.524 526.354 375.517 526.281 375.525L459.865 375.484L459.872 376.529Z" fill="black"/>
<path d="M479.689 342.66C479.278 342.66 478.884 342.496 478.593 342.206C478.302 341.915 478.139 341.521 478.139 341.109C478.139 340.698 478.302 340.304 478.593 340.013C478.884 339.722 479.278 339.559 479.689 339.559L546.555 339.6H546.721C549.569 339.672 552.277 340.854 554.266 342.894C556.255 344.934 557.369 347.67 557.369 350.52C557.369 353.369 556.255 356.105 554.266 358.145C552.277 360.185 549.569 361.367 546.721 361.439H546.555H546.382L479.689 361.397C479.295 361.371 478.925 361.196 478.656 360.907C478.386 360.619 478.236 360.239 478.236 359.843C478.236 359.448 478.386 359.068 478.656 358.779C478.925 358.491 479.295 358.316 479.689 358.289V342.66Z" fill="#407BFF"/>
<g opacity="0.5">
<path d="M479.689 342.66C479.278 342.66 478.884 342.496 478.593 342.206C478.302 341.915 478.139 341.521 478.139 341.109C478.139 340.698 478.302 340.304 478.593 340.013C478.884 339.722 479.278 339.559 479.689 339.559L546.555 339.6H546.721C549.569 339.672 552.277 340.854 554.266 342.894C556.255 344.934 557.369 347.67 557.369 350.52C557.369 353.369 556.255 356.105 554.266 358.145C552.277 360.185 549.569 361.367 546.721 361.439H546.555H546.382L479.689 361.397C479.295 361.371 478.925 361.196 478.656 360.907C478.386 360.619 478.236 360.239 478.236 359.843C478.236 359.448 478.386 359.068 478.656 358.779C478.925 358.491 479.295 358.316 479.689 358.289V342.66Z" fill="white"/>
</g>
<path d="M515.337 358.352L448.084 358.311V342.66L515.337 342.702C516.767 342.705 518.168 343.1 519.388 343.845C520.609 344.589 521.602 345.654 522.259 346.924V346.924C522.841 348.038 523.144 349.277 523.144 350.534C523.144 351.791 522.841 353.029 522.259 354.144V354.144C521.6 355.411 520.606 356.473 519.386 357.215C518.166 357.957 516.765 358.35 515.337 358.352V358.352Z" fill="white"/>
<path d="M525.712 350.537C525.712 347.697 524.607 344.97 522.632 342.93C520.657 340.89 517.966 339.699 515.129 339.607H514.99L448.125 339.565C447.714 339.565 447.319 339.729 447.028 340.02C446.738 340.31 446.574 340.705 446.574 341.116C446.574 341.527 446.738 341.922 447.028 342.212C447.319 342.503 447.714 342.666 448.125 342.666L514.817 342.708C515.864 342.677 516.907 342.856 517.884 343.235C518.86 343.615 519.751 344.186 520.503 344.916C521.254 345.645 521.852 346.519 522.26 347.484C522.668 348.448 522.879 349.486 522.879 350.533C522.879 351.581 522.668 352.618 522.26 353.583C521.852 354.548 521.254 355.421 520.503 356.151C519.751 356.88 518.86 357.452 517.884 357.831C516.907 358.21 515.864 358.39 514.817 358.358L448.118 358.317C447.724 358.343 447.354 358.518 447.084 358.807C446.814 359.095 446.664 359.476 446.664 359.871C446.664 360.266 446.814 360.646 447.084 360.935C447.354 361.223 447.724 361.398 448.118 361.425L514.81 361.466H514.983H515.149C517.984 361.371 520.671 360.178 522.642 358.138C524.613 356.099 525.714 353.373 525.712 350.537Z" fill="#407BFF"/>
<g opacity="0.4">
<path d="M525.712 350.537C525.712 347.697 524.607 344.97 522.632 342.93C520.657 340.89 517.966 339.699 515.129 339.607H514.99L448.125 339.565C447.714 339.565 447.319 339.729 447.028 340.02C446.738 340.31 446.574 340.705 446.574 341.116C446.574 341.527 446.738 341.922 447.028 342.212C447.319 342.503 447.714 342.666 448.125 342.666L514.817 342.708C515.864 342.677 516.907 342.856 517.884 343.235C518.86 343.615 519.751 344.186 520.503 344.916C521.254 345.645 521.852 346.519 522.26 347.484C522.668 348.448 522.879 349.486 522.879 350.533C522.879 351.581 522.668 352.618 522.26 353.583C521.852 354.548 521.254 355.421 520.503 356.151C519.751 356.88 518.86 357.452 517.884 357.831C516.907 358.21 515.864 358.39 514.817 358.358L448.118 358.317C447.724 358.343 447.354 358.518 447.084 358.807C446.814 359.095 446.664 359.476 446.664 359.871C446.664 360.266 446.814 360.646 447.084 360.935C447.354 361.223 447.724 361.398 448.118 361.425L514.81 361.466H514.983H515.149C517.984 361.371 520.671 360.178 522.642 358.138C524.613 356.099 525.714 353.373 525.712 350.537Z" fill="white"/>
</g>
<g opacity="0.2">
<path d="M448.09 347.408L514.54 347.45C514.608 347.451 514.676 347.438 514.74 347.412C514.803 347.387 514.861 347.348 514.909 347.3C514.958 347.252 514.996 347.194 515.022 347.131C515.047 347.067 515.06 346.999 515.059 346.931C515.057 346.794 515.002 346.663 514.905 346.566C514.808 346.469 514.677 346.413 514.54 346.412L448.09 346.37V347.408Z" fill="black"/>
<path d="M448.09 351.008L514.498 351.05C514.572 351.058 514.647 351.051 514.718 351.029C514.788 351.006 514.853 350.969 514.909 350.92C514.964 350.87 515.008 350.81 515.039 350.742C515.069 350.675 515.085 350.601 515.085 350.527C515.085 350.453 515.069 350.38 515.039 350.312C515.008 350.244 514.964 350.184 514.909 350.134C514.853 350.085 514.788 350.048 514.718 350.026C514.647 350.003 514.572 349.996 514.498 350.004L448.09 349.963V351.008Z" fill="black"/>
<path d="M448.09 354.621L514.498 354.669C514.627 354.655 514.745 354.593 514.831 354.497C514.917 354.401 514.964 354.276 514.964 354.147C514.964 354.018 514.917 353.893 514.831 353.797C514.745 353.7 514.627 353.639 514.498 353.624L448.09 353.583V354.621Z" fill="black"/>
</g>
<path d="M503.313 347.436V358.317L499.52 354.891L495.74 358.317V347.436L499.52 347.457L503.313 347.436Z" fill="#407BFF"/>
</g>
<path d="M624.018 74.1802H529.465V78.3927H624.018V74.1802Z" fill="#787676"/>
<path d="M548.782 76.2075H544.943V90.584H548.782V76.2075Z" fill="#787676"/>
<path d="M606.085 76.2075H602.246V90.584H606.085V76.2075Z" fill="#787676"/>
<path d="M588.178 37.8685C588.335 37.7176 589.385 38.4853 590.769 40.0601C591.571 40.9873 592.303 41.972 592.961 43.0062C594.581 45.5619 595.778 48.3627 596.504 51.3001C596.812 52.4963 597.031 53.7135 597.16 54.9418C597.351 57.0415 597.16 58.3407 596.964 58.3473C596.471 58.3867 596.019 53.308 593.571 47.6781C591.124 42.0483 587.817 38.2097 588.178 37.8685Z" fill="#49C62A"/>
<path d="M598.583 62.56C598.367 62.56 597.77 59.8107 597.219 55.2569C596.667 50.7032 596.195 44.3909 596.018 37.4093C595.841 30.4278 595.906 24.1024 596.018 19.529C596.129 14.9555 596.366 12.134 596.595 12.134C596.825 12.134 597.028 14.9621 597.186 19.529C597.343 24.0958 597.461 30.4015 597.645 37.3634C597.829 44.3253 598.104 50.6047 598.36 55.1585C598.616 59.7122 598.82 62.56 598.583 62.56Z" fill="#49C62A"/>
<path d="M608.663 22.8682C608.873 22.9863 608.007 24.9286 606.872 28.17C605.737 31.4114 604.247 35.9389 602.876 40.9979C601.505 46.0569 600.415 50.696 599.766 54.0752C599.116 57.4544 598.847 59.5607 598.604 59.5542C598.362 59.5476 598.217 57.3691 598.604 53.8915C599.151 49.3813 600.042 44.9196 601.268 40.5452C602.443 36.1631 603.95 31.8769 605.776 27.7238C607.207 24.5414 608.46 22.7567 608.663 22.8682Z" fill="#49C62A"/>
<path d="M585.633 56.7612V62.3189C585.619 65.4435 586.844 68.4462 589.039 70.6697C591.234 72.8932 594.221 74.1563 597.345 74.1823V74.1823C600.471 74.158 603.46 72.8957 605.656 70.672C607.853 68.4483 609.078 65.4446 609.064 62.3189V56.7612H585.633Z" fill="#A4DEE6"/>
<path d="M609.274 61.4595C609.274 61.5579 603.979 61.6301 597.463 61.6301C590.948 61.6301 585.652 61.5579 585.652 61.4595C585.652 61.361 590.948 61.2954 597.463 61.2954C603.979 61.2954 609.274 61.3676 609.274 61.4595Z" fill="#FAFAFA"/>
<path d="M609.274 63.0063C609.274 63.0982 603.979 63.1703 597.463 63.1703C590.948 63.1703 585.652 63.0982 585.652 63.0063C585.652 62.9144 590.948 62.8357 597.463 62.8357C603.979 62.8357 609.274 62.9079 609.274 63.0063Z" fill="#FAFAFA"/>
<path d="M567.217 60.5277L567.189 55.272L541.376 55.4071L541.404 60.6629L567.217 60.5277Z" fill="#E1D355"/>
<path d="M570.324 74.1662L570.281 66.0037L541.516 66.1543L541.558 74.3168L570.324 74.1662Z" fill="#914C4C"/>
<path d="M564.787 74.1099C564.643 72.7545 564.595 71.3907 564.643 70.0286C564.595 68.6664 564.643 67.3026 564.787 65.9473C564.922 67.3032 564.968 68.6666 564.925 70.0286C564.968 71.3906 564.922 72.754 564.787 74.1099Z" fill="#E0E0E0"/>
<path d="M566.014 74.1099C565.87 72.7545 565.822 71.3907 565.869 70.0286C565.822 68.6664 565.87 67.3026 566.014 65.9473C566.149 67.3032 566.195 68.6666 566.151 70.0286C566.195 71.3906 566.149 72.754 566.014 74.1099V74.1099Z" fill="#E0E0E0"/>
<path d="M545.882 74.1099C545.747 72.754 545.701 71.3906 545.744 70.0286C545.701 68.6666 545.747 67.3032 545.882 65.9473C546.026 67.3026 546.074 68.6664 546.027 70.0286C546.074 71.3907 546.026 72.7545 545.882 74.1099V74.1099Z" fill="#E0E0E0"/>
<path d="M547.096 74.1099C546.952 72.7545 546.904 71.3907 546.951 70.0286C546.904 68.6664 546.952 67.3026 547.096 65.9473C547.231 67.3032 547.277 68.6666 547.233 70.0286C547.277 71.3906 547.231 72.754 547.096 74.1099Z" fill="#E0E0E0"/>
<path d="M549.734 70.1581C549.734 70.0793 552.635 70.0203 556.211 70.0203C559.787 70.0203 562.694 70.0793 562.694 70.1581C562.694 70.2368 559.793 70.3024 556.211 70.3024C552.628 70.3024 549.734 70.2368 549.734 70.1581Z" fill="#E0E0E0"/>
<path d="M581.123 65.6615L581.096 60.4058L545.598 60.5916L545.625 65.8474L581.123 65.6615Z" fill="#887ADD"/>
<path d="M576.045 65.0068C576.973 65.0068 577.725 64.2459 577.725 63.3074C577.725 62.3688 576.973 61.6079 576.045 61.6079C575.117 61.6079 574.365 62.3688 574.365 63.3074C574.365 64.2459 575.117 65.0068 576.045 65.0068Z" fill="#E0E0E0"/>
<path d="M571.434 63.8343V62.7844H547.667V63.8343H571.434Z" fill="#E0E0E0"/>
<rect width="24" height="23" rx="8" transform="matrix(-1 0 0 1 188.697 419)" fill="#29329C"/>
<g clip-path="url(#clip2_3624_9540)">
<path fill-rule="evenodd" clip-rule="evenodd" d="M178.659 426.691C178.634 426.752 178.597 426.807 178.551 426.854L175.404 430L178.551 433.146C178.597 433.192 178.634 433.248 178.659 433.308C178.684 433.369 178.697 433.434 178.697 433.5C178.697 433.566 178.684 433.631 178.659 433.691C178.634 433.752 178.597 433.807 178.551 433.854C178.504 433.9 178.449 433.937 178.388 433.962C178.327 433.988 178.262 434.001 178.197 434.001C178.131 434.001 178.066 433.988 178.005 433.962C177.944 433.937 177.889 433.9 177.843 433.854L174.343 430.354C174.296 430.307 174.259 430.252 174.234 430.192C174.209 430.131 174.196 430.066 174.196 430C174.196 429.934 174.209 429.869 174.234 429.808C174.259 429.748 174.296 429.692 174.343 429.646L177.843 426.146C177.889 426.099 177.944 426.063 178.005 426.037C178.066 426.012 178.131 425.999 178.197 425.999C178.262 425.999 178.327 426.012 178.388 426.037C178.449 426.063 178.504 426.099 178.551 426.146C178.597 426.192 178.634 426.248 178.659 426.308C178.684 426.369 178.697 426.434 178.697 426.5C178.697 426.566 178.684 426.631 178.659 426.691ZM172.002 426.854C171.949 427.346 171.863 428.046 171.766 428.802L171.221 433.295C171.277 433.427 171.459 433.609 172.05 433.853C171.458 433.741 171.581 433.855 171.668 433.935C171.706 433.971 171.737 434 171.697 434C171.564 434 171.437 433.947 171.343 433.853C171.249 433.76 171.197 433.633 171.197 433.5L171.221 433.295C171.197 433.236 171.197 433.187 171.197 433.146C171.197 433.107 171.276 432.511 171.387 431.682C171.498 430.848 171.641 429.779 171.766 428.802L172.002 426.854ZM171.343 426.146C171.586 426.146 171.739 426.214 171.837 426.308C171.799 426.308 171.783 426.308 171.767 426.305C171.729 426.295 171.696 426.262 171.343 426.146Z" fill="white"/>
<path d="M172.002 426.854C172.002 426.767 172.023 426.489 171.837 426.308C171.969 426.308 171.956 426.053 172.05 426.146C172.068 426.164 172.048 426.432 172.002 426.854Z" fill="white"/>
</g>
<path d="M209.039 426.242L206.211 436H204.783L202.515 428.146L200.163 436L198.749 436.014L196.019 426.242H197.377L199.505 434.516L201.857 426.242H203.285L205.525 434.488L207.667 426.242H209.039ZM213.779 436.126C213.061 436.126 212.407 435.963 211.819 435.636C211.241 435.309 210.783 434.847 210.447 434.25C210.121 433.643 209.957 432.943 209.957 432.15C209.957 431.366 210.125 430.675 210.461 430.078C210.807 429.471 211.273 429.009 211.861 428.692C212.449 428.365 213.107 428.202 213.835 428.202C214.563 428.202 215.221 428.365 215.809 428.692C216.397 429.009 216.859 429.467 217.195 430.064C217.541 430.661 217.713 431.357 217.713 432.15C217.713 432.943 217.536 433.643 217.181 434.25C216.836 434.847 216.365 435.309 215.767 435.636C215.17 435.963 214.507 436.126 213.779 436.126ZM213.779 435.006C214.237 435.006 214.666 434.899 215.067 434.684C215.469 434.469 215.791 434.147 216.033 433.718C216.285 433.289 216.411 432.766 216.411 432.15C216.411 431.534 216.29 431.011 216.047 430.582C215.805 430.153 215.487 429.835 215.095 429.63C214.703 429.415 214.279 429.308 213.821 429.308C213.355 429.308 212.925 429.415 212.533 429.63C212.151 429.835 211.843 430.153 211.609 430.582C211.376 431.011 211.259 431.534 211.259 432.15C211.259 432.775 211.371 433.303 211.595 433.732C211.829 434.161 212.137 434.483 212.519 434.698C212.902 434.903 213.322 435.006 213.779 435.006ZM220.663 429.574C220.887 429.135 221.204 428.795 221.615 428.552C222.035 428.309 222.543 428.188 223.141 428.188V429.504H222.805C221.377 429.504 220.663 430.279 220.663 431.828V436H219.389V428.328H220.663V429.574ZM228.895 436L225.885 432.612V436H224.611V425.64H225.885V431.73L228.839 428.328H230.617L227.005 432.15L230.631 436H228.895ZM235.073 432.136C235.073 431.352 235.231 430.666 235.549 430.078C235.866 429.481 236.3 429.019 236.851 428.692C237.411 428.365 238.031 428.202 238.713 428.202C239.385 428.202 239.968 428.347 240.463 428.636C240.957 428.925 241.326 429.289 241.569 429.728V428.328H242.857V436H241.569V434.572C241.317 435.02 240.939 435.393 240.435 435.692C239.94 435.981 239.361 436.126 238.699 436.126C238.017 436.126 237.401 435.958 236.851 435.622C236.3 435.286 235.866 434.815 235.549 434.208C235.231 433.601 235.073 432.911 235.073 432.136ZM241.569 432.15C241.569 431.571 241.452 431.067 241.219 430.638C240.985 430.209 240.668 429.882 240.267 429.658C239.875 429.425 239.441 429.308 238.965 429.308C238.489 429.308 238.055 429.42 237.663 429.644C237.271 429.868 236.958 430.195 236.725 430.624C236.491 431.053 236.375 431.557 236.375 432.136C236.375 432.724 236.491 433.237 236.725 433.676C236.958 434.105 237.271 434.437 237.663 434.67C238.055 434.894 238.489 435.006 238.965 435.006C239.441 435.006 239.875 434.894 240.267 434.67C240.668 434.437 240.985 434.105 241.219 433.676C241.452 433.237 241.569 432.729 241.569 432.15ZM248.748 428.188C249.681 428.188 250.437 428.473 251.016 429.042C251.594 429.602 251.884 430.414 251.884 431.478V436H250.624V431.66C250.624 430.895 250.432 430.311 250.05 429.91C249.667 429.499 249.144 429.294 248.482 429.294C247.81 429.294 247.273 429.504 246.872 429.924C246.48 430.344 246.284 430.955 246.284 431.758V436H245.01V428.328H246.284V429.42C246.536 429.028 246.876 428.725 247.306 428.51C247.744 428.295 248.225 428.188 248.748 428.188ZM260.573 428.328L255.953 439.612H254.637L256.149 435.916L253.055 428.328H254.469L256.877 434.544L259.257 428.328H260.573ZM263.407 429.378V433.9C263.407 434.273 263.487 434.539 263.645 434.698C263.804 434.847 264.079 434.922 264.471 434.922H265.409V436H264.261C263.552 436 263.02 435.837 262.665 435.51C262.311 435.183 262.133 434.647 262.133 433.9V429.378H261.139V428.328H262.133V426.396H263.407V428.328H265.409V429.378H263.407ZM267.611 427.082C267.368 427.082 267.163 426.998 266.995 426.83C266.827 426.662 266.743 426.457 266.743 426.214C266.743 425.971 266.827 425.766 266.995 425.598C267.163 425.43 267.368 425.346 267.611 425.346C267.844 425.346 268.04 425.43 268.199 425.598C268.367 425.766 268.451 425.971 268.451 426.214C268.451 426.457 268.367 426.662 268.199 426.83C268.04 426.998 267.844 427.082 267.611 427.082ZM268.227 428.328V436H266.953V428.328H268.227ZM279.624 428.188C280.222 428.188 280.754 428.314 281.22 428.566C281.687 428.809 282.056 429.177 282.326 429.672C282.597 430.167 282.732 430.769 282.732 431.478V436H281.472V431.66C281.472 430.895 281.281 430.311 280.898 429.91C280.525 429.499 280.016 429.294 279.372 429.294C278.71 429.294 278.182 429.509 277.79 429.938C277.398 430.358 277.202 430.969 277.202 431.772V436H275.942V431.66C275.942 430.895 275.751 430.311 275.368 429.91C274.995 429.499 274.486 429.294 273.842 429.294C273.18 429.294 272.652 429.509 272.26 429.938C271.868 430.358 271.672 430.969 271.672 431.772V436H270.398V428.328H271.672V429.434C271.924 429.033 272.26 428.725 272.68 428.51C273.11 428.295 273.581 428.188 274.094 428.188C274.738 428.188 275.308 428.333 275.802 428.622C276.297 428.911 276.666 429.336 276.908 429.896C277.123 429.355 277.478 428.935 277.972 428.636C278.467 428.337 279.018 428.188 279.624 428.188ZM291.822 431.87C291.822 432.113 291.808 432.369 291.78 432.64H285.648C285.695 433.396 285.951 433.989 286.418 434.418C286.894 434.838 287.468 435.048 288.14 435.048C288.691 435.048 289.148 434.922 289.512 434.67C289.885 434.409 290.147 434.063 290.296 433.634H291.668C291.463 434.371 291.052 434.973 290.436 435.44C289.82 435.897 289.055 436.126 288.14 436.126C287.412 436.126 286.759 435.963 286.18 435.636C285.611 435.309 285.163 434.847 284.836 434.25C284.509 433.643 284.346 432.943 284.346 432.15C284.346 431.357 284.505 430.661 284.822 430.064C285.139 429.467 285.583 429.009 286.152 428.692C286.731 428.365 287.393 428.202 288.14 428.202C288.868 428.202 289.512 428.361 290.072 428.678C290.632 428.995 291.061 429.434 291.36 429.994C291.668 430.545 291.822 431.17 291.822 431.87ZM290.506 431.604C290.506 431.119 290.399 430.703 290.184 430.358C289.969 430.003 289.675 429.737 289.302 429.56C288.938 429.373 288.532 429.28 288.084 429.28C287.44 429.28 286.889 429.485 286.432 429.896C285.984 430.307 285.727 430.876 285.662 431.604H290.506ZM294.82 434.236L293.252 438.002H292.398L293.42 434.236H294.82ZM299.536 432.136C299.536 431.352 299.694 430.666 300.012 430.078C300.329 429.481 300.763 429.019 301.314 428.692C301.874 428.365 302.494 428.202 303.176 428.202C303.848 428.202 304.431 428.347 304.926 428.636C305.42 428.925 305.789 429.289 306.032 429.728V428.328H307.32V436H306.032V434.572C305.78 435.02 305.402 435.393 304.898 435.692C304.403 435.981 303.824 436.126 303.162 436.126C302.48 436.126 301.864 435.958 301.314 435.622C300.763 435.286 300.329 434.815 300.012 434.208C299.694 433.601 299.536 432.911 299.536 432.136ZM306.032 432.15C306.032 431.571 305.915 431.067 305.682 430.638C305.448 430.209 305.131 429.882 304.73 429.658C304.338 429.425 303.904 429.308 303.428 429.308C302.952 429.308 302.518 429.42 302.126 429.644C301.734 429.868 301.421 430.195 301.188 430.624C300.954 431.053 300.838 431.557 300.838 432.136C300.838 432.724 300.954 433.237 301.188 433.676C301.421 434.105 301.734 434.437 302.126 434.67C302.518 434.894 302.952 435.006 303.428 435.006C303.904 435.006 304.338 434.894 304.73 434.67C305.131 434.437 305.448 434.105 305.682 433.676C305.915 433.237 306.032 432.729 306.032 432.15ZM313.211 428.188C314.144 428.188 314.9 428.473 315.479 429.042C316.057 429.602 316.347 430.414 316.347 431.478V436H315.087V431.66C315.087 430.895 314.895 430.311 314.513 429.91C314.13 429.499 313.607 429.294 312.945 429.294C312.273 429.294 311.736 429.504 311.335 429.924C310.943 430.344 310.747 430.955 310.747 431.758V436H309.473V428.328H310.747V429.42C310.999 429.028 311.339 428.725 311.769 428.51C312.207 428.295 312.688 428.188 313.211 428.188ZM325.036 428.328L320.416 439.612H319.1L320.612 435.916L317.518 428.328H318.932L321.34 434.544L323.72 428.328H325.036ZM336.536 428.328L334.142 436H332.826L330.978 429.91L329.13 436H327.814L325.406 428.328H326.708L328.472 434.768L330.376 428.328H331.678L333.54 434.782L335.276 428.328H336.536ZM341.609 428.188C342.187 428.188 342.71 428.314 343.177 428.566C343.643 428.809 344.007 429.177 344.269 429.672C344.539 430.167 344.675 430.769 344.675 431.478V436H343.415V431.66C343.415 430.895 343.223 430.311 342.841 429.91C342.458 429.499 341.935 429.294 341.273 429.294C340.601 429.294 340.064 429.504 339.663 429.924C339.271 430.344 339.075 430.955 339.075 431.758V436H337.801V425.64H339.075V429.42C339.327 429.028 339.672 428.725 340.111 428.51C340.559 428.295 341.058 428.188 341.609 428.188ZM353.756 431.87C353.756 432.113 353.742 432.369 353.714 432.64H347.582C347.628 433.396 347.885 433.989 348.352 434.418C348.828 434.838 349.402 435.048 350.074 435.048C350.624 435.048 351.082 434.922 351.446 434.67C351.819 434.409 352.08 434.063 352.23 433.634H353.602C353.396 434.371 352.986 434.973 352.37 435.44C351.754 435.897 350.988 436.126 350.074 436.126C349.346 436.126 348.692 435.963 348.114 435.636C347.544 435.309 347.096 434.847 346.77 434.25C346.443 433.643 346.28 432.943 346.28 432.15C346.28 431.357 346.438 430.661 346.756 430.064C347.073 429.467 347.516 429.009 348.086 428.692C348.664 428.365 349.327 428.202 350.074 428.202C350.802 428.202 351.446 428.361 352.006 428.678C352.566 428.995 352.995 429.434 353.294 429.994C353.602 430.545 353.756 431.17 353.756 431.87ZM352.44 431.604C352.44 431.119 352.332 430.703 352.118 430.358C351.903 430.003 351.609 429.737 351.236 429.56C350.872 429.373 350.466 429.28 350.018 429.28C349.374 429.28 348.823 429.485 348.366 429.896C347.918 430.307 347.661 430.876 347.596 431.604H352.44ZM356.711 429.574C356.935 429.135 357.253 428.795 357.663 428.552C358.083 428.309 358.592 428.188 359.189 428.188V429.504H358.853C357.425 429.504 356.711 430.279 356.711 431.828V436H355.437V428.328H356.711V429.574ZM367.66 431.87C367.66 432.113 367.646 432.369 367.618 432.64H361.486C361.533 433.396 361.789 433.989 362.256 434.418C362.732 434.838 363.306 435.048 363.978 435.048C364.529 435.048 364.986 434.922 365.35 434.67C365.723 434.409 365.985 434.063 366.134 433.634H367.506C367.301 434.371 366.89 434.973 366.274 435.44C365.658 435.897 364.893 436.126 363.978 436.126C363.25 436.126 362.597 435.963 362.018 435.636C361.449 435.309 361.001 434.847 360.674 434.25C360.347 433.643 360.184 432.943 360.184 432.15C360.184 431.357 360.343 430.661 360.66 430.064C360.977 429.467 361.421 429.009 361.99 428.692C362.569 428.365 363.231 428.202 363.978 428.202C364.706 428.202 365.35 428.361 365.91 428.678C366.47 428.995 366.899 429.434 367.198 429.994C367.506 430.545 367.66 431.17 367.66 431.87ZM366.344 431.604C366.344 431.119 366.237 430.703 366.022 430.358C365.807 430.003 365.513 429.737 365.14 429.56C364.776 429.373 364.37 429.28 363.922 429.28C363.278 429.28 362.727 429.485 362.27 429.896C361.822 430.307 361.565 430.876 361.5 431.604H366.344ZM370.658 434.236L369.09 438.002H368.236L369.258 434.236H370.658ZM383.241 429.07C382.971 428.501 382.579 428.062 382.065 427.754C381.552 427.437 380.955 427.278 380.273 427.278C379.592 427.278 378.976 427.437 378.425 427.754C377.884 428.062 377.455 428.51 377.137 429.098C376.829 429.677 376.675 430.349 376.675 431.114C376.675 431.879 376.829 432.551 377.137 433.13C377.455 433.709 377.884 434.157 378.425 434.474C378.976 434.782 379.592 434.936 380.273 434.936C381.225 434.936 382.009 434.651 382.625 434.082C383.241 433.513 383.601 432.743 383.703 431.772H379.811V430.736H385.061V431.716C384.987 432.519 384.735 433.256 384.305 433.928C383.876 434.591 383.311 435.118 382.611 435.51C381.911 435.893 381.132 436.084 380.273 436.084C379.368 436.084 378.542 435.874 377.795 435.454C377.049 435.025 376.456 434.432 376.017 433.676C375.588 432.92 375.373 432.066 375.373 431.114C375.373 430.162 375.588 429.308 376.017 428.552C376.456 427.787 377.049 427.194 377.795 426.774C378.542 426.345 379.368 426.13 380.273 426.13C381.309 426.13 382.224 426.387 383.017 426.9C383.82 427.413 384.403 428.137 384.767 429.07H383.241ZM393.746 431.87C393.746 432.113 393.732 432.369 393.704 432.64H387.572C387.619 433.396 387.875 433.989 388.342 434.418C388.818 434.838 389.392 435.048 390.064 435.048C390.615 435.048 391.072 434.922 391.436 434.67C391.809 434.409 392.071 434.063 392.22 433.634H393.592C393.387 434.371 392.976 434.973 392.36 435.44C391.744 435.897 390.979 436.126 390.064 436.126C389.336 436.126 388.683 435.963 388.104 435.636C387.535 435.309 387.087 434.847 386.76 434.25C386.433 433.643 386.27 432.943 386.27 432.15C386.27 431.357 386.429 430.661 386.746 430.064C387.063 429.467 387.507 429.009 388.076 428.692C388.655 428.365 389.317 428.202 390.064 428.202C390.792 428.202 391.436 428.361 391.996 428.678C392.556 428.995 392.985 429.434 393.284 429.994C393.592 430.545 393.746 431.17 393.746 431.87ZM392.43 431.604C392.43 431.119 392.323 430.703 392.108 430.358C391.893 430.003 391.599 429.737 391.226 429.56C390.862 429.373 390.456 429.28 390.008 429.28C389.364 429.28 388.813 429.485 388.356 429.896C387.908 430.307 387.651 430.876 387.586 431.604H392.43ZM396.982 429.378V433.9C396.982 434.273 397.061 434.539 397.22 434.698C397.378 434.847 397.654 434.922 398.046 434.922H398.984V436H397.836C397.126 436 396.594 435.837 396.24 435.51C395.885 435.183 395.708 434.647 395.708 433.9V429.378H394.714V428.328H395.708V426.396H396.982V428.328H398.984V429.378H396.982ZM405.534 429.742C405.786 429.303 406.159 428.939 406.654 428.65C407.158 428.351 407.741 428.202 408.404 428.202C409.085 428.202 409.701 428.365 410.252 428.692C410.812 429.019 411.25 429.481 411.568 430.078C411.885 430.666 412.044 431.352 412.044 432.136C412.044 432.911 411.885 433.601 411.568 434.208C411.25 434.815 410.812 435.286 410.252 435.622C409.701 435.958 409.085 436.126 408.404 436.126C407.75 436.126 407.172 435.981 406.668 435.692C406.173 435.393 405.795 435.025 405.534 434.586V439.64H404.26V428.328H405.534V429.742ZM410.742 432.136C410.742 431.557 410.625 431.053 410.392 430.624C410.158 430.195 409.841 429.868 409.44 429.644C409.048 429.42 408.614 429.308 408.138 429.308C407.671 429.308 407.237 429.425 406.836 429.658C406.444 429.882 406.126 430.213 405.884 430.652C405.65 431.081 405.534 431.581 405.534 432.15C405.534 432.729 405.65 433.237 405.884 433.676C406.126 434.105 406.444 434.437 406.836 434.67C407.237 434.894 407.671 435.006 408.138 435.006C408.614 435.006 409.048 434.894 409.44 434.67C409.841 434.437 410.158 434.105 410.392 433.676C410.625 433.237 410.742 432.724 410.742 432.136ZM413.245 432.136C413.245 431.352 413.403 430.666 413.721 430.078C414.038 429.481 414.472 429.019 415.023 428.692C415.583 428.365 416.203 428.202 416.885 428.202C417.557 428.202 418.14 428.347 418.635 428.636C419.129 428.925 419.498 429.289 419.741 429.728V428.328H421.029V436H419.741V434.572C419.489 435.02 419.111 435.393 418.607 435.692C418.112 435.981 417.533 436.126 416.871 436.126C416.189 436.126 415.573 435.958 415.023 435.622C414.472 435.286 414.038 434.815 413.721 434.208C413.403 433.601 413.245 432.911 413.245 432.136ZM419.741 432.15C419.741 431.571 419.624 431.067 419.391 430.638C419.157 430.209 418.84 429.882 418.439 429.658C418.047 429.425 417.613 429.308 417.137 429.308C416.661 429.308 416.227 429.42 415.835 429.644C415.443 429.868 415.13 430.195 414.897 430.624C414.663 431.053 414.547 431.557 414.547 432.136C414.547 432.724 414.663 433.237 414.897 433.676C415.13 434.105 415.443 434.437 415.835 434.67C416.227 434.894 416.661 435.006 417.137 435.006C417.613 435.006 418.047 434.894 418.439 434.67C418.84 434.437 419.157 434.105 419.391 433.676C419.624 433.237 419.741 432.729 419.741 432.15ZM423.84 427.082C423.597 427.082 423.392 426.998 423.224 426.83C423.056 426.662 422.972 426.457 422.972 426.214C422.972 425.971 423.056 425.766 423.224 425.598C423.392 425.43 423.597 425.346 423.84 425.346C424.073 425.346 424.269 425.43 424.428 425.598C424.596 425.766 424.68 425.971 424.68 426.214C424.68 426.457 424.596 426.662 424.428 426.83C424.269 426.998 424.073 427.082 423.84 427.082ZM424.456 428.328V436H423.182V428.328H424.456ZM426.151 432.136C426.151 431.352 426.309 430.666 426.627 430.078C426.944 429.481 427.378 429.019 427.929 428.692C428.489 428.365 429.114 428.202 429.805 428.202C430.402 428.202 430.957 428.342 431.471 428.622C431.984 428.893 432.376 429.252 432.647 429.7V425.64H433.935V436H432.647V434.558C432.395 435.015 432.021 435.393 431.527 435.692C431.032 435.981 430.453 436.126 429.791 436.126C429.109 436.126 428.489 435.958 427.929 435.622C427.378 435.286 426.944 434.815 426.627 434.208C426.309 433.601 426.151 432.911 426.151 432.136ZM432.647 432.15C432.647 431.571 432.53 431.067 432.297 430.638C432.063 430.209 431.746 429.882 431.345 429.658C430.953 429.425 430.519 429.308 430.043 429.308C429.567 429.308 429.133 429.42 428.741 429.644C428.349 429.868 428.036 430.195 427.803 430.624C427.569 431.053 427.453 431.557 427.453 432.136C427.453 432.724 427.569 433.237 427.803 433.676C428.036 434.105 428.349 434.437 428.741 434.67C429.133 434.894 429.567 435.006 430.043 435.006C430.519 435.006 430.953 434.894 431.345 434.67C431.746 434.437 432.063 434.105 432.297 433.676C432.53 433.237 432.647 432.729 432.647 432.15ZM437.74 426.242L437.586 433.242H436.522L436.368 426.242H437.74ZM437.11 436.084C436.867 436.084 436.662 436 436.494 435.832C436.326 435.664 436.242 435.459 436.242 435.216C436.242 434.973 436.326 434.768 436.494 434.6C436.662 434.432 436.867 434.348 437.11 434.348C437.343 434.348 437.539 434.432 437.698 434.6C437.866 434.768 437.95 434.973 437.95 435.216C437.95 435.459 437.866 435.664 437.698 435.832C437.539 436 437.343 436.084 437.11 436.084Z" fill="#4A4A68"/>
<rect x="446.697" y="419" width="24" height="23" rx="8" fill="#29329C"/>
<g clip-path="url(#clip3_3624_9540)">
<path fill-rule="evenodd" clip-rule="evenodd" d="M456.735 426.692C456.761 426.753 456.797 426.808 456.844 426.855L459.991 430.001L456.844 433.147C456.797 433.193 456.761 433.248 456.735 433.309C456.71 433.37 456.697 433.435 456.697 433.501C456.697 433.566 456.71 433.631 456.735 433.692C456.761 433.753 456.797 433.808 456.844 433.855C456.89 433.901 456.946 433.938 457.006 433.963C457.067 433.988 457.132 434.001 457.198 434.001C457.264 434.001 457.329 433.988 457.389 433.963C457.45 433.938 457.505 433.901 457.552 433.855L461.052 430.355C461.098 430.308 461.135 430.253 461.161 430.192C461.186 430.132 461.199 430.066 461.199 430.001C461.199 429.935 461.186 429.87 461.161 429.809C461.135 429.748 461.098 429.693 461.052 429.647L457.552 426.147C457.505 426.1 457.45 426.063 457.389 426.038C457.329 426.013 457.264 426 457.198 426C457.132 426 457.067 426.013 457.006 426.038C456.946 426.063 456.89 426.1 456.844 426.147C456.797 426.193 456.761 426.248 456.735 426.309C456.71 426.37 456.697 426.435 456.697 426.501C456.697 426.566 456.71 426.631 456.735 426.692ZM463.392 426.855C463.445 427.346 463.532 428.047 463.629 428.803L464.173 433.296C464.117 433.428 463.935 433.609 463.344 433.854C463.936 433.742 463.813 433.856 463.727 433.936C463.688 433.972 463.657 434.001 463.698 434.001C463.831 434.001 463.958 433.948 464.051 433.854C464.145 433.76 464.198 433.633 464.198 433.501L464.173 433.296C464.198 433.237 464.198 433.187 464.198 433.147C464.198 433.108 464.118 432.512 464.008 431.682C463.896 430.849 463.754 429.779 463.629 428.803L463.392 426.855ZM464.051 426.147C463.809 426.147 463.655 426.215 463.558 426.309C463.596 426.309 463.612 426.309 463.627 426.305C463.666 426.296 463.698 426.263 464.051 426.147Z" fill="white"/>
<path d="M463.392 426.855C463.392 426.768 463.372 426.49 463.558 426.309C463.425 426.309 463.438 426.053 463.344 426.147C463.326 426.165 463.347 426.433 463.392 426.855Z" fill="white"/>
</g>
<path d="M445.324 9.10156H396.359V80.0747H445.324V9.10156Z" fill="#E0E0E0"/>
<path d="M442.871 9.10156H393.906V80.0747H442.871V9.10156Z" fill="#87C7E2"/>
<path d="M436.79 16.7886H399.988V72.3877H436.79V16.7886Z" fill="#F8FBFF"/>
<path d="M436.79 72.395C436.79 72.395 436.79 72.2993 436.79 72.1216C436.79 71.944 436.79 71.6775 436.79 71.329C436.79 70.6457 436.79 69.6071 436.79 68.2816C436.79 65.6167 436.79 61.7357 436.756 56.8296C436.756 47.0245 436.722 33.14 436.695 16.789L436.818 16.9119H400.022L400.159 16.7753C400.159 37.7522 400.159 57.0893 400.159 72.3813L400.05 72.272L426.835 72.3266H434.235H436.182C436.619 72.3266 436.865 72.3266 436.865 72.3266H436.216H434.289H426.917L400.063 72.3813H399.961V72.2788C399.961 56.9868 399.961 37.6497 399.961 16.6728V16.543H400.098H436.893H437.016V16.6591C437.016 33.058 436.968 46.9561 436.954 56.7818C436.954 61.6742 436.954 65.5484 436.92 68.2064C436.92 69.5251 436.92 70.5364 436.92 71.2265C436.92 71.5682 436.92 71.821 436.92 72.0055C436.92 72.19 436.79 72.395 436.79 72.395Z" fill="#E0E0E0"/>
<path d="M443.009 9.10156C442.762 9.55699 442.471 9.98723 442.141 10.3861C441.567 11.1446 440.774 12.1832 439.838 13.297C438.902 14.4107 438.055 15.4083 437.419 16.1121C437.096 16.515 436.735 16.8857 436.34 17.219C436.619 16.7875 436.932 16.3786 437.276 15.9959L439.633 13.1193L441.97 10.2563C442.286 9.84542 442.634 9.45936 443.009 9.10156V9.10156Z" fill="#E0E0E0"/>
<path d="M436.975 72.2097C438.803 75.1215 440.958 77.8152 443.398 80.2384Z" fill="white"/>
<path d="M443.398 80.2384C442.987 79.9415 442.612 79.6001 442.277 79.2203C440.568 77.4844 439.043 75.5771 437.726 73.5285C437.43 73.1165 437.178 72.6744 436.975 72.2097C437.303 72.5911 437.605 72.9952 437.877 73.4191C438.416 74.1776 439.175 75.2162 440.063 76.3231C440.951 77.43 441.792 78.373 442.414 79.0904C442.769 79.449 443.097 79.8326 443.398 80.2384V80.2384Z" fill="#E0E0E0"/>
<path d="M393.898 80.0206L400.287 72.1082Z" fill="white"/>
<path d="M400.289 72.1082C399.324 73.5102 398.286 74.8604 397.18 76.1532C396.144 77.498 395.04 78.7889 393.873 80.0206C393.818 79.9796 395.239 78.1689 396.975 75.9824C398.008 74.6315 399.114 73.3382 400.289 72.1082Z" fill="#E0E0E0"/>
<path d="M393.906 9.10156C395.007 10.2896 396.047 11.5325 397.022 12.8255C398.059 14.0688 399.028 15.3666 399.926 16.7134C398.817 15.5331 397.776 14.2897 396.81 12.9895C395.769 11.7497 394.8 10.4516 393.906 9.10156V9.10156Z" fill="#E0E0E0"/>
<path d="M425.324 28.0842H413.004V63.0686H425.324V28.0842Z" fill="#81E898"/>
<path d="M314.112 217.465C314.204 218.57 313.966 219.678 313.429 220.648C312.891 221.618 312.078 222.406 311.092 222.914C310.106 223.421 308.992 223.625 307.891 223.499C306.789 223.373 305.75 222.923 304.904 222.206C304.058 221.489 303.444 220.537 303.139 219.471C302.835 218.405 302.853 217.272 303.193 216.216C303.532 215.161 304.177 214.23 305.046 213.541C305.914 212.852 306.968 212.436 308.073 212.346C308.806 212.285 309.544 212.369 310.244 212.594C310.944 212.818 311.593 213.178 312.154 213.654C312.715 214.129 313.176 214.711 313.512 215.365C313.848 216.019 314.052 216.733 314.112 217.465V217.465Z" fill="#32A71F"/>
<path d="M324.518 220.392C324.61 221.497 324.372 222.604 323.835 223.574C323.297 224.544 322.484 225.332 321.498 225.84C320.513 226.347 319.398 226.551 318.297 226.425C317.195 226.299 316.156 225.849 315.31 225.132C314.464 224.415 313.85 223.463 313.546 222.397C313.241 221.331 313.26 220.198 313.599 219.143C313.938 218.087 314.583 217.156 315.452 216.467C316.321 215.778 317.374 215.362 318.479 215.272C319.959 215.152 321.425 215.624 322.557 216.583C323.689 217.543 324.395 218.913 324.518 220.392V220.392Z" fill="#32A71F"/>
<path d="M332.04 217.031C332.13 218.136 331.891 219.243 331.352 220.211C330.813 221.18 329.999 221.967 329.013 222.473C328.027 222.979 326.913 223.181 325.812 223.054C324.711 222.927 323.672 222.476 322.827 221.758C321.983 221.04 321.37 220.088 321.066 219.022C320.762 217.956 320.782 216.824 321.121 215.769C321.461 214.714 322.106 213.784 322.975 213.095C323.844 212.407 324.897 211.992 326.002 211.902C327.482 211.784 328.949 212.258 330.08 213.219C331.212 214.181 331.917 215.551 332.04 217.031V217.031Z" fill="#32A71F"/>
<path d="M339.974 219.124C340.062 220.226 339.822 221.33 339.283 222.295C338.744 223.261 337.932 224.045 336.948 224.549C335.963 225.053 334.852 225.253 333.754 225.126C332.656 224.999 331.62 224.549 330.777 223.833C329.934 223.117 329.323 222.168 329.019 221.105C328.716 220.041 328.735 218.912 329.073 217.859C329.411 216.807 330.053 215.878 330.919 215.19C331.784 214.502 332.834 214.086 333.936 213.995C334.669 213.934 335.408 214.019 336.109 214.244C336.809 214.469 337.459 214.83 338.02 215.306C338.581 215.783 339.042 216.365 339.378 217.02C339.713 217.676 339.916 218.391 339.974 219.124Z" fill="#32A71F"/>
<path d="M347.102 219.995C347.102 219.995 346.449 235.551 321.465 235.551C296.481 235.551 295.77 219.995 295.77 219.995H347.102Z" fill="#D6CDCD"/>
</g>
<defs>
<clipPath id="clip0_3624_9540">
<rect width="640" height="473" fill="white"/>
</clipPath>
<clipPath id="clip1_3624_9540">
<rect width="283" height="297.895" fill="white" transform="translate(375 85.2383)"/>
</clipPath>
<clipPath id="clip2_3624_9540">
<rect width="12" height="12" fill="white" transform="matrix(-1 0 0 1 184.697 424)"/>
</clipPath>
<clipPath id="clip3_3624_9540">
<rect width="12" height="12" fill="white" transform="translate(450.697 424)"/>
</clipPath>
</defs>
</svg>
