<svg width="500" height="437" viewBox="0 0 500 437" fill="none" xmlns="http://www.w3.org/2000/svg">
<g clip-path="url(#clip0_4430_8318)">
<path d="M429.78 93.1999C427.69 69.4699 417.95 46.9299 401.36 29.8499C385.91 13.9399 362.23 -0.0100803 328.36 5.43992C250.83 17.9199 282.53 137 181.36 110.38C80.1902 83.7599 37.9802 206.38 113.7 249.69C189.42 293 319.64 268.84 374.75 222.56C426.71 179 432.74 126.84 429.78 93.1999Z" fill="#9B9A9A"/>
<path opacity="0.9" d="M429.78 93.1999C427.69 69.4699 417.95 46.9299 401.36 29.8499C385.91 13.9399 362.23 -0.0100803 328.36 5.43992C250.83 17.9199 282.53 137 181.36 110.38C80.1902 83.7599 37.9802 206.38 113.7 249.69C189.42 293 319.64 268.84 374.75 222.56C426.71 179 432.74 126.84 429.78 93.1999Z" fill="white"/>
<path d="M481.287 391.433C481.287 396.784 372.717 401.131 238.795 401.131C104.873 401.131 -3.68359 396.784 -3.68359 391.433C-3.68359 386.081 104.873 381.76 238.795 381.76C372.717 381.76 481.287 386.081 481.287 391.433Z" fill="#F5F5F5"/>
<path d="M381.23 279.46L387.79 285.97L388.69 286.86L343.24 332.81L328.54 317.95L258.35 388.94H268.74L328.54 328.46L343.24 343.33L393.94 292.06L394.33 292.45L400.89 298.95L405.65 274.17L381.23 279.46Z" fill="#00B960"/>
<path d="M107.49 384.71L114.08 349H69.2695L75.8595 384.69C76.0606 385.785 76.6389 386.774 77.4939 387.487C78.3489 388.199 79.4266 388.59 80.5395 388.59H102.81C103.92 388.59 104.995 388.203 105.85 387.494C106.704 386.786 107.284 385.801 107.49 384.71Z" fill="#0A2540"/>
<path d="M109.329 316.72C103.429 315.16 94.4188 327.41 91.6788 339.35V322C93.9537 318.149 96.9281 314.758 100.449 312C107.849 306 114.669 298.23 108.759 296.67C103.219 295.21 94.9388 305.91 91.6788 317.11V294.73C93.0494 292.659 94.7366 290.817 96.6788 289.27C101.349 285.47 105.679 280.59 101.919 279.6C98.6888 278.75 93.9188 284.48 91.6588 290.93V283.69C92.071 280.692 92.8815 277.763 94.0688 274.98C97.4988 267.4 99.3488 259.59 94.8288 260.18C90.3088 260.77 87.3588 274.25 89.8288 284.61V288.34C88.1588 280.76 82.4188 272.91 78.6688 273.89C74.9188 274.87 79.2388 279.75 83.9088 283.56C86.3723 285.455 88.3926 287.864 89.8288 290.62V308.21C87.1488 296.21 78.0688 283.83 72.1388 285.39C66.2088 286.95 73.0488 294.69 80.4588 300.73C84.3485 303.729 87.5446 307.532 89.8288 311.88V333C86.9688 321.22 78.1188 309.34 72.2988 310.87C66.4788 312.4 71.4588 318.08 79.7788 324.93C83.9072 328.286 87.3095 332.447 89.7788 337.16V349H91.6088V343.1C93.9207 338.793 97.1213 335.026 100.999 332.05C108.419 326 115.239 318.28 109.329 316.72Z" fill="#DDAE08"/>
<path d="M116.84 347.34H66.5098V352.24H116.84V347.34Z" fill="#0A2540"/>
<path opacity="0.2" d="M116.84 347.34H66.5098V352.24H116.84V347.34Z" fill="white"/>
<path d="M402.59 120.83C399.77 130.874 393.717 139.708 385.368 145.963C377.02 152.218 366.841 155.546 356.41 155.43H350.55V155C348.391 154.706 346.256 154.261 344.16 153.67C333.667 150.725 324.51 144.255 318.23 135.348C311.95 126.441 308.931 115.643 309.681 104.77C310.431 93.8981 314.905 83.6165 322.349 75.6569C329.793 67.6973 339.752 62.5458 350.55 61.0701V60.6301H356.41C363.769 60.5526 371.046 62.1889 377.664 65.4095C384.282 68.6301 390.059 73.3467 394.54 79.186C399.02 85.0253 402.079 91.8271 403.477 99.0533C404.874 106.279 404.57 113.732 402.59 120.82V120.83Z" fill="#FF4062"/>
<path opacity="0.3" d="M402.59 120.83C399.77 130.874 393.717 139.708 385.368 145.963C377.02 152.218 366.841 155.546 356.41 155.43H350.55V155C348.391 154.706 346.256 154.261 344.16 153.67C333.667 150.725 324.51 144.255 318.23 135.348C311.95 126.441 308.931 115.643 309.681 104.77C310.431 93.8981 314.905 83.6165 322.349 75.6569C329.793 67.6973 339.752 62.5458 350.55 61.0701V60.6301H356.41C363.769 60.5526 371.046 62.1889 377.664 65.4095C384.282 68.6301 390.059 73.3467 394.54 79.186C399.02 85.0253 402.079 91.8271 403.477 99.0533C404.874 106.279 404.57 113.732 402.59 120.82V120.83Z" fill="black"/>
<path d="M368.852 151.93C393.081 142.032 404.699 114.367 394.801 90.138C384.904 65.9088 357.239 54.2908 333.009 64.1884C308.78 74.086 297.162 101.751 307.06 125.98C316.957 150.21 344.623 161.828 368.852 151.93Z" fill="#FF4062"/>
<path d="M366.294 142.181C385.162 133.694 393.577 111.519 385.089 92.651C376.602 73.7835 354.427 65.3687 335.559 73.856C316.692 82.3433 308.277 104.519 316.764 123.386C325.251 142.254 347.427 150.669 366.294 142.181Z" fill="white"/>
<path d="M378.179 112.068C380.397 97.0314 370.005 83.0444 354.969 80.8267C339.933 78.609 325.946 89.0005 323.728 104.037C321.511 119.073 331.902 133.06 346.938 135.278C361.975 137.495 375.962 127.104 378.179 112.068Z" fill="#FF4062"/>
<path d="M368.331 110.674C369.785 101.069 363.178 92.1035 353.573 90.6492C343.967 89.1948 335.002 95.8023 333.547 105.408C332.093 115.013 338.701 123.978 348.306 125.433C357.911 126.887 366.877 120.279 368.331 110.674Z" fill="white"/>
<path d="M348.859 115.41C350.316 115.818 351.86 115.785 353.298 115.315C354.736 114.846 356.002 113.96 356.937 112.771C357.872 111.582 358.433 110.142 358.55 108.634C358.667 107.126 358.334 105.617 357.593 104.298C356.853 102.98 355.738 101.91 354.39 101.224C353.041 100.539 351.52 100.268 350.018 100.447C348.516 100.626 347.101 101.246 345.951 102.229C344.802 103.212 343.969 104.514 343.559 105.97C343.014 107.925 343.266 110.015 344.259 111.785C345.253 113.554 346.907 114.858 348.859 115.41Z" fill="#FF4062"/>
<path d="M297.891 78.8499L309.331 77.0999L307.591 65.6599C307.558 65.4992 307.559 65.3335 307.592 65.1729C307.626 65.0124 307.691 64.8603 307.785 64.726C307.88 64.5916 308 64.4778 308.139 64.3914C308.279 64.305 308.434 64.2479 308.596 64.2235C308.759 64.199 308.924 64.2078 309.083 64.2493C309.241 64.2908 309.39 64.3641 309.52 64.4648C309.649 64.5655 309.757 64.6914 309.836 64.835C309.915 64.9785 309.964 65.1367 309.981 65.2999L311.871 77.6599L316.261 80.8899L314.741 70.8899C314.692 70.5716 314.771 70.2469 314.961 69.9872C315.152 69.7275 315.437 69.554 315.756 69.5049C316.074 69.4558 316.399 69.5352 316.658 69.7256C316.918 69.9159 317.092 70.2017 317.141 70.5199L319.001 82.9299L324.551 87.0099L323.041 77.0099C323.015 76.8535 323.021 76.6937 323.057 76.5395C323.094 76.3853 323.16 76.2399 323.253 76.1116C323.346 75.9833 323.464 75.8746 323.599 75.792C323.734 75.7093 323.884 75.6542 324.041 75.6299C324.356 75.5835 324.676 75.6622 324.934 75.849C325.192 76.0358 325.367 76.3161 325.421 76.6299L327.341 88.9999L351.451 106.75C352.961 108 351.971 109.58 350.731 109.23L325.651 90.7699L313.721 92.5899C313.402 92.639 313.078 92.5596 312.818 92.3692C312.558 92.1789 312.385 91.8932 312.336 91.5749C312.287 91.2566 312.366 90.9319 312.556 90.6722C312.747 90.4125 313.032 90.239 313.351 90.1899L322.881 88.7399L317.331 84.6599L305.411 86.4699C305.092 86.519 304.768 86.4396 304.508 86.2493C304.248 86.0589 304.075 85.7732 304.026 85.4549C303.977 85.1367 304.056 84.8119 304.246 84.5522C304.437 84.2925 304.722 84.119 305.041 84.0699L314.571 82.6199L310.181 79.3899L298.251 81.1999C298.09 81.2324 297.924 81.2319 297.764 81.1985C297.603 81.165 297.451 81.0992 297.317 81.0051C297.182 80.9111 297.069 80.7907 296.982 80.6513C296.896 80.5119 296.839 80.3563 296.814 80.1942C296.79 80.032 296.799 79.8665 296.84 79.7079C296.882 79.5492 296.955 79.4006 297.056 79.2711C297.156 79.1417 297.282 79.034 297.426 78.9547C297.569 78.8755 297.728 78.8262 297.891 78.8099V78.8499Z" fill="#263238"/>
<path d="M192.891 388.94H191.891V358.65H226.801V328.81H261.721V299.01H296.631V269.17H331.551V239.38H366.461V209.54H401.871V210.54H367.461V240.34L366.961 240.38H332.551V270.17H297.631V299.97L297.131 300.01H262.721V329.81H227.801V359.6L227.301 359.65H192.891V388.94Z" fill="#A3A3A3"/>
<path d="M408.829 210.04L401.869 217.24V202.84L408.829 210.04Z" fill="#757575"/>
<path d="M240.999 87.5999C243.399 93.0399 245.689 98.5998 247.999 104.09L251.409 112.3C252.569 114.98 253.709 117.76 254.879 120.09C255.23 120.95 255.724 121.744 256.339 122.44C257.215 123.419 258.143 124.351 259.119 125.23C261.119 127.17 263.409 129.06 265.659 130.98L279.439 142.41L275.729 148.27C270.189 145.59 264.819 142.73 259.549 139.52C256.899 137.92 254.299 136.23 251.669 134.37C250.28 133.382 248.945 132.321 247.669 131.19C246.868 130.486 246.122 129.72 245.439 128.9L244.889 128.16L244.459 127.52C244.169 127.09 243.969 126.75 243.719 126.35C242.819 124.87 242.059 123.49 241.309 122.1C240.559 120.71 239.839 119.34 239.159 117.96C237.789 115.2 236.449 112.45 235.159 109.68C232.609 104.14 230.219 98.5998 228.029 92.8998L240.999 87.5999Z" fill="#9E6141"/>
<path d="M240.729 86.72L250.059 104.22C247.569 110.066 243.53 115.121 238.379 118.84L231.719 111.14L240.729 86.72Z" fill="#1F28CF"/>
<g opacity="0.5">
<path d="M240.729 86.72L250.059 104.22C247.569 110.066 243.53 115.121 238.379 118.84L231.719 111.14L240.729 86.72Z" fill="white"/>
</g>
<path d="M227 37.7799C224.183 37.5636 221.378 38.3274 219.06 39.942C216.742 41.5567 215.053 43.9229 214.28 46.6399C211.46 55.0199 208.15 59.8399 204.28 61.4899C197.97 64.2099 191.93 69.7299 195.78 77.5699C201.87 89.9699 227.78 88.7199 232.85 83.4199C237.92 78.1199 232.55 79.4199 237.75 74.5799C242.95 69.7399 248.46 56.0199 244.8 46.3499C242.76 40.9999 235 35.9999 227 37.7799Z" fill="#263238"/>
<path d="M238.299 65.92C238.18 66.4228 237.913 66.8788 237.534 67.2301C237.155 67.5813 236.68 67.8122 236.17 67.8932C235.659 67.9743 235.136 67.902 234.667 67.6855C234.198 67.469 233.803 67.1181 233.534 66.6771C233.264 66.2362 233.131 65.7251 233.153 65.2087C233.174 64.6923 233.348 64.1938 233.653 63.7764C233.957 63.359 234.379 63.0415 234.865 62.8641C235.35 62.6867 235.877 62.6575 236.379 62.78C237.049 62.9436 237.627 63.3657 237.987 63.954C238.347 64.5424 238.459 65.2492 238.299 65.92Z" fill="white"/>
<path d="M202.58 339.39L203.11 350.9H209.26L210.66 339.39H202.58Z" fill="#9E6141"/>
<path d="M226.31 359C226.31 355.25 224.79 354.13 222.73 354C220.67 353.87 213.19 351.34 213.19 351.34C213.19 351.34 211.82 348.96 210.46 348.47C209.1 347.98 207.59 349.41 207.59 349.41L203.77 348.94C203.77 348.94 202.77 347.23 201.84 348.73C200.38 351.06 199.9 357.49 199.84 359H226.31Z" fill="#1F28CF"/>
<path d="M225.91 358.06H221.11L200.11 357.95C199.84 357.95 199.93 357.55 200.2 357.56H201.62C201.62 357.56 201.62 357.56 201.62 357.5C201.961 357.099 202.21 356.629 202.35 356.123C202.49 355.616 202.519 355.085 202.433 354.566C202.347 354.048 202.15 353.554 201.854 353.119C201.558 352.685 201.171 352.32 200.72 352.05C200.51 351.93 200.81 351.58 201.01 351.71C202.91 352.89 203.55 355.24 202.01 357.55H205.01L226.01 357.66C226.27 357.67 226.17 358.07 225.91 358.06Z" fill="black"/>
<path d="M211.869 353C213.079 351.74 214.709 351.38 215.779 352.33C215.949 352.49 216.239 352.14 216.069 351.99C214.839 350.9 212.939 351.37 211.559 352.8C211.359 353.01 211.669 353.21 211.869 353Z" fill="white"/>
<path d="M213.999 353.67C215.209 352.41 216.839 352.05 217.909 353.01C218.079 353.16 218.369 352.81 218.199 352.66C216.969 351.57 215.069 352.04 213.699 353.47C213.499 353.68 213.799 353.88 213.999 353.67Z" fill="white"/>
<path d="M216.15 354.35C217.36 353.08 218.99 352.73 220.06 353.68C220.23 353.83 220.52 353.48 220.34 353.33C219.12 352.24 217.22 352.71 215.84 354.14C215.64 354.35 215.95 354.55 216.15 354.35Z" fill="white"/>
<path d="M232.66 149.09C232.66 149.09 232.15 168.43 230.27 195.6C229.9 200.86 229.48 206.43 229.01 212.21C228.01 224.21 226.77 237.11 225.22 250.21C221.47 281.76 211 342.1 211 342.1L201.47 342.31C201.47 342.31 192.08 288.31 202.36 250.94C201.71 244.48 201.18 238.42 200.77 232.72C199.501 217.228 199.167 201.673 199.77 186.14C199.77 185.2 199.86 184.28 199.91 183.38C200 181.88 200.11 180.43 200.22 179.04C200.39 176.77 200.61 174.65 200.83 172.68C202.98 154.29 206.83 148.99 206.83 148.99L232.66 149.09Z" fill="#263238"/>
<g opacity="0.2">
<path d="M230.27 195.6C229.9 200.86 229.48 206.43 229.01 212.21C219.4 204.44 206.4 190.51 199.91 183.38C200 181.88 200.11 180.43 200.22 179.04L230.27 195.6Z" fill="black"/>
</g>
<path d="M256.069 280.87L267.549 280.54C273.679 251.02 290.679 194.8 281.819 186.24C250.739 156.19 191.999 142 191.999 142C184.909 143.41 179.789 145.61 178.229 152.42C176.619 159.42 177.609 168.89 186.139 174.89C191.349 178.56 197.869 180.99 210.949 187C223.723 193.059 236.934 198.153 250.469 202.24C255.799 203.87 257.579 204.4 260.469 205.24C254.449 227 255.999 272.41 256.069 280.87Z" fill="#263238"/>
<path d="M257.71 280.14L257.57 291.05H263.71L265.8 280.14H257.71Z" fill="#9E6141"/>
<path d="M269.13 283.6L269.91 279.53H255.05L254.98 283.6H269.13Z" fill="#263238"/>
<path d="M280.769 299.2C280.769 295.44 279.239 294.32 277.189 294.2C275.139 294.08 267.639 291.53 267.639 291.53C267.639 291.53 266.279 289.15 264.909 288.67C263.539 288.19 262.049 289.6 262.049 289.6L258.229 289.14C258.229 289.14 257.229 287.42 256.299 288.92C254.839 291.25 254.359 297.69 254.299 299.2H280.769Z" fill="#1F28CF"/>
<path d="M280.369 298.21H275.569L254.569 298.11C254.299 298.11 254.389 297.7 254.659 297.71H256.079C256.072 297.69 256.072 297.669 256.079 297.65C256.42 297.249 256.669 296.779 256.809 296.273C256.949 295.766 256.978 295.235 256.892 294.716C256.806 294.198 256.609 293.704 256.313 293.269C256.017 292.835 255.63 292.47 255.179 292.2C254.969 292.08 255.269 291.73 255.469 291.86C257.359 293.04 258.009 295.39 256.469 297.71H259.469L280.469 297.82C280.729 297.82 280.629 298.22 280.369 298.21Z" fill="black"/>
<path d="M266.33 293.16C267.54 291.89 269.17 291.53 270.24 292.49C270.41 292.64 270.7 292.29 270.52 292.14C269.3 291.05 267.4 291.52 266.02 292.95C265.82 293.16 266.13 293.36 266.33 293.16Z" fill="white"/>
<path d="M268.431 293.83C269.641 292.56 271.271 292.21 272.341 293.16C272.511 293.31 272.801 292.97 272.631 292.81C271.401 291.72 269.501 292.2 268.131 293.63C267.921 293.84 268.231 294.03 268.431 293.83Z" fill="white"/>
<path d="M270.6 294.5C271.82 293.24 273.45 292.88 274.52 293.83C274.69 293.98 274.97 293.64 274.8 293.49C273.58 292.39 271.68 292.87 270.3 294.3C270.1 294.51 270.4 294.71 270.6 294.5Z" fill="white"/>
<path d="M211.73 344.33L212.66 340.27H200L200.09 344.33H211.73Z" fill="#263238"/>
<path d="M178.219 148.16C197.659 157.31 232.379 159.28 233.079 154.66C235.079 141.66 232.629 126.45 235.169 118.12C245.859 112.62 239.229 105.67 241.579 95.88C242.434 92.2917 241.871 88.5119 240.008 85.3281C238.146 82.1444 235.126 79.8023 231.579 78.79C229.879 78.29 228.109 77.79 226.369 77.33L225.309 77.07C220.63 75.9593 215.883 75.1575 211.099 74.67C209.359 74.46 207.539 74.27 205.649 74.06C203.759 73.85 201.899 73.72 200.139 73.64C198.584 73.555 197.028 73.7902 195.567 74.3309C194.107 74.8716 192.773 75.7063 191.648 76.7834C190.523 77.8605 189.631 79.157 189.027 80.5927C188.424 82.0284 188.121 83.5727 188.139 85.13C188.39 94.019 188.056 102.915 187.139 111.76C186.949 113.59 186.739 115.35 186.499 117.07C185.7 123.142 184.5 129.156 182.909 135.07C182.886 135.182 182.856 135.292 182.819 135.4C182.152 137.747 181.459 139.903 180.739 141.87C180.519 142.49 180.289 143.08 180.049 143.65C179.579 144.83 178.749 147 178.219 148.16Z" fill="#1F28CF"/>
<g opacity="0.3">
<path d="M178.219 148.16C197.659 157.31 232.379 159.28 233.079 154.66C235.079 141.66 232.629 126.45 235.169 118.12C245.859 112.62 239.229 105.67 241.579 95.88C242.434 92.2917 241.871 88.5119 240.008 85.3281C238.146 82.1444 235.126 79.8023 231.579 78.79C229.879 78.29 228.109 77.79 226.369 77.33L225.309 77.07C220.63 75.9593 215.883 75.1575 211.099 74.67C209.359 74.46 207.539 74.27 205.649 74.06C203.759 73.85 201.899 73.72 200.139 73.64C198.584 73.555 197.028 73.7902 195.567 74.3309C194.107 74.8716 192.773 75.7063 191.648 76.7834C190.523 77.8605 189.631 79.157 189.027 80.5927C188.424 82.0284 188.121 83.5727 188.139 85.13C188.39 94.019 188.056 102.915 187.139 111.76C186.949 113.59 186.739 115.35 186.499 117.07C185.7 123.142 184.5 129.156 182.909 135.07C182.886 135.182 182.856 135.292 182.819 135.4C182.152 137.747 181.459 139.903 180.739 141.87C180.519 142.49 180.289 143.08 180.049 143.65C179.579 144.83 178.749 147 178.219 148.16Z" fill="white"/>
</g>
<path d="M177.32 89.0498C177.32 89.0498 185.69 73.3298 196.96 73.9298C204.16 74.3098 203.16 89.7498 195.15 101.35C187.69 98.3698 182.12 94.7898 177.32 89.0498Z" fill="#1F28CF"/>
<g opacity="0.5">
<path d="M177.32 89.0498C177.32 89.0498 185.69 73.3298 196.96 73.9298C204.16 74.3098 203.16 89.7498 195.15 101.35C187.69 98.3698 182.12 94.7898 177.32 89.0498Z" fill="white"/>
</g>
<path d="M211.15 74.6699C214.96 83.7699 225.74 90.2499 225.74 90.2499C227.74 86.6199 228 80.4399 226.43 77.3399L225.37 77.0799C220.689 75.9635 215.938 75.1584 211.15 74.6699Z" fill="#9E6141"/>
<path d="M226.26 79.8899C226.281 80.0325 226.325 80.1708 226.39 80.2999C227.72 83.0999 225.64 85.2999 222.83 84.7099C222.558 84.6599 222.291 84.5897 222.03 84.4999C221.032 84.1692 220.162 83.5367 219.54 82.6899C217.641 80.0859 215.545 77.632 213.27 75.3499C217.81 73.5799 220.35 65.6599 221.36 60.6399L226.95 69.8599L227.95 71.8599C227.218 72.8091 226.603 73.8432 226.12 74.9399C225.736 75.7136 225.549 76.5693 225.573 77.4323C225.598 78.2953 225.833 79.1391 226.26 79.8899Z" fill="#9E6141"/>
<g opacity="0.2">
<path d="M226.139 74.9199C226.622 73.8233 227.237 72.7891 227.969 71.8399L226.969 69.8399L222.799 69.4299C223.27 71.5807 224.445 73.5127 226.139 74.9199Z" fill="black"/>
</g>
<path d="M221.24 51.4499C219.57 59.6999 218.69 63.1499 221.6 68.3899C225.98 76.2699 236.28 76.4499 240.34 68.8599C243.99 62.0199 246.11 49.6799 239.18 44.3799C232.25 39.0799 222.91 43.1999 221.24 51.4499Z" fill="#9E6141"/>
<path d="M234.709 42.1499C234.709 42.1499 237.129 50.7499 242.009 51.6099C246.889 52.4699 243.629 45.6099 239.079 42.2699C237.109 40.8099 234.709 42.1499 234.709 42.1499Z" fill="#263238"/>
<path d="M232.38 53.9999C232.434 54.0242 232.492 54.0368 232.55 54.0368C232.609 54.0368 232.667 54.0242 232.72 53.9999C233.177 53.7103 233.696 53.5323 234.235 53.4802C234.773 53.4281 235.316 53.5033 235.82 53.6999C235.872 53.7267 235.928 53.7427 235.986 53.7471C236.044 53.7514 236.103 53.7439 236.158 53.7251C236.213 53.7063 236.263 53.6765 236.306 53.6375C236.35 53.5986 236.385 53.5513 236.409 53.4985C236.433 53.4457 236.447 53.3885 236.448 53.3303C236.45 53.2722 236.44 53.2144 236.418 53.1603C236.397 53.1062 236.365 53.057 236.324 53.0157C236.283 52.9744 236.234 52.9418 236.18 52.9199C235.546 52.6628 234.86 52.5605 234.178 52.6213C233.496 52.6822 232.839 52.9045 232.26 53.2699C232.21 53.2975 232.167 53.3353 232.132 53.3808C232.098 53.4262 232.073 53.4784 232.06 53.5339C232.047 53.5895 232.045 53.6472 232.056 53.7033C232.066 53.7594 232.088 53.8127 232.12 53.8599C232.183 53.9507 232.275 54.0177 232.38 54.0499" fill="#263238"/>
<path d="M243.359 56.3698C243.407 56.3815 243.456 56.3831 243.504 56.3745C243.553 56.3659 243.598 56.3473 243.639 56.3198C243.683 56.2941 243.721 56.2598 243.752 56.219C243.782 56.1782 243.804 56.1317 243.816 56.0823C243.828 56.0329 243.83 55.9815 243.822 55.9313C243.814 55.881 243.796 55.8329 243.769 55.7898C243.457 55.2587 243.021 54.8106 242.499 54.4834C241.976 54.1562 241.383 53.9595 240.769 53.9098C240.718 53.9085 240.668 53.9173 240.621 53.9358C240.573 53.9543 240.53 53.9821 240.494 54.0175C240.457 54.0529 240.429 54.0953 240.409 54.142C240.389 54.1888 240.379 54.239 240.379 54.2898C240.378 54.3405 240.387 54.391 240.405 54.4383C240.424 54.4856 240.451 54.5286 240.487 54.565C240.522 54.6013 240.564 54.6302 240.611 54.6499C240.658 54.6697 240.708 54.6798 240.759 54.6798C241.243 54.7304 241.708 54.8944 242.116 55.1585C242.524 55.4226 242.865 55.7794 243.109 56.1998C243.137 56.2433 243.174 56.2808 243.217 56.31C243.26 56.3392 243.308 56.3595 243.359 56.3698Z" fill="#263238"/>
<path d="M218.76 50.0699C218.76 50.0699 215.66 55.3099 219.56 56.7399C223.46 58.1699 225.74 55.4999 225.71 53.1599C225.68 50.8199 224.98 48.3499 230.71 49.4999C235.8 50.4999 238.95 39.9299 232.18 40.0999C228 40.1999 220.31 42.7699 218.76 50.0699Z" fill="#263238"/>
<path d="M237.11 66.3999C237.11 66.3999 233.28 64.07 232.6 62.2C232.6 62.2 231.6 65.28 233.6 66.71C234.115 67.1129 234.764 67.305 235.416 67.2475C236.067 67.1899 236.673 66.887 237.11 66.3999Z" fill="white"/>
<path d="M234.12 57.5299C233.94 58.1899 234.12 58.8199 234.58 58.9399C235.04 59.0599 235.51 58.6099 235.69 57.9399C235.87 57.2699 235.69 56.6499 235.22 56.5299C234.75 56.4099 234.3 56.8599 234.12 57.5299Z" fill="#263238"/>
<path d="M240.739 59.49C240.559 60.15 240.739 60.78 241.199 60.89C241.659 61 242.119 60.56 242.299 59.89C242.479 59.22 242.299 58.6 241.839 58.49C241.379 58.38 240.909 58.82 240.739 59.49Z" fill="#263238"/>
<path d="M241.641 58.48H243.351C243.351 58.48 242.201 59.48 241.641 58.48Z" fill="#263238"/>
<path d="M238.21 58.26C238.21 58.26 238.88 60.32 239.71 62.17C239.779 62.3091 239.815 62.4625 239.815 62.6179C239.814 62.7732 239.778 62.9264 239.708 63.0652C239.638 63.204 239.537 63.3246 239.412 63.4174C239.288 63.5103 239.143 63.5728 238.99 63.6C238.251 63.7339 237.5 63.7842 236.75 63.75L238.21 58.26Z" fill="#7A4224"/>
<path d="M216.86 56.2999C216.978 57.0567 217.256 57.7796 217.675 58.4209C218.094 59.0622 218.644 59.6072 219.289 60.0199C220.959 61.0199 222.38 59.2599 222.41 57.1199C222.41 55.1899 221.6 52.3599 219.69 52.2699C217.78 52.1799 216.5 54.2699 216.86 56.2699" fill="#9E6141"/>
<path d="M220.25 59.8299C220.25 60.0297 220.19 60.2249 220.077 60.3903C219.965 60.5556 219.806 60.6836 219.62 60.7576C219.435 60.8315 219.231 60.8482 219.036 60.8054C218.841 60.7626 218.663 60.6623 218.525 60.5174C218.387 60.3725 218.296 60.1896 218.264 59.9925C218.231 59.7953 218.258 59.5929 218.341 59.4113C218.425 59.2296 218.561 59.0772 218.731 58.9735C218.902 58.8699 219.1 58.8199 219.3 58.8299C219.556 58.8427 219.798 58.9537 219.975 59.1399C220.152 59.326 220.25 59.5731 220.25 59.8299Z" fill="white"/>
<path d="M235 56.53H236.71C236.71 56.53 235.57 57.53 235 56.53Z" fill="#263238"/>
<path d="M336.52 203.73L367.78 209.52L349.07 183.81L336.52 203.73Z" fill="#1F28CF"/>
<g opacity="0.6">
<path d="M349.07 183.81L362.35 202.06L367.78 209.52L358.81 207.87L336.51 203.73L349.07 183.81Z" fill="white"/>
</g>
<path d="M362.349 202.06L367.779 209.52L358.779 207.87C359.823 205.847 361.016 203.905 362.349 202.06Z" fill="#263238"/>
<path d="M150.861 58.8799L349.071 183.81L354.081 190.7L344.881 190.45L349.461 198.18L340.701 197.09L344.341 205.18L336.511 203.73L138.311 78.7899L150.861 58.8799Z" fill="#1F28CF"/>
<path d="M150.863 58.8595L138.307 78.783L148.01 84.8984L160.567 64.975L150.863 58.8595Z" fill="#263238"/>
<path d="M132.03 63.8118L134.648 59.6579C135.965 57.5667 138.06 56.0847 140.471 55.5379C142.881 54.9911 145.41 55.4243 147.502 56.7422L150.886 58.8749L138.329 78.7984L134.945 76.6657C132.854 75.3478 131.372 73.2531 130.825 70.8426C130.279 68.432 130.712 65.9029 132.03 63.8118Z" fill="#1F28CF"/>
<g opacity="0.6">
<path d="M132.03 63.812L134.648 59.6581C135.965 57.5669 138.06 56.0849 140.471 55.5381C142.881 54.9914 145.41 55.4246 147.502 56.7425L150.886 58.8752L138.329 78.7986L134.945 76.6659C132.854 75.348 131.372 73.2534 130.825 70.8428C130.279 68.4322 130.712 65.9032 132.03 63.812Z" fill="white"/>
</g>
<path d="M340.57 197C340.527 197.065 340.461 197.112 340.385 197.13C340.309 197.149 340.228 197.138 340.16 197.1L152 78.5299C151.932 78.4862 151.885 78.4173 151.868 78.3386C151.851 78.2598 151.866 78.1776 151.91 78.1099C151.954 78.0423 152.023 77.9948 152.101 77.9779C152.18 77.9611 152.262 77.9762 152.33 78.0199L340.48 196.6C340.545 196.641 340.591 196.706 340.608 196.781C340.625 196.856 340.611 196.935 340.57 197Z" fill="#263238"/>
<path d="M344.76 190.37C344.716 190.436 344.648 190.483 344.57 190.501C344.492 190.52 344.41 190.509 344.34 190.47L156.22 71.8899C156.154 71.845 156.108 71.7763 156.091 71.698C156.074 71.6197 156.088 71.5379 156.13 71.4699C156.151 71.4363 156.178 71.4072 156.21 71.3844C156.242 71.3616 156.278 71.3455 156.316 71.3371C156.354 71.3287 156.394 71.3281 156.433 71.3355C156.471 71.3428 156.508 71.3579 156.54 71.3799L344.66 190C344.719 190.039 344.762 190.098 344.78 190.166C344.799 190.234 344.792 190.307 344.76 190.37Z" fill="#263238"/>
<path d="M218.659 126.29C217.659 126.76 216.709 127.19 215.749 127.6C215.189 127.85 214.639 128.08 214.079 128.31C212.549 128.95 211.009 129.57 209.449 130.14C206.349 131.3 203.189 132.33 199.959 133.26C196.668 134.202 193.33 134.97 189.959 135.56C188.229 135.87 186.469 136.08 184.619 136.23C182.873 136.393 181.117 136.409 179.369 136.28L178.719 136.23C177.891 136.14 177.083 135.914 176.329 135.56C175.369 135.104 174.511 134.458 173.809 133.66C173.04 132.766 172.468 131.72 172.129 130.59C171.831 129.616 171.659 128.608 171.619 127.59C171.571 126.422 171.611 125.252 171.739 124.09C171.918 122.244 172.192 120.408 172.559 118.59C173.229 115.12 174.009 111.82 174.869 108.59C175.379 106.67 175.869 104.77 176.469 102.87L189.259 110.93C189.109 111.41 188.979 111.93 188.849 112.38C188.009 115.45 187.169 118.51 186.519 121.48C186.419 121.94 186.319 122.4 186.229 122.85C186.989 122.85 187.769 122.85 188.549 122.8C191.549 122.69 194.549 122.39 197.689 122.06C200.239 121.78 202.809 121.45 205.389 121.06L207.059 120.83L216.499 119.48L218.659 126.29Z" fill="#9E6141"/>
<path d="M215.75 119.62C215.75 119.62 223.96 117.03 225.75 117.33C227.7 117.67 227.13 127.94 224.66 129.43C222.19 130.92 216.26 126.43 216.26 126.43L215.75 119.62Z" fill="#9E6141"/>
<path d="M215.76 119.71C216.717 118.507 217.925 117.528 219.3 116.84C221.13 116.13 222.79 114.97 223.65 115.27C224.51 115.57 221.48 118.36 221.48 118.36L215.76 119.71Z" fill="#9E6141"/>
<path d="M225.71 117.33C225.71 117.33 230.8 118.6 232.47 120.63C234.14 122.66 229.58 121.55 229.58 121.55C229.58 121.55 234.91 123.29 232.87 127.38C231.87 129.38 225.81 129.98 223.01 129.7C223 129.7 222.81 121.15 225.71 117.33Z" fill="#9E6141"/>
<path d="M273.429 133.72C273.429 133.72 273.289 133.03 271.369 132.58C270.068 132.221 268.706 132.133 267.369 132.32L272.019 135.32C272.019 135.32 271.509 139.41 273.709 141.24C278.129 144.92 281.539 142.73 282.489 141.94C283.439 141.15 281.859 137.6 279.079 135.54C277.449 134.325 275.462 133.685 273.429 133.72Z" fill="#9E6141"/>
<path d="M420.536 385.772H360.266L364.822 341.898L420.536 341.535V385.772Z" fill="#FF725E"/>
<g opacity="0.4">
<path d="M420.536 385.772H360.266L364.822 341.897L420.536 341.535V385.772Z" fill="black"/>
</g>
<path d="M429.325 341.535H369.055V385.764H429.325V341.535Z" fill="#FF725E"/>
<g opacity="0.2">
<path d="M429.325 341.535H369.055V385.764H429.325V341.535Z" fill="black"/>
</g>
<path d="M429.83 362.951C429.83 363.062 416.272 363.156 399.553 363.156C382.834 363.156 369.26 363.062 369.26 362.951C369.26 362.841 382.818 362.739 399.553 362.739C416.288 362.739 429.83 362.833 429.83 362.951Z" fill="#263238"/>
<path d="M379.791 367.209C379.518 365.007 379.518 362.781 379.791 360.579C380.064 362.781 380.064 365.007 379.791 367.209Z" fill="#263238"/>
<path d="M421.695 366.972C421.422 365.008 421.422 363.016 421.695 361.052C421.968 363.016 421.968 365.008 421.695 366.972Z" fill="#263238"/>
<path d="M408.42 341.763C408.42 341.763 408.42 341.282 408.278 340.454C408.068 339.281 407.611 338.166 406.938 337.183C405.945 335.723 404.567 334.567 402.957 333.841C400.974 332.968 398.817 332.561 396.651 332.651C394.473 332.668 392.323 333.149 390.345 334.062C388.744 334.81 387.358 335.952 386.317 337.38C385.619 338.345 385.119 339.438 384.843 340.596C384.654 341.424 384.646 341.897 384.607 341.897C384.595 341.782 384.595 341.665 384.607 341.55C384.608 341.219 384.639 340.89 384.701 340.565C384.922 339.361 385.398 338.219 386.096 337.215C387.135 335.714 388.548 334.51 390.195 333.723C392.205 332.77 394.396 332.264 396.62 332.241C398.846 332.149 401.063 332.581 403.091 333.502C404.749 334.272 406.155 335.493 407.151 337.025C407.825 338.049 408.254 339.214 408.404 340.431C408.433 340.759 408.433 341.088 408.404 341.416C408.429 341.53 408.435 341.647 408.42 341.763Z" fill="#263238"/>
</g>
<defs>
<clipPath id="clip0_4430_8318">
<rect width="500" height="500" fill="white" transform="translate(0 -63)"/>
</clipPath>
</defs>
</svg>
