<svg width="144" height="292" viewBox="0 0 144 292" fill="none" xmlns="http://www.w3.org/2000/svg">
<path d="M65.5284 62.0747C69.8186 65.6272 74.2937 68.9502 78.9351 72.0296C81.2913 73.5965 83.6475 75.0927 86.2275 76.4946C87.4998 77.1897 88.8193 77.873 90.2684 78.5091C90.9988 78.8154 91.741 79.1217 92.6245 79.4045C93.0251 79.5459 93.4963 79.6872 93.9558 79.805C94.0972 79.805 94.1325 79.8639 94.3563 79.9111L94.9454 80.0289C95.3149 80.0966 95.6891 80.136 96.0646 80.1467C98.2479 80.1738 100.4 79.6296 102.308 78.568C103.747 77.8146 105.119 76.9396 106.408 75.9527C108.72 74.1587 110.89 72.1894 112.9 70.0622C116.772 66.0117 120.295 61.6411 123.432 56.9972L119.202 53.4629C115.338 57.0796 111.309 60.6728 107.28 63.9243C105.329 65.5086 103.283 66.9721 101.154 68.3068C100.225 68.8883 99.2472 69.3889 98.2323 69.803C97.7509 70.0587 97.2099 70.1807 96.6654 70.1565H96.8657C96.8657 70.1565 96.795 70.1565 96.7714 70.1565C96.5664 70.086 96.3658 70.0034 96.1706 69.909C95.6839 69.7017 95.2082 69.4697 94.7451 69.214C93.7437 68.6721 92.6834 68.0359 91.6232 67.3762C89.5026 66.0331 87.3703 64.537 85.2379 63.0172C83.1056 61.4975 80.9968 59.8835 78.888 58.3049C76.7792 56.7262 74.6586 55.0415 72.6088 53.4747L65.5284 62.0747Z" fill="#DC897C"/>
<path d="M61.9477 54.889C60.9934 66.2694 83.5892 77.2728 83.5892 77.2728L91.1055 65.0206C86.8131 59.7115 82.1098 54.7482 77.039 50.1766C69.7467 43.9799 62.5839 47.3256 61.9477 54.889Z" fill="#407BFF"/>
<path opacity="0.7" d="M69.6642 68.1277C71.4398 69.6683 73.3129 71.0928 75.2719 72.3923C77.9397 74.1974 80.7175 75.8342 83.5892 77.2932L91.1055 65.0411C86.8112 59.7298 82.1038 54.7664 77.0273 50.1971C69.7466 43.9768 62.5721 47.3225 61.9477 54.9095C61.5471 59.6218 65.2346 64.2989 69.6642 68.1277Z" fill="white"/>
<path d="M119.239 53.9347L125.519 45.4407L131.975 52.038C131.975 52.038 128.44 58.5999 122.326 57.8342L119.239 53.9347Z" fill="#E4897B"/>
<path d="M132.289 42.1885L135.93 48.2674L131.971 52.0373L125.515 45.44L132.289 42.1885Z" fill="#E4897B"/>
<path opacity="0.2" d="M69.6638 68.1322C71.4394 69.6728 73.3125 71.0973 75.2715 72.3969C74.3565 69.3765 73.0494 66.4892 71.3838 63.8086C70.3682 65.032 69.7661 66.5455 69.6638 68.1322Z" fill="black"/>
<path d="M80.1812 281.978L71.3102 281.742C71.1497 281.737 70.9922 281.787 70.8637 281.883C70.7353 281.979 70.6434 282.117 70.6033 282.272L68.7302 289.411C68.6856 289.584 68.6808 289.764 68.7159 289.938C68.751 290.113 68.8252 290.277 68.9329 290.419C69.0406 290.561 69.179 290.676 69.3377 290.757C69.4965 290.837 69.6714 290.881 69.8494 290.884C73.0538 290.884 77.6837 290.884 81.701 290.966C86.4133 291.084 89.3939 290.86 94.9074 290.966C98.2414 291.061 99.2899 287.727 97.9115 287.432C91.6087 285.877 87.4854 286.183 82.1133 282.72C81.5553 282.29 80.8838 282.032 80.1812 281.978Z" fill="#263238"/>
<g opacity="0.4">
<path d="M80.1851 281.978L71.3141 281.743C71.1536 281.737 70.9961 281.787 70.8676 281.884C70.7392 281.98 70.6473 282.117 70.6072 282.273L68.7341 289.412C68.6895 289.584 68.6847 289.764 68.7198 289.939C68.7549 290.113 68.8291 290.278 68.9368 290.419C69.0445 290.561 69.1829 290.677 69.3416 290.757C69.5004 290.838 69.6753 290.881 69.8533 290.885C73.0577 290.885 77.6876 290.885 81.7049 290.967C86.4172 291.085 89.3978 290.861 94.9113 290.967C98.2453 291.061 99.2938 287.727 97.9154 287.433C91.6126 285.878 87.4893 286.184 82.1172 282.72C81.5592 282.29 80.8877 282.032 80.1851 281.978Z" fill="white"/>
</g>
<path d="M35.0519 281.978L26.1809 281.742C26.0204 281.737 25.8629 281.787 25.7344 281.883C25.6059 281.979 25.5141 282.117 25.474 282.272L23.6127 289.411C23.5681 289.584 23.5632 289.764 23.5983 289.938C23.6334 290.113 23.7076 290.277 23.8153 290.419C23.923 290.561 24.0614 290.676 24.2202 290.757C24.3789 290.837 24.5538 290.881 24.7318 290.884C27.9244 290.884 32.5544 290.884 36.5835 290.966C41.2958 291.084 44.2764 290.86 49.7899 290.966C53.1239 291.061 54.1606 287.727 52.7822 287.432C46.4794 285.877 42.3561 286.183 36.984 282.72C36.4285 282.285 35.7556 282.027 35.0519 281.978Z" fill="#263238"/>
<g opacity="0.4">
<path d="M35.0519 281.978L26.1809 281.743C26.0204 281.737 25.8629 281.787 25.7344 281.884C25.6059 281.98 25.5141 282.117 25.474 282.273L23.6127 289.412C23.5681 289.584 23.5632 289.764 23.5983 289.939C23.6334 290.113 23.7076 290.278 23.8153 290.419C23.923 290.561 24.0614 290.677 24.2202 290.757C24.3789 290.838 24.5538 290.881 24.7318 290.885C27.9244 290.885 32.5544 290.885 36.5835 290.967C41.2958 291.085 44.2764 290.861 49.7899 290.967C53.1239 291.061 54.1606 287.727 52.7822 287.433C46.4794 285.878 42.3561 286.184 36.984 282.72C36.4285 282.286 35.7556 282.027 35.0519 281.978Z" fill="white"/>
</g>
<path d="M19.9245 106.782C15.648 125.278 24.1303 283.096 24.1303 283.096L38.1378 282.66L43.1683 149.535L69.8402 283.885L83.459 281.847C73.5748 187.929 61.9353 119.671 61.9353 119.671V112.602L19.9245 106.782Z" fill="#263238"/>
<path d="M27.5227 38.2914C27.9667 47.1353 27.7422 56.0001 26.8512 64.8102C26.2739 70.9598 25.4492 76.7796 24.5774 82.0339C22.5511 94.345 20.2303 103.569 19.8651 106.774L61.9112 112.582C77.2264 69.6993 71.4655 46.9503 71.4655 46.9503L61.8405 41.4487L59.7081 40.9067C53.7984 39.7481 47.8277 38.926 41.8247 38.4445C40.6466 38.3385 39.5274 38.2678 38.4082 38.2207C32.7063 37.9733 27.5227 38.2914 27.5227 38.2914Z" fill="#407BFF"/>
<g opacity="0.7">
<path d="M19.9236 106.783C26.0968 107.643 49.317 110.848 61.9815 112.579C77.2967 69.7086 71.5358 46.9596 71.5358 46.9596L61.9108 41.4697C61.9108 41.4697 60.4971 41.0927 59.7667 40.916C53.8611 39.7565 47.8942 38.9344 41.895 38.4538C40.7169 38.3595 39.5977 38.2771 38.4785 38.2299C32.7295 37.9708 27.5576 38.2299 27.5576 38.2299C27.8462 43.9007 27.8462 49.5826 27.5576 55.2534C27.3927 58.4931 27.1571 61.6622 26.8743 64.7488C26.8743 64.8902 26.8743 65.0433 26.8743 65.1847C26.2853 71.1694 25.4842 76.8478 24.636 81.9725C22.5507 94.3425 20.2417 103.567 19.9236 106.783Z" fill="white"/>
</g>
<path d="M43.3567 38.2548C43.3567 38.2548 53.0053 45.8653 55.9034 45.83C57.9415 45.83 60.8867 42.4842 60.8867 42.4842C59.6408 41.8983 58.551 41.0264 57.7059 39.9395C55.6914 37.171 56.8577 33.8252 58.507 30.7504L50.0365 18.9695C49.8934 21.8361 49.5311 24.6875 48.9527 27.4989C47.9984 32.1052 46.2784 36.6173 43.3567 38.2548Z" fill="#E4897B"/>
<path opacity="0.2" d="M48.9515 27.5215C49.8351 32.658 52.0735 38.5838 57.7048 39.9268C55.6902 37.1583 56.8565 33.8125 58.5059 30.7377L50.0354 18.9568C49.8941 21.8352 49.5317 24.6986 48.9515 27.5215Z" fill="black"/>
<path d="M55.9043 45.8443C55.9043 45.8443 53.5481 47.9766 50.8738 50.0383C47.6458 47.8942 40.1532 42.2747 41.0603 38.0335C41.6847 36.8554 45.054 36.4431 45.054 36.4431C45.054 36.4431 48.0582 41.4971 55.9043 45.8443Z" fill="#407BFF"/>
<path d="M55.9012 45.8417C57.4349 47.4029 58.7362 49.1764 59.7654 51.1078C62.4985 49.7648 62.1805 41.6242 61.3558 40.6346C60.1139 39.7296 58.6628 39.154 57.1382 38.9617C57.5088 40.1224 57.5899 41.3561 57.3743 42.5553C57.1587 43.7546 56.653 44.8828 55.9012 45.8417Z" fill="#407BFF"/>
<g opacity="0.5">
<path d="M55.9062 45.8382C55.9062 45.8382 53.55 47.9705 50.8758 50.0322C47.6478 47.8881 40.1551 42.2686 41.0623 38.0274C41.6867 36.8493 45.056 36.437 45.056 36.437C45.056 36.437 48.0602 41.491 55.9062 45.8382Z" fill="white"/>
<path d="M55.9051 45.84C57.4388 47.4012 58.7401 49.1747 59.7693 51.1061C62.5025 49.7631 62.1844 41.6224 61.3597 40.6328C60.1178 39.7279 58.6667 39.1523 57.1421 38.96C57.5127 40.1207 57.5938 41.3544 57.3782 42.5536C57.1626 43.7528 56.6569 44.8811 55.9051 45.84Z" fill="white"/>
</g>
<path opacity="0.2" d="M47.9042 175.325L43.1918 149.524L44.0989 135.882C44.0989 135.882 50.5549 159.55 47.9042 175.325Z" fill="black"/>
<path d="M71.5496 10.6039C72.4803 13.8672 71.7381 20.4999 67.2731 18.2144C62.8082 15.9289 69.9474 4.98437 71.5496 10.6039Z" fill="#263238"/>
<path d="M48.0926 14.3262C47.3622 22.6436 46.514 27.4737 50.0482 32.2804C55.3732 39.5256 66.141 37.1812 69.3454 29.2291C72.2317 22.0781 72.9385 9.68454 65.3398 5.27847C63.6577 4.29951 61.7547 3.76355 59.8089 3.72079C57.8631 3.67804 55.9383 4.12988 54.2148 5.03401C52.4913 5.93814 51.0255 7.26496 49.9547 8.89017C48.8839 10.5154 48.2432 12.3858 48.0926 14.3262Z" fill="#E4897B"/>
<path d="M60.274 18.3896C60.1797 19.0494 60.4507 19.6502 60.8866 19.7091C61.3224 19.768 61.7701 19.2732 61.8761 18.6017C61.9822 17.9302 61.6994 17.3411 61.2518 17.2822C60.8041 17.2233 60.38 17.7652 60.274 18.3896Z" fill="#263238"/>
<path d="M67.885 19.4542C67.779 20.1257 68.0617 20.7148 68.4976 20.7737C68.9335 20.8326 69.3812 20.3495 69.4754 19.678C69.5697 19.0065 69.2987 18.4057 68.8628 18.3468C68.427 18.2879 67.9793 18.7827 67.885 19.4542Z" fill="#263238"/>
<path d="M65.4129 19.4402C65.946 21.5417 66.7667 23.5596 67.8516 25.4367C67.3429 25.6816 66.7884 25.8166 66.2241 25.8329C65.6598 25.8491 65.0983 25.7462 64.5765 25.5309L65.4129 19.4402Z" fill="#DE5753"/>
<path d="M58.2948 15.6084C58.3651 15.6264 58.4388 15.6262 58.5089 15.6076C58.5791 15.589 58.6433 15.5528 58.6954 15.5024C59.0412 15.1394 59.4682 14.8636 59.9412 14.6977C60.4143 14.5319 60.92 14.4806 61.4168 14.5481C61.5213 14.5694 61.63 14.5494 61.72 14.4923C61.8101 14.4352 61.8745 14.3454 61.8998 14.2418C61.9118 14.1907 61.9134 14.1376 61.9044 14.0859C61.8954 14.0341 61.876 13.9847 61.8473 13.9407C61.8187 13.8967 61.7815 13.8589 61.7378 13.8296C61.6942 13.8004 61.6451 13.7803 61.5935 13.7706C60.964 13.6738 60.3204 13.7304 59.7174 13.9355C59.1144 14.1406 58.5698 14.4881 58.1299 14.9487C58.0551 15.0237 58.0131 15.1254 58.0131 15.2314C58.0131 15.3374 58.0551 15.4391 58.1299 15.5141C58.1783 15.5559 58.2343 15.5879 58.2948 15.6084Z" fill="#263238"/>
<path d="M71.5505 17.2952C71.6204 17.3158 71.6945 17.317 71.765 17.2986C71.8354 17.2802 71.8996 17.243 71.9504 17.1909C72.0013 17.1388 72.0371 17.0738 72.0538 17.0029C72.0705 16.932 72.0675 16.8579 72.0453 16.7886C71.8682 16.183 71.5476 15.6291 71.1108 15.1738C70.6739 14.7185 70.1337 14.3752 69.5359 14.1732C69.4345 14.148 69.3271 14.1634 69.2369 14.2163C69.1466 14.2691 69.0806 14.3551 69.053 14.456C69.0368 14.5062 69.031 14.5593 69.0361 14.6118C69.0411 14.6643 69.0568 14.7153 69.0821 14.7616C69.1075 14.8079 69.142 14.8485 69.1835 14.8811C69.2251 14.9136 69.2729 14.9373 69.3239 14.9508C69.7964 15.1104 70.2221 15.3843 70.5633 15.748C70.9045 16.1118 71.1505 16.5543 71.2795 17.036C71.3018 17.0971 71.3378 17.1522 71.3848 17.1972C71.4318 17.2421 71.4885 17.2756 71.5505 17.2952Z" fill="#263238"/>
<path d="M61.9564 9.52047C61.9564 9.52047 59.9065 7.57662 58.6342 9.19061C57.3619 10.8046 56.7728 15.4934 56.7728 15.4934L56.4312 14.598C56.4312 14.598 52.0722 24.6236 48.1845 21.4074C44.2968 18.1912 39.502 6.76374 50.1755 2.73466C50.1755 2.73466 51.5774 0.378477 58.3043 0.0250492C65.0312 -0.328378 72.4415 4.81989 73.1719 9.34376C73.9023 13.8676 71.6993 16.0118 71.6993 16.0118C71.614 15.0425 71.3033 14.1065 70.7921 13.2786C70.6459 13.7085 70.3948 14.0952 70.0616 14.4037C69.7284 14.7123 69.3235 14.9329 68.8836 15.0457C69.0741 14.1661 69.0087 13.2504 68.6951 12.4068C68.3873 13.15 67.9163 13.8143 67.3168 14.3507C67.4464 9.815 64.5365 8.46018 63.5704 8.38949C63.2159 8.38104 62.868 8.48627 62.5776 8.68977C62.2872 8.89327 62.0695 9.18437 61.9564 9.52047Z" fill="#263238"/>
<path d="M43.8761 20.715C44.0435 21.7377 44.4118 22.7172 44.9598 23.5968C45.5078 24.4764 46.2246 25.2387 47.0688 25.8397C49.3425 27.4302 51.4277 25.6159 51.5809 22.9887C51.7222 20.6326 50.7091 16.9334 48.0466 16.3914C47.4616 16.2841 46.8592 16.3232 46.293 16.5052C45.7268 16.6872 45.2145 17.0065 44.8016 17.4345C44.3887 17.8626 44.0881 18.3861 43.9267 18.9585C43.7652 19.5309 43.7478 20.1343 43.8761 20.715Z" fill="#E4897B"/>
<path d="M63.9395 28.261C63.1292 28.9054 62.3656 29.6061 61.654 30.358L61.2063 30.0517C59.1682 28.638 58.6852 27.3185 58.7676 26.27C58.818 25.7644 58.992 25.2789 59.2742 24.8563C59.4249 24.6066 59.6115 24.3804 59.8279 24.1848C60.6981 25.5959 61.8636 26.8016 63.2444 27.7191C63.6567 28.0843 63.9395 28.261 63.9395 28.261Z" fill="#263238"/>
<path d="M63.2441 27.7688L62.5609 28.3696C60.6406 27.0384 59.4743 25.8485 59.274 24.8353C59.4247 24.5856 59.6112 24.3594 59.8277 24.1638C60.6897 25.6005 61.8558 26.831 63.2441 27.7688Z" fill="white"/>
<path d="M61.156 30.0527C59.1179 28.639 58.6349 27.3195 58.7173 26.271C59.4796 26.8258 60.141 27.5072 60.673 28.2855C61.0112 28.8112 61.1798 29.428 61.156 30.0527Z" fill="#A24E3F"/>
<path d="M61.9586 114.727L62.7715 110.274L19.9125 103.971L19.2528 111.758L61.9586 114.727Z" fill="#263238"/>
<path d="M59.3079 110.955L58.9309 113.417L62.3591 113.829L62.7715 111.379L59.3079 110.955Z" fill="black"/>
<path d="M35.4055 107.961L35.0167 110.565L57.3886 113.239L57.7656 110.753L35.4055 107.961Z" fill="black"/>
<path d="M19.251 108.679L33.4588 110.375L33.8594 107.783L19.4985 105.981L19.251 108.679Z" fill="black"/>
<path d="M50.1921 110.718L50.0271 111.578C49.9844 111.784 49.8668 111.967 49.697 112.091C49.5272 112.215 49.3174 112.272 49.1082 112.25L45.3972 111.802C45.2847 111.789 45.176 111.754 45.0776 111.698C44.9793 111.641 44.8934 111.566 44.8251 111.476C44.7568 111.385 44.7075 111.282 44.6803 111.172C44.6531 111.062 44.6485 110.948 44.6668 110.836L44.7728 109.953C44.786 109.843 44.8205 109.738 44.8744 109.642C44.9282 109.547 45.0005 109.462 45.0869 109.394C45.1733 109.327 45.2723 109.277 45.3781 109.247C45.4839 109.217 45.5945 109.209 45.7035 109.222L49.4734 109.693C49.5909 109.707 49.7043 109.745 49.806 109.805C49.9077 109.866 49.9954 109.947 50.0633 110.044C50.1312 110.141 50.1778 110.251 50.2 110.367C50.2222 110.484 50.2195 110.603 50.1921 110.718V110.718Z" stroke="white" stroke-width="0.589046" stroke-linecap="round" stroke-linejoin="round"/>
<path d="M46.668 110.621L45.5016 110.479" stroke="white" stroke-width="0.589046" stroke-linecap="round" stroke-linejoin="round"/>
<path d="M14.0339 99.7762L24.6367 99.0693L23.7649 108.27C23.7649 108.27 16.4607 109.802 13.1032 104.642L14.0339 99.7762Z" fill="#E4897B"/>
<path d="M31.3867 102.156L29.1012 108.859L23.6584 108.27L24.5184 99.0693L31.3867 102.156Z" fill="#E4897B"/>
<path opacity="0.2" d="M26.8168 65.2461C29.6796 60.9814 30.4453 53.8657 30.4453 53.8657C29.3688 54.0858 28.3692 54.5856 27.5472 55.3148C27.3823 58.5545 27.1467 61.7236 26.8639 64.8102C26.8522 64.9516 26.8404 65.1047 26.8168 65.2461Z" fill="black"/>
<path d="M23.1282 41.2131C18.9664 45.2859 15.0147 49.5679 11.2884 54.0426C9.39168 56.2809 7.55382 58.59 5.81025 61.1111C4.93846 62.3481 4.06668 63.6205 3.24201 65.0106C2.28215 66.5711 1.49225 68.2298 0.88583 69.9586C0.539806 71.1047 0.365128 72.2957 0.367466 73.4929C0.368246 74.4315 0.439119 75.3687 0.579515 76.2967C0.833426 77.9135 1.19554 79.5115 1.66338 81.0798C2.5359 83.9671 3.59043 86.7963 4.82065 89.5503C7.19083 94.8882 9.94702 100.046 13.0673 104.983L18.0035 102.521C16.1186 97.2668 14.269 91.9182 12.7021 86.6522C11.9176 84.0876 11.2649 81.4845 10.7465 78.8532C10.5017 77.6686 10.3443 76.4676 10.2752 75.26C10.245 74.7735 10.245 74.2856 10.2752 73.7992C10.2752 73.3986 10.4048 73.1159 10.4284 73.163C10.8789 72.2502 11.4029 71.3755 11.9952 70.5476C12.7021 69.5463 13.4796 68.4977 14.3514 67.461C16.0125 65.3876 17.815 63.3142 19.6411 61.2525C21.4671 59.1908 23.3874 57.1763 25.2959 55.1382C27.2044 53.1001 29.16 51.0856 31.0332 49.1064L23.1282 41.2131Z" fill="#DC897C"/>
<path d="M30.4093 38.2681C19.1232 36.5245 6.5412 58.2957 6.5412 58.2957L18.2397 66.6484C23.8375 62.7547 29.1164 58.4213 34.0261 53.6893C40.753 46.8093 37.9138 39.4344 30.4093 38.2681Z" fill="#407BFF"/>
<path opacity="0.7" d="M30.4093 38.2681C19.1232 36.5245 6.5412 58.2957 6.5412 58.2957L18.2397 66.6484C23.8375 62.7547 29.1164 58.4213 34.0261 53.6893C40.753 46.8093 37.9138 39.4344 30.4093 38.2681Z" fill="white"/>
<path d="M130.652 288.718L129.781 291.016L128.885 288.73L128.767 276.784L130.535 276.772L130.652 288.718Z" fill="#263238"/>
<path d="M122.996 37.397L131.725 37.3132L131.494 13.1987C131.49 12.7676 131.314 12.3557 131.007 12.0538C130.699 11.7518 130.284 11.5845 129.853 11.5886L124.375 11.6412C123.944 11.6454 123.532 11.8206 123.23 12.1284C122.928 12.4362 122.76 12.8514 122.765 13.2825L122.996 37.397Z" fill="#263238"/>
<path opacity="0.3" d="M131.703 37.2998L122.973 37.3822L122.738 13.2196C122.738 12.8007 122.902 12.3984 123.195 12.0989C123.487 11.7995 123.886 11.6266 124.305 11.6174H129.877C130.084 11.6143 130.289 11.6521 130.481 11.7287C130.673 11.8053 130.848 11.9192 130.996 12.0637C131.144 12.2083 131.262 12.3807 131.343 12.571C131.424 12.7613 131.466 12.9657 131.467 13.1725L131.703 37.2998Z" fill="white"/>
<path d="M133.224 31.4103L121.337 31.5281C120.276 31.54 119.261 31.9628 118.505 32.7076C117.749 33.4523 117.312 34.4612 117.284 35.5219C115.329 110.873 116.114 186.235 119.641 261.61C119.641 261.61 121.643 276.772 128.311 286.503H131.245C137.736 276.654 139.491 261.456 139.491 261.456C141.463 186.082 140.752 110.704 137.359 35.3216C137.31 34.2611 136.852 33.2609 136.081 32.5315C135.31 31.802 134.286 31.4001 133.224 31.4103Z" fill="#263238"/>
<path d="M141.527 28.2521L121.5 28.4406C121.34 28.4404 121.182 28.4727 121.035 28.5355C120.888 28.5984 120.755 28.6905 120.645 28.8062C120.535 28.9219 120.45 29.0588 120.394 29.2086C120.338 29.3584 120.314 29.518 120.322 29.6776V31.6921L140.703 31.4918C142.423 61.8395 141.41 87.1331 141.41 87.1331L139.925 87.8635L141.539 93.754C145.132 83.6342 143.33 37.9949 142.953 29.5833C142.947 29.4023 142.905 29.2242 142.83 29.0593C142.755 28.8944 142.648 28.7458 142.516 28.6222C142.384 28.4986 142.228 28.4022 142.059 28.3387C141.889 28.2752 141.708 28.2458 141.527 28.2521Z" fill="#263238"/>
<path d="M140.514 145.028L116.27 145.261L116.225 140.608L140.469 140.375L140.514 145.028Z" fill="#263238"/>
<path d="M115.868 183.878C116.355 206.293 117.07 228.677 118.012 251.029C118.034 251.519 118.245 251.981 118.601 252.317C118.957 252.654 119.431 252.838 119.921 252.832L138.911 252.62C139.401 252.613 139.869 252.417 140.217 252.072C140.564 251.727 140.764 251.26 140.773 250.77C141.307 228.457 141.59 206.073 141.621 183.619C141.621 183.369 141.572 183.121 141.476 182.89C141.38 182.659 141.239 182.45 141.061 182.273C140.884 182.097 140.674 181.958 140.442 181.863C140.211 181.768 139.963 181.72 139.713 181.722L117.729 181.934C117.479 181.939 117.233 181.993 117.003 182.093C116.774 182.193 116.567 182.338 116.394 182.519C116.221 182.699 116.086 182.912 115.995 183.146C115.905 183.379 115.862 183.628 115.868 183.878Z" fill="#263238"/>
<path opacity="0.2" d="M140.514 145.028L116.27 145.261L116.225 140.608L140.469 140.375L140.514 145.028Z" fill="black"/>
<path opacity="0.6" d="M141.527 28.2521L121.5 28.4406C121.34 28.4404 121.182 28.4727 121.035 28.5355C120.888 28.5984 120.755 28.6905 120.645 28.8062C120.535 28.9219 120.45 29.0588 120.394 29.2086C120.338 29.3584 120.314 29.518 120.322 29.6776V31.6921L140.703 31.4918C142.423 61.8395 141.41 87.1331 141.41 87.1331L139.925 87.8635L141.539 93.754C145.132 83.6342 143.33 37.9949 142.953 29.5833C142.947 29.4023 142.905 29.2242 142.83 29.0593C142.755 28.8944 142.648 28.7458 142.516 28.6222C142.384 28.4986 142.228 28.4022 142.059 28.3387C141.889 28.2752 141.708 28.2458 141.527 28.2521Z" fill="white"/>
<path opacity="0.3" d="M115.868 183.878C116.355 206.293 117.07 228.677 118.012 251.029C118.034 251.519 118.245 251.981 118.601 252.317C118.957 252.654 119.431 252.838 119.921 252.832L138.911 252.62C139.401 252.613 139.869 252.417 140.217 252.072C140.564 251.727 140.764 251.26 140.773 250.77C141.307 228.457 141.59 206.073 141.621 183.619C141.621 183.369 141.572 183.121 141.476 182.89C141.38 182.659 141.239 182.45 141.061 182.273C140.884 182.097 140.674 181.958 140.442 181.863C140.211 181.768 139.963 181.72 139.713 181.722L117.729 181.934C117.479 181.939 117.233 181.993 117.003 182.093C116.774 182.193 116.567 182.338 116.394 182.519C116.221 182.699 116.086 182.912 115.995 183.146C115.905 183.379 115.862 183.628 115.868 183.878Z" fill="white"/>
</svg>
