<svg width="194" height="193" viewBox="0 0 194 193" fill="none" xmlns="http://www.w3.org/2000/svg">
<path d="M117.76 149.231L99.0041 130.997V115.023C99.0041 113.915 98.1081 113.019 96.9999 113.019C95.8916 113.019 94.9957 113.915 94.9957 115.023V130.997L76.2413 149.231C75.4476 150.002 75.4315 151.271 76.2011 152.065C76.9726 152.854 78.2395 152.878 79.0351 152.103L94.9953 136.587V150.668C94.9953 151.776 95.8912 152.672 96.9995 152.672C98.1078 152.672 99.0037 151.776 99.0037 150.668V136.587L114.966 152.105C115.355 152.484 115.86 152.672 116.363 152.672C116.886 152.672 117.407 152.467 117.8 152.065C118.57 151.271 118.552 150.002 117.76 149.231Z" fill="#2F4859"/>
<path d="M152.118 40.4304H41.8809V49.4961H152.118V40.4304Z" fill="#64798A"/>
<path d="M144.046 49.4954H49.957V110.489H144.046V49.4954Z" fill="#DDFFEF"/>
<path d="M152.118 110.488H41.8809V119.554H152.118V110.488Z" fill="#64798A"/>
<path d="M62.0228 83.6612C62.0811 87.0705 64.2577 88.4757 66.779 88.4757C68.5829 88.4757 69.6713 88.1611 70.6172 87.7601L71.046 89.5621C70.1579 89.9631 68.6389 90.422 66.4359 90.422C62.1686 90.422 59.6191 87.6139 59.6191 83.4331C59.6191 79.2522 62.0826 75.959 66.121 75.959C70.6446 75.959 71.8495 79.9396 71.8495 82.489C71.8495 83.0043 71.7912 83.4049 71.7634 83.6616H62.0228V83.6612ZM69.4127 81.8596C69.4409 80.256 68.7532 77.7629 65.9192 77.7629C63.3697 77.7629 62.2532 80.1139 62.0529 81.8596H69.4127Z" fill="#64798A"/>
<path d="M74.0293 80.4822V78.7644H88.8072V80.4822H74.0293ZM74.0293 86.0961V84.3764H88.8072V86.0961H74.0293Z" fill="#64798A"/>
<path d="M92.0595 80.0256C92.0595 78.5945 92.0294 77.4179 91.9434 76.2735H94.1501L94.2644 78.5085H94.3504C95.1242 77.1916 96.411 75.959 98.7038 75.959C100.592 75.959 102.025 77.1033 102.626 78.737H102.684C103.113 77.9632 103.657 77.3641 104.23 76.9312C105.059 76.3017 105.975 75.959 107.294 75.959C109.128 75.959 111.848 77.1616 111.848 81.9738V90.1352H109.387V82.2884C109.387 79.6246 108.413 78.021 106.379 78.021C104.947 78.021 103.829 79.0793 103.4 80.3139C103.286 80.6566 103.2 81.1136 103.2 81.5724V90.1349H100.737V81.8291C100.737 79.6243 99.7624 78.021 97.8424 78.021C96.2689 78.021 95.1227 79.2796 94.7217 80.5423C94.5774 80.9133 94.5214 81.344 94.5214 81.7731V90.1352H92.058V80.0256H92.0595Z" fill="#64798A"/>
<path d="M125.838 89.6192C125.179 89.9619 123.718 90.4208 121.856 90.4208C117.675 90.4208 114.955 87.5846 114.955 83.3454C114.955 79.0781 117.875 75.9856 122.401 75.9856C123.888 75.9856 125.207 76.3584 125.894 76.7011L125.321 78.6493C124.722 78.3066 123.776 77.992 122.401 77.992C119.222 77.992 117.505 80.3412 117.505 83.2312C117.505 86.4402 119.567 88.4162 122.315 88.4162C123.746 88.4162 124.692 88.0434 125.407 87.7289L125.838 89.6192Z" fill="#64798A"/>
<path d="M127.455 80.5923V79.6923L128.608 78.572C131.378 75.9342 132.628 74.5332 132.646 72.8977C132.646 71.7973 132.113 70.777 130.492 70.777C129.508 70.777 128.692 71.2779 128.191 71.6951L127.724 70.659C128.475 70.0257 129.544 69.5586 130.792 69.5586C133.129 69.5586 134.113 71.1599 134.113 72.7113C134.113 74.7154 132.662 76.3329 130.375 78.5359L129.507 79.3356V79.3698H134.382V80.5863H127.455V80.5923Z" fill="#64798A"/>
</svg>
