<svg width="202" height="63" viewBox="0 0 202 63" fill="none" xmlns="http://www.w3.org/2000/svg">
<path d="M64.5222 33.8872C64.5222 34.7534 64.4664 35.5358 64.3546 36.2343H46.7094C46.8491 38.0785 47.5336 39.5594 48.7631 40.6771C49.9925 41.7948 51.5014 42.3536 53.2896 42.3536C55.8603 42.3536 57.6765 41.2778 58.7383 39.1263H63.8936C63.195 41.2499 61.9237 42.9963 60.0795 44.3654C58.2633 45.7066 56 46.3772 53.2896 46.3772C51.0822 46.3772 49.0984 45.8882 47.338 44.9103C45.6057 43.9044 44.2365 42.5073 43.2306 40.719C42.2526 38.9028 41.7637 36.8072 41.7637 34.4321C41.7637 32.057 42.2387 29.9754 43.1887 28.1871C44.1667 26.3709 45.5218 24.9738 47.2542 23.9958C49.0146 23.0179 51.0264 22.5289 53.2896 22.5289C55.4691 22.5289 57.4111 23.0039 59.1155 23.9539C60.82 24.9039 62.1472 26.2452 63.0972 27.9775C64.0472 29.682 64.5222 31.6519 64.5222 33.8872ZM59.5346 32.3784C59.5067 30.618 58.878 29.207 57.6486 28.1452C56.4191 27.0834 54.8963 26.5525 53.0801 26.5525C51.4315 26.5525 50.0205 27.0834 48.8469 28.1452C47.6733 29.179 46.9748 30.5901 46.7513 32.3784H59.5346ZM65.536 34.3483C65.536 32.0291 66.011 29.9754 66.961 28.1871C67.939 26.3988 69.2523 25.0157 70.9008 24.0378C72.5773 23.0318 74.4355 22.5289 76.4752 22.5289C77.9841 22.5289 79.465 22.8642 80.918 23.5348C82.3989 24.1775 83.5724 25.0437 84.4386 26.1334V14.9846H89.2586V46H84.4386V42.5212C83.6563 43.6389 82.5665 44.561 81.1694 45.2875C79.8003 46.014 78.2216 46.3772 76.4333 46.3772C74.4215 46.3772 72.5773 45.8743 70.9008 44.8684C69.2523 43.8345 67.939 42.4095 66.961 40.5933C66.011 38.7491 65.536 36.6674 65.536 34.3483ZM84.4386 34.4321C84.4386 32.8394 84.1033 31.4563 83.4327 30.2827C82.7901 29.1092 81.9378 28.2151 80.8761 27.6003C79.8143 26.9856 78.6686 26.6783 77.4392 26.6783C76.2098 26.6783 75.0642 26.9856 74.0024 27.6003C72.9406 28.1871 72.0744 29.0673 71.4038 30.2408C70.7611 31.3864 70.4398 32.7556 70.4398 34.3483C70.4398 35.941 70.7611 37.338 71.4038 38.5395C72.0744 39.741 72.9406 40.6631 74.0024 41.3058C75.0921 41.9205 76.2377 42.2279 77.4392 42.2279C78.6686 42.2279 79.8143 41.9205 80.8761 41.3058C81.9378 40.6911 82.7901 39.7969 83.4327 38.6234C84.1033 37.4219 84.4386 36.0248 84.4386 34.4321ZM114.353 22.9061V46H109.575V43.2757C108.821 44.2257 107.829 44.9801 106.599 45.539C105.398 46.0699 104.112 46.3353 102.743 46.3353C100.927 46.3353 99.2925 45.9581 97.8396 45.2037C96.4145 44.4492 95.2829 43.3316 94.4446 41.8506C93.6343 40.3697 93.2292 38.5815 93.2292 36.4858V22.9061H97.9653V35.7733C97.9653 37.841 98.4822 39.4337 99.5161 40.5514C100.55 41.6411 101.961 42.1859 103.749 42.1859C105.538 42.1859 106.949 41.6411 107.982 40.5514C109.044 39.4337 109.575 37.841 109.575 35.7733V22.9061H114.353ZM195.892 46.2934C195.025 46.2934 194.299 46 193.712 45.4132C193.125 44.8264 192.832 44.1 192.832 43.2338C192.832 42.3676 193.125 41.6411 193.712 41.0543C194.299 40.4675 195.025 40.1741 195.892 40.1741C196.73 40.1741 197.442 40.4675 198.029 41.0543C198.616 41.6411 198.909 42.3676 198.909 43.2338C198.909 44.1 198.616 44.8264 198.029 45.4132C197.442 46 196.73 46.2934 195.892 46.2934Z" fill="#02CBE1"/>
<path d="M128.244 26.804H123.969V46H119.149V26.804H116.424V22.9061H119.149V21.2715C119.149 18.617 119.847 16.6891 121.244 15.4876C122.669 14.2581 124.891 13.6434 127.908 13.6434V17.6251C126.455 17.6251 125.435 17.9045 124.849 18.4634C124.262 18.9943 123.969 19.9303 123.969 21.2715V22.9061H128.244V26.804ZM151.548 33.8872C151.548 34.7534 151.492 35.5358 151.381 36.2343H133.735C133.875 38.0785 134.56 39.5594 135.789 40.6771C137.019 41.7948 138.527 42.3536 140.316 42.3536C142.886 42.3536 144.703 41.2778 145.764 39.1263H150.92C150.221 41.2499 148.95 42.9963 147.106 44.3654C145.289 45.7066 143.026 46.3772 140.316 46.3772C138.108 46.3772 136.124 45.8882 134.364 44.9103C132.632 43.9044 131.263 42.5073 130.257 40.719C129.279 38.9028 128.79 36.8072 128.79 34.4321C128.79 32.057 129.265 29.9754 130.215 28.1871C131.193 26.3709 132.548 24.9738 134.28 23.9958C136.041 23.0179 138.052 22.5289 140.316 22.5289C142.495 22.5289 144.437 23.0039 146.142 23.9539C147.846 24.9039 149.173 26.2452 150.123 27.9775C151.073 29.682 151.548 31.6519 151.548 33.8872ZM146.561 32.3784C146.533 30.618 145.904 29.207 144.675 28.1452C143.445 27.0834 141.922 26.5525 140.106 26.5525C138.458 26.5525 137.047 27.0834 135.873 28.1452C134.699 29.179 134.001 30.5901 133.777 32.3784H146.561ZM152.562 34.3483C152.562 32.0291 153.037 29.9754 153.987 28.1871C154.965 26.3988 156.278 25.0157 157.927 24.0378C159.603 23.0318 161.448 22.5289 163.459 22.5289C165.276 22.5289 166.854 22.8921 168.196 23.6186C169.565 24.3172 170.654 25.1973 171.465 26.2591V22.9061H176.285V46H171.465V42.5632C170.654 43.6529 169.551 44.561 168.154 45.2875C166.757 46.014 165.164 46.3772 163.376 46.3772C161.392 46.3772 159.576 45.8743 157.927 44.8684C156.278 43.8345 154.965 42.4095 153.987 40.5933C153.037 38.7491 152.562 36.6674 152.562 34.3483ZM171.465 34.4321C171.465 32.8394 171.129 31.4563 170.459 30.2827C169.816 29.1092 168.964 28.2151 167.902 27.6003C166.84 26.9856 165.695 26.6783 164.465 26.6783C163.236 26.6783 162.09 26.9856 161.028 27.6003C159.967 28.1871 159.101 29.0673 158.43 30.2408C157.787 31.3864 157.466 32.7556 157.466 34.3483C157.466 35.941 157.787 37.338 158.43 38.5395C159.101 39.741 159.967 40.6631 161.028 41.3058C162.118 41.9205 163.264 42.2279 164.465 42.2279C165.695 42.2279 166.84 41.9205 167.902 41.3058C168.964 40.6911 169.816 39.7969 170.459 38.6234C171.129 37.4219 171.465 36.0248 171.465 34.4321ZM186.039 26.804V39.5874C186.039 40.4536 186.235 41.0822 186.626 41.4734C187.045 41.8367 187.744 42.0183 188.722 42.0183H191.656V46H187.883C185.732 46 184.083 45.497 182.938 44.4911C181.792 43.4852 181.219 41.8506 181.219 39.5874V26.804H178.495V22.9061H181.219V17.1641H186.039V22.9061H191.656V26.804H186.039Z" fill="#29329C"/>
<rect width="37.2557" height="37.2559" rx="18.6279" transform="matrix(0.999615 -0.0277442 0.0281002 0.999605 0 13.2258)" fill="#29329C"/>
<path d="M25.5245 26.9893L25.5186 28.8521L25.5253 31.0709L23.0975 31.7225L21.1862 30.8839L23.097 28.8435L18.9702 26.5526L18.9721 37.2114L28.6841 31.7235L28.7738 25.8092L19.0392 19.7069L13.8026 22.6634L13.7521 38.4968L11.1483 37.1837L11.2006 20.7914L19.0386 16.3485L31.8663 24.4039L31.5251 33.0279L18.6731 40.7561L15.9845 39.4361L16.0326 24.3478L19.0184 22.6819L25.5245 26.9893Z" fill="white"/>
<path d="M8.56227 23.6634L6.14089 25.1532L6.14352 39.869L18.6254 46.2005L32.0636 38.7351L32.343 38.5954L31.8578 37.897L30.7592 36.4529L18.6249 43.2667L8.56483 38.0067L8.56227 23.6634Z" fill="white"/>
</svg>
