<svg width="57" height="54" viewBox="0 0 57 54" fill="none" xmlns="http://www.w3.org/2000/svg">
<path d="M32.0263 53.4351L28.5 51.4038L36.625 37.1851H48.8125C49.3462 37.1859 49.8749 37.0813 50.3681 36.8775C50.8614 36.6736 51.3095 36.3744 51.6869 35.997C52.0643 35.6196 52.3635 35.1714 52.5674 34.6782C52.7713 34.1849 52.8758 33.6563 52.875 33.1226V8.74756C52.8758 8.21384 52.7713 7.68521 52.5674 7.19196C52.3635 6.69871 52.0643 6.25055 51.6869 5.87315C51.3095 5.49575 50.8614 5.19654 50.3681 4.99266C49.8749 4.78879 49.3462 4.68426 48.8125 4.68506H8.1875C7.65378 4.68426 7.12515 4.78879 6.6319 4.99266C6.13865 5.19654 5.69049 5.49575 5.31309 5.87315C4.93569 6.25055 4.63648 6.69871 4.43261 7.19196C4.22873 7.68521 4.1242 8.21384 4.125 8.74756V33.1226C4.1242 33.6563 4.22873 34.1849 4.43261 34.6782C4.63648 35.1714 4.93569 35.6196 5.31309 35.997C5.69049 36.3744 6.13865 36.6736 6.6319 36.8775C7.12515 37.0813 7.65378 37.1859 8.1875 37.1851H26.4688V41.2476H8.1875C6.03262 41.2476 3.96599 40.3915 2.44226 38.8678C0.918525 37.3441 0.0625003 35.2774 0.0625003 33.1226V8.74756C0.0622334 7.68049 0.27221 6.62383 0.680435 5.63794C1.08866 4.65205 1.68713 3.75625 2.44166 3.00172C3.19619 2.24719 4.09199 1.64872 5.07788 1.24049C6.06377 0.83227 7.12043 0.622292 8.1875 0.622559H48.8125C49.8796 0.622292 50.9362 0.83227 51.9221 1.24049C52.908 1.64872 53.8038 2.24719 54.5583 3.00172C55.3129 3.75625 55.9113 4.65205 56.3196 5.63794C56.7278 6.62383 56.9378 7.68049 56.9375 8.74756V33.1226C56.9375 35.2774 56.0815 37.3441 54.5577 38.8678C53.034 40.3915 50.9674 41.2476 48.8125 41.2476H38.9914L32.0263 53.4351Z" fill="#29329C"/>
</svg>
