<svg width="66" height="66" viewBox="0 0 66 66" fill="none" xmlns="http://www.w3.org/2000/svg">
<path d="M33.1562 16.749L37.04 24.2707L45.3438 25.4773L39.25 30.9678L41.2812 39.0928L33.1562 34.5225L25.0312 39.0928L27.0625 30.9678L20.9688 25.4773L29.5 24.2707L33.1562 16.749Z" fill="#02CBE1"/>
<path d="M36.6825 61.4351L33.1562 59.4038L41.2812 45.1851H53.4688C54.0025 45.1859 54.5311 45.0813 55.0244 44.8775C55.5176 44.6736 55.9658 44.3744 56.3432 43.997C56.7206 43.6196 57.0198 43.1714 57.2236 42.6782C57.4275 42.1849 57.5321 41.6563 57.5312 41.1226V16.7476C57.5321 16.2138 57.4275 15.6852 57.2236 15.192C57.0198 14.6987 56.7206 14.2505 56.3432 13.8731C55.9658 13.4958 55.5176 13.1965 55.0244 12.9927C54.5311 12.7888 54.0025 12.6843 53.4688 12.6851H12.8438C12.31 12.6843 11.7814 12.7888 11.2882 12.9927C10.7949 13.1965 10.3467 13.4958 9.96934 13.8731C9.59194 14.2505 9.29273 14.6987 9.08886 15.192C8.88498 15.6852 8.78045 16.2138 8.78125 16.7476V41.1226C8.78045 41.6563 8.88498 42.1849 9.08886 42.6782C9.29273 43.1714 9.59194 43.6196 9.96934 43.997C10.3467 44.3744 10.7949 44.6736 11.2882 44.8775C11.7814 45.0813 12.31 45.1859 12.8438 45.1851H31.125V49.2476H12.8438C10.6889 49.2476 8.62224 48.3915 7.09851 46.8678C5.57477 45.3441 4.71875 43.2774 4.71875 41.1226V16.7476C4.71848 15.6805 4.92846 14.6238 5.33669 13.6379C5.74491 12.6521 6.34338 11.7563 7.09791 11.0017C7.85244 10.2472 8.74824 9.64872 9.73413 9.24049C10.72 8.83227 11.7767 8.62229 12.8438 8.62256H53.4688C54.5358 8.62229 55.5925 8.83227 56.5784 9.24049C57.5643 9.64872 58.4601 10.2472 59.2146 11.0017C59.9691 11.7563 60.5676 12.6521 60.9758 13.6379C61.384 14.6238 61.594 15.6805 61.5938 16.7476V41.1226C61.5938 43.2774 60.7377 45.3441 59.214 46.8678C57.6903 48.3915 55.6236 49.2476 53.4688 49.2476H43.6477L36.6825 61.4351Z" fill="#29329C"/>
</svg>
