<svg width="117" height="116" viewBox="0 0 117 116" fill="none" xmlns="http://www.w3.org/2000/svg">
<g clip-path="url(#clip0_4603_26162)">
<path d="M100.148 34.0508L98.3362 22.5984C98.1673 21.514 97.1516 20.7778 96.0625 20.945C94.9769 21.1166 94.2369 22.1353 94.4099 23.2199L95.0934 27.542C86.0671 16.868 72.7831 10.6079 58.6531 10.6079C41.5351 10.6079 25.6345 19.8572 17.1543 34.748L20.611 36.7152C28.3845 23.0652 42.9604 14.5849 58.6531 14.5849C71.6233 14.5849 83.8163 20.3395 92.0904 30.1494L87.8773 28.692C86.8384 28.3356 85.708 28.8835 85.3469 29.9222C84.9879 30.9602 85.5391 32.0921 86.5762 32.4516L97.5345 36.2412C97.7481 36.314 97.9675 36.35 98.1851 36.35C98.6455 36.35 99.0999 36.1896 99.463 35.886C99.9964 35.4373 100.259 34.7401 100.148 34.0508Z" fill="#E4EAF8"/>
<path d="M94.7488 83.0598C86.5734 94.9699 73.0808 102.08 58.6543 102.08C48.3841 102.08 38.7116 98.5676 30.9134 92.1368L35.9494 92.9892C37.0329 93.1775 38.0583 92.4436 38.243 91.3607C38.4255 90.2781 37.6975 89.2518 36.6137 89.0682L25.1816 87.1332C24.4941 87.012 23.7931 87.2693 23.3388 87.8005C22.8844 88.3307 22.7427 89.0608 22.9639 89.724L26.6359 100.722C26.9137 101.554 27.6884 102.081 28.5216 102.081C28.7293 102.081 28.9428 102.047 29.1508 101.978C30.1935 101.63 30.7549 100.503 30.4073 99.4619L29.2163 95.8942C37.5765 102.481 47.8142 106.058 58.6545 106.058C74.3921 106.058 89.1116 98.3015 98.0268 85.3111L94.7488 83.0598Z" fill="#E4EAF8"/>
<path d="M6.95196 30.4934H66.6076C69.9023 30.4934 72.5732 33.1643 72.5732 36.459V68.2754C72.5732 71.5701 69.9023 74.241 66.6076 74.241H28.8256L17.7132 85.3534C15.9433 87.1233 12.9174 85.8697 12.9174 83.3668V74.241H6.95196C3.65727 74.241 0.986328 71.5701 0.986328 68.2754V36.459C0.986328 33.1641 3.65727 30.4934 6.95196 30.4934Z" fill="#D5DCED"/>
<path d="M40.7578 74.2411H66.6085C69.9032 74.2411 72.5741 71.5701 72.5741 68.2754V38.4475H50.7005C45.2095 38.4475 40.7578 42.8992 40.7578 48.3902V74.2411Z" fill="#C7CFE2"/>
<path d="M16.8937 42.4245H10.9281C9.82901 42.4245 8.93945 41.534 8.93945 40.4359C8.93945 39.3377 9.82879 38.4473 10.9281 38.4473H16.8937C17.9928 38.4473 18.8823 39.3377 18.8823 40.4359C18.8823 41.534 17.9928 42.4245 16.8937 42.4245Z" fill="#5B5D6E"/>
<path d="M62.6319 42.4243H24.8499C23.7509 42.4243 22.8613 41.5338 22.8613 40.4356C22.8613 39.3375 23.7507 38.447 24.8499 38.447H62.6319C63.731 38.447 64.6205 39.3375 64.6205 40.4356C64.6205 41.5338 63.7312 42.4243 62.6319 42.4243Z" fill="#707487"/>
<path d="M24.8497 50.3786H10.93C9.83097 50.3786 8.94141 49.4881 8.94141 48.39C8.94141 47.2918 9.83074 46.4014 10.93 46.4014H24.8497C25.9487 46.4014 26.8383 47.2918 26.8383 48.39C26.8383 49.4881 25.9487 50.3786 24.8497 50.3786Z" fill="#707487"/>
<path d="M32.8031 46.4014C31.704 46.4014 30.8145 47.2918 30.8145 48.39C30.8145 49.4881 31.7038 50.3786 32.8031 50.3786H48.7113V46.4016H32.8031V46.4014Z" fill="#5B5D6E"/>
<path d="M36.7809 58.3327H10.93C9.83097 58.3327 8.94141 57.4422 8.94141 56.3441C8.94141 55.2459 9.83074 54.3555 10.93 54.3555H36.7809C37.88 54.3555 38.7696 55.2459 38.7696 56.3441C38.7696 57.4422 37.88 58.3327 36.7809 58.3327Z" fill="#5B5D6E"/>
<path d="M16.8957 66.2866H10.93C9.83097 66.2866 8.94141 65.3961 8.94141 64.2979C8.94141 63.1998 9.83074 62.3093 10.93 62.3093H16.8957C17.9947 62.3093 18.8843 63.1998 18.8843 64.2979C18.8843 65.3961 17.9947 66.2866 16.8957 66.2866Z" fill="#5B5D6E"/>
<path d="M24.848 62.3098C23.7489 62.3098 22.8594 63.2003 22.8594 64.2984C22.8594 65.3966 23.7487 66.2871 24.848 66.2871H48.7103V62.31H24.848V62.3098Z" fill="#707487"/>
<path d="M42.7891 42.4245H62.6293C63.7284 42.4245 64.6179 41.534 64.6179 40.4359C64.6179 39.3377 63.7286 38.4473 62.6293 38.4473H50.6983C47.4558 38.4475 44.604 40.023 42.7891 42.4245Z" fill="#5B5D6E"/>
<path d="M48.7099 62.3098H40.7559V66.2868H48.7099V62.3098Z" fill="#5B5D6E"/>
<path d="M110.356 42.4246H50.7C47.4053 42.4246 44.7344 45.0955 44.7344 48.3902V80.2065C44.7344 83.5012 47.4053 86.1721 50.7 86.1721H88.482L99.5944 97.2846C101.364 99.0545 104.39 97.8009 104.39 95.298V86.1721H110.356C113.651 86.1721 116.321 83.5012 116.321 80.2065V48.3902C116.321 45.0955 113.65 42.4246 110.356 42.4246Z" fill="#9BF57D"/>
<path d="M99.6184 58.7311C98.7428 58.0699 97.494 58.2524 96.8357 59.1282L92.4605 64.9616L88.0852 59.128C87.427 58.2504 86.1781 58.0677 85.3025 58.7309C84.4229 59.3891 84.2442 60.6359 84.9043 61.5147L89.9749 68.2757L84.9045 75.0365C84.2442 75.9152 84.4229 77.1621 85.3027 77.8203C85.6602 78.0893 86.0774 78.2186 86.493 78.2186C87.099 78.2186 87.695 77.944 88.0854 77.4234L92.4605 71.5898L96.8357 77.4234C97.2259 77.944 97.8224 78.2186 98.4281 78.2186C98.8437 78.2186 99.2614 78.0893 99.6184 77.8203C100.498 77.1621 100.677 75.9152 100.017 75.0365L94.946 68.2757L100.016 61.5149C100.677 60.6361 100.498 59.3893 99.6184 58.7311Z" fill="white"/>
<path d="M102.404 50.3789H82.519C81.7655 50.3789 81.078 50.8042 80.7403 51.478L69.5937 73.772L64.4126 63.409C64.0747 62.7352 63.3872 62.3099 62.6339 62.3099H56.6683C55.5693 62.3099 54.6797 63.2004 54.6797 64.2986C54.6797 65.3967 55.569 66.2872 56.6683 66.2872H61.4047L66.8207 77.1192C67.1586 77.7929 67.8461 78.2182 68.5993 78.2182H70.588C71.3415 78.2182 72.029 77.7929 72.3666 77.1192L83.7483 54.3559H102.404C103.503 54.3559 104.393 53.4655 104.393 52.3673C104.393 51.2691 103.503 50.3789 102.404 50.3789Z" fill="white"/>
</g>
<defs>
<clipPath id="clip0_4603_26162">
<rect width="115.334" height="115.334" fill="white" transform="translate(0.988281 0.665527)"/>
</clipPath>
</defs>
</svg>
