<svg width="140" height="141" viewBox="0 0 140 141" fill="none" xmlns="http://www.w3.org/2000/svg">
<g clip-path="url(#clip0_3966_9195)">
<path d="M134.679 116.386H20.2469C17.4991 116.386 15.2715 114.159 15.2715 111.411V34.2937C15.2715 31.5459 17.4988 29.3184 20.2469 29.3184H134.679C137.427 29.3184 139.654 31.5457 139.654 34.2937V111.411C139.654 114.159 137.427 116.386 134.679 116.386Z" fill="#7F8499"/>
<path d="M25.2223 81.5659H15.2715V111.418C15.2715 114.165 17.4991 116.393 20.2469 116.393H35.1728V91.5164C35.1728 86.0211 30.7176 81.5659 25.2223 81.5659Z" fill="#707487"/>
<path d="M79.9514 118.88H74.976C73.6022 118.88 72.4883 117.766 72.4883 116.393V108.929H82.4388V116.393C82.4391 117.766 81.3254 118.88 79.9514 118.88Z" fill="#707487"/>
<path d="M22.7357 111.414H132.193C133.566 111.414 134.68 110.3 134.68 108.926V101.463H20.248V108.926C20.248 110.3 21.362 111.414 22.7357 111.414Z" fill="#C7CFE2"/>
<path d="M35.1739 101.463H20.248V111.414H35.1739V101.463Z" fill="#AFB9D2"/>
<path d="M82.4393 24.3472C80.7907 24.3472 79.3293 25.149 78.4238 26.384C77.9653 27.0093 76.9624 27.0093 76.504 26.384C75.5984 25.1493 74.1373 24.3472 72.4885 24.3472H22.7357C21.362 24.3472 20.248 25.4611 20.248 26.8349V103.952C20.248 105.326 21.362 106.44 22.7357 106.44H72.4888C74.1373 106.44 75.5987 107.242 76.5042 108.477C76.9627 109.102 77.9656 109.102 78.4241 108.477C79.3293 107.242 80.7907 106.44 82.4395 106.44H132.193C133.566 106.44 134.68 105.326 134.68 103.952V26.8349C134.68 25.4611 133.566 24.3472 132.193 24.3472H82.4393Z" fill="#E4EAF8"/>
<path d="M25.2215 81.5625H20.2461V103.951C20.2461 105.325 21.36 106.439 22.7338 106.439H35.172V91.5133C35.172 86.0177 30.7168 81.5625 25.2215 81.5625Z" fill="#D5DCED"/>
<path d="M79.9497 25.0388C79.3509 25.3874 78.8293 25.8545 78.4209 26.4088C77.9531 27.043 76.9712 27.043 76.5035 26.4088C76.0948 25.8543 75.5735 25.3874 74.9746 25.0388V107.132C75.5688 107.478 76.0975 107.926 76.5024 108.478C76.9608 109.103 77.9638 109.103 78.4222 108.478C78.8271 107.926 79.3558 107.478 79.95 107.132L79.9497 25.0388Z" fill="#D5DCED"/>
<path d="M5.32109 136.289H25.2224C27.9702 136.289 30.1977 134.062 30.1977 131.314V91.5115C30.1977 88.7637 27.9704 86.5361 25.2224 86.5361H5.32109C2.57301 86.5364 0.345703 88.7637 0.345703 91.5115V131.314C0.345703 134.062 2.57301 136.289 5.32109 136.289Z" fill="#5B5D6E"/>
<path d="M26.4647 126.338H4.07574C3.38872 126.338 2.83203 125.781 2.83203 125.094V92.7545C2.83203 92.0674 3.38899 91.5107 4.07574 91.5107H26.4647C27.1517 91.5107 27.7084 92.0677 27.7084 92.7545V125.094C27.7084 125.781 27.1517 126.338 26.4647 126.338Z" fill="white"/>
<path d="M22.7339 121.361H7.80801C6.43288 121.361 5.32031 120.247 5.32031 118.873C5.32031 117.5 6.43288 116.386 7.80801 116.386H22.7339C24.109 116.386 25.2216 117.5 25.2216 118.873C25.2216 120.247 24.1087 121.361 22.7339 121.361Z" fill="#7F8499"/>
<path d="M22.7339 111.412H7.80801C6.43288 111.412 5.32031 110.298 5.32031 108.924C5.32031 107.55 6.43288 106.437 7.80801 106.437H22.7339C24.109 106.437 25.2216 107.55 25.2216 108.924C25.2216 110.298 24.1087 111.412 22.7339 111.412Z" fill="#7F8499"/>
<path d="M22.7339 101.462H7.80801C6.43288 101.462 5.32031 100.349 5.32031 98.9748C5.32031 97.601 6.43288 96.4871 7.80801 96.4871H22.7339C24.109 96.4871 25.2216 97.601 25.2216 98.9748C25.2216 100.349 24.1087 101.462 22.7339 101.462Z" fill="#FFDC64"/>
<path d="M96.8274 80.4078L93.5406 88.6246C93.1234 89.6672 91.6476 89.6672 91.2308 88.6246L87.944 80.4078C87.5914 79.5263 87.4102 78.5857 87.4102 77.6364V6.93154C87.4102 5.55777 88.5241 4.44385 89.8979 4.44385H94.8732C96.247 4.44385 97.3609 5.55777 97.3609 6.93154V77.6364C97.3612 78.5857 97.18 79.5266 96.8274 80.4078Z" fill="#FFDC64"/>
<path d="M65.0264 39.2718H32.6869C31.3118 39.2718 30.1992 38.1578 30.1992 36.7841C30.1992 35.4103 31.3118 34.2964 32.6869 34.2964H65.0264C66.4015 34.2964 67.5141 35.4103 67.5141 36.7841C67.5141 38.1581 66.4015 39.2718 65.0264 39.2718Z" fill="#7F8499"/>
<path d="M65.0229 49.2222H50.0971C48.7219 49.2222 47.6094 48.1083 47.6094 46.7345C47.6094 45.3608 48.7219 44.2468 50.0971 44.2468H65.0229C66.3981 44.2468 67.5106 45.3608 67.5106 46.7345C67.5106 48.1083 66.3981 49.2222 65.0229 49.2222Z" fill="#707487"/>
<path d="M40.148 49.2222H32.685C31.3098 49.2222 30.1973 48.1083 30.1973 46.7345C30.1973 45.3608 31.3098 44.2468 32.685 44.2468H40.148C41.5232 44.2468 42.6357 45.3608 42.6357 46.7345C42.6357 48.1083 41.5229 49.2222 40.148 49.2222Z" fill="#707487"/>
<path d="M45.1251 59.1736H32.6869C31.3118 59.1736 30.1992 58.0597 30.1992 56.6859C30.1992 55.3122 31.3118 54.1982 32.6869 54.1982H45.1251C46.5002 54.1982 47.6128 55.3122 47.6128 56.6859C47.6128 58.0597 46.5002 59.1736 45.1251 59.1736Z" fill="#7F8499"/>
<path d="M93.5442 88.6239L96.8307 80.4072C97.1834 79.5256 97.3646 78.585 97.3646 77.6354V76.5854H87.4141V77.636C87.4141 78.5853 87.5953 79.5262 87.9479 80.4077L91.2344 88.6245C91.6515 89.6666 93.1273 89.6666 93.5442 88.6239Z" fill="#FAEBC8"/>
<path d="M97.3646 14.3946H87.4141V6.93154C87.4141 5.55777 88.528 4.44385 89.9018 4.44385H94.8771C96.2509 4.44385 97.3648 5.55777 97.3648 6.93154V14.3946H97.3646Z" fill="#FAEBC8"/>
<path d="M92.3895 14.3948H87.4141V76.586H92.3895V14.3948Z" fill="#FFC850"/>
<path d="M92.3895 14.3946H87.4141V6.93154C87.4141 5.55777 88.528 4.44385 89.9018 4.44385H92.3895V14.3946Z" fill="#F5DCB4"/>
<path d="M87.4141 76.5854V77.636C87.4141 78.5853 87.5953 79.5262 87.9479 80.4077L91.2344 88.6245C91.4429 89.1455 91.916 89.4062 92.3895 89.4062V76.5854H87.4141Z" fill="#F5DCB4"/>
<path d="M89.4043 84.0491L91.2346 88.6248C91.6517 89.6674 93.1275 89.6674 93.5444 88.6248L95.3747 84.0491H89.4043Z" fill="#5B5D6E"/>
<path d="M15.2718 134.422C16.9892 134.422 18.3815 133.03 18.3815 131.312C18.3815 129.595 16.9892 128.203 15.2718 128.203C13.5544 128.203 12.1621 129.595 12.1621 131.312C12.1621 133.03 13.5544 134.422 15.2718 134.422Z" fill="#464655"/>
<path d="M127.216 51.382L119.359 46.7783L111.502 51.382V25.0344H127.216V51.382Z" fill="#E56353"/>
</g>
<defs>
<clipPath id="clip0_3966_9195">
<rect width="139.309" height="139.309" fill="white" transform="translate(0.345703 0.712891)"/>
</clipPath>
</defs>
</svg>
