<svg width="102" height="103" viewBox="0 0 102 103" fill="none" xmlns="http://www.w3.org/2000/svg">
<g clip-path="url(#clip0_3822_8032)">
<path d="M15.7598 0.148438V73.2343L71.4958 82.5599C71.0621 84.078 70.6282 85.8129 70.6282 87.5479C70.6282 95.5722 77.568 102.078 86.243 102.078C94.9179 102.078 101.858 95.5722 101.858 87.5479V0.148438H15.7598Z" fill="#E0E0DF"/>
<path d="M88.1902 15.1138H29.6348V19.4511H88.1902V15.1138Z" fill="#60C3AB"/>
<path d="M88.1902 34.6313H29.6348V38.9687H88.1902V34.6313Z" fill="#60C3AB"/>
<path d="M88.1902 54.1519H29.6348V58.4892H88.1902V54.1519Z" fill="#60C3AB"/>
<path d="M70.6279 87.5485C70.6279 79.5242 77.5678 73.0181 86.2427 73.0181H15.7593C7.08436 73.0181 0.144531 79.5242 0.144531 87.5485C0.144531 95.5729 7.08436 102.079 15.7593 102.079H86.2427C77.5678 102.079 70.6279 95.5727 70.6279 87.5485Z" fill="#637888"/>
</g>
<defs>
<clipPath id="clip0_3822_8032">
<rect width="101.93" height="101.93" fill="white" transform="translate(0.0351562 0.148438)"/>
</clipPath>
</defs>
</svg>
