<svg width="168" height="110" viewBox="0 0 168 110" fill="none" xmlns="http://www.w3.org/2000/svg">
<g clip-path="url(#clip0_4679_8364)">
<path d="M16.416 0.148438V73.2343L72.152 82.5599C71.7183 84.078 71.2845 85.8129 71.2845 87.5479C71.2845 95.5722 78.2243 102.078 86.8992 102.078C95.5742 102.078 102.514 95.5722 102.514 87.5479V0.148438H16.416Z" fill="#E0E0DF"/>
<path d="M88.8464 15.1138H30.291V19.4511H88.8464V15.1138Z" fill="#60C3AB"/>
<path d="M88.8464 34.6313H30.291V38.9687H88.8464V34.6313Z" fill="#60C3AB"/>
<path d="M88.8464 54.1519H30.291V58.4892H88.8464V54.1519Z" fill="#60C3AB"/>
<path d="M71.2842 87.5485C71.2842 79.5242 78.224 73.0181 86.899 73.0181H16.4156C7.74061 73.0181 0.800781 79.5242 0.800781 87.5485C0.800781 95.5729 7.74061 102.079 16.4156 102.079H86.899C78.224 102.079 71.2842 95.5727 71.2842 87.5485Z" fill="#637888"/>
</g>
<path d="M110.285 77.335L110.13 77.3259C104.698 76.4705 100.375 75.6332 96.9397 74.3091C92.658 72.6575 90.3693 70.4188 89.9416 67.4567C89.5139 64.4946 90.7515 61.8919 93.7364 59.5031C96.248 57.4874 99.7152 55.7993 103.387 54.0156C107.61 51.9681 111.978 49.8477 115.254 47.054C116.983 45.5797 118.239 44.0691 119.09 42.4356C120.036 40.6201 120.468 38.6909 120.4 36.5432C119.89 29.6862 114.408 26.1507 114.348 26.1143C114.142 25.965 114 25.7425 113.952 25.4923C113.904 25.2421 113.953 24.9829 114.089 24.7676C114.226 24.5524 114.439 24.3972 114.686 24.3338C114.933 24.2703 115.194 24.3034 115.418 24.4262C115.481 24.4672 117.06 25.4773 118.703 27.4475C120.878 30.0593 122.156 33.1625 122.393 36.4158C122.392 36.4296 122.394 36.4434 122.398 36.4567C122.548 41.1297 120.632 45.0929 116.551 48.5737C113.079 51.5313 108.597 53.7062 104.261 55.8129C100.694 57.5465 97.3219 59.1846 94.9831 61.0592C93.7955 62.0102 92.972 62.9475 92.4624 63.9167C91.9527 64.8859 91.748 66.0052 91.9163 67.17C92.0847 68.3348 92.6307 69.2722 93.609 70.1549C94.5873 71.0376 95.9113 71.7747 97.654 72.4481C101.121 73.7813 105.849 74.6322 110.44 75.3511C110.692 75.385 110.922 75.5143 111.082 75.7123C111.242 75.9104 111.321 76.1623 111.301 76.4162C111.281 76.6701 111.165 76.9069 110.976 77.0777C110.787 77.2486 110.54 77.3406 110.285 77.335Z" fill="#4D4C78"/>
<path d="M113.746 103.15C113.52 103.15 113.3 103.074 113.123 102.932C112.946 102.791 112.822 102.593 112.772 102.372C112.723 102.152 112.75 101.92 112.849 101.717C112.948 101.513 113.114 101.349 113.319 101.252C114.939 100.488 116.618 99.7282 118.247 99.0001C122.81 96.9435 127.119 95.0051 130.25 92.862C131.87 91.7564 133.007 90.7053 133.731 89.6497C134.454 88.594 134.75 87.5156 134.591 86.4145C134.39 85.0267 133.58 83.8483 132.12 82.8154C130.737 81.8371 128.798 80.9999 126.186 80.2628C125.932 80.191 125.716 80.021 125.587 79.7901C125.458 79.5593 125.425 79.2866 125.497 79.032C125.569 78.7773 125.739 78.5617 125.97 78.4324C126.201 78.3031 126.473 78.2708 126.728 78.3426C129.563 79.1434 131.701 80.0717 133.276 81.1864C135.177 82.5333 136.288 84.1941 136.565 86.1279C136.797 87.725 136.397 89.2902 135.373 90.7826C134.509 92.0385 133.203 93.2579 131.378 94.5092C128.102 96.7524 123.711 98.7271 119.066 100.82C117.446 101.548 115.776 102.299 114.17 103.054C114.038 103.119 113.893 103.151 113.746 103.15Z" fill="#4D4C78"/>
<path d="M133.927 63.6996L144.661 58.0119C154.18 42.0046 152.778 26.6616 152.491 22.1206C138.413 38.3691 132.708 36.6036 122.224 48.5477L120.131 57.475L117.569 54.5174C103.869 74.1648 113.684 96.6833 113.684 96.6833C116.632 84.8394 131.506 75.2295 138.245 66.83C139.155 65.7926 140.01 64.7491 140.811 63.6996H133.927Z" fill="#C8C2E9"/>
<path d="M122.117 59.6363L124.215 50.709C134.503 38.9879 139.03 37.55 152.494 22.1479V22.1206C138.416 38.3691 132.71 36.6036 122.227 48.5477L120.156 57.3703L122.117 59.6363Z" fill="#DFDAFD"/>
<path d="M119.503 56.7483L117.569 54.5142C103.869 74.1616 113.684 96.6801 113.684 96.6801C113.846 96.0273 114.042 95.3834 114.27 94.7508C112.168 87.3796 109.416 71.2904 119.503 56.7483Z" fill="#DFDAFD"/>
<path d="M135.293 66.8326C129.364 74.2266 117.129 82.5578 112.27 92.5226C113.016 95.148 113.689 96.6859 113.689 96.6859C116.638 84.842 131.512 75.2321 138.251 66.8326C139.161 65.7952 140.016 64.7517 140.817 63.7021H137.859C137.059 64.7487 136.203 65.7922 135.293 66.8326Z" fill="#B9B1E0"/>
<path d="M152.498 22.1206C151.533 23.2308 150.608 24.2607 149.722 25.2101C149.995 31.7532 149.659 44.6528 141.714 58.0119L130.98 63.6996H133.933L144.667 58.0119C154.186 42.0046 152.785 26.6616 152.498 22.1206Z" fill="#B9B1E0"/>
<path d="M135.362 48.898C129.66 53.5528 124.983 59.2587 121.461 65.8563C118.649 71.1254 116.565 76.9722 115.264 83.2287C114.372 87.5646 113.868 91.9714 113.758 96.3967C114.263 94.4947 115.073 92.6474 116.106 90.8592C116.354 88.4333 116.727 86.0217 117.22 83.6336C118.481 77.5638 120.501 71.8989 123.222 66.7982C126.616 60.4326 131.126 54.9315 136.622 50.4451C136.827 50.2779 136.958 50.0362 136.985 49.7729C137.011 49.5097 136.933 49.2465 136.765 49.0414C136.598 48.8362 136.357 48.7059 136.093 48.679C135.83 48.6521 135.567 48.7309 135.362 48.898Z" fill="#B9B1E0"/>
<path d="M113.742 103.15C113.496 103.149 113.259 103.058 113.076 102.894C112.893 102.729 112.777 102.503 112.75 102.258C112.741 102.176 112.531 100.129 112.591 96.7527C112.678 92.205 113.186 87.6752 114.106 83.2207C115.403 76.9643 117.487 71.1174 120.298 65.8483C123.82 59.2507 128.498 53.5448 134.199 48.8901C134.299 48.7973 134.418 48.7261 134.546 48.6808C134.675 48.6354 134.812 48.617 134.948 48.6264C135.085 48.6359 135.217 48.6732 135.339 48.736C135.46 48.7987 135.567 48.8857 135.654 48.9914C135.74 49.0971 135.804 49.2195 135.841 49.3508C135.879 49.4822 135.889 49.6198 135.871 49.7552C135.853 49.8907 135.808 50.021 135.738 50.1383C135.668 50.2555 135.575 50.3572 135.464 50.4371C129.967 54.9235 125.458 60.4246 122.059 66.7902C119.338 71.8909 117.318 77.5558 116.058 83.6256C113.915 93.9726 114.729 101.967 114.738 102.049C114.765 102.312 114.687 102.575 114.521 102.78C114.354 102.986 114.114 103.117 113.851 103.146L113.742 103.15Z" fill="#4D4C78"/>
<defs>
<clipPath id="clip0_4679_8364">
<rect width="101.93" height="101.93" fill="white" transform="translate(0.691406 0.148438)"/>
</clipPath>
</defs>
</svg>
