<svg width="24" height="24" viewBox="0 0 24 24" fill="none" xmlns="http://www.w3.org/2000/svg">
<g clip-path="url(#clip0_350_3851)">
<path d="M18.0611 8.444L17.7551 8.314V6.62C17.7549 6.1439 17.6583 5.67276 17.4711 5.235C17.2822 4.79348 17.0071 4.39403 16.6621 4.06C16.3132 3.72222 15.9019 3.45559 15.4511 3.275C14.997 3.09301 14.5123 2.99966 14.0231 3H11.2171C10.2346 2.99853 9.28987 3.37857 8.58209 4.06C8.23625 4.391 7.96061 4.78826 7.77163 5.22809C7.58264 5.66791 7.48417 6.1413 7.48209 6.62V8.205C7.08354 8.25539 6.70469 8.40762 6.38209 8.647C6.23867 8.74942 6.117 8.87926 6.02409 9.029C5.93223 9.17726 5.87134 9.34258 5.84509 9.515C5.77095 9.83308 5.76788 10.1636 5.83609 10.483C5.90356 10.8036 6.04005 11.1056 6.23609 11.368C6.55569 11.7531 7.00337 12.0101 7.49709 12.092V12.135C7.49939 12.6712 7.60925 13.2015 7.82019 13.6945C8.03112 14.1874 8.33883 14.6331 8.72509 15.005C9.51962 15.7703 10.58 16.1975 11.6831 16.197H13.5941C14.674 16.198 15.714 15.7883 16.5031 15.051C17.2817 14.3289 17.7417 13.3272 17.7821 12.266C18.1155 12.2077 18.4242 12.0517 18.6691 11.818C18.9102 11.588 19.0749 11.2896 19.1411 10.963C19.3279 10.4905 19.3207 9.96328 19.1211 9.496C18.9157 9.02239 18.5362 8.64578 18.0611 8.444ZM7.47109 11.344C7.21259 11.2885 6.97633 11.1576 6.79209 10.968C6.66616 10.7715 6.58302 10.5507 6.54809 10.32C6.51363 10.0909 6.52794 9.85716 6.59009 9.634C6.60415 9.55108 6.6355 9.47203 6.68209 9.402C6.72865 9.33203 6.78885 9.27217 6.85909 9.226C7.04041 9.09481 7.25006 9.00814 7.47109 8.973V11.344ZM17.0091 12.133C17.0061 12.5734 16.9151 13.0087 16.7413 13.4133C16.5675 13.8179 16.3144 14.1837 15.9971 14.489C15.3448 15.1173 14.4748 15.4692 13.5691 15.471H11.6571C10.7514 15.4692 9.88141 15.1173 9.22909 14.489C8.91125 14.1832 8.65794 13.8168 8.48412 13.4115C8.3103 13.0061 8.2195 12.57 8.21709 12.129V8.871C8.60793 8.87067 8.99796 8.90683 9.38209 8.979C10.2925 9.19019 11.2464 9.10901 12.1081 8.747C12.9596 8.3909 13.6731 7.76895 14.1421 6.974C15.0557 7.64313 16.0132 8.25016 17.0081 8.791L17.0091 12.133ZM18.4201 10.75C18.3865 10.9251 18.3079 11.0884 18.1921 11.224C18.0746 11.3615 17.9243 11.4671 17.7551 11.531V9.102C18.0618 9.23944 18.3034 9.49032 18.4291 9.802C18.4905 9.95396 18.5213 10.1165 18.5197 10.2804C18.5182 10.4443 18.4843 10.6062 18.4201 10.757V10.75Z" fill="white"/>
<path d="M19.274 19.1171V18.2031H7.26002L3.99902 19.9031L7.27902 21.8231H19.279V20.8001H20.797V19.1171H19.274ZM7.04302 20.8431L5.24302 19.8271L5.69302 20.0801L7.04302 20.8431ZM18.654 19.7551H14.668V20.4831H18.654V21.0701H7.66302V18.8921H18.654V19.7551Z" fill="white"/>
<path d="M12.7842 14.2932H12.6672C12.1467 14.2687 11.6431 14.1016 11.2112 13.8102C10.785 13.5229 10.4491 13.1206 10.2422 12.6502L10.9292 12.3682C11.0798 12.733 11.337 13.0439 11.6672 13.2602C12.0023 13.4795 12.3942 13.5963 12.7947 13.5963C13.1952 13.5963 13.587 13.4795 13.9222 13.2602C14.2524 13.0439 14.5096 12.733 14.6602 12.3682L15.3392 12.6502C15.1227 13.1408 14.7661 13.5565 14.3142 13.8452C13.8573 14.1372 13.3265 14.2926 12.7842 14.2932Z" fill="white"/>
</g>
<defs>
<clipPath id="clip0_350_3851">
<rect width="16.792" height="18.823" fill="white" transform="translate(4 3)"/>
</clipPath>
</defs>
</svg>
