<svg width="109" height="126" viewBox="0 0 109 126" fill="none" xmlns="http://www.w3.org/2000/svg">
<path d="M54.4648 0.986816C71.6553 0.986816 85.5876 14.9191 85.5876 32.1096C85.5876 49.3001 71.6553 63.2324 54.4648 63.2324C37.2744 63.2324 23.3421 49.3001 23.3421 32.1096C23.3421 14.9191 37.2744 0.986816 54.4648 0.986816ZM50.842 88.3251L46.3194 80.7875C44.7633 78.1859 46.6355 74.9034 49.6505 74.9034H59.2548C62.2699 74.9034 64.1421 78.2102 62.5859 80.7875L58.0634 88.3251L66.1845 118.451L75.7888 79.2557C94.5597 82.1735 108.93 98.4157 108.93 118.013C108.93 122.147 105.574 125.478 101.465 125.478H7.4646C3.35542 125.478 0 122.122 0 118.013C0 98.4157 14.37 82.1735 33.1409 79.2557L42.7452 118.451L50.8663 88.3251H50.842Z" fill="white"/>
</svg>
