<svg width="48" height="49" viewBox="0 0 48 49" fill="none" xmlns="http://www.w3.org/2000/svg">
<path d="M24 0.996094C17.6348 0.996094 11.5303 3.52466 7.02944 8.02553C2.52856 12.5264 0 18.6309 0 24.9961C0.000164086 28.1478 0.621105 31.2687 1.82737 34.1804C3.03363 37.0922 4.8016 39.7378 7.03032 41.9663C9.25904 44.1948 11.9049 45.9625 14.8168 47.1684C17.7286 48.3744 20.8495 48.995 24.0013 48.9948C27.153 48.9947 30.2738 48.3737 33.1856 47.1675C36.0973 45.9612 38.743 44.1932 40.9714 41.9645C43.1999 39.7358 44.9676 37.09 46.1736 34.1781C47.3795 31.2662 48.0002 28.1453 48 24.9936C48 11.7411 37.2525 0.996094 24 0.996094ZM24 43.9936C21.4867 44.0224 18.9927 43.5523 16.6624 42.6105C14.332 41.6686 12.2118 40.2738 10.4243 38.5067C8.63686 36.7397 7.21778 34.6355 6.24927 32.3161C5.28076 29.9968 4.78206 27.5083 4.78206 24.9948C4.78206 22.4814 5.28076 19.9929 6.24927 17.6735C7.21778 15.3542 8.63686 13.25 10.4243 11.483C12.2118 9.71592 14.332 8.32107 16.6624 7.37923C18.9927 6.43739 21.4867 5.96726 24 5.99609C26.5133 5.96726 29.0073 6.43739 31.3376 7.37923C33.668 8.32107 35.7882 9.71592 37.5757 11.483C39.3631 13.25 40.7822 15.3542 41.7507 17.6735C42.7192 19.9929 43.2179 22.4814 43.2179 24.9948C43.2179 27.5083 42.7192 29.9968 41.7507 32.3161C40.7822 34.6355 39.3631 36.7397 37.5757 38.5067C35.7882 40.2738 33.668 41.6686 31.3376 42.6105C29.0073 43.5523 26.5133 44.0224 24 43.9936ZM17.7525 24.3711C19.8225 24.3711 21.5 22.4136 21.5 19.9961C21.5 17.5786 19.82 15.6211 17.75 15.6211C15.68 15.6211 14 17.5786 14 19.9961C14 22.4136 15.68 24.3711 17.7525 24.3711ZM30.25 24.3711C32.3225 24.3711 34 22.4136 34 19.9961C34 17.5786 32.32 15.6211 30.25 15.6211C28.18 15.6211 26.5 17.5811 26.5 19.9961C26.5 22.4111 28.18 24.3711 30.25 24.3711ZM34.8525 28.3361C34.4113 28.1135 33.9004 28.0726 33.4293 28.2221C32.9583 28.3717 32.5646 28.6997 32.3325 29.1361C32.2475 29.3011 30.16 33.1186 24.0025 33.1186C17.875 33.1186 15.775 29.3361 15.67 29.1386C15.4452 28.6947 15.0533 28.3583 14.5805 28.2033C14.1077 28.0483 13.5927 28.0876 13.1488 28.3123C12.7048 28.5371 12.3684 28.929 12.2135 29.4018C12.0585 29.8747 12.0977 30.3897 12.3225 30.8336C12.4475 31.0811 15.4425 36.8686 24.0025 36.8686C32.565 36.8686 35.555 31.0786 35.6775 30.8311C35.8978 30.3906 35.9346 29.8809 35.78 29.4133C35.6254 28.9457 35.2919 28.5584 34.8525 28.3361Z" fill="#29329C"/>
</svg>
