<svg width="65" height="38" viewBox="0 0 65 38" fill="none" xmlns="http://www.w3.org/2000/svg">
<path d="M16.7507 30.7298L15.8254 25.3354L19.7449 21.515C20.0909 21.1776 20.2155 20.6731 20.0662 20.2136C19.9169 19.754 19.5195 19.419 19.0413 19.3494L13.6248 18.5625L11.2026 13.6544C10.9887 13.2211 10.5474 12.9468 10.0642 12.9468C9.58101 12.9468 9.13959 13.2211 8.9258 13.6544L6.50354 18.5625L1.0871 19.3494C0.608865 19.419 0.21163 19.754 0.0622061 20.2136C-0.0872175 20.6731 0.0374502 21.1776 0.383524 21.515L4.30281 25.3354L3.37758 30.7298C3.29582 31.2062 3.49171 31.6874 3.8826 31.9714C4.10375 32.1322 4.36578 32.2139 4.62895 32.2139C4.83106 32.2139 5.03381 32.1657 5.21954 32.0682L10.0641 29.5211L14.9086 32.0682C15.3363 32.293 15.8545 32.2554 16.2455 31.9714C16.6365 31.6874 16.8323 31.2062 16.7507 30.7298ZM13.5749 23.9829C13.2757 24.2747 13.1391 24.6947 13.2098 25.1067L13.813 28.6237L10.6545 26.9631C10.2847 26.7688 9.84278 26.7688 9.47297 26.9631L6.31489 28.6237L6.91804 25.1067C6.98875 24.6949 6.85215 24.2747 6.55293 23.9829L3.99775 21.4922L7.52894 20.9792C7.94242 20.919 8.29992 20.6593 8.48477 20.2847L10.0639 17.0848L11.6431 20.2847C11.8281 20.6593 12.1854 20.919 12.5989 20.9792L16.1301 21.4922L13.5749 23.9829Z" fill="#29329C"/>
<path d="M64.9353 20.2136C64.786 19.754 64.3887 19.419 63.9104 19.3494L58.494 18.5625L56.0717 13.6544C55.8578 13.2211 55.4165 12.9468 54.9333 12.9468C54.4501 12.9468 54.0087 13.2211 53.7949 13.6544L51.3727 18.5625L45.9562 19.3494C45.478 19.419 45.0808 19.754 44.9313 20.2136C44.7819 20.6731 44.9066 21.1776 45.2527 21.515L49.1721 25.3354L48.2468 30.7298C48.1651 31.2062 48.3609 31.6874 48.7519 31.9714C49.1429 32.2554 49.6614 32.2928 50.0888 32.0682L54.9333 29.5211L59.7778 32.0682C59.9636 32.1659 60.1665 32.2139 60.3684 32.2139C60.6316 32.2139 60.8936 32.132 61.1148 31.9714C61.5057 31.6874 61.7016 31.2062 61.6198 30.7298L60.6946 25.3354L64.6139 21.515C64.9602 21.1776 65.0847 20.6731 64.9353 20.2136ZM58.4446 23.983C58.1454 24.2748 58.0088 24.6949 58.0795 25.1068L58.6826 28.6238L55.5242 26.9633C55.3392 26.866 55.1363 26.8175 54.9335 26.8175C54.7306 26.8175 54.5276 26.8661 54.3427 26.9633L51.1843 28.6238L51.7874 25.1068C51.8582 24.695 51.7215 24.2748 51.4223 23.983L48.8671 21.4924L52.3983 20.9793C52.8118 20.9192 53.1693 20.6594 53.3542 20.2848L54.9333 17.0849L56.5125 20.2848C56.6975 20.6594 57.0548 20.9192 57.4683 20.9793L60.9995 21.4924L58.4446 23.983Z" fill="#29329C"/>
<path d="M41.6816 26.4541L40.2616 18.1747L46.2768 12.3114C46.6228 11.9741 46.7474 11.4696 46.5981 11.01C46.4488 10.5504 46.0514 10.2154 45.5732 10.1459L37.2604 8.93802L33.5427 1.40514C33.3288 0.971855 32.8875 0.69751 32.4044 0.69751C31.921 0.69751 31.4798 0.971855 31.266 1.40514L27.5484 8.93802L19.2355 10.1459C18.7573 10.2154 18.3601 10.5504 18.2106 11.01C18.0612 11.4696 18.1859 11.9741 18.532 12.3114L24.5472 18.1747L23.1271 26.4541C23.0454 26.9304 23.2412 27.4117 23.6322 27.6957C24.0231 27.9797 24.5415 28.017 24.9691 27.7924L32.4044 23.8834L39.8396 27.7924C40.0253 27.8902 40.2282 27.9382 40.4302 27.9382C40.6934 27.9382 40.9554 27.8563 41.1765 27.6957C41.5674 27.4117 41.7632 26.9304 41.6816 26.4541ZM37.6461 17.9462L38.744 24.3481L32.9948 21.3254C32.8098 21.2282 32.607 21.1797 32.4041 21.1797C32.2014 21.1796 31.9985 21.2282 31.8135 21.3254L26.0643 24.3481L27.1623 17.9462C27.2331 17.5344 27.0965 17.1142 26.7972 16.8224L22.1461 12.2888L28.5738 11.355C28.9873 11.2948 29.3448 11.035 29.5296 10.6604L32.4042 4.83579L35.2788 10.6604C35.4638 11.035 35.8212 11.2948 36.2347 11.355L42.6623 12.2888L38.0112 16.8224C37.712 17.1142 37.5754 17.5343 37.6461 17.9462Z" fill="#02CBE1"/>
<path d="M35.2929 34.731H17.6465C16.9453 34.731 16.377 35.2995 16.377 36.0005C16.377 36.7015 16.9453 37.27 17.6465 37.27H35.2929C35.9941 37.27 36.5625 36.7015 36.5625 36.0005C36.5625 35.2995 35.9941 34.731 35.2929 34.731Z" fill="#29329C"/>
<path d="M47.3535 34.731H41.8945C41.1934 34.731 40.625 35.2995 40.625 36.0005C40.625 36.7015 41.1934 37.27 41.8945 37.27H47.3535C48.0547 37.27 48.623 36.7015 48.623 36.0005C48.623 35.2995 48.0547 34.731 47.3535 34.731Z" fill="#29329C"/>
</svg>
