<svg width="66" height="66" viewBox="0 0 66 66" fill="none" xmlns="http://www.w3.org/2000/svg">
<g clip-path="url(#clip0_4601_25289)">
<path d="M33.0429 38.8289C36.3015 38.8289 38.9432 36.1873 38.9432 32.9286C38.9432 29.67 36.3015 27.0283 33.0429 27.0283C29.7842 27.0283 27.1426 29.67 27.1426 32.9286C27.1426 36.1873 29.7842 38.8289 33.0429 38.8289Z" fill="#FFC10D"/>
<path d="M61.11 16.5876C58.5721 12.2186 51.8257 11.8652 43.9658 13.8785C41.7386 6.06135 38.044 0.417969 33.0004 0.417969C27.9569 0.417969 24.2623 6.06135 22.035 13.8677C14.1751 11.8545 7.43949 12.2186 4.89087 16.577C2.34225 20.9675 5.40487 27.0498 11.1125 32.9181C5.41564 38.7971 2.34241 44.8686 4.89087 49.2591C7.42873 53.6281 14.175 53.9815 22.035 51.9684C24.2517 59.7748 27.9461 65.4181 33.0004 65.4181C38.0548 65.4181 41.7386 59.7748 43.9658 51.9684C51.8365 53.9816 58.5721 53.6175 61.11 49.2591C63.6586 44.8686 60.596 38.7863 54.8883 32.918C60.596 27.0498 63.6586 20.9781 61.11 16.5876ZM57.9831 18.3973C59.3538 20.7531 57.2657 25.3364 52.3076 30.4442C50.3907 28.7202 48.2705 27.0175 46.0432 25.422C45.7755 22.6271 45.3793 19.9179 44.8224 17.3479C51.6652 15.6131 56.6124 16.0629 57.9831 18.3973ZM37.9156 41.3883C36.2559 42.3628 34.5961 43.2301 33.0004 44.0225C31.3834 43.2301 29.745 42.3628 28.0852 41.3883C26.4361 40.4245 24.8727 39.4393 23.4163 38.4434C23.2878 36.6765 23.2235 34.8347 23.2235 32.9286C23.2235 31.0225 23.2878 29.1807 23.4163 27.4137C24.8835 26.4179 26.4361 25.4326 28.0852 24.4689C29.745 23.4944 31.4048 22.6271 33.0004 21.8346C34.6175 22.6271 36.2559 23.4944 37.9156 24.4689C39.5648 25.4326 41.1282 26.4179 42.5845 27.4137C42.7131 29.1807 42.7773 31.0225 42.7773 32.9286C42.7773 34.8347 42.7131 36.6765 42.5845 38.4434C41.1282 39.4394 39.5646 40.4245 37.9156 41.3883ZM42.1346 43.0482C41.9312 44.6116 41.6741 46.0894 41.3743 47.4921C40.0251 47.0424 38.6223 46.5176 37.1873 45.9288C38.044 45.4683 38.89 44.9972 39.7359 44.5045C40.5391 44.0441 41.3423 43.5514 42.1346 43.0482ZM28.8134 45.9286C27.3678 46.5282 25.9757 47.0422 24.6264 47.492C24.3373 46.0999 24.0803 44.6114 23.8661 43.048C24.6585 43.5513 25.4616 44.0331 26.2754 44.5044C27.1001 44.997 27.9569 45.4683 28.8134 45.9286ZM19.6471 35.7343C18.4478 34.8027 17.3126 33.8496 16.2846 32.9287C17.3234 31.9971 18.4478 31.0548 19.6471 30.1232C19.6042 31.0548 19.5936 31.9971 19.5936 32.9287C19.5936 33.8603 19.6149 34.8027 19.6471 35.7343ZM23.8662 22.8093C24.0697 21.2459 24.3267 19.768 24.6265 18.3653C25.9757 18.8151 27.3786 19.3398 28.8136 19.9287C27.9569 20.3892 27.1109 20.8603 26.2649 21.3529C25.4617 21.8134 24.6585 22.3059 23.8662 22.8093ZM37.1875 19.9287C38.633 19.3291 40.0251 18.8151 41.3745 18.3653C41.6635 19.7574 41.9206 21.2459 42.1348 22.8093C41.3423 22.306 40.5393 21.8242 39.7255 21.3529C38.9007 20.8603 38.044 20.3892 37.1875 19.9287ZM46.3538 30.123C47.5531 31.0546 48.6882 32.0077 49.7162 32.9286C48.6775 33.8602 47.5531 34.8025 46.3538 35.7341C46.3967 34.8025 46.4073 33.8602 46.4073 32.9286C46.3967 31.997 46.3859 31.0548 46.3538 30.123ZM33.0004 4.02672C35.7097 4.02672 38.5901 8.09597 40.5284 14.8636C38.0548 15.6666 35.5275 16.684 33.0004 17.8298C30.4839 16.6627 27.9461 15.6666 25.4725 14.8636C27.4107 8.09597 30.2911 4.02672 33.0004 4.02672ZM8.01776 18.3973C9.37771 16.0521 14.3357 15.6024 21.1785 17.3372C20.6323 19.9072 20.2147 22.6378 19.9577 25.4112C17.7196 27.0067 15.6101 28.6986 13.6933 30.4335C8.74594 25.3364 6.64704 20.7533 8.01776 18.3973ZM8.01776 47.46C6.64704 45.1042 8.73517 40.5317 13.6933 35.4131C15.6101 37.1371 17.7304 38.8398 19.9577 40.4353C20.2253 43.2302 20.6216 45.9394 21.1785 48.5094C14.3357 50.2442 9.38848 49.7944 8.01776 47.46ZM33.0004 61.8306C30.2911 61.8306 27.4107 57.7613 25.4725 50.9937C27.9461 50.1907 30.4733 49.1733 33.0004 48.0275C35.5169 49.1946 38.0548 50.1907 40.5284 50.9937C38.5901 57.7615 35.7097 61.8306 33.0004 61.8306ZM57.9831 47.46C56.6232 49.8052 51.6652 50.2549 44.8224 48.5201C45.3685 45.9501 45.7861 43.2195 46.0432 40.4461C48.2812 38.8506 50.3907 37.1587 52.3076 35.4239C57.2549 40.5209 59.3538 45.1042 57.9831 47.46Z" fill="#194F82"/>
</g>
<defs>
<clipPath id="clip0_4601_25289">
<rect width="65" height="65" fill="white" transform="translate(0.5 0.417969)"/>
</clipPath>
</defs>
</svg>
