<svg width="66" height="66" viewBox="0 0 66 66" fill="none" xmlns="http://www.w3.org/2000/svg">
<g clip-path="url(#clip0_3624_10523)">
<path d="M13.5165 32.5273C13.5165 36.1346 11.648 39.3058 8.82617 41.1253C8.82617 41.1253 47.3072 41.1253 50.8791 41.1253C54.451 41.1253 59.273 38.6963 59.273 32.5273C59.273 26.3582 54.451 23.9292 50.8791 23.9292C47.3072 23.9292 8.82617 23.9292 8.82617 23.9292C11.648 25.7488 13.5165 28.9199 13.5165 32.5273Z" fill="#EDEEF0"/>
<path d="M4.7207 21.6938H50.4447C56.4183 21.6938 61.2782 26.5537 61.2782 32.5272C61.2782 38.501 56.4183 43.3606 50.4447 43.3606H4.7207V39.1474H50.4447C54.0953 39.1474 57.0651 36.1778 57.0651 32.5272C57.0651 28.8769 54.0952 25.907 50.4447 25.907H4.7207V21.6938Z" fill="#E5C400"/>
<path opacity="0.3" d="M13.5167 32.5273C13.5167 35.0534 12.5981 37.3636 11.0799 39.1476H4.7207V43.3607H50.4447C56.4183 43.3607 61.2782 38.5011 61.2782 32.5273H13.5167Z" fill="#5B5B5F"/>
<path d="M52.4831 54.1938C52.4831 57.8011 54.3515 60.9723 57.1734 62.7918C57.1734 62.7918 18.6923 62.7918 15.1204 62.7918C11.5486 62.7918 6.72656 60.3628 6.72656 54.1938C6.72656 48.0247 11.5486 45.5957 15.1204 45.5957C18.6923 45.5957 57.1734 45.5957 57.1734 45.5957C54.3517 47.4154 52.4831 50.5864 52.4831 54.1938Z" fill="#EDEEF0"/>
<path d="M61.2783 43.3608H15.5542C9.58057 43.3608 4.7207 48.2207 4.7207 54.1942C4.7207 60.168 9.58057 65.0276 15.5542 65.0276H61.2782V60.8144H15.5542C11.9036 60.8144 8.93382 57.8448 8.93382 54.1942C8.93382 50.5439 11.9038 47.574 15.5542 47.574H61.2782V43.3608H61.2783Z" fill="#C8523B"/>
<path opacity="0.3" d="M52.4822 54.1938C52.4822 56.7199 53.4008 59.0301 54.919 60.8141H61.2782V65.0272H15.5542C9.58057 65.0272 4.7207 60.1676 4.7207 54.1938H52.4822Z" fill="#5B5B5F"/>
<path d="M52.4831 10.8608C52.4831 14.4681 54.3515 17.6393 57.1734 19.4588C57.1734 19.4588 18.6923 19.4588 15.1204 19.4588C11.5486 19.4588 6.72656 17.0298 6.72656 10.8608C6.72656 4.69171 11.5486 2.2627 15.1204 2.2627C18.6923 2.2627 57.1734 2.2627 57.1734 2.2627C54.3517 4.08227 52.4831 7.25327 52.4831 10.8608Z" fill="#EDEEF0"/>
<path d="M61.2783 0.0273438H15.5542C9.58057 0.0273438 4.7207 4.88721 4.7207 10.8606C4.7207 16.8343 9.58057 21.6939 15.5542 21.6939H61.2782V17.4808H15.5542C11.9036 17.4808 8.93382 14.5111 8.93382 10.8606C8.93382 7.21025 11.9038 4.24032 15.5542 4.24032H61.2782V0.0273438H61.2783Z" fill="#ABCB57"/>
<path opacity="0.3" d="M52.4822 10.8608C52.4822 13.3869 53.4008 15.6971 54.919 17.4811H61.2782V21.6942H15.5542C9.58057 21.6942 4.7207 16.8346 4.7207 10.8608H52.4822Z" fill="#5B5B5F"/>
</g>
<defs>
<clipPath id="clip0_3624_10523">
<rect width="65" height="65" fill="white" transform="translate(0.5 0.0273438)"/>
</clipPath>
</defs>
</svg>
