<svg width="66" height="67" viewBox="0 0 66 67" fill="none" xmlns="http://www.w3.org/2000/svg">
<path d="M38.3386 33.5371C36.1686 27.9639 32.1509 23.5792 27.1934 21.4328V7.98793H27.3208C28.1478 7.98793 28.8959 7.59807 29.4359 6.96809C29.9776 6.33825 30.313 5.46844 30.313 4.50852C30.313 2.58514 28.9733 1.02734 27.3208 1.02734H13.2671C12.4417 1.02734 11.692 1.4172 11.1503 2.04718C10.6087 2.67702 10.2732 3.54683 10.2732 4.50852C10.2732 6.42999 11.6146 7.98778 13.2671 7.98778H13.3962V21.4325C5.70776 24.7572 0.276387 33.4743 0.507078 43.6327C0.786631 55.936 9.47517 65.8802 20.0593 66.0227C22.8239 66.06 25.462 65.4365 27.8593 64.2789C26.9161 63.0229 26.5034 61.2533 26.9161 59.5324C35.8155 53.0724 38.3386 33.5371 38.3386 33.5371Z" fill="#DCF1FF" stroke="#A3E9FF" stroke-width="0.534552"/>
<path d="M37.2446 43.0902H36.4429C33.4653 42.0538 32.3438 39.8892 27.6641 39.8892C21.5118 39.8892 21.5118 43.6313 15.3594 43.6313C13.9551 43.6313 12.8696 43.4364 11.9606 43.1338C8.88631 42.118 7.80269 39.8892 3.05469 39.8892C3.05469 49.3408 7.94497 57.4351 14.828 60.6772C16.9003 61.6541 19.1547 62.1905 21.5117 62.1905C24.2956 62.1905 26.9373 61.4429 29.3075 60.0994H29.3094L30.2707 59.9939L37.2446 43.0902Z" fill="#28D3F9"/>
<path d="M65.151 58.5399L52.4113 29.8077V16.333H53.2287C54.0558 16.333 54.8039 15.9432 55.3455 15.3132C55.8872 14.6834 56.2226 13.8135 56.2226 12.8538C56.2226 10.9323 54.8812 9.37451 53.2287 9.37451H39.175C38.3495 9.37451 37.6015 9.76437 37.0597 10.3944C36.5179 11.0243 36.1826 11.894 36.1826 12.8539C36.1826 14.7754 37.5223 16.3332 39.1748 16.3332H39.9923V29.8078L38.3381 33.5402C38.3381 33.5402 35.0709 40.9084 32.9775 45.6296C30.7418 50.6715 27.2525 58.5401 27.2525 58.5401C27.1075 58.8681 26.9961 59.2 26.9173 59.5355H26.9156C26.5028 61.2564 26.9156 63.026 27.8587 64.282C28.6503 65.3356 29.8143 66.0272 31.1767 66.0272H61.2268C64.5335 66.0271 66.6665 61.9574 65.151 58.5399Z" fill="#DCF1FF" stroke="#8FE4FF" stroke-width="0.534552"/>
<path d="M51.5928 35.043L62.0309 57.3493C62.5163 58.7225 62.5528 61.8076 58.8157 63.162H34.1945C33.0782 63.162 32.1245 62.6251 31.4759 61.8071C30.7032 60.832 30.3649 59.4582 30.7032 58.1222H30.7045L41.4174 35.0431L51.5928 35.043Z" fill="#FF63D3"/>
</svg>
