<svg width="66" height="66" viewBox="0 0 66 66" fill="none" xmlns="http://www.w3.org/2000/svg">
<g clip-path="url(#clip0_3624_10398)">
<path d="M6.07486 31.5086C7.93486 31.5086 9.44269 30.0008 9.44269 28.1408C9.44269 26.2808 7.93486 24.7729 6.07486 24.7729C4.21486 24.7729 2.70703 26.2808 2.70703 28.1408C2.70703 30.0008 4.21486 31.5086 6.07486 31.5086Z" fill="#0793D1"/>
<path d="M6.07227 24.7778C7.93295 24.7768 9.44009 26.283 9.43803 28.1446C9.44009 30.0022 7.93282 31.5094 6.07227 31.5114" fill="#097ACE"/>
<path d="M4.13254 26.5405C4.74705 26.5426 4.48389 27.3215 4.48389 28.2834C4.48389 29.2442 4.74589 30.0241 4.13254 30.0252C3.51906 30.0252 3.01943 29.2461 3.02149 28.2844C3.02149 27.3206 3.51803 26.5405 4.13254 26.5405Z" fill="#25BEF4"/>
<path d="M4.48854 26.229C4.60518 26.229 4.69974 26.1345 4.69974 26.0178C4.69974 25.9012 4.60518 25.8066 4.48854 25.8066C4.3719 25.8066 4.27734 25.9012 4.27734 26.0178C4.27734 26.1345 4.3719 26.229 4.48854 26.229Z" fill="#25BEF4"/>
<path d="M26.9526 29.0573C26.6886 29.3213 26.326 29.4828 25.9249 29.4828L7.90156 29.4838C7.09816 29.4828 6.44922 28.8338 6.44922 28.0315C6.44922 27.2301 7.09816 26.5791 7.90156 26.5791H25.9249C26.7262 26.577 27.3772 27.2301 27.3772 28.0294C27.3771 28.4327 27.2146 28.7942 26.9526 29.0573Z" fill="#CCC2B2"/>
<path d="M21.1795 13.3003C23.5179 13.3003 25.4136 11.4046 25.4136 9.06619C25.4136 6.72773 23.5179 4.83203 21.1795 4.83203C18.841 4.83203 16.9453 6.72773 16.9453 9.06619C16.9453 11.4046 18.841 13.3003 21.1795 13.3003Z" fill="#0793D1"/>
<path d="M21.1797 4.83008C23.5207 4.83008 25.4149 6.72519 25.4149 9.06423C25.4149 11.4052 23.5187 13.2994 21.1797 13.2994" fill="#097ACE"/>
<path d="M18.7365 7.04834C19.5103 7.0504 19.1792 8.03045 19.1792 9.24001C19.1792 10.4496 19.5103 11.4297 18.7365 11.4297C17.9626 11.4297 17.3379 10.4487 17.3379 9.23898C17.3379 8.02929 17.9647 7.0504 18.7365 7.04834Z" fill="#25BEF4"/>
<path d="M19.182 6.65947C19.3279 6.65947 19.4461 6.54125 19.4461 6.39541C19.4461 6.24957 19.3279 6.13135 19.182 6.13135C19.0362 6.13135 18.918 6.24957 18.918 6.39541C18.918 6.54125 19.0362 6.65947 19.182 6.65947Z" fill="#25BEF4"/>
<path d="M22.443 31.3105C22.1789 31.5736 21.8164 31.7351 21.4152 31.7351C20.6139 31.7351 19.9629 31.0862 19.9629 30.2848V12.2595C19.9629 11.4581 20.6118 10.8071 21.4173 10.8071C22.2166 10.8071 22.8676 11.4581 22.8676 12.2595V30.2848C22.8674 30.6839 22.705 31.0485 22.443 31.3105Z" fill="#CCC2B2"/>
<path d="M21.0926 33.7048C24.4003 33.7048 27.0817 31.0234 27.0817 27.7157C27.0817 24.408 24.4003 21.7266 21.0926 21.7266C17.7849 21.7266 15.1035 24.408 15.1035 27.7157C15.1035 31.0234 17.7849 33.7048 21.0926 33.7048Z" fill="#FF7F00"/>
<path d="M21.0938 21.7266C24.4027 21.7286 27.0839 24.4078 27.0839 27.7167C27.0818 31.0236 24.3996 33.7048 21.0958 33.7048" fill="#EA5807"/>
<path d="M17.6395 24.8628C18.7323 24.8628 18.2621 26.2491 18.2621 27.9615C18.2642 29.6729 18.7303 31.0592 17.6375 31.0612C16.5488 31.0591 15.6621 29.6728 15.6602 27.9615C15.66 26.2502 16.5466 24.8628 17.6395 24.8628Z" fill="#FFB000"/>
<path d="M18.2713 24.3097C18.4783 24.3097 18.6461 24.1419 18.6461 23.9349C18.6461 23.7279 18.4783 23.5601 18.2713 23.5601C18.0643 23.5601 17.8965 23.7279 17.8965 23.9349C17.8965 24.1419 18.0643 24.3097 18.2713 24.3097Z" fill="#FFB000"/>
<path d="M45.687 29.0573C45.4229 29.3213 45.0604 29.4819 44.6592 29.4828L26.6359 29.4838C25.8346 29.4838 25.1836 28.8338 25.1836 28.0314C25.1836 27.2301 25.8346 26.5791 26.6359 26.5791H44.6592C45.4626 26.5791 46.1116 27.228 46.1116 28.0314C46.1116 28.4327 45.949 28.7953 45.687 29.0573Z" fill="#CCC2B2"/>
<path d="M47.5305 37.3954C52.876 37.3954 57.2094 33.062 57.2094 27.7165C57.2094 22.371 52.876 18.0376 47.5305 18.0376C42.185 18.0376 37.8516 22.371 37.8516 27.7165C37.8516 33.062 42.185 37.3954 47.5305 37.3954Z" fill="#0793D1"/>
<path d="M47.5293 18.0376C52.8776 18.0386 57.2092 22.3723 57.2092 27.7165C57.2092 33.0607 52.8745 37.3944 47.5293 37.3954" fill="#097ACE"/>
<path d="M41.9493 23.1064C43.7145 23.1075 42.9548 25.3489 42.9548 28.1145C42.9548 30.88 43.7124 33.1225 41.9472 33.1215C40.1821 33.1235 38.75 30.88 38.75 28.1145C38.75 25.3489 40.1821 23.1064 41.9493 23.1064Z" fill="#25BEF4"/>
<path d="M43.396 21.1853C43.6315 21.4208 43.6315 21.8027 43.3939 22.0404C43.1603 22.275 42.7775 22.2759 42.5407 22.0404C42.3031 21.8027 42.3052 21.4219 42.5407 21.1853C42.7764 20.9487 43.1583 20.9487 43.396 21.1853Z" fill="#25BEF4"/>
<path d="M11.7334 63.8725C12.9118 63.8725 13.8672 62.9172 13.8672 61.7388C13.8672 60.5603 12.9118 59.605 11.7334 59.605C10.5549 59.605 9.59961 60.5603 9.59961 61.7388C9.59961 62.9172 10.5549 63.8725 11.7334 63.8725Z" fill="#0793D1"/>
<path d="M10.2227 60.2255C11.0555 59.3916 12.4062 59.3916 13.24 60.2255C14.0728 61.0572 14.0728 62.408 13.24 63.2439" fill="#097ACE"/>
<path d="M10.144 61.8838C10.4183 61.6085 10.6498 62.0747 11.0805 62.5073C11.5111 62.938 11.9793 63.1685 11.7051 63.4438C11.4298 63.7191 10.856 63.5941 10.4254 63.1624C9.99381 62.7308 9.86887 62.1601 10.144 61.8838Z" fill="#25BEF4"/>
<path d="M10.0686 61.626C10.1421 61.626 10.2017 61.5664 10.2017 61.4929C10.2017 61.4194 10.1421 61.3599 10.0686 61.3599C9.99512 61.3599 9.93555 61.4194 9.93555 61.4929C9.93555 61.5664 9.99512 61.626 10.0686 61.626Z" fill="#25BEF4"/>
<path d="M21.4948 52.7887C21.4948 53.0243 21.4034 53.26 21.2247 53.4397L13.1514 61.5159C12.7889 61.8745 12.2089 61.8745 11.8505 61.5159C11.49 61.1565 11.49 60.5724 11.8505 60.2139L19.9237 52.1387C20.2832 51.7793 20.8662 51.7793 21.2247 52.1387C21.4034 52.3176 21.4948 52.5532 21.4948 52.7887Z" fill="#CCC2B2"/>
<path d="M9.95283 49.0951C11.4348 49.0951 12.6361 47.8938 12.6361 46.4118C12.6361 44.9299 11.4348 43.7285 9.95283 43.7285C8.47089 43.7285 7.26953 44.9299 7.26953 46.4118C7.26953 47.8938 8.47089 49.0951 9.95283 49.0951Z" fill="#0793D1"/>
<path d="M8.05469 44.5195C9.09972 43.4714 10.7999 43.4714 11.849 44.5195C12.8961 45.5666 12.8961 47.2657 11.849 48.3138" fill="#097ACE"/>
<path d="M7.95318 46.609C8.30054 46.2627 8.59 46.8508 9.13334 47.3931C9.67268 47.9344 10.2617 48.2259 9.91637 48.5712C9.56902 48.9185 8.8489 48.759 8.30763 48.2167C7.76622 47.6755 7.60582 46.9553 7.95318 46.609Z" fill="#25BEF4"/>
<path d="M7.86293 46.2835C7.9555 46.2835 8.03055 46.2084 8.03055 46.1159C8.03055 46.0233 7.9555 45.9482 7.86293 45.9482C7.77036 45.9482 7.69531 46.0233 7.69531 46.1159C7.69531 46.2084 7.77036 46.2835 7.86293 46.2835Z" fill="#25BEF4"/>
<path d="M20.485 55.816C20.485 56.0507 20.3957 56.2873 20.2149 56.468C19.8554 56.8275 19.2724 56.8275 18.9139 56.468L10.8407 48.3918C10.4802 48.0323 10.4802 47.4503 10.8407 47.0919C11.1982 46.7324 11.7812 46.7324 12.1397 47.0919L20.2149 55.1681C20.3957 55.3458 20.485 55.5804 20.485 55.816Z" fill="#CCC2B2"/>
<path d="M18.269 58.6048C20.3645 58.6048 22.0633 56.906 22.0633 54.8105C22.0633 52.7149 20.3645 51.0161 18.269 51.0161C16.1734 51.0161 14.4746 52.7149 14.4746 54.8105C14.4746 56.906 16.1734 58.6048 18.269 58.6048Z" fill="#FF7F00"/>
<path d="M15.5879 52.1274C17.0696 50.6457 19.4716 50.6457 20.9535 52.1274C22.4352 53.6102 22.4373 56.0122 20.9535 57.494" fill="#EA5807"/>
<path d="M15.4448 55.0792C15.9344 54.5896 16.3457 55.4205 17.1135 56.1883C17.8793 56.9541 18.7102 57.3654 18.2226 57.856C17.7331 58.3445 16.7155 58.1211 15.9477 57.3543C15.1808 56.5863 14.9542 55.5686 15.4448 55.0792Z" fill="#FFB000"/>
<path d="M15.3177 54.6203C15.4489 54.6203 15.5553 54.5139 15.5553 54.3826C15.5553 54.2514 15.4489 54.145 15.3177 54.145C15.1865 54.145 15.0801 54.2514 15.0801 54.3826C15.0801 54.5139 15.1865 54.6203 15.3177 54.6203Z" fill="#FFB000"/>
<path d="M29.8865 44.3936C29.8865 44.6283 29.7971 44.8639 29.6184 45.0446L21.5432 53.1209C21.1838 53.4803 20.6007 53.4803 20.2423 53.1209C19.8828 52.7614 19.8828 52.1783 20.2423 51.8199L28.3174 43.7447C28.678 43.3852 29.26 43.3852 29.6184 43.7447C29.7971 43.9234 29.8865 44.1579 29.8865 44.3936Z" fill="#CCC2B2"/>
<path d="M30.1149 49.1019C33.5028 49.1019 36.2493 46.3554 36.2493 42.9674C36.2493 39.5795 33.5028 36.833 30.1149 36.833C26.7269 36.833 23.9805 39.5795 23.9805 42.9674C23.9805 46.3554 26.7269 49.1019 30.1149 49.1019Z" fill="#0793D1"/>
<path d="M25.7773 38.6299C28.1732 36.236 32.0559 36.236 34.4518 38.6299C36.8436 41.0247 36.8457 44.9084 34.4518 47.3033" fill="#097ACE"/>
<path d="M25.5486 43.4022C26.3398 42.6131 27.0051 43.9568 28.2421 45.1959C29.4791 46.4349 30.8249 47.1001 30.0337 47.8903C29.2446 48.6814 27.5982 48.3188 26.3581 47.0798C25.12 45.8407 24.7555 44.1954 25.5486 43.4022Z" fill="#25BEF4"/>
<path d="M25.3341 42.6609C25.5456 42.6609 25.7171 42.4895 25.7171 42.278C25.7171 42.0665 25.5456 41.895 25.3341 41.895C25.1226 41.895 24.9512 42.0665 24.9512 42.278C24.9512 42.4895 25.1226 42.6609 25.3341 42.6609Z" fill="#25BEF4"/>
<path d="M61.2429 59.9797C61.2429 62.7686 58.9811 65.0283 56.1964 65.0283H54.617C51.8281 65.0283 49.5684 62.7686 49.5684 59.9797V2.86802C49.5684 0.0811844 51.8281 0.0283203 54.617 0.0283203H56.1964C58.9813 0.0283203 61.2429 0.0811844 61.2429 2.86802V59.9797Z" fill="#ABD3DD"/>
<path d="M54.6172 0.0283203H56.1965C58.9814 0.0283203 61.2431 0.0811844 61.2431 2.86802V59.9797C61.2431 62.7686 58.9813 65.0283 56.1965 65.0283H54.6172" fill="#8DC6D3"/>
<path d="M49.5684 27.7886V59.9809C49.5684 62.7698 51.8281 65.0295 54.617 65.0295H56.1964C58.9813 65.0295 61.2429 62.7698 61.2429 59.9809V27.7886H49.5684Z" fill="#25BEF4"/>
<path d="M49.5684 59.9804C49.5684 62.7693 51.8281 65.029 54.617 65.029H56.1964C58.9813 65.029 61.2429 62.7693 61.2429 59.9804V30.0732H49.5684V59.9804Z" fill="#0793D1"/>
<path d="M54.6172 65.029H56.1965C58.9814 65.029 61.2431 62.7693 61.2431 59.9804V30.0732H54.6182V65.029H54.6172Z" fill="#097ACE"/>
<path d="M60.707 13.8185L61.2422 13.2833V2.86802C61.2422 0.0811844 58.9804 0.0283203 56.1956 0.0283203H54.6163C51.8903 0.0283203 49.6864 0.0963989 49.5859 2.70144L60.707 13.8185Z" fill="#8DC6D3"/>
<path d="M63.2933 1.28971C63.2933 1.98739 62.7295 2.55213 62.0319 2.55213H48.779C48.0822 2.55213 47.5176 1.98648 47.5176 1.28971C47.5176 0.593966 48.0832 0.0283203 48.779 0.0283203H62.0319C62.7297 0.0283203 63.2933 0.594997 63.2933 1.28971Z" fill="#C4E3E8"/>
<path d="M63.2933 1.29004C63.2933 1.98772 62.7295 2.55246 62.0319 2.55246H48.779C48.0822 2.55246 47.5176 1.98681 47.5176 1.29004" fill="#ABD3DD"/>
<path d="M55.9303 8.04826C55.9303 8.224 55.7912 8.36519 55.6165 8.36519H51.4107C51.2339 8.36519 51.0938 8.224 51.0938 8.04826C51.0938 7.87355 51.2349 7.7334 51.4107 7.7334H55.6163C55.7912 7.73443 55.9303 7.87458 55.9303 8.04826Z" fill="#C4E3E8"/>
<path d="M53.4083 10.4672C53.4083 10.6429 53.2671 10.7831 53.0945 10.7831H51.4126C51.2359 10.7831 51.0957 10.6429 51.0957 10.4672C51.0957 10.2925 51.2369 10.1523 51.4126 10.1523H53.0945C53.2671 10.1534 53.4083 10.2925 53.4083 10.4672Z" fill="#C4E3E8"/>
<path d="M55.9303 12.7827C55.9303 12.9584 55.7912 13.0986 55.6165 13.0986H51.4107C51.2339 13.0986 51.0938 12.9584 51.0938 12.7827C51.0938 12.607 51.2349 12.4668 51.4107 12.4668H55.6163C55.7912 12.4669 55.9303 12.6071 55.9303 12.7827Z" fill="#C4E3E8"/>
<path d="M53.4083 15.1987C53.4083 15.3744 53.2671 15.5156 53.0945 15.5156H51.4126C51.2359 15.5156 51.0957 15.3734 51.0957 15.1987C51.0957 15.0239 51.2369 14.8838 51.4126 14.8838H53.0945C53.2671 14.8849 53.4083 15.0251 53.4083 15.1987Z" fill="#C4E3E8"/>
<path d="M55.9303 17.5156C55.9303 17.6903 55.7912 17.8325 55.6165 17.8325H51.4107C51.2339 17.8325 51.0938 17.6893 51.0938 17.5156C51.0938 17.3409 51.2349 17.1997 51.4107 17.1997H55.6163C55.7912 17.1997 55.9303 17.3409 55.9303 17.5156Z" fill="#C4E3E8"/>
<path d="M53.4083 19.9329C53.4083 20.1106 53.2671 20.2488 53.0945 20.2488H51.4126C51.2359 20.2488 51.0957 20.1107 51.0957 19.9329C51.0957 19.7582 51.2369 19.6201 51.4126 19.6201H53.0945C53.2671 19.6201 53.4083 19.7582 53.4083 19.9329Z" fill="#C4E3E8"/>
<path d="M55.9303 22.248C55.9303 22.4247 55.7912 22.5639 55.6165 22.5639H51.4107C51.2339 22.5639 51.0938 22.4247 51.0938 22.248C51.0938 22.0733 51.2349 21.9331 51.4107 21.9331H55.6163C55.7912 21.9331 55.9303 22.0733 55.9303 22.248Z" fill="#C4E3E8"/>
<path d="M53.4083 24.666C53.4083 24.8407 53.2671 24.9829 53.0945 24.9829H51.4126C51.2359 24.9829 51.0957 24.8397 51.0957 24.666C51.0957 24.4913 51.2369 24.3501 51.4126 24.3501H53.0945C53.2671 24.3502 53.4083 24.4913 53.4083 24.666Z" fill="#C4E3E8"/>
<path d="M55.9303 26.9804C55.9303 27.1562 55.7912 27.2974 55.6165 27.2974H51.4107C51.2339 27.2974 51.0938 27.1552 51.0938 26.9804C51.0938 26.8057 51.2349 26.6646 51.4107 26.6646H55.6163C55.7912 26.6656 55.9303 26.8057 55.9303 26.9804Z" fill="#C4E3E8"/>
<path d="M53.4083 29.3984C53.4083 29.5731 53.2671 29.7153 53.0945 29.7153H51.4126C51.2359 29.7153 51.0957 29.572 51.0957 29.3984C51.0957 29.2267 51.2369 29.0835 51.4126 29.0835H53.0945C53.2671 29.0835 53.4083 29.2267 53.4083 29.3984Z" fill="#C4E3E8"/>
<path d="M55.9303 31.7144C55.9303 31.8881 55.7912 32.0303 55.6165 32.0303H51.4107C51.2339 32.0303 51.0938 31.8881 51.0938 31.7144C51.0938 31.5386 51.2349 31.3975 51.4107 31.3975H55.6163C55.7912 31.3985 55.9303 31.5386 55.9303 31.7144Z" fill="#C4E3E8"/>
<path d="M53.4083 34.1313C53.4083 34.307 53.2671 34.4482 53.0945 34.4482H51.4126C51.2359 34.4482 51.0957 34.306 51.0957 34.1313C51.0957 33.9566 51.2369 33.8164 51.4126 33.8164H53.0945C53.2671 33.8174 53.4083 33.9566 53.4083 34.1313Z" fill="#C4E3E8"/>
<path d="M55.9303 36.4468C55.9303 36.6225 55.7912 36.7637 55.6165 36.7637H51.4107C51.2339 36.7637 51.0938 36.6225 51.0938 36.4468C51.0938 36.271 51.2349 36.1309 51.4107 36.1309H55.6163C55.7912 36.1319 55.9303 36.272 55.9303 36.4468Z" fill="#C4E3E8"/>
<path d="M53.4083 38.8667C53.4083 39.0414 53.2671 39.1826 53.0945 39.1826H51.4126C51.2359 39.1826 51.0957 39.0414 51.0957 38.8667C51.0957 38.691 51.2369 38.5498 51.4126 38.5498H53.0945C53.2671 38.551 53.4083 38.6911 53.4083 38.8667Z" fill="#C4E3E8"/>
<path d="M55.9303 41.1816C55.9303 41.3574 55.7912 41.4975 55.6165 41.4975H51.4107C51.2339 41.4975 51.0938 41.3574 51.0938 41.1816C51.0938 41.0069 51.2349 40.8657 51.4107 40.8657H55.6163C55.7912 40.8657 55.9303 41.0069 55.9303 41.1816Z" fill="#C4E3E8"/>
<path d="M53.4083 43.5971C53.4083 43.7729 53.2671 43.9141 53.0945 43.9141H51.4126C51.2359 43.9141 51.0957 43.7729 51.0957 43.5971C51.0957 43.4214 51.2369 43.2812 51.4126 43.2812H53.0945C53.2671 43.2823 53.4083 43.4224 53.4083 43.5971Z" fill="#C4E3E8"/>
<path d="M55.9303 45.9131C55.9303 46.0878 55.7912 46.23 55.6165 46.23H51.4107C51.2339 46.23 51.0938 46.0878 51.0938 45.9131C51.0938 45.7394 51.2349 45.5972 51.4107 45.5972H55.6163C55.7912 45.5972 55.9303 45.7394 55.9303 45.9131Z" fill="#C4E3E8"/>
<path d="M53.4083 48.332C53.4083 48.5078 53.2671 48.6479 53.0945 48.6479H51.4126C51.2359 48.6479 51.0957 48.5078 51.0957 48.332C51.0957 48.1573 51.2369 48.0161 51.4126 48.0161H53.0945C53.2671 48.0162 53.4083 48.1574 53.4083 48.332Z" fill="#C4E3E8"/>
<path d="M55.9303 50.647C55.9303 50.8217 55.7912 50.9639 55.6165 50.9639H51.4107C51.2339 50.9639 51.0938 50.8217 51.0938 50.647C51.0938 50.4723 51.2349 50.3301 51.4107 50.3301H55.6163C55.7912 50.3301 55.9303 50.4723 55.9303 50.647Z" fill="#C4E3E8"/>
<path d="M53.4083 53.0649C53.4083 53.2407 53.2671 53.3808 53.0945 53.3808H51.4126C51.2359 53.3808 51.0957 53.2407 51.0957 53.0649C51.0957 52.8902 51.2369 52.749 51.4126 52.749H53.0945C53.2671 52.749 53.4083 52.8902 53.4083 53.0649Z" fill="#C4E3E8"/>
<path d="M55.9303 55.3794C55.9303 55.5541 55.7912 55.6942 55.6165 55.6942H51.4107C51.2339 55.6942 51.0938 55.5541 51.0938 55.3794C51.0938 55.2036 51.2349 55.0635 51.4107 55.0635H55.6163C55.7912 55.0636 55.9303 55.2038 55.9303 55.3794Z" fill="#C4E3E8"/>
<path d="M53.4083 57.7974C53.4083 57.9721 53.2671 58.1143 53.0945 58.1143H51.4126C51.2359 58.1143 51.0957 57.9721 51.0957 57.7974C51.0957 57.6227 51.2369 57.4805 51.4126 57.4805H53.0945C53.2671 57.4806 53.4083 57.6227 53.4083 57.7974Z" fill="#C4E3E8"/>
</g>
<defs>
<clipPath id="clip0_3624_10398">
<rect width="65" height="65" fill="white" transform="translate(0.5 0.0273438)"/>
</clipPath>
</defs>
</svg>
