<svg width="66" height="66" viewBox="0 0 66 66" fill="none" xmlns="http://www.w3.org/2000/svg">
<path d="M4.5625 36.0664L20.7516 29.5258C22.3948 27.3542 24.2452 25.3474 26.2766 23.5336C27.6172 22.8227 30.1359 23.2086 34.7469 17.4805C39.2156 11.8945 40.6375 7.12109 42.7297 7.12109C46.0406 7.12109 48.4781 14.2711 52.175 25.0977C54.8109 33.3673 57.9031 41.4844 61.4375 49.4117C57.5781 45.8164 54.2875 41.9367 50.5297 42.0383C47.0359 42.1195 43.1562 46.2633 38.9109 51.5852C35.5391 55.8508 31.0703 58.7758 29.3234 58.7148C29.3234 58.7148 24.8141 45.9586 21.0359 43.8867C20.2521 43.5665 19.4036 43.4364 18.5598 43.507C17.716 43.5776 16.901 43.8469 16.1812 44.293L4.5625 36.0461V36.0664Z" fill="#4499DD"/>
<path d="M40.7172 8.5835C39.3562 10.4116 37.7109 13.7632 34.7453 17.4804C30.1344 23.2085 27.6359 22.8226 26.275 23.5335C24.2339 25.3374 22.3826 27.3452 20.75 29.5257L27.4531 34.421C33.1406 26.6616 36.1875 18.2522 38.5641 12.8085C39.1592 11.341 39.8795 9.92741 40.7172 8.5835Z" fill="url(#paint0_linear_3624_10382)"/>
<path d="M42.7457 7.12109C38.3176 7.12109 35.291 30.4398 18.9395 43.4602C23.5301 42.7086 27.5113 54.1039 29.3395 58.7148C37.4645 57.3336 43.9645 41.7945 50.5254 42.0383C54.2832 42.1805 57.5738 45.8164 61.4332 49.4117C52.6176 30.8867 48.4941 7.12109 42.7457 7.12109Z" fill="url(#paint1_linear_3624_10382)"/>
<defs>
<linearGradient id="paint0_linear_3624_10382" x1="34.6295" y1="31.6362" x2="30.9936" y2="19.8955" gradientUnits="userSpaceOnUse">
<stop stop-color="#551122"/>
<stop offset="0.23" stop-color="#552233"/>
<stop offset="0.36" stop-color="#553344"/>
<stop offset="0.51" stop-color="#664455"/>
<stop offset="0.66" stop-color="#556688"/>
<stop offset="0.84" stop-color="#2299DD"/>
</linearGradient>
<linearGradient id="paint1_linear_3624_10382" x1="60.8441" y1="38.9772" x2="24.2816" y2="29.9991" gradientUnits="userSpaceOnUse">
<stop offset="0.081" stop-color="#CC3333"/>
<stop offset="0.189" stop-color="#DE5239"/>
<stop offset="0.313" stop-color="#F06E3E"/>
<stop offset="0.421" stop-color="#FA8042"/>
<stop offset="0.5" stop-color="#FE8643"/>
<stop offset="0.58" stop-color="#FA7F42"/>
<stop offset="0.696" stop-color="#EF6C3E"/>
<stop offset="0.833" stop-color="#DC4C37"/>
<stop offset="0.916" stop-color="#CF3633"/>
</linearGradient>
</defs>
</svg>
