<svg width="60" height="66" viewBox="0 0 60 66" fill="none" xmlns="http://www.w3.org/2000/svg">
<path d="M45.5809 5.18994H24.1973V15.2063H45.5809V5.18994Z" fill="#999999"/>
<path d="M38.7593 7.7417H28.9336V12.6545H38.7593V7.7417Z" fill="#808080"/>
<path d="M29.1619 14.9732L10.9052 33.2298L2.7168 25.0413L20.9735 6.78477C23.2347 4.52357 26.9007 4.52357 29.1619 6.78477C31.4232 9.04598 31.4232 12.712 29.1619 14.9732Z" fill="#CCCCCC"/>
<path d="M21.7503 32.1733C15.2823 32.1733 10.0391 37.4166 10.0391 43.8845V61.9119H33.4615V43.8845C33.4616 37.4166 28.2184 32.1733 21.7503 32.1733Z" fill="#999999"/>
<path d="M21.751 53.6246C27.0252 53.6246 31.3008 49.349 31.3008 44.0747C31.3008 38.8005 27.0252 34.5249 21.751 34.5249C16.4768 34.5249 12.2012 38.8005 12.2012 44.0747C12.2012 49.349 16.4768 53.6246 21.751 53.6246Z" fill="#CCCCCC"/>
<path d="M21.7516 53.9757C19.107 53.9757 16.6208 52.9459 14.7507 51.0758C10.8904 47.2156 10.8904 40.9343 14.7507 37.0742C16.6208 35.2043 19.107 34.1743 21.7516 34.1743C24.3963 34.1743 26.8826 35.2041 28.7525 37.0742C30.6225 38.9441 31.6524 41.4305 31.6524 44.0751C31.6524 46.7197 30.6225 49.2059 28.7525 51.076C26.8826 52.9457 24.3963 53.9757 21.7516 53.9757ZM21.7516 34.8762C19.2945 34.8762 16.9844 35.833 15.247 37.5703C11.6603 41.157 11.6603 46.9928 15.247 50.5795C16.9845 52.317 19.2945 53.2737 21.7516 53.2737C24.2087 53.2737 26.5188 52.3169 28.2562 50.5795C29.9937 48.842 30.9503 46.532 30.9503 44.0749C30.9503 41.6178 29.9935 39.3077 28.2562 37.5703C26.5187 35.833 24.2087 34.8762 21.7516 34.8762Z" fill="#808080"/>
<path d="M2.71772 25.0413C0.302427 27.4566 0.302427 31.3724 2.71772 33.7877L17.419 48.4889C19.8343 50.9042 23.75 50.9042 26.1653 48.4889C28.5806 46.0736 28.5806 42.1579 26.1653 39.7426L11.464 25.0413C9.04891 22.6262 5.13301 22.6262 2.71772 25.0413Z" fill="#999999"/>
<path d="M21.751 46.5058C23.0934 46.5058 24.1816 45.4176 24.1816 44.0752C24.1816 42.7328 23.0934 41.6445 21.751 41.6445C20.4086 41.6445 19.3203 42.7328 19.3203 44.0752C19.3203 45.4176 20.4086 46.5058 21.751 46.5058Z" fill="#CCCCCC"/>
<path d="M7.12792 31.8828C8.47033 31.8828 9.55857 30.7945 9.55857 29.4521C9.55857 28.1097 8.47033 27.0215 7.12792 27.0215C5.78551 27.0215 4.69727 28.1097 4.69727 29.4521C4.69727 30.7945 5.78551 31.8828 7.12792 31.8828Z" fill="#CCCCCC"/>
<path d="M54.3467 61.9121H0.361328V65.7227H54.3467V61.9121Z" fill="#808080"/>
<path d="M59.6388 13.0924C59.6388 16.7261 56.6929 19.672 53.0592 19.672H48.5341C44.202 19.672 40.6895 16.1611 40.6895 11.8273V8.56918C40.6893 4.23537 44.202 0.722656 48.5341 0.722656H53.0592C54.877 0.722656 56.5209 1.4595 57.7122 2.64925C58.9018 3.84058 59.6388 5.48467 59.6388 7.30231H49.8131V13.0924H59.6388Z" fill="#CCCCCC"/>
<path d="M45.3779 12.6289C46.7203 12.6289 47.8086 11.5406 47.8086 10.1982C47.8086 8.85582 46.7203 7.76758 45.3779 7.76758C44.0355 7.76758 42.9473 8.85582 42.9473 10.1982C42.9473 11.5406 44.0355 12.6289 45.3779 12.6289Z" fill="#999999"/>
<path d="M14.626 60.1992C15.9684 60.1992 17.0566 59.111 17.0566 57.7685C17.0566 56.4261 15.9684 55.3379 14.626 55.3379C13.2836 55.3379 12.1953 56.4261 12.1953 57.7685C12.1953 59.111 13.2836 60.1992 14.626 60.1992Z" fill="#CCCCCC"/>
<path d="M28.8779 60.1992C30.2203 60.1992 31.3086 59.111 31.3086 57.7685C31.3086 56.4261 30.2203 55.3379 28.8779 55.3379C27.5355 55.3379 26.4473 56.4261 26.4473 57.7685C26.4473 59.111 27.5355 60.1992 28.8779 60.1992Z" fill="#CCCCCC"/>
<path d="M25.7764 12.6289C27.1188 12.6289 28.207 11.5406 28.207 10.1982C28.207 8.85582 27.1188 7.76758 25.7764 7.76758C24.4339 7.76758 23.3457 8.85582 23.3457 10.1982C23.3457 11.5406 24.4339 12.6289 25.7764 12.6289Z" fill="#999999"/>
<path d="M52.269 13.0923H49.8125V19.6719H52.269V13.0923Z" fill="#999999"/>
<path d="M12.1968 19.4082L10.832 20.7729L15.1743 25.1153L16.5391 23.7505L12.1968 19.4082Z" fill="#808080"/>
<path d="M14.9566 16.6479L13.5918 18.0127L17.9341 22.355L19.2989 20.9902L14.9566 16.6479Z" fill="#808080"/>
<path d="M17.7163 13.8882L16.3516 15.2529L20.6939 19.5952L22.0586 18.2305L17.7163 13.8882Z" fill="#808080"/>
<path d="M20.478 11.1279L19.1133 12.4927L23.4556 16.835L24.8203 15.4702L20.478 11.1279Z" fill="#808080"/>
<path d="M13.2199 29.4647L7.14062 35.5439L15.453 43.8563L21.5323 37.7771L13.2199 29.4647Z" fill="#808080"/>
</svg>
