<svg width="67" height="67" viewBox="0 0 67 67" fill="none" xmlns="http://www.w3.org/2000/svg">
<path d="M44.2393 45.5244C51.0333 45.5244 56.541 40.0167 56.541 33.2227C56.541 26.4286 51.0333 20.9209 44.2393 20.9209C37.4452 20.9209 31.9375 26.4286 31.9375 33.2227C31.9375 40.0167 37.4452 45.5244 44.2393 45.5244Z" fill="#B2EBF2"/>
<path d="M44.2383 16.8203C35.217 16.8203 27.8359 24.2014 27.8359 33.2227C27.8359 42.2439 35.217 49.625 44.2383 49.625C53.2596 49.625 60.6406 42.2439 60.6406 33.2227C60.6406 24.2014 53.2596 16.8203 44.2383 16.8203ZM44.2383 44.1576C38.2241 44.1576 33.3034 39.2368 33.3034 33.2227C33.3034 27.2085 38.2241 22.2878 44.2383 22.2878C50.2525 22.2878 55.1732 27.2085 55.1732 33.2227C55.1732 39.2368 50.2525 44.1576 44.2383 44.1576Z" fill="#4DD0E1"/>
<path d="M35.2176 30.4896L27.5632 7.38965L19.0887 38.2807L16.0816 30.4896H5.9668V35.9571H12.2544L20.1822 55.5032L28.11 26.2523L31.3904 35.9571H41.5052V30.4896H35.2176Z" fill="#3F51B5"/>
<path d="M44.2389 38.6893C47.2585 38.6893 49.7064 36.2414 49.7064 33.2218C49.7064 30.2023 47.2585 27.7544 44.2389 27.7544C41.2193 27.7544 38.7715 30.2023 38.7715 33.2218C38.7715 36.2414 41.2193 38.6893 44.2389 38.6893Z" fill="#3F51B5"/>
</svg>
