<svg width="66" height="66" viewBox="0 0 66 66" fill="none" xmlns="http://www.w3.org/2000/svg">
<path d="M44.6059 14.5561L35.1242 5.07444C33.9974 3.94764 32.1705 3.94764 31.0437 5.07444L21.5612 14.5569C20.4344 15.6838 20.4344 17.5107 21.5612 18.6375L31.0428 28.1191C32.1696 29.2459 33.9965 29.2459 35.1234 28.1191L44.6059 18.6366C45.7327 17.5098 45.7327 15.6829 44.6059 14.5561Z" fill="#67BAEB"/>
<path d="M60.4535 30.4042L50.9719 20.9226C49.8451 19.7958 48.0182 19.7958 46.8914 20.9226L37.4089 30.4051C36.2821 31.5319 36.2821 33.3588 37.4089 34.4856L46.8905 43.9672C48.0173 45.094 49.8442 45.094 50.971 43.9672L60.4535 34.4847C61.5803 33.3579 61.5803 31.531 60.4535 30.4042Z" fill="#F4C23F"/>
<path d="M28.5902 30.5712L19.1086 21.0896C17.9818 19.9628 16.1549 19.9628 15.0281 21.0896L5.54559 30.5721C4.41878 31.6989 4.41878 33.5258 5.54559 34.6526L15.0272 44.1342C16.154 45.261 17.9809 45.261 19.1077 44.1342L28.5902 34.6517C29.717 33.5249 29.717 31.698 28.5902 30.5712Z" fill="#F4C23F"/>
<path d="M44.4379 46.4193L34.9563 36.9377C33.8295 35.8109 32.0026 35.8109 30.8758 36.9377L21.3932 46.4202C20.2664 47.547 20.2664 49.3739 21.3932 50.5008L30.8749 59.9824C32.0017 61.1092 33.8286 61.1092 34.9554 59.9824L44.4379 50.4999C45.5647 49.3731 45.5647 47.5461 44.4379 46.4193Z" fill="#67BAEB"/>
<path d="M44.6059 14.5561L35.1242 5.07444C33.9974 3.94764 32.1705 3.94764 31.0437 5.07444L21.5612 14.5569C20.4344 15.6838 20.4344 17.5107 21.5612 18.6375L31.0428 28.1191C32.1696 29.2459 33.9965 29.2459 35.1234 28.1191L44.6059 18.6366C45.7327 17.5098 45.7327 15.6829 44.6059 14.5561Z" fill="#67BAEB"/>
<path d="M60.4535 30.4042L50.9719 20.9226C49.8451 19.7958 48.0182 19.7958 46.8914 20.9226L37.4089 30.4051C36.2821 31.5319 36.2821 33.3588 37.4089 34.4856L46.8905 43.9672C48.0173 45.094 49.8442 45.094 50.971 43.9672L60.4535 34.4847C61.5803 33.3579 61.5803 31.531 60.4535 30.4042Z" fill="#F4C23F"/>
<path d="M44.4379 46.4193L34.9563 36.9377C33.8295 35.8109 32.0026 35.8109 30.8758 36.9377L21.3932 46.4202C20.2664 47.547 20.2664 49.3739 21.3932 50.5008L30.8749 59.9824C32.0017 61.1092 33.8286 61.1092 34.9554 59.9824L44.4379 50.4999C45.5647 49.3731 45.5647 47.5461 44.4379 46.4193Z" fill="#67BAEB"/>
<path d="M34.38 28.1199L24.8963 18.6362C24.628 18.3685 24.4151 18.0505 24.2698 17.7004C24.1245 17.3502 24.0498 16.9749 24.0498 16.5958C24.0498 16.2168 24.1245 15.8415 24.2698 15.4913C24.4151 15.1412 24.628 14.8232 24.8963 14.5555L34.38 5.07183C34.4945 4.95686 34.6186 4.85184 34.7509 4.75792C34.1953 4.36461 33.5186 4.18039 32.8403 4.23783C32.162 4.29528 31.5259 4.59068 31.0444 5.07183L21.5607 14.5555C21.0203 15.097 20.7168 15.8308 20.7168 16.5958C20.7168 17.3609 21.0203 18.0947 21.5607 18.6362L31.0444 28.1199C31.5259 28.601 32.162 28.8964 32.8403 28.9539C33.5186 29.0113 34.1953 28.8271 34.7509 28.4338C34.6186 28.3399 34.4945 28.2348 34.38 28.1199Z" fill="#46A1F8"/>
<path d="M50.2276 43.9675L40.744 34.4839C40.4756 34.2161 40.2627 33.8981 40.1175 33.548C39.9722 33.1979 39.8974 32.8226 39.8974 32.4435C39.8974 32.0645 39.9722 31.6891 40.1175 31.339C40.2627 30.9889 40.4756 30.6709 40.744 30.4031L50.2276 20.9195C50.3421 20.8045 50.4663 20.6995 50.5986 20.6056C50.043 20.2123 49.3663 20.028 48.688 20.0855C48.0097 20.1429 47.3735 20.4383 46.892 20.9195L37.4084 30.4031C36.868 30.9447 36.5645 31.6785 36.5645 32.4435C36.5645 33.2085 36.868 33.9423 37.4084 34.4839L46.892 43.9675C47.3735 44.4487 48.0097 44.7441 48.688 44.8015C49.3663 44.859 50.043 44.6747 50.5986 44.2814C50.4663 44.1875 50.3421 44.0825 50.2276 43.9675Z" fill="#F4A93F"/>
<path d="M18.3643 44.1355L8.88068 34.6518C8.61234 34.3841 8.39944 34.0661 8.25418 33.716C8.10892 33.3659 8.03415 32.9905 8.03415 32.6115C8.03415 32.2324 8.10892 31.8571 8.25418 31.507C8.39944 31.1569 8.61234 30.8388 8.88068 30.5711L18.3643 21.0875C18.4789 20.9725 18.603 20.8675 18.7353 20.7735C18.1797 20.3802 17.503 20.196 16.8247 20.2535C16.1464 20.3109 15.5103 20.6063 15.0287 21.0875L5.54507 30.5711C5.00467 31.1126 4.70117 31.8464 4.70117 32.6115C4.70117 33.3765 5.00467 34.1103 5.54507 34.6518L15.0287 44.1355C15.5103 44.6166 16.1464 44.912 16.8247 44.9695C17.503 45.0269 18.1797 44.8427 18.7353 44.4494C18.603 44.3555 18.4789 44.2505 18.3643 44.1355Z" fill="#F4A93F"/>
<path d="M34.212 59.9827L24.7283 50.499C24.46 50.2313 24.2471 49.9133 24.1018 49.5631C23.9566 49.213 23.8818 48.8377 23.8818 48.4586C23.8818 48.0796 23.9566 47.7043 24.1018 47.3541C24.2471 47.004 24.46 46.686 24.7283 46.4183L34.212 36.9346C34.3265 36.8196 34.4506 36.7146 34.583 36.6207C34.0274 36.2274 33.3506 36.0432 32.6723 36.1006C31.9941 36.1581 31.3579 36.4535 30.8764 36.9346L21.3927 46.4183C20.8523 46.9598 20.5488 47.6936 20.5488 48.4586C20.5488 49.2237 20.8523 49.9575 21.3927 50.499L30.8764 59.9827C31.3579 60.4638 31.9941 60.7592 32.6723 60.8167C33.3506 60.8741 34.0274 60.6899 34.583 60.2966C34.4506 60.2027 34.3265 60.0976 34.212 59.9827Z" fill="#46A1F8"/>
<path d="M12.8783 37.2328C12.7533 37.2314 12.6314 37.1933 12.5279 37.1232C12.4244 37.053 12.3438 36.954 12.2962 36.8384C12.2485 36.7229 12.2359 36.5958 12.2599 36.4731C12.2839 36.3504 12.3435 36.2375 12.4312 36.1484L19.5114 29.0682C19.6304 28.9492 19.7918 28.8823 19.9601 28.8823C20.1284 28.8823 20.2898 28.9492 20.4088 29.0682C20.5278 29.1872 20.5946 29.3485 20.5946 29.5168C20.5946 29.6851 20.5278 29.8465 20.4088 29.9655L13.3285 37.0457C13.2695 37.1051 13.1994 37.1522 13.1221 37.1843C13.0448 37.2164 12.962 37.2329 12.8783 37.2328Z" fill="#F4A93F"/>
<path d="M19.9593 37.2328C19.8761 37.2326 19.7938 37.216 19.717 37.1839C19.6403 37.1518 19.5707 37.1048 19.5122 37.0457L12.4319 29.9655C12.3129 29.8465 12.2461 29.6851 12.2461 29.5168C12.2461 29.3485 12.3129 29.1872 12.4319 29.0682C12.5509 28.9492 12.7123 28.8823 12.8806 28.8823C13.0489 28.8823 13.2103 28.9492 13.3293 29.0682L20.4095 36.1484C20.4974 36.2377 20.557 36.3509 20.5809 36.4739C20.6048 36.5969 20.5919 36.7242 20.5439 36.8399C20.4959 36.9556 20.4148 37.0546 20.3108 37.1245C20.2068 37.1943 20.0845 37.232 19.9593 37.2328Z" fill="#F4A93F"/>
<path d="M13.5293 36.7861C13.446 36.7866 13.3635 36.7703 13.2866 36.7382C13.2098 36.706 13.1403 36.6587 13.0822 36.599C13.0233 36.5404 12.9766 36.4707 12.9448 36.394C12.9129 36.3173 12.8965 36.235 12.8965 36.152C12.8965 36.0689 12.9129 35.9866 12.9448 35.9099C12.9766 35.8332 13.0233 35.7635 13.0822 35.7049L20.1624 28.6246C20.2212 28.5659 20.2909 28.5194 20.3676 28.4876C20.4443 28.4558 20.5265 28.4395 20.6095 28.4395C20.6925 28.4395 20.7748 28.4558 20.8515 28.4876C20.9282 28.5194 20.9979 28.5659 21.0566 28.6246C21.1153 28.6833 21.1619 28.753 21.1936 28.8298C21.2254 28.9065 21.2418 28.9887 21.2418 29.0717C21.2418 29.1547 21.2254 29.237 21.1936 29.3137C21.1619 29.3904 21.1153 29.4601 21.0566 29.5188L13.9763 36.599C13.9178 36.6581 13.8482 36.7051 13.7715 36.7372C13.6948 36.7693 13.6124 36.7859 13.5293 36.7861Z" fill="#4D4C78"/>
<path d="M20.609 36.7861C20.5257 36.7866 20.4432 36.7703 20.3664 36.7382C20.2895 36.706 20.22 36.6587 20.1619 36.599L13.0817 29.5188C12.9631 29.4002 12.8965 29.2394 12.8965 29.0717C12.8965 28.904 12.9631 28.7432 13.0817 28.6246C13.2002 28.5061 13.3611 28.4395 13.5287 28.4395C13.6964 28.4395 13.8572 28.5061 13.9758 28.6246L21.0561 35.7049C21.1157 35.7631 21.1631 35.8326 21.1954 35.9094C21.2278 35.9862 21.2445 36.0686 21.2445 36.152C21.2445 36.2353 21.2278 36.3177 21.1954 36.3945C21.1631 36.4713 21.1157 36.5408 21.0561 36.599C20.998 36.6587 20.9284 36.706 20.8516 36.7382C20.7748 36.7703 20.6923 36.7866 20.609 36.7861Z" fill="#4D4C78"/>
<path d="M37.2743 49.5388H27.2611C27.0929 49.5388 26.9316 49.472 26.8127 49.3531C26.6938 49.2341 26.627 49.0728 26.627 48.9047C26.627 48.7365 26.6938 48.5752 26.8127 48.4562C26.9316 48.3373 27.0929 48.2705 27.2611 48.2705H37.2743C37.4425 48.2705 37.6038 48.3373 37.7227 48.4562C37.8416 48.5752 37.9084 48.7365 37.9084 48.9047C37.9084 49.0728 37.8416 49.2341 37.7227 49.3531C37.6038 49.472 37.4425 49.5388 37.2743 49.5388Z" fill="#46A1F8"/>
<path d="M37.9215 49.091H27.9115C27.7433 49.091 27.582 49.0242 27.4631 48.9053C27.3442 48.7864 27.2773 48.6251 27.2773 48.4569C27.2773 48.2887 27.3442 48.1274 27.4631 48.0085C27.582 47.8896 27.7433 47.8228 27.9115 47.8228H37.9215C38.0897 47.8228 38.251 47.8896 38.3699 48.0085C38.4888 48.1274 38.5556 48.2887 38.5556 48.4569C38.5556 48.6251 38.4888 48.7864 38.3699 48.9053C38.251 49.0242 38.0897 49.091 37.9215 49.091Z" fill="#4D4C78"/>
<path d="M32.4349 22.6819C32.2667 22.6819 32.1054 22.615 31.9865 22.4961C31.8676 22.3772 31.8008 22.2159 31.8008 22.0477V12.0345C31.8008 11.8664 31.8676 11.7051 31.9865 11.5861C32.1054 11.4672 32.2667 11.4004 32.4349 11.4004C32.6031 11.4004 32.7644 11.4672 32.8833 11.5861C33.0023 11.7051 33.0691 11.8664 33.0691 12.0345V22.0477C33.0682 22.2156 33.0012 22.3765 32.8824 22.4952C32.7637 22.6139 32.6029 22.681 32.4349 22.6819Z" fill="#46A1F8"/>
<path d="M37.4422 17.6755H27.4291C27.2609 17.6755 27.0996 17.6087 26.9807 17.4898C26.8617 17.3709 26.7949 17.2096 26.7949 17.0414C26.7949 16.8732 26.8617 16.7119 26.9807 16.593C27.0996 16.474 27.2609 16.4072 27.4291 16.4072H37.4422C37.6104 16.4072 37.7717 16.474 37.8907 16.593C38.0096 16.7119 38.0764 16.8732 38.0764 17.0414C38.0764 17.2096 38.0096 17.3709 37.8907 17.4898C37.7717 17.6087 37.6104 17.6755 37.4422 17.6755Z" fill="#46A1F8"/>
<path d="M53.2899 33.5232H43.2767C43.1085 33.5232 42.9472 33.4564 42.8283 33.3374C42.7094 33.2185 42.6426 33.0572 42.6426 32.889C42.6426 32.7208 42.7094 32.5595 42.8283 32.4406C42.9472 32.3217 43.1085 32.2549 43.2767 32.2549H53.2899C53.4581 32.2549 53.6194 32.3217 53.7383 32.4406C53.8572 32.5595 53.924 32.7208 53.924 32.889C53.924 33.0572 53.8572 33.2185 53.7383 33.3374C53.6194 33.4564 53.4581 33.5232 53.2899 33.5232Z" fill="#F4A93F"/>
<path d="M48.2825 30.2222C47.8372 30.2222 47.402 30.0901 47.0318 29.8428C46.6616 29.5954 46.373 29.2438 46.2026 28.8325C46.0322 28.4211 45.9876 27.9685 46.0745 27.5318C46.1614 27.0951 46.3758 26.6939 46.6906 26.3791C47.0055 26.0643 47.4066 25.8498 47.8433 25.763C48.28 25.6761 48.7326 25.7207 49.144 25.8911C49.5553 26.0615 49.9069 26.35 50.1543 26.7202C50.4017 27.0904 50.5337 27.5257 50.5337 27.9709C50.5329 28.5677 50.2954 29.1399 49.8734 29.5619C49.4514 29.9839 48.8793 30.2213 48.2825 30.2222ZM48.2825 26.988C48.0881 26.988 47.898 27.0457 47.7364 27.1537C47.5747 27.2617 47.4488 27.4152 47.3744 27.5948C47.3 27.7744 47.2805 27.972 47.3184 28.1627C47.3564 28.3534 47.45 28.5285 47.5874 28.666C47.7249 28.8034 47.9 28.8971 48.0907 28.935C48.2814 28.9729 48.479 28.9534 48.6586 28.8791C48.8382 28.8047 48.9917 28.6787 49.0997 28.517C49.2077 28.3554 49.2654 28.1654 49.2654 27.9709C49.2654 27.7103 49.1618 27.4602 48.9775 27.2759C48.7932 27.0916 48.5432 26.988 48.2825 26.988Z" fill="#F4A93F"/>
<path d="M48.2825 40.0581C47.8372 40.0581 47.402 39.9261 47.0318 39.6787C46.6616 39.4313 46.373 39.0797 46.2026 38.6684C46.0322 38.257 45.9876 37.8044 46.0745 37.3677C46.1614 36.931 46.3758 36.5299 46.6906 36.215C47.0055 35.9002 47.4066 35.6858 47.8433 35.5989C48.28 35.5121 48.7326 35.5566 49.144 35.727C49.5553 35.8974 49.9069 36.186 50.1543 36.5562C50.4017 36.9264 50.5337 37.3616 50.5337 37.8069C50.5337 38.4039 50.2965 38.9766 49.8743 39.3987C49.4521 39.8209 48.8795 40.0581 48.2825 40.0581ZM48.2825 36.824C48.0881 36.824 47.898 36.8816 47.7364 36.9896C47.5747 37.0976 47.4488 37.2511 47.3744 37.4307C47.3 37.6103 47.2805 37.808 47.3184 37.9986C47.3564 38.1893 47.45 38.3645 47.5874 38.5019C47.7249 38.6394 47.9 38.733 48.0907 38.7709C48.2814 38.8088 48.479 38.7894 48.6586 38.715C48.8382 38.6406 48.9917 38.5146 49.0997 38.353C49.2077 38.1913 49.2654 38.0013 49.2654 37.8069C49.2654 37.5462 49.1618 37.2962 48.9775 37.1119C48.7932 36.9275 48.5432 36.824 48.2825 36.824Z" fill="#F4A93F"/>
<path d="M53.9371 33.0759H43.9271C43.7589 33.0759 43.5976 33.0091 43.4787 32.8902C43.3598 32.7712 43.293 32.6099 43.293 32.4418C43.293 32.2736 43.3598 32.1123 43.4787 31.9934C43.5976 31.8744 43.7589 31.8076 43.9271 31.8076H53.9371C54.1053 31.8076 54.2666 31.8744 54.3855 31.9934C54.5045 32.1123 54.5713 32.2736 54.5713 32.4418C54.5713 32.6099 54.5045 32.7712 54.3855 32.8902C54.2666 33.0091 54.1053 33.0759 53.9371 33.0759Z" fill="#4D4C78"/>
<path d="M48.929 29.7749C48.4837 29.7749 48.0485 29.6429 47.6782 29.3955C47.308 29.1481 47.0195 28.7965 46.8491 28.3852C46.6787 27.9738 46.6341 27.5212 46.721 27.0845C46.8079 26.6478 47.0223 26.2467 47.3371 25.9318C47.6519 25.617 48.0531 25.4026 48.4898 25.3157C48.9265 25.2289 49.3791 25.2734 49.7905 25.4438C50.2018 25.6142 50.5534 25.9028 50.8008 26.273C51.0481 26.6432 51.1802 27.0784 51.1802 27.5237C51.1802 28.1207 50.943 28.6933 50.5208 29.1155C50.0986 29.5377 49.526 29.7749 48.929 29.7749ZM48.929 26.5408C48.7345 26.5408 48.5445 26.5984 48.3829 26.7064C48.2212 26.8144 48.0952 26.9679 48.0208 27.1475C47.9465 27.3271 47.927 27.5248 47.9649 27.7154C48.0028 27.9061 48.0965 28.0812 48.2339 28.2187C48.3714 28.3562 48.5465 28.4498 48.7372 28.4877C48.9279 28.5256 49.1255 28.5062 49.3051 28.4318C49.4847 28.3574 49.6382 28.2314 49.7462 28.0698C49.8542 27.9081 49.9119 27.7181 49.9119 27.5237C49.9119 27.263 49.8083 27.013 49.624 26.8286C49.4397 26.6443 49.1896 26.5408 48.929 26.5408Z" fill="#4D4C78"/>
<path d="M48.929 39.6108C48.4836 39.6108 48.0482 39.4787 47.6779 39.2312C47.3076 38.9837 47.0191 38.6319 46.8488 38.2204C46.6785 37.8088 46.6341 37.356 46.7212 36.9193C46.8083 36.4825 47.0231 36.0814 47.3382 35.7666C47.6534 35.4519 48.0548 35.2378 48.4917 35.1513C48.9286 35.0648 49.3814 35.1098 49.7927 35.2807C50.204 35.4515 50.5553 35.7406 50.8023 36.1112C51.0493 36.4818 51.1808 36.9174 51.1802 37.3628C51.1793 37.9593 50.9418 38.5311 50.5197 38.9526C50.0976 39.3741 49.5255 39.6108 48.929 39.6108ZM48.929 36.3799C48.7345 36.3799 48.5445 36.4375 48.3829 36.5455C48.2212 36.6535 48.0952 36.807 48.0208 36.9866C47.9465 37.1662 47.927 37.3639 47.9649 37.5546C48.0028 37.7452 48.0965 37.9204 48.2339 38.0578C48.3714 38.1953 48.5465 38.2889 48.7372 38.3268C48.9279 38.3648 49.1255 38.3453 49.3051 38.2709C49.4847 38.1965 49.6382 38.0705 49.7462 37.9089C49.8542 37.7472 49.9119 37.5572 49.9119 37.3628C49.9119 37.1021 49.8083 36.8521 49.624 36.6678C49.4397 36.4834 49.1896 36.3799 48.929 36.3799Z" fill="#4D4C78"/>
<path d="M33.0853 22.2353C33.0019 22.2357 32.9193 22.2196 32.8422 22.1879C32.765 22.1562 32.6949 22.1095 32.636 22.0505C32.577 21.9916 32.5303 21.9215 32.4986 21.8444C32.4669 21.7672 32.4508 21.6846 32.4512 21.6012V11.5912C32.4512 11.423 32.518 11.2617 32.6369 11.1428C32.7558 11.0238 32.9171 10.957 33.0853 10.957C33.2535 10.957 33.4148 11.0238 33.5337 11.1428C33.6527 11.2617 33.7195 11.423 33.7195 11.5912V21.6012C33.7195 21.7694 33.6527 21.9307 33.5337 22.0496C33.4148 22.1685 33.2535 22.2353 33.0853 22.2353Z" fill="#4D4C78"/>
<path d="M38.0895 17.2322H28.0795C27.9113 17.2322 27.75 17.1653 27.631 17.0464C27.5121 16.9275 27.4453 16.7662 27.4453 16.598C27.4453 16.4298 27.5121 16.2685 27.631 16.1496C27.75 16.0307 27.9113 15.9639 28.0795 15.9639H38.0895C38.2576 15.9639 38.4189 16.0307 38.5379 16.1496C38.6568 16.2685 38.7236 16.4298 38.7236 16.598C38.7236 16.7662 38.6568 16.9275 38.5379 17.0464C38.4189 17.1653 38.2576 17.2322 38.0895 17.2322Z" fill="#4D4C78"/>
<path d="M37.2945 7.35186C36.6952 6.75255 35.7235 6.75255 35.1242 7.35186C34.5249 7.95117 34.5249 8.92285 35.1242 9.52216L40.1596 14.5576C40.7589 15.1569 41.7306 15.1569 42.3299 14.5576C42.9292 13.9583 42.9292 12.9866 42.3299 12.3873L37.2945 7.35186Z" fill="#83D0FB"/>
<path d="M44.6476 18.4893C45.247 17.89 45.247 16.9183 44.6476 16.319C44.0483 15.7197 43.0767 15.7197 42.4773 16.319L40.4523 18.3441C39.853 18.9434 39.853 19.915 40.4523 20.5144C41.0516 21.1137 42.0233 21.1137 42.6226 20.5144L44.6476 18.4893Z" fill="#83D0FB"/>
<path d="M26.9719 36.1637C27.5712 35.5643 27.5712 34.5927 26.9719 33.9934C26.3726 33.394 25.4009 33.394 24.8016 33.9934L22.7766 36.0184C22.1772 36.6177 22.1772 37.5894 22.7766 38.1887C23.3759 38.788 24.3475 38.788 24.9469 38.1887L26.9719 36.1637Z" fill="#FAD564"/>
<path d="M41.5484 43.5677C40.9491 42.9684 39.9774 42.9684 39.3781 43.5677C38.7788 44.167 38.7788 45.1387 39.3781 45.738L40.4023 46.7621C41.0016 47.3615 41.9733 47.3615 42.5726 46.7621C43.1719 46.1628 43.1719 45.1912 42.5726 44.5918L41.5484 43.5677Z" fill="#83D0FB"/>
<path d="M43.4777 51.0767C44.077 50.4774 44.077 49.5058 43.4777 48.9064C42.8784 48.3071 41.9067 48.3071 41.3074 48.9064L37.5099 52.704C36.9105 53.3033 36.9105 54.275 37.5099 54.8743C38.1092 55.4736 39.0808 55.4736 39.6801 54.8743L43.4777 51.0767Z" fill="#83D0FB"/>
<path d="M57.6226 27.5106C57.0233 26.9112 56.0517 26.9112 55.4523 27.5106C54.853 28.1099 54.853 29.0815 55.4523 29.6809L56.4765 30.705C57.0758 31.3043 58.0475 31.3043 58.6468 30.705C59.2461 30.1057 59.2461 29.134 58.6468 28.5347L57.6226 27.5106Z" fill="#FAD564"/>
<path d="M24.9117 26.9339C24.3124 26.3346 23.3407 26.3346 22.7414 26.9339C22.1421 27.5332 22.1421 28.5049 22.7414 29.1042L23.7656 30.1284C24.3649 30.7277 25.3366 30.7277 25.9359 30.1284C26.5352 29.529 26.5352 28.5574 25.9359 27.9581L24.9117 26.9339Z" fill="#FAD564"/>
<path d="M59.548 35.0186C60.1474 34.4193 60.1474 33.4476 59.548 32.8483C58.9487 32.249 57.9771 32.249 57.3777 32.8483L53.5802 36.6459C52.9809 37.2452 52.9808 38.2169 53.5802 38.8162C54.1795 39.4155 55.1512 39.4155 55.7505 38.8162L59.548 35.0186Z" fill="#FAD564"/>
</svg>
