<svg width="106" height="106" viewBox="0 0 106 106" fill="none" xmlns="http://www.w3.org/2000/svg">
<g clip-path="url(#clip0_3822_7899)">
<path d="M42.6678 0.649658H20.0437C19.1426 0.649658 18.4121 1.37997 18.4121 2.28125V71.5672C18.4121 76.0655 22.0715 79.7249 26.5699 79.7249H36.1416C40.6399 79.7249 44.2994 76.0655 44.2994 71.5672V2.28125C44.2991 1.37997 43.569 0.649658 42.6678 0.649658Z" fill="#E0DDDF"/>
<path d="M44.2991 6.63196V2.28125C44.2991 1.38018 43.5686 0.649658 42.6676 0.649658H25.9362H20.0437C19.1426 0.649658 18.4121 1.38018 18.4121 2.28125V6.63196V71.5672C18.4121 76.0725 22.0643 79.7249 26.5699 79.7249H32.4626C27.9642 79.7249 24.3048 76.0655 24.3048 71.5672V7.71969C24.3048 7.11904 24.7919 6.63196 25.3925 6.63196H44.2991Z" fill="#C1BCBF"/>
<path d="M44.2991 25.3423H18.4121V71.5691C18.4121 76.0745 22.0643 79.7269 26.5699 79.7269H36.1416C40.647 79.7269 44.2994 76.0747 44.2994 71.5691V25.3423H44.2991Z" fill="#9FD25A"/>
<path d="M24.3048 71.5691V25.3423H18.4121V71.5691C18.4121 76.0745 22.0643 79.7269 26.5699 79.7269H32.4626C27.9642 79.7267 24.3048 76.0672 24.3048 71.5691Z" fill="#6EAD32"/>
<path d="M47.8887 3.91284H14.823C13.9219 3.91284 13.1914 3.18253 13.1914 2.28125C13.1914 1.37997 13.9219 0.649658 14.823 0.649658H47.8889C48.7902 0.649658 49.5205 1.37997 49.5205 2.28125C49.5205 3.18253 48.79 3.91284 47.8887 3.91284Z" fill="#E0DDDF"/>
<path d="M39.7322 0.649658H33.4961V3.91264H39.7322V0.649658Z" fill="#F9F8F9"/>
<path d="M40.4942 34.0439C42.2363 34.0439 43.6486 32.6316 43.6486 30.8895C43.6486 29.1474 42.2363 27.7351 40.4942 27.7351C38.7521 27.7351 37.3398 29.1474 37.3398 30.8895C37.3398 32.6316 38.7521 34.0439 40.4942 34.0439Z" fill="#6EAD32"/>
<path d="M28.7465 22.2959C27.0411 22.2959 25.6555 23.6502 25.5977 25.3415H31.8953C31.8374 23.6502 30.4516 22.2959 28.7465 22.2959Z" fill="#9FD25A"/>
<path d="M25.5972 25.3423C25.5959 25.3786 25.5918 25.4143 25.5918 25.4511C25.5918 27.1932 27.0041 28.6055 28.7462 28.6055C30.4882 28.6055 31.9005 27.1932 31.9005 25.4511C31.9005 25.4143 31.8962 25.3786 31.8952 25.3423H25.5972Z" fill="#6EAD32"/>
<path d="M30.9216 15.5495C32.3033 15.5495 33.4233 14.4295 33.4233 13.0478C33.4233 11.6662 32.3033 10.5461 30.9216 10.5461C29.54 10.5461 28.4199 11.6662 28.4199 13.0478C28.4199 14.4295 29.54 15.5495 30.9216 15.5495Z" fill="#9FD25A"/>
<path d="M40.6017 17.9415C41.5629 17.9415 42.3421 17.1623 42.3421 16.2011C42.3421 15.2399 41.5629 14.4607 40.6017 14.4607C39.6405 14.4607 38.8613 15.2399 38.8613 16.2011C38.8613 17.1623 39.6405 17.9415 40.6017 17.9415Z" fill="#9FD25A"/>
<path d="M31.1404 38.6132C32.522 38.6132 33.6421 37.4932 33.6421 36.1116C33.6421 34.7299 32.522 33.6099 31.1404 33.6099C29.7587 33.6099 28.6387 34.7299 28.6387 36.1116C28.6387 37.4932 29.7587 38.6132 31.1404 38.6132Z" fill="#6EAD32"/>
<path d="M85.7398 0.649658H63.116C62.2149 0.649658 61.4844 1.37997 61.4844 2.28125V71.5672C61.4844 76.0655 65.1438 79.7249 69.6421 79.7249H79.2139C83.7122 79.7249 87.3716 76.0655 87.3716 71.5672V2.28125C87.3714 1.37997 86.6411 0.649658 85.7398 0.649658Z" fill="#E0DDDF"/>
<path d="M87.3714 6.92206V2.28125C87.3714 1.38018 86.6409 0.649658 85.7398 0.649658H69.4245H63.116C62.2149 0.649658 61.4844 1.38018 61.4844 2.28125V6.92206V71.5672C61.4844 76.0725 65.1366 79.7249 69.6421 79.7249H75.9507C71.4523 79.7249 67.7929 76.0655 67.7929 71.5672V8.00959C67.7929 7.40894 68.28 6.92186 68.8806 6.92186H87.3714V6.92206Z" fill="#C1BCBF"/>
<path d="M87.3714 20.8816H61.4844V71.5679C61.4844 76.0733 65.1366 79.7257 69.6421 79.7257H79.2139C83.7192 79.7257 87.3716 76.0735 87.3716 71.5679V20.8816H87.3714Z" fill="#5CC4E0"/>
<path d="M67.7929 71.5679V20.8816H61.4844V71.5679C61.4844 76.0733 65.1366 79.7257 69.6421 79.7257H75.9507C71.4523 79.7255 67.7929 76.0661 67.7929 71.5679Z" fill="#439EE8"/>
<path d="M90.9611 3.91284H57.8953C56.9942 3.91284 56.2637 3.18253 56.2637 2.28125C56.2637 1.37997 56.9942 0.649658 57.8953 0.649658H90.9611C91.8624 0.649658 92.5927 1.37997 92.5927 2.28125C92.5927 3.18253 91.8622 3.91284 90.9611 3.91284Z" fill="#E0DDDF"/>
<path d="M82.9484 0.649658H77.4375V3.91264H82.9484V0.649658Z" fill="#F9F8F9"/>
<path d="M71.3837 26.8631C72.6451 26.8631 73.6677 25.8404 73.6677 24.579C73.6677 23.3175 72.6451 22.2949 71.3837 22.2949C70.1222 22.2949 69.0996 23.3175 69.0996 24.579C69.0996 25.8404 70.1222 26.8631 71.3837 26.8631Z" fill="#439EE8"/>
<path d="M71.6024 39.7014C72.8639 39.7014 73.8865 38.6788 73.8865 37.4174C73.8865 36.1559 72.8639 35.1333 71.6024 35.1333C70.341 35.1333 69.3184 36.1559 69.3184 37.4174C69.3184 38.6788 70.341 39.7014 71.6024 39.7014Z" fill="#439EE8"/>
<path d="M73.9931 19.032C75.2545 19.032 76.2771 18.0094 76.2771 16.7479C76.2771 15.4865 75.2545 14.4639 73.9931 14.4639C72.7316 14.4639 71.709 15.4865 71.709 16.7479C71.709 18.0094 72.7316 19.032 73.9931 19.032Z" fill="#5CC4E0"/>
<path d="M83.4577 33.6085C85.1397 33.6085 86.5032 32.2449 86.5032 30.5629C86.5032 28.8809 85.1397 27.5173 83.4577 27.5173C81.7757 27.5173 80.4121 28.8809 80.4121 30.5629C80.4121 32.2449 81.7757 33.6085 83.4577 33.6085Z" fill="#439EE8"/>
<path d="M76.8236 12.0723C77.8448 12.0723 78.6726 11.2445 78.6726 10.2233C78.6726 9.2021 77.8448 8.37427 76.8236 8.37427C75.8024 8.37427 74.9746 9.2021 74.9746 10.2233C74.9746 11.2445 75.8024 12.0723 76.8236 12.0723Z" fill="#5CC4E0"/>
<path d="M75.0814 32.9549C76.1026 32.9549 76.9305 32.127 76.9305 31.1059C76.9305 30.0847 76.1026 29.2568 75.0814 29.2568C74.0603 29.2568 73.2324 30.0847 73.2324 31.1059C73.2324 32.127 74.0603 32.9549 75.0814 32.9549Z" fill="#439EE8"/>
<path d="M12.6527 103.438C9.48019 103.438 6.47428 102.058 4.40557 99.6526C2.33686 97.2472 1.4234 94.0684 1.89851 90.9314L7.96319 50.9043C8.77507 45.546 13.298 41.6567 18.7174 41.6567H87.2871C92.7065 41.6567 97.2292 45.546 98.0413 50.9043L104.106 90.9314C104.581 94.0682 103.667 97.247 101.599 99.6524C99.5302 102.058 96.5243 103.438 93.3516 103.438H12.6527V103.438ZM12.6525 96.9116H93.3516C96.0141 96.9116 98.052 94.5415 97.6531 91.9091L91.5887 51.882C91.2665 49.755 89.438 48.1829 87.2871 48.1829H18.7172C16.5659 48.1829 14.7378 49.755 14.4156 51.882L8.35096 91.9091C7.95184 94.5415 9.98999 96.9116 12.6525 96.9116Z" fill="#C1BCBF"/>
<path d="M104.104 90.93L98.0392 50.9031C97.2273 45.5447 92.7044 41.6555 87.2849 41.6555H53V48.1817H87.2849C89.4362 48.1817 91.2644 49.7538 91.5865 51.8807L97.6512 91.9078C98.0499 94.5402 96.012 96.9104 93.3496 96.9104H53V103.437H93.3496C96.5222 103.437 99.5281 102.057 101.597 99.6514C103.665 97.2455 104.579 94.067 104.104 90.93Z" fill="#A29A9F"/>
<path d="M12.6508 96.9104C9.98822 96.9104 7.95028 94.5402 8.3492 91.9079L14.4139 51.8807C14.736 49.7538 16.5646 48.1817 18.7155 48.1817H53.0004V41.6555H18.7155C13.296 41.6555 8.7733 45.5447 7.96122 50.9031L1.89654 90.9302C1.42143 94.067 2.3351 97.2457 4.4036 99.6512C6.4721 102.057 9.47802 103.436 12.6508 103.436H53.0002V96.9102H12.6508V96.9104Z" fill="#A29A9F"/>
<path d="M93.3506 105.069H12.6516C9.00309 105.069 5.54602 103.482 3.16739 100.716C0.788552 97.9493 -0.262218 94.294 0.284124 90.6866L6.34881 50.6595C7.28251 44.4974 12.4839 40.0247 18.7161 40.0247H87.2857C93.5181 40.0247 98.7193 44.4972 99.653 50.6591L105.718 90.6866C106.264 94.294 105.213 97.9495 102.834 100.716C100.456 103.482 96.9991 105.069 93.3506 105.069ZM18.7161 43.2881C14.1095 43.2881 10.2651 46.5938 9.57504 51.1485L3.51035 91.1756C3.10648 93.842 3.88305 96.5438 5.64142 98.5884C7.39958 100.633 9.95475 101.806 12.6516 101.806H93.3506C96.0474 101.806 98.6024 100.633 100.361 98.5884C102.119 96.5434 102.895 93.8418 102.492 91.1754L96.4271 51.1485C95.7371 46.5938 91.8929 43.2881 87.2861 43.2881H18.7161ZM93.3506 98.5427H12.6516C10.9066 98.5427 9.25314 97.7839 8.11544 96.4608C6.97775 95.1379 6.47518 93.3897 6.73678 91.6643L12.8015 51.6372C13.2481 48.6899 15.7355 46.551 18.7163 46.551H87.2859C90.2666 46.551 92.7541 48.6902 93.2005 51.637L99.2652 91.6643C99.5266 93.3897 99.024 95.1379 97.8861 96.4608C96.7488 97.7839 95.0954 98.5427 93.3506 98.5427ZM18.7161 49.814C17.3611 49.814 16.2307 50.7863 16.0277 52.126L9.96301 92.1531C9.84429 92.937 10.0727 93.732 10.5897 94.3333C11.1067 94.9345 11.8583 95.2796 12.6516 95.2796H93.3506C94.1437 95.2796 94.8953 94.9345 95.4125 94.3333C95.9295 93.7318 96.1581 92.937 96.0392 92.1528L89.9747 52.126C89.7717 50.7863 88.6412 49.814 87.2863 49.814H18.7161Z" fill="#E0DDDF"/>
</g>
<defs>
<clipPath id="clip0_3822_7899">
<rect width="105.717" height="105.717" fill="white" transform="translate(0.142578)"/>
</clipPath>
</defs>
</svg>
