<svg width="15" height="16" viewBox="0 0 15 16" fill="none" xmlns="http://www.w3.org/2000/svg">
<g clip-path="url(#clip0_3822_7736)">
<path fill-rule="evenodd" clip-rule="evenodd" d="M7.252 0.727216C7.32753 0.68407 7.41301 0.661377 7.5 0.661377C7.58699 0.661377 7.67247 0.68407 7.748 0.727216L14.748 4.72722C14.8245 4.77093 14.8881 4.83409 14.9324 4.91031C14.9766 4.98653 15 5.07308 15 5.16122V5.88122C15 8.08719 14.2814 10.2331 12.9528 11.9942C11.6243 13.7552 9.75818 15.0355 7.637 15.6412C7.54745 15.6667 7.45255 15.6667 7.363 15.6412C5.24198 15.0352 3.37607 13.7548 2.04757 11.9939C0.719076 10.2329 0.000300345 8.08711 0 5.88122L0 5.16122C2.8427e-05 5.07308 0.0233513 4.98653 0.0676055 4.91031C0.11186 4.83409 0.175473 4.77093 0.252 4.72722L7.252 0.727216ZM7.072 11.3722L11.39 5.97322L10.61 5.34922L6.928 9.95022L4.32 7.77722L3.68 8.54522L7.072 11.3722Z" fill="#00B75F"/>
</g>
<defs>
<clipPath id="clip0_3822_7736">
<rect width="15" height="15" fill="white" transform="translate(0 0.661133)"/>
</clipPath>
</defs>
</svg>
