<svg width="324" height="102" viewBox="0 0 324 102" fill="none" xmlns="http://www.w3.org/2000/svg">
<rect width="59.7299" height="59.5904" rx="29.7952" transform="matrix(0.999615 -0.0277442 0.0281002 0.999605 0 21.5723)" fill="white"/>
<path d="M40.9239 43.559L40.9144 46.5459L40.925 50.1038L37.0321 51.1485L33.9674 49.8039L37.0313 46.5321L30.4141 42.8587L30.4171 59.9499L45.9902 51.1501L46.134 41.6667L30.5247 31.8817L22.1279 36.6224L22.047 62.0111L17.8719 59.9054L17.9557 33.6207L30.5238 26.4966L51.0929 39.4133L50.5458 53.2418L29.9378 65.6338L25.6266 63.5172L25.7037 39.3233L30.4914 36.6521L40.9239 43.559Z" fill="#29329C"/>
<path d="M13.7268 38.2258L9.84418 40.6146L9.84838 64.2113L29.863 74.3638L51.4108 62.393L51.8588 62.1691L51.081 61.0492L49.3193 58.7337L29.8621 69.6594L13.7309 61.2251L13.7268 38.2258Z" fill="#29329C"/>
<path d="M103.497 54.6047C103.497 55.9936 103.408 57.2481 103.228 58.3683H74.9346C75.1586 61.3253 76.2563 63.7 78.2277 65.4921C80.1991 67.2843 82.6185 68.1804 85.486 68.1804C89.608 68.1804 92.5202 66.4554 94.2228 63.0055H102.489C101.369 66.4106 99.3305 69.2109 96.3734 71.4063C93.4611 73.5569 89.832 74.6322 85.486 74.6322C81.9464 74.6322 78.7653 73.8481 75.9427 72.28C73.1648 70.667 70.9694 68.4268 69.3564 65.5593C67.7883 62.6471 67.0042 59.2867 67.0042 55.4784C67.0042 51.67 67.7659 48.3321 69.2892 45.4646C70.8574 42.5524 73.0304 40.3121 75.8083 38.744C78.6309 37.1758 81.8568 36.3918 85.486 36.3918C88.9807 36.3918 92.0946 37.1534 94.8277 38.6768C97.5607 40.2001 99.6889 42.3507 101.212 45.1286C102.736 47.8617 103.497 51.0204 103.497 54.6047ZM95.4997 52.1853C95.4549 49.3626 94.4468 47.1 92.4754 45.3974C90.504 43.6949 88.0622 42.8436 85.1499 42.8436C82.5065 42.8436 80.2439 43.6949 78.3621 45.3974C76.4803 47.0552 75.3602 49.3178 75.0018 52.1853H95.4997ZM105.123 55.344C105.123 51.6252 105.885 48.3321 107.408 45.4646C108.976 42.5972 111.082 40.3793 113.725 38.8112C116.414 37.1982 119.393 36.3918 122.664 36.3918C125.083 36.3918 127.458 36.9294 129.788 38.0047C132.162 39.0352 134.044 40.4241 135.433 42.1715V24.2946H143.162V74.0273H135.433V68.4492C134.178 70.2414 132.431 71.7199 130.191 72.8848C127.995 74.0497 125.464 74.6322 122.596 74.6322C119.371 74.6322 116.414 73.8257 113.725 72.2128C111.082 70.555 108.976 68.27 107.408 65.3577C105.885 62.4006 105.123 59.0627 105.123 55.344ZM135.433 55.4784C135.433 52.9245 134.895 50.7067 133.82 48.8249C132.789 46.9432 131.423 45.5094 129.72 44.5237C128.018 43.538 126.181 43.0452 124.209 43.0452C122.238 43.0452 120.401 43.538 118.699 44.5237C116.996 45.4646 115.607 46.876 114.532 48.7577C113.501 50.5947 112.986 52.7901 112.986 55.344C112.986 57.8978 113.501 60.138 114.532 62.0646C115.607 63.9912 116.996 65.4697 118.699 66.5002C120.446 67.4859 122.283 67.9788 124.209 67.9788C126.181 67.9788 128.018 67.4859 129.72 66.5002C131.423 65.5145 132.789 64.0808 133.82 62.199C134.895 60.2724 135.433 58.0322 135.433 55.4784ZM183.4 36.9966V74.0273H175.739V69.6589C174.529 71.1823 172.939 72.392 170.967 73.2881C169.041 74.1394 166.98 74.565 164.784 74.565C161.872 74.565 159.251 73.9601 156.921 72.7504C154.636 71.5407 152.822 69.7485 151.477 67.3739C150.178 64.9993 149.528 62.1318 149.528 58.7715V36.9966H157.123V57.629C157.123 60.9445 157.952 63.4983 159.609 65.2905C161.267 67.0379 163.53 67.9116 166.397 67.9116C169.265 67.9116 171.527 67.0379 173.185 65.2905C174.888 63.4983 175.739 60.9445 175.739 57.629V36.9966H183.4ZM314.146 74.4978C312.757 74.4978 311.592 74.0273 310.652 73.0865C309.711 72.1456 309.24 70.9807 309.24 69.5917C309.24 68.2028 309.711 67.0379 310.652 66.097C311.592 65.1561 312.757 64.6857 314.146 64.6857C315.49 64.6857 316.633 65.1561 317.574 66.097C318.515 67.0379 318.985 68.2028 318.985 69.5917C318.985 70.9807 318.515 72.1456 317.574 73.0865C316.633 74.0273 315.49 74.4978 314.146 74.4978Z" fill="#02CBE1"/>
<path d="M205.674 43.2468H198.819V74.0273H191.09V43.2468H186.721V36.9966H191.09V34.3756C191.09 30.1192 192.21 27.0277 194.45 25.1011C196.735 23.1297 200.297 22.144 205.136 22.144V28.5286C202.806 28.5286 201.171 28.9767 200.23 29.8727C199.289 30.724 198.819 32.225 198.819 34.3756V36.9966H205.674V43.2468ZM243.042 54.6047C243.042 55.9936 242.953 57.2481 242.774 58.3683H214.48C214.704 61.3253 215.801 63.7 217.773 65.4921C219.744 67.2843 222.164 68.1804 225.031 68.1804C229.153 68.1804 232.065 66.4554 233.768 63.0055H242.034C240.914 66.4106 238.876 69.2109 235.919 71.4063C233.006 73.5569 229.377 74.6322 225.031 74.6322C221.492 74.6322 218.31 73.8481 215.488 72.28C212.71 70.667 210.515 68.4268 208.902 65.5593C207.333 62.6471 206.549 59.2867 206.549 55.4784C206.549 51.67 207.311 48.3321 208.834 45.4646C210.403 42.5524 212.576 40.3121 215.353 38.744C218.176 37.1758 221.402 36.3918 225.031 36.3918C228.526 36.3918 231.64 37.1534 234.373 38.6768C237.106 40.2001 239.234 42.3507 240.757 45.1286C242.281 47.8617 243.042 51.0204 243.042 54.6047ZM235.045 52.1853C235 49.3626 233.992 47.1 232.021 45.3974C230.049 43.6949 227.607 42.8436 224.695 42.8436C222.052 42.8436 219.789 43.6949 217.907 45.3974C216.025 47.0552 214.905 49.3178 214.547 52.1853H235.045ZM244.668 55.344C244.668 51.6252 245.43 48.3321 246.953 45.4646C248.521 42.5972 250.627 40.3793 253.27 38.8112C255.959 37.1982 258.916 36.3918 262.142 36.3918C265.054 36.3918 267.585 36.9742 269.736 38.1391C271.931 39.2592 273.679 40.6706 274.978 42.3731V36.9966H282.707V74.0273H274.978V68.5164C273.679 70.2638 271.909 71.7199 269.669 72.8848C267.429 74.0497 264.875 74.6322 262.007 74.6322C258.826 74.6322 255.914 73.8257 253.27 72.2128C250.627 70.555 248.521 68.27 246.953 65.3577C245.43 62.4006 244.668 59.0627 244.668 55.344ZM274.978 55.4784C274.978 52.9245 274.44 50.7067 273.365 48.8249C272.335 46.9432 270.968 45.5094 269.266 44.5237C267.563 43.538 265.726 43.0452 263.755 43.0452C261.783 43.0452 259.946 43.538 258.244 44.5237C256.541 45.4646 255.152 46.876 254.077 48.7577C253.046 50.5947 252.531 52.7901 252.531 55.344C252.531 57.8978 253.046 60.138 254.077 62.0646C255.152 63.9912 256.541 65.4697 258.244 66.5002C259.991 67.4859 261.828 67.9788 263.755 67.9788C265.726 67.9788 267.563 67.4859 269.266 66.5002C270.968 65.5145 272.335 64.0808 273.365 62.199C274.44 60.2724 274.978 58.0322 274.978 55.4784ZM298.348 43.2468V63.7448C298.348 65.1337 298.662 66.1418 299.289 66.7691C299.961 67.3515 301.081 67.6427 302.649 67.6427H307.354V74.0273H301.305C297.855 74.0273 295.212 73.2209 293.375 71.6079C291.538 69.995 290.619 67.3739 290.619 63.7448V43.2468H286.251V36.9966H290.619V27.7893H298.348V36.9966H307.354V43.2468H298.348Z" fill="white"/>
</svg>
